<?xml version="1.0" standalone="no"?>
<!DOCTYPE svg PUBLIC "-//W3C//DTD SVG 1.1//EN" "http://www.w3.org/Graphics/SVG/1.1/DTD/svg11.dtd">
<svg width="105mm" height="225mm" viewBox="-44 -62 105 225" xmlns="http://www.w3.org/2000/svg" version="1.1">
<title>OpenSCAD Model</title>
<path d="
M 59,-53.439 L 59.0068,-53.439 L 59.0019,-53.5288 L 59.0003,-53.681 L 59.0003,-55.0491 L 59,-55.0491
 L 59,-62 L -44,-62 L -44,8 L 59,8 z
M 59.5005,-53.2065 L 59.6251,-53.4488 L 59.6988,-53.7143 L 59.7233,-54.0119 L 59.7233,-54.0162 L 59.6989,-54.3123
 L 59.6257,-54.5777 L 59.5012,-54.8206 L 59.323,-55.0491 L 59.1342,-55.0491 L 59.3101,-54.8159 L 59.432,-54.5695
 L 59.5032,-54.3043 L 59.5269,-54.0141 L 59.5033,-53.724 L 59.4325,-53.4591 L 59.3108,-53.2129 L 59.1342,-52.979
 L 59.323,-52.979 z
M 58.0665,54.561 L 58.0665,53.8807 L 58.0869,53.728 L 58.1479,53.6127 L 58.2442,53.5403 L 58.3703,53.5162
 L 58.4552,53.5232 L 58.5168,53.5444 L 58.5599,53.5815 L 58.5895,53.6366 L 58.6066,53.7136 L 58.6123,53.8167
 L 58.6123,54.561 L 58.8086,54.561 L 58.8086,53.7787 L 58.7863,53.5887 L 58.7191,53.4614 L 58.6037,53.3893
 L 58.4365,53.3653 L 58.3159,53.378 L 58.2168,53.4158 L 58.1337,53.484 L 58.0611,53.5878 L 58.0578,53.5878
 L 58.0558,53.5157 L 58.054,53.4711 L 58.0525,53.442 L 58.0513,53.4163 L 58.0502,53.3971 L 58.0492,53.387
 L 58,53.387 L 58,49 L -43,49 L -43,163 L 58,163 L 58,54.561
 z
M 59.8873,54.8984 L 60.0101,54.5274 L 60.0101,53.6301 L 60.0118,53.4771 L 60.0166,53.387 L 59.8311,53.387
 L 59.8268,53.4128 L 59.8224,53.4749 L 59.8192,53.5433 L 59.8181,53.5878 L 59.8159,53.5878 L 59.7556,53.4946
 L 59.6743,53.4256 L 59.5744,53.3828 L 59.4579,53.3686 L 59.2638,53.4056 L 59.1264,53.5167 L 59.0446,53.7056
 L 59.0174,53.9762 L 59.0427,54.2423 L 59.1188,54.4265 L 59.2489,54.5339 L 59.4362,54.5697 L 59.5572,54.5554
 L 59.6618,54.5127 L 59.7481,54.4418 L 59.8138,54.3429 L 59.8159,54.3429 L 59.8159,54.5317 L 59.743,54.788
 L 59.5241,54.8735 L 59.426,54.8625 L 59.3488,54.8295 L 59.2939,54.7762 L 59.2626,54.7042 L 59.0662,54.7324
 L 59.1191,54.8554 L 59.2127,54.9467 L 59.3461,55.0033 L 59.5186,55.0221 z
M 59.37,54.399 L 59.2832,54.3201 L 59.2352,54.181 L 59.2192,53.974 L 59.2363,53.7646 L 59.2875,53.6225
 L 59.3762,53.5411 L 59.5056,53.514 L 59.5909,53.5277 L 59.6667,53.5688 L 59.7298,53.6358 L 59.7769,53.7272
 L 59.8062,53.8407 L 59.8159,53.974 L 59.8062,54.1043 L 59.7769,54.2154 L 59.7297,54.3051 L 59.6662,54.3711
 L 59.5894,54.4118 L 59.5024,54.4254 z
" stroke="black" fill="lightgray" stroke-width="0.5"/>
</svg>
