<?xml version="1.0" standalone="no"?>
<!DOCTYPE svg PUBLIC "-//W3C//DTD SVG 1.1//EN" "http://www.w3.org/Graphics/SVG/1.1/DTD/svg11.dtd">
<svg width="108mm" height="25mm" viewBox="-35 -6 108 25" xmlns="http://www.w3.org/2000/svg" version="1.1">
<title>OpenSCAD Model</title>
<path d="
M 32.6069,18.918 L 33.1372,18.6118 L 33.1552,18.5951 L 33.1665,18.5701 L 33.1704,18.5386 L 33.1958,18.5194
 L 33.2118,18.4971 L 33.2172,18.4732 L 33.2172,13.5742 L 33.2118,13.5503 L 33.1958,13.5281 L 33.1704,13.5089
 L 33.1665,13.4774 L 33.1552,13.4524 L 33.1372,13.4357 L 25.0154,8.74652 L 25.0154,7.82108 L 25.023,7.69951
 L 25.0459,7.592 L 25.084,7.49852 L 25.1374,7.41908 L 25.204,7.35571 L 25.2819,7.31044 L 25.3709,7.28329
 L 25.471,7.27423 L 25.5391,7.27689 L 25.5984,7.28482 L 25.6489,7.29803 L 25.6907,7.31654 L 25.7256,7.34106
 L 25.7554,7.37228 L 25.7802,7.41023 L 25.7998,7.45488 L 25.8147,7.50778 L 25.8254,7.57043 L 25.8318,7.64287
 L 25.834,7.72505 L 25.834,8.84149 L 26.1286,8.84149 L 26.1286,7.66808 L 26.1202,7.51382 L 26.095,7.38306
 L 26.053,7.2758 L 25.9943,7.19203 L 25.9174,7.12903 L 25.8212,7.08401 L 25.7055,7.05701 L 25.5703,7.048
 L 25.4759,7.05273 L 25.3895,7.06693 L 25.3111,7.09058 L 25.2407,7.12369 L 25.1764,7.16818 L 25.116,7.22601
 L 25.0596,7.29716 L 25.0072,7.38164 L 25.0023,7.38164 L 25.0007,7.32249 L 24.9993,7.27362 L 24.9979,7.23502
 L 24.9966,7.2067 L 24.9944,7.16295 L 24.9934,7.14307 L 24.9926,7.1245 L 24.9917,7.10832 L 24.9909,7.09561
 L 24.9901,7.08635 L 24.9893,7.08055 L 24.7126,7.08055 L 24.7169,7.12968 L 24.72,7.20872 L 24.7218,7.31767
 L 24.7224,7.45651 L 24.7224,8.57738 L 24.3035,8.33554 L 24.3035,7.08055 L 24.0106,7.08055 L 24.0106,8.10097
 L 24.0066,8.16412 L 23.1919,7.69377 L 23.1919,7.08055 L 22.8974,7.08055 L 22.8974,7.5237 L 22.3881,7.22969
 L 22.3377,7.17435 L 22.226,7.10416 L 22.1043,7.06581 L 21.3881,6.6523 L 21.3881,6.42628 L 21.0951,6.42628
 L 21.0951,6.48317 L 0.610321,-5.34372 L 0.586884,-5.35095 L 0.559601,-5.34825 L 0.530319,-5.3358 L 0.501038,-5.34825
 L 0.473755,-5.35095 L 0.450317,-5.34372 L -0.0799866,-5.03754 L -0.0979767,-5.02086 L -0.109268,-4.99588 L -0.113129,-4.96429
 L -0.13855,-4.94516 L -0.154541,-4.92288 L -0.159988,-4.89897 L -0.159988,-0 L -0.154541,0.0238953 L -0.13855,0.0461731
 L -0.113129,0.0653076 L -0.109268,0.0968933 L -0.0979767,0.121887 L -0.0799866,0.13855 L 12.1368,7.19193 L 12.1377,7.21442
 L 12.1395,7.31583 L 12.1401,7.44022 L 12.1401,9.53317 L 12.4331,9.53317 L 12.4331,8.84476 L 12.4326,8.72859
 L 12.4314,8.64375 L 12.4294,8.59024 L 12.4265,8.56805 L 12.4347,8.56805 L 12.5213,8.70192 L 12.6414,8.79755
 L 12.7948,8.85492 L 12.9815,8.87404 L 13.2649,8.81647 L 13.4673,8.64374 L 13.5888,8.35588 L 13.6197,8.0481
 L 13.9505,8.23907 L 13.9505,8.84149 L 14.2434,8.84149 L 14.2434,8.4082 L 15.1219,8.91534 L 15.0409,9.07921
 L 14.9398,9.20483 L 14.8245,9.28021 L 14.6949,9.30534 L 14.6582,9.30473 L 14.6232,9.3029 L 14.5899,9.29985
 L 14.5582,9.29558 L 14.5582,9.51527 L 14.6013,9.5231 L 14.6493,9.5287 L 14.7022,9.53206 L 14.76,9.53317
 L 14.8305,9.52895 L 14.8973,9.51628 L 14.9603,9.49518 L 15.0195,9.46564 L 15.0756,9.42749 L 15.1292,9.3806
 L 15.1802,9.32497 L 15.2287,9.26057 L 15.2768,9.18282 L 15.3267,9.08705 L 15.346,9.04475 L 16.1262,9.49522
 L 16.0963,9.53157 L 16.1892,9.53157 L 32.4469,18.918 L 32.4703,18.9252 L 32.4976,18.9225 L 32.5269,18.9101
 L 32.5562,18.9225 L 32.5835,18.9252 z
M 12.4298,7.36374 L 12.4298,7.36107 L 12.4344,7.36374 z
M 12.7876,8.64731 L 12.689,8.61649 L 12.6077,8.56512 L 12.5437,8.49321 L 12.4953,8.39963 L 12.4607,8.28326
 L 12.44,8.1441 L 12.4331,7.98219 L 12.4363,7.86354 L 12.4459,7.75658 L 12.4619,7.66133 L 12.4843,7.57776
 L 12.5129,7.50517 L 12.5474,7.44287 L 12.5548,7.43327 L 13.3186,7.87424 L 13.3217,7.95941 L 13.3154,8.1346
 L 13.2966,8.28265 L 13.2654,8.40355 L 13.2216,8.49728 L 13.1642,8.56741 L 13.092,8.61751 L 13.0051,8.64757
 L 12.9034,8.65758 z
M -13.6531,6.42628 L -13.9461,6.42628 L -13.9461,6.70622 L -13.6531,6.70622 z
M 40.0308,8.2149 L 40.2456,8.03752 L 40.8413,8.84149 L 41.1847,8.84149 L 40.4328,7.83734 L 41.1472,7.08055
 L 40.8038,7.08055 L 40.0308,7.93498 L 40.0308,6.42628 L 39.7378,6.42628 L 39.7378,8.84149 L 40.0308,8.84149
 z
M 34.7889,7.80318 L 34.7967,7.68813 L 34.82,7.58549 L 34.8589,7.49527 L 34.9134,7.41747 L 34.9808,7.3548
 L 35.0585,7.31004 L 35.1464,7.28319 L 35.2446,7.27423 L 35.31,7.27689 L 35.3679,7.28482 L 35.4182,7.29803
 L 35.4611,7.31654 L 35.4974,7.3407 L 35.5282,7.37086 L 35.5535,7.40703 L 35.5733,7.44919 L 35.5883,7.50031
 L 35.599,7.56331 L 35.6054,7.63823 L 35.6075,7.72505 L 35.6075,8.84149 L 35.9021,8.84149 L 35.9021,7.66808
 L 35.8936,7.5125 L 35.8681,7.38104 L 35.8257,7.27368 L 35.7662,7.19043 L 35.6889,7.12813 L 35.5927,7.08362
 L 35.4777,7.05692 L 35.3439,7.048 L 35.2466,7.05304 L 35.1581,7.06816 L 35.0785,7.09334 L 35.0078,7.12859
 L 34.9439,7.17461 L 34.8847,7.23212 L 34.8304,7.30113 L 34.7808,7.38164 L 34.7759,7.38164 L 34.7769,7.3679
 L 34.7785,7.34299 L 34.7806,7.30687 L 34.7832,7.25957 L 34.7857,7.20708 L 34.7875,7.15541 L 34.7886,7.10455
 L 34.7889,7.05452 L 34.7889,6.42628 L 34.4959,6.42628 L 34.4959,8.84149 L 34.7889,8.84149 z
M 47.4502,8.86946 L 47.5374,8.85573 L 47.6166,8.83286 L 47.6878,8.80081 L 47.7516,8.75819 L 47.8088,8.70357
 L 47.8594,8.63695 L 47.9034,8.55832 L 47.9099,8.55832 L 47.9103,8.59412 L 47.9114,8.63318 L 47.9131,8.67549
 L 47.9156,8.72105 L 47.9184,8.76398 L 47.9211,8.79837 L 47.9237,8.8242 L 47.9262,8.84149 L 48.2061,8.84149
 L 48.2019,8.78586 L 48.1988,8.70682 L 48.197,8.60439 L 48.1964,8.47856 L 48.1964,6.42628 L 47.9034,6.42628
 L 47.9034,7.15704 L 47.9067,7.35396 L 47.9034,7.35396 L 47.8595,7.27962 L 47.809,7.21605 L 47.7521,7.16327
 L 47.6886,7.12126 L 47.6177,7.08922 L 47.5385,7.06633 L 47.4509,7.0526 L 47.355,7.048 L 47.0716,7.10558
 L 46.8692,7.27831 L 46.7477,7.56616 L 46.7072,7.96916 L 46.717,8.18256 L 46.7465,8.36707 L 46.7956,8.52271
 L 46.8643,8.64944 L 46.9538,8.7477 L 47.0655,8.81789 L 47.1992,8.86 L 47.355,8.87404 z
M 47.3276,8.63785 L 47.2406,8.60794 L 47.1689,8.55811 L 47.1125,8.48833 L 47.0697,8.39546 L 47.0392,8.27635
 L 47.0209,8.131 L 47.0148,7.95941 L 47.021,7.78827 L 47.0394,7.64265 L 47.0702,7.52257 L 47.1133,7.42802
 L 47.1702,7.35648 L 47.2425,7.30536 L 47.3301,7.27469 L 47.4331,7.26447 L 47.5476,7.27464 L 47.6455,7.30516
 L 47.7267,7.35602 L 47.7911,7.42722 L 47.8403,7.52028 L 47.8754,7.63675 L 47.8964,7.77661 L 47.9034,7.93988
 L 47.8964,8.10942 L 47.8754,8.25519 L 47.8403,8.37714 L 47.7911,8.4753 L 47.7265,8.55078 L 47.6447,8.60469
 L 47.5458,8.63702 L 47.4298,8.64781 z
M 32.6589,6.42628 L 32.4017,6.42628 L 31.7328,8.87404 L 31.9965,8.87404 z
M -12.5629,8.86946 L -12.4756,8.85573 L -12.3965,8.83286 L -12.3253,8.80081 L -12.2615,8.75819 L -12.2043,8.70357
 L -12.1537,8.63695 L -12.1096,8.55832 L -12.1031,8.55832 L -12.1028,8.59412 L -12.1017,8.63318 L -12.1,8.67549
 L -12.0975,8.72105 L -12.0947,8.76398 L -12.092,8.79837 L -12.0894,8.8242 L -12.0869,8.84149 L -11.8069,8.84149
 L -11.8112,8.78586 L -11.8143,8.70682 L -11.8161,8.60439 L -11.8167,8.47856 L -11.8167,6.42628 L -12.1096,6.42628
 L -12.1096,7.15704 L -12.1064,7.35396 L -12.1096,7.35396 L -12.1536,7.27962 L -12.2041,7.21605 L -12.261,7.16327
 L -12.3245,7.12126 L -12.3954,7.08922 L -12.4746,7.06633 L -12.5622,7.0526 L -12.6581,7.048 L -12.9415,7.10558
 L -13.1439,7.27831 L -13.2654,7.56616 L -13.3059,7.96916 L -13.2961,8.18256 L -13.2666,8.36707 L -13.2175,8.52271
 L -13.1488,8.64944 L -13.0592,8.7477 L -12.9476,8.81789 L -12.8139,8.86 L -12.6581,8.87404 z
M -12.6855,8.63785 L -12.7724,8.60794 L -12.8442,8.55811 L -12.9006,8.48833 L -12.9433,8.39546 L -12.9739,8.27635
 L -12.9922,8.131 L -12.9983,7.95941 L -12.9921,7.78827 L -12.9737,7.64265 L -12.9429,7.52257 L -12.8998,7.42802
 L -12.8429,7.35648 L -12.7706,7.30536 L -12.683,7.27469 L -12.58,7.26447 L -12.4655,7.27464 L -12.3676,7.30516
 L -12.2864,7.35602 L -12.222,7.42722 L -12.1728,7.52028 L -12.1377,7.63675 L -12.1167,7.77661 L -12.1096,7.93988
 L -12.1167,8.10942 L -12.1377,8.25519 L -12.1728,8.37714 L -12.222,8.4753 L -12.2867,8.55078 L -12.3684,8.60469
 L -12.4673,8.63702 L -12.5833,8.64781 z
M 8.06682,6.42628 L 7.80969,6.42628 L 7.14078,8.87404 L 7.40445,8.87404 z
M -20.3447,8.2149 L -20.1299,8.03752 L -19.5342,8.84149 L -19.1908,8.84149 L -19.9427,7.83734 L -19.2283,7.08055
 L -19.5717,7.08055 L -20.3447,7.93498 L -20.3447,6.42628 L -20.6377,6.42628 L -20.6377,8.84149 L -20.3447,8.84149
 z
M -16.0039,6.42628 L -16.2969,6.42628 L -16.2969,6.70622 L -16.0039,6.70622 z
M 5.19344,9.35762 L 5.07092,9.1792 L 4.96925,8.99631 L 4.88844,8.80894 L 4.82684,8.61487 L 4.78285,8.41182
 L 4.75645,8.19984 L 4.74767,7.97893 L 4.75656,7.75717 L 4.78325,7.54437 L 4.82776,7.34053 L 4.89005,7.14565
 L 4.97137,6.95787 L 5.07295,6.77539 L 5.19476,6.59819 L 5.33681,6.42628 L 5.05363,6.42628 L 4.91057,6.59422
 L 4.78732,6.76765 L 4.68393,6.94658 L 4.60037,7.131 L 4.53593,7.32417 L 4.4899,7.52934 L 4.46228,7.74651
 L 4.45308,7.97568 L 4.45308,7.98219 L 4.46223,8.20998 L 4.4897,8.42627 L 4.53548,8.63109 L 4.59955,8.8244
 L 4.68286,9.00928 L 4.78632,9.18877 L 4.9099,9.36285 L 5.05363,9.53157 L 5.33681,9.53157 z
M -17.4473,8.86946 L -17.3601,8.85573 L -17.2809,8.83286 L -17.2097,8.80081 L -17.1459,8.75819 L -17.0887,8.70357
 L -17.0381,8.63695 L -16.9941,8.55832 L -16.9876,8.55832 L -16.9872,8.59412 L -16.9861,8.63318 L -16.9844,8.67549
 L -16.9819,8.72105 L -16.9791,8.76398 L -16.9764,8.79837 L -16.9738,8.8242 L -16.9713,8.84149 L -16.6914,8.84149
 L -16.6956,8.78586 L -16.6987,8.70682 L -16.7005,8.60439 L -16.7011,8.47856 L -16.7011,6.42628 L -16.9941,6.42628
 L -16.9941,7.15704 L -16.9908,7.35396 L -16.9941,7.35396 L -17.038,7.27962 L -17.0885,7.21605 L -17.1454,7.16327
 L -17.2089,7.12126 L -17.2798,7.08922 L -17.3591,7.06633 L -17.4466,7.0526 L -17.5426,7.048 L -17.8259,7.10558
 L -18.0284,7.27831 L -18.1498,7.56616 L -18.1903,7.96916 L -18.1805,8.18256 L -18.151,8.36707 L -18.1019,8.52271
 L -18.0332,8.64944 L -17.9437,8.7477 L -17.832,8.81789 L -17.6983,8.86 L -17.5426,8.87404 z
M -17.5699,8.63785 L -17.6569,8.60794 L -17.7286,8.55811 L -17.785,8.48833 L -17.8278,8.39546 L -17.8583,8.27635
 L -17.8766,8.131 L -17.8827,7.95941 L -17.8765,7.78827 L -17.8581,7.64265 L -17.8273,7.52257 L -17.7842,7.42802
 L -17.7273,7.35648 L -17.655,7.30536 L -17.5674,7.27469 L -17.4644,7.26447 L -17.3499,7.27464 L -17.252,7.30516
 L -17.1709,7.35602 L -17.1064,7.42722 L -17.0573,7.52028 L -17.0222,7.63675 L -17.0011,7.77661 L -16.9941,7.93988
 L -17.0011,8.10942 L -17.0222,8.25519 L -17.0573,8.37714 L -17.1064,8.4753 L -17.1711,8.55078 L -17.2529,8.60469
 L -17.3517,8.63702 L -17.4677,8.64781 z
M 9.73129,8.5925 L 8.53508,8.5925 L 8.56335,8.53497 L 8.59935,8.47633 L 8.6431,8.41656 L 8.69456,8.35568
 L 8.75467,8.29236 L 8.82436,8.22528 L 8.90359,8.15443 L 8.9924,8.07983 L 9.14874,7.95056 L 9.27762,7.83939
 L 9.37903,7.74631 L 9.45299,7.67134 L 9.50949,7.60542 L 9.55856,7.53951 L 9.60022,7.47359 L 9.63445,7.40767
 L 9.66115,7.34166 L 9.68022,7.27544 L 9.69167,7.20903 L 9.69548,7.14241 L 9.68384,7.00044 L 9.6489,6.87569
 L 9.59065,6.76811 L 9.50912,6.67773 L 9.40593,6.60619 L 9.2827,6.55507 L 9.13943,6.5244 L 8.97612,6.51418
 L 8.82542,6.52435 L 8.68907,6.55487 L 8.56705,6.60574 L 8.45938,6.67694 L 8.36942,6.76534 L 8.30049,6.86777
 L 8.25264,6.98424 L 8.22585,7.11473 L 8.52531,7.14241 L 8.54214,7.05559 L 8.57149,6.97903 L 8.61334,6.91277
 L 8.66771,6.85678 L 8.73245,6.81227 L 8.80544,6.78047 L 8.88666,6.7614 L 8.97612,6.75505 L 9.0692,6.76155
 L 9.15149,6.78108 L 9.22299,6.81363 L 9.28371,6.85921 L 9.33214,6.91658 L 9.36673,6.98453 L 9.38748,7.06306
 L 9.39439,7.15218 L 9.39038,7.22032 L 9.37833,7.28481 L 9.35823,7.34563 L 9.33011,7.4028 L 9.29547,7.45752
 L 9.25584,7.51103 L 9.21124,7.56332 L 9.16165,7.6144 L 9.10799,7.66484 L 9.05118,7.71529 L 8.99123,7.76573
 L 8.9281,7.81618 L 8.86325,7.86769 L 8.79811,7.92136 L 8.73265,7.97714 L 8.66689,8.03506 L 8.60175,8.09579
 L 8.53812,8.15997 L 8.47601,8.22763 L 8.41544,8.29874 L 8.35793,8.37436 L 8.30498,8.45558 L 8.25662,8.54239
 L 8.21283,8.63481 L 8.21283,8.84149 L 9.73129,8.84149 z
M 1.50677,8.86092 L 1.65204,8.82155 L 1.77856,8.75595 L 1.88638,8.66411 L 1.97253,8.54958 L 2.03407,8.41591
 L 2.071,8.26312 L 2.08331,8.0912 L 2.07166,7.93213 L 2.03671,7.79015 L 1.97849,7.66524 L 1.89694,7.55742
 L 1.79559,7.47055 L 1.67786,7.40849 L 1.54375,7.37126 L 1.39326,7.35886 L 1.30232,7.36369 L 1.21666,7.37819
 L 1.13631,7.40234 L 1.06125,7.43616 L 0.992889,7.47925 L 0.932678,7.53117 L 0.8806,7.59195 L 0.836655,7.66158
 L 0.845245,7.45331 L 0.871033,7.27118 L 0.914001,7.11519 L 0.974167,6.98535 L 1.05,6.88318 L 1.13997,6.8102
 L 1.24408,6.7664 L 1.36232,6.7518 L 1.49518,6.7693 L 1.60239,6.82178 L 1.68398,6.90926 L 1.73991,7.03172
 L 2.01985,6.98126 L 1.9283,6.77692 L 1.78874,6.63095 L 1.60117,6.54337 L 1.36559,6.51418 L 1.17995,6.53412
 L 1.01689,6.59393 L 0.876419,6.69362 L 0.75853,6.83319 L 0.665253,7.00998 L 0.598633,7.22134 L 0.55867,7.46729
 L 0.545334,7.74783 L 0.558151,8.00648 L 0.596603,8.23241 L 0.660675,8.42558 L 0.750397,8.58598 L 0.864319,8.71201
 L 1.00102,8.80202 L 1.16052,8.85603 L 1.3428,8.87404 z
M 1.23514,8.62747 L 1.14648,8.59573 L 1.06708,8.54285 L 0.996948,8.4688 L 0.939636,8.37816 L 0.898697,8.27553
 L 0.874146,8.16089 L 0.865952,8.03426 L 0.87384,7.93494 L 0.897491,7.84689 L 0.93689,7.77016 L 0.992081,7.7047
 L 1.06007,7.65237 L 1.13794,7.61499 L 1.22568,7.59256 L 1.32327,7.58508 L 1.42632,7.59352 L 1.51735,7.61885
 L 1.59639,7.66107 L 1.66342,7.72018 L 1.71683,7.79483 L 1.75497,7.88373 L 1.77786,7.98688 L 1.78549,8.10423
 L 1.77795,8.22208 L 1.75537,8.32658 L 1.71773,8.41779 L 1.66504,8.49565 L 1.59912,8.55795 L 1.52182,8.60245
 L 1.43312,8.62915 L 1.33304,8.63805 z
M -4.89555,8.86092 L -4.75031,8.82155 L -4.62376,8.75595 L -4.51595,8.66411 L -4.42979,8.54958 L -4.36826,8.41591
 L -4.33134,8.26312 L -4.31903,8.0912 L -4.33067,7.93213 L -4.36562,7.79015 L -4.42386,7.66524 L -4.50539,7.55742
 L -4.60675,7.47055 L -4.72449,7.40849 L -4.8586,7.37126 L -5.00908,7.35886 L -5.10002,7.36369 L -5.18567,7.37819
 L -5.26602,7.40234 L -5.34109,7.43616 L -5.40944,7.47925 L -5.46967,7.53117 L -5.52174,7.59195 L -5.56569,7.66158
 L -5.5571,7.45331 L -5.53131,7.27118 L -5.48833,7.11519 L -5.42816,6.98535 L -5.35234,6.88318 L -5.26237,6.8102
 L -5.15826,6.7664 L -5.04001,6.7518 L -4.90717,6.7693 L -4.79994,6.82178 L -4.71837,6.90926 L -4.66243,7.03172
 L -4.38249,6.98126 L -4.47404,6.77692 L -4.6136,6.63095 L -4.80118,6.54337 L -5.03674,6.51418 L -5.2224,6.53412
 L -5.38545,6.59393 L -5.52592,6.69362 L -5.6438,6.83319 L -5.73708,7.00998 L -5.8037,7.22134 L -5.84367,7.46729
 L -5.85699,7.74783 L -5.84418,8.00648 L -5.80574,8.23241 L -5.74165,8.42558 L -5.65195,8.58598 L -5.53802,8.71201
 L -5.40131,8.80202 L -5.24181,8.85603 L -5.05952,8.87404 z
M -5.16721,8.62747 L -5.25586,8.59573 L -5.33525,8.54285 L -5.4054,8.4688 L -5.46269,8.37816 L -5.50363,8.27553
 L -5.5282,8.16089 L -5.53638,8.03426 L -5.5285,7.93494 L -5.50485,7.84689 L -5.46544,7.77016 L -5.41026,7.7047
 L -5.34225,7.65237 L -5.26439,7.61499 L -5.17665,7.59256 L -5.07906,7.58508 L -4.97601,7.59352 L -4.88498,7.61885
 L -4.80594,7.66107 L -4.73891,7.72018 L -4.6855,7.79483 L -4.64737,7.88373 L -4.62448,7.98688 L -4.61685,8.10423
 L -4.62437,8.22208 L -4.64696,8.32658 L -4.6846,8.41779 L -4.7373,8.49565 L -4.80321,8.55795 L -4.88052,8.60245
 L -4.96921,8.62915 L -5.06929,8.63805 z
M 55.0063,8.85512 L 55.1679,8.79836 L 55.3054,8.70377 L 55.4187,8.57132 L 55.5074,8.40298 L 55.5707,8.20067
 L 55.6087,7.96439 L 55.6213,7.69412 L 55.6093,7.41988 L 55.5731,7.18146 L 55.5129,6.97884 L 55.4285,6.81203
 L 55.3188,6.68172 L 55.1825,6.58864 L 55.0197,6.53279 L 54.8304,6.51418 L 54.6361,6.53259 L 54.4697,6.58783
 L 54.3313,6.67989 L 54.2209,6.80876 L 54.1365,6.97456 L 54.0762,7.17738 L 54.0401,7.41724 L 54.028,7.69412
 L 54.0404,7.96571 L 54.0777,8.2027 L 54.1397,8.40512 L 54.2266,8.57295 L 54.3382,8.70468 L 54.4744,8.79877
 L 54.6352,8.85522 L 54.8206,8.87404 z
M 54.7025,8.62067 L 54.5987,8.57825 L 54.5125,8.50755 L 54.4439,8.40858 L 54.3915,8.2791 L 54.3541,8.11685
 L 54.3317,7.92186 L 54.3242,7.69412 L 54.3316,7.46037 L 54.3537,7.26202 L 54.3906,7.09908 L 54.4422,6.97153
 L 54.5107,6.8754 L 54.5983,6.80673 L 54.7048,6.76553 L 54.8304,6.7518 L 54.9529,6.76573 L 55.0568,6.80754
 L 55.1421,6.87721 L 55.2088,6.97476 L 55.259,7.10333 L 55.2948,7.26608 L 55.3164,7.46301 L 55.3235,7.69412
 L 55.316,7.91789 L 55.2934,8.11075 L 55.2558,8.27269 L 55.2031,8.4037 L 55.1342,8.50481 L 55.0481,8.57703
 L 54.9446,8.62036 L 54.8239,8.63481 z
M -3.17429,6.54836 L -3.47374,6.54836 L -3.44119,7.26933 L -3.2101,7.26933 z
M 53.7784,8.5925 L 53.2202,8.5925 L 53.2202,6.54836 L 52.95,6.54836 L 52.4081,6.92105 L 52.4081,7.19772
 L 52.9256,6.82829 L 52.9256,8.5925 L 52.3413,8.5925 L 52.3413,8.84149 L 53.7784,8.84149 z
M 10.2966,6.54836 L 9.99718,6.54836 L 10.0314,7.26933 L 10.2608,7.26933 z
M 10.8972,6.54836 L 10.5977,6.54836 L 10.6303,7.26933 L 10.8614,7.26933 z
M 7.02138,8.5925 L 6.46315,8.5925 L 6.46315,6.54836 L 6.19299,6.54836 L 5.65102,6.92105 L 5.65102,7.19772
 L 6.16855,6.82829 L 6.16855,8.5925 L 5.5843,8.5925 L 5.5843,8.84149 L 7.02138,8.84149 z
M 3.22804,6.54836 L 2.9286,6.54836 L 2.96115,7.26933 L 3.19225,7.26933 z
M -33.8488,7.9122 L -32.5696,7.9122 L -32.5696,7.65508 L -33.8488,7.65508 L -33.8488,6.80225 L -32.5305,6.80225
 L -32.5305,6.54836 L -34.1596,6.54836 L -34.1596,8.84149 L -33.8488,8.84149 z
M 2.6275,6.54836 L 2.32805,6.54836 L 2.36223,7.26933 L 2.59169,7.26933 z
M -6.40282,8.32233 L -6.08057,8.32233 L -6.08057,8.0912 L -6.40282,8.0912 L -6.40282,6.54836 L -6.71043,6.54836
 L -7.76016,8.09447 L -7.76016,8.32233 L -6.67949,8.32233 L -6.67949,8.84149 L -6.40282,8.84149 z
M -7.48999,8.0912 L -7.46396,8.05865 L -7.37607,7.93825 L -6.78854,7.07242 L -6.77664,7.05411 L -6.7621,7.03009
 L -6.7449,7.0004 L -6.72507,6.965 L -6.70636,6.93092 L -6.69252,6.90518 L -6.68356,6.88779 L -6.67949,6.87874
 L -6.67949,8.0912 z
M -28.9449,8.5925 L -29.5031,8.5925 L -29.5031,6.54836 L -29.7733,6.54836 L -30.3152,6.92105 L -30.3152,7.19772
 L -29.7977,6.82829 L -29.7977,8.5925 L -30.3819,8.5925 L -30.3819,8.84149 L -28.9449,8.84149 z
M -3.77484,6.54836 L -4.07428,6.54836 L -4.04012,7.26933 L -3.81065,7.26933 z
M 50.3741,7.85199 L 51.0642,7.85199 L 51.0642,7.61436 L 50.3741,7.61436 L 50.3741,6.91782 L 50.1349,6.91782
 L 50.1349,7.61436 L 49.4448,7.61436 L 49.4448,7.85199 L 50.1349,7.85199 L 50.1349,8.54855 L 50.3741,8.54855
 z
M 59.2741,8.86458 L 59.3958,8.8362 L 59.5052,8.78891 L 59.6024,8.72269 L 59.6843,8.64059 L 59.7477,8.54568
 L 59.7926,8.43797 L 59.8189,8.31743 L 59.5227,8.29791 L 59.5055,8.3801 L 59.4781,8.4509 L 59.4408,8.5103
 L 59.3933,8.55832 L 59.3376,8.59534 L 59.2755,8.62178 L 59.207,8.63765 L 59.1321,8.64294 L 59.0276,8.63237
 L 58.9372,8.60063 L 58.8608,8.54774 L 58.7985,8.47369 L 58.75,8.37767 L 58.7155,8.25885 L 58.6947,8.11725
 L 58.6878,7.95288 L 58.6943,7.78302 L 58.7138,7.6396 L 58.7464,7.52263 L 58.7919,7.43211 L 58.8521,7.36446
 L 58.9283,7.31613 L 59.0205,7.28714 L 59.1289,7.27748 L 59.2094,7.28287 L 59.2802,7.29904 L 59.3412,7.32599
 L 59.3925,7.36374 L 59.4345,7.41063 L 59.4678,7.46504 L 59.4923,7.52699 L 59.5081,7.59647 L 59.8091,7.57368
 L 59.7781,7.45741 L 59.7304,7.35437 L 59.6662,7.26457 L 59.5854,7.18797 L 59.4905,7.12674 L 59.3842,7.08301
 L 59.2663,7.05676 L 59.137,7.048 L 58.9653,7.06261 L 58.8147,7.1064 L 58.6854,7.17938 L 58.5771,7.28156
 L 58.4917,7.4115 L 58.4307,7.56779 L 58.394,7.75043 L 58.3818,7.95941 L 58.394,8.1698 L 58.4305,8.35344
 L 58.4912,8.51035 L 58.5763,8.64049 L 58.6845,8.74266 L 58.8145,8.81564 L 58.9665,8.85944 L 59.1402,8.87404
 z
M -10.4399,8.84799 L -10.2354,8.76988 L -10.0811,8.63968 L -9.97702,8.4574 L -10.2342,8.38417 L -10.2591,8.44022
 L -10.2934,8.49118 L -10.3369,8.53705 L -10.3896,8.57785 L -10.4517,8.61131 L -10.5233,8.63522 L -10.6043,8.64957
 L -10.6947,8.65434 L -10.808,8.64407 L -10.9067,8.61325 L -10.9911,8.56187 L -11.061,8.48996 L -11.1158,8.39912
 L -11.1549,8.29099 L -11.1784,8.16556 L -11.1863,8.02286 L -9.92982,8.02286 L -9.92982,7.98383 L -9.97833,7.5744
 L -10.1239,7.28197 L -10.3665,7.10651 L -10.7061,7.048 L -10.8848,7.06256 L -11.0416,7.1062 L -11.1765,7.17892
 L -11.2896,7.28075 L -11.379,7.40982 L -11.4428,7.56433 L -11.4811,7.74428 L -11.4939,7.94965 L -11.4811,8.16496
 L -11.4428,8.35202 L -11.379,8.5108 L -11.2896,8.64131 L -11.1758,8.74313 L -11.0388,8.81586 L -10.8784,8.8595
 L -10.6947,8.87404 z
M -11.183,7.79828 L -11.1709,7.68044 L -11.1445,7.57593 L -11.1038,7.48474 L -11.0488,7.40689 L -10.9809,7.34457
 L -10.9021,7.30006 L -10.8121,7.27336 L -10.711,7.26447 L -10.6076,7.27245 L -10.517,7.2964 L -10.4391,7.33633
 L -10.3742,7.39223 L -10.3214,7.4655 L -10.2802,7.55762 L -10.2505,7.66853 L -10.2326,7.79828 z
M 67.3926,8.84799 L 67.5971,8.76988 L 67.7514,8.63968 L 67.8555,8.4574 L 67.5983,8.38417 L 67.5734,8.44022
 L 67.5391,8.49118 L 67.4956,8.53705 L 67.4429,8.57785 L 67.3808,8.61131 L 67.3092,8.63522 L 67.2282,8.64957
 L 67.1378,8.65434 L 67.0245,8.64407 L 66.9258,8.61325 L 66.8414,8.56187 L 66.7715,8.48996 L 66.7167,8.39912
 L 66.6776,8.29099 L 66.6541,8.16556 L 66.6462,8.02286 L 67.9027,8.02286 L 67.9027,7.98383 L 67.8542,7.5744
 L 67.7086,7.28197 L 67.466,7.10651 L 67.1264,7.048 L 66.9477,7.06256 L 66.7909,7.1062 L 66.656,7.17892
 L 66.5429,7.28075 L 66.4535,7.40982 L 66.3897,7.56433 L 66.3514,7.74428 L 66.3387,7.94965 L 66.3514,8.16496
 L 66.3897,8.35202 L 66.4535,8.5108 L 66.5429,8.64131 L 66.6567,8.74313 L 66.7937,8.81586 L 66.9541,8.8595
 L 67.1378,8.87404 z
M 66.6495,7.79828 L 66.6616,7.68044 L 66.688,7.57593 L 66.7287,7.48474 L 66.7838,7.40689 L 66.8516,7.34457
 L 66.9305,7.30006 L 67.0204,7.27336 L 67.1215,7.26447 L 67.2249,7.27245 L 67.3156,7.2964 L 67.3934,7.33633
 L 67.4584,7.39223 L 67.5112,7.4655 L 67.5524,7.55762 L 67.582,7.66853 L 67.6,7.79828 z
M -9.30101,7.9236 L -9.295,7.78561 L -9.27699,7.66463 L -9.24699,7.56062 L -9.20499,7.4736 L -9.15158,7.40489
 L -9.08739,7.3558 L -9.01242,7.32637 L -8.92668,7.31654 L -8.88029,7.31757 L -8.83881,7.32062 L -8.80219,7.3257
 L -8.77043,7.33282 L -8.77043,7.06429 L -8.80045,7.05716 L -8.83026,7.05208 L -8.85986,7.04903 L -8.88925,7.048
 L -8.96759,7.05319 L -9.03656,7.06876 L -9.09616,7.0947 L -9.14642,7.131 L -9.19066,7.18146 L -9.23225,7.2498
 L -9.27122,7.33606 L -9.30753,7.44022 L -9.31404,7.44022 L -9.31485,7.39516 L -9.31729,7.32019 L -9.32135,7.21533
 L -9.32704,7.08055 L -9.60371,7.08055 L -9.59946,7.19041 L -9.59641,7.29538 L -9.59457,7.39548 L -9.59396,7.49069
 L -9.59396,8.84149 L -9.30101,8.84149 z
M 44.7746,8.85989 L 44.9338,8.81747 L 45.07,8.74678 L 45.1832,8.64781 L 45.2722,8.51996 L 45.3358,8.36259
 L 45.3739,8.17575 L 45.3866,7.95941 L 45.3747,7.74117 L 45.339,7.55354 L 45.2795,7.39655 L 45.1962,7.27016
 L 45.0877,7.17297 L 44.9525,7.10355 L 44.7906,7.06189 L 44.6022,7.048 L 44.2568,7.10498 L 44.0102,7.27586
 L 43.8622,7.56067 L 43.8128,7.95941 L 43.8251,8.16847 L 43.8621,8.35141 L 43.9236,8.50821 L 44.0098,8.63885
 L 44.12,8.74174 L 44.2539,8.81525 L 44.4113,8.85934 L 44.5924,8.87404 z
M 44.476,8.64665 L 44.379,8.61385 L 44.2982,8.55916 L 44.2335,8.48262 L 44.1841,8.38431 L 44.1487,8.26433
 L 44.1275,8.1227 L 44.1204,7.95941 L 44.1276,7.79224 L 44.1491,7.64876 L 44.185,7.52899 L 44.2352,7.43292
 L 44.3014,7.35922 L 44.3855,7.30658 L 44.4874,7.27499 L 44.607,7.26447 L 44.7256,7.2748 L 44.8257,7.30577
 L 44.9075,7.35739 L 44.9708,7.42966 L 45.0181,7.52472 L 45.052,7.6447 L 45.0723,7.7896 L 45.079,7.95941
 L 45.072,8.12733 L 45.0508,8.27147 L 45.0154,8.3918 L 44.9659,8.48833 L 44.8999,8.56238 L 44.8152,8.61526
 L 44.7116,8.647 L 44.5891,8.65758 z
M 38.9195,8.86458 L 39.0411,8.8362 L 39.1506,8.78891 L 39.2478,8.72269 L 39.3297,8.64059 L 39.3931,8.54568
 L 39.4379,8.43797 L 39.4643,8.31743 L 39.1681,8.29791 L 39.1508,8.3801 L 39.1235,8.4509 L 39.0862,8.5103
 L 39.0387,8.55832 L 38.983,8.59534 L 38.9209,8.62178 L 38.8524,8.63765 L 38.7775,8.64294 L 38.673,8.63237
 L 38.5826,8.60063 L 38.5062,8.54774 L 38.4438,8.47369 L 38.3954,8.37767 L 38.3608,8.25885 L 38.3401,8.11725
 L 38.3332,7.95288 L 38.3397,7.78302 L 38.3592,7.6396 L 38.3918,7.52263 L 38.4373,7.43211 L 38.4974,7.36446
 L 38.5736,7.31613 L 38.6659,7.28714 L 38.7742,7.27748 L 38.8548,7.28287 L 38.9256,7.29904 L 38.9866,7.32599
 L 39.0379,7.36374 L 39.0799,7.41063 L 39.1132,7.46504 L 39.1377,7.52699 L 39.1534,7.59647 L 39.4545,7.57368
 L 39.4234,7.45741 L 39.3758,7.35437 L 39.3116,7.26457 L 39.2307,7.18797 L 39.1359,7.12674 L 39.0296,7.08301
 L 38.9117,7.05676 L 38.7824,7.048 L 38.6107,7.06261 L 38.4601,7.1064 L 38.3307,7.17938 L 38.2225,7.28156
 L 38.1371,7.4115 L 38.076,7.56779 L 38.0394,7.75043 L 38.0272,7.95941 L 38.0394,8.1698 L 38.0758,8.35344
 L 38.1366,8.51035 L 38.2217,8.64049 L 38.3299,8.74266 L 38.4599,8.81564 L 38.6118,8.85944 L 38.7856,8.87404
 z
M 46.0073,7.9236 L 46.0133,7.78561 L 46.0313,7.66463 L 46.0613,7.56062 L 46.1033,7.4736 L 46.1567,7.40489
 L 46.2209,7.3558 L 46.2959,7.32637 L 46.3817,7.31654 L 46.428,7.31757 L 46.4695,7.32062 L 46.5061,7.3257
 L 46.5379,7.33282 L 46.5379,7.06429 L 46.5079,7.05716 L 46.4781,7.05208 L 46.4485,7.04903 L 46.4191,7.048
 L 46.3407,7.05319 L 46.2718,7.06876 L 46.2122,7.0947 L 46.1619,7.131 L 46.1177,7.18146 L 46.0761,7.2498
 L 46.0371,7.33606 L 46.0008,7.44022 L 45.9943,7.44022 L 45.9935,7.39516 L 45.991,7.32019 L 45.987,7.21533
 L 45.9813,7.08055 L 45.7046,7.08055 L 45.7089,7.19041 L 45.7119,7.29538 L 45.7137,7.39548 L 45.7144,7.49069
 L 45.7144,8.84149 L 46.0073,8.84149 z
M 37.1769,8.85989 L 37.3361,8.81747 L 37.4723,8.74678 L 37.5856,8.64781 L 37.6746,8.51996 L 37.7381,8.36259
 L 37.7763,8.17575 L 37.789,7.95941 L 37.7771,7.74117 L 37.7414,7.55354 L 37.6819,7.39655 L 37.5986,7.27016
 L 37.49,7.17297 L 37.3548,7.10355 L 37.193,7.06189 L 37.0045,7.048 L 36.6592,7.10498 L 36.4125,7.27586
 L 36.2645,7.56067 L 36.2152,7.95941 L 36.2275,8.16847 L 36.2644,8.35141 L 36.326,8.50821 L 36.4121,8.63885
 L 36.5224,8.74174 L 36.6562,8.81525 L 36.8137,8.85934 L 36.9948,8.87404 z
M 36.8783,8.64665 L 36.7814,8.61385 L 36.7005,8.55916 L 36.6359,8.48262 L 36.5864,8.38431 L 36.5511,8.26433
 L 36.5298,8.1227 L 36.5228,7.95941 L 36.53,7.79224 L 36.5515,7.64876 L 36.5873,7.52899 L 36.6375,7.43292
 L 36.7038,7.35922 L 36.7879,7.30658 L 36.8897,7.27499 L 37.0094,7.26447 L 37.128,7.2748 L 37.2281,7.30577
 L 37.3098,7.35739 L 37.3732,7.42966 L 37.4205,7.52472 L 37.4543,7.6447 L 37.4746,7.7896 L 37.4814,7.95941
 L 37.4743,8.12733 L 37.4531,8.27147 L 37.4178,8.3918 L 37.3683,8.48833 L 37.3023,8.56238 L 37.2175,8.61526
 L 37.1139,8.647 L 36.9915,8.65758 z
M 31.118,8.84799 L 31.3225,8.76988 L 31.4768,8.63968 L 31.5809,8.4574 L 31.3237,8.38417 L 31.2988,8.44022
 L 31.2645,8.49118 L 31.221,8.53705 L 31.1683,8.57785 L 31.1062,8.61131 L 31.0346,8.63522 L 30.9536,8.64957
 L 30.8631,8.65434 L 30.7499,8.64407 L 30.6512,8.61325 L 30.5668,8.56187 L 30.4969,8.48996 L 30.4421,8.39912
 L 30.403,8.29099 L 30.3795,8.16556 L 30.3716,8.02286 L 31.6281,8.02286 L 31.6281,7.98383 L 31.5796,7.5744
 L 31.434,7.28197 L 31.1914,7.10651 L 30.8517,7.048 L 30.6731,7.06256 L 30.5163,7.1062 L 30.3813,7.17892
 L 30.2683,7.28075 L 30.1789,7.40982 L 30.1151,7.56433 L 30.0768,7.74428 L 30.064,7.94965 L 30.0768,8.16496
 L 30.1151,8.35202 L 30.1789,8.5108 L 30.2683,8.64131 L 30.3821,8.74313 L 30.5191,8.81586 L 30.6795,8.8595
 L 30.8631,8.87404 z
M 30.3749,7.79828 L 30.3869,7.68044 L 30.4133,7.57593 L 30.4541,7.48474 L 30.5091,7.40689 L 30.577,7.34457
 L 30.6558,7.30006 L 30.7458,7.27336 L 30.8469,7.26447 L 30.9503,7.27245 L 31.0409,7.2964 L 31.1187,7.33633
 L 31.1837,7.39223 L 31.2365,7.4655 L 31.2777,7.55762 L 31.3073,7.66853 L 31.3253,7.79828 z
M 29.3076,8.84799 L 29.5121,8.76988 L 29.6664,8.63968 L 29.7705,8.4574 L 29.5134,8.38417 L 29.4884,8.44022
 L 29.4541,8.49118 L 29.4106,8.53705 L 29.3579,8.57785 L 29.2958,8.61131 L 29.2243,8.63522 L 29.1432,8.64957
 L 29.0528,8.65434 L 28.9395,8.64407 L 28.8408,8.61325 L 28.7564,8.56187 L 28.6866,8.48996 L 28.6317,8.39912
 L 28.5926,8.29099 L 28.5691,8.16556 L 28.5612,8.02286 L 29.8177,8.02286 L 29.8177,7.98383 L 29.7692,7.5744
 L 29.6236,7.28197 L 29.381,7.10651 L 29.0414,7.048 L 28.8627,7.06256 L 28.7059,7.1062 L 28.571,7.17892
 L 28.4579,7.28075 L 28.3685,7.40982 L 28.3047,7.56433 L 28.2664,7.74428 L 28.2537,7.94965 L 28.2664,8.16496
 L 28.3047,8.35202 L 28.3685,8.5108 L 28.4579,8.64131 L 28.5717,8.74313 L 28.7087,8.81586 L 28.8691,8.8595
 L 29.0528,8.87404 z
M 28.5645,7.79828 L 28.5766,7.68044 L 28.603,7.57593 L 28.6437,7.48474 L 28.6988,7.40689 L 28.7666,7.34457
 L 28.8454,7.30006 L 28.9354,7.27336 L 29.0365,7.26447 L 29.1399,7.27245 L 29.2306,7.2964 L 29.3084,7.33633
 L 29.3734,7.39223 L 29.4261,7.4655 L 29.4673,7.55762 L 29.4969,7.66853 L 29.515,7.79828 z
M -25.7694,7.82108 L -25.7617,7.69951 L -25.7388,7.592 L -25.7007,7.49852 L -25.6473,7.41908 L -25.5807,7.35571
 L -25.5029,7.31044 L -25.4139,7.28329 L -25.3137,7.27423 L -25.2456,7.27689 L -25.1863,7.28482 L -25.1358,7.29803
 L -25.094,7.31654 L -25.0591,7.34106 L -25.0293,7.37228 L -25.0045,7.41023 L -24.9849,7.45488 L -24.97,7.50778
 L -24.9593,7.57043 L -24.9529,7.64287 L -24.9507,7.72505 L -24.9507,8.84149 L -24.6562,8.84149 L -24.6562,7.66808
 L -24.6646,7.51382 L -24.6897,7.38306 L -24.7317,7.2758 L -24.7905,7.19203 L -24.8673,7.12903 L -24.9636,7.08401
 L -25.0793,7.05701 L -25.2144,7.048 L -25.3088,7.05273 L -25.3953,7.06693 L -25.4736,7.09058 L -25.544,7.12369
 L -25.6083,7.16818 L -25.6687,7.22601 L -25.7251,7.29716 L -25.7775,7.38164 L -25.7824,7.38164 L -25.784,7.32249
 L -25.7854,7.27362 L -25.7868,7.23502 L -25.7881,7.2067 L -25.7903,7.16295 L -25.7922,7.1245 L -25.793,7.10832
 L -25.7938,7.09561 L -25.7946,7.08635 L -25.7954,7.08055 L -26.0721,7.08055 L -26.0678,7.12968 L -26.0648,7.20872
 L -26.0629,7.31767 L -26.0623,7.45651 L -26.0623,8.84149 L -25.7694,8.84149 z
M -23.3813,8.85989 L -23.2221,8.81747 L -23.0859,8.74678 L -22.9727,8.64781 L -22.8837,8.51996 L -22.8201,8.36259
 L -22.782,8.17575 L -22.7693,7.95941 L -22.7812,7.74117 L -22.8169,7.55354 L -22.8764,7.39655 L -22.9597,7.27016
 L -23.0683,7.17297 L -23.2034,7.10355 L -23.3653,7.06189 L -23.5537,7.048 L -23.8991,7.10498 L -24.1457,7.27586
 L -24.2937,7.56067 L -24.3431,7.95941 L -24.3308,8.16847 L -24.2938,8.35141 L -24.2323,8.50821 L -24.1461,8.63885
 L -24.0359,8.74174 L -23.902,8.81525 L -23.7446,8.85934 L -23.5635,8.87404 z
M -23.6799,8.64665 L -23.7769,8.61385 L -23.8577,8.55916 L -23.9224,8.48262 L -23.9719,8.38431 L -24.0072,8.26433
 L -24.0284,8.1227 L -24.0355,7.95941 L -24.0283,7.79224 L -24.0068,7.64876 L -23.9709,7.52899 L -23.9207,7.43292
 L -23.8545,7.35922 L -23.7704,7.30658 L -23.6685,7.27499 L -23.5489,7.26447 L -23.4303,7.2748 L -23.3302,7.30577
 L -23.2484,7.35739 L -23.1851,7.42966 L -23.1378,7.52472 L -23.1039,7.6447 L -23.0836,7.7896 L -23.0769,7.95941
 L -23.084,8.12733 L -23.1052,8.27147 L -23.1405,8.3918 L -23.19,8.48833 L -23.256,8.56238 L -23.3407,8.61526
 L -23.4444,8.647 L -23.5668,8.65758 z
M -21.571,8.85989 L -21.4118,8.81747 L -21.2756,8.74678 L -21.1623,8.64781 L -21.0733,8.51996 L -21.0098,8.36259
 L -20.9716,8.17575 L -20.9589,7.95941 L -20.9708,7.74117 L -21.0065,7.55354 L -21.066,7.39655 L -21.1493,7.27016
 L -21.2579,7.17297 L -21.3931,7.10355 L -21.5549,7.06189 L -21.7434,7.048 L -22.0887,7.10498 L -22.3354,7.27586
 L -22.4834,7.56067 L -22.5327,7.95941 L -22.5204,8.16847 L -22.4835,8.35141 L -22.4219,8.50821 L -22.3358,8.63885
 L -22.2255,8.74174 L -22.0916,8.81525 L -21.9342,8.85934 L -21.7531,8.87404 z
M -21.8696,8.64665 L -21.9665,8.61385 L -22.0473,8.55916 L -22.112,8.48262 L -22.1615,8.38431 L -22.1968,8.26433
 L -22.218,8.1227 L -22.2251,7.95941 L -22.2179,7.79224 L -22.1964,7.64876 L -22.1606,7.52899 L -22.1104,7.43292
 L -22.0441,7.35922 L -21.96,7.30658 L -21.8582,7.27499 L -21.7385,7.26447 L -21.6199,7.2748 L -21.5198,7.30577
 L -21.438,7.35739 L -21.3747,7.42966 L -21.3274,7.52472 L -21.2936,7.6447 L -21.2733,7.7896 L -21.2665,7.95941
 L -21.2736,8.12733 L -21.2948,8.27147 L -21.3301,8.3918 L -21.3796,8.48833 L -21.4456,8.56238 L -21.5304,8.61526
 L -21.634,8.647 L -21.7564,8.65758 z
M 60.3919,7.9236 L 60.3979,7.78561 L 60.4159,7.66463 L 60.4459,7.56062 L 60.4879,7.4736 L 60.5414,7.40489
 L 60.6055,7.3558 L 60.6805,7.32637 L 60.7663,7.31654 L 60.8126,7.31757 L 60.8541,7.32062 L 60.8907,7.3257
 L 60.9225,7.33282 L 60.9225,7.06429 L 60.8925,7.05716 L 60.8627,7.05208 L 60.8331,7.04903 L 60.8037,7.048
 L 60.7253,7.05319 L 60.6564,7.06876 L 60.5968,7.0947 L 60.5465,7.131 L 60.5023,7.18146 L 60.4607,7.2498
 L 60.4217,7.33606 L 60.3854,7.44022 L 60.3789,7.44022 L 60.3781,7.39516 L 60.3756,7.32019 L 60.3716,7.21533
 L 60.3659,7.08055 L 60.0892,7.08055 L 60.0935,7.19041 L 60.0965,7.29538 L 60.0983,7.39548 L 60.099,7.49069
 L 60.099,8.84149 L 60.3919,8.84149 z
M 62.1474,8.84799 L 62.3519,8.76988 L 62.5062,8.63968 L 62.6103,8.4574 L 62.3531,8.38417 L 62.3282,8.44022
 L 62.2939,8.49118 L 62.2504,8.53705 L 62.1977,8.57785 L 62.1356,8.61131 L 62.0641,8.63522 L 61.983,8.64957
 L 61.8926,8.65434 L 61.7793,8.64407 L 61.6806,8.61325 L 61.5962,8.56187 L 61.5264,8.48996 L 61.4715,8.39912
 L 61.4324,8.29099 L 61.4089,8.16556 L 61.401,8.02286 L 62.6575,8.02286 L 62.6575,7.98383 L 62.609,7.5744
 L 62.4634,7.28197 L 62.2208,7.10651 L 61.8812,7.048 L 61.7025,7.06256 L 61.5457,7.1062 L 61.4108,7.17892
 L 61.2977,7.28075 L 61.2083,7.40982 L 61.1445,7.56433 L 61.1062,7.74428 L 61.0935,7.94965 L 61.1062,8.16496
 L 61.1445,8.35202 L 61.2083,8.5108 L 61.2977,8.64131 L 61.4115,8.74313 L 61.5486,8.81586 L 61.7089,8.8595
 L 61.8926,8.87404 z
M 61.4043,7.79828 L 61.4164,7.68044 L 61.4428,7.57593 L 61.4835,7.48474 L 61.5386,7.40689 L 61.6064,7.34457
 L 61.6853,7.30006 L 61.7752,7.27336 L 61.8763,7.26447 L 61.9797,7.27245 L 62.0704,7.2964 L 62.1482,7.33633
 L 62.2132,7.39223 L 62.266,7.4655 L 62.3072,7.55762 L 62.3368,7.66853 L 62.3548,7.79828 z
M 43.0791,8.86458 L 43.2008,8.8362 L 43.3102,8.78891 L 43.4075,8.72269 L 43.4893,8.64059 L 43.5527,8.54568
 L 43.5976,8.43797 L 43.6239,8.31743 L 43.3277,8.29791 L 43.3105,8.3801 L 43.2832,8.4509 L 43.2458,8.5103
 L 43.1983,8.55832 L 43.1426,8.59534 L 43.0805,8.62178 L 43.012,8.63765 L 42.9371,8.64294 L 42.8327,8.63237
 L 42.7422,8.60063 L 42.6658,8.54774 L 42.6035,8.47369 L 42.5551,8.37767 L 42.5205,8.25885 L 42.4997,8.11725
 L 42.4928,7.95288 L 42.4993,7.78302 L 42.5188,7.6396 L 42.5514,7.52263 L 42.597,7.43211 L 42.6571,7.36446
 L 42.7333,7.31613 L 42.8255,7.28714 L 42.9339,7.27748 L 43.0144,7.28287 L 43.0852,7.29904 L 43.1463,7.32599
 L 43.1975,7.36374 L 43.2395,7.41063 L 43.2728,7.46504 L 43.2973,7.52699 L 43.3131,7.59647 L 43.6142,7.57368
 L 43.5831,7.45741 L 43.5354,7.35437 L 43.4712,7.26457 L 43.3904,7.18797 L 43.2955,7.12674 L 43.1892,7.08301
 L 43.0714,7.05676 L 42.942,7.048 L 42.7703,7.06261 L 42.6198,7.1064 L 42.4904,7.17938 L 42.3821,7.28156
 L 42.2967,7.4115 L 42.2357,7.56779 L 42.1991,7.75043 L 42.1869,7.95941 L 42.199,8.1698 L 42.2355,8.35344
 L 42.2962,8.51035 L 42.3813,8.64049 L 42.4895,8.74266 L 42.6196,8.81564 L 42.7715,8.85944 L 42.9453,8.87404
 z
M 70.8306,8.84799 L 71.0351,8.76988 L 71.1894,8.63968 L 71.2935,8.4574 L 71.0363,8.38417 L 71.0114,8.44022
 L 70.9771,8.49118 L 70.9336,8.53705 L 70.8809,8.57785 L 70.8188,8.61131 L 70.7473,8.63522 L 70.6662,8.64957
 L 70.5758,8.65434 L 70.4625,8.64407 L 70.3638,8.61325 L 70.2794,8.56187 L 70.2095,8.48996 L 70.1547,8.39912
 L 70.1156,8.29099 L 70.0921,8.16556 L 70.0842,8.02286 L 71.3407,8.02286 L 71.3407,7.98383 L 71.2922,7.5744
 L 71.1466,7.28197 L 70.904,7.10651 L 70.5644,7.048 L 70.3857,7.06256 L 70.2289,7.1062 L 70.094,7.17892
 L 69.9809,7.28075 L 69.8915,7.40982 L 69.8277,7.56433 L 69.7894,7.74428 L 69.7767,7.94965 L 69.7894,8.16496
 L 69.8277,8.35202 L 69.8915,8.5108 L 69.9809,8.64131 L 70.0947,8.74313 L 70.2318,8.81586 L 70.3921,8.8595
 L 70.5758,8.87404 z
M 70.0875,7.79828 L 70.0996,7.68044 L 70.126,7.57593 L 70.1667,7.48474 L 70.2218,7.40689 L 70.2896,7.34457
 L 70.3685,7.30006 L 70.4584,7.27336 L 70.5595,7.26447 L 70.6629,7.27245 L 70.7536,7.2964 L 70.8314,7.33633
 L 70.8963,7.39223 L 70.9492,7.4655 L 70.9904,7.55762 L 71.02,7.66853 L 71.0379,7.79828 z
M 27.5161,9.48679 L 27.7465,9.34764 L 27.8847,9.11572 L 27.9308,8.79105 L 27.9308,7.44511 L 27.9314,7.31857
 L 27.9332,7.21564 L 27.9363,7.13629 L 27.9406,7.08055 L 27.6623,7.08055 L 27.659,7.09306 L 27.6558,7.11922
 L 27.6525,7.15898 L 27.6492,7.21239 L 27.6464,7.26813 L 27.6444,7.31491 L 27.6432,7.35275 L 27.6427,7.38164
 L 27.6395,7.38164 L 27.5981,7.30722 L 27.549,7.24187 L 27.4919,7.18558 L 27.4271,7.13832 L 27.3552,7.10094
 L 27.2772,7.07425 L 27.1929,7.05823 L 27.1024,7.05289 L 26.9462,7.06677 L 26.8113,7.10843 L 26.6976,7.17786
 L 26.6052,7.27505 L 26.5336,7.40143 L 26.4825,7.55843 L 26.4519,7.74605 L 26.4417,7.96428 L 26.4512,8.1792
 L 26.4797,8.36342 L 26.5272,8.51692 L 26.5938,8.63969 L 26.6806,8.73369 L 26.7889,8.80081 L 26.9187,8.84109
 L 27.0699,8.85452 L 27.1637,8.84918 L 27.2513,8.83316 L 27.3329,8.80646 L 27.4084,8.76909 L 27.4769,8.72112
 L 27.5378,8.66267 L 27.5909,8.59377 L 27.6362,8.51437 L 27.6395,8.51437 L 27.6395,8.79755 L 27.6121,9.02184
 L 27.53,9.18205 L 27.3932,9.27817 L 27.2017,9.31021 L 27.1242,9.30609 L 27.0546,9.29373 L 26.9928,9.27313
 L 26.9388,9.24428 L 26.8932,9.20782 L 26.8564,9.16434 L 26.8285,9.11385 L 26.8095,9.05632 L 26.5149,9.09863
 L 26.5469,9.19684 L 26.5942,9.28314 L 26.6568,9.35756 L 26.7346,9.42006 L 26.8273,9.46954 L 26.9348,9.5049
 L 27.0568,9.52611 L 27.1935,9.53317 z
M 27.0613,8.62817 L 26.9706,8.59859 L 26.8969,8.54926 L 26.8404,8.48019 L 26.7984,8.38855 L 26.7684,8.27147
 L 26.7504,8.12895 L 26.7444,7.96101 L 26.7508,7.79135 L 26.77,7.64691 L 26.802,7.52769 L 26.8469,7.43372
 L 26.9058,7.36252 L 26.9799,7.31166 L 27.0694,7.28114 L 27.174,7.27097 L 27.2398,7.27611 L 27.302,7.29152
 L 27.3606,7.31721 L 27.4157,7.35316 L 27.466,7.39883 L 27.5103,7.45366 L 27.5486,7.51764 L 27.5809,7.59077
 L 27.6065,7.6722 L 27.6248,7.76105 L 27.6358,7.85732 L 27.6395,7.96101 L 27.6358,8.06236 L 27.6248,8.15651
 L 27.6065,8.24344 L 27.5809,8.32314 L 27.5485,8.39479 L 27.5101,8.45761 L 27.4655,8.51157 L 27.4149,8.55669
 L 27.3592,8.59229 L 27.2997,8.61771 L 27.2364,8.63297 L 27.1691,8.63805 z
M 33.6287,8.8656 L 33.7698,8.84027 L 33.892,8.79807 L 33.9954,8.73897 L 34.0776,8.66429 L 34.1364,8.57539
 L 34.1716,8.47224 L 34.1834,8.35487 L 34.1813,8.30579 L 34.1752,8.25946 L 34.165,8.21588 L 34.1508,8.17503
 L 34.1328,8.13673 L 34.1115,8.10078 L 34.0869,8.06717 L 34.0589,8.03589 L 34.0264,8.00644 L 33.9887,7.97833
 L 33.9455,7.95152 L 33.8969,7.92606 L 33.8375,7.90067 L 33.7618,7.87416 L 33.6699,7.84654 L 33.5617,7.81781
 L 33.4494,7.78934 L 33.3582,7.7641 L 33.2882,7.74214 L 33.2394,7.72342 L 33.2035,7.70541 L 33.1723,7.68558
 L 33.1457,7.66393 L 33.1238,7.64043 L 33.1068,7.61438 L 33.0945,7.58508 L 33.0872,7.55254 L 33.0848,7.51674
 L 33.0907,7.45956 L 33.1084,7.41013 L 33.1379,7.36842 L 33.1792,7.33446 L 33.2329,7.30811 L 33.2996,7.28929
 L 33.3794,7.278 L 33.4721,7.27423 L 33.5571,7.27815 L 33.6331,7.2899 L 33.6999,7.30948 L 33.7578,7.3369
 L 33.8059,7.37163 L 33.8438,7.41318 L 33.8714,7.46155 L 33.8888,7.51674 L 34.1524,7.48416 L 34.1218,7.37878
 L 34.0753,7.28886 L 34.0131,7.2144 L 33.9352,7.15541 L 33.8418,7.11055 L 33.7336,7.07852 L 33.6103,7.0593
 L 33.4721,7.05289 L 33.3176,7.06076 L 33.1826,7.08443 L 33.0674,7.12384 L 32.9717,7.17903 L 32.8966,7.24925
 L 32.8429,7.33383 L 32.8107,7.43275 L 32.8,7.54601 L 32.8037,7.60857 L 32.815,7.66605 L 32.8338,7.71843
 L 32.8602,7.76573 L 32.8932,7.80881 L 32.932,7.84854 L 32.9766,7.8849 L 33.027,7.91792 L 33.0894,7.94939
 L 33.17,7.98117 L 33.2689,8.01324 L 33.3859,8.04565 L 33.5958,8.10097 L 33.6701,8.12355 L 33.7334,8.14899
 L 33.7856,8.17726 L 33.8269,8.20839 L 33.8583,8.24338 L 33.8806,8.28325 L 33.8941,8.328 L 33.8985,8.37764
 L 33.8921,8.44174 L 33.8727,8.49728 L 33.8404,8.54428 L 33.7952,8.58272 L 33.7361,8.61263 L 33.662,8.63399
 L 33.5729,8.6468 L 33.4689,8.65108 L 33.3704,8.64696 L 33.2833,8.6346 L 33.2077,8.614 L 33.1434,8.58517
 L 33.0898,8.54749 L 33.0461,8.50032 L 33.0125,8.44371 L 32.9888,8.37764 L 32.73,8.42812 L 32.7646,8.53528
 L 32.8148,8.62727 L 32.8806,8.70412 L 32.9619,8.76582 L 33.0604,8.81317 L 33.1778,8.84698 L 33.3139,8.86728
 L 33.4689,8.87404 z
M 72.4369,8.8656 L 72.578,8.84027 L 72.7002,8.79807 L 72.8036,8.73897 L 72.8858,8.66429 L 72.9446,8.57539
 L 72.9798,8.47224 L 72.9916,8.35487 L 72.9895,8.30579 L 72.9834,8.25946 L 72.9733,8.21588 L 72.959,8.17503
 L 72.9411,8.13673 L 72.9197,8.10078 L 72.8951,8.06717 L 72.8671,8.03589 L 72.8347,8.00644 L 72.7969,7.97833
 L 72.7537,7.95152 L 72.7051,7.92606 L 72.6457,7.90067 L 72.5701,7.87416 L 72.4781,7.84654 L 72.3699,7.81781
 L 72.2576,7.78934 L 72.1664,7.7641 L 72.0964,7.74214 L 72.0476,7.72342 L 72.0117,7.70541 L 71.9805,7.68558
 L 71.9539,7.66393 L 71.932,7.64043 L 71.915,7.61438 L 71.9028,7.58508 L 71.8954,7.55254 L 71.893,7.51674
 L 71.8989,7.45956 L 71.9166,7.41013 L 71.9461,7.36842 L 71.9874,7.33446 L 72.0411,7.30811 L 72.1078,7.28929
 L 72.1876,7.278 L 72.2803,7.27423 L 72.3653,7.27815 L 72.4413,7.2899 L 72.5081,7.30948 L 72.566,7.3369
 L 72.6142,7.37163 L 72.652,7.41318 L 72.6797,7.46155 L 72.697,7.51674 L 72.9606,7.48416 L 72.93,7.37878
 L 72.8835,7.28886 L 72.8213,7.2144 L 72.7434,7.15541 L 72.65,7.11055 L 72.5418,7.07852 L 72.4185,7.0593
 L 72.2803,7.05289 L 72.1258,7.06076 L 71.9909,7.08443 L 71.8755,7.12384 L 71.7799,7.17903 L 71.7048,7.24925
 L 71.6511,7.33383 L 71.6189,7.43275 L 71.6082,7.54601 L 71.612,7.60857 L 71.6232,7.66605 L 71.6421,7.71843
 L 71.6684,7.76573 L 71.7014,7.80881 L 71.7402,7.84854 L 71.7848,7.8849 L 71.8352,7.91792 L 71.8976,7.94939
 L 71.9782,7.98117 L 72.0771,8.01324 L 72.1941,8.04565 L 72.4041,8.10097 L 72.4783,8.12355 L 72.5416,8.14899
 L 72.5938,8.17726 L 72.6351,8.20839 L 72.6665,8.24338 L 72.6889,8.28325 L 72.7023,8.328 L 72.7068,8.37764
 L 72.7003,8.44174 L 72.6809,8.49728 L 72.6486,8.54428 L 72.6034,8.58272 L 72.5443,8.61263 L 72.4702,8.63399
 L 72.3811,8.6468 L 72.2771,8.65108 L 72.1786,8.64696 L 72.0916,8.6346 L 72.0159,8.614 L 71.9516,8.58517
 L 71.898,8.54749 L 71.8544,8.50032 L 71.8207,8.44371 L 71.797,8.37764 L 71.5382,8.42812 L 71.5728,8.53528
 L 71.623,8.62727 L 71.6888,8.70412 L 71.7701,8.76582 L 71.8686,8.81317 L 71.986,8.84698 L 72.1221,8.86728
 L 72.2771,8.87404 z
M 57.6041,8.8656 L 57.7451,8.84027 L 57.8674,8.79807 L 57.9708,8.73897 L 58.053,8.66429 L 58.1118,8.57539
 L 58.147,8.47224 L 58.1588,8.35487 L 58.1567,8.30579 L 58.1506,8.25946 L 58.1404,8.21588 L 58.1262,8.17503
 L 58.1082,8.13673 L 58.0869,8.10078 L 58.0623,8.06717 L 58.0342,8.03589 L 58.0018,8.00644 L 57.9641,7.97833
 L 57.9209,7.95152 L 57.8723,7.92606 L 57.8129,7.90067 L 57.7372,7.87416 L 57.6453,7.84654 L 57.537,7.81781
 L 57.4247,7.78934 L 57.3336,7.7641 L 57.2636,7.74214 L 57.2148,7.72342 L 57.1789,7.70541 L 57.1476,7.68558
 L 57.1211,7.66393 L 57.0992,7.64043 L 57.0821,7.61438 L 57.0699,7.58508 L 57.0626,7.55254 L 57.0602,7.51674
 L 57.0661,7.45956 L 57.0838,7.41013 L 57.1133,7.36842 L 57.1546,7.33446 L 57.2083,7.30811 L 57.275,7.28929
 L 57.3548,7.278 L 57.4475,7.27423 L 57.5325,7.27815 L 57.6084,7.2899 L 57.6753,7.30948 L 57.7332,7.3369
 L 57.7813,7.37163 L 57.8192,7.41318 L 57.8468,7.46155 L 57.8642,7.51674 L 58.1278,7.48416 L 58.0972,7.37878
 L 58.0507,7.28886 L 57.9885,7.2144 L 57.9105,7.15541 L 57.8172,7.11055 L 57.7089,7.07852 L 57.5857,7.0593
 L 57.4475,7.05289 L 57.293,7.06076 L 57.158,7.08443 L 57.0427,7.12384 L 56.9471,7.17903 L 56.8719,7.24925
 L 56.8183,7.33383 L 56.7861,7.43275 L 56.7754,7.54601 L 56.7791,7.60857 L 56.7904,7.66605 L 56.8092,7.71843
 L 56.8356,7.76573 L 56.8686,7.80881 L 56.9074,7.84854 L 56.952,7.8849 L 57.0024,7.91792 L 57.0648,7.94939
 L 57.1454,7.98117 L 57.2442,8.01324 L 57.3613,8.04565 L 57.5712,8.10097 L 57.6455,8.12355 L 57.7087,8.14899
 L 57.761,8.17726 L 57.8023,8.20839 L 57.8337,8.24338 L 57.856,8.28325 L 57.8695,8.328 L 57.8739,8.37764
 L 57.8675,8.44174 L 57.8481,8.49728 L 57.8158,8.54428 L 57.7706,8.58272 L 57.7114,8.61263 L 57.6373,8.63399
 L 57.5483,8.6468 L 57.4443,8.65108 L 57.3458,8.64696 L 57.2587,8.6346 L 57.183,8.614 L 57.1188,8.58517
 L 57.0652,8.54749 L 57.0215,8.50032 L 56.9879,8.44371 L 56.9642,8.37764 L 56.7054,8.42812 L 56.74,8.53528
 L 56.7902,8.62727 L 56.856,8.70412 L 56.9373,8.76582 L 57.0358,8.81317 L 57.1532,8.84698 L 57.2893,8.86728
 L 57.4443,8.87404 z
M -1.32593,8.11888 L -0.85231,8.84149 L -0.525192,8.84149 L -1.15991,7.93336 L -0.562637,7.08055 L -0.889755,7.08055
 L -1.32593,7.76573 L -1.76534,7.08055 L -2.08922,7.08055 L -1.49191,7.93661 L -2.1185,8.84149 L -1.80278,8.84149
 z
M 63.7227,8.32024 L 63.8226,7.92828 L 63.8887,7.66559 L 63.921,7.53218 L 63.9355,7.46744 L 63.9479,7.41074
 L 63.9583,7.36206 L 63.9666,7.32143 L 64.0252,7.59647 L 64.3328,8.84149 L 64.6729,8.84149 L 65.1775,7.08055
 L 64.891,7.08055 L 64.5574,8.37277 L 64.5069,8.599 L 64.4321,8.28978 L 64.1245,7.08055 L 63.8103,7.08055
 L 63.4426,8.47856 L 63.4149,8.599 L 63.3885,8.47267 L 63.3681,8.37685 L 63.3535,8.31154 L 63.0471,7.08055
 L 62.7574,7.08055 L 63.2505,8.84149 L 63.589,8.84149 z
M -16.0039,7.08055 L -16.2969,7.08055 L -16.2969,8.84149 L -16.0039,8.84149 z
M -27.9954,8.11888 L -27.5218,8.84149 L -27.1947,8.84149 L -27.8294,7.93336 L -27.2321,7.08055 L -27.5593,7.08055
 L -27.9954,7.76573 L -28.4348,7.08055 L -28.7587,7.08055 L -28.1614,7.93661 L -28.788,8.84149 L -28.4723,8.84149
 z
M -14.1415,7.08055 L -14.4523,7.08055 L -14.8527,8.22954 L -14.9162,8.42159 L -14.9731,8.612 L -15.0143,8.46767
 L -15.0468,8.35527 L -15.0705,8.27481 L -15.0854,8.2263 L -15.4728,7.08055 L -15.7853,7.08055 L -15.1457,8.84149
 L -14.799,8.84149 z
M -13.6531,7.08055 L -13.9461,7.08055 L -13.9461,8.84149 L -13.6531,8.84149 z
M 68.3888,9.52895 L 68.4556,9.51628 L 68.5186,9.49518 L 68.5779,9.46564 L 68.634,9.42749 L 68.6875,9.3806
 L 68.7385,9.32497 L 68.787,9.26057 L 68.8351,9.18282 L 68.8851,9.08705 L 68.9368,8.97327 L 68.9905,8.84149
 L 69.6675,7.08055 L 69.3583,7.08055 L 68.9725,8.20189 L 68.8586,8.52251 L 68.8526,8.50195 L 68.8395,8.46147
 L 68.8193,8.40105 L 68.7919,8.32069 L 68.7641,8.23967 L 68.7427,8.17728 L 68.7275,8.13348 L 68.7187,8.10832
 L 68.6991,8.05379 L 68.3281,7.08055 L 68.0156,7.08055 L 68.7138,8.83336 L 68.6861,8.90334 L 68.5992,9.07921
 L 68.4981,9.20483 L 68.3828,9.28021 L 68.2532,9.30534 L 68.2166,9.30473 L 68.1816,9.3029 L 68.1482,9.29985
 L 68.1165,9.29558 L 68.1165,9.51527 L 68.1596,9.5231 L 68.2076,9.5287 L 68.2605,9.53206 L 68.3183,9.53317
 z
M 66.0749,7.82594 L 65.2612,7.82594 L 65.2612,8.08633 L 66.0749,8.08633 z
" stroke="black" fill="lightgray" stroke-width="0.5"/>
</svg>
