<?xml version="1.0" standalone="no"?>
<!DOCTYPE svg PUBLIC "-//W3C//DTD SVG 1.1//EN" "http://www.w3.org/Graphics/SVG/1.1/DTD/svg11.dtd">
<svg width="132mm" height="21mm" viewBox="-50 -2 132 21" xmlns="http://www.w3.org/2000/svg" version="1.1">
<title>OpenSCAD Model</title>
<path d="
M 32.6069,18.918 L 34.7282,17.6932 L 34.7462,17.6766 L 34.7575,17.6516 L 34.7614,17.62 L 34.7868,17.6009
 L 34.8028,17.5786 L 34.8082,17.5547 L 34.8082,16.9423 L 34.8028,16.9184 L 34.7868,16.8961 L 34.7614,16.877
 L 34.7575,16.8454 L 34.7462,16.8204 L 34.7282,16.8037 L 20.3615,8.50909 L 20.3674,8.50021 L 20.4085,8.40147
 L 20.4327,8.29097 L 20.1612,8.27309 L 20.1454,8.34842 L 20.134,8.37778 L 19.396,7.95169 L 19.4018,7.8011
 L 19.4197,7.66963 L 19.4495,7.56241 L 19.4913,7.47943 L 19.5464,7.41742 L 19.6163,7.37312 L 19.7008,7.34654
 L 19.8001,7.33769 L 19.874,7.34262 L 19.9389,7.35745 L 19.9948,7.38216 L 20.0418,7.41675 L 20.0803,7.45973
 L 20.1108,7.50963 L 20.1333,7.56641 L 20.1477,7.63008 L 20.4237,7.60921 L 20.3952,7.50264 L 20.3516,7.40817
 L 20.2927,7.32585 L 20.2186,7.25565 L 20.1317,7.19951 L 20.0342,7.15942 L 19.9262,7.13536 L 19.8076,7.12735
 L 19.6502,7.14073 L 19.5122,7.18086 L 19.3936,7.24777 L 19.2944,7.34143 L 19.2161,7.46054 L 19.1601,7.60381
 L 19.1266,7.77122 L 19.1252,7.7953 L 2.20131,-1.97568 L 2.17789,-1.98291 L 2.15059,-1.98021 L 2.12131,-1.96774
 L 2.09203,-1.98021 L 2.06474,-1.98291 L 2.04132,-1.97568 L -0.0799866,-0.750931 L -0.0979767,-0.734253 L -0.109268,-0.709274
 L -0.113129,-0.677689 L -0.13855,-0.658554 L -0.154541,-0.636276 L -0.159988,-0.612366 L -0.159988,-0 L -0.154541,0.0238953
 L -0.13855,0.0461731 L -0.113129,0.0653076 L -0.109268,0.0968933 L -0.0979767,0.121887 L -0.0799866,0.13855 L 12.435,7.36406
 L 12.435,8.77136 L 12.7199,8.77136 L 12.7199,7.96576 L 12.9944,7.7569 L 13.8343,8.77136 L 14.1879,8.77136
 L 13.5233,7.99242 L 14.379,8.48643 L 14.379,8.77136 L 14.6475,8.77136 L 14.6475,8.64148 L 15.0434,8.87004
 L 15.0434,9.40541 L 15.3119,9.40541 L 15.3119,9.02509 L 32.4469,18.918 L 32.4703,18.9252 L 32.4976,18.9225
 L 32.5269,18.9101 L 32.5562,18.9225 L 32.5835,18.9252 z
M 12.7199,7.52858 L 12.8399,7.59784 L 12.7199,7.7226 z
M -40.5957,8.74843 L -40.4101,8.5901 L -40.2988,8.32622 L -40.2616,7.95682 L -40.2706,7.7612 L -40.2976,7.59206
 L -40.3426,7.4494 L -40.4056,7.33322 L -40.4877,7.24315 L -40.5901,7.17882 L -40.7126,7.14021 L -40.8554,7.12735
 L -40.9427,7.13155 L -41.0227,7.14413 L -41.0953,7.16512 L -41.1605,7.19449 L -41.219,7.23355 L -41.2715,7.28362
 L -41.3179,7.34468 L -41.3582,7.41675 L -41.3642,7.41675 L -41.3615,7.35326 L -41.3597,7.29405 L -41.3586,7.23914
 L -41.3582,7.18851 L -41.3582,6.55743 L -41.6267,6.55743 L -41.6267,8.43869 L -41.6273,8.55402 L -41.629,8.64792
 L -41.6318,8.72037 L -41.6357,8.77136 L -41.3761,8.77136 L -41.3744,8.75893 L -41.3724,8.7365 L -41.3699,8.7041
 L -41.3672,8.66171 L -41.3645,8.61739 L -41.3627,8.5791 L -41.3615,8.54689 L -41.3612,8.52072 L -41.3582,8.52072
 L -41.3173,8.58949 L -41.2707,8.6481 L -41.2185,8.69655 L -41.1605,8.73483 L -41.0959,8.76387 L -41.0235,8.78461
 L -40.9433,8.79706 L -40.8554,8.80119 z
M -41.0332,8.59332 L -41.1236,8.56493 L -41.1981,8.51761 L -41.2568,8.45135 L -41.3011,8.36525 L -41.3328,8.25835
 L -41.3519,8.13065 L -41.3582,7.98218 L -41.3517,7.82498 L -41.3323,7.69052 L -41.2999,7.57883 L -41.2545,7.48988
 L -41.195,7.422 L -41.1201,7.3735 L -41.0297,7.34442 L -40.924,7.33472 L -40.8303,7.34386 L -40.7506,7.37128
 L -40.6849,7.41696 L -40.6331,7.48093 L -40.594,7.56606 L -40.566,7.67523 L -40.5492,7.80847 L -40.5436,7.96576
 L -40.5493,8.12263 L -40.5662,8.2561 L -40.5944,8.36618 L -40.6339,8.45285 L -40.6861,8.51845 L -40.7523,8.56529
 L -40.8326,8.59341 L -40.927,8.60278 z
M 25.9262,6.55743 L 25.6576,6.55743 L 25.6576,8.77136 L 25.9262,8.77136 z
M 74.273,8.74843 L 74.4585,8.5901 L 74.5699,8.32622 L 74.607,7.95682 L 74.598,7.7612 L 74.571,7.59206
 L 74.526,7.4494 L 74.463,7.33322 L 74.3809,7.24315 L 74.2786,7.17882 L 74.156,7.14021 L 74.0132,7.12735
 L 73.9259,7.13155 L 73.8459,7.14413 L 73.7733,7.16512 L 73.7081,7.19449 L 73.6496,7.23355 L 73.5972,7.28362
 L 73.5508,7.34468 L 73.5104,7.41675 L 73.5045,7.41675 L 73.5071,7.35326 L 73.5089,7.29405 L 73.5101,7.23914
 L 73.5104,7.18851 L 73.5104,6.55743 L 73.2419,6.55743 L 73.2419,8.43869 L 73.2413,8.55402 L 73.2397,8.64792
 L 73.2369,8.72037 L 73.2329,8.77136 L 73.4926,8.77136 L 73.4942,8.75893 L 73.4963,8.7365 L 73.4987,8.7041
 L 73.5015,8.66171 L 73.5041,8.61739 L 73.506,8.5791 L 73.5071,8.54689 L 73.5075,8.52072 L 73.5104,8.52072
 L 73.5513,8.58949 L 73.5979,8.6481 L 73.6502,8.69655 L 73.7081,8.73483 L 73.7728,8.76387 L 73.8452,8.78461
 L 73.9253,8.79706 L 74.0132,8.80119 z
M 73.8354,8.59332 L 73.745,8.56493 L 73.6705,8.51761 L 73.6119,8.45135 L 73.5675,8.36525 L 73.5358,8.25835
 L 73.5168,8.13065 L 73.5104,7.98218 L 73.5169,7.82498 L 73.5364,7.69052 L 73.5688,7.57883 L 73.6141,7.48988
 L 73.6737,7.422 L 73.7486,7.3735 L 73.8389,7.34442 L 73.9446,7.33472 L 74.0383,7.34386 L 74.118,7.37128
 L 74.1837,7.41696 L 74.2355,7.48093 L 74.2747,7.56606 L 74.3026,7.67523 L 74.3194,7.80847 L 74.325,7.96576
 L 74.3194,8.12263 L 74.3024,8.2561 L 74.2742,8.36618 L 74.2347,8.45285 L 74.1826,8.51845 L 74.1163,8.56529
 L 74.036,8.59341 L 73.9416,8.60278 z
M 70.3589,6.55743 L 70.0904,6.55743 L 70.0904,8.77136 L 70.3589,8.77136 z
M -32.5666,6.55743 L -32.8352,6.55743 L -32.8352,8.77136 L -32.5666,8.77136 z
M 5.40286,6.55743 L 5.16716,6.55743 L 4.554,8.80119 L 4.79568,8.80119 z
M -5.07175,9.24998 L -4.95877,9.091 L -4.864,8.927 L -4.7874,8.75795 L -4.72833,8.58087 L -4.68614,8.39281
 L -4.66083,8.19374 L -4.65239,7.98367 L -4.65239,7.97771 L -4.66078,7.76889 L -4.68594,7.57062 L -4.72791,7.38287
 L -4.78665,7.20566 L -4.86301,7.03619 L -4.95784,6.87167 L -5.07114,6.71208 L -5.2029,6.55743 L -5.46246,6.55743
 L -5.33226,6.71558 L -5.2206,6.87819 L -5.1275,7.04529 L -5.05296,7.21686 L -4.99585,7.39496 L -4.95505,7.58162
 L -4.93057,7.77686 L -4.92241,7.98068 L -4.93053,8.18445 L -4.95486,8.37956 L -4.99542,8.56601 L -5.05222,8.74377
 L -5.12653,8.91512 L -5.21967,9.08224 L -5.33165,9.24518 L -5.46246,9.40393 L -5.2029,9.40393 z
M -7.16089,6.55743 L -7.42943,6.55743 L -7.42943,8.77136 L -7.16089,8.77136 z
M -12.8228,6.55743 L -13.0585,6.55743 L -13.6717,8.80119 L -13.43,8.80119 z
M 61.2352,6.55743 L 60.9667,6.55743 L 60.9667,8.77136 L 61.2352,8.77136 z
M -15.4567,9.24449 L -15.569,9.08093 L -15.6622,8.91328 L -15.7363,8.74153 L -15.7928,8.56363 L -15.8331,8.3775
 L -15.8573,8.18318 L -15.8654,7.98068 L -15.8572,7.7774 L -15.8327,7.58235 L -15.7919,7.39549 L -15.7348,7.21684
 L -15.6603,7.04472 L -15.5672,6.87744 L -15.4555,6.71501 L -15.3253,6.55743 L -15.5849,6.55743 L -15.716,6.71138
 L -15.829,6.87036 L -15.9238,7.03438 L -16.0004,7.20341 L -16.0594,7.38049 L -16.1016,7.56856 L -16.127,7.76764
 L -16.1354,7.97771 L -16.1354,7.98367 L -16.127,8.19247 L -16.1018,8.39075 L -16.0599,8.57849 L -16.0011,8.75571
 L -15.9248,8.92517 L -15.8299,9.08971 L -15.7166,9.24928 L -15.5849,9.40393 L -15.3253,9.40393 z
M 34.2603,6.55743 L 34.0246,6.55743 L 33.4114,8.80119 L 33.6531,8.80119 z
M -18.8591,8.79123 L -18.7172,8.76129 L -18.595,8.71141 L -18.4927,8.64157 L -18.4117,8.55354 L -18.3539,8.44911
 L -18.3192,8.32828 L -18.3077,8.19102 L -18.3159,8.09462 L -18.3405,8.00677 L -18.3815,7.92754 L -18.439,7.85686
 L -18.5111,7.7972 L -18.5964,7.75095 L -18.6946,7.71812 L -18.806,7.69873 L -18.806,7.69276 L -18.7049,7.6653
 L -18.6167,7.62767 L -18.5412,7.57988 L -18.4785,7.52194 L -18.4292,7.45419 L -18.394,7.37704 L -18.3729,7.29047
 L -18.3658,7.19447 L -18.3768,7.0704 L -18.4097,6.9608 L -18.4644,6.86566 L -18.5411,6.78496 L -18.6376,6.72066
 L -18.7517,6.67474 L -18.8834,6.64719 L -19.0327,6.638 L -19.1709,6.64705 L -19.2959,6.67418 L -19.4077,6.71941
 L -19.5064,6.78271 L -19.5889,6.86215 L -19.652,6.95576 L -19.6959,7.06355 L -19.7205,7.18552 L -19.4505,7.20641
 L -19.4358,7.12827 L -19.4096,7.05945 L -19.372,6.99997 L -19.3229,6.9498 L -19.2638,6.90999 L -19.1963,6.88155
 L -19.1202,6.86447 L -19.0357,6.8588 L -18.944,6.8649 L -18.8643,6.88322 L -18.7967,6.91376 L -18.7411,6.95651
 L -18.6977,7.00981 L -18.6667,7.07196 L -18.6481,7.14296 L -18.6419,7.22282 L -18.6495,7.30324 L -18.6723,7.37442
 L -18.7103,7.43639 L -18.7635,7.48911 L -18.8304,7.53122 L -18.9098,7.56128 L -19.0016,7.57933 L -19.1058,7.58534
 L -19.252,7.58534 L -19.252,7.81808 L -19.0999,7.81808 L -18.9826,7.8241 L -18.88,7.84213 L -18.792,7.87221
 L -18.7187,7.91431 L -18.6609,7.96713 L -18.6197,8.02936 L -18.5949,8.101 L -18.5867,8.18207 L -18.5939,8.27448
 L -18.6156,8.35475 L -18.6517,8.42293 L -18.7023,8.47896 L -18.7655,8.52269 L -18.8397,8.55392 L -18.9248,8.57266
 L -19.0208,8.57892 L -19.201,8.5556 L -19.3374,8.48567 L -19.43,8.36913 L -19.4788,8.20595 L -19.7563,8.23131
 L -19.7287,8.36366 L -19.6819,8.47876 L -19.6157,8.57663 L -19.5303,8.65723 L -19.4271,8.72021 L -19.3078,8.76521
 L -19.1723,8.79221 L -19.0208,8.80119 z
M -24.705,8.78917 L -24.5718,8.7531 L -24.4558,8.69296 L -24.357,8.60876 L -24.278,8.50377 L -24.2216,8.38124
 L -24.1878,8.2412 L -24.1765,8.0836 L -24.1872,7.93779 L -24.2192,7.80763 L -24.2726,7.69313 L -24.3473,7.5943
 L -24.4402,7.51466 L -24.5482,7.45779 L -24.6711,7.42366 L -24.8091,7.41229 L -24.8924,7.41672 L -24.9709,7.43001
 L -25.0446,7.45215 L -25.1134,7.48315 L -25.1761,7.52264 L -25.2312,7.57024 L -25.279,7.62595 L -25.3193,7.68977
 L -25.3114,7.49886 L -25.2878,7.33191 L -25.2484,7.18892 L -25.1932,7.0699 L -25.1237,6.97624 L -25.0412,6.90935
 L -24.9458,6.8692 L -24.8374,6.85582 L -24.7156,6.87186 L -24.6173,6.91997 L -24.5426,7.00015 L -24.4913,7.11241
 L -24.2347,7.06616 L -24.3186,6.87885 L -24.4465,6.74504 L -24.6185,6.66476 L -24.8344,6.638 L -25.0046,6.65628
 L -25.1541,6.71111 L -25.2828,6.80249 L -25.3909,6.93042 L -25.4764,7.09247 L -25.5374,7.28622 L -25.5741,7.51169
 L -25.5863,7.76884 L -25.5746,8.00595 L -25.5393,8.21304 L -25.4806,8.39011 L -25.3983,8.53716 L -25.2939,8.65268
 L -25.1686,8.73518 L -25.0224,8.7847 L -24.8553,8.80119 z
M -24.954,8.57518 L -25.0353,8.54608 L -25.108,8.4976 L -25.1723,8.42973 L -25.2249,8.34665 L -25.2624,8.25256
 L -25.2849,8.14748 L -25.2924,8.0314 L -25.2852,7.94035 L -25.2635,7.85966 L -25.2274,7.78931 L -25.1768,7.72931
 L -25.1145,7.68134 L -25.0431,7.64708 L -24.9627,7.62651 L -24.8732,7.61966 L -24.7787,7.6274 L -24.6953,7.65062
 L -24.6228,7.68932 L -24.5614,7.7435 L -24.5124,7.81194 L -24.4775,7.89342 L -24.4565,7.98796 L -24.4495,8.09555
 L -24.4564,8.20357 L -24.4771,8.29938 L -24.5116,8.38297 L -24.5599,8.45435 L -24.6203,8.51146 L -24.6912,8.55225
 L -24.7725,8.57672 L -24.8642,8.58487 z
M 50.927,8.79123 L 51.0689,8.76129 L 51.191,8.71141 L 51.2934,8.64157 L 51.3743,8.55354 L 51.4321,8.44911
 L 51.4668,8.32828 L 51.4784,8.19102 L 51.4702,8.09462 L 51.4456,8.00677 L 51.4045,7.92754 L 51.3471,7.85686
 L 51.2749,7.7972 L 51.1897,7.75095 L 51.0914,7.71812 L 50.9801,7.69873 L 50.9801,7.69276 L 51.0811,7.6653
 L 51.1694,7.62767 L 51.2449,7.57988 L 51.3076,7.52194 L 51.3569,7.45419 L 51.3921,7.37704 L 51.4132,7.29047
 L 51.4202,7.19447 L 51.4093,7.0704 L 51.3764,6.9608 L 51.3216,6.86566 L 51.2449,6.78496 L 51.1485,6.72066
 L 51.0344,6.67474 L 50.9027,6.64719 L 50.7533,6.638 L 50.6152,6.64705 L 50.4902,6.67418 L 50.3784,6.71941
 L 50.2797,6.78271 L 50.1972,6.86215 L 50.134,6.95576 L 50.0902,7.06355 L 50.0656,7.18552 L 50.3356,7.20641
 L 50.3503,7.12827 L 50.3765,7.05945 L 50.4141,6.99997 L 50.4632,6.9498 L 50.5222,6.90999 L 50.5898,6.88155
 L 50.6658,6.86447 L 50.7504,6.8588 L 50.8421,6.8649 L 50.9217,6.88322 L 50.9894,6.91376 L 51.045,6.95651
 L 51.0884,7.00981 L 51.1194,7.07196 L 51.138,7.14296 L 51.1442,7.22282 L 51.1366,7.30324 L 51.1138,7.37442
 L 51.0758,7.43639 L 51.0226,7.48911 L 50.9556,7.53122 L 50.8763,7.56128 L 50.7845,7.57933 L 50.6803,7.58534
 L 50.534,7.58534 L 50.534,7.81808 L 50.6862,7.81808 L 50.8035,7.8241 L 50.9061,7.84213 L 50.9941,7.87221
 L 51.0674,7.91431 L 51.1252,7.96713 L 51.1664,8.02936 L 51.1912,8.101 L 51.1994,8.18207 L 51.1922,8.27448
 L 51.1705,8.35475 L 51.1344,8.42293 L 51.0838,8.47896 L 51.0205,8.52269 L 50.9464,8.55392 L 50.8613,8.57266
 L 50.7653,8.57892 L 50.5851,8.5556 L 50.4486,8.48567 L 50.356,8.36913 L 50.3073,8.20595 L 50.0298,8.23131
 L 50.0573,8.36366 L 50.1042,8.47876 L 50.1703,8.57663 L 50.2558,8.65723 L 50.359,8.72021 L 50.4783,8.76521
 L 50.6137,8.79221 L 50.7653,8.80119 z
M 47.4785,8.54312 L 46.3819,8.54312 L 46.4079,8.49039 L 46.4409,8.43663 L 46.481,8.38185 L 46.5281,8.32605
 L 46.5832,8.26801 L 46.6471,8.20651 L 46.7198,8.14157 L 46.8012,8.07318 L 46.9445,7.95468 L 47.0626,7.85277
 L 47.1556,7.76746 L 47.2234,7.69873 L 47.2752,7.63831 L 47.3201,7.57788 L 47.3583,7.51746 L 47.3897,7.45703
 L 47.4142,7.39651 L 47.4317,7.33582 L 47.4422,7.27493 L 47.4456,7.21387 L 47.435,7.08374 L 47.4029,6.96938
 L 47.3496,6.87077 L 47.2748,6.78793 L 47.1802,6.72234 L 47.0673,6.67548 L 46.9359,6.64737 L 46.7862,6.638
 L 46.6481,6.64732 L 46.5231,6.67529 L 46.4113,6.72192 L 46.3126,6.7872 L 46.2301,6.86823 L 46.1669,6.96211
 L 46.123,7.06888 L 46.0985,7.18851 L 46.373,7.21387 L 46.3884,7.13429 L 46.4153,7.06412 L 46.4537,7.00337
 L 46.5035,6.95204 L 46.5629,6.91125 L 46.6298,6.88211 L 46.7042,6.86462 L 46.7862,6.8588 L 46.8716,6.86476
 L 46.947,6.88266 L 47.0125,6.91249 L 47.0682,6.95427 L 47.1126,7.00687 L 47.1443,7.06915 L 47.1633,7.14114
 L 47.1697,7.22282 L 47.166,7.28529 L 47.1549,7.34441 L 47.1365,7.40016 L 47.1107,7.45258 L 47.079,7.50273
 L 47.0426,7.55177 L 47.0018,7.59972 L 46.9563,7.64653 L 46.9071,7.69276 L 46.855,7.73901 L 46.8001,7.78525
 L 46.7422,7.8315 L 46.6828,7.87872 L 46.6231,7.9279 L 46.563,7.97905 L 46.5028,8.03215 L 46.4431,8.08781
 L 46.3847,8.14664 L 46.3278,8.20865 L 46.2723,8.27383 L 46.2196,8.34315 L 46.171,8.41762 L 46.1267,8.49719
 L 46.0866,8.58191 L 46.0866,8.77136 L 47.4785,8.77136 z
M -44.2675,8.54312 L -45.3641,8.54312 L -45.3382,8.49039 L -45.3052,8.43663 L -45.2651,8.38185 L -45.2179,8.32605
 L -45.1628,8.26801 L -45.0989,8.20651 L -45.0263,8.14157 L -44.9449,8.07318 L -44.8016,7.95468 L -44.6834,7.85277
 L -44.5905,7.76746 L -44.5227,7.69873 L -44.4709,7.63831 L -44.4259,7.57788 L -44.3877,7.51746 L -44.3563,7.45703
 L -44.3318,7.39651 L -44.3144,7.33582 L -44.3039,7.27493 L -44.3004,7.21387 L -44.3111,7.08374 L -44.3431,6.96938
 L -44.3965,6.87077 L -44.4712,6.78793 L -44.5658,6.72234 L -44.6788,6.67548 L -44.8101,6.64737 L -44.9598,6.638
 L -45.0979,6.64732 L -45.2229,6.67529 L -45.3348,6.72192 L -45.4335,6.7872 L -45.5159,6.86823 L -45.5791,6.96211
 L -45.623,7.06888 L -45.6476,7.18851 L -45.373,7.21387 L -45.3576,7.13429 L -45.3307,7.06412 L -45.2923,7.00337
 L -45.2425,6.95204 L -45.1832,6.91125 L -45.1163,6.88211 L -45.0418,6.86462 L -44.9598,6.8588 L -44.8745,6.86476
 L -44.799,6.88266 L -44.7335,6.91249 L -44.6778,6.95427 L -44.6334,7.00687 L -44.6017,7.06915 L -44.5827,7.14114
 L -44.5764,7.22282 L -44.58,7.28529 L -44.5911,7.34441 L -44.6095,7.40016 L -44.6353,7.45258 L -44.6671,7.50273
 L -44.7034,7.55177 L -44.7443,7.59972 L -44.7897,7.64653 L -44.8389,7.69276 L -44.891,7.73901 L -44.946,7.78525
 L -45.0038,7.8315 L -45.0632,7.87872 L -45.123,7.9279 L -45.183,7.97905 L -45.2433,8.03215 L -45.303,8.08781
 L -45.3613,8.14664 L -45.4182,8.20865 L -45.4738,8.27383 L -45.5265,8.34315 L -45.575,8.41762 L -45.6193,8.49719
 L -45.6595,8.58191 L -45.6595,8.77136 L -44.2675,8.77136 z
M 52.5891,8.78386 L 52.7372,8.73183 L 52.8632,8.64511 L 52.9671,8.52371 L 53.0483,8.3694 L 53.1064,8.18394
 L 53.1412,7.96735 L 53.1528,7.7196 L 53.1418,7.46823 L 53.1086,7.24966 L 53.0534,7.06393 L 52.976,6.91103
 L 52.8755,6.79156 L 52.7506,6.70625 L 52.6014,6.65506 L 52.4278,6.638 L 52.2497,6.65488 L 52.0972,6.70551
 L 51.9703,6.78989 L 51.8691,6.90802 L 51.7917,7.06001 L 51.7365,7.24594 L 51.7033,7.46581 L 51.6923,7.7196
 L 51.7037,7.96857 L 51.7378,8.18581 L 51.7947,8.37137 L 51.8743,8.52521 L 51.9766,8.64595 L 52.1014,8.73221
 L 52.2489,8.78395 L 52.4188,8.80119 z
M 52.3105,8.56894 L 52.2154,8.53006 L 52.1364,8.46526 L 52.0735,8.37453 L 52.0255,8.25583 L 51.9912,8.10712
 L 51.9707,7.92838 L 51.9638,7.7196 L 51.9706,7.50534 L 51.9909,7.32352 L 52.0247,7.17415 L 52.072,7.05724
 L 52.1348,6.96912 L 52.215,6.90617 L 52.3127,6.86841 L 52.4278,6.85582 L 52.5401,6.86859 L 52.6353,6.90692
 L 52.7135,6.97078 L 52.7746,7.0602 L 52.8207,7.17805 L 52.8535,7.32724 L 52.8733,7.50775 L 52.8798,7.7196
 L 52.8729,7.92474 L 52.8522,8.10152 L 52.8177,8.24997 L 52.7694,8.37007 L 52.7063,8.46274 L 52.6273,8.52895
 L 52.5325,8.56866 L 52.4218,8.58191 z
M 10.7119,8.78386 L 10.86,8.73183 L 10.986,8.64511 L 11.0899,8.52371 L 11.1711,8.3694 L 11.2292,8.18394
 L 11.264,7.96735 L 11.2756,7.7196 L 11.2646,7.46823 L 11.2314,7.24966 L 11.1762,7.06393 L 11.0988,6.91103
 L 10.9983,6.79156 L 10.8734,6.70625 L 10.7242,6.65506 L 10.5506,6.638 L 10.3725,6.65488 L 10.22,6.70551
 L 10.0931,6.78989 L 9.99188,6.90802 L 9.91454,7.06001 L 9.85928,7.24594 L 9.82614,7.46581 L 9.81509,7.7196
 L 9.82646,7.96857 L 9.8606,8.18581 L 9.91747,8.37137 L 9.9971,8.52521 L 10.0994,8.64595 L 10.2242,8.73221
 L 10.3717,8.78395 L 10.5416,8.80119 z
M 10.4333,8.56894 L 10.3382,8.53006 L 10.2592,8.46526 L 10.1963,8.37453 L 10.1483,8.25583 L 10.114,8.10712
 L 10.0935,7.92838 L 10.0866,7.7196 L 10.0934,7.50534 L 10.1136,7.32352 L 10.1474,7.17415 L 10.1948,7.05724
 L 10.2576,6.96912 L 10.3378,6.90617 L 10.4355,6.86841 L 10.5506,6.85582 L 10.6629,6.86859 L 10.7581,6.90692
 L 10.8363,6.97078 L 10.8974,7.0602 L 10.9435,7.17805 L 10.9763,7.32724 L 10.9961,7.50775 L 11.0026,7.7196
 L 10.9957,7.92474 L 10.975,8.10152 L 10.9405,8.24997 L 10.8922,8.37007 L 10.8291,8.46274 L 10.7501,8.52895
 L 10.6553,8.56866 L 10.5446,8.58191 z
M -48.4402,8.79538 L -48.3061,8.77789 L -48.1772,8.74875 L -48.0535,8.70796 L -47.9369,8.65654 L -47.8298,8.59552
 L -47.7322,8.52489 L -47.6439,8.44464 L -47.6439,7.7196 L -48.5346,7.7196 L -48.5346,7.95831 L -47.9065,7.95831
 L -47.9065,8.33723 L -47.9659,8.38815 L -48.0339,8.43346 L -48.1103,8.47318 L -48.1952,8.50731 L -48.286,8.53471
 L -48.3803,8.55429 L -48.4781,8.56604 L -48.5793,8.56996 L -48.75,8.55556 L -48.9012,8.51233 L -49.0328,8.44031
 L -49.1448,8.33946 L -49.2342,8.21373 L -49.298,8.06702 L -49.3364,7.89932 L -49.3491,7.71065 L -49.3371,7.52199
 L -49.301,7.35579 L -49.2409,7.21207 L -49.1567,7.09081 L -49.0497,6.99452 L -48.9213,6.92575 L -48.7715,6.88449
 L -48.6002,6.87074 L -48.4879,6.87587 L -48.3852,6.89125 L -48.2921,6.9169 L -48.2086,6.95279 L -48.1341,6.99988
 L -48.0682,7.05908 L -48.0107,7.13042 L -47.9617,7.21387 L -47.6902,7.1333 L -47.7553,7.01236 L -47.833,6.90915
 L -47.9232,6.82364 L -48.0258,6.75586 L -48.143,6.70428 L -48.2765,6.66747 L -48.4264,6.64537 L -48.5928,6.638
 L -48.8273,6.65553 L -49.034,6.70811 L -49.2129,6.79576 L -49.3641,6.91847 L -49.4841,7.07317 L -49.5699,7.25676
 L -49.6214,7.46925 L -49.6385,7.71065 L -49.6307,7.87228 L -49.607,8.02299 L -49.5676,8.16281 L -49.5125,8.29172
 L -49.4424,8.40794 L -49.3583,8.50972 L -49.26,8.59705 L -49.1477,8.66992 L -49.0227,8.72736 L -48.8863,8.76839
 L -48.7385,8.793 L -48.5793,8.80119 z
M -14.3176,8.79123 L -14.1757,8.76129 L -14.0536,8.71141 L -13.9512,8.64157 L -13.8703,8.55354 L -13.8125,8.44911
 L -13.7778,8.32828 L -13.7662,8.19102 L -13.7744,8.09462 L -13.799,8.00677 L -13.8401,7.92754 L -13.8975,7.85686
 L -13.9697,7.7972 L -14.0549,7.75095 L -14.1532,7.71812 L -14.2645,7.69873 L -14.2645,7.69276 L -14.1635,7.6653
 L -14.0752,7.62767 L -13.9997,7.57988 L -13.937,7.52194 L -13.8877,7.45419 L -13.8525,7.37704 L -13.8314,7.29047
 L -13.8244,7.19447 L -13.8353,7.0704 L -13.8682,6.9608 L -13.923,6.86566 L -13.9997,6.78496 L -14.0961,6.72066
 L -14.2102,6.67474 L -14.3419,6.64719 L -14.4913,6.638 L -14.6294,6.64705 L -14.7544,6.67418 L -14.8662,6.71941
 L -14.9649,6.78271 L -15.0474,6.86215 L -15.1106,6.95576 L -15.1544,7.06355 L -15.179,7.18552 L -14.909,7.20641
 L -14.8943,7.12827 L -14.8681,7.05945 L -14.8305,6.99997 L -14.7814,6.9498 L -14.7224,6.90999 L -14.6548,6.88155
 L -14.5788,6.86447 L -14.4942,6.8588 L -14.4025,6.8649 L -14.3229,6.88322 L -14.2552,6.91376 L -14.1996,6.95651
 L -14.1562,7.00981 L -14.1252,7.07196 L -14.1066,7.14296 L -14.1004,7.22282 L -14.108,7.30324 L -14.1308,7.37442
 L -14.1688,7.43639 L -14.222,7.48911 L -14.289,7.53122 L -14.3684,7.56128 L -14.4601,7.57933 L -14.5643,7.58534
 L -14.7106,7.58534 L -14.7106,7.81808 L -14.5584,7.81808 L -14.4411,7.8241 L -14.3385,7.84213 L -14.2505,7.87221
 L -14.1772,7.91431 L -14.1194,7.96713 L -14.0782,8.02936 L -14.0534,8.101 L -14.0452,8.18207 L -14.0524,8.27448
 L -14.0741,8.35475 L -14.1102,8.42293 L -14.1608,8.47896 L -14.2241,8.52269 L -14.2982,8.55392 L -14.3833,8.57266
 L -14.4793,8.57892 L -14.6595,8.5556 L -14.796,8.48567 L -14.8885,8.36913 L -14.9373,8.20595 L -15.2148,8.23131
 L -15.1873,8.36366 L -15.1404,8.47876 L -15.0742,8.57663 L -14.9888,8.65723 L -14.8856,8.72021 L -14.7663,8.76521
 L -14.6309,8.79221 L -14.4793,8.80119 z
M 9.58182,8.54312 L 8.48529,8.54312 L 8.5112,8.49039 L 8.5442,8.43663 L 8.5843,8.38185 L 8.63148,8.32605
 L 8.68658,8.26801 L 8.75046,8.20651 L 8.82309,8.14157 L 8.9045,8.07318 L 9.04782,7.95468 L 9.16595,7.85277
 L 9.25891,7.76746 L 9.32671,7.69873 L 9.37849,7.63831 L 9.42348,7.57788 L 9.46167,7.51746 L 9.49304,7.45703
 L 9.51752,7.39651 L 9.535,7.33582 L 9.54549,7.27493 L 9.549,7.21387 L 9.53831,7.08374 L 9.50629,6.96938
 L 9.4529,6.87077 L 9.37816,6.78793 L 9.28357,6.72234 L 9.17061,6.67548 L 9.03928,6.64737 L 8.88959,6.638
 L 8.75143,6.64732 L 8.62645,6.67529 L 8.5146,6.72192 L 8.41589,6.7872 L 8.33342,6.86823 L 8.27025,6.96211
 L 8.22638,7.06888 L 8.20181,7.18851 L 8.47633,7.21387 L 8.49176,7.13429 L 8.51866,7.06412 L 8.55702,7.00337
 L 8.60686,6.95204 L 8.66621,6.91125 L 8.73311,6.88211 L 8.80757,6.86462 L 8.88959,6.8588 L 8.9749,6.86476
 L 9.05032,6.88266 L 9.11588,6.91249 L 9.17154,6.95427 L 9.21593,7.00687 L 9.24763,7.06915 L 9.26666,7.14114
 L 9.27299,7.22282 L 9.26932,7.28529 L 9.25827,7.34441 L 9.23985,7.40016 L 9.21407,7.45258 L 9.18231,7.50273
 L 9.14598,7.55177 L 9.1051,7.59972 L 9.05965,7.64653 L 9.01045,7.69276 L 8.95839,7.73901 L 8.90341,7.78525
 L 8.84557,7.8315 L 8.78612,7.87872 L 8.72639,7.9279 L 8.6664,7.97905 L 8.60611,8.03215 L 8.5464,8.08781
 L 8.48808,8.14664 L 8.43115,8.20865 L 8.37563,8.27383 L 8.32289,8.34315 L 8.27437,8.41762 L 8.23003,8.49719
 L 8.1899,8.58191 L 8.1899,8.77136 L 9.58182,8.77136 z
M -17.8088,6.66933 L -18.0833,6.66933 L -18.052,7.33023 L -17.8417,7.33023 z
M -23.6777,6.66933 L -23.9521,6.66933 L -23.9208,7.33023 L -23.7105,7.33023 z
M 35.3146,6.90207 L 36.0366,6.90207 L 36.0366,6.66933 L 34.309,6.66933 L 34.309,6.90207 L 35.0311,6.90207
 L 35.0311,8.77136 L 35.3146,8.77136 z
M 0.228287,8.29546 L 0.523682,8.29546 L 0.523682,8.0836 L 0.228287,8.0836 L 0.228287,6.66933 L -0.0536804,6.66933
 L -1.01593,8.08659 L -1.01593,8.29546 L -0.0253143,8.29546 L -0.0253143,8.77136 L 0.228287,8.77136 z
M -0.76828,8.0836 L -0.744415,8.05377 L -0.663849,7.94339 L -0.12529,7.14972 L -0.114365,7.13293 L -0.101028,7.11092
 L -0.0852814,7.08369 L -0.0670929,7.05124 L -0.049942,7.02002 L -0.037262,6.99643 L -0.0290527,6.98048 L -0.0253143,6.97218
 L -0.0253143,8.0836 z
M -23.1272,6.66933 L -23.4016,6.66933 L -23.3718,7.33023 L -23.16,7.33023 z
M 63.8506,8.53864 L 62.7884,8.53864 L 62.7884,6.66933 L 62.5034,6.66933 L 62.5034,8.77136 L 63.8506,8.77136
 z
M -17.2583,6.66933 L -17.5328,6.66933 L -17.503,7.33023 L -17.2912,7.33023 z
M -11.5283,8.29546 L -11.2329,8.29546 L -11.2329,8.0836 L -11.5283,8.0836 L -11.5283,6.66933 L -11.8102,6.66933
 L -12.7725,8.08659 L -12.7725,8.29546 L -11.7819,8.29546 L -11.7819,8.77136 L -11.5283,8.77136 z
M -12.5249,8.0836 L -12.501,8.05377 L -12.4204,7.94339 L -11.8819,7.14972 L -11.8709,7.13293 L -11.8576,7.11092
 L -11.8418,7.08369 L -11.8237,7.05124 L -11.8065,7.02002 L -11.7938,6.99643 L -11.7856,6.98048 L -11.7819,6.97218
 L -11.7819,8.0836 z
M -10.7788,6.66933 L -11.0533,6.66933 L -11.022,7.33023 L -10.8116,7.33023 z
M -26.0866,8.29546 L -25.7912,8.29546 L -25.7912,8.0836 L -26.0866,8.0836 L -26.0866,6.66933 L -26.3686,6.66933
 L -27.3309,8.08659 L -27.3309,8.29546 L -26.3403,8.29546 L -26.3403,8.77136 L -26.0866,8.77136 z
M -27.0832,8.0836 L -27.0594,8.05377 L -26.9788,7.94339 L -26.4402,7.14972 L -26.4293,7.13293 L -26.416,7.11092
 L -26.4002,7.08369 L -26.382,7.05124 L -26.3649,7.02002 L -26.3522,6.99643 L -26.344,6.98048 L -26.3403,6.97218
 L -26.3403,8.0836 z
M 4.44453,8.54312 L 3.93283,8.54312 L 3.93283,6.66933 L 3.68518,6.66933 L 3.18837,7.01097 L 3.18837,7.26459
 L 3.66278,6.92593 L 3.66278,8.54312 L 3.12721,8.54312 L 3.12721,8.77136 L 4.44453,8.77136 z
M -10.2283,6.66933 L -10.5028,6.66933 L -10.473,7.33023 L -10.2611,7.33023 z
M 54.1873,6.66933 L 53.9128,6.66933 L 53.9426,7.33023 L 54.1544,7.33023 z
M 6.69737,8.29546 L 6.99277,8.29546 L 6.99277,8.0836 L 6.69737,8.0836 L 6.69737,6.66933 L 6.41541,6.66933
 L 5.45314,8.08659 L 5.45314,8.29546 L 6.44376,8.29546 L 6.44376,8.77136 L 6.69737,8.77136 z
M 5.70081,8.0836 L 5.72467,8.05377 L 5.80524,7.94339 L 6.3438,7.14972 L 6.35471,7.13293 L 6.36804,7.11092
 L 6.3838,7.08369 L 6.40199,7.05124 L 6.41914,7.02002 L 6.43182,6.99643 L 6.44003,6.98048 L 6.44376,6.97218
 L 6.44376,8.0836 z
M 53.6367,6.66933 L 53.3623,6.66933 L 53.3936,7.33023 L 53.6039,7.33023 z
M 57.2367,8.793 L 57.305,8.78629 L 57.3725,8.77509 L 57.4392,8.75941 L 57.4392,8.561 L 57.3915,8.57014
 L 57.3497,8.57668 L 57.3139,8.5806 L 57.2841,8.58191 L 57.2406,8.57896 L 57.2041,8.57016 L 57.1745,8.55547
 L 57.152,8.53491 L 57.1354,8.50708 L 57.1235,8.47057 L 57.1164,8.4254 L 57.114,8.37154 L 57.114,7.3526
 L 57.4124,7.3526 L 57.4124,7.15718 L 57.114,7.15718 L 57.114,6.79613 L 56.935,6.79613 L 56.8559,7.15718
 L 56.659,7.15718 L 56.659,7.3526 L 56.8455,7.3526 L 56.8455,8.42973 L 56.8656,8.58965 L 56.926,8.70386
 L 57.0267,8.7724 L 57.1677,8.79524 z
M 40.8352,8.793 L 40.9034,8.78629 L 40.9709,8.77509 L 41.0377,8.75941 L 41.0377,8.561 L 40.99,8.57014
 L 40.9482,8.57668 L 40.9124,8.5806 L 40.8826,8.58191 L 40.8391,8.57896 L 40.8026,8.57016 L 40.773,8.55547
 L 40.7505,8.53491 L 40.7339,8.50708 L 40.722,8.47057 L 40.7149,8.4254 L 40.7125,8.37154 L 40.7125,7.3526
 L 41.0109,7.3526 L 41.0109,7.15718 L 40.7125,7.15718 L 40.7125,6.79613 L 40.5335,6.79613 L 40.4544,7.15718
 L 40.2574,7.15718 L 40.2574,7.3526 L 40.444,7.3526 L 40.444,8.42973 L 40.4641,8.58965 L 40.5245,8.70386
 L 40.6252,8.7724 L 40.7662,8.79524 z
M -28.4351,8.793 L -28.3668,8.78629 L -28.2993,8.77509 L -28.2326,8.75941 L -28.2326,8.561 L -28.2803,8.57014
 L -28.3221,8.57668 L -28.3579,8.5806 L -28.3877,8.58191 L -28.4312,8.57896 L -28.4677,8.57016 L -28.4972,8.55547
 L -28.5198,8.53491 L -28.5364,8.50708 L -28.5483,8.47057 L -28.5554,8.4254 L -28.5578,8.37154 L -28.5578,7.3526
 L -28.2594,7.3526 L -28.2594,7.15718 L -28.5578,7.15718 L -28.5578,6.79613 L -28.7368,6.79613 L -28.8159,7.15718
 L -29.0128,7.15718 L -29.0128,7.3526 L -28.8263,7.3526 L -28.8263,8.42973 L -28.8062,8.58965 L -28.7458,8.70386
 L -28.6451,8.7724 L -28.5041,8.79524 z
M 44.3623,7.86432 L 44.9949,7.86432 L 44.9949,7.6465 L 44.3623,7.6465 L 44.3623,7.008 L 44.143,7.008
 L 44.143,7.6465 L 43.5105,7.6465 L 43.5105,7.86432 L 44.143,7.86432 L 44.143,8.50284 L 44.3623,8.50284
 z
M -2.65662,7.86432 L -2.02405,7.86432 L -2.02405,7.6465 L -2.65662,7.6465 L -2.65662,7.008 L -2.87592,7.008
 L -2.87592,7.6465 L -3.50848,7.6465 L -3.50848,7.86432 L -2.87592,7.86432 L -2.87592,8.50284 L -2.65662,8.50284
 z
M -31.2822,8.77733 L -31.0947,8.70572 L -30.9533,8.58636 L -30.8579,8.41928 L -31.0936,8.35216 L -31.1165,8.40353
 L -31.1479,8.45024 L -31.1877,8.49229 L -31.2361,8.52969 L -31.293,8.56038 L -31.3586,8.58228 L -31.4329,8.59543
 L -31.5158,8.59981 L -31.6196,8.59039 L -31.7101,8.56215 L -31.7874,8.51506 L -31.8515,8.44913 L -31.9017,8.36586
 L -31.9376,8.26674 L -31.9592,8.15176 L -31.9664,8.02095 L -30.8146,8.02095 L -30.8146,7.98517 L -30.8591,7.60986
 L -30.9925,7.3418 L -31.2149,7.18095 L -31.5262,7.12735 L -31.69,7.14067 L -31.8338,7.18068 L -31.9574,7.24734
 L -32.0611,7.34068 L -32.143,7.459 L -32.2015,7.60063 L -32.2366,7.76558 L -32.2483,7.95384 L -32.2366,8.15121
 L -32.2015,8.32269 L -32.143,8.46823 L -32.0611,8.58786 L -31.9568,8.6812 L -31.8311,8.74786 L -31.6841,8.78787
 L -31.5158,8.80119 z
M -31.9634,7.81509 L -31.9523,7.70706 L -31.9281,7.61127 L -31.8908,7.52768 L -31.8403,7.45631 L -31.7781,7.3992
 L -31.7058,7.3584 L -31.6234,7.33392 L -31.5307,7.32576 L -31.4359,7.33308 L -31.3528,7.35504 L -31.2815,7.39163
 L -31.2219,7.44287 L -31.1735,7.51004 L -31.1358,7.59448 L -31.1086,7.69615 L -31.0921,7.81509 z
M 31.4061,7.92998 L 31.4116,7.80348 L 31.4281,7.69257 L 31.4556,7.59723 L 31.4941,7.51747 L 31.5431,7.45448
 L 31.6019,7.4095 L 31.6707,7.38251 L 31.7493,7.3735 L 31.7918,7.37444 L 31.8298,7.37723 L 31.8634,7.3819
 L 31.8925,7.38841 L 31.8925,7.14226 L 31.865,7.13574 L 31.8376,7.13107 L 31.8105,7.12828 L 31.7836,7.12735
 L 31.7117,7.1321 L 31.6485,7.14636 L 31.5939,7.17014 L 31.5478,7.20341 L 31.5073,7.24966 L 31.4691,7.31232
 L 31.4334,7.39139 L 31.4001,7.48686 L 31.3942,7.48686 L 31.3934,7.44556 L 31.3912,7.37685 L 31.3875,7.28072
 L 31.3822,7.15718 L 31.1286,7.15718 L 31.1325,7.25787 L 31.1353,7.35411 L 31.137,7.44586 L 31.1376,7.53314
 L 31.1376,8.77136 L 31.4061,8.77136 z
M -33.5853,8.79253 L -33.4738,8.76651 L -33.3735,8.72316 L -33.2843,8.66246 L -33.2093,8.58722 L -33.1512,8.50021
 L -33.1101,8.40147 L -33.0859,8.29097 L -33.3574,8.27309 L -33.3732,8.34842 L -33.3983,8.41331 L -33.4325,8.46777
 L -33.476,8.5118 L -33.5271,8.54573 L -33.584,8.56996 L -33.6468,8.58452 L -33.7155,8.58936 L -33.8112,8.57967
 L -33.8941,8.55058 L -33.9642,8.50209 L -34.0213,8.43422 L -34.0657,8.34619 L -34.0974,8.23727 L -34.1164,8.10748
 L -34.1228,7.95682 L -34.1168,7.8011 L -34.0989,7.66963 L -34.0691,7.56241 L -34.0273,7.47943 L -33.9722,7.41742
 L -33.9023,7.37312 L -33.8178,7.34654 L -33.7185,7.33769 L -33.6446,7.34262 L -33.5797,7.35745 L -33.5238,7.38216
 L -33.4768,7.41675 L -33.4383,7.45973 L -33.4078,7.50963 L -33.3853,7.56641 L -33.3708,7.63008 L -33.0949,7.60921
 L -33.1234,7.50264 L -33.167,7.40817 L -33.2259,7.32585 L -33.3,7.25565 L -33.3869,7.19951 L -33.4844,7.15942
 L -33.5924,7.13536 L -33.711,7.12735 L -33.8684,7.14073 L -34.0064,7.18086 L -34.125,7.24777 L -34.2242,7.34143
 L -34.3025,7.46054 L -34.3585,7.60381 L -34.392,7.77122 L -34.4032,7.9628 L -34.3921,8.15564 L -34.3587,8.32399
 L -34.3029,8.46782 L -34.225,8.58711 L -34.1258,8.68077 L -34.0066,8.74768 L -33.8673,8.78783 L -33.708,8.80119
 z
M 71.6433,8.77733 L 71.8309,8.70572 L 71.9723,8.58636 L 72.0677,8.41928 L 71.832,8.35216 L 71.8091,8.40353
 L 71.7777,8.45024 L 71.7378,8.49229 L 71.6895,8.52969 L 71.6326,8.56038 L 71.567,8.58228 L 71.4927,8.59543
 L 71.4098,8.59981 L 71.306,8.59039 L 71.2155,8.56215 L 71.1382,8.51506 L 71.0741,8.44913 L 71.0238,8.36586
 L 70.9879,8.26674 L 70.9664,8.15176 L 70.9592,8.02095 L 72.111,8.02095 L 72.111,7.98517 L 72.0665,7.60986
 L 71.9331,7.3418 L 71.7107,7.18095 L 71.3993,7.12735 L 71.2355,7.14067 L 71.0918,7.18068 L 70.9681,7.24734
 L 70.8645,7.34068 L 70.7826,7.459 L 70.7241,7.60063 L 70.689,7.76558 L 70.6773,7.95384 L 70.689,8.15121
 L 70.7241,8.32269 L 70.7826,8.46823 L 70.8645,8.58786 L 70.9688,8.6812 L 71.0944,8.74786 L 71.2414,8.78787
 L 71.4098,8.80119 z
M 70.9622,7.81509 L 70.9733,7.70706 L 70.9975,7.61127 L 71.0348,7.52768 L 71.0853,7.45631 L 71.1474,7.3992
 L 71.2197,7.3584 L 71.3022,7.33392 L 71.3949,7.32576 L 71.4897,7.33308 L 71.5728,7.35504 L 71.6441,7.39163
 L 71.7037,7.44287 L 71.7521,7.51004 L 71.7898,7.59448 L 71.817,7.69615 L 71.8335,7.81509 z
M 22.616,7.83598 L 22.6222,7.72336 L 22.641,7.62415 L 22.6722,7.53836 L 22.7159,7.46602 L 22.7704,7.40857
 L 22.8338,7.36754 L 22.9061,7.34293 L 22.9874,7.33472 L 23.0645,7.34032 L 23.1288,7.3571 L 23.1802,7.38507
 L 23.2187,7.42424 L 23.2467,7.47803 L 23.2668,7.54991 L 23.2788,7.63989 L 23.2828,7.74797 L 23.2828,8.77136
 L 23.5484,8.77136 L 23.5484,7.83598 L 23.5545,7.72275 L 23.5728,7.62321 L 23.6033,7.53738 L 23.6461,7.46527
 L 23.6999,7.40816 L 23.7634,7.36736 L 23.8367,7.34288 L 23.9199,7.33472 L 23.997,7.34032 L 24.0612,7.3571
 L 24.1126,7.38507 L 24.1511,7.42424 L 24.1792,7.47803 L 24.1992,7.54991 L 24.2112,7.63989 L 24.2153,7.74797
 L 24.2153,8.77136 L 24.4808,8.77136 L 24.4808,7.69574 L 24.4738,7.55495 L 24.453,7.43541 L 24.4183,7.33713
 L 24.3697,7.26012 L 24.3057,7.20203 L 24.2251,7.16054 L 24.1278,7.13564 L 24.0138,7.12735 L 23.9327,7.13182
 L 23.8578,7.14525 L 23.7891,7.16762 L 23.7267,7.19896 L 23.6696,7.24045 L 23.6168,7.29332 L 23.5685,7.35756
 L 23.5245,7.43317 L 23.52,7.43317 L 23.4951,7.35876 L 23.462,7.29517 L 23.4209,7.2424 L 23.3716,7.20045
 L 23.3134,7.16847 L 23.2457,7.14561 L 23.1684,7.13191 L 23.0814,7.12735 L 23.0039,7.13155 L 22.9326,7.14413
 L 22.8674,7.16512 L 22.8084,7.19449 L 22.7541,7.23457 L 22.7029,7.28772 L 22.6548,7.35391 L 22.61,7.43317
 L 22.6055,7.43317 L 22.6041,7.37895 L 22.6027,7.33415 L 22.6015,7.29877 L 22.6003,7.27281 L 22.5974,7.21448
 L 22.5966,7.19746 L 22.5958,7.18263 L 22.5951,7.17097 L 22.5943,7.16249 L 22.5936,7.15718 L 22.34,7.15718
 L 22.3439,7.20221 L 22.3467,7.27466 L 22.3484,7.37453 L 22.3489,7.5018 L 22.3489,8.77136 L 22.616,8.77136
 z
M -35.9257,8.77733 L -35.7382,8.70572 L -35.5968,8.58636 L -35.5014,8.41928 L -35.7371,8.35216 L -35.76,8.40353
 L -35.7914,8.45024 L -35.8312,8.49229 L -35.8796,8.52969 L -35.9365,8.56038 L -36.0021,8.58228 L -36.0763,8.59543
 L -36.1593,8.59981 L -36.2631,8.59039 L -36.3536,8.56215 L -36.4309,8.51506 L -36.495,8.44913 L -36.5452,8.36586
 L -36.5811,8.26674 L -36.6027,8.15176 L -36.6098,8.02095 L -35.4581,8.02095 L -35.4581,7.98517 L -35.5026,7.60986
 L -35.636,7.3418 L -35.8584,7.18095 L -36.1697,7.12735 L -36.3335,7.14067 L -36.4772,7.18068 L -36.6009,7.24734
 L -36.7046,7.34068 L -36.7865,7.459 L -36.845,7.60063 L -36.8801,7.76558 L -36.8918,7.95384 L -36.8801,8.15121
 L -36.845,8.32269 L -36.7865,8.46823 L -36.7046,8.58786 L -36.6003,8.6812 L -36.4746,8.74786 L -36.3276,8.78787
 L -36.1593,8.80119 z
M -36.6068,7.81509 L -36.5958,7.70706 L -36.5716,7.61127 L -36.5343,7.52768 L -36.4838,7.45631 L -36.4216,7.3992
 L -36.3493,7.3584 L -36.2668,7.33392 L -36.1742,7.32576 L -36.0794,7.33308 L -35.9963,7.35504 L -35.925,7.39163
 L -35.8654,7.44287 L -35.817,7.51004 L -35.7792,7.59448 L -35.7521,7.69615 L -35.7356,7.81509 z
M 60.1972,8.77733 L 60.3847,8.70572 L 60.5261,8.58636 L 60.6215,8.41928 L 60.3858,8.35216 L 60.3629,8.40353
 L 60.3315,8.45024 L 60.2917,8.49229 L 60.2433,8.52969 L 60.1864,8.56038 L 60.1208,8.58228 L 60.0465,8.59543
 L 59.9636,8.59981 L 59.8598,8.59039 L 59.7693,8.56215 L 59.692,8.51506 L 59.6279,8.44913 L 59.5776,8.36586
 L 59.5417,8.26674 L 59.5202,8.15176 L 59.513,8.02095 L 60.6648,8.02095 L 60.6648,7.98517 L 60.6203,7.60986
 L 60.4869,7.3418 L 60.2645,7.18095 L 59.9531,7.12735 L 59.7894,7.14067 L 59.6456,7.18068 L 59.5219,7.24734
 L 59.4183,7.34068 L 59.3364,7.459 L 59.2779,7.60063 L 59.2428,7.76558 L 59.2311,7.95384 L 59.2428,8.15121
 L 59.2779,8.32269 L 59.3364,8.46823 L 59.4183,8.58786 L 59.5226,8.6812 L 59.6482,8.74786 L 59.7952,8.78787
 L 59.9636,8.80119 z
M 59.516,7.81509 L 59.5271,7.70706 L 59.5513,7.61127 L 59.5886,7.52768 L 59.6391,7.45631 L 59.7012,7.3992
 L 59.7736,7.3584 L 59.856,7.33392 L 59.9487,7.32576 L 60.0435,7.33308 L 60.1266,7.35504 L 60.1979,7.39163
 L 60.2575,7.44287 L 60.3059,7.51004 L 60.3436,7.59448 L 60.3708,7.69615 L 60.3873,7.81509 z
M -39.4614,8.7964 L -39.3747,8.782 L -39.2954,8.75798 L -39.2235,8.72438 L -39.1573,8.6792 L -39.0954,8.62051
 L -39.0376,8.54829 L -38.9841,8.46255 L -38.9751,8.46255 L -38.967,8.54056 L -38.9514,8.60745 L -38.9285,8.66325
 L -38.8983,8.70796 L -38.8593,8.74223 L -38.8101,8.76671 L -38.7507,8.78139 L -38.6812,8.78629 L -38.6285,8.78479
 L -38.5764,8.78032 L -38.5249,8.77286 L -38.4738,8.76242 L -38.4738,8.59532 L -38.4978,8.5999 L -38.5205,8.60316
 L -38.5418,8.60512 L -38.5618,8.60577 L -38.6023,8.60201 L -38.6357,8.59067 L -38.662,8.57179 L -38.6812,8.54536
 L -38.6949,8.51146 L -38.7047,8.4702 L -38.7106,8.42157 L -38.7126,8.36557 L -38.7126,7.67036 L -38.7222,7.54613
 L -38.751,7.43747 L -38.799,7.34438 L -38.8662,7.26685 L -38.9525,7.20581 L -39.0575,7.16222 L -39.1815,7.13606
 L -39.3242,7.12735 L -39.5817,7.15457 L -39.7755,7.23625 L -39.9055,7.37238 L -39.9717,7.56297 L -39.6912,7.58833
 L -39.6789,7.52577 L -39.6584,7.47234 L -39.6297,7.42805 L -39.5927,7.39291 L -39.5456,7.36613 L -39.4861,7.34702
 L -39.4143,7.33556 L -39.3302,7.33173 L -39.2466,7.33704 L -39.175,7.35298 L -39.1153,7.37956 L -39.0676,7.41678
 L -39.0311,7.46628 L -39.0049,7.52979 L -38.9893,7.60725 L -38.9841,7.69873 L -38.9841,7.78674 L -39.3466,7.79271
 L -39.5175,7.80502 L -39.6631,7.83299 L -39.7834,7.87663 L -39.8784,7.93593 L -39.9506,8.01033 L -40.0021,8.09927
 L -40.033,8.20277 L -40.0433,8.32083 L -40.0356,8.42674 L -40.0127,8.52072 L -39.9745,8.60278 L -39.921,8.6729
 L -39.8522,8.72903 L -39.7684,8.76912 L -39.6695,8.79318 L -39.5555,8.80119 z
M -39.5562,8.59534 L -39.6105,8.58191 L -39.6572,8.55952 L -39.6964,8.5282 L -39.7274,8.48866 L -39.7496,8.44167
 L -39.7629,8.38721 L -39.7673,8.3253 L -39.764,8.26776 L -39.7542,8.21602 L -39.7379,8.17004 L -39.7151,8.12987
 L -39.6861,8.095 L -39.6515,8.06497 L -39.6112,8.03979 L -39.5652,8.01947 L -39.5106,8.00362 L -39.4445,7.99188
 L -39.367,7.98422 L -39.278,7.98068 L -38.9841,7.97472 L -38.9841,8.10747 L -38.9882,8.16898 L -39.0007,8.22963
 L -39.0214,8.28944 L -39.0504,8.34842 L -39.0867,8.40385 L -39.129,8.45303 L -39.1773,8.49597 L -39.2317,8.53267
 L -39.2912,8.56204 L -39.3548,8.58302 L -39.4225,8.59561 L -39.4943,8.59981 z
M 76.4009,8.7964 L 76.4876,8.782 L 76.5669,8.75798 L 76.6388,8.72438 L 76.705,8.6792 L 76.7669,8.62051
 L 76.8247,8.54829 L 76.8783,8.46255 L 76.8872,8.46255 L 76.8953,8.54056 L 76.9109,8.60745 L 76.9338,8.66325
 L 76.964,8.70796 L 77.003,8.74223 L 77.0522,8.76671 L 77.1116,8.78139 L 77.1811,8.78629 L 77.2338,8.78479
 L 77.2859,8.78032 L 77.3374,8.77286 L 77.3885,8.76242 L 77.3885,8.59532 L 77.3645,8.5999 L 77.3418,8.60316
 L 77.3205,8.60512 L 77.3005,8.60577 L 77.26,8.60201 L 77.2266,8.59067 L 77.2003,8.57179 L 77.1811,8.54536
 L 77.1674,8.51146 L 77.1576,8.4702 L 77.1517,8.42157 L 77.1497,8.36557 L 77.1497,7.67036 L 77.1402,7.54613
 L 77.1113,7.43747 L 77.0633,7.34438 L 76.9961,7.26685 L 76.9098,7.20581 L 76.8048,7.16222 L 76.6808,7.13606
 L 76.5381,7.12735 L 76.2805,7.15457 L 76.0868,7.23625 L 75.9568,7.37238 L 75.8906,7.56297 L 76.1711,7.58833
 L 76.1834,7.52577 L 76.2039,7.47234 L 76.2326,7.42805 L 76.2696,7.39291 L 76.3167,7.36613 L 76.3762,7.34702
 L 76.448,7.33556 L 76.5321,7.33173 L 76.6157,7.33704 L 76.6873,7.35298 L 76.747,7.37956 L 76.7947,7.41678
 L 76.8313,7.46628 L 76.8574,7.52979 L 76.873,7.60725 L 76.8783,7.69873 L 76.8783,7.78674 L 76.5157,7.79271
 L 76.3448,7.80502 L 76.1992,7.83299 L 76.0789,7.87663 L 75.9839,7.93593 L 75.9117,8.01033 L 75.8602,8.09927
 L 75.8293,8.20277 L 75.819,8.32083 L 75.8267,8.42674 L 75.8496,8.52072 L 75.8878,8.60278 L 75.9413,8.6729
 L 76.0101,8.72903 L 76.0939,8.76912 L 76.1928,8.79318 L 76.3068,8.80119 z
M 76.3062,8.59534 L 76.2518,8.58191 L 76.2051,8.55952 L 76.1659,8.5282 L 76.1349,8.48866 L 76.1127,8.44167
 L 76.0994,8.38721 L 76.095,8.3253 L 76.0983,8.26776 L 76.1081,8.21602 L 76.1244,8.17004 L 76.1472,8.12987
 L 76.1762,8.095 L 76.2108,8.06497 L 76.2511,8.03979 L 76.2971,8.01947 L 76.3517,8.00362 L 76.4178,7.99188
 L 76.4953,7.98422 L 76.5844,7.98068 L 76.8783,7.97472 L 76.8783,8.10747 L 76.8741,8.16898 L 76.8616,8.22963
 L 76.8409,8.28944 L 76.8119,8.34842 L 76.7756,8.40385 L 76.7333,8.45303 L 76.685,8.49597 L 76.6306,8.53267
 L 76.5711,8.56204 L 76.5075,8.58302 L 76.4398,8.59561 L 76.368,8.59981 z
M -30.0069,8.7964 L -29.9202,8.782 L -29.8409,8.75798 L -29.769,8.72438 L -29.7029,8.6792 L -29.6409,8.62051
 L -29.5831,8.54829 L -29.5296,8.46255 L -29.5206,8.46255 L -29.5125,8.54056 L -29.4969,8.60745 L -29.474,8.66325
 L -29.4438,8.70796 L -29.4048,8.74223 L -29.3556,8.76671 L -29.2962,8.78139 L -29.2267,8.78629 L -29.174,8.78479
 L -29.1219,8.78032 L -29.0703,8.77286 L -29.0193,8.76242 L -29.0193,8.59532 L -29.0433,8.5999 L -29.066,8.60316
 L -29.0873,8.60512 L -29.1073,8.60577 L -29.1478,8.60201 L -29.1812,8.59067 L -29.2075,8.57179 L -29.2267,8.54536
 L -29.2404,8.51146 L -29.2502,8.4702 L -29.2561,8.42157 L -29.2581,8.36557 L -29.2581,7.67036 L -29.2677,7.54613
 L -29.2965,7.43747 L -29.3445,7.34438 L -29.4117,7.26685 L -29.498,7.20581 L -29.603,7.16222 L -29.727,7.13606
 L -29.8697,7.12735 L -30.1272,7.15457 L -30.321,7.23625 L -30.451,7.37238 L -30.5172,7.56297 L -30.2367,7.58833
 L -30.2244,7.52577 L -30.2039,7.47234 L -30.1752,7.42805 L -30.1382,7.39291 L -30.0911,7.36613 L -30.0316,7.34702
 L -29.9598,7.33556 L -29.8757,7.33173 L -29.7921,7.33704 L -29.7205,7.35298 L -29.6608,7.37956 L -29.6131,7.41678
 L -29.5766,7.46628 L -29.5504,7.52979 L -29.5348,7.60725 L -29.5296,7.69873 L -29.5296,7.78674 L -29.8921,7.79271
 L -30.063,7.80502 L -30.2086,7.83299 L -30.3289,7.87663 L -30.4239,7.93593 L -30.4961,8.01033 L -30.5476,8.09927
 L -30.5785,8.20277 L -30.5888,8.32083 L -30.5811,8.42674 L -30.5582,8.52072 L -30.52,8.60278 L -30.4665,8.6729
 L -30.3978,8.72903 L -30.3139,8.76912 L -30.215,8.79318 L -30.101,8.80119 z
M -30.1017,8.59534 L -30.156,8.58191 L -30.2027,8.55952 L -30.2419,8.5282 L -30.2729,8.48866 L -30.2951,8.44167
 L -30.3084,8.38721 L -30.3128,8.3253 L -30.3095,8.26776 L -30.2997,8.21602 L -30.2834,8.17004 L -30.2606,8.12987
 L -30.2316,8.095 L -30.197,8.06497 L -30.1567,8.03979 L -30.1107,8.01947 L -30.0561,8.00362 L -29.99,7.99188
 L -29.9125,7.98422 L -29.8235,7.98068 L -29.5296,7.97472 L -29.5296,8.10747 L -29.5337,8.16898 L -29.5462,8.22963
 L -29.5669,8.28944 L -29.5959,8.34842 L -29.6322,8.40385 L -29.6745,8.45303 L -29.7228,8.49597 L -29.7772,8.53267
 L -29.8367,8.56204 L -29.9003,8.58302 L -29.968,8.59561 L -30.0398,8.59981 z
M 79.9366,8.77733 L 80.1241,8.70572 L 80.2655,8.58636 L 80.3609,8.41928 L 80.1252,8.35216 L 80.1023,8.40353
 L 80.071,8.45024 L 80.0311,8.49229 L 79.9827,8.52969 L 79.9258,8.56038 L 79.8602,8.58228 L 79.786,8.59543
 L 79.703,8.59981 L 79.5992,8.59039 L 79.5087,8.56215 L 79.4314,8.51506 L 79.3673,8.44913 L 79.3171,8.36586
 L 79.2812,8.26674 L 79.2596,8.15176 L 79.2525,8.02095 L 80.4042,8.02095 L 80.4042,7.98517 L 80.3597,7.60986
 L 80.2263,7.3418 L 80.0039,7.18095 L 79.6926,7.12735 L 79.5288,7.14067 L 79.3851,7.18068 L 79.2614,7.24734
 L 79.1577,7.34068 L 79.0758,7.459 L 79.0173,7.60063 L 78.9822,7.76558 L 78.9705,7.95384 L 78.9822,8.15121
 L 79.0173,8.32269 L 79.0758,8.46823 L 79.1577,8.58786 L 79.262,8.6812 L 79.3877,8.74786 L 79.5347,8.78787
 L 79.703,8.80119 z
M 79.2555,7.81509 L 79.2665,7.70706 L 79.2907,7.61127 L 79.328,7.52768 L 79.3785,7.45631 L 79.4407,7.3992
 L 79.513,7.3584 L 79.5955,7.33392 L 79.6881,7.32576 L 79.7829,7.33308 L 79.866,7.35504 L 79.9373,7.39163
 L 79.9969,7.44287 L 80.0453,7.51004 L 80.0831,7.59448 L 80.1102,7.69615 L 80.1267,7.81509 z
M 30.3621,8.77733 L 30.5496,8.70572 L 30.691,8.58636 L 30.7864,8.41928 L 30.5507,8.35216 L 30.5278,8.40353
 L 30.4964,8.45024 L 30.4566,8.49229 L 30.4082,8.52969 L 30.3513,8.56038 L 30.2857,8.58228 L 30.2115,8.59543
 L 30.1285,8.59981 L 30.0247,8.59039 L 29.9342,8.56215 L 29.8569,8.51506 L 29.7928,8.44913 L 29.7426,8.36586
 L 29.7067,8.26674 L 29.6851,8.15176 L 29.678,8.02095 L 30.8297,8.02095 L 30.8297,7.98517 L 30.7852,7.60986
 L 30.6518,7.3418 L 30.4294,7.18095 L 30.1181,7.12735 L 29.9543,7.14067 L 29.8106,7.18068 L 29.6869,7.24734
 L 29.5832,7.34068 L 29.5013,7.459 L 29.4428,7.60063 L 29.4077,7.76558 L 29.396,7.95384 L 29.4077,8.15121
 L 29.4428,8.32269 L 29.5013,8.46823 L 29.5832,8.58786 L 29.6875,8.6812 L 29.8132,8.74786 L 29.9602,8.78787
 L 30.1285,8.80119 z
M 29.681,7.81509 L 29.692,7.70706 L 29.7162,7.61127 L 29.7535,7.52768 L 29.804,7.45631 L 29.8662,7.3992
 L 29.9385,7.3584 L 30.021,7.33392 L 30.1136,7.32576 L 30.2084,7.33308 L 30.2915,7.35504 L 30.3628,7.39163
 L 30.4224,7.44287 L 30.4708,7.51004 L 30.5086,7.59448 L 30.5357,7.69615 L 30.5522,7.81509 z
M 78.2964,8.79253 L 78.408,8.76651 L 78.5083,8.72316 L 78.5974,8.66246 L 78.6725,8.58722 L 78.7306,8.50021
 L 78.7717,8.40147 L 78.7959,8.29097 L 78.5243,8.27309 L 78.5085,8.34842 L 78.4835,8.41331 L 78.4492,8.46777
 L 78.4057,8.5118 L 78.3547,8.54573 L 78.2977,8.56996 L 78.235,8.58452 L 78.1663,8.58936 L 78.0705,8.57967
 L 77.9876,8.55058 L 77.9176,8.50209 L 77.8604,8.43422 L 77.8161,8.34619 L 77.7843,8.23727 L 77.7653,8.10748
 L 77.759,7.95682 L 77.765,7.8011 L 77.7829,7.66963 L 77.8127,7.56241 L 77.8545,7.47943 L 77.9096,7.41742
 L 77.9794,7.37312 L 78.064,7.34654 L 78.1633,7.33769 L 78.2372,7.34262 L 78.302,7.35745 L 78.358,7.38216
 L 78.405,7.41675 L 78.4435,7.45973 L 78.474,7.50963 L 78.4965,7.56641 L 78.5109,7.63008 L 78.7869,7.60921
 L 78.7584,7.50264 L 78.7147,7.40817 L 78.6559,7.32585 L 78.5818,7.25565 L 78.4948,7.19951 L 78.3973,7.15942
 L 78.2893,7.13536 L 78.1708,7.12735 L 78.0134,7.14073 L 77.8754,7.18086 L 77.7568,7.24777 L 77.6575,7.34143
 L 77.5792,7.46054 L 77.5233,7.60381 L 77.4897,7.77122 L 77.4785,7.9628 L 77.4897,8.15564 L 77.5231,8.32399
 L 77.5788,8.46782 L 77.6568,8.58711 L 77.756,8.68077 L 77.8752,8.74768 L 78.0144,8.78783 L 78.1737,8.80119
 z
M 58.5376,8.77733 L 58.7251,8.70572 L 58.8666,8.58636 L 58.962,8.41928 L 58.7263,8.35216 L 58.7034,8.40353
 L 58.672,8.45024 L 58.6321,8.49229 L 58.5838,8.52969 L 58.5269,8.56038 L 58.4613,8.58228 L 58.387,8.59543
 L 58.3041,8.59981 L 58.2003,8.59039 L 58.1097,8.56215 L 58.0324,8.51506 L 57.9684,8.44913 L 57.9181,8.36586
 L 57.8822,8.26674 L 57.8607,8.15176 L 57.8535,8.02095 L 59.0053,8.02095 L 59.0053,7.98517 L 58.9608,7.60986
 L 58.8273,7.3418 L 58.605,7.18095 L 58.2936,7.12735 L 58.1299,7.14067 L 57.9861,7.18068 L 57.8624,7.24734
 L 57.7588,7.34068 L 57.6769,7.459 L 57.6184,7.60063 L 57.5833,7.76558 L 57.5716,7.95384 L 57.5833,8.15121
 L 57.6184,8.32269 L 57.6769,8.46823 L 57.7588,8.58786 L 57.8631,8.6812 L 57.9887,8.74786 L 58.1357,8.78787
 L 58.3041,8.80119 z
M 57.8565,7.81509 L 57.8676,7.70706 L 57.8918,7.61127 L 57.9291,7.52768 L 57.9796,7.45631 L 58.0417,7.3992
 L 58.114,7.3584 L 58.1965,7.33392 L 58.2892,7.32576 L 58.384,7.33308 L 58.4671,7.35504 L 58.5384,7.39163
 L 58.5979,7.44287 L 58.6463,7.51004 L 58.6841,7.59448 L 58.7112,7.69615 L 58.7278,7.81509 z
M 21.1892,8.7964 L 21.2759,8.782 L 21.3552,8.75798 L 21.4271,8.72438 L 21.4933,8.6792 L 21.5553,8.62051
 L 21.613,8.54829 L 21.6666,8.46255 L 21.6755,8.46255 L 21.6837,8.54056 L 21.6992,8.60745 L 21.7221,8.66325
 L 21.7523,8.70796 L 21.7914,8.74223 L 21.8406,8.76671 L 21.8999,8.78139 L 21.9694,8.78629 L 22.0221,8.78479
 L 22.0742,8.78032 L 22.1258,8.77286 L 22.1768,8.76242 L 22.1768,8.59532 L 22.1528,8.5999 L 22.1302,8.60316
 L 22.1088,8.60512 L 22.0888,8.60577 L 22.0483,8.60201 L 22.0149,8.59067 L 21.9886,8.57179 L 21.9694,8.54536
 L 21.9557,8.51146 L 21.9459,8.4702 L 21.94,8.42157 L 21.9381,8.36557 L 21.9381,7.67036 L 21.9285,7.54613
 L 21.8997,7.43747 L 21.8517,7.34438 L 21.7844,7.26685 L 21.6982,7.20581 L 21.5931,7.16222 L 21.4692,7.13606
 L 21.3264,7.12735 L 21.0689,7.15457 L 20.8751,7.23625 L 20.7452,7.37238 L 20.679,7.56297 L 20.9594,7.58833
 L 20.9717,7.52577 L 20.9922,7.47234 L 21.021,7.42805 L 21.0579,7.39291 L 21.1051,7.36613 L 21.1646,7.34702
 L 21.2364,7.33556 L 21.3205,7.33173 L 21.404,7.33704 L 21.4756,7.35298 L 21.5353,7.37956 L 21.583,7.41678
 L 21.6196,7.46628 L 21.6457,7.52979 L 21.6614,7.60725 L 21.6666,7.69873 L 21.6666,7.78674 L 21.304,7.79271
 L 21.1332,7.80502 L 20.9876,7.83299 L 20.8673,7.87663 L 20.7722,7.93593 L 20.7001,8.01033 L 20.6486,8.09927
 L 20.6177,8.20277 L 20.6074,8.32083 L 20.615,8.42674 L 20.6379,8.52072 L 20.6762,8.60278 L 20.7297,8.6729
 L 20.7984,8.72903 L 20.8822,8.76912 L 20.9812,8.79318 L 21.0952,8.80119 z
M 21.0945,8.59534 L 21.0402,8.58191 L 20.9934,8.55952 L 20.9542,8.5282 L 20.9232,8.48866 L 20.9011,8.44167
 L 20.8878,8.38721 L 20.8833,8.3253 L 20.8866,8.26776 L 20.8964,8.21602 L 20.9127,8.17004 L 20.9355,8.12987
 L 20.9645,8.095 L 20.9991,8.06497 L 21.0395,8.03979 L 21.0855,8.01947 L 21.1401,8.00362 L 21.2061,7.99188
 L 21.2837,7.98422 L 21.3727,7.98068 L 21.6666,7.97472 L 21.6666,8.10747 L 21.6624,8.16898 L 21.65,8.22963
 L 21.6292,8.28944 L 21.6002,8.34842 L 21.564,8.40385 L 21.5217,8.45303 L 21.4733,8.49597 L 21.4189,8.53267
 L 21.3594,8.56204 L 21.2958,8.58302 L 21.2281,8.59561 L 21.1564,8.59981 z
M 27.2106,8.77733 L 27.3981,8.70572 L 27.5396,8.58636 L 27.6349,8.41928 L 27.3992,8.35216 L 27.3763,8.40353
 L 27.3449,8.45024 L 27.3051,8.49229 L 27.2567,8.52969 L 27.1998,8.56038 L 27.1342,8.58228 L 27.06,8.59543
 L 26.977,8.59981 L 26.8732,8.59039 L 26.7827,8.56215 L 26.7054,8.51506 L 26.6413,8.44913 L 26.5911,8.36586
 L 26.5552,8.26674 L 26.5336,8.15176 L 26.5265,8.02095 L 27.6782,8.02095 L 27.6782,7.98517 L 27.6337,7.60986
 L 27.5003,7.3418 L 27.2779,7.18095 L 26.9666,7.12735 L 26.8028,7.14067 L 26.6591,7.18068 L 26.5354,7.24734
 L 26.4317,7.34068 L 26.3498,7.459 L 26.2913,7.60063 L 26.2562,7.76558 L 26.2445,7.95384 L 26.2562,8.15121
 L 26.2913,8.32269 L 26.3498,8.46823 L 26.4317,8.58786 L 26.536,8.6812 L 26.6617,8.74786 L 26.8087,8.78787
 L 26.977,8.80119 z
M 26.5294,7.81509 L 26.5405,7.70706 L 26.5647,7.61127 L 26.602,7.52768 L 26.6525,7.45631 L 26.7147,7.3992
 L 26.787,7.3584 L 26.8695,7.33392 L 26.9621,7.32576 L 27.0569,7.33308 L 27.14,7.35504 L 27.2113,7.39163
 L 27.2709,7.44287 L 27.3193,7.51004 L 27.3571,7.59448 L 27.3842,7.69615 L 27.4007,7.81509 z
M 65.6176,8.7964 L 65.7043,8.782 L 65.7836,8.75798 L 65.8556,8.72438 L 65.9217,8.6792 L 65.9837,8.62051
 L 66.0414,8.54829 L 66.095,8.46255 L 66.1039,8.46255 L 66.1121,8.54056 L 66.1276,8.60745 L 66.1505,8.66325
 L 66.1808,8.70796 L 66.2198,8.74223 L 66.269,8.76671 L 66.3283,8.78139 L 66.3979,8.78629 L 66.4505,8.78479
 L 66.5027,8.78032 L 66.5542,8.77286 L 66.6052,8.76242 L 66.6052,8.59532 L 66.5813,8.5999 L 66.5586,8.60316
 L 66.5372,8.60512 L 66.5172,8.60577 L 66.4767,8.60201 L 66.4434,8.59067 L 66.4171,8.57179 L 66.3978,8.54536
 L 66.3841,8.51146 L 66.3743,8.4702 L 66.3685,8.42157 L 66.3665,8.36557 L 66.3665,7.67036 L 66.3569,7.54613
 L 66.3281,7.43747 L 66.2801,7.34438 L 66.2128,7.26685 L 66.1266,7.20581 L 66.0215,7.16222 L 65.8976,7.13606
 L 65.7548,7.12735 L 65.4973,7.15457 L 65.3036,7.23625 L 65.1736,7.37238 L 65.1074,7.56297 L 65.3878,7.58833
 L 65.4001,7.52577 L 65.4207,7.47234 L 65.4494,7.42805 L 65.4863,7.39291 L 65.5335,7.36613 L 65.593,7.34702
 L 65.6648,7.33556 L 65.7489,7.33173 L 65.8324,7.33704 L 65.904,7.35298 L 65.9637,7.37956 L 66.0114,7.41678
 L 66.048,7.46628 L 66.0741,7.52979 L 66.0898,7.60725 L 66.095,7.69873 L 66.095,7.78674 L 65.7325,7.79271
 L 65.5616,7.80502 L 65.416,7.83299 L 65.2957,7.87663 L 65.2006,7.93593 L 65.1285,8.01033 L 65.077,8.09927
 L 65.0461,8.20277 L 65.0358,8.32083 L 65.0434,8.42674 L 65.0664,8.52072 L 65.1046,8.60278 L 65.1581,8.6729
 L 65.2268,8.72903 L 65.3106,8.76912 L 65.4096,8.79318 L 65.5236,8.80119 z
M 65.5229,8.59534 L 65.4686,8.58191 L 65.4218,8.55952 L 65.3826,8.5282 L 65.3516,8.48866 L 65.3295,8.44167
 L 65.3162,8.38721 L 65.3118,8.3253 L 65.315,8.26776 L 65.3248,8.21602 L 65.3411,8.17004 L 65.364,8.12987
 L 65.3929,8.095 L 65.4276,8.06497 L 65.4679,8.03979 L 65.5139,8.01947 L 65.5685,8.00362 L 65.6346,7.99188
 L 65.7121,7.98422 L 65.8011,7.98068 L 66.095,7.97472 L 66.095,8.10747 L 66.0909,8.16898 L 66.0784,8.22963
 L 66.0577,8.28944 L 66.0286,8.34842 L 65.9924,8.40385 L 65.9501,8.45303 L 65.9017,8.49597 L 65.8473,8.53267
 L 65.7878,8.56204 L 65.7243,8.58302 L 65.6566,8.59561 L 65.5848,8.59981 z
M 37.3726,7.83598 L 37.3796,7.72456 L 37.4005,7.62599 L 37.4355,7.54031 L 37.4845,7.46748 L 37.5455,7.40939
 L 37.6169,7.3679 L 37.6984,7.34302 L 37.7903,7.33472 L 37.8527,7.33714 L 37.907,7.34441 L 37.9534,7.35654
 L 37.9917,7.3735 L 38.0237,7.39597 L 38.051,7.42459 L 38.0736,7.45938 L 38.0916,7.50031 L 38.1053,7.5488
 L 38.1151,7.60623 L 38.121,7.67262 L 38.123,7.74797 L 38.123,8.77136 L 38.393,8.77136 L 38.393,7.69574
 L 38.3853,7.55434 L 38.3622,7.43446 L 38.3238,7.33615 L 38.2699,7.25937 L 38.1995,7.20161 L 38.1112,7.16035
 L 38.0052,7.13559 L 37.8813,7.12735 L 37.7947,7.13168 L 37.7155,7.14468 L 37.6436,7.16637 L 37.5792,7.19672
 L 37.5202,7.2375 L 37.4649,7.29051 L 37.4132,7.35573 L 37.3651,7.43317 L 37.3606,7.43317 L 37.3592,7.37895
 L 37.3578,7.33415 L 37.3566,7.29877 L 37.3554,7.27281 L 37.3543,7.25215 L 37.3525,7.21448 L 37.3517,7.19746
 L 37.3509,7.18263 L 37.3502,7.17097 L 37.3494,7.16249 L 37.3487,7.15718 L 37.0951,7.15718 L 37.099,7.20221
 L 37.1018,7.27466 L 37.1035,7.37453 L 37.104,7.5018 L 37.104,8.77136 L 37.3726,8.77136 z
M 67.0459,7.83598 L 67.0529,7.72456 L 67.0739,7.62599 L 67.1088,7.54031 L 67.1578,7.46748 L 67.2188,7.40939
 L 67.2902,7.3679 L 67.3718,7.34302 L 67.4636,7.33472 L 67.526,7.33714 L 67.5803,7.34441 L 67.6267,7.35654
 L 67.665,7.3735 L 67.697,7.39597 L 67.7243,7.42459 L 67.747,7.45938 L 67.765,7.50031 L 67.7787,7.5488
 L 67.7885,7.60623 L 67.7943,7.67262 L 67.7963,7.74797 L 67.7963,8.77136 L 68.0663,8.77136 L 68.0663,7.69574
 L 68.0586,7.55434 L 68.0355,7.43446 L 67.9971,7.33615 L 67.9432,7.25937 L 67.8728,7.20161 L 67.7845,7.16035
 L 67.6785,7.13559 L 67.5546,7.12735 L 67.468,7.13168 L 67.3888,7.14468 L 67.317,7.16637 L 67.2525,7.19672
 L 67.1935,7.2375 L 67.1382,7.29051 L 67.0865,7.35573 L 67.0384,7.43317 L 67.0339,7.43317 L 67.0325,7.37895
 L 67.0311,7.33415 L 67.0299,7.29877 L 67.0287,7.27281 L 67.0258,7.21448 L 67.025,7.19746 L 67.0242,7.18263
 L 67.0235,7.17097 L 67.0228,7.16249 L 67.022,7.15718 L 66.7684,7.15718 L 66.7723,7.20221 L 66.7751,7.27466
 L 66.7768,7.37453 L 66.7773,7.5018 L 66.7773,8.77136 L 67.0459,8.77136 z
M 75.1759,7.92998 L 75.1814,7.80348 L 75.1979,7.69257 L 75.2254,7.59723 L 75.264,7.51747 L 75.3129,7.45448
 L 75.3717,7.4095 L 75.4405,7.38251 L 75.5191,7.3735 L 75.5616,7.37444 L 75.5996,7.37723 L 75.6332,7.3819
 L 75.6623,7.38841 L 75.6623,7.14226 L 75.6348,7.13574 L 75.6075,7.13107 L 75.5803,7.12828 L 75.5534,7.12735
 L 75.4816,7.1321 L 75.4184,7.14636 L 75.3637,7.17014 L 75.3176,7.20341 L 75.2771,7.24966 L 75.239,7.31232
 L 75.2032,7.39139 L 75.17,7.48686 L 75.164,7.48686 L 75.1632,7.44556 L 75.161,7.37685 L 75.1573,7.28072
 L 75.1521,7.15718 L 74.8985,7.15718 L 74.9024,7.25787 L 74.9052,7.35411 L 74.9068,7.44586 L 74.9074,7.53314
 L 74.9074,8.77136 L 75.1759,8.77136 z
M -8.8204,8.77435 L -8.82079,8.66788 L -8.8219,8.5901 L -8.82376,8.54105 L -8.82637,8.52072 L -8.81891,8.52072
 L -8.73947,8.64343 L -8.62944,8.73108 L -8.48883,8.78368 L -8.31764,8.80119 L -8.05786,8.74843 L -7.87231,8.5901
 L -7.76097,8.32622 L -7.72386,7.95682 L -7.73309,7.75699 L -7.76079,7.58571 L -7.80695,7.44296 L -7.87157,7.32874
 L -7.95483,7.24127 L -8.05693,7.1788 L -8.17787,7.14131 L -8.31764,7.12881 L -8.40921,7.13315 L -8.49146,7.14616
 L -8.56436,7.16785 L -8.62796,7.19821 L -8.68399,7.23788 L -8.73425,7.28752 L -8.77872,7.34715 L -8.81741,7.41675
 L -8.82338,7.41675 L -8.82361,7.3996 L -8.82431,7.37648 L -8.82549,7.3474 L -8.82712,7.31235 L -8.82893,7.27676
 L -8.83066,7.24614 L -8.83229,7.22044 L -8.83383,7.19971 L -8.83524,7.18333 L -8.83644,7.17079 L -8.83746,7.16206
 L -8.8383,7.15718 L -9.0979,7.15718 L -9.09398,7.20799 L -9.09119,7.27988 L -9.08951,7.37283 L -9.08894,7.48686
 L -9.08894,9.40541 L -8.8204,9.40541 z
M -8.49545,8.59337 L -8.5858,8.56511 L -8.66031,8.51802 L -8.71896,8.4521 L -8.76335,8.36632 L -8.79504,8.25966
 L -8.81407,8.1321 L -8.8204,7.98367 L -8.81747,7.87491 L -8.80865,7.77687 L -8.79398,7.68954 L -8.77342,7.61295
 L -8.74721,7.54642 L -8.71559,7.4893 L -8.67857,7.4416 L -8.63615,7.40334 L -8.58669,7.37396 L -8.52855,7.35298
 L -8.46175,7.34039 L -8.38626,7.3362 L -8.29376,7.34523 L -8.21471,7.37238 L -8.14906,7.41759 L -8.09685,7.48091
 L -8.05704,7.56529 L -8.02859,7.67374 L -8.01152,7.80624 L -8.00584,7.9628 L -8.01157,8.12338 L -8.02878,8.25909
 L -8.05745,8.36992 L -8.0976,8.45584 L -8.15024,8.52013 L -8.21638,8.56604 L -8.29605,8.5936 L -8.38925,8.60278
 z
M 41.9491,8.79346 L 42.0784,8.77025 L 42.1904,8.73155 L 42.2852,8.67738 L 42.3606,8.60893 L 42.4144,8.52744
 L 42.4468,8.43289 L 42.4575,8.3253 L 42.4557,8.2803 L 42.4501,8.23784 L 42.4407,8.19789 L 42.4277,8.16045
 L 42.4112,8.12534 L 42.3917,8.09238 L 42.3691,8.06157 L 42.3434,8.0329 L 42.3137,8.00591 L 42.2791,7.98013
 L 42.2395,7.95557 L 42.195,7.93222 L 42.1405,7.90895 L 42.0711,7.88464 L 41.9868,7.85933 L 41.8876,7.83299
 L 41.7847,7.80688 L 41.7012,7.78377 L 41.637,7.76363 L 41.5922,7.74648 L 41.5593,7.72997 L 41.5307,7.71179
 L 41.5063,7.69193 L 41.4863,7.67039 L 41.4706,7.64651 L 41.4595,7.61966 L 41.4527,7.58983 L 41.4505,7.55701
 L 41.4559,7.50461 L 41.4721,7.45929 L 41.4992,7.42105 L 41.537,7.38991 L 41.5863,7.36577 L 41.6474,7.34851
 L 41.7206,7.33817 L 41.8056,7.33472 L 41.8835,7.3383 L 41.9531,7.34908 L 42.0144,7.36703 L 42.0674,7.39217
 L 42.1116,7.424 L 42.1463,7.46208 L 42.1716,7.50642 L 42.1875,7.55701 L 42.4292,7.52715 L 42.4011,7.43056
 L 42.3585,7.34813 L 42.3015,7.27988 L 42.23,7.2258 L 42.1445,7.18468 L 42.0452,7.1553 L 41.9323,7.13768
 L 41.8056,7.13181 L 41.6639,7.13904 L 41.5402,7.16072 L 41.4345,7.19685 L 41.3468,7.24744 L 41.278,7.31183
 L 41.2288,7.38934 L 41.1993,7.48003 L 41.1894,7.58385 L 41.1929,7.64119 L 41.2032,7.69388 L 41.2205,7.7419
 L 41.2446,7.78525 L 41.2749,7.82475 L 41.3105,7.86116 L 41.3513,7.8945 L 41.3976,7.92476 L 41.4548,7.95361
 L 41.5287,7.98274 L 41.6192,8.01215 L 41.7265,8.04185 L 41.919,8.09256 L 41.987,8.11325 L 42.045,8.13657
 L 42.093,8.16249 L 42.1308,8.19102 L 42.1595,8.2231 L 42.1801,8.25964 L 42.1924,8.30067 L 42.1965,8.34618
 L 42.1905,8.40492 L 42.1728,8.45584 L 42.1432,8.49892 L 42.1017,8.53416 L 42.0475,8.56157 L 41.9796,8.58116
 L 41.8979,8.59291 L 41.8026,8.59682 L 41.7123,8.59305 L 41.6325,8.58171 L 41.5631,8.56284 L 41.5042,8.53641
 L 41.4551,8.50186 L 41.4151,8.45863 L 41.3842,8.40674 L 41.3625,8.34618 L 41.1253,8.39244 L 41.157,8.49066
 L 41.203,8.575 L 41.2633,8.64545 L 41.3379,8.702 L 41.4282,8.74541 L 41.5357,8.7764 L 41.6605,8.795
 L 41.8026,8.80119 z
M 32.8283,8.79346 L 32.9576,8.77025 L 33.0696,8.73155 L 33.1644,8.67738 L 33.2397,8.60893 L 33.2936,8.52744
 L 33.3259,8.43289 L 33.3367,8.3253 L 33.3348,8.2803 L 33.3292,8.23784 L 33.3199,8.19789 L 33.3068,8.16045
 L 33.2904,8.12534 L 33.2708,8.09238 L 33.2482,8.06157 L 33.2225,8.0329 L 33.1929,8.00591 L 33.1582,7.98013
 L 33.1186,7.95557 L 33.0741,7.93222 L 33.0197,7.90895 L 32.9503,7.88464 L 32.866,7.85933 L 32.7668,7.83299
 L 32.6638,7.80688 L 32.5803,7.78377 L 32.5161,7.76363 L 32.4714,7.74648 L 32.4385,7.72997 L 32.4098,7.71179
 L 32.3855,7.69193 L 32.3654,7.67039 L 32.3498,7.64651 L 32.3386,7.61966 L 32.3319,7.58983 L 32.3297,7.55701
 L 32.3351,7.50461 L 32.3513,7.45929 L 32.3783,7.42105 L 32.4162,7.38991 L 32.4654,7.36577 L 32.5266,7.34851
 L 32.5997,7.33817 L 32.6847,7.33472 L 32.7626,7.3383 L 32.8322,7.34908 L 32.8936,7.36703 L 32.9466,7.39217
 L 32.9907,7.424 L 33.0255,7.46208 L 33.0508,7.50642 L 33.0667,7.55701 L 33.3083,7.52715 L 33.2802,7.43056
 L 33.2377,7.34813 L 33.1806,7.27988 L 33.1092,7.2258 L 33.0236,7.18468 L 32.9244,7.1553 L 32.8114,7.13768
 L 32.6847,7.13181 L 32.5431,7.13904 L 32.4194,7.16072 L 32.3137,7.19685 L 32.226,7.24744 L 32.1571,7.31183
 L 32.1079,7.38934 L 32.0784,7.48003 L 32.0686,7.58385 L 32.072,7.64119 L 32.0824,7.69388 L 32.0996,7.7419
 L 32.1238,7.78525 L 32.154,7.82475 L 32.1896,7.86116 L 32.2305,7.8945 L 32.2767,7.92476 L 32.3339,7.95361
 L 32.4078,7.98274 L 32.4984,8.01215 L 32.6057,8.04185 L 32.7981,8.09256 L 32.8662,8.11325 L 32.9242,8.13657
 L 32.9721,8.16249 L 33.01,8.19102 L 33.0387,8.2231 L 33.0592,8.25964 L 33.0715,8.30067 L 33.0756,8.34618
 L 33.0697,8.40492 L 33.0519,8.45584 L 33.0223,8.49892 L 32.9809,8.53416 L 32.9267,8.56157 L 32.8587,8.58116
 L 32.7771,8.59291 L 32.6817,8.59682 L 32.5915,8.59305 L 32.5117,8.58171 L 32.4423,8.56284 L 32.3834,8.53641
 L 32.3342,8.50186 L 32.2942,8.45863 L 32.2634,8.40674 L 32.2417,8.34618 L 32.0044,8.39244 L 32.0362,8.49066
 L 32.0822,8.575 L 32.1425,8.64545 L 32.217,8.702 L 32.3073,8.74541 L 32.4149,8.7764 L 32.5397,8.795
 L 32.6817,8.80119 z
M 56.0296,8.79346 L 56.1589,8.77025 L 56.2709,8.73155 L 56.3657,8.67738 L 56.4411,8.60893 L 56.4949,8.52744
 L 56.5273,8.43289 L 56.538,8.3253 L 56.5362,8.2803 L 56.5306,8.23784 L 56.5212,8.19789 L 56.5082,8.16045
 L 56.4917,8.12534 L 56.4722,8.09238 L 56.4496,8.06157 L 56.4239,8.0329 L 56.3942,8.00591 L 56.3596,7.98013
 L 56.32,7.95557 L 56.2755,7.93222 L 56.221,7.90895 L 56.1516,7.88464 L 56.0674,7.85933 L 55.9681,7.83299
 L 55.8652,7.80688 L 55.7816,7.78377 L 55.7175,7.76363 L 55.6727,7.74648 L 55.6398,7.72997 L 55.6112,7.71179
 L 55.5868,7.69193 L 55.5668,7.67039 L 55.5511,7.64651 L 55.5399,7.61966 L 55.5332,7.58983 L 55.531,7.55701
 L 55.5364,7.50461 L 55.5526,7.45929 L 55.5797,7.42105 L 55.6175,7.38991 L 55.6668,7.36577 L 55.7279,7.34851
 L 55.801,7.33817 L 55.8861,7.33472 L 55.964,7.3383 L 56.0336,7.34908 L 56.0949,7.36703 L 56.1479,7.39217
 L 56.192,7.424 L 56.2268,7.46208 L 56.2521,7.50642 L 56.268,7.55701 L 56.5097,7.52715 L 56.4816,7.43056
 L 56.439,7.34813 L 56.382,7.27988 L 56.3105,7.2258 L 56.225,7.18468 L 56.1257,7.1553 L 56.0127,7.13768
 L 55.8861,7.13181 L 55.7444,7.13904 L 55.6207,7.16072 L 55.515,7.19685 L 55.4273,7.24744 L 55.3585,7.31183
 L 55.3093,7.38934 L 55.2798,7.48003 L 55.2699,7.58385 L 55.2734,7.64119 L 55.2837,7.69388 L 55.301,7.7419
 L 55.3251,7.78525 L 55.3554,7.82475 L 55.3909,7.86116 L 55.4318,7.8945 L 55.478,7.92476 L 55.5352,7.95361
 L 55.6091,7.98274 L 55.6997,8.01215 L 55.807,8.04185 L 55.9995,8.09256 L 56.0675,8.11325 L 56.1255,8.13657
 L 56.1734,8.16249 L 56.2113,8.19102 L 56.24,8.2231 L 56.2605,8.25964 L 56.2728,8.30067 L 56.2769,8.34618
 L 56.271,8.40492 L 56.2533,8.45584 L 56.2237,8.49892 L 56.1822,8.53416 L 56.128,8.56157 L 56.0601,8.58116
 L 55.9784,8.59291 L 55.8831,8.59682 L 55.7928,8.59305 L 55.713,8.58171 L 55.6436,8.56284 L 55.5847,8.53641
 L 55.5356,8.50186 L 55.4956,8.45863 L 55.4647,8.40674 L 55.443,8.34618 L 55.2058,8.39244 L 55.2375,8.49066
 L 55.2835,8.575 L 55.3438,8.64545 L 55.4184,8.702 L 55.5087,8.74541 L 55.6162,8.7764 L 55.741,8.795
 L 55.8831,8.80119 z
M -37.6047,8.79346 L -37.4754,8.77025 L -37.3634,8.73155 L -37.2686,8.67738 L -37.1932,8.60893 L -37.1394,8.52744
 L -37.1071,8.43289 L -37.0963,8.3253 L -37.0981,8.2803 L -37.1037,8.23784 L -37.1131,8.19789 L -37.1261,8.16045
 L -37.1426,8.12534 L -37.1621,8.09238 L -37.1847,8.06157 L -37.2104,8.0329 L -37.2401,8.00591 L -37.2747,7.98013
 L -37.3143,7.95557 L -37.3589,7.93222 L -37.4133,7.90895 L -37.4827,7.88464 L -37.567,7.85933 L -37.6662,7.83299
 L -37.7691,7.80688 L -37.8527,7.78377 L -37.9168,7.76363 L -37.9616,7.74648 L -37.9945,7.72997 L -38.0231,7.71179
 L -38.0475,7.69193 L -38.0675,7.67039 L -38.0832,7.64651 L -38.0944,7.61966 L -38.1011,7.58983 L -38.1033,7.55701
 L -38.0979,7.50461 L -38.0817,7.45929 L -38.0546,7.42105 L -38.0168,7.38991 L -37.9675,7.36577 L -37.9064,7.34851
 L -37.8333,7.33817 L -37.7482,7.33472 L -37.6703,7.3383 L -37.6007,7.34908 L -37.5394,7.36703 L -37.4864,7.39217
 L -37.4423,7.424 L -37.4075,7.46208 L -37.3822,7.50642 L -37.3663,7.55701 L -37.1246,7.52715 L -37.1528,7.43056
 L -37.1953,7.34813 L -37.2523,7.27988 L -37.3238,7.2258 L -37.4094,7.18468 L -37.5086,7.1553 L -37.6216,7.13768
 L -37.7482,7.13181 L -37.8899,7.13904 L -38.0136,7.16072 L -38.1193,7.19685 L -38.207,7.24744 L -38.2758,7.31183
 L -38.325,7.38934 L -38.3546,7.48003 L -38.3644,7.58385 L -38.3609,7.64119 L -38.3506,7.69388 L -38.3333,7.7419
 L -38.3092,7.78525 L -38.2789,7.82475 L -38.2434,7.86116 L -38.2025,7.8945 L -38.1563,7.92476 L -38.0991,7.95361
 L -38.0252,7.98274 L -37.9346,8.01215 L -37.8273,8.04185 L -37.6348,8.09256 L -37.5668,8.11325 L -37.5088,8.13657
 L -37.4609,8.16249 L -37.423,8.19102 L -37.3943,8.2231 L -37.3738,8.25964 L -37.3615,8.30067 L -37.3574,8.34618
 L -37.3633,8.40492 L -37.381,8.45584 L -37.4106,8.49892 L -37.4521,8.53416 L -37.5063,8.56157 L -37.5742,8.58116
 L -37.6559,8.59291 L -37.7512,8.59682 L -37.8415,8.59305 L -37.9213,8.58171 L -37.9907,8.56284 L -38.0496,8.53641
 L -38.0987,8.50186 L -38.1387,8.45863 L -38.1696,8.40674 L -38.1913,8.34618 L -38.4285,8.39244 L -38.3968,8.49066
 L -38.3508,8.575 L -38.2905,8.64545 L -38.216,8.702 L -38.1256,8.74541 L -38.0181,8.7764 L -37.8933,8.795
 L -37.7512,8.80119 z
M 69.3382,9.36288 L 69.5494,9.23534 L 69.6761,9.02275 L 69.7184,8.72513 L 69.7184,7.49136 L 69.7189,7.37537
 L 69.7206,7.28101 L 69.7234,7.20827 L 69.7273,7.15718 L 69.4722,7.15718 L 69.4692,7.16866 L 69.4662,7.19261
 L 69.4633,7.22906 L 69.4603,7.27802 L 69.4577,7.32912 L 69.4558,7.37201 L 69.4547,7.40669 L 69.4543,7.43317
 L 69.4513,7.43317 L 69.4134,7.36496 L 69.3683,7.30505 L 69.3161,7.25343 L 69.2566,7.21013 L 69.1908,7.17587
 L 69.1192,7.1514 L 69.0419,7.1367 L 68.959,7.13181 L 68.8158,7.14455 L 68.6922,7.18272 L 68.588,7.24637
 L 68.5033,7.33546 L 68.4377,7.45131 L 68.3908,7.59523 L 68.3627,7.76721 L 68.3533,7.96725 L 68.362,8.16426
 L 68.3882,8.33313 L 68.4318,8.47385 L 68.4928,8.5864 L 68.5724,8.67255 L 68.6716,8.73409 L 68.7906,8.77101
 L 68.9292,8.78331 L 69.0152,8.77841 L 69.0955,8.76373 L 69.1703,8.73926 L 69.2395,8.70499 L 69.3023,8.66103
 L 69.3581,8.60745 L 69.4068,8.54428 L 69.4483,8.47151 L 69.4513,8.47151 L 69.4513,8.73108 L 69.4263,8.93669
 L 69.351,9.08354 L 69.2256,9.17166 L 69.05,9.20103 L 68.979,9.19725 L 68.9152,9.18591 L 68.8585,9.16704
 L 68.8091,9.14059 L 68.7673,9.10716 L 68.7336,9.06731 L 68.708,9.02101 L 68.6905,8.96829 L 68.4204,9.00708
 L 68.4498,9.09711 L 68.4932,9.17622 L 68.5505,9.24443 L 68.6218,9.30173 L 68.7069,9.34708 L 68.8053,9.37949
 L 68.9172,9.39893 L 69.0426,9.40541 z
M 68.9213,8.57584 L 68.8382,8.54871 L 68.7707,8.50348 L 68.7188,8.44019 L 68.6803,8.35617 L 68.6528,8.24884
 L 68.6363,8.11821 L 68.6308,7.96426 L 68.6367,7.80875 L 68.6543,7.67633 L 68.6837,7.56706 L 68.7248,7.48091
 L 68.7788,7.41563 L 68.8467,7.36902 L 68.9287,7.34105 L 69.0247,7.33173 L 69.0849,7.33644 L 69.142,7.35056
 L 69.1957,7.37411 L 69.2462,7.40707 L 69.2923,7.44893 L 69.3329,7.49919 L 69.368,7.55783 L 69.3976,7.62488
 L 69.4211,7.69951 L 69.4379,7.78096 L 69.448,7.86922 L 69.4513,7.96426 L 69.448,8.05717 L 69.4379,8.14348
 L 69.4211,8.22314 L 69.3976,8.29622 L 69.368,8.36189 L 69.3327,8.41948 L 69.2919,8.46893 L 69.2454,8.5103
 L 69.1944,8.54292 L 69.1399,8.56622 L 69.0818,8.58022 L 69.0202,8.58487 z
M 81.4091,8.79346 L 81.5384,8.77025 L 81.6504,8.73155 L 81.7452,8.67738 L 81.8206,8.60893 L 81.8744,8.52744
 L 81.9068,8.43289 L 81.9175,8.3253 L 81.9156,8.2803 L 81.91,8.23784 L 81.9007,8.19789 L 81.8877,8.16045
 L 81.8712,8.12534 L 81.8517,8.09238 L 81.8291,8.06157 L 81.8034,8.0329 L 81.7737,8.00591 L 81.739,7.98013
 L 81.6995,7.95557 L 81.655,7.93222 L 81.6005,7.90895 L 81.5311,7.88464 L 81.4468,7.85933 L 81.3476,7.83299
 L 81.2447,7.80688 L 81.1611,7.78377 L 81.097,7.76363 L 81.0522,7.74648 L 81.0193,7.72997 L 80.9907,7.71179
 L 80.9663,7.69193 L 80.9463,7.67039 L 80.9306,7.64651 L 80.9194,7.61966 L 80.9127,7.58983 L 80.9105,7.55701
 L 80.9159,7.50461 L 80.9321,7.45929 L 80.9592,7.42105 L 80.997,7.38991 L 81.0463,7.36577 L 81.1074,7.34851
 L 81.1805,7.33817 L 81.2656,7.33472 L 81.3435,7.3383 L 81.4131,7.34908 L 81.4744,7.36703 L 81.5274,7.39217
 L 81.5715,7.424 L 81.6063,7.46208 L 81.6316,7.50642 L 81.6475,7.55701 L 81.8892,7.52715 L 81.8611,7.43056
 L 81.8185,7.34813 L 81.7615,7.27988 L 81.69,7.2258 L 81.6044,7.18468 L 81.5052,7.1553 L 81.3922,7.13768
 L 81.2656,7.13181 L 81.1239,7.13904 L 81.0002,7.16072 L 80.8945,7.19685 L 80.8068,7.24744 L 80.7379,7.31183
 L 80.6888,7.38934 L 80.6593,7.48003 L 80.6494,7.58385 L 80.6529,7.64119 L 80.6632,7.69388 L 80.6805,7.7419
 L 80.7046,7.78525 L 80.7349,7.82475 L 80.7704,7.86116 L 80.8113,7.8945 L 80.8575,7.92476 L 80.9147,7.95361
 L 80.9886,7.98274 L 81.0792,8.01215 L 81.1865,8.04185 L 81.379,8.09256 L 81.447,8.11325 L 81.505,8.13657
 L 81.5529,8.16249 L 81.5908,8.19102 L 81.6195,8.2231 L 81.64,8.25964 L 81.6523,8.30067 L 81.6564,8.34618
 L 81.6505,8.40492 L 81.6328,8.45584 L 81.6032,8.49892 L 81.5617,8.53416 L 81.5075,8.56157 L 81.4396,8.58116
 L 81.3579,8.59291 L 81.2626,8.59682 L 81.1723,8.59305 L 81.0925,8.58171 L 81.0231,8.56284 L 80.9642,8.53641
 L 80.9151,8.50186 L 80.8751,8.45863 L 80.8442,8.40674 L 80.8225,8.34618 L 80.5853,8.39244 L 80.617,8.49066
 L 80.663,8.575 L 80.7233,8.64545 L 80.7979,8.702 L 80.8882,8.74541 L 80.9957,8.7764 L 81.1205,8.795
 L 81.2626,8.80119 z
M 39.3484,8.79686 L 39.4276,8.78386 L 39.4995,8.76218 L 39.5639,8.73183 L 39.6229,8.69104 L 39.6783,8.63803
 L 39.7299,8.57281 L 39.778,8.49538 L 39.7825,8.49538 L 39.7839,8.54959 L 39.7853,8.59441 L 39.7865,8.62979
 L 39.7877,8.65576 L 39.7888,8.67641 L 39.7906,8.71407 L 39.7914,8.73108 L 39.7922,8.74591 L 39.7929,8.75757
 L 39.7937,8.76605 L 39.7944,8.77136 L 40.048,8.77136 L 40.0441,8.72633 L 40.0413,8.65388 L 40.0396,8.55402
 L 40.0391,8.42674 L 40.0391,7.15718 L 39.7706,7.15718 L 39.7706,8.09256 L 39.7636,8.20399 L 39.7426,8.30255
 L 39.7076,8.38824 L 39.6587,8.46106 L 39.5976,8.51915 L 39.5263,8.56064 L 39.4447,8.58553 L 39.3528,8.59383
 L 39.2905,8.5914 L 39.2361,8.58414 L 39.1897,8.57201 L 39.1514,8.55504 L 39.1194,8.53258 L 39.0921,8.50395
 L 39.0695,8.46916 L 39.0515,8.42824 L 39.0378,8.37975 L 39.028,8.32231 L 39.0221,8.25592 L 39.0201,8.18057
 L 39.0201,7.15718 L 38.7501,7.15718 L 38.7501,8.2328 L 38.7578,8.37421 L 38.7809,8.49406 L 38.8193,8.59239
 L 38.8732,8.66917 L 38.9436,8.72694 L 39.0319,8.76819 L 39.138,8.79295 L 39.2618,8.80119 z
M 48.3533,8.10896 L 48.7874,8.77136 L 49.0873,8.77136 L 48.5054,7.93892 L 49.0529,7.15718 L 48.7531,7.15718
 L 48.3533,7.78525 L 47.9505,7.15718 L 47.6536,7.15718 L 48.2011,7.94189 L 47.6267,8.77136 L 47.9161,8.77136
 z
M -6.62274,9.40154 L -6.56152,9.38992 L -6.50377,9.37059 L -6.44946,9.34351 L -6.39804,9.30853 L -6.34894,9.26555
 L -6.30219,9.21455 L -6.25775,9.15553 L -6.21365,9.08424 L -6.16786,8.99646 L -6.12041,8.89217 L -6.07126,8.77136
 L -5.45064,7.15718 L -5.73412,7.15718 L -6.08768,8.18507 L -6.19211,8.47896 L -6.1976,8.46013 L -6.20963,8.42302
 L -6.22818,8.36763 L -6.25327,8.29396 L -6.27872,8.2197 L -6.2984,8.16251 L -6.3123,8.12236 L -6.3204,8.09929
 L -6.33832,8.0493 L -6.67847,7.15718 L -6.9649,7.15718 L -6.32487,8.76392 L -6.35023,8.82806 L -6.42987,8.98927
 L -6.52255,9.10443 L -6.6283,9.17352 L -6.74707,9.19656 L -6.78065,9.196 L -6.81273,9.19432 L -6.84332,9.19153
 L -6.87241,9.18761 L -6.87241,9.38899 L -6.83287,9.39618 L -6.78886,9.40131 L -6.74037,9.40439 L -6.68741,9.40541
 z
M 1.3343,8.10896 L 1.76845,8.77136 L 2.06831,8.77136 L 1.48648,7.93892 L 2.034,7.15718 L 1.73413,7.15718
 L 1.3343,7.78525 L 0.931503,7.15718 L 0.634613,7.15718 L 1.18214,7.94189 L 0.607773,8.77136 L 0.897186,8.77136
 z
M -43.3928,8.10896 L -42.9586,8.77136 L -42.6588,8.77136 L -43.2406,7.93892 L -42.6931,7.15718 L -42.993,7.15718
 L -43.3928,7.78525 L -43.7956,7.15718 L -44.0925,7.15718 L -43.5449,7.94189 L -44.1193,8.77136 L -43.8299,8.77136
 z
M 29.2915,7.15718 L 29.0065,7.15718 L 28.6395,8.21042 L 28.5813,8.38646 L 28.5291,8.561 L 28.4913,8.4287
 L 28.4616,8.32567 L 28.4399,8.25191 L 28.4262,8.20744 L 28.0711,7.15718 L 27.7847,7.15718 L 28.371,8.77136
 L 28.6888,8.77136 z
M -21.4328,8.10896 L -20.9987,8.77136 L -20.6988,8.77136 L -21.2807,7.93892 L -20.7331,7.15718 L -21.033,7.15718
 L -21.4328,7.78525 L -21.8356,7.15718 L -22.1325,7.15718 L -21.585,7.94189 L -22.1593,8.77136 L -21.8699,8.77136
 z
M 64.794,7.84045 L 64.0481,7.84045 L 64.0481,8.07913 L 64.794,8.07913 z
M 7.92424,7.84045 L 7.17831,7.84045 L 7.17831,8.07913 L 7.92424,8.07913 z
M 36.7802,7.84045 L 36.0343,7.84045 L 36.0343,8.07913 L 36.7802,8.07913 z
" stroke="black" fill="lightgray" stroke-width="0.5"/>
</svg>
