<?xml version="1.0" standalone="no"?>
<!DOCTYPE svg PUBLIC "-//W3C//DTD SVG 1.1//EN" "http://www.w3.org/Graphics/SVG/1.1/DTD/svg11.dtd">
<svg width="144mm" height="99mm" viewBox="-72 -71 144 99" xmlns="http://www.w3.org/2000/svg" version="1.1">
<title>OpenSCAD Model</title>
<path d="
M 3.36633,-68.0969 L 1.87068,-68.0969 L 1.87068,-68.896 L 3.20197,-68.896 L 3.20197,-69.1466 L 1.87068,-69.1466
 L 1.87068,-69.8823 L 3.29962,-69.8823 L 3.29962,-70.1362 L 1.55983,-70.1362 L 1.55983,-67.843 L 3.36633,-67.843
 z
M 14.5507,8.46434 L 15.6113,7.85197 L 15.6237,7.84052 L 15.6315,7.82333 L 15.6341,7.80162 L 15.6516,7.78847
 L 15.6626,7.77315 L 15.6663,7.75671 L 15.6663,-4.70845 L 16.2085,-4.39546 L 16.2246,-4.39049 L 16.2433,-4.39235
 L 16.2634,-4.40091 L 16.2836,-4.39235 L 16.3023,-4.39049 L 16.3185,-4.39546 L 37.7202,-16.7518 L 37.7202,-6.32785
 L 37.724,-6.3114 L 37.7349,-6.29608 L 37.7524,-6.28293 L 37.7551,-6.26122 L 37.7628,-6.24405 L 37.7752,-6.23257
 L 38.8359,-5.62021 L 38.852,-5.61523 L 38.8707,-5.6171 L 38.8909,-5.62566 L 38.911,-5.6171 L 38.9298,-5.61523
 L 38.9459,-5.62021 L 40.0065,-6.23257 L 40.0189,-6.24405 L 40.0267,-6.26122 L 40.0293,-6.28293 L 40.0468,-6.29608
 L 40.0578,-6.3114 L 40.0615,-6.32785 L 40.0615,-18.1035 L 41.7743,-19.0924 L 41.7867,-19.1039 L 41.7944,-19.121
 L 41.7971,-19.1428 L 41.8146,-19.1559 L 41.8255,-19.1712 L 41.8293,-19.1877 L 41.8293,-21.0248 L 41.8255,-21.0412
 L 41.8146,-21.0565 L 41.7971,-21.0697 L 41.7944,-21.0914 L 41.7867,-21.1086 L 41.7743,-21.12 L 36.9544,-23.9028
 L 36.9544,-24.8521 L 36.939,-24.9193 L 36.8941,-24.982 L 36.8226,-25.0358 L 36.7294,-25.0771 L 36.6208,-25.1031
 L 36.5044,-25.1119 L 36.3879,-25.1031 L 36.3661,-25.0979 L 41.7993,-28.2347 L 41.8173,-28.2514 L 41.8286,-28.2763
 L 41.8324,-28.3079 L 41.8579,-28.3271 L 41.8738,-28.3493 L 41.8793,-28.3732 L 41.8793,-46.3362 L 41.8738,-46.3601
 L 41.8579,-46.3824 L 41.8324,-46.4015 L 41.8286,-46.4331 L 41.8173,-46.4581 L 41.7993,-46.4747 L 41.269,-46.7809
 L 41.2455,-46.7881 L 41.2182,-46.7854 L 41.189,-46.773 L 41.1597,-46.7854 L 41.1324,-46.7881 L 41.109,-46.7809
 L 38.8909,-45.5003 L 29.3967,-50.9818 L 31.406,-52.2376 L 31.435,-52.2598 L 31.4572,-52.2888 L 31.4712,-52.3226
 L 31.476,-52.3588 L 31.4712,-52.395 L 31.4572,-52.4288 L 31.435,-52.4578 L 31.406,-52.4801 L 31.3722,-52.494
 L 31.336,-52.4988 L 31.2997,-52.494 L 31.266,-52.4801 L 29.1222,-51.1402 L 9.88271,-62.2482 L 9.88271,-64.8094
 L 9.87726,-64.8333 L 9.86127,-64.8556 L 9.83585,-64.8747 L 9.83199,-64.9063 L 9.82069,-64.9313 L 9.8027,-64.948
 L 9.27234,-65.2542 L 5.60771,-67.6973 L 5.57394,-67.7113 L 5.53772,-67.716 L 5.50148,-67.7113 L 5.46771,-67.6973
 L 5.43872,-67.675 L 5.41647,-67.646 L 5.40248,-67.6123 L 5.39772,-67.576 L 5.40248,-67.5398 L 5.41647,-67.506
 L 5.43872,-67.477 L 5.46771,-67.4548 L 8.92818,-65.1478 L -0.787094,-59.5387 L -0.805084,-59.522 L -0.816376,-59.497
 L -0.820236,-59.4654 L -0.845657,-59.4463 L -0.861649,-59.424 L -0.867096,-59.4001 L -0.867096,-41.4372 L -0.861649,-41.4133
 L -0.845657,-41.391 L -0.820236,-41.3719 L -0.816376,-41.3403 L -0.805084,-41.3153 L -0.787094,-41.2986 L -0.256775,-40.9924
 L -0.233337,-40.9852 L -0.206055,-40.9879 L -0.176773,-41.0004 L -0.147491,-40.9879 L -0.120193,-40.9852 L -0.0967712,-40.9924
 L 4.08215,-43.4052 L 4.07314,-43.3926 L 4.0578,-43.3253 L 4.0578,-40.4576 L 3.9678,-40.4361 L 3.74413,-40.337
 L 3.57249,-40.2078 L 3.4646,-40.0574 L 3.4278,-39.8961 L 3.4646,-39.7347 L 4.4595,-37.6024 L 4.46449,-37.5954
 L 4.47244,-37.5895 L 4.4828,-37.5849 L 4.49486,-37.582 L 4.5078,-37.581 L 4.52074,-37.582 L 4.53279,-37.5849
 L 4.54315,-37.5895 L 4.5511,-37.5954 L 4.55609,-37.6024 L 5.55099,-39.7347 L 5.5878,-39.8961 L 5.55099,-40.0574
 L 5.4431,-40.2078 L 5.27147,-40.337 L 5.04781,-40.4361 L 4.95779,-40.4576 L 4.95779,-43.3253 L 4.94246,-43.3926
 L 4.89751,-43.4552 L 4.82599,-43.5091 L 4.7328,-43.5503 L 4.62427,-43.5763 L 4.5078,-43.5852 L 4.39133,-43.5763
 L 4.36954,-43.5711 L 9.01559,-46.2535 L 31.1295,-33.486 L 31.1295,-27.2658 L 9.24738,-39.8995 L 9.23128,-39.9044
 L 9.21251,-39.9026 L 9.19238,-39.894 L 9.17226,-39.9026 L 9.15349,-39.9044 L 9.13737,-39.8995 L -16.3185,-25.2025
 L -16.3308,-25.1911 L -16.3386,-25.1739 L -16.3412,-25.1522 L -16.3587,-25.139 L -16.3697,-25.1237 L -16.3734,-25.1073
 L -16.3734,-23.2701 L -16.3697,-23.2537 L -16.3587,-23.2384 L -16.3412,-23.2252 L -16.3386,-23.2035 L -16.3308,-23.1864
 L -16.3185,-23.1749 L -14.6057,-22.186 L -14.6057,-8.36908 L -14.6019,-8.35265 L -14.5909,-8.33733 L -14.5735,-8.32417
 L -14.5708,-8.30246 L -14.563,-8.28529 L -14.5507,-8.27382 L -13.49,-7.66145 L -13.4739,-7.65648 L -13.4552,-7.65834
 L -13.435,-7.6669 L -13.4149,-7.65834 L -13.3961,-7.65648 L -13.38,-7.66145 L -12.3194,-8.27382 L -12.307,-8.28529
 L -12.2992,-8.30246 L -12.2966,-8.32417 L -12.2791,-8.33733 L -12.2681,-8.35265 L -12.2644,-8.36908 L -12.2644,-20.8342
 L 13.325,-6.06021 L 13.325,7.75671 L 13.3288,7.77315 L 13.3398,7.78847 L 13.3572,7.80162 L 13.3599,7.82333
 L 13.3677,7.84052 L 13.38,7.85197 L 14.4407,8.46434 L 14.4568,8.46931 L 14.4756,8.46747 L 14.4957,8.45889
 L 14.5158,8.46747 L 14.5346,8.46931 z
M 35.6253,-24.6702 L 36.0787,-24.9319 L 36.0697,-24.9193 L 36.0544,-24.8521 L 36.0544,-24.4224 z
M 34.0402,-53.6268 L 35.2804,-53.6268 L 35.2804,-52.5641 L 35.5912,-52.5641 L 35.5912,-54.8572 L 35.2804,-54.8572
 L 35.2804,-53.8872 L 34.0402,-53.8872 L 34.0402,-54.8572 L 33.7294,-54.8572 L 33.7294,-52.5641 L 34.0402,-52.5641
 z
M -35.3015,25.836 L -35.295,25.7401 L -35.2756,25.6546 L -35.2432,25.5794 L -35.1978,25.5146 L -35.1416,25.4623
 L -35.0769,25.425 L -35.0036,25.4027 L -34.9218,25.3952 L -34.8673,25.3974 L -34.819,25.404 L -34.7771,25.415
 L -34.7414,25.4305 L -34.7111,25.4506 L -34.6855,25.4757 L -34.6644,25.5059 L -34.6478,25.541 L -34.6354,25.5836
 L -34.6265,25.6361 L -34.6211,25.6985 L -34.6193,25.7709 L -34.6193,26.7012 L -34.3739,26.7012 L -34.3739,25.7234
 L -34.3809,25.5938 L -34.4022,25.4842 L -34.4376,25.3947 L -34.4871,25.3254 L -34.5516,25.2734 L -34.6317,25.2363
 L -34.7275,25.2141 L -34.8391,25.2067 L -34.9201,25.2109 L -34.9938,25.2235 L -35.0602,25.2444 L -35.1191,25.2738
 L -35.1724,25.3122 L -35.2217,25.3601 L -35.267,25.4176 L -35.3083,25.4847 L -35.3124,25.4847 L -35.3115,25.4733
 L -35.3102,25.4525 L -35.3084,25.4224 L -35.3063,25.383 L -35.3042,25.3392 L -35.3027,25.2962 L -35.3018,25.2538
 L -35.3015,25.2121 L -35.3015,24.6886 L -35.5457,24.6886 L -35.5457,26.7012 L -35.3015,26.7012 z
M 27.4208,26.7245 L 27.4935,26.7131 L 27.5595,26.694 L 27.6188,26.6673 L 27.672,26.6318 L 27.7197,26.5863
 L 27.7618,26.5308 L 27.7985,26.4653 L 27.8039,26.4653 L 27.8042,26.4951 L 27.8051,26.5276 L 27.8066,26.5629
 L 27.8087,26.6009 L 27.811,26.6367 L 27.8132,26.6653 L 27.8154,26.6868 L 27.8175,26.7012 L 28.0508,26.7012
 L 28.0472,26.6549 L 28.0447,26.589 L 28.0431,26.5037 L 28.0426,26.3988 L 28.0426,24.6886 L 27.7985,24.6886
 L 27.7985,25.2975 L 27.8012,25.4616 L 27.7985,25.4616 L 27.7619,25.3997 L 27.7198,25.3467 L 27.6724,25.3027
 L 27.6195,25.2677 L 27.5604,25.241 L 27.4944,25.2219 L 27.4214,25.2105 L 27.3414,25.2067 L 27.1053,25.2547
 L 26.9366,25.3986 L 26.8354,25.6385 L 26.8017,25.9743 L 26.8098,26.1521 L 26.8344,26.3059 L 26.8753,26.4356
 L 26.9325,26.5412 L 27.0072,26.6231 L 27.1002,26.6816 L 27.2116,26.7167 L 27.3414,26.7284 z
M 27.3186,26.5315 L 27.2462,26.5066 L 27.1864,26.4651 L 27.1394,26.4069 L 27.1038,26.3295 L 27.0783,26.2303
 L 27.0631,26.1092 L 27.058,25.9662 L 27.0631,25.8236 L 27.0785,25.7022 L 27.1041,25.6021 L 27.14,25.5234
 L 27.1875,25.4637 L 27.2477,25.4211 L 27.3207,25.3956 L 27.4065,25.3871 L 27.502,25.3955 L 27.5835,25.421
 L 27.6512,25.4633 L 27.7049,25.5227 L 27.7459,25.6002 L 27.7751,25.6973 L 27.7926,25.8138 L 27.7985,25.9499
 L 27.7926,26.0912 L 27.7751,26.2126 L 27.7459,26.3143 L 27.7049,26.3961 L 27.651,26.459 L 27.5829,26.5039
 L 27.5005,26.5309 L 27.4038,26.5398 z
M -54.4505,25.836 L -54.4441,25.7401 L -54.4246,25.6546 L -54.3922,25.5794 L -54.3468,25.5146 L -54.2906,25.4623
 L -54.2259,25.425 L -54.1526,25.4027 L -54.0708,25.3952 L -54.0163,25.3974 L -53.9681,25.404 L -53.9261,25.415
 L -53.8904,25.4305 L -53.8602,25.4506 L -53.8345,25.4757 L -53.8134,25.5059 L -53.7968,25.541 L -53.7844,25.5836
 L -53.7755,25.6361 L -53.7701,25.6985 L -53.7684,25.7709 L -53.7684,26.7012 L -53.5229,26.7012 L -53.5229,25.7234
 L -53.53,25.5938 L -53.5512,25.4842 L -53.5866,25.3947 L -53.6361,25.3254 L -53.7006,25.2734 L -53.7807,25.2363
 L -53.8766,25.2141 L -53.9881,25.2067 L -54.0692,25.2109 L -54.1429,25.2235 L -54.2092,25.2444 L -54.2681,25.2738
 L -54.3214,25.3122 L -54.3707,25.3601 L -54.416,25.4176 L -54.4573,25.4847 L -54.4614,25.4847 L -54.4605,25.4733
 L -54.4592,25.4525 L -54.4575,25.4224 L -54.4553,25.383 L -54.4532,25.3392 L -54.4517,25.2962 L -54.4509,25.2538
 L -54.4505,25.2121 L -54.4505,24.6886 L -54.6947,24.6886 L -54.6947,26.7012 L -54.4505,26.7012 z
M 32.3933,24.6886 L 32.1491,24.6886 L 32.1491,24.9219 L 32.3933,24.9219 z
M 26.5123,24.6886 L 26.2681,24.6886 L 26.2681,24.9219 L 26.5123,24.9219 z
M 23.0486,24.6886 L 22.8045,24.6886 L 22.8045,26.7012 L 23.0486,26.7012 z
M 22.4459,24.6886 L 22.2018,24.6886 L 22.2018,26.7012 L 22.4459,26.7012 z
M -50.8319,25.836 L -50.8254,25.7401 L -50.8059,25.6546 L -50.7735,25.5794 L -50.7281,25.5146 L -50.672,25.4623
 L -50.6073,25.425 L -50.534,25.4027 L -50.4521,25.3952 L -50.3976,25.3974 L -50.3494,25.404 L -50.3074,25.415
 L -50.2718,25.4305 L -50.2415,25.4506 L -50.2158,25.4757 L -50.1947,25.5059 L -50.1782,25.541 L -50.1657,25.5836
 L -50.1568,25.6361 L -50.1515,25.6985 L -50.1497,25.7709 L -50.1497,26.7012 L -49.9042,26.7012 L -49.9042,25.7234
 L -49.9113,25.5938 L -49.9325,25.4842 L -49.9679,25.3947 L -50.0175,25.3254 L -50.0819,25.2734 L -50.1621,25.2363
 L -50.2579,25.2141 L -50.3694,25.2067 L -50.4505,25.2109 L -50.5242,25.2235 L -50.5905,25.2444 L -50.6495,25.2738
 L -50.7027,25.3122 L -50.752,25.3601 L -50.7973,25.4176 L -50.8387,25.4847 L -50.8427,25.4847 L -50.8418,25.4733
 L -50.8405,25.4525 L -50.8388,25.4224 L -50.8366,25.383 L -50.8345,25.3392 L -50.8331,25.2962 L -50.8322,25.2538
 L -50.8319,25.2121 L -50.8319,24.6886 L -51.076,24.6886 L -51.076,26.7012 L -50.8319,26.7012 z
M 2.98965,24.6886 L 2.74551,24.6886 L 2.74551,24.9219 L 2.98965,24.9219 z
M -47.82,24.6886 L -48.0641,24.6886 L -48.0641,26.7012 L -47.82,26.7012 z
M 3.89819,26.7245 L 3.97087,26.7131 L 4.03685,26.694 L 4.09615,26.6673 L 4.14934,26.6318 L 4.19702,26.5863
 L 4.2392,26.5308 L 4.27586,26.4653 L 4.28128,26.4653 L 4.28159,26.4951 L 4.28247,26.5276 L 4.28395,26.5629
 L 4.28603,26.6009 L 4.28836,26.6367 L 4.2906,26.6653 L 4.29277,26.6868 L 4.29485,26.7012 L 4.52812,26.7012
 L 4.52457,26.6549 L 4.52202,26.589 L 4.52049,26.5037 L 4.51999,26.3988 L 4.51999,24.6886 L 4.27586,24.6886
 L 4.27586,25.2975 L 4.27858,25.4616 L 4.27586,25.4616 L 4.23924,25.3997 L 4.19719,25.3467 L 4.14972,25.3027
 L 4.09683,25.2677 L 4.03775,25.241 L 3.97173,25.2219 L 3.89874,25.2105 L 3.8188,25.2067 L 3.58266,25.2547
 L 3.41397,25.3986 L 3.31276,25.6385 L 3.27902,25.9743 L 3.2872,26.1521 L 3.31175,26.3059 L 3.35265,26.4356
 L 3.40991,26.5412 L 3.48454,26.6231 L 3.57758,26.6816 L 3.689,26.7167 L 3.8188,26.7284 z
M 3.79601,26.5315 L 3.72354,26.5066 L 3.66377,26.4651 L 3.61673,26.4069 L 3.58112,26.3295 L 3.55569,26.2303
 L 3.54044,26.1092 L 3.53534,25.9662 L 3.54047,25.8236 L 3.55586,25.7022 L 3.5815,25.6021 L 3.6174,25.5234
 L 3.66484,25.4637 L 3.72507,25.4211 L 3.79808,25.3956 L 3.88391,25.3871 L 3.97935,25.3955 L 4.0609,25.421
 L 4.12854,25.4633 L 4.18228,25.5227 L 4.22322,25.6002 L 4.25247,25.6973 L 4.27002,25.8138 L 4.27586,25.9499
 L 4.27002,26.0912 L 4.25247,26.2126 L 4.22322,26.3143 L 4.18228,26.3961 L 4.12837,26.459 L 4.06023,26.5039
 L 3.97783,26.5309 L 3.88121,26.5398 z
M -10.1273,24.6886 L -10.3714,24.6886 L -10.3714,26.7012 L -10.1273,26.7012 z
M -61.2416,24.6886 L -61.4857,24.6886 L -61.4857,26.7012 L -61.2416,26.7012 z
M 61.6537,26.7245 L 61.7264,26.7131 L 61.7924,26.694 L 61.8517,26.6673 L 61.9049,26.6318 L 61.9526,26.5863
 L 61.9948,26.5308 L 62.0314,26.4653 L 62.0368,26.4653 L 62.0371,26.4951 L 62.038,26.5276 L 62.0395,26.5629
 L 62.0416,26.6009 L 62.0439,26.6367 L 62.0462,26.6653 L 62.0483,26.6868 L 62.0504,26.7012 L 62.2837,26.7012
 L 62.2801,26.6549 L 62.2776,26.589 L 62.276,26.5037 L 62.2755,26.3988 L 62.2755,24.6886 L 62.0314,24.6886
 L 62.0314,25.2975 L 62.0341,25.4616 L 62.0314,25.4616 L 61.9948,25.3997 L 61.9527,25.3467 L 61.9053,25.3027
 L 61.8524,25.2677 L 61.7933,25.241 L 61.7273,25.2219 L 61.6543,25.2105 L 61.5744,25.2067 L 61.3382,25.2547
 L 61.1695,25.3986 L 61.0683,25.6385 L 61.0346,25.9743 L 61.0428,26.1521 L 61.0673,26.3059 L 61.1082,26.4356
 L 61.1655,26.5412 L 61.2401,26.6231 L 61.3331,26.6816 L 61.4445,26.7167 L 61.5744,26.7284 z
M 61.5516,26.5315 L 61.4791,26.5066 L 61.4193,26.4651 L 61.3723,26.4069 L 61.3367,26.3295 L 61.3112,26.2303
 L 61.296,26.1092 L 61.2909,25.9662 L 61.296,25.8236 L 61.3114,25.7022 L 61.3371,25.6021 L 61.373,25.5234
 L 61.4204,25.4637 L 61.4806,25.4211 L 61.5536,25.3956 L 61.6395,25.3871 L 61.7349,25.3955 L 61.8165,25.421
 L 61.8841,25.4633 L 61.9378,25.5227 L 61.9788,25.6002 L 62.008,25.6973 L 62.0256,25.8138 L 62.0314,25.9499
 L 62.0256,26.0912 L 62.008,26.2126 L 61.9788,26.3143 L 61.9378,26.3961 L 61.8839,26.459 L 61.8158,26.5039
 L 61.7334,26.5309 L 61.6367,26.5398 z
M -61.8443,24.6886 L -62.0884,24.6886 L -62.0884,26.7012 L -61.8443,26.7012 z
M -10.73,24.6886 L -10.9741,24.6886 L -10.9741,26.7012 L -10.73,26.7012 z
M 65.8134,26.6804 L 65.9821,26.5365 L 66.0833,26.2966 L 66.1171,25.9607 L 66.1089,25.7829 L 66.0843,25.6291
 L 66.0434,25.4995 L 65.9862,25.3938 L 65.9115,25.312 L 65.8185,25.2535 L 65.7071,25.2184 L 65.5773,25.2067
 L 65.4979,25.2105 L 65.4252,25.2219 L 65.3592,25.241 L 65.2999,25.2677 L 65.2467,25.3032 L 65.199,25.3487
 L 65.1568,25.4043 L 65.1202,25.4698 L 65.1148,25.4698 L 65.1171,25.4121 L 65.1188,25.3582 L 65.1198,25.3083
 L 65.1202,25.2623 L 65.1202,24.6886 L 64.8761,24.6886 L 64.8761,26.3988 L 64.8756,26.5037 L 64.874,26.589
 L 64.8715,26.6549 L 64.8679,26.7012 L 65.1039,26.7012 L 65.1055,26.6899 L 65.1073,26.6695 L 65.1095,26.6401
 L 65.112,26.6016 L 65.1144,26.5612 L 65.1161,26.5265 L 65.1171,26.4972 L 65.1175,26.4734 L 65.1202,26.4734
 L 65.1574,26.5359 L 65.1997,26.5892 L 65.2472,26.6332 L 65.2999,26.668 L 65.3587,26.6944 L 65.4245,26.7133
 L 65.4974,26.7246 L 65.5773,26.7284 z
M 65.4156,26.5394 L 65.3335,26.5136 L 65.2657,26.4706 L 65.2124,26.4103 L 65.1721,26.332 L 65.1432,26.2349
 L 65.1259,26.1188 L 65.1202,25.9838 L 65.1261,25.8409 L 65.1438,25.7187 L 65.1732,25.6171 L 65.2144,25.5363
 L 65.2686,25.4745 L 65.3367,25.4305 L 65.4188,25.404 L 65.5149,25.3952 L 65.6001,25.4035 L 65.6725,25.4284
 L 65.7323,25.47 L 65.7793,25.5281 L 65.8149,25.6055 L 65.8404,25.7048 L 65.8556,25.8259 L 65.8607,25.9689
 L 65.8556,26.1115 L 65.8402,26.2328 L 65.8145,26.3329 L 65.7787,26.4117 L 65.7312,26.4713 L 65.671,26.5139
 L 65.598,26.5395 L 65.5121,26.548 z
M 45.7545,26.6804 L 45.9232,26.5365 L 46.0244,26.2966 L 46.0581,25.9607 L 46.0499,25.7829 L 46.0254,25.6291
 L 45.9845,25.4995 L 45.9272,25.3938 L 45.8526,25.312 L 45.7596,25.2535 L 45.6481,25.2184 L 45.5183,25.2067
 L 45.4389,25.2105 L 45.3663,25.2219 L 45.3003,25.241 L 45.241,25.2677 L 45.1878,25.3032 L 45.1401,25.3487
 L 45.0979,25.4043 L 45.0613,25.4698 L 45.0558,25.4698 L 45.0582,25.4121 L 45.0599,25.3582 L 45.0609,25.3083
 L 45.0613,25.2623 L 45.0613,24.6886 L 44.8171,24.6886 L 44.8171,26.3988 L 44.8166,26.5037 L 44.8151,26.589
 L 44.8126,26.6549 L 44.809,26.7012 L 45.045,26.7012 L 45.0465,26.6899 L 45.0484,26.6695 L 45.0506,26.6401
 L 45.0531,26.6016 L 45.0555,26.5612 L 45.0572,26.5265 L 45.0582,26.4972 L 45.0586,26.4734 L 45.0613,26.4734
 L 45.0984,26.5359 L 45.1408,26.5892 L 45.1883,26.6332 L 45.241,26.668 L 45.2997,26.6944 L 45.3656,26.7133
 L 45.4384,26.7246 L 45.5183,26.7284 z
M 45.3567,26.5394 L 45.2745,26.5136 L 45.2068,26.4706 L 45.1535,26.4103 L 45.1131,26.332 L 45.0843,26.2349
 L 45.067,26.1188 L 45.0613,25.9838 L 45.0672,25.8409 L 45.0848,25.7187 L 45.1143,25.6171 L 45.1555,25.5363
 L 45.2096,25.4745 L 45.2778,25.4305 L 45.3599,25.404 L 45.4559,25.3952 L 45.5411,25.4035 L 45.6136,25.4284
 L 45.6734,25.47 L 45.7204,25.5281 L 45.756,25.6055 L 45.7814,25.7048 L 45.7967,25.8259 L 45.8018,25.9689
 L 45.7967,26.1115 L 45.7813,26.2328 L 45.7556,26.3329 L 45.7197,26.4117 L 45.6723,26.4713 L 45.6121,26.5139
 L 45.539,26.5395 L 45.4532,26.548 z
M 48.8377,25.836 L 48.8442,25.7401 L 48.8636,25.6546 L 48.896,25.5794 L 48.9414,25.5146 L 48.9976,25.4623
 L 49.0623,25.425 L 49.1356,25.4027 L 49.2174,25.3952 L 49.2719,25.3974 L 49.3202,25.404 L 49.3621,25.415
 L 49.3978,25.4305 L 49.4281,25.4506 L 49.4538,25.4757 L 49.4749,25.5059 L 49.4914,25.541 L 49.5038,25.5836
 L 49.5127,25.6361 L 49.5181,25.6985 L 49.5199,25.7709 L 49.5199,26.7012 L 49.7653,26.7012 L 49.7653,25.7234
 L 49.7583,25.5938 L 49.737,25.4842 L 49.7016,25.3947 L 49.6521,25.3254 L 49.5876,25.2734 L 49.5075,25.2363
 L 49.4117,25.2141 L 49.3002,25.2067 L 49.2191,25.2109 L 49.1454,25.2235 L 49.079,25.2444 L 49.0201,25.2738
 L 48.9668,25.3122 L 48.9175,25.3601 L 48.8722,25.4176 L 48.8309,25.4847 L 48.8268,25.4847 L 48.8277,25.4733
 L 48.829,25.4525 L 48.8308,25.4224 L 48.8329,25.383 L 48.835,25.3392 L 48.8365,25.2962 L 48.8374,25.2538
 L 48.8377,25.2121 L 48.8377,24.6886 L 48.5935,24.6886 L 48.5935,26.7012 L 48.8377,26.7012 z
M -70.1345,25.836 L -70.128,25.7401 L -70.1086,25.6546 L -70.0761,25.5794 L -70.0307,25.5146 L -69.9746,25.4623
 L -69.9099,25.425 L -69.8366,25.4027 L -69.7547,25.3952 L -69.7003,25.3974 L -69.652,25.404 L -69.6101,25.415
 L -69.5744,25.4305 L -69.5441,25.4506 L -69.5184,25.4757 L -69.4973,25.5059 L -69.4808,25.541 L -69.4683,25.5836
 L -69.4594,25.6361 L -69.4541,25.6985 L -69.4523,25.7709 L -69.4523,26.7012 L -69.2068,26.7012 L -69.2068,25.7234
 L -69.2139,25.5938 L -69.2351,25.4842 L -69.2705,25.3947 L -69.3201,25.3254 L -69.3845,25.2734 L -69.4647,25.2363
 L -69.5605,25.2141 L -69.672,25.2067 L -69.7531,25.2109 L -69.8268,25.2235 L -69.8931,25.2444 L -69.9521,25.2738
 L -70.0054,25.3122 L -70.0546,25.3601 L -70.0999,25.4176 L -70.1413,25.4847 L -70.1454,25.4847 L -70.1445,25.4733
 L -70.1431,25.4525 L -70.1414,25.4224 L -70.1393,25.383 L -70.1372,25.3392 L -70.1357,25.2962 L -70.1348,25.2538
 L -70.1345,25.2121 L -70.1345,24.6886 L -70.3786,24.6886 L -70.3786,26.7012 L -70.1345,26.7012 z
M -8.61586,25.836 L -8.60938,25.7401 L -8.58992,25.6546 L -8.55751,25.5794 L -8.51212,25.5146 L -8.45596,25.4623
 L -8.39124,25.425 L -8.31796,25.4027 L -8.23611,25.3952 L -8.18161,25.3974 L -8.13339,25.404 L -8.09143,25.415
 L -8.05574,25.4305 L -8.02548,25.4506 L -7.9998,25.4757 L -7.97868,25.5059 L -7.96216,25.541 L -7.94971,25.5836
 L -7.9408,25.6361 L -7.93546,25.6985 L -7.93369,25.7709 L -7.93369,26.7012 L -7.6882,26.7012 L -7.6882,25.7234
 L -7.69528,25.5938 L -7.71651,25.4842 L -7.75189,25.3947 L -7.80144,25.3254 L -7.86591,25.2734 L -7.94604,25.2363
 L -8.04187,25.2141 L -8.15338,25.2067 L -8.23447,25.2109 L -8.30817,25.2235 L -8.3745,25.2444 L -8.43346,25.2738
 L -8.48672,25.3122 L -8.53601,25.3601 L -8.58131,25.4176 L -8.62263,25.4847 L -8.62672,25.4847 L -8.62582,25.4733
 L -8.62451,25.4525 L -8.62277,25.4224 L -8.62062,25.383 L -8.61853,25.3392 L -8.61705,25.2962 L -8.61617,25.2538
 L -8.61586,25.2121 L -8.61586,24.6886 L -8.86,24.6886 L -8.86,26.7012 L -8.61586,26.7012 z
M -5.60533,24.6886 L -5.84947,24.6886 L -5.84947,24.9219 L -5.60533,24.9219 z
M -3.48723,25.836 L -3.48074,25.7401 L -3.46129,25.6546 L -3.42888,25.5794 L -3.38348,25.5146 L -3.32733,25.4623
 L -3.2626,25.425 L -3.18933,25.4027 L -3.10748,25.3952 L -3.05298,25.3974 L -3.00475,25.404 L -2.9628,25.415
 L -2.92711,25.4305 L -2.89685,25.4506 L -2.87117,25.4757 L -2.85005,25.5059 L -2.83353,25.541 L -2.82106,25.5836
 L -2.81216,25.6361 L -2.80682,25.6985 L -2.80505,25.7709 L -2.80505,26.7012 L -2.55957,26.7012 L -2.55957,25.7234
 L -2.56665,25.5938 L -2.58788,25.4842 L -2.62326,25.3947 L -2.67281,25.3254 L -2.73727,25.2734 L -2.81741,25.2363
 L -2.91324,25.2141 L -3.02475,25.2067 L -3.10583,25.2109 L -3.17953,25.2235 L -3.24586,25.2444 L -3.30482,25.2738
 L -3.35809,25.3122 L -3.40738,25.3601 L -3.45268,25.4176 L -3.494,25.4847 L -3.49809,25.4847 L -3.49719,25.4733
 L -3.49588,25.4525 L -3.49414,25.4224 L -3.49199,25.383 L -3.4899,25.3392 L -3.48842,25.2962 L -3.48752,25.2538
 L -3.48723,25.2121 L -3.48723,24.6886 L -3.73137,24.6886 L -3.73137,26.7012 L -3.48723,26.7012 z
M -59.4311,26.7245 L -59.3584,26.7131 L -59.2924,26.694 L -59.2331,26.6673 L -59.1799,26.6318 L -59.1323,26.5863
 L -59.0901,26.5308 L -59.0534,26.4653 L -59.048,26.4653 L -59.0477,26.4951 L -59.0468,26.5276 L -59.0453,26.5629
 L -59.0433,26.6009 L -59.0409,26.6367 L -59.0387,26.6653 L -59.0365,26.6868 L -59.0344,26.7012 L -58.8012,26.7012
 L -58.8047,26.6549 L -58.8073,26.589 L -58.8088,26.5037 L -58.8093,26.3988 L -58.8093,24.6886 L -59.0534,24.6886
 L -59.0534,25.2975 L -59.0507,25.4616 L -59.0534,25.4616 L -59.09,25.3997 L -59.1321,25.3467 L -59.1796,25.3027
 L -59.2325,25.2677 L -59.2915,25.241 L -59.3576,25.2219 L -59.4305,25.2105 L -59.5105,25.2067 L -59.7466,25.2547
 L -59.9153,25.3986 L -60.0165,25.6385 L -60.0503,25.9743 L -60.0421,26.1521 L -60.0175,26.3059 L -59.9766,26.4356
 L -59.9194,26.5412 L -59.8447,26.6231 L -59.7517,26.6816 L -59.6403,26.7167 L -59.5105,26.7284 z
M -59.5333,26.5315 L -59.6057,26.5066 L -59.6655,26.4651 L -59.7126,26.4069 L -59.7482,26.3295 L -59.7736,26.2303
 L -59.7888,26.1092 L -59.7939,25.9662 L -59.7888,25.8236 L -59.7734,25.7022 L -59.7478,25.6021 L -59.7119,25.5234
 L -59.6644,25.4637 L -59.6042,25.4211 L -59.5312,25.3956 L -59.4454,25.3871 L -59.3499,25.3955 L -59.2684,25.421
 L -59.2007,25.4633 L -59.147,25.5227 L -59.106,25.6002 L -59.0768,25.6973 L -59.0593,25.8138 L -59.0534,25.9499
 L -59.0593,26.0912 L -59.0768,26.2126 L -59.106,26.3143 L -59.147,26.3961 L -59.2009,26.459 L -59.2691,26.5039
 L -59.3514,26.5309 L -59.4481,26.5398 z
M -0.17215,26.7245 L -0.099472,26.7131 L -0.0334778,26.694 L 0.0257874,26.6673 L 0.0789948,26.6318 L 0.126678,26.5863
 L 0.168854,26.5308 L 0.205521,26.4653 L 0.210938,26.4653 L 0.211227,26.4951 L 0.212112,26.5276 L 0.213593,26.5629
 L 0.215668,26.6009 L 0.218002,26.6367 L 0.220261,26.6653 L 0.222412,26.6868 L 0.224487,26.7012 L 0.457779,26.7012
 L 0.454208,26.6549 L 0.451675,26.589 L 0.45015,26.5037 L 0.449631,26.3988 L 0.449631,24.6886 L 0.205521,24.6886
 L 0.205521,25.2975 L 0.208237,25.4616 L 0.205521,25.4616 L 0.168884,25.3997 L 0.126846,25.3467 L 0.0793762,25.3027
 L 0.026474,25.2677 L -0.0325928,25.241 L -0.0986176,25.2219 L -0.1716,25.2105 L -0.251526,25.2067 L -0.487686,25.2547
 L -0.656372,25.3986 L -0.757568,25.6385 L -0.791306,25.9743 L -0.783127,26.1521 L -0.758591,26.3059 L -0.717697,26.4356
 L -0.660431,26.5412 L -0.5858,26.6231 L -0.492767,26.6816 L -0.381348,26.7167 L -0.251526,26.7284 z
M -0.274323,26.5315 L -0.346802,26.5066 L -0.40657,26.4651 L -0.453613,26.4069 L -0.489212,26.3295 L -0.514648,26.2303
 L -0.529907,26.1092 L -0.534988,25.9662 L -0.529861,25.8236 L -0.514481,25.7022 L -0.488831,25.6021 L -0.452927,25.5234
 L -0.405502,25.4637 L -0.345276,25.4211 L -0.272247,25.3956 L -0.186432,25.3871 L -0.0909882,25.3955 L -0.00942993,25.421
 L 0.058197,25.4633 L 0.111938,25.5227 L 0.152878,25.6002 L 0.182114,25.6973 L 0.199661,25.8138 L 0.205521,25.9499
 L 0.199661,26.0912 L 0.182114,26.2126 L 0.152878,26.3143 L 0.111938,26.3961 L 0.0580292,26.459 L -0.0101166,26.5039
 L -0.0924988,26.5309 L -0.189133,26.5398 z
M 29.3841,25.836 L 29.3905,25.7401 L 29.41,25.6546 L 29.4424,25.5794 L 29.4878,25.5146 L 29.544,25.4623
 L 29.6087,25.425 L 29.682,25.4027 L 29.7638,25.3952 L 29.8183,25.3974 L 29.8665,25.404 L 29.9085,25.415
 L 29.9442,25.4305 L 29.9744,25.4506 L 30.0001,25.4757 L 30.0212,25.5059 L 30.0378,25.541 L 30.0502,25.5836
 L 30.0591,25.6361 L 30.0645,25.6985 L 30.0662,25.7709 L 30.0662,26.7012 L 30.3117,26.7012 L 30.3117,25.7234
 L 30.3046,25.5938 L 30.2834,25.4842 L 30.248,25.3947 L 30.1985,25.3254 L 30.134,25.2734 L 30.0539,25.2363
 L 29.9581,25.2141 L 29.8465,25.2067 L 29.7655,25.2109 L 29.6918,25.2235 L 29.6254,25.2444 L 29.5665,25.2738
 L 29.5132,25.3122 L 29.4639,25.3601 L 29.4186,25.4176 L 29.3773,25.4847 L 29.3732,25.4847 L 29.3741,25.4733
 L 29.3754,25.4525 L 29.3772,25.4224 L 29.3793,25.383 L 29.3814,25.3392 L 29.3829,25.2962 L 29.3838,25.2538
 L 29.3841,25.2121 L 29.3841,24.6886 L 29.1399,24.6886 L 29.1399,26.7012 L 29.3841,26.7012 z
M 1.03062,24.6886 L 0.786484,24.6886 L 0.786484,24.9219 L 1.03062,24.9219 z
M -12.934,25.4115 L -12.6478,25.4115 L -12.6478,25.2338 L -12.934,25.2338 L -12.934,25.1022 L -12.9314,25.0447
 L -12.9235,24.9968 L -12.9104,24.9586 L -12.892,24.93 L -12.8677,24.9092 L -12.837,24.8944 L -12.7999,24.8855
 L -12.7563,24.8825 L -12.7317,24.8832 L -12.7055,24.8852 L -12.6775,24.8886 L -12.6478,24.8934 L -12.6478,24.7076
 L -12.685,24.7005 L -12.7261,24.6954 L -12.7711,24.6923 L -12.8201,24.6913 L -12.9051,24.6968 L -12.9784,24.7133
 L -13.04,24.7409 L -13.09,24.7795 L -13.1285,24.8306 L -13.1561,24.8958 L -13.1726,24.975 L -13.1781,25.0683
 L -13.1781,25.2338 L -13.3843,25.2338 L -13.3843,25.4115 L -13.1781,25.4115 L -13.1781,26.7012 L -12.934,26.7012
 z
M 20.2419,25.4115 L 20.5281,25.4115 L 20.5281,25.2338 L 20.2419,25.2338 L 20.2419,25.1022 L 20.2446,25.0447
 L 20.2524,24.9968 L 20.2656,24.9586 L 20.284,24.93 L 20.3082,24.9092 L 20.3389,24.8944 L 20.376,24.8855
 L 20.4196,24.8825 L 20.4442,24.8832 L 20.4705,24.8852 L 20.4984,24.8886 L 20.5281,24.8934 L 20.5281,24.7076
 L 20.4909,24.7005 L 20.4498,24.6954 L 20.4048,24.6923 L 20.3559,24.6913 L 20.2708,24.6968 L 20.1975,24.7133
 L 20.1359,24.7409 L 20.086,24.7795 L 20.0474,24.8306 L 20.0199,24.8958 L 20.0033,24.975 L 19.9978,25.0683
 L 19.9978,25.2338 L 19.7917,25.2338 L 19.7917,25.4115 L 19.9978,25.4115 L 19.9978,26.7012 L 20.2419,26.7012
 z
M -64.0483,25.4115 L -63.7621,25.4115 L -63.7621,25.2338 L -64.0483,25.2338 L -64.0483,25.1022 L -64.0457,25.0447
 L -64.0378,24.9968 L -64.0247,24.9586 L -64.0063,24.93 L -63.982,24.9092 L -63.9513,24.8944 L -63.9142,24.8855
 L -63.8706,24.8825 L -63.8461,24.8832 L -63.8198,24.8852 L -63.7918,24.8886 L -63.7621,24.8934 L -63.7621,24.7076
 L -63.7993,24.7005 L -63.8405,24.6954 L -63.8855,24.6923 L -63.9344,24.6913 L -64.0194,24.6968 L -64.0927,24.7133
 L -64.1543,24.7409 L -64.2043,24.7795 L -64.2428,24.8306 L -64.2704,24.8958 L -64.2869,24.975 L -64.2924,25.0683
 L -64.2924,25.2338 L -64.4986,25.2338 L -64.4986,25.4115 L -64.2924,25.4115 L -64.2924,26.7012 L -64.0483,26.7012
 z
M 51.1529,25.4115 L 51.4391,25.4115 L 51.4391,25.2338 L 51.1529,25.2338 L 51.1529,25.1022 L 51.1555,25.0447
 L 51.1634,24.9968 L 51.1765,24.9586 L 51.1949,24.93 L 51.2192,24.9092 L 51.2499,24.8944 L 51.287,24.8855
 L 51.3306,24.8825 L 51.3551,24.8832 L 51.3814,24.8852 L 51.4094,24.8886 L 51.4391,24.8934 L 51.4391,24.7076
 L 51.4019,24.7005 L 51.3607,24.6954 L 51.3157,24.6923 L 51.2668,24.6913 L 51.1818,24.6968 L 51.1085,24.7133
 L 51.0469,24.7409 L 50.9969,24.7795 L 50.9584,24.8306 L 50.9308,24.8958 L 50.9143,24.975 L 50.9088,25.0683
 L 50.9088,25.2338 L 50.7026,25.2338 L 50.7026,25.4115 L 50.9088,25.4115 L 50.9088,26.7012 L 51.1529,26.7012
 z
M 18.4114,26.7193 L 18.5404,26.6921 L 18.6515,26.6467 L 18.7445,26.5832 L 18.8181,26.5032 L 18.8707,26.4083
 L 18.9022,26.2984 L 18.9127,26.1737 L 18.9052,26.086 L 18.8829,26.0062 L 18.8456,25.9341 L 18.7933,25.8699
 L 18.7277,25.8156 L 18.6503,25.7736 L 18.5609,25.7437 L 18.4597,25.7261 L 18.4597,25.7207 L 18.5516,25.6957
 L 18.6318,25.6615 L 18.7004,25.6181 L 18.7574,25.5654 L 18.8022,25.5038 L 18.8342,25.4337 L 18.8534,25.355
 L 18.8598,25.2677 L 18.8499,25.1549 L 18.82,25.0553 L 18.7702,24.9688 L 18.7005,24.8954 L 18.6128,24.837
 L 18.5091,24.7952 L 18.3893,24.7702 L 18.2536,24.7618 L 18.128,24.77 L 18.0144,24.7947 L 17.9127,24.8358
 L 17.823,24.8934 L 17.748,24.9656 L 17.6906,25.0507 L 17.6507,25.1487 L 17.6283,25.2596 L 17.8738,25.2786
 L 17.8872,25.2075 L 17.9109,25.145 L 17.9452,25.0909 L 17.9898,25.0453 L 18.0435,25.0091 L 18.1049,24.9832
 L 18.174,24.9677 L 18.2509,24.9625 L 18.3342,24.9681 L 18.4066,24.9847 L 18.4681,25.0125 L 18.5187,25.0514
 L 18.5582,25.0998 L 18.5863,25.1563 L 18.6033,25.2209 L 18.6089,25.2935 L 18.602,25.3666 L 18.5813,25.4313
 L 18.5467,25.4876 L 18.4984,25.5356 L 18.4375,25.5738 L 18.3653,25.6012 L 18.2818,25.6176 L 18.1871,25.623
 L 18.0542,25.623 L 18.0542,25.8346 L 18.1925,25.8346 L 18.2991,25.8401 L 18.3924,25.8565 L 18.4724,25.8838
 L 18.5391,25.9221 L 18.5916,25.9701 L 18.6291,26.0267 L 18.6516,26.0918 L 18.6591,26.1655 L 18.6525,26.2495
 L 18.6328,26.3225 L 18.5999,26.3845 L 18.554,26.4354 L 18.4965,26.4752 L 18.429,26.5036 L 18.3517,26.5206
 L 18.2644,26.5263 L 18.1006,26.5051 L 17.9766,26.4415 L 17.8924,26.3356 L 17.8481,26.1872 L 17.5958,26.2103
 L 17.6208,26.3306 L 17.6634,26.4352 L 17.7236,26.5242 L 17.8013,26.5975 L 17.8951,26.6547 L 18.0035,26.6956
 L 18.1266,26.7202 L 18.2644,26.7284 z
M -65.3952,26.4937 L -66.392,26.4937 L -66.3684,26.4458 L -66.3384,26.3969 L -66.302,26.3471 L -66.2591,26.2964
 L -66.209,26.2436 L -66.1509,26.1877 L -66.0849,26.1287 L -66.0109,26.0665 L -65.8806,25.9588 L -65.7732,25.8661
 L -65.6887,25.7886 L -65.6271,25.7261 L -65.58,25.6712 L -65.5391,25.6163 L -65.5044,25.5613 L -65.4759,25.5064
 L -65.4536,25.4514 L -65.4377,25.3962 L -65.4282,25.3409 L -65.425,25.2853 L -65.4347,25.167 L -65.4638,25.0631
 L -65.5124,24.9734 L -65.5803,24.8981 L -65.6663,24.8385 L -65.769,24.7959 L -65.8884,24.7703 L -66.0245,24.7618
 L -66.15,24.7703 L -66.2637,24.7957 L -66.3654,24.8381 L -66.4551,24.8975 L -66.5301,24.9711 L -66.5875,25.0565
 L -66.6274,25.1535 L -66.6497,25.2623 L -66.4001,25.2853 L -66.3861,25.213 L -66.3617,25.1492 L -66.3268,25.094
 L -66.2815,25.0473 L -66.2275,25.0102 L -66.1667,24.9837 L -66.099,24.9678 L -66.0245,24.9625 L -65.9469,24.968
 L -65.8783,24.9842 L -65.8187,25.0114 L -65.7681,25.0493 L -65.7278,25.0972 L -65.699,25.1538 L -65.6817,25.2192
 L -65.6759,25.2935 L -65.6792,25.3503 L -65.6893,25.404 L -65.706,25.4547 L -65.7295,25.5023 L -65.7583,25.5479
 L -65.7914,25.5925 L -65.8285,25.6361 L -65.8699,25.6787 L -65.9146,25.7207 L -65.9619,25.7627 L -66.0119,25.8048
 L -66.0645,25.8468 L -66.1185,25.8898 L -66.1728,25.9345 L -66.2274,25.981 L -66.2822,26.0292 L -66.3364,26.0798
 L -66.3895,26.1333 L -66.4412,26.1897 L -66.4917,26.2489 L -66.5396,26.312 L -66.5837,26.3797 L -66.6241,26.452
 L -66.6605,26.529 L -66.6605,26.7012 L -65.3952,26.7012 z
M -40.527,25.9079 L -39.9316,25.9079 L -39.4352,26.7012 L -39.1369,26.7012 L -39.6794,25.878 L -39.5761,25.8523
 L -39.4846,25.8132 L -39.4049,25.7608 L -39.3369,25.6949 L -39.2826,25.6181 L -39.2439,25.5329 L -39.2206,25.4391
 L -39.2128,25.3369 L -39.2238,25.2151 L -39.2567,25.1075 L -39.3116,25.014 L -39.3885,24.9347 L -39.4855,24.8716
 L -39.6009,24.8264 L -39.7347,24.7993 L -39.8869,24.7903 L -40.7861,24.7903 L -40.7861,26.7012 L -40.527,26.7012
 z
M -40.527,25.7031 L -40.527,24.9978 L -39.9126,24.9978 L -39.8124,25.0033 L -39.7247,25.0197 L -39.6493,25.047
 L -39.5865,25.0853 L -39.5369,25.134 L -39.5015,25.1926 L -39.4803,25.2611 L -39.4732,25.3396 L -39.4802,25.4209
 L -39.5012,25.4927 L -39.5362,25.5548 L -39.5851,25.6074 L -39.6469,25.6493 L -39.7202,25.6792 L -39.8052,25.6971
 L -39.9018,25.7031 z
M -42.3296,26.1425 L -41.4589,26.1425 L -41.2405,26.7012 L -40.976,26.7012 L -41.7437,24.7903 L -42.038,24.7903
 L -42.8178,26.7012 L -42.5493,26.7012 z
M -42.2509,25.9404 L -42.0068,25.3125 L -41.9756,25.2283 L -41.9485,25.1521 L -41.9254,25.0838 L -41.9064,25.0236
 L -41.8942,24.9856 L -41.8576,25.0982 L -41.8386,25.1556 L -41.8196,25.2101 L -41.8007,25.2614 L -41.7817,25.3097
 L -41.5362,25.9404 z
M -37.3216,26.4897 L -38.568,26.4897 L -38.568,25.8238 L -37.4586,25.8238 L -37.4586,25.6149 L -38.568,25.6149
 L -38.568,25.0019 L -37.3772,25.0019 L -37.3772,24.7903 L -38.8271,24.7903 L -38.8271,26.7012 L -37.3216,26.7012
 z
M -70.7576,26.7209 L -70.6956,26.7148 L -70.6342,26.7046 L -70.5735,26.6904 L -70.5735,26.51 L -70.6169,26.5183
 L -70.6549,26.5242 L -70.6874,26.5278 L -70.7146,26.529 L -70.7541,26.5263 L -70.7873,26.5183 L -70.8141,26.505
 L -70.8346,26.4863 L -70.8497,26.461 L -70.8605,26.4278 L -70.867,26.3867 L -70.8692,26.3378 L -70.8692,25.4115
 L -70.5979,25.4115 L -70.5979,25.2338 L -70.8692,25.2338 L -70.8692,24.9056 L -71.0319,24.9056 L -71.1038,25.2338
 L -71.2829,25.2338 L -71.2829,25.4115 L -71.1133,25.4115 L -71.1133,26.3907 L -71.095,26.536 L -71.0401,26.6399
 L -70.9485,26.7022 L -70.8204,26.7229 z
M -30.0437,26.7209 L -29.9816,26.7148 L -29.9203,26.7046 L -29.8596,26.6904 L -29.8596,26.51 L -29.903,26.5183
 L -29.9409,26.5242 L -29.9735,26.5278 L -30.0006,26.529 L -30.0401,26.5263 L -30.0733,26.5183 L -30.1002,26.505
 L -30.1206,26.4863 L -30.1358,26.461 L -30.1466,26.4278 L -30.1531,26.3867 L -30.1552,26.3378 L -30.1552,25.4115
 L -29.884,25.4115 L -29.884,25.2338 L -30.1552,25.2338 L -30.1552,24.9056 L -30.318,24.9056 L -30.3899,25.2338
 L -30.5689,25.2338 L -30.5689,25.4115 L -30.3993,25.4115 L -30.3993,26.3907 L -30.381,26.536 L -30.3261,26.6399
 L -30.2346,26.7022 L -30.1064,26.7229 z
M -35.9247,26.7209 L -35.8626,26.7148 L -35.8012,26.7046 L -35.7406,26.6904 L -35.7406,26.51 L -35.784,26.5183
 L -35.8219,26.5242 L -35.8545,26.5278 L -35.8816,26.529 L -35.9211,26.5263 L -35.9543,26.5183 L -35.9812,26.505
 L -36.0016,26.4863 L -36.0168,26.461 L -36.0276,26.4278 L -36.0341,26.3867 L -36.0362,26.3378 L -36.0362,25.4115
 L -35.765,25.4115 L -35.765,25.2338 L -36.0362,25.2338 L -36.0362,24.9056 L -36.199,24.9056 L -36.2709,25.2338
 L -36.4499,25.2338 L -36.4499,25.4115 L -36.2803,25.4115 L -36.2803,26.3907 L -36.262,26.536 L -36.2071,26.6399
 L -36.1156,26.7022 L -35.9874,26.7229 z
M -25.5217,26.7209 L -25.4596,26.7148 L -25.3982,26.7046 L -25.3376,26.6904 L -25.3376,26.51 L -25.381,26.5183
 L -25.4189,26.5242 L -25.4515,26.5278 L -25.4786,26.529 L -25.5181,26.5263 L -25.5513,26.5183 L -25.5782,26.505
 L -25.5986,26.4863 L -25.6138,26.461 L -25.6246,26.4278 L -25.631,26.3867 L -25.6332,26.3378 L -25.6332,25.4115
 L -25.362,25.4115 L -25.362,25.2338 L -25.6332,25.2338 L -25.6332,24.9056 L -25.7959,24.9056 L -25.8678,25.2338
 L -26.0469,25.2338 L -26.0469,25.4115 L -25.8773,25.4115 L -25.8773,26.3907 L -25.859,26.536 L -25.8041,26.6399
 L -25.7126,26.7022 L -25.5844,26.7229 z
M -1.84804,26.7209 L -1.786,26.7148 L -1.72462,26.7046 L -1.66394,26.6904 L -1.66394,26.51 L -1.70734,26.5183
 L -1.7453,26.5242 L -1.77785,26.5278 L -1.80498,26.529 L -1.84453,26.5263 L -1.87772,26.5183 L -1.90454,26.505
 L -1.92502,26.4863 L -1.94014,26.461 L -1.95094,26.4278 L -1.95743,26.3867 L -1.95959,26.3378 L -1.95959,25.4115
 L -1.68834,25.4115 L -1.68834,25.2338 L -1.95959,25.2338 L -1.95959,24.9056 L -2.12233,24.9056 L -2.19423,25.2338
 L -2.37326,25.2338 L -2.37326,25.4115 L -2.20372,25.4115 L -2.20372,26.3907 L -2.18541,26.536 L -2.13048,26.6399
 L -2.03894,26.7022 L -1.91078,26.7229 z
M 12.7789,26.7209 L 12.841,26.7148 L 12.9024,26.7046 L 12.963,26.6904 L 12.963,26.51 L 12.9196,26.5183
 L 12.8817,26.5242 L 12.8491,26.5278 L 12.822,26.529 L 12.7825,26.5263 L 12.7493,26.5183 L 12.7224,26.505
 L 12.702,26.4863 L 12.6868,26.461 L 12.676,26.4278 L 12.6695,26.3867 L 12.6674,26.3378 L 12.6674,25.4115
 L 12.9386,25.4115 L 12.9386,25.2338 L 12.6674,25.2338 L 12.6674,24.9056 L 12.5046,24.9056 L 12.4327,25.2338
 L 12.2537,25.2338 L 12.2537,25.4115 L 12.4233,25.4115 L 12.4233,26.3907 L 12.4416,26.536 L 12.4965,26.6399
 L 12.588,26.7022 L 12.7162,26.7229 z
M 31.7769,26.7209 L 31.839,26.7148 L 31.9003,26.7046 L 31.961,26.6904 L 31.961,26.51 L 31.9176,26.5183
 L 31.8797,26.5242 L 31.8471,26.5278 L 31.82,26.529 L 31.7804,26.5263 L 31.7473,26.5183 L 31.7204,26.505
 L 31.7,26.4863 L 31.6848,26.461 L 31.674,26.4278 L 31.6675,26.3867 L 31.6654,26.3378 L 31.6654,25.4115
 L 31.9366,25.4115 L 31.9366,25.2338 L 31.6654,25.2338 L 31.6654,24.9056 L 31.5026,24.9056 L 31.4307,25.2338
 L 31.2517,25.2338 L 31.2517,25.4115 L 31.4212,25.4115 L 31.4212,26.3907 L 31.4396,26.536 L 31.4945,26.6399
 L 31.586,26.7022 L 31.7142,26.7229 z
M 48.2145,26.7209 L 48.2766,26.7148 L 48.338,26.7046 L 48.3987,26.6904 L 48.3987,26.51 L 48.3553,26.5183
 L 48.3173,26.5242 L 48.2847,26.5278 L 48.2576,26.529 L 48.2181,26.5263 L 48.1849,26.5183 L 48.158,26.505
 L 48.1376,26.4863 L 48.1224,26.461 L 48.1116,26.4278 L 48.1051,26.3867 L 48.103,26.3378 L 48.103,25.4115
 L 48.3743,25.4115 L 48.3743,25.2338 L 48.103,25.2338 L 48.103,24.9056 L 47.9402,24.9056 L 47.8683,25.2338
 L 47.6893,25.2338 L 47.6893,25.4115 L 47.8589,25.4115 L 47.8589,26.3907 L 47.8772,26.536 L 47.9321,26.6399
 L 48.0237,26.7022 L 48.1518,26.7229 z
M -55.0737,26.7209 L -55.0116,26.7148 L -54.9503,26.7046 L -54.8896,26.6904 L -54.8896,26.51 L -54.933,26.5183
 L -54.9709,26.5242 L -55.0035,26.5278 L -55.0306,26.529 L -55.0702,26.5263 L -55.1034,26.5183 L -55.1302,26.505
 L -55.1507,26.4863 L -55.1658,26.461 L -55.1766,26.4278 L -55.1831,26.3867 L -55.1852,26.3378 L -55.1852,25.4115
 L -54.914,25.4115 L -54.914,25.2338 L -55.1852,25.2338 L -55.1852,24.9056 L -55.348,24.9056 L -55.4199,25.2338
 L -55.5989,25.2338 L -55.5989,25.4115 L -55.4294,25.4115 L -55.4294,26.3907 L -55.4111,26.536 L -55.3561,26.6399
 L -55.2646,26.7022 L -55.1364,26.7229 z
M 28.7609,26.7209 L 28.823,26.7148 L 28.8843,26.7046 L 28.945,26.6904 L 28.945,26.51 L 28.9016,26.5183
 L 28.8637,26.5242 L 28.8311,26.5278 L 28.804,26.529 L 28.7645,26.5263 L 28.7312,26.5183 L 28.7044,26.505
 L 28.684,26.4863 L 28.6688,26.461 L 28.658,26.4278 L 28.6515,26.3867 L 28.6494,26.3378 L 28.6494,25.4115
 L 28.9206,25.4115 L 28.9206,25.2338 L 28.6494,25.2338 L 28.6494,24.9056 L 28.4866,24.9056 L 28.4147,25.2338
 L 28.2357,25.2338 L 28.2357,25.4115 L 28.4053,25.4115 L 28.4053,26.3907 L 28.4236,26.536 L 28.4785,26.6399
 L 28.57,26.7022 L 28.6982,26.7229 z
M -16.7579,25.8509 L -16.7515,25.7496 L -16.7324,25.66 L -16.7006,25.5821 L -16.6561,25.5159 L -16.6006,25.4631
 L -16.5358,25.4254 L -16.4616,25.4027 L -16.3781,25.3952 L -16.3214,25.3974 L -16.272,25.404 L -16.2299,25.415
 L -16.195,25.4305 L -16.166,25.4509 L -16.1411,25.4769 L -16.1205,25.5085 L -16.1042,25.5457 L -16.0917,25.5898
 L -16.0828,25.642 L -16.0775,25.7024 L -16.0757,25.7709 L -16.0757,26.7012 L -15.8302,26.7012 L -15.8302,25.7234
 L -15.8372,25.5948 L -15.8582,25.4859 L -15.8931,25.3965 L -15.9421,25.3267 L -16.0061,25.2742 L -16.0863,25.2367
 L -16.1828,25.2142 L -16.2954,25.2067 L -16.3741,25.2106 L -16.4461,25.2224 L -16.5114,25.2421 L -16.57,25.2697
 L -16.6236,25.3068 L -16.6739,25.355 L -16.7209,25.4143 L -16.7646,25.4847 L -16.7687,25.4847 L -16.77,25.4354
 L -16.7712,25.3947 L -16.7724,25.3625 L -16.7735,25.3389 L -16.7753,25.3025 L -16.7775,25.2569 L -16.7782,25.2463
 L -16.7789,25.2386 L -16.7796,25.2338 L -17.0101,25.2338 L -17.0066,25.2747 L -17.004,25.3406 L -17.0025,25.4314
 L -17.002,25.5471 L -17.002,26.7012 L -16.7579,26.7012 z
M -21.927,26.7067 L -21.7565,26.6416 L -21.6279,26.5331 L -21.5412,26.3812 L -21.7555,26.3201 L -21.7763,26.3669
 L -21.8049,26.4093 L -21.8411,26.4475 L -21.885,26.4815 L -21.9368,26.5094 L -21.9964,26.5293 L -22.0639,26.5413
 L -22.1393,26.5453 L -22.2337,26.5367 L -22.316,26.511 L -22.3863,26.4682 L -22.4445,26.4083 L -22.4902,26.3326
 L -22.5228,26.2425 L -22.5424,26.138 L -22.5489,26.019 L -21.5019,26.019 L -21.5019,25.9865 L -21.5423,25.6453
 L -21.6636,25.4016 L -21.8658,25.2554 L -22.1488,25.2067 L -22.2977,25.2188 L -22.4284,25.2552 L -22.5408,25.3158
 L -22.635,25.4006 L -22.7095,25.5082 L -22.7627,25.6369 L -22.7946,25.7869 L -22.8052,25.958 L -22.7946,26.1375
 L -22.7627,26.2934 L -22.7095,26.4257 L -22.635,26.5344 L -22.5402,26.6193 L -22.426,26.6799 L -22.2924,26.7162
 L -22.1393,26.7284 z
M -22.5462,25.8319 L -22.5362,25.7337 L -22.5142,25.6466 L -22.4802,25.5706 L -22.4343,25.5057 L -22.3778,25.4538
 L -22.3121,25.4167 L -22.2371,25.3945 L -22.1529,25.3871 L -22.0667,25.3937 L -21.9912,25.4137 L -21.9263,25.4469
 L -21.8722,25.4935 L -21.8282,25.5546 L -21.7938,25.6313 L -21.7692,25.7238 L -21.7542,25.8319 z
M 67.1156,26.7166 L 67.2483,26.6812 L 67.3618,26.6223 L 67.4562,26.5398 L 67.5303,26.4333 L 67.5833,26.3022
 L 67.6151,26.1465 L 67.6257,25.9662 L 67.6158,25.7843 L 67.586,25.628 L 67.5364,25.4971 L 67.467,25.3918
 L 67.3766,25.3108 L 67.2639,25.253 L 67.129,25.2182 L 66.972,25.2067 L 66.6842,25.2542 L 66.4787,25.3965
 L 66.3553,25.6339 L 66.3142,25.9662 L 66.3245,26.1404 L 66.3552,26.2928 L 66.4065,26.4235 L 66.4783,26.5324
 L 66.5702,26.6181 L 66.6817,26.6794 L 66.813,26.7161 L 66.9638,26.7284 z
M 66.8668,26.5389 L 66.786,26.5115 L 66.7186,26.466 L 66.6648,26.4022 L 66.6235,26.3203 L 66.5941,26.2203
 L 66.5764,26.1022 L 66.5705,25.9662 L 66.5765,25.8269 L 66.5944,25.7073 L 66.6243,25.6075 L 66.6661,25.5274
 L 66.7214,25.466 L 66.7914,25.4221 L 66.8763,25.3958 L 66.976,25.3871 L 67.0748,25.3957 L 67.1583,25.4215
 L 67.2264,25.4645 L 67.2792,25.5247 L 67.3186,25.6039 L 67.3468,25.7039 L 67.3637,25.8247 L 67.3694,25.9662
 L 67.3635,26.1061 L 67.3458,26.2262 L 67.3163,26.3265 L 67.2751,26.4069 L 67.2201,26.4686 L 67.1495,26.5127
 L 67.0631,26.5392 L 66.9611,26.548 z
M 52.0639,26.724 L 52.1427,26.7109 L 52.2148,26.6891 L 52.2802,26.6585 L 52.3404,26.6175 L 52.3967,26.5641
 L 52.4492,26.4984 L 52.4979,26.4205 L 52.506,26.4205 L 52.5134,26.4914 L 52.5275,26.5522 L 52.5484,26.603
 L 52.5759,26.6436 L 52.6113,26.6748 L 52.6561,26.697 L 52.71,26.7104 L 52.7732,26.7148 L 52.8211,26.7134
 L 52.8685,26.7094 L 52.9153,26.7026 L 52.9617,26.6931 L 52.9617,26.5412 L 52.9399,26.5454 L 52.9193,26.5483
 L 52.8999,26.5501 L 52.8817,26.5507 L 52.8449,26.5473 L 52.8146,26.537 L 52.7907,26.5198 L 52.7732,26.4958
 L 52.7607,26.465 L 52.7518,26.4275 L 52.7465,26.3832 L 52.7447,26.3323 L 52.7447,25.7003 L 52.736,25.5874
 L 52.7098,25.4886 L 52.6661,25.404 L 52.605,25.3335 L 52.5266,25.278 L 52.4311,25.2384 L 52.3184,25.2146
 L 52.1887,25.2067 L 51.9545,25.2314 L 51.7784,25.3057 L 51.6602,25.4294 L 51.6001,25.6027 L 51.855,25.6258
 L 51.8662,25.5689 L 51.8849,25.5203 L 51.911,25.4801 L 51.9445,25.4481 L 51.9874,25.4238 L 52.0415,25.4064
 L 52.1068,25.396 L 52.1832,25.3925 L 52.2592,25.3973 L 52.3243,25.4118 L 52.3785,25.436 L 52.4219,25.4698
 L 52.4552,25.5148 L 52.4789,25.5725 L 52.4931,25.643 L 52.4979,25.7261 L 52.4979,25.8061 L 52.1683,25.8116
 L 52.013,25.8228 L 51.8806,25.8482 L 51.7712,25.8878 L 51.6848,25.9418 L 51.6192,26.0094 L 51.5724,26.0903
 L 51.5443,26.1843 L 51.535,26.2917 L 51.5419,26.388 L 51.5628,26.4734 L 51.5975,26.548 L 51.6461,26.6117
 L 51.7086,26.6628 L 51.7848,26.6992 L 51.8748,26.7211 L 51.9784,26.7284 z
M 51.9778,26.5412 L 51.9284,26.529 L 51.8859,26.5087 L 51.8503,26.4802 L 51.8221,26.4442 L 51.802,26.4015
 L 51.7899,26.352 L 51.7859,26.2957 L 51.7888,26.2434 L 51.7977,26.1964 L 51.8125,26.1546 L 51.8333,26.1181
 L 51.8596,26.0864 L 51.8911,26.0591 L 51.9278,26.0362 L 51.9696,26.0177 L 52.0193,26.0033 L 52.0793,25.9926
 L 52.1498,25.9857 L 52.2307,25.9824 L 52.4979,25.977 L 52.4979,26.0977 L 52.4941,26.1536 L 52.4828,26.2088
 L 52.4639,26.2631 L 52.4375,26.3167 L 52.4046,26.3671 L 52.3661,26.4118 L 52.3222,26.4509 L 52.2727,26.4842
 L 52.2187,26.5109 L 52.1609,26.53 L 52.0993,26.5415 L 52.0341,26.5453 z
M -14.7678,26.7166 L -14.6352,26.6812 L -14.5217,26.6223 L -14.4273,26.5398 L -14.3531,26.4333 L -14.3002,26.3022
 L -14.2684,26.1465 L -14.2578,25.9662 L -14.2677,25.7843 L -14.2975,25.628 L -14.347,25.4971 L -14.4165,25.3918
 L -14.5069,25.3108 L -14.6196,25.253 L -14.7544,25.2182 L -14.9115,25.2067 L -15.1993,25.2542 L -15.4048,25.3965
 L -15.5282,25.6339 L -15.5693,25.9662 L -15.559,26.1404 L -15.5283,26.2928 L -15.477,26.4235 L -15.4052,26.5324
 L -15.3133,26.6181 L -15.2017,26.6794 L -15.0705,26.7161 L -14.9196,26.7284 z
M -15.0167,26.5389 L -15.0975,26.5115 L -15.1648,26.466 L -15.2187,26.4022 L -15.2599,26.3203 L -15.2894,26.2203
 L -15.3071,26.1022 L -15.313,25.9662 L -15.307,25.8269 L -15.2891,25.7073 L -15.2592,25.6075 L -15.2173,25.5274
 L -15.1621,25.466 L -15.0921,25.4221 L -15.0072,25.3958 L -14.9074,25.3871 L -14.8086,25.3957 L -14.7252,25.4215
 L -14.6571,25.4645 L -14.6043,25.5247 L -14.5649,25.6039 L -14.5367,25.7039 L -14.5198,25.8247 L -14.5141,25.9662
 L -14.52,26.1061 L -14.5377,26.2262 L -14.5671,26.3265 L -14.6084,26.4069 L -14.6633,26.4686 L -14.734,26.5127
 L -14.8203,26.5392 L -14.9224,26.548 z
M 55.2782,26.7067 L 55.4487,26.6416 L 55.5773,26.5331 L 55.664,26.3812 L 55.4497,26.3201 L 55.4289,26.3669
 L 55.4003,26.4093 L 55.3641,26.4475 L 55.3202,26.4815 L 55.2684,26.5094 L 55.2088,26.5293 L 55.1413,26.5413
 L 55.0659,26.5453 L 54.9715,26.5367 L 54.8892,26.511 L 54.8189,26.4682 L 54.7607,26.4083 L 54.715,26.3326
 L 54.6824,26.2425 L 54.6628,26.138 L 54.6563,26.019 L 55.7033,26.019 L 55.7033,25.9865 L 55.6629,25.6453
 L 55.5416,25.4016 L 55.3394,25.2554 L 55.0564,25.2067 L 54.9075,25.2188 L 54.7768,25.2552 L 54.6644,25.3158
 L 54.5702,25.4006 L 54.4957,25.5082 L 54.4425,25.6369 L 54.4106,25.7869 L 54.3999,25.958 L 54.4106,26.1375
 L 54.4425,26.2934 L 54.4957,26.4257 L 54.5702,26.5344 L 54.665,26.6193 L 54.7792,26.6799 L 54.9128,26.7162
 L 55.0659,26.7284 z
M 54.659,25.8319 L 54.669,25.7337 L 54.691,25.6466 L 54.725,25.5706 L 54.7709,25.5057 L 54.8274,25.4538
 L 54.8931,25.4167 L 54.9681,25.3945 L 55.0523,25.3871 L 55.1385,25.3937 L 55.214,25.4137 L 55.2789,25.4469
 L 55.333,25.4935 L 55.377,25.5546 L 55.4114,25.6313 L 55.436,25.7238 L 55.451,25.8319 z
M -26.5837,26.7205 L -26.4823,26.6968 L -26.3911,26.6574 L -26.3101,26.6022 L -26.2418,26.5338 L -26.189,26.4547
 L -26.1517,26.365 L -26.1297,26.2645 L -26.3765,26.2483 L -26.3909,26.3167 L -26.4137,26.3757 L -26.4448,26.4252
 L -26.4844,26.4653 L -26.5308,26.4961 L -26.5825,26.5182 L -26.6396,26.5314 L -26.702,26.5358 L -26.7891,26.527
 L -26.8644,26.5005 L -26.9281,26.4565 L -26.9801,26.3947 L -27.0204,26.3147 L -27.0492,26.2157 L -27.0665,26.0977
 L -27.0723,25.9607 L -27.0669,25.8192 L -27.0506,25.6997 L -27.0235,25.6022 L -26.9855,25.5268 L -26.9354,25.4704
 L -26.8719,25.4301 L -26.795,25.4059 L -26.7047,25.3979 L -26.6376,25.4024 L -26.5786,25.4159 L -26.5278,25.4383
 L -26.485,25.4698 L -26.45,25.5089 L -26.4223,25.5542 L -26.4019,25.6058 L -26.3887,25.6637 L -26.1378,25.6447
 L -26.1637,25.5479 L -26.2034,25.462 L -26.257,25.3871 L -26.3243,25.3233 L -26.4034,25.2723 L -26.492,25.2358
 L -26.5902,25.214 L -26.698,25.2067 L -26.841,25.2188 L -26.9665,25.2553 L -27.0743,25.3161 L -27.1645,25.4013
 L -27.2357,25.5096 L -27.2866,25.6398 L -27.3171,25.792 L -27.3273,25.9662 L -27.3171,26.1415 L -27.2867,26.2945
 L -27.2361,26.4253 L -27.1652,26.5337 L -27.075,26.6189 L -26.9667,26.6797 L -26.8401,26.7162 L -26.6953,26.7284
 z
M 47.0567,26.7166 L 47.1894,26.6812 L 47.3029,26.6223 L 47.3972,26.5398 L 47.4714,26.4333 L 47.5244,26.3022
 L 47.5562,26.1465 L 47.5668,25.9662 L 47.5569,25.7843 L 47.5271,25.628 L 47.4775,25.4971 L 47.4081,25.3918
 L 47.3176,25.3108 L 47.205,25.253 L 47.0701,25.2182 L 46.9131,25.2067 L 46.6253,25.2542 L 46.4197,25.3965
 L 46.2964,25.6339 L 46.2553,25.9662 L 46.2655,26.1404 L 46.2963,26.2928 L 46.3476,26.4235 L 46.4194,26.5324
 L 46.5113,26.6181 L 46.6228,26.6794 L 46.754,26.7161 L 46.9049,26.7284 z
M 46.8079,26.5389 L 46.7271,26.5115 L 46.6597,26.466 L 46.6059,26.4022 L 46.5646,26.3203 L 46.5352,26.2203
 L 46.5175,26.1022 L 46.5116,25.9662 L 46.5176,25.8269 L 46.5355,25.7073 L 46.5654,25.6075 L 46.6072,25.5274
 L 46.6624,25.466 L 46.7325,25.4221 L 46.8174,25.3958 L 46.9171,25.3871 L 47.0159,25.3957 L 47.0994,25.4215
 L 47.1675,25.4645 L 47.2202,25.5247 L 47.2597,25.6039 L 47.2879,25.7039 L 47.3048,25.8247 L 47.3104,25.9662
 L 47.3046,26.1061 L 47.2869,26.2262 L 47.2574,26.3265 L 47.2162,26.4069 L 47.1612,26.4686 L 47.0905,26.5127
 L 47.0042,26.5392 L 46.9022,26.548 z
M 42.8044,25.8509 L 42.8107,25.7496 L 42.8298,25.66 L 42.8616,25.5821 L 42.9061,25.5159 L 42.9616,25.4631
 L 43.0265,25.4254 L 43.1006,25.4027 L 43.1841,25.3952 L 43.2408,25.3974 L 43.2902,25.404 L 43.3324,25.415
 L 43.3672,25.4305 L 43.3963,25.4509 L 43.4211,25.4769 L 43.4417,25.5085 L 43.4581,25.5457 L 43.4705,25.5898
 L 43.4794,25.642 L 43.4848,25.7024 L 43.4866,25.7709 L 43.4866,26.7012 L 43.732,26.7012 L 43.732,25.7234
 L 43.7251,25.5948 L 43.7041,25.4859 L 43.6691,25.3965 L 43.6201,25.3267 L 43.5561,25.2742 L 43.4759,25.2367
 L 43.3795,25.2142 L 43.2669,25.2067 L 43.1881,25.2106 L 43.1161,25.2224 L 43.0508,25.2421 L 42.9922,25.2697
 L 42.9386,25.3068 L 42.8883,25.355 L 42.8413,25.4143 L 42.7976,25.4847 L 42.7935,25.4847 L 42.7922,25.4354
 L 42.791,25.3947 L 42.7898,25.3625 L 42.7888,25.3389 L 42.7869,25.3025 L 42.7854,25.2704 L 42.7847,25.2569
 L 42.784,25.2463 L 42.7834,25.2386 L 42.7827,25.2338 L 42.5521,25.2338 L 42.5557,25.2747 L 42.5582,25.3406
 L 42.5597,25.4314 L 42.5602,25.5471 L 42.5602,26.7012 L 42.8044,26.7012 z
M -6.54767,26.7067 L -6.37721,26.6416 L -6.24863,26.5331 L -6.16191,26.3812 L -6.37619,26.3201 L -6.397,26.3669
 L -6.42554,26.4093 L -6.46178,26.4475 L -6.50572,26.4815 L -6.55746,26.5094 L -6.6171,26.5293 L -6.68462,26.5413
 L -6.76001,26.5453 L -6.85435,26.5367 L -6.93668,26.511 L -7.00694,26.4682 L -7.06519,26.4083 L -7.11087,26.3326
 L -7.14351,26.2425 L -7.16309,26.138 L -7.1696,26.019 L -6.12257,26.019 L -6.12257,25.9865 L -6.16299,25.6453
 L -6.2843,25.4016 L -6.48647,25.2554 L -6.7695,25.2067 L -6.9184,25.2188 L -7.04906,25.2552 L -7.16151,25.3158
 L -7.25572,25.4006 L -7.33018,25.5082 L -7.38338,25.6369 L -7.41528,25.7869 L -7.42593,25.958 L -7.41528,26.1375
 L -7.38338,26.2934 L -7.33018,26.4257 L -7.25572,26.5344 L -7.16092,26.6193 L -7.04669,26.6799 L -6.91306,26.7162
 L -6.76001,26.7284 z
M -7.16689,25.8319 L -7.15685,25.7337 L -7.13484,25.6466 L -7.10091,25.5706 L -7.05501,25.5057 L -6.9985,25.4538
 L -6.93277,25.4167 L -6.85779,25.3945 L -6.77357,25.3871 L -6.68736,25.3937 L -6.61185,25.4137 L -6.54701,25.4469
 L -6.49284,25.4935 L -6.44885,25.5546 L -6.41452,25.6313 L -6.38985,25.7238 L -6.37485,25.8319 z
M 41.8553,26.7067 L 42.0257,26.6416 L 42.1543,26.5331 L 42.241,26.3812 L 42.0267,26.3201 L 42.0059,26.3669
 L 41.9774,26.4093 L 41.9412,26.4475 L 41.8972,26.4815 L 41.8455,26.5094 L 41.7858,26.5293 L 41.7183,26.5413
 L 41.6429,26.5453 L 41.5486,26.5367 L 41.4663,26.511 L 41.396,26.4682 L 41.3378,26.4083 L 41.2921,26.3326
 L 41.2594,26.2425 L 41.2399,26.138 L 41.2333,26.019 L 42.2804,26.019 L 42.2804,25.9865 L 42.2399,25.6453
 L 42.1186,25.4016 L 41.9165,25.2554 L 41.6334,25.2067 L 41.4845,25.2188 L 41.3539,25.2552 L 41.2414,25.3158
 L 41.1472,25.4006 L 41.0727,25.5082 L 41.0196,25.6369 L 40.9876,25.7869 L 40.977,25.958 L 40.9876,26.1375
 L 41.0196,26.2934 L 41.0727,26.4257 L 41.1472,26.5344 L 41.242,26.6193 L 41.3562,26.6799 L 41.4899,26.7162
 L 41.6429,26.7284 z
M 41.2361,25.8319 L 41.2461,25.7337 L 41.2681,25.6466 L 41.302,25.5706 L 41.3479,25.5057 L 41.4044,25.4538
 L 41.4702,25.4167 L 41.5452,25.3945 L 41.6294,25.3871 L 41.7156,25.3937 L 41.7911,25.4137 L 41.8559,25.4469
 L 41.9101,25.4935 L 41.9541,25.5546 L 41.9884,25.6313 L 42.0131,25.7238 L 42.0281,25.8319 z
M 38.7598,26.7166 L 38.8925,26.6812 L 39.006,26.6223 L 39.1003,26.5398 L 39.1745,26.4333 L 39.2275,26.3022
 L 39.2592,26.1465 L 39.2698,25.9662 L 39.2599,25.7843 L 39.2302,25.628 L 39.1806,25.4971 L 39.1111,25.3918
 L 39.0207,25.3108 L 38.9081,25.253 L 38.7732,25.2182 L 38.6161,25.2067 L 38.3283,25.2542 L 38.1228,25.3965
 L 37.9995,25.6339 L 37.9583,25.9662 L 37.9686,26.1404 L 37.9994,26.2928 L 38.0506,26.4235 L 38.1224,26.5324
 L 38.2143,26.6181 L 38.3259,26.6794 L 38.4571,26.7161 L 38.608,26.7284 z
M 38.511,26.5389 L 38.4301,26.5115 L 38.3628,26.466 L 38.3089,26.4022 L 38.2677,26.3203 L 38.2382,26.2203
 L 38.2206,26.1022 L 38.2147,25.9662 L 38.2206,25.8269 L 38.2386,25.7073 L 38.2684,25.6075 L 38.3103,25.5274
 L 38.3655,25.466 L 38.4356,25.4221 L 38.5205,25.3958 L 38.6202,25.3871 L 38.719,25.3957 L 38.8024,25.4215
 L 38.8705,25.4645 L 38.9233,25.5247 L 38.9628,25.6039 L 38.991,25.7039 L 39.0079,25.8247 L 39.0135,25.9662
 L 39.0076,26.1061 L 38.9899,26.2262 L 38.9605,26.3265 L 38.9192,26.4069 L 38.8643,26.4686 L 38.7936,26.5127
 L 38.7073,26.5392 L 38.6053,26.548 z
M -68.0663,26.7067 L -67.8958,26.6416 L -67.7673,26.5331 L -67.6805,26.3812 L -67.8948,26.3201 L -67.9156,26.3669
 L -67.9442,26.4093 L -67.9804,26.4475 L -68.0244,26.4815 L -68.0761,26.5094 L -68.1357,26.5293 L -68.2032,26.5413
 L -68.2786,26.5453 L -68.373,26.5367 L -68.4553,26.511 L -68.5256,26.4682 L -68.5838,26.4083 L -68.6295,26.3326
 L -68.6621,26.2425 L -68.6817,26.138 L -68.6882,26.019 L -67.6412,26.019 L -67.6412,25.9865 L -67.6816,25.6453
 L -67.8029,25.4016 L -68.0051,25.2554 L -68.2881,25.2067 L -68.437,25.2188 L -68.5677,25.2552 L -68.6801,25.3158
 L -68.7744,25.4006 L -68.8488,25.5082 L -68.902,25.6369 L -68.9339,25.7869 L -68.9446,25.958 L -68.9339,26.1375
 L -68.902,26.2934 L -68.8488,26.4257 L -68.7744,26.5344 L -68.6796,26.6193 L -68.5653,26.6799 L -68.4317,26.7162
 L -68.2786,26.7284 z
M -68.6855,25.8319 L -68.6755,25.7337 L -68.6535,25.6466 L -68.6195,25.5706 L -68.5736,25.5057 L -68.5171,25.4538
 L -68.4514,25.4167 L -68.3764,25.3945 L -68.2922,25.3871 L -68.206,25.3937 L -68.1305,25.4137 L -68.0656,25.4469
 L -68.0115,25.4935 L -67.9675,25.5546 L -67.9332,25.6313 L -67.9085,25.7238 L -67.8935,25.8319 z
M -57.662,26.7067 L -57.4915,26.6416 L -57.3629,26.5331 L -57.2762,26.3812 L -57.4905,26.3201 L -57.5113,26.3669
 L -57.5399,26.4093 L -57.5761,26.4475 L -57.62,26.4815 L -57.6718,26.5094 L -57.7314,26.5293 L -57.7989,26.5413
 L -57.8743,26.5453 L -57.9687,26.5367 L -58.051,26.511 L -58.1213,26.4682 L -58.1795,26.4083 L -58.2252,26.3326
 L -58.2578,26.2425 L -58.2774,26.138 L -58.2839,26.019 L -57.2369,26.019 L -57.2369,25.9865 L -57.2773,25.6453
 L -57.3986,25.4016 L -57.6008,25.2554 L -57.8838,25.2067 L -58.0327,25.2188 L -58.1634,25.2552 L -58.2758,25.3158
 L -58.37,25.4006 L -58.4445,25.5082 L -58.4977,25.6369 L -58.5296,25.7869 L -58.5402,25.958 L -58.5296,26.1375
 L -58.4977,26.2934 L -58.4445,26.4257 L -58.37,26.5344 L -58.2752,26.6193 L -58.161,26.6799 L -58.0274,26.7162
 L -57.8743,26.7284 z
M -58.2812,25.8319 L -58.2712,25.7337 L -58.2492,25.6466 L -58.2152,25.5706 L -58.1693,25.5057 L -58.1128,25.4538
 L -58.0471,25.4167 L -57.9721,25.3945 L -57.8879,25.3871 L -57.8017,25.3937 L -57.7262,25.4137 L -57.6613,25.4469
 L -57.6072,25.4935 L -57.5632,25.5546 L -57.5288,25.6313 L -57.5042,25.7238 L -57.4892,25.8319 z
M 70.0588,26.7067 L 70.2293,26.6416 L 70.3579,26.5331 L 70.4446,26.3812 L 70.2303,26.3201 L 70.2095,26.3669
 L 70.181,26.4093 L 70.1447,26.4475 L 70.1008,26.4815 L 70.049,26.5094 L 69.9894,26.5293 L 69.9219,26.5413
 L 69.8465,26.5453 L 69.7521,26.5367 L 69.6698,26.511 L 69.5995,26.4682 L 69.5413,26.4083 L 69.4956,26.3326
 L 69.463,26.2425 L 69.4434,26.138 L 69.4369,26.019 L 70.4839,26.019 L 70.4839,25.9865 L 70.4435,25.6453
 L 70.3222,25.4016 L 70.12,25.2554 L 69.837,25.2067 L 69.6881,25.2188 L 69.5574,25.2552 L 69.445,25.3158
 L 69.3508,25.4006 L 69.2763,25.5082 L 69.2231,25.6369 L 69.1912,25.7869 L 69.1806,25.958 L 69.1912,26.1375
 L 69.2231,26.2934 L 69.2763,26.4257 L 69.3508,26.5344 L 69.4456,26.6193 L 69.5598,26.6799 L 69.6934,26.7162
 L 69.8465,26.7284 z
M 69.4396,25.8319 L 69.4496,25.7337 L 69.4716,25.6466 L 69.5056,25.5706 L 69.5515,25.5057 L 69.608,25.4538
 L 69.6737,25.4167 L 69.7487,25.3945 L 69.8329,25.3871 L 69.9191,25.3937 L 69.9946,25.4137 L 70.0595,25.4469
 L 70.1136,25.4935 L 70.1576,25.5546 L 70.192,25.6313 L 70.2166,25.7238 L 70.2316,25.8319 z
M -33.2333,26.7067 L -33.0629,26.6416 L -32.9343,26.5331 L -32.8476,26.3812 L -33.0619,26.3201 L -33.0827,26.3669
 L -33.1112,26.4093 L -33.1474,26.4475 L -33.1914,26.4815 L -33.2431,26.5094 L -33.3028,26.5293 L -33.3703,26.5413
 L -33.4457,26.5453 L -33.54,26.5367 L -33.6223,26.511 L -33.6926,26.4682 L -33.7509,26.4083 L -33.7965,26.3326
 L -33.8292,26.2425 L -33.8487,26.138 L -33.8553,26.019 L -32.8082,26.019 L -32.8082,25.9865 L -32.8487,25.6453
 L -32.97,25.4016 L -33.1721,25.2554 L -33.4552,25.2067 L -33.6041,25.2188 L -33.7347,25.2552 L -33.8472,25.3158
 L -33.9414,25.4006 L -34.0159,25.5082 L -34.069,25.6369 L -34.101,25.7869 L -34.1116,25.958 L -34.101,26.1375
 L -34.069,26.2934 L -34.0159,26.4257 L -33.9414,26.5344 L -33.8466,26.6193 L -33.7323,26.6799 L -33.5987,26.7162
 L -33.4457,26.7284 z
M -33.8526,25.8319 L -33.8425,25.7337 L -33.8205,25.6466 L -33.7866,25.5706 L -33.7407,25.5057 L -33.6842,25.4538
 L -33.6184,25.4167 L -33.5435,25.3945 L -33.4592,25.3871 L -33.373,25.3937 L -33.2975,25.4137 L -33.2327,25.4469
 L -33.1785,25.4935 L -33.1345,25.5546 L -33.1002,25.6313 L -33.0755,25.7238 L -33.0605,25.8319 z
M 6.61641,25.9363 L 6.62141,25.8214 L 6.63641,25.7205 L 6.66142,25.6339 L 6.69643,25.5613 L 6.74094,25.5041
 L 6.79442,25.4632 L 6.85689,25.4386 L 6.92834,25.4305 L 6.967,25.4313 L 7.00159,25.4339 L 7.0321,25.4381
 L 7.05855,25.444 L 7.05855,25.2202 L 7.03354,25.2143 L 7.0087,25.2101 L 6.98402,25.2075 L 6.95953,25.2067
 L 6.89426,25.211 L 6.83679,25.224 L 6.78711,25.2456 L 6.74522,25.2758 L 6.70836,25.3179 L 6.67369,25.3748
 L 6.64124,25.4467 L 6.61098,25.5335 L 6.60555,25.5335 L 6.60487,25.496 L 6.60284,25.4335 L 6.59946,25.3461
 L 6.59471,25.2338 L 6.36415,25.2338 L 6.36771,25.3253 L 6.37024,25.4128 L 6.37177,25.4962 L 6.37227,25.5756
 L 6.37227,26.7012 L 6.61641,26.7012 z
M 8.87743,25.8509 L 8.88379,25.7496 L 8.90286,25.66 L 8.93465,25.5821 L 8.97914,25.5159 L 9.03467,25.4631
 L 9.09952,25.4254 L 9.17368,25.4027 L 9.25717,25.3952 L 9.31387,25.3974 L 9.36328,25.404 L 9.40541,25.415
 L 9.44025,25.4305 L 9.46933,25.4509 L 9.49417,25.4769 L 9.51477,25.5085 L 9.53113,25.5457 L 9.54358,25.5898
 L 9.55249,25.642 L 9.55783,25.7024 L 9.5596,25.7709 L 9.5596,26.7012 L 9.80508,26.7012 L 9.80508,25.7234
 L 9.7981,25.5948 L 9.77711,25.4859 L 9.74214,25.3965 L 9.69319,25.3267 L 9.62915,25.2742 L 9.54892,25.2367
 L 9.45251,25.2142 L 9.3399,25.2067 L 9.2612,25.2106 L 9.18918,25.2224 L 9.12387,25.2421 L 9.06525,25.2697
 L 9.01164,25.3068 L 8.96133,25.355 L 8.91434,25.4143 L 8.87065,25.4847 L 8.86656,25.4847 L 8.86525,25.4354
 L 8.86403,25.3947 L 8.86288,25.3625 L 8.86183,25.3389 L 8.85995,25.3025 L 8.85843,25.2704 L 8.85774,25.2569
 L 8.85707,25.2463 L 8.8564,25.2386 L 8.85573,25.2338 L 8.62517,25.2338 L 8.62872,25.2747 L 8.63126,25.3406
 L 8.63278,25.4314 L 8.63329,25.5471 L 8.63329,26.7012 L 8.87743,26.7012 z
M -45.296,26.7067 L -45.1255,26.6416 L -44.997,26.5331 L -44.9102,26.3812 L -45.1245,26.3201 L -45.1453,26.3669
 L -45.1739,26.4093 L -45.2101,26.4475 L -45.2541,26.4815 L -45.3058,26.5094 L -45.3654,26.5293 L -45.433,26.5413
 L -45.5083,26.5453 L -45.6027,26.5367 L -45.685,26.511 L -45.7553,26.4682 L -45.8135,26.4083 L -45.8592,26.3326
 L -45.8918,26.2425 L -45.9114,26.138 L -45.918,26.019 L -44.8709,26.019 L -44.8709,25.9865 L -44.9113,25.6453
 L -45.0326,25.4016 L -45.2348,25.2554 L -45.5179,25.2067 L -45.6667,25.2188 L -45.7974,25.2552 L -45.9099,25.3158
 L -46.0041,25.4006 L -46.0785,25.5082 L -46.1317,25.6369 L -46.1636,25.7869 L -46.1743,25.958 L -46.1636,26.1375
 L -46.1317,26.2934 L -46.0785,26.4257 L -46.0041,26.5344 L -45.9093,26.6193 L -45.795,26.6799 L -45.6614,26.7162
 L -45.5083,26.7284 z
M -45.9152,25.8319 L -45.9052,25.7337 L -45.8832,25.6466 L -45.8492,25.5706 L -45.8033,25.5057 L -45.7468,25.4538
 L -45.6811,25.4167 L -45.6061,25.3945 L -45.5219,25.3871 L -45.4357,25.3937 L -45.3602,25.4137 L -45.2953,25.4469
 L -45.2412,25.4935 L -45.1972,25.5546 L -45.1629,25.6313 L -45.1382,25.7238 L -45.1232,25.8319 z
M 10.8674,26.7166 L 11.0001,26.6812 L 11.1136,26.6223 L 11.208,26.5398 L 11.2821,26.4333 L 11.3351,26.3022
 L 11.3669,26.1465 L 11.3775,25.9662 L 11.3676,25.7843 L 11.3378,25.628 L 11.2882,25.4971 L 11.2188,25.3918
 L 11.1284,25.3108 L 11.0157,25.253 L 10.8808,25.2182 L 10.7238,25.2067 L 10.436,25.2542 L 10.2304,25.3965
 L 10.1071,25.6339 L 10.066,25.9662 L 10.0762,26.1404 L 10.107,26.2928 L 10.1583,26.4235 L 10.2301,26.5324
 L 10.322,26.6181 L 10.4335,26.6794 L 10.5648,26.7161 L 10.7156,26.7284 z
M 10.6186,26.5389 L 10.5378,26.5115 L 10.4704,26.466 L 10.4166,26.4022 L 10.3753,26.3203 L 10.3459,26.2203
 L 10.3282,26.1022 L 10.3223,25.9662 L 10.3283,25.8269 L 10.3462,25.7073 L 10.3761,25.6075 L 10.4179,25.5274
 L 10.4732,25.466 L 10.5432,25.4221 L 10.6281,25.3958 L 10.7278,25.3871 L 10.8266,25.3957 L 10.9101,25.4215
 L 10.9782,25.4645 L 11.031,25.5247 L 11.0704,25.6039 L 11.0986,25.7039 L 11.1155,25.8247 L 11.1212,25.9662
 L 11.1153,26.1061 L 11.0976,26.2262 L 11.0681,26.3265 L 11.0269,26.4069 L 10.9719,26.4686 L 10.9013,26.5127
 L 10.8149,26.5392 L 10.7129,26.548 z
M 59.846,25.8509 L 59.8524,25.7496 L 59.8714,25.66 L 59.9032,25.5821 L 59.9477,25.5159 L 60.0032,25.4631
 L 60.0681,25.4254 L 60.1423,25.4027 L 60.2257,25.3952 L 60.2824,25.3974 L 60.3319,25.404 L 60.374,25.415
 L 60.4088,25.4305 L 60.4379,25.4509 L 60.4627,25.4769 L 60.4833,25.5085 L 60.4997,25.5457 L 60.5122,25.5898
 L 60.5211,25.642 L 60.5264,25.7024 L 60.5282,25.7709 L 60.5282,26.7012 L 60.7737,26.7012 L 60.7737,25.7234
 L 60.7667,25.5948 L 60.7457,25.4859 L 60.7107,25.3965 L 60.6618,25.3267 L 60.5977,25.2742 L 60.5175,25.2367
 L 60.4211,25.2142 L 60.3085,25.2067 L 60.2298,25.2106 L 60.1578,25.2224 L 60.0924,25.2421 L 60.0338,25.2697
 L 59.9802,25.3068 L 59.9299,25.355 L 59.8829,25.4143 L 59.8392,25.4847 L 59.8351,25.4847 L 59.8338,25.4354
 L 59.8326,25.3947 L 59.8315,25.3625 L 59.8304,25.3389 L 59.8285,25.3025 L 59.8263,25.2569 L 59.8256,25.2463
 L 59.825,25.2386 L 59.8243,25.2338 L 59.5937,25.2338 L 59.5973,25.2747 L 59.5998,25.3406 L 59.6013,25.4314
 L 59.6019,25.5471 L 59.6019,26.7012 L 59.846,26.7012 z
M 13.8835,26.7166 L 14.0161,26.6812 L 14.1296,26.6223 L 14.224,26.5398 L 14.2981,26.4333 L 14.3511,26.3022
 L 14.3829,26.1465 L 14.3935,25.9662 L 14.3836,25.7843 L 14.3538,25.628 L 14.3042,25.4971 L 14.2348,25.3918
 L 14.1443,25.3108 L 14.0317,25.253 L 13.8968,25.2182 L 13.7398,25.2067 L 13.452,25.2542 L 13.2464,25.3965
 L 13.1231,25.6339 L 13.082,25.9662 L 13.0923,26.1404 L 13.123,26.2928 L 13.1743,26.4235 L 13.2461,26.5324
 L 13.338,26.6181 L 13.4495,26.6794 L 13.5807,26.7161 L 13.7316,26.7284 z
M 13.6346,26.5389 L 13.5538,26.5115 L 13.4864,26.466 L 13.4326,26.4022 L 13.3913,26.3203 L 13.3619,26.2203
 L 13.3442,26.1022 L 13.3383,25.9662 L 13.3443,25.8269 L 13.3622,25.7073 L 13.3921,25.6075 L 13.4339,25.5274
 L 13.4892,25.466 L 13.5592,25.4221 L 13.6441,25.3958 L 13.7438,25.3871 L 13.8426,25.3957 L 13.9261,25.4215
 L 13.9942,25.4645 L 14.047,25.5247 L 14.0864,25.6039 L 14.1146,25.7039 L 14.1315,25.8247 L 14.1372,25.9662
 L 14.1313,26.1061 L 14.1136,26.2262 L 14.0841,26.3265 L 14.0429,26.4069 L 13.9879,26.4686 L 13.9173,26.5127
 L 13.8309,26.5392 L 13.7289,26.548 z
M 53.7872,26.7205 L 53.8885,26.6968 L 53.9798,26.6574 L 54.0608,26.6022 L 54.129,26.5338 L 54.1818,26.4547
 L 54.2192,26.365 L 54.2412,26.2645 L 53.9943,26.2483 L 53.98,26.3167 L 53.9572,26.3757 L 53.9261,26.4252
 L 53.8865,26.4653 L 53.8401,26.4961 L 53.7883,26.5182 L 53.7313,26.5314 L 53.6688,26.5358 L 53.5818,26.527
 L 53.5064,26.5005 L 53.4427,26.4565 L 53.3908,26.3947 L 53.3504,26.3147 L 53.3216,26.2157 L 53.3043,26.0977
 L 53.2986,25.9607 L 53.304,25.8192 L 53.3203,25.6997 L 53.3474,25.6022 L 53.3854,25.5268 L 53.4355,25.4704
 L 53.499,25.4301 L 53.5759,25.4059 L 53.6661,25.3979 L 53.7333,25.4024 L 53.7923,25.4159 L 53.8431,25.4383
 L 53.8858,25.4698 L 53.9208,25.5089 L 53.9486,25.5542 L 53.969,25.6058 L 53.9821,25.6637 L 54.233,25.6447
 L 54.2071,25.5479 L 54.1674,25.462 L 54.1139,25.3871 L 54.0466,25.3233 L 53.9675,25.2723 L 53.8789,25.2358
 L 53.7807,25.214 L 53.6729,25.2067 L 53.5298,25.2188 L 53.4044,25.2553 L 53.2965,25.3161 L 53.2063,25.4013
 L 53.1351,25.5096 L 53.0843,25.6398 L 53.0538,25.792 L 53.0436,25.9662 L 53.0537,26.1415 L 53.0841,26.2945
 L 53.1348,26.4253 L 53.2057,26.5337 L 53.2958,26.6189 L 53.4042,26.6797 L 53.5308,26.7162 L 53.6756,26.7284
 z
M 58.5476,26.724 L 58.6264,26.7109 L 58.6985,26.6891 L 58.7639,26.6585 L 58.824,26.6175 L 58.8804,26.5641
 L 58.9329,26.4984 L 58.9816,26.4205 L 58.9897,26.4205 L 58.9971,26.4914 L 59.0112,26.5522 L 59.032,26.603
 L 59.0595,26.6436 L 59.095,26.6748 L 59.1397,26.697 L 59.1937,26.7104 L 59.2569,26.7148 L 59.3048,26.7134
 L 59.3522,26.7094 L 59.399,26.7026 L 59.4454,26.6931 L 59.4454,26.5412 L 59.4236,26.5454 L 59.403,26.5483
 L 59.3836,26.5501 L 59.3654,26.5507 L 59.3286,26.5473 L 59.2982,26.537 L 59.2743,26.5198 L 59.2569,26.4958
 L 59.2444,26.465 L 59.2355,26.4275 L 59.2302,26.3832 L 59.2284,26.3323 L 59.2284,25.7003 L 59.2197,25.5874
 L 59.1935,25.4886 L 59.1498,25.404 L 59.0887,25.3335 L 59.0103,25.278 L 58.9148,25.2384 L 58.8021,25.2146
 L 58.6723,25.2067 L 58.4382,25.2314 L 58.2621,25.3057 L 58.1439,25.4294 L 58.0837,25.6027 L 58.3387,25.6258
 L 58.3499,25.5689 L 58.3685,25.5203 L 58.3946,25.4801 L 58.4282,25.4481 L 58.4711,25.4238 L 58.5252,25.4064
 L 58.5905,25.396 L 58.6669,25.3925 L 58.7429,25.3973 L 58.808,25.4118 L 58.8622,25.436 L 58.9056,25.4698
 L 58.9388,25.5148 L 58.9626,25.5725 L 58.9768,25.643 L 58.9816,25.7261 L 58.9816,25.8061 L 58.652,25.8116
 L 58.4967,25.8228 L 58.3643,25.8482 L 58.2549,25.8878 L 58.1685,25.9418 L 58.1029,26.0094 L 58.0561,26.0903
 L 58.028,26.1843 L 58.0186,26.2917 L 58.0256,26.388 L 58.0464,26.4734 L 58.0812,26.548 L 58.1298,26.6117
 L 58.1923,26.6628 L 58.2685,26.6992 L 58.3584,26.7211 L 58.4621,26.7284 z
M 58.4615,26.5412 L 58.4121,26.529 L 58.3696,26.5087 L 58.334,26.4802 L 58.3058,26.4442 L 58.2856,26.4015
 L 58.2736,26.352 L 58.2695,26.2957 L 58.2725,26.2434 L 58.2814,26.1964 L 58.2962,26.1546 L 58.317,26.1181
 L 58.3433,26.0864 L 58.3748,26.0591 L 58.4115,26.0362 L 58.4533,26.0177 L 58.5029,26.0033 L 58.563,25.9926
 L 58.6335,25.9857 L 58.7144,25.9824 L 58.9816,25.977 L 58.9816,26.0977 L 58.9778,26.1536 L 58.9665,26.2088
 L 58.9476,26.2631 L 58.9212,26.3167 L 58.8883,26.3671 L 58.8498,26.4118 L 58.8059,26.4509 L 58.7564,26.4842
 L 58.7023,26.5109 L 58.6445,26.53 L 58.583,26.5415 L 58.5177,26.5453 z
M 33.5623,26.7067 L 33.7327,26.6416 L 33.8613,26.5331 L 33.948,26.3812 L 33.7338,26.3201 L 33.7129,26.3669
 L 33.6844,26.4093 L 33.6482,26.4475 L 33.6042,26.4815 L 33.5525,26.5094 L 33.4928,26.5293 L 33.4253,26.5413
 L 33.3499,26.5453 L 33.2556,26.5367 L 33.1733,26.511 L 33.103,26.4682 L 33.0448,26.4083 L 32.9991,26.3326
 L 32.9664,26.2425 L 32.9469,26.138 L 32.9403,26.019 L 33.9874,26.019 L 33.9874,25.9865 L 33.9469,25.6453
 L 33.8256,25.4016 L 33.6235,25.2554 L 33.3404,25.2067 L 33.1915,25.2188 L 33.0609,25.2552 L 32.9484,25.3158
 L 32.8542,25.4006 L 32.7798,25.5082 L 32.7266,25.6369 L 32.6947,25.7869 L 32.684,25.958 L 32.6947,26.1375
 L 32.7266,26.2934 L 32.7798,26.4257 L 32.8542,26.5344 L 32.949,26.6193 L 33.0633,26.6799 L 33.1969,26.7162
 L 33.3499,26.7284 z
M 32.9431,25.8319 L 32.9531,25.7337 L 32.9751,25.6466 L 33.009,25.5706 L 33.0549,25.5057 L 33.1114,25.4538
 L 33.1772,25.4167 L 33.2522,25.3945 L 33.3364,25.3871 L 33.4226,25.3937 L 33.4981,25.4137 L 33.5629,25.4469
 L 33.6171,25.4935 L 33.6611,25.5546 L 33.6954,25.6313 L 33.7201,25.7238 L 33.7351,25.8319 z
M 34.5114,25.9363 L 34.5164,25.8214 L 34.5314,25.7205 L 34.5564,25.6339 L 34.5914,25.5613 L 34.6359,25.5041
 L 34.6894,25.4632 L 34.7519,25.4386 L 34.8233,25.4305 L 34.862,25.4313 L 34.8966,25.4339 L 34.9271,25.4381
 L 34.9535,25.444 L 34.9535,25.2202 L 34.9285,25.2143 L 34.9037,25.2101 L 34.879,25.2075 L 34.8545,25.2067
 L 34.7892,25.211 L 34.7318,25.224 L 34.6821,25.2456 L 34.6402,25.2758 L 34.6033,25.3179 L 34.5687,25.3748
 L 34.5362,25.4467 L 34.506,25.5335 L 34.5005,25.5335 L 34.4998,25.496 L 34.4978,25.4335 L 34.4944,25.3461
 L 34.4897,25.2338 L 34.2591,25.2338 L 34.2627,25.3253 L 34.2652,25.4128 L 34.2667,25.4962 L 34.2673,25.5756
 L 34.2673,26.7012 L 34.5114,26.7012 z
M -29.4205,25.9363 L -29.4155,25.8214 L -29.4005,25.7205 L -29.3755,25.6339 L -29.3405,25.5613 L -29.296,25.5041
 L -29.2425,25.4632 L -29.18,25.4386 L -29.1086,25.4305 L -29.0699,25.4313 L -29.0354,25.4339 L -29.0048,25.4381
 L -28.9784,25.444 L -28.9784,25.2202 L -29.0034,25.2143 L -29.0282,25.2101 L -29.0529,25.2075 L -29.0774,25.2067
 L -29.1427,25.211 L -29.2001,25.224 L -29.2498,25.2456 L -29.2917,25.2758 L -29.3286,25.3179 L -29.3633,25.3748
 L -29.3957,25.4467 L -29.426,25.5335 L -29.4314,25.5335 L -29.4321,25.496 L -29.4341,25.4335 L -29.4375,25.3461
 L -29.4422,25.2338 L -29.6728,25.2338 L -29.6692,25.3253 L -29.6667,25.4128 L -29.6652,25.4962 L -29.6647,25.5756
 L -29.6647,26.7012 L -29.4205,26.7012 z
M 5.6673,26.7067 L 5.83775,26.6416 L 5.96634,26.5331 L 6.05305,26.3812 L 5.83878,26.3201 L 5.81796,26.3669
 L 5.78943,26.4093 L 5.75319,26.4475 L 5.70924,26.4815 L 5.6575,26.5094 L 5.59787,26.5293 L 5.53035,26.5413
 L 5.45496,26.5453 L 5.36061,26.5367 L 5.27829,26.511 L 5.20802,26.4682 L 5.14978,26.4083 L 5.1041,26.3326
 L 5.07146,26.2425 L 5.05188,26.138 L 5.04536,26.019 L 6.09239,26.019 L 6.09239,25.9865 L 6.05196,25.6453
 L 5.93066,25.4016 L 5.7285,25.2554 L 5.44545,25.2067 L 5.29657,25.2188 L 5.16591,25.2552 L 5.05345,25.3158
 L 4.95924,25.4006 L 4.88478,25.5082 L 4.83159,25.6369 L 4.79967,25.7869 L 4.78903,25.958 L 4.79967,26.1375
 L 4.83159,26.2934 L 4.88478,26.4257 L 4.95924,26.5344 L 5.05405,26.6193 L 5.16827,26.6799 L 5.30191,26.7162
 L 5.45496,26.7284 z
M 5.04808,25.8319 L 5.05812,25.7337 L 5.08012,25.6466 L 5.11406,25.5706 L 5.15996,25.5057 L 5.21646,25.4538
 L 5.2822,25.4167 L 5.35718,25.3945 L 5.44139,25.3871 L 5.5276,25.3937 L 5.60312,25.4137 L 5.66795,25.4469
 L 5.72212,25.4935 L 5.76611,25.5546 L 5.80045,25.6313 L 5.82512,25.7238 L 5.84012,25.8319 z
M 63.8272,26.724 L 63.906,26.7109 L 63.9781,26.6891 L 64.0435,26.6585 L 64.1037,26.6175 L 64.16,26.5641
 L 64.2125,26.4984 L 64.2612,26.4205 L 64.2693,26.4205 L 64.2767,26.4914 L 64.2908,26.5522 L 64.3117,26.603
 L 64.3392,26.6436 L 64.3746,26.6748 L 64.4194,26.697 L 64.4733,26.7104 L 64.5365,26.7148 L 64.5844,26.7134
 L 64.6318,26.7094 L 64.6786,26.7026 L 64.725,26.6931 L 64.725,26.5412 L 64.7032,26.5454 L 64.6826,26.5483
 L 64.6632,26.5501 L 64.645,26.5507 L 64.6082,26.5473 L 64.5779,26.537 L 64.554,26.5198 L 64.5365,26.4958
 L 64.524,26.465 L 64.5151,26.4275 L 64.5098,26.3832 L 64.508,26.3323 L 64.508,25.7003 L 64.4993,25.5874
 L 64.4731,25.4886 L 64.4294,25.404 L 64.3683,25.3335 L 64.2899,25.278 L 64.1944,25.2384 L 64.0817,25.2146
 L 63.952,25.2067 L 63.7178,25.2314 L 63.5417,25.3057 L 63.4235,25.4294 L 63.3634,25.6027 L 63.6183,25.6258
 L 63.6295,25.5689 L 63.6482,25.5203 L 63.6743,25.4801 L 63.7078,25.4481 L 63.7507,25.4238 L 63.8048,25.4064
 L 63.8701,25.396 L 63.9465,25.3925 L 64.0225,25.3973 L 64.0876,25.4118 L 64.1418,25.436 L 64.1852,25.4698
 L 64.2185,25.5148 L 64.2422,25.5725 L 64.2565,25.643 L 64.2612,25.7261 L 64.2612,25.8061 L 63.9316,25.8116
 L 63.7763,25.8228 L 63.6439,25.8482 L 63.5345,25.8878 L 63.4481,25.9418 L 63.3826,26.0094 L 63.3357,26.0903
 L 63.3076,26.1843 L 63.2983,26.2917 L 63.3052,26.388 L 63.326,26.4734 L 63.3608,26.548 L 63.4095,26.6117
 L 63.4719,26.6628 L 63.5481,26.6992 L 63.6381,26.7211 L 63.7417,26.7284 z
M 63.7411,26.5412 L 63.6917,26.529 L 63.6492,26.5087 L 63.6136,26.4802 L 63.5854,26.4442 L 63.5653,26.4015
 L 63.5532,26.352 L 63.5491,26.2957 L 63.5521,26.2434 L 63.561,26.1964 L 63.5759,26.1546 L 63.5966,26.1181
 L 63.6229,26.0864 L 63.6544,26.0591 L 63.6911,26.0362 L 63.7329,26.0177 L 63.7825,26.0033 L 63.8426,25.9926
 L 63.9131,25.9857 L 63.994,25.9824 L 64.2612,25.977 L 64.2612,26.0977 L 64.2574,26.1536 L 64.2461,26.2088
 L 64.2272,26.2631 L 64.2008,26.3167 L 64.1679,26.3671 L 64.1295,26.4118 L 64.0855,26.4509 L 64.036,26.4842
 L 63.982,26.5109 L 63.9241,26.53 L 63.8626,26.5415 L 63.7974,26.5453 z
M -23.3899,25.9363 L -23.3849,25.8214 L -23.3699,25.7205 L -23.3448,25.6339 L -23.3098,25.5613 L -23.2653,25.5041
 L -23.2119,25.4632 L -23.1494,25.4386 L -23.0779,25.4305 L -23.0393,25.4313 L -23.0047,25.4339 L -22.9742,25.4381
 L -22.9477,25.444 L -22.9477,25.2202 L -22.9727,25.2143 L -22.9976,25.2101 L -23.0222,25.2075 L -23.0467,25.2067
 L -23.112,25.211 L -23.1695,25.224 L -23.2192,25.2456 L -23.261,25.2758 L -23.2979,25.3179 L -23.3326,25.3748
 L -23.365,25.4467 L -23.3953,25.5335 L -23.4007,25.5335 L -23.4014,25.496 L -23.4034,25.4335 L -23.4068,25.3461
 L -23.4116,25.2338 L -23.6421,25.2338 L -23.6386,25.3253 L -23.636,25.4128 L -23.6345,25.4962 L -23.634,25.5756
 L -23.634,26.7012 L -23.3899,26.7012 z
M -48.7637,26.7067 L -48.5932,26.6416 L -48.4646,26.5331 L -48.3779,26.3812 L -48.5922,26.3201 L -48.613,26.3669
 L -48.6416,26.4093 L -48.6778,26.4475 L -48.7217,26.4815 L -48.7735,26.5094 L -48.8331,26.5293 L -48.9006,26.5413
 L -48.976,26.5453 L -49.0704,26.5367 L -49.1527,26.511 L -49.223,26.4682 L -49.2812,26.4083 L -49.3269,26.3326
 L -49.3595,26.2425 L -49.3791,26.138 L -49.3856,26.019 L -48.3386,26.019 L -48.3386,25.9865 L -48.379,25.6453
 L -48.5003,25.4016 L -48.7025,25.2554 L -48.9855,25.2067 L -49.1344,25.2188 L -49.2651,25.2552 L -49.3775,25.3158
 L -49.4717,25.4006 L -49.5462,25.5082 L -49.5994,25.6369 L -49.6313,25.7869 L -49.6419,25.958 L -49.6313,26.1375
 L -49.5994,26.2934 L -49.5462,26.4257 L -49.4717,26.5344 L -49.3769,26.6193 L -49.2627,26.6799 L -49.1291,26.7162
 L -48.976,26.7284 z
M -49.3829,25.8319 L -49.3729,25.7337 L -49.3509,25.6466 L -49.3169,25.5706 L -49.271,25.5057 L -49.2145,25.4538
 L -49.1488,25.4167 L -49.0738,25.3945 L -48.9896,25.3871 L -48.9034,25.3937 L -48.8279,25.4137 L -48.763,25.4469
 L -48.7089,25.4935 L -48.6649,25.5546 L -48.6305,25.6313 L -48.6059,25.7238 L -48.5909,25.8319 z
M 14.9053,26.704 L 14.905,26.6072 L 14.9039,26.5365 L 14.9022,26.4919 L 14.8999,26.4734 L 14.9066,26.4734
 L 14.9789,26.5849 L 15.0789,26.6646 L 15.2067,26.7124 L 15.3624,26.7284 L 15.5985,26.6804 L 15.7672,26.5365
 L 15.8684,26.2966 L 15.9021,25.9607 L 15.8938,25.7791 L 15.8686,25.6234 L 15.8266,25.4936 L 15.7679,25.3898
 L 15.6922,25.3102 L 15.5993,25.2534 L 15.4894,25.2194 L 15.3624,25.208 L 15.2791,25.212 L 15.2043,25.2238
 L 15.1381,25.2435 L 15.0802,25.2711 L 15.0293,25.3072 L 14.9836,25.3523 L 14.9432,25.4065 L 14.908,25.4698
 L 14.9026,25.4698 L 14.9024,25.4542 L 14.9017,25.4332 L 14.9007,25.4067 L 14.8992,25.3749 L 14.8975,25.3425
 L 14.896,25.3147 L 14.8945,25.2913 L 14.8931,25.2725 L 14.8918,25.2576 L 14.8907,25.2462 L 14.8898,25.2383
 L 14.889,25.2338 L 14.653,25.2338 L 14.6566,25.28 L 14.6591,25.3454 L 14.6607,25.4299 L 14.6612,25.5335
 L 14.6612,27.2776 L 14.9053,27.2776 z
M 15.2007,26.5394 L 15.1186,26.5137 L 15.0508,26.4709 L 14.9975,26.411 L 14.9572,26.333 L 14.9283,26.2361
 L 14.9111,26.1201 L 14.9053,25.9852 L 14.908,25.8863 L 14.916,25.7971 L 14.9293,25.7178 L 14.948,25.6481
 L 14.9718,25.5876 L 15.0006,25.5357 L 15.0342,25.4924 L 15.0728,25.4576 L 15.1178,25.4309 L 15.1706,25.4118
 L 15.2314,25.4004 L 15.3,25.3965 L 15.384,25.4048 L 15.4559,25.4294 L 15.5156,25.4705 L 15.5631,25.5281
 L 15.5993,25.6048 L 15.6251,25.7034 L 15.6406,25.8239 L 15.6458,25.9662 L 15.6406,26.1122 L 15.625,26.2355
 L 15.5989,26.3363 L 15.5624,26.4144 L 15.5145,26.4728 L 15.4544,26.5146 L 15.382,26.5396 L 15.2972,26.548
 z
M 39.7816,26.704 L 39.7813,26.6072 L 39.7803,26.5365 L 39.7786,26.4919 L 39.7762,26.4734 L 39.783,26.4734
 L 39.8552,26.5849 L 39.9552,26.6646 L 40.0831,26.7124 L 40.2387,26.7284 L 40.4749,26.6804 L 40.6435,26.5365
 L 40.7448,26.2966 L 40.7785,25.9607 L 40.7701,25.7791 L 40.7449,25.6234 L 40.703,25.4936 L 40.6442,25.3898
 L 40.5685,25.3102 L 40.4757,25.2534 L 40.3658,25.2194 L 40.2387,25.208 L 40.1555,25.212 L 40.0807,25.2238
 L 40.0144,25.2435 L 39.9566,25.2711 L 39.9057,25.3072 L 39.86,25.3523 L 39.8195,25.4065 L 39.7843,25.4698
 L 39.7789,25.4698 L 39.7787,25.4542 L 39.7781,25.4332 L 39.777,25.4067 L 39.7755,25.3749 L 39.7739,25.3425
 L 39.7723,25.3147 L 39.7708,25.2913 L 39.7694,25.2725 L 39.7682,25.2576 L 39.7671,25.2462 L 39.7661,25.2383
 L 39.7654,25.2338 L 39.5294,25.2338 L 39.5329,25.28 L 39.5355,25.3454 L 39.537,25.4299 L 39.5375,25.5335
 L 39.5375,27.2776 L 39.7816,27.2776 z
M 40.077,26.5394 L 39.9949,26.5137 L 39.9272,26.4709 L 39.8739,26.411 L 39.8335,26.333 L 39.8047,26.2361
 L 39.7874,26.1201 L 39.7816,25.9852 L 39.7843,25.8863 L 39.7923,25.7971 L 39.8057,25.7178 L 39.8244,25.6481
 L 39.8482,25.5876 L 39.8769,25.5357 L 39.9106,25.4924 L 39.9491,25.4576 L 39.9941,25.4309 L 40.047,25.4118
 L 40.1077,25.4004 L 40.1763,25.3965 L 40.2604,25.4048 L 40.3323,25.4294 L 40.392,25.4705 L 40.4394,25.5281
 L 40.4756,25.6048 L 40.5015,25.7034 L 40.517,25.8239 L 40.5222,25.9662 L 40.5169,26.1122 L 40.5013,26.2355
 L 40.4752,26.3363 L 40.4387,26.4144 L 40.3909,26.4728 L 40.3307,26.5146 L 40.2583,26.5396 L 40.1736,26.548
 z
M -56.7183,26.704 L -56.7186,26.6072 L -56.7197,26.5365 L -56.7214,26.4919 L -56.7237,26.4734 L -56.7169,26.4734
 L -56.6447,26.5849 L -56.5447,26.6646 L -56.4169,26.7124 L -56.2612,26.7284 L -56.0251,26.6804 L -55.8564,26.5365
 L -55.7552,26.2966 L -55.7215,25.9607 L -55.7298,25.7791 L -55.755,25.6234 L -55.797,25.4936 L -55.8557,25.3898
 L -55.9314,25.3102 L -56.0242,25.2534 L -56.1342,25.2194 L -56.2612,25.208 L -56.3445,25.212 L -56.4193,25.2238
 L -56.4855,25.2435 L -56.5434,25.2711 L -56.5943,25.3072 L -56.64,25.3523 L -56.6804,25.4065 L -56.7156,25.4698
 L -56.721,25.4698 L -56.7212,25.4542 L -56.7219,25.4332 L -56.7229,25.4067 L -56.7244,25.3749 L -56.7261,25.3425
 L -56.7276,25.3147 L -56.7291,25.2913 L -56.7305,25.2725 L -56.7318,25.2576 L -56.7329,25.2462 L -56.7338,25.2383
 L -56.7346,25.2338 L -56.9706,25.2338 L -56.967,25.28 L -56.9645,25.3454 L -56.9629,25.4299 L -56.9624,25.5335
 L -56.9624,27.2776 L -56.7183,27.2776 z
M -56.4229,26.5394 L -56.505,26.5137 L -56.5728,26.4709 L -56.6261,26.411 L -56.6664,26.333 L -56.6953,26.2361
 L -56.7126,26.1201 L -56.7183,25.9852 L -56.7156,25.8863 L -56.7076,25.7971 L -56.6943,25.7178 L -56.6756,25.6481
 L -56.6518,25.5876 L -56.623,25.5357 L -56.5894,25.4924 L -56.5508,25.4576 L -56.5058,25.4309 L -56.453,25.4118
 L -56.3923,25.4004 L -56.3236,25.3965 L -56.2395,25.4048 L -56.1677,25.4294 L -56.108,25.4705 L -56.0605,25.5281
 L -56.0243,25.6048 L -55.9985,25.7034 L -55.983,25.8239 L -55.9778,25.9662 L -55.983,26.1122 L -55.9986,26.2355
 L -56.0247,26.3363 L -56.0612,26.4144 L -56.1091,26.4728 L -56.1692,26.5146 L -56.2416,26.5396 L -56.3264,26.548
 z
M -51.7987,26.7213 L -51.6812,26.7002 L -51.5793,26.6651 L -51.4932,26.6158 L -51.4246,26.5536 L -51.3757,26.4795
 L -51.3463,26.3935 L -51.3365,26.2957 L -51.3382,26.2548 L -51.3433,26.2162 L -51.3518,26.1799 L -51.3636,26.1459
 L -51.3786,26.114 L -51.3964,26.084 L -51.4169,26.056 L -51.4403,26.0299 L -51.4673,26.0054 L -51.4987,25.9819
 L -51.5347,25.9596 L -51.5752,25.9384 L -51.6247,25.9172 L -51.6878,25.8951 L -51.7644,25.8721 L -51.8546,25.8482
 L -51.9482,25.8244 L -52.0241,25.8034 L -52.0824,25.7851 L -52.1231,25.7695 L -52.1531,25.7545 L -52.1791,25.738
 L -52.2012,25.7199 L -52.2194,25.7004 L -52.2337,25.6786 L -52.2439,25.6542 L -52.25,25.6271 L -52.252,25.5973
 L -52.2471,25.5496 L -52.2323,25.5084 L -52.2077,25.4737 L -52.1733,25.4454 L -52.1286,25.4234 L -52.073,25.4077
 L -52.0065,25.3983 L -51.9292,25.3952 L -51.8584,25.3985 L -51.7951,25.4082 L -51.7393,25.4246 L -51.6912,25.4474
 L -51.651,25.4764 L -51.6194,25.511 L -51.5964,25.5513 L -51.582,25.5973 L -51.3623,25.5701 L -51.3878,25.4823
 L -51.4265,25.4074 L -51.4784,25.3453 L -51.5434,25.2962 L -51.6211,25.2588 L -51.7113,25.2321 L -51.814,25.2161
 L -51.9292,25.2107 L -52.058,25.2173 L -52.1704,25.237 L -52.2665,25.2699 L -52.3462,25.3159 L -52.4088,25.3744
 L -52.4536,25.4449 L -52.4804,25.5273 L -52.4893,25.6217 L -52.4862,25.6738 L -52.4768,25.7217 L -52.4611,25.7654
 L -52.4391,25.8048 L -52.4116,25.8407 L -52.3793,25.8738 L -52.3421,25.9041 L -52.3001,25.9316 L -52.2481,25.9578
 L -52.1809,25.9843 L -52.0986,26.011 L -52.0011,26.038 L -51.8261,26.0841 L -51.7642,26.103 L -51.7115,26.1241
 L -51.6679,26.1477 L -51.6335,26.1737 L -51.6074,26.2028 L -51.5888,26.236 L -51.5776,26.2733 L -51.5738,26.3147
 L -51.5792,26.3681 L -51.5954,26.4144 L -51.6223,26.4536 L -51.66,26.4856 L -51.7093,26.5105 L -51.771,26.5283
 L -51.8452,26.539 L -51.9319,26.5426 L -52.014,26.5391 L -52.0865,26.5288 L -52.1496,26.5117 L -52.2032,26.4876
 L -52.2478,26.4562 L -52.2842,26.4169 L -52.3122,26.3698 L -52.332,26.3147 L -52.5476,26.3568 L -52.5188,26.4461
 L -52.4769,26.5227 L -52.4221,26.5868 L -52.3544,26.6382 L -52.2723,26.6776 L -52.1745,26.7058 L -52.0611,26.7227
 L -51.9319,26.7284 z
M 56.6169,26.7213 L 56.7344,26.7002 L 56.8362,26.6651 L 56.9224,26.6158 L 56.9909,26.5536 L 57.0399,26.4795
 L 57.0693,26.3935 L 57.079,26.2957 L 57.0773,26.2548 L 57.0723,26.2162 L 57.0638,26.1799 L 57.0519,26.1459
 L 57.0369,26.114 L 57.0192,26.084 L 56.9986,26.056 L 56.9753,26.0299 L 56.9483,26.0054 L 56.9168,25.9819
 L 56.8808,25.9596 L 56.8403,25.9384 L 56.7908,25.9172 L 56.7278,25.8951 L 56.6512,25.8721 L 56.561,25.8482
 L 56.4674,25.8244 L 56.3914,25.8034 L 56.3331,25.7851 L 56.2924,25.7695 L 56.2625,25.7545 L 56.2365,25.738
 L 56.2143,25.7199 L 56.1961,25.7004 L 56.1819,25.6786 L 56.1717,25.6542 L 56.1656,25.6271 L 56.1636,25.5973
 L 56.1685,25.5496 L 56.1832,25.5084 L 56.2078,25.4737 L 56.2422,25.4454 L 56.287,25.4234 L 56.3426,25.4077
 L 56.4091,25.3983 L 56.4864,25.3952 L 56.5572,25.3985 L 56.6205,25.4082 L 56.6762,25.4246 L 56.7244,25.4474
 L 56.7645,25.4764 L 56.7961,25.511 L 56.8191,25.5513 L 56.8336,25.5973 L 57.0533,25.5701 L 57.0277,25.4823
 L 56.989,25.4074 L 56.9372,25.3453 L 56.8722,25.2962 L 56.7944,25.2588 L 56.7042,25.2321 L 56.6015,25.2161
 L 56.4864,25.2107 L 56.3576,25.2173 L 56.2451,25.237 L 56.149,25.2699 L 56.0693,25.3159 L 56.0067,25.3744
 L 55.962,25.4449 L 55.9352,25.5273 L 55.9262,25.6217 L 55.9294,25.6738 L 55.9388,25.7217 L 55.9545,25.7654
 L 55.9764,25.8048 L 56.0039,25.8407 L 56.0363,25.8738 L 56.0734,25.9041 L 56.1154,25.9316 L 56.1674,25.9578
 L 56.2346,25.9843 L 56.317,26.011 L 56.4145,26.038 L 56.5894,26.0841 L 56.6513,26.103 L 56.704,26.1241
 L 56.7476,26.1477 L 56.782,26.1737 L 56.8081,26.2028 L 56.8268,26.236 L 56.838,26.2733 L 56.8417,26.3147
 L 56.8363,26.3681 L 56.8202,26.4144 L 56.7933,26.4536 L 56.7556,26.4856 L 56.7063,26.5105 L 56.6445,26.5283
 L 56.5703,26.539 L 56.4836,26.5426 L 56.4016,26.5391 L 56.329,26.5288 L 56.266,26.5117 L 56.2124,26.4876
 L 56.1677,26.4562 L 56.1314,26.4169 L 56.1033,26.3698 L 56.0836,26.3147 L 55.8679,26.3568 L 55.8968,26.4461
 L 55.9386,26.5227 L 55.9934,26.5868 L 56.0612,26.6382 L 56.1433,26.6776 L 56.241,26.7058 L 56.3545,26.7227
 L 56.4836,26.7284 z
M 35.8043,26.7213 L 35.9218,26.7002 L 36.0236,26.6651 L 36.1098,26.6158 L 36.1783,26.5536 L 36.2273,26.4795
 L 36.2567,26.3935 L 36.2664,26.2957 L 36.2648,26.2548 L 36.2597,26.2162 L 36.2512,26.1799 L 36.2393,26.1459
 L 36.2243,26.114 L 36.2066,26.084 L 36.186,26.056 L 36.1627,26.0299 L 36.1357,26.0054 L 36.1042,25.9819
 L 36.0682,25.9596 L 36.0278,25.9384 L 35.9783,25.9172 L 35.9152,25.8951 L 35.8386,25.8721 L 35.7484,25.8482
 L 35.6548,25.8244 L 35.5788,25.8034 L 35.5205,25.7851 L 35.4798,25.7695 L 35.4499,25.7545 L 35.4239,25.738
 L 35.4017,25.7199 L 35.3835,25.7004 L 35.3693,25.6786 L 35.3591,25.6542 L 35.353,25.6271 L 35.351,25.5973
 L 35.3559,25.5496 L 35.3706,25.5084 L 35.3952,25.4737 L 35.4296,25.4454 L 35.4744,25.4234 L 35.53,25.4077
 L 35.5965,25.3983 L 35.6738,25.3952 L 35.7446,25.3985 L 35.8079,25.4082 L 35.8636,25.4246 L 35.9118,25.4474
 L 35.9519,25.4764 L 35.9835,25.511 L 36.0065,25.5513 L 36.021,25.5973 L 36.2407,25.5701 L 36.2151,25.4823
 L 36.1764,25.4074 L 36.1246,25.3453 L 36.0596,25.2962 L 35.9818,25.2588 L 35.8916,25.2321 L 35.7889,25.2161
 L 35.6738,25.2107 L 35.545,25.2173 L 35.4325,25.237 L 35.3364,25.2699 L 35.2567,25.3159 L 35.1941,25.3744
 L 35.1494,25.4449 L 35.1226,25.5273 L 35.1136,25.6217 L 35.1168,25.6738 L 35.1262,25.7217 L 35.1419,25.7654
 L 35.1638,25.8048 L 35.1913,25.8407 L 35.2236,25.8738 L 35.2608,25.9041 L 35.3028,25.9316 L 35.3548,25.9578
 L 35.422,25.9843 L 35.5044,26.011 L 35.6019,26.038 L 35.7769,26.0841 L 35.8387,26.103 L 35.8914,26.1241
 L 35.935,26.1477 L 35.9694,26.1737 L 35.9955,26.2028 L 36.0142,26.236 L 36.0254,26.2733 L 36.0291,26.3147
 L 36.0237,26.3681 L 36.0076,26.4144 L 35.9807,26.4536 L 35.943,26.4856 L 35.8937,26.5105 L 35.8319,26.5283
 L 35.7577,26.539 L 35.6711,26.5426 L 35.589,26.5391 L 35.5164,26.5288 L 35.4534,26.5117 L 35.3998,26.4876
 L 35.3551,26.4562 L 35.3188,26.4169 L 35.2907,26.3698 L 35.271,26.3147 L 35.0553,26.3568 L 35.0842,26.4461
 L 35.126,26.5227 L 35.1808,26.5868 L 35.2486,26.6382 L 35.3307,26.6776 L 35.4285,26.7058 L 35.5419,26.7227
 L 35.6711,26.7284 z
M -43.9574,26.7213 L -43.8398,26.7002 L -43.738,26.6651 L -43.6518,26.6158 L -43.5833,26.5536 L -43.5343,26.4795
 L -43.505,26.3935 L -43.4952,26.2957 L -43.4969,26.2548 L -43.502,26.2162 L -43.5104,26.1799 L -43.5223,26.1459
 L -43.5373,26.114 L -43.555,26.084 L -43.5756,26.056 L -43.5989,26.0299 L -43.6259,26.0054 L -43.6574,25.9819
 L -43.6934,25.9596 L -43.7339,25.9384 L -43.7834,25.9172 L -43.8464,25.8951 L -43.9231,25.8721 L -44.0133,25.8482
 L -44.1068,25.8244 L -44.1828,25.8034 L -44.2411,25.7851 L -44.2818,25.7695 L -44.3117,25.7545 L -44.3378,25.738
 L -44.3599,25.7199 L -44.3781,25.7004 L -44.3923,25.6786 L -44.4025,25.6542 L -44.4086,25.6271 L -44.4107,25.5973
 L -44.4057,25.5496 L -44.391,25.5084 L -44.3664,25.4737 L -44.332,25.4454 L -44.2872,25.4234 L -44.2316,25.4077
 L -44.1652,25.3983 L -44.0879,25.3952 L -44.017,25.3985 L -43.9538,25.4082 L -43.898,25.4246 L -43.8498,25.4474
 L -43.8097,25.4764 L -43.7781,25.511 L -43.7551,25.5513 L -43.7407,25.5973 L -43.521,25.5701 L -43.5465,25.4823
 L -43.5852,25.4074 L -43.637,25.3453 L -43.702,25.2962 L -43.7798,25.2588 L -43.87,25.2321 L -43.9727,25.2161
 L -44.0879,25.2107 L -44.2167,25.2173 L -44.3291,25.237 L -44.4252,25.2699 L -44.5049,25.3159 L -44.5675,25.3744
 L -44.6122,25.4449 L -44.6391,25.5273 L -44.648,25.6217 L -44.6449,25.6738 L -44.6355,25.7217 L -44.6198,25.7654
 L -44.5978,25.8048 L -44.5703,25.8407 L -44.538,25.8738 L -44.5008,25.9041 L -44.4588,25.9316 L -44.4068,25.9578
 L -44.3396,25.9843 L -44.2573,26.011 L -44.1597,26.038 L -43.9848,26.0841 L -43.9229,26.103 L -43.8702,26.1241
 L -43.8266,26.1477 L -43.7922,26.1737 L -43.7661,26.2028 L -43.7474,26.236 L -43.7363,26.2733 L -43.7325,26.3147
 L -43.7379,26.3681 L -43.754,26.4144 L -43.781,26.4536 L -43.8186,26.4856 L -43.8679,26.5105 L -43.9297,26.5283
 L -44.0039,26.539 L -44.0906,26.5426 L -44.1726,26.5391 L -44.2452,26.5288 L -44.3083,26.5117 L -44.3618,26.4876
 L -44.4065,26.4562 L -44.4429,26.4169 L -44.4709,26.3698 L -44.4907,26.3147 L -44.7063,26.3568 L -44.6774,26.4461
 L -44.6356,26.5227 L -44.5808,26.5868 L -44.5131,26.6382 L -44.431,26.6776 L -44.3332,26.7058 L -44.2197,26.7227
 L -44.0906,26.7284 z
M -31.141,26.7213 L -31.0235,26.7002 L -30.9216,26.6651 L -30.8355,26.6158 L -30.767,26.5536 L -30.718,26.4795
 L -30.6886,26.3935 L -30.6788,26.2957 L -30.6805,26.2548 L -30.6856,26.2162 L -30.6941,26.1799 L -30.706,26.1459
 L -30.7209,26.114 L -30.7387,26.084 L -30.7592,26.056 L -30.7826,26.0299 L -30.8096,26.0054 L -30.8411,25.9819
 L -30.8771,25.9596 L -30.9175,25.9384 L -30.967,25.9172 L -31.0301,25.8951 L -31.1067,25.8721 L -31.1969,25.8482
 L -31.2905,25.8244 L -31.3665,25.8034 L -31.4248,25.7851 L -31.4655,25.7695 L -31.4954,25.7545 L -31.5214,25.738
 L -31.5435,25.7199 L -31.5618,25.7004 L -31.576,25.6786 L -31.5862,25.6542 L -31.5923,25.6271 L -31.5943,25.5973
 L -31.5894,25.5496 L -31.5746,25.5084 L -31.5501,25.4737 L -31.5156,25.4454 L -31.4709,25.4234 L -31.4153,25.4077
 L -31.3488,25.3983 L -31.2715,25.3952 L -31.2007,25.3985 L -31.1374,25.4082 L -31.0817,25.4246 L -31.0335,25.4474
 L -30.9933,25.4764 L -30.9618,25.511 L -30.9388,25.5513 L -30.9243,25.5973 L -30.7046,25.5701 L -30.7302,25.4823
 L -30.7689,25.4074 L -30.8207,25.3453 L -30.8857,25.2962 L -30.9634,25.2588 L -31.0537,25.2321 L -31.1564,25.2161
 L -31.2715,25.2107 L -31.4003,25.2173 L -31.5128,25.237 L -31.6088,25.2699 L -31.6886,25.3159 L -31.7512,25.3744
 L -31.7959,25.4449 L -31.8227,25.5273 L -31.8316,25.6217 L -31.8285,25.6738 L -31.8191,25.7217 L -31.8034,25.7654
 L -31.7815,25.8048 L -31.754,25.8407 L -31.7216,25.8738 L -31.6844,25.9041 L -31.6424,25.9316 L -31.5904,25.9578
 L -31.5233,25.9843 L -31.4409,26.011 L -31.3434,26.038 L -31.1684,26.0841 L -31.1066,26.103 L -31.0538,26.1241
 L -31.0103,26.1477 L -30.9758,26.1737 L -30.9497,26.2028 L -30.9311,26.236 L -30.9199,26.2733 L -30.9162,26.3147
 L -30.9216,26.3681 L -30.9377,26.4144 L -30.9646,26.4536 L -31.0023,26.4856 L -31.0516,26.5105 L -31.1133,26.5283
 L -31.1875,26.539 L -31.2742,26.5426 L -31.3563,26.5391 L -31.4288,26.5288 L -31.4919,26.5117 L -31.5455,26.4876
 L -31.5901,26.4562 L -31.6265,26.4169 L -31.6546,26.3698 L -31.6743,26.3147 L -31.89,26.3568 L -31.8611,26.4461
 L -31.8193,26.5227 L -31.7645,26.5868 L -31.6967,26.6382 L -31.6146,26.6776 L -31.5168,26.7058 L -31.4034,26.7227
 L -31.2742,26.7284 z
M -4.42059,27.239 L -4.22859,27.123 L -4.1134,26.9298 L -4.075,26.6592 L -4.075,25.5376 L -4.07449,25.4321
 L -4.07297,25.3464 L -4.07042,25.2802 L -4.06686,25.2338 L -4.29878,25.2338 L -4.30148,25.2442 L -4.3042,25.266
 L -4.30692,25.2992 L -4.30962,25.3437 L -4.312,25.3901 L -4.31369,25.4291 L -4.3147,25.4606 L -4.31503,25.4847
 L -4.31776,25.4847 L -4.35222,25.4227 L -4.3932,25.3682 L -4.44072,25.3213 L -4.49477,25.2819 L -4.55464,25.2508
 L -4.61971,25.2285 L -4.68993,25.2152 L -4.76532,25.2107 L -4.89548,25.2223 L -5.00792,25.257 L -5.10265,25.3149
 L -5.17966,25.3959 L -5.23929,25.5012 L -5.28189,25.632 L -5.30743,25.7884 L -5.31596,25.9702 L -5.30803,26.1493
 L -5.28426,26.3028 L -5.24463,26.4308 L -5.18916,26.5331 L -5.11681,26.6114 L -5.02657,26.6673 L -4.91844,26.7009
 L -4.79243,26.7121 L -4.71429,26.7077 L -4.64124,26.6943 L -4.57326,26.6721 L -4.51036,26.6409 L -4.45322,26.6009
 L -4.40253,26.5522 L -4.35828,26.4948 L -4.32048,26.4286 L -4.31776,26.4286 L -4.31776,26.6646 L -4.34056,26.8515
 L -4.40897,26.985 L -4.52298,27.0651 L -4.6826,27.0918 L -4.74715,27.0884 L -4.80518,27.0781 L -4.85667,27.0609
 L -4.90164,27.0369 L -4.93965,27.0065 L -4.97029,26.9703 L -4.99355,26.9282 L -5.00945,26.8803 L -5.25494,26.9155
 L -5.22824,26.9974 L -5.18881,27.0693 L -5.13669,27.1313 L -5.07184,27.1834 L -4.99454,27.2246 L -4.90503,27.2541
 L -4.8033,27.2717 L -4.68938,27.2776 z
M -4.79958,26.5235 L -4.87518,26.4988 L -4.93655,26.4577 L -4.98367,26.4002 L -5.01869,26.3238 L -5.0437,26.2262
 L -5.0587,26.1075 L -5.06371,25.9675 L -5.05836,25.8261 L -5.04234,25.7058 L -5.01564,25.6064 L -4.97826,25.5281
 L -4.92918,25.4688 L -4.86739,25.4264 L -4.79288,25.401 L -4.70564,25.3925 L -4.65085,25.3968 L -4.59901,25.4096
 L -4.55016,25.431 L -4.50426,25.461 L -4.46234,25.499 L -4.42543,25.5447 L -4.39351,25.598 L -4.36659,25.659
 L -4.34523,25.7268 L -4.32997,25.8009 L -4.32082,25.8811 L -4.31776,25.9675 L -4.32082,26.052 L -4.32997,26.1304
 L -4.34523,26.2029 L -4.36659,26.2693 L -4.39355,26.329 L -4.4256,26.3813 L -4.46272,26.4263 L -4.50494,26.4639
 L -4.5513,26.4936 L -4.60089,26.5148 L -4.65369,26.5275 L -4.70972,26.5317 z
M 26.5123,25.2338 L 26.2681,25.2338 L 26.2681,26.7012 L 26.5123,26.7012 z
M -46.2693,25.2338 L -46.5284,25.2338 L -46.862,26.1913 L -46.9149,26.3513 L -46.9624,26.51 L -46.9967,26.3897
 L -47.0237,26.2961 L -47.0435,26.229 L -47.0559,26.1886 L -47.3787,25.2338 L -47.6391,25.2338 L -47.1061,26.7012
 L -46.8172,26.7012 z
M -11.9456,26.7244 L -11.8736,26.7126 L -11.8083,26.6929 L -11.7497,26.6653 L -11.6961,26.6282 L -11.6458,26.58
 L -11.5988,26.5207 L -11.5551,26.4503 L -11.551,26.4503 L -11.5497,26.4996 L -11.5485,26.5404 L -11.5473,26.5725
 L -11.5463,26.5961 L -11.5444,26.6326 L -11.5422,26.6781 L -11.5415,26.6887 L -11.5408,26.6964 L -11.5402,26.7012
 L -11.3096,26.7012 L -11.3132,26.6603 L -11.3157,26.5944 L -11.3172,26.5036 L -11.3177,26.3879 L -11.3177,25.2338
 L -11.5619,25.2338 L -11.5619,26.0841 L -11.5682,26.1854 L -11.5873,26.275 L -11.6191,26.3529 L -11.6636,26.4191
 L -11.7191,26.472 L -11.784,26.5097 L -11.8581,26.5323 L -11.9416,26.5398 L -11.9983,26.5376 L -12.0477,26.531
 L -12.0899,26.52 L -12.1247,26.5046 L -12.1538,26.4842 L -12.1786,26.4581 L -12.1992,26.4265 L -12.2156,26.3893
 L -12.228,26.3452 L -12.2369,26.293 L -12.2423,26.2327 L -12.2441,26.1642 L -12.2441,25.2338 L -12.4895,25.2338
 L -12.4895,26.2116 L -12.4825,26.3402 L -12.4616,26.4491 L -12.4266,26.5385 L -12.3777,26.6083 L -12.3136,26.6609
 L -12.2334,26.6984 L -12.137,26.7209 L -12.0243,26.7284 z
M 2.58266,25.2338 L 2.32362,25.2338 L 1.98997,26.1913 L 1.9371,26.3513 L 1.88962,26.51 L 1.8553,26.3897
 L 1.82826,26.2961 L 1.8085,26.229 L 1.79604,26.1886 L 1.47327,25.2338 L 1.21286,25.2338 L 1.74586,26.7012
 L 2.03474,26.7012 z
M 1.03062,25.2338 L 0.786484,25.2338 L 0.786484,26.7012 L 1.03062,26.7012 z
M 2.98965,25.2338 L 2.74551,25.2338 L 2.74551,26.7012 L 2.98965,26.7012 z
M 69.0855,25.2338 L 68.8265,25.2338 L 68.4928,26.1913 L 68.44,26.3513 L 68.3925,26.51 L 68.3582,26.3897
 L 68.3311,26.2961 L 68.3114,26.229 L 68.2989,26.1886 L 67.9761,25.2338 L 67.7157,25.2338 L 68.2487,26.7012
 L 68.5376,26.7012 z
M -28.2296,26.7244 L -28.1576,26.7126 L -28.0923,26.6929 L -28.0337,26.6653 L -27.9801,26.6282 L -27.9298,26.58
 L -27.8828,26.5207 L -27.8391,26.4503 L -27.835,26.4503 L -27.8337,26.4996 L -27.8325,26.5404 L -27.8313,26.5725
 L -27.8303,26.5961 L -27.8284,26.6326 L -27.8269,26.6646 L -27.8262,26.6781 L -27.8255,26.6887 L -27.8248,26.6964
 L -27.8241,26.7012 L -27.5936,26.7012 L -27.5972,26.6603 L -27.5997,26.5944 L -27.6012,26.5036 L -27.6017,26.3879
 L -27.6017,25.2338 L -27.8459,25.2338 L -27.8459,26.0841 L -27.8522,26.1854 L -27.8713,26.275 L -27.9031,26.3529
 L -27.9476,26.4191 L -28.0031,26.472 L -28.0679,26.5097 L -28.1421,26.5323 L -28.2256,26.5398 L -28.2823,26.5376
 L -28.3317,26.531 L -28.3739,26.52 L -28.4087,26.5046 L -28.4378,26.4842 L -28.4626,26.4581 L -28.4832,26.4265
 L -28.4996,26.3893 L -28.512,26.3452 L -28.5209,26.293 L -28.5263,26.2327 L -28.528,26.1642 L -28.528,25.2338
 L -28.7735,25.2338 L -28.7735,26.2116 L -28.7665,26.3402 L -28.7456,26.4491 L -28.7106,26.5385 L -28.6617,26.6083
 L -28.5976,26.6609 L -28.5174,26.6984 L -28.4209,26.7209 L -28.3083,26.7284 z
M 21.2303,26.7244 L 21.3023,26.7126 L 21.3676,26.6929 L 21.4262,26.6653 L 21.4798,26.6282 L 21.5301,26.58
 L 21.5771,26.5207 L 21.6208,26.4503 L 21.6249,26.4503 L 21.6262,26.4996 L 21.6274,26.5404 L 21.6286,26.5725
 L 21.6296,26.5961 L 21.6315,26.6326 L 21.6337,26.6781 L 21.6344,26.6887 L 21.6351,26.6964 L 21.6358,26.7012
 L 21.8663,26.7012 L 21.8628,26.6603 L 21.8602,26.5944 L 21.8587,26.5036 L 21.8582,26.3879 L 21.8582,25.2338
 L 21.6141,25.2338 L 21.6141,26.0841 L 21.6077,26.1854 L 21.5886,26.275 L 21.5568,26.3529 L 21.5123,26.4191
 L 21.4568,26.472 L 21.392,26.5097 L 21.3178,26.5323 L 21.2343,26.5398 L 21.1776,26.5376 L 21.1282,26.531
 L 21.086,26.52 L 21.0512,26.5046 L 21.0221,26.4842 L 20.9973,26.4581 L 20.9767,26.4265 L 20.9603,26.3893
 L 20.9479,26.3452 L 20.939,26.293 L 20.9336,26.2327 L 20.9319,26.1642 L 20.9319,25.2338 L 20.6864,25.2338
 L 20.6864,26.2116 L 20.6934,26.3402 L 20.7144,26.4491 L 20.7493,26.5385 L 20.7983,26.6083 L 20.8623,26.6609
 L 20.9425,26.6984 L 21.039,26.7209 L 21.1516,26.7284 z
M 24.9237,26.2669 L 25.0069,25.9402 L 25.062,25.7213 L 25.089,25.6102 L 25.101,25.5562 L 25.1114,25.5089
 L 25.12,25.4684 L 25.127,25.4345 L 25.1758,25.6637 L 25.4321,26.7012 L 25.7156,26.7012 L 26.136,25.2338
 L 25.8973,25.2338 L 25.6193,26.3106 L 25.5772,26.4992 L 25.5149,26.2415 L 25.2585,25.2338 L 24.9968,25.2338
 L 24.6903,26.3988 L 24.6672,26.4992 L 24.6452,26.3939 L 24.6282,26.314 L 24.6161,26.2596 L 24.3607,25.2338
 L 24.1193,25.2338 L 24.5302,26.7012 L 24.8123,26.7012 z
M -24.6109,26.7244 L -24.5389,26.7126 L -24.4736,26.6929 L -24.415,26.6653 L -24.3614,26.6282 L -24.3111,26.58
 L -24.2641,26.5207 L -24.2204,26.4503 L -24.2163,26.4503 L -24.215,26.4996 L -24.2138,26.5404 L -24.2126,26.5725
 L -24.2116,26.5961 L -24.2097,26.6326 L -24.2075,26.6781 L -24.2068,26.6887 L -24.2062,26.6964 L -24.2055,26.7012
 L -23.9749,26.7012 L -23.9785,26.6603 L -23.981,26.5944 L -23.9825,26.5036 L -23.9831,26.3879 L -23.9831,25.2338
 L -24.2272,25.2338 L -24.2272,26.0841 L -24.2335,26.1854 L -24.2526,26.275 L -24.2844,26.3529 L -24.3289,26.4191
 L -24.3844,26.472 L -24.4493,26.5097 L -24.5234,26.5323 L -24.6069,26.5398 L -24.6636,26.5376 L -24.7131,26.531
 L -24.7552,26.52 L -24.79,26.5046 L -24.8191,26.4842 L -24.8439,26.4581 L -24.8645,26.4265 L -24.8809,26.3893
 L -24.8934,26.3452 L -24.9023,26.293 L -24.9076,26.2327 L -24.9094,26.1642 L -24.9094,25.2338 L -25.1549,25.2338
 L -25.1549,26.2116 L -25.1479,26.3402 L -25.1269,26.4491 L -25.0919,26.5385 L -25.043,26.6083 L -24.9789,26.6609
 L -24.8987,26.6984 L -24.8023,26.7209 L -24.6897,26.7284 z
M -63.06,26.7244 L -62.9879,26.7126 L -62.9226,26.6929 L -62.864,26.6653 L -62.8104,26.6282 L -62.7601,26.58
 L -62.7131,26.5207 L -62.6694,26.4503 L -62.6653,26.4503 L -62.664,26.4996 L -62.6628,26.5404 L -62.6617,26.5725
 L -62.6606,26.5961 L -62.6587,26.6326 L -62.6565,26.6781 L -62.6558,26.6887 L -62.6552,26.6964 L -62.6545,26.7012
 L -62.4239,26.7012 L -62.4275,26.6603 L -62.43,26.5944 L -62.4315,26.5036 L -62.4321,26.3879 L -62.4321,25.2338
 L -62.6762,25.2338 L -62.6762,26.0841 L -62.6825,26.1854 L -62.7016,26.275 L -62.7334,26.3529 L -62.7779,26.4191
 L -62.8334,26.472 L -62.8983,26.5097 L -62.9724,26.5323 L -63.0559,26.5398 L -63.1126,26.5376 L -63.1621,26.531
 L -63.2042,26.52 L -63.239,26.5046 L -63.2681,26.4842 L -63.2929,26.4581 L -63.3135,26.4265 L -63.3299,26.3893
 L -63.3424,26.3452 L -63.3513,26.293 L -63.3566,26.2327 L -63.3584,26.1642 L -63.3584,25.2338 L -63.6039,25.2338
 L -63.6039,26.2116 L -63.5969,26.3402 L -63.5759,26.4491 L -63.5409,26.5385 L -63.492,26.6083 L -63.4279,26.6609
 L -63.3477,26.6984 L -63.2513,26.7209 L -63.1387,26.7284 z
M 32.3933,25.2338 L 32.1491,25.2338 L 32.1491,26.7012 L 32.3933,26.7012 z
M -5.60533,25.2338 L -5.84947,25.2338 L -5.84947,26.7012 L -5.60533,26.7012 z
M 24.0215,25.855 L 23.3434,25.855 L 23.3434,26.0719 L 24.0215,26.0719 z
M -60.2687,25.855 L -60.9468,25.855 L -60.9468,26.0719 L -60.2687,26.0719 z
M -9.15437,25.855 L -9.8325,25.855 L -9.8325,26.0719 L -9.15437,26.0719 z
M -17.8833,25.9038 L -20.6609,25.9038 L -20.6609,26.0896 L -17.8833,26.0896 z
M 36.7761,27.012 L 36.7979,26.9664 L 36.8161,26.9198 L 36.8307,26.8721 L 36.842,26.821 L 36.8501,26.764
 L 36.8549,26.701 L 36.8565,26.6321 L 36.8565,26.4042 L 36.592,26.4042 L 36.592,26.7012 L 36.7114,26.7012
 L 36.7034,26.7875 L 36.6795,26.8755 L 36.6397,26.9652 L 36.5839,27.0566 L 36.7507,27.0566 z
M 71.0893,26.4042 L 70.8248,26.4042 L 70.8248,26.7012 L 71.0893,26.7012 z
M 7.37508,27.012 L 7.39685,26.9664 L 7.41508,26.9198 L 7.42975,26.8721 L 7.44102,26.821 L 7.44908,26.764
 L 7.4539,26.701 L 7.45552,26.6321 L 7.45552,26.4042 L 7.19104,26.4042 L 7.19104,26.7012 L 7.31039,26.7012
 L 7.30243,26.7875 L 7.27853,26.8755 L 7.23869,26.9652 L 7.18292,27.0566 L 7.34972,27.0566 z
M 16.5007,26.4042 L 16.2363,26.4042 L 16.2363,26.7012 L 16.5007,26.7012 z
" stroke="black" fill="lightgray" stroke-width="0.5"/>
</svg>
