<?xml version="1.0" standalone="no"?>
<!DOCTYPE svg PUBLIC "-//W3C//DTD SVG 1.1//EN" "http://www.w3.org/Graphics/SVG/1.1/DTD/svg11.dtd">
<svg width="80mm" height="43mm" viewBox="-20 -24 80 43" xmlns="http://www.w3.org/2000/svg" version="1.1">
<title>OpenSCAD Model</title>
<path d="
M 0.610321,0.444748 L 10.5098,-5.27072 L 10.5278,-5.2874 L 10.5391,-5.31238 L 10.543,-5.34396 L 10.5684,-5.3631
 L 10.5844,-5.38538 L 10.5898,-5.40929 L 10.5898,-23.3722 L 10.5844,-23.3961 L 10.5684,-23.4184 L 10.543,-23.4375
 L 10.5391,-23.4691 L 10.5278,-23.4941 L 10.5098,-23.5108 L 9.97949,-23.817 L 9.95605,-23.8242 L 9.92877,-23.8215
 L 9.89949,-23.809 L 9.87021,-23.8215 L 9.84293,-23.8242 L 9.81949,-23.817 L -0.0799866,-18.1015 L -0.0979767,-18.0848
 L -0.109268,-18.0598 L -0.113129,-18.0282 L -0.13855,-18.0091 L -0.154541,-17.9868 L -0.159988,-17.9629 L -0.159988,-0
 L -0.154541,0.0238953 L -0.13855,0.0461731 L -0.113129,0.0653076 L -0.109268,0.0968933 L -0.0979767,0.121887 L -0.0799866,0.13855
 L 0.450317,0.444748 L 0.473755,0.451981 L 0.501038,0.449265 L 0.530319,0.436813 L 0.559601,0.449265 L 0.586884,0.451981
 z
M 43.3569,18.918 L 53.2564,13.2025 L 53.2744,13.1858 L 53.2857,13.1608 L 53.2895,13.1293 L 53.315,13.1101
 L 53.3309,13.0878 L 53.3364,13.0639 L 53.3364,12.4516 L 53.3309,12.4277 L 53.315,12.4054 L 53.2895,12.3862
 L 53.2857,12.3547 L 53.2744,12.3297 L 53.2564,12.313 L 50.9333,10.9718 L 50.9333,10.4274 L 50.6,10.4274
 L 50.4284,10.6802 L 20.7295,-6.4664 L 20.7061,-6.47363 L 20.6788,-6.47093 L 20.6495,-6.45848 L 20.6202,-6.47093
 L 20.5929,-6.47363 L 20.5695,-6.4664 L 10.67,-0.750931 L 10.652,-0.734253 L 10.6407,-0.709274 L 10.6369,-0.677689
 L 10.6115,-0.658554 L 10.5955,-0.636276 L 10.59,-0.612366 L 10.59,-0 L 10.5955,0.0238953 L 10.6115,0.0461731
 L 10.6369,0.0653076 L 10.6407,0.0968933 L 10.652,0.121887 L 10.67,0.13855 L 28.6264,10.5057 L 28.6016,10.5645
 L 28.5801,10.6674 L 28.4476,10.6674 L 28.4627,11.0039 L 28.3049,11.0039 L 28.3049,11.2349 L 28.4732,11.2349
 L 28.4828,11.4484 L 28.5729,11.4484 L 28.5729,12.9116 L 28.8903,12.9116 L 28.8903,11.2349 L 29.2623,11.2349
 L 29.2623,11.0039 L 28.8903,11.0039 L 28.8903,10.8329 L 28.8937,10.7581 L 28.904,10.6958 L 28.9125,10.6709
 L 30.1149,11.3651 L 30.1158,11.3889 L 30.1178,11.4988 L 30.1185,11.6336 L 30.1185,13.9009 L 30.4358,13.9009
 L 30.4358,13.1551 L 30.4354,13.0293 L 30.4341,12.9374 L 30.4319,12.8794 L 30.4288,12.8554 L 30.4376,12.8554
 L 30.5315,13.0004 L 30.6615,13.104 L 30.8277,13.1662 L 31.03,13.1869 L 31.337,13.1245 L 31.5563,12.9374
 L 31.5672,12.9116 L 31.7667,12.9116 L 31.7667,12.3492 L 31.8194,12.3492 L 32.0797,12.4995 L 32.0797,13.1516
 L 32.3971,13.1516 L 32.3971,12.6827 L 33.3485,13.232 L 33.261,13.4091 L 33.1515,13.5452 L 33.0265,13.6269
 L 32.8861,13.6541 L 32.8465,13.6534 L 32.8085,13.6515 L 32.7724,13.6482 L 32.738,13.6435 L 32.738,13.8815
 L 32.7847,13.89 L 32.8367,13.8961 L 32.894,13.8997 L 32.9566,13.9009 L 33.0331,13.8964 L 33.1054,13.8826
 L 33.1737,13.8598 L 33.2379,13.8278 L 33.2986,13.7864 L 33.3566,13.7356 L 33.4119,13.6754 L 33.4644,13.6056
 L 33.5165,13.5214 L 33.5706,13.4176 L 33.5913,13.3722 L 34.4365,13.8601 L 34.4043,13.8992 L 34.5041,13.8992
 L 43.1969,18.918 L 43.2203,18.9252 L 43.2476,18.9225 L 43.2769,18.9101 L 43.3062,18.9225 L 43.3335,18.9252
 z
M 50.6287,10.7959 L 50.6291,10.7951 L 50.6335,10.7853 L 50.6335,10.7987 z
M 30.4323,11.5507 L 30.4323,11.5483 L 30.4364,11.5507 z
M 30.4914,11.7826 L 30.5223,11.7039 L 30.5597,11.6364 L 30.5675,11.6264 L 30.6048,11.6479 L 30.477,11.8361
 z
M 30.5889,12.0988 L 30.6171,12.0636 L 30.7123,11.9331 L 30.8211,11.7728 L 31.3857,12.0988 z
M 30.8199,12.9412 L 30.7131,12.9079 L 30.625,12.8522 L 30.5557,12.7743 L 30.5033,12.6729 L 30.4658,12.5469
 L 30.4433,12.3961 L 30.4413,12.3492 L 31.393,12.3492 L 31.3917,12.3858 L 31.3714,12.5462 L 31.3375,12.6772
 L 31.2901,12.7787 L 31.2279,12.8547 L 31.1497,12.909 L 31.0555,12.9415 L 30.9454,12.9524 z
M 58.5637,13.4773 L 58.6972,13.2894 L 58.8092,13.0956 L 58.8998,12.8958 L 58.9696,12.6865 L 59.0194,12.4642
 L 59.0493,12.229 L 59.0593,11.9807 L 59.0593,11.9737 L 59.0494,11.7269 L 59.0197,11.4926 L 58.9701,11.2707
 L 58.9007,11.0612 L 58.8104,10.861 L 58.6983,10.6665 L 58.5644,10.4779 L 58.4087,10.2952 L 58.102,10.2952
 L 58.2558,10.482 L 58.3878,10.6742 L 58.4978,10.8717 L 58.5859,11.0745 L 58.6534,11.2849 L 58.7016,11.5055
 L 58.7306,11.7363 L 58.7402,11.9772 L 58.7306,12.218 L 58.7018,12.4486 L 58.6539,12.6689 L 58.5868,12.879
 L 58.499,13.0815 L 58.3889,13.279 L 58.2566,13.4716 L 58.102,13.6592 L 58.4087,13.6592 z
M 56.0947,10.2952 L 55.7774,10.2952 L 55.7774,12.9116 L 56.0947,12.9116 z
M 22.5929,13.7107 L 22.4602,13.5175 L 22.35,13.3193 L 22.2625,13.1163 L 22.1958,12.9061 L 22.1842,12.8526
 L 22.2431,12.8809 L 22.3702,12.9176 L 22.5177,12.9395 L 22.6855,12.9469 L 22.8587,12.9377 L 23.0115,12.9103
 L 23.0325,12.903 L 23.0449,12.9215 L 23.1459,13.0167 L 23.2679,13.0912 L 23.4088,13.1443 L 23.5689,13.1762
 L 23.748,13.1869 L 23.9391,13.1751 L 24.1068,13.1397 L 24.2512,13.0807 L 24.3722,12.9982 L 24.4678,12.8942
 L 24.5361,12.7708 L 24.5771,12.628 L 24.5908,12.4658 L 24.5811,12.3518 L 24.552,12.248 L 24.5035,12.1544
 L 24.4356,12.0708 L 24.3503,12.0003 L 24.2496,11.9456 L 24.1335,11.9069 L 24.1156,11.9037 L 24.1156,11.846
 L 24.1213,11.8444 L 24.2256,11.8 L 24.3148,11.7435 L 24.3889,11.675 L 24.4472,11.595 L 24.4888,11.5038
 L 24.5137,11.4014 L 24.522,11.288 L 24.5162,11.2222 L 24.6092,11.2138 L 24.6801,11.2166 L 24.7428,11.2252
 L 24.7973,11.2395 L 24.8437,11.2596 L 24.8831,11.2858 L 24.9165,11.3184 L 24.9439,11.3576 L 24.9654,11.4033
 L 24.9816,11.4587 L 24.9931,11.5269 L 25.0001,11.6081 L 25.0024,11.7021 L 25.0024,12.0895 L 24.7025,13.1869
 L 24.9882,13.1869 L 25.0626,12.9116 L 25.3215,12.9116 L 25.3215,11.9549 L 25.7057,10.5351 L 25.4272,10.5351
 L 25.2406,11.2179 L 25.2387,11.2132 L 25.1743,11.123 L 25.0905,11.0555 L 24.9863,11.0072 L 24.8618,10.9783
 L 24.7168,10.9687 L 24.6114,10.9741 L 24.5156,10.9905 L 24.4668,11.0059 L 24.4055,10.8994 L 24.3149,10.804
 L 24.2009,10.728 L 24.1156,10.6937 L 24.1156,10.2952 L 23.7982,10.2952 L 23.7982,10.6343 L 23.7339,10.6304
 L 23.5707,10.641 L 23.4229,10.6731 L 23.2908,10.7265 L 23.1741,10.8014 L 23.0767,10.8953 L 23.002,11.0059
 L 23.0003,11.01 L 22.9723,11.0017 L 22.8388,10.9809 L 22.6891,10.974 L 22.5217,10.9825 L 22.4133,11.0015
 L 22.4624,10.9133 L 22.5943,10.7214 L 22.7482,10.5351 L 22.4415,10.5351 L 22.2865,10.7171 L 22.153,10.905
 L 22.0409,11.0988 L 21.9504,11.2986 L 21.8806,11.5078 L 21.8307,11.7301 L 21.8008,11.9654 L 21.7908,12.2137
 L 21.7908,12.2207 L 21.8008,12.4675 L 21.8305,12.7018 L 21.8801,12.9237 L 21.9495,13.1331 L 22.0398,13.3334
 L 22.1519,13.5278 L 22.2857,13.7164 L 22.4415,13.8992 L 22.7482,13.8992 z
M 23.535,12.8966 L 23.3738,12.814 L 23.3182,12.744 L 23.345,12.7197 L 23.4087,12.6233 L 23.4468,12.5116
 L 23.4596,12.3844 L 23.4574,12.3313 L 23.4508,12.2811 L 23.4397,12.2339 L 23.4243,12.1896 L 23.4048,12.1481
 L 23.3818,12.1092 L 23.355,12.0728 L 23.3247,12.0389 L 23.2896,12.007 L 23.2487,11.9765 L 23.2019,11.9475
 L 23.1493,11.9199 L 23.0849,11.8924 L 23.0029,11.8637 L 22.9033,11.8338 L 22.7861,11.8026 L 22.6644,11.7718
 L 22.5657,11.7444 L 22.4898,11.7206 L 22.4369,11.7004 L 22.398,11.6809 L 22.3642,11.6594 L 22.3354,11.6359
 L 22.3118,11.6105 L 22.2932,11.5822 L 22.28,11.5505 L 22.2721,11.5152 L 22.2695,11.4765 L 22.2758,11.4145
 L 22.295,11.361 L 22.327,11.3158 L 22.3717,11.279 L 22.4299,11.2504 L 22.5022,11.2301 L 22.5886,11.2178
 L 22.6891,11.2138 L 22.7812,11.218 L 22.8634,11.2307 L 22.9268,11.2493 L 22.9211,11.2774 L 23.0013,11.2836
 L 23.0507,11.3193 L 23.0918,11.3643 L 23.1217,11.4167 L 23.1404,11.4765 L 23.4261,11.4412 L 23.3928,11.327
 L 23.3425,11.2296 L 23.279,11.1535 L 23.2885,11.1284 L 23.333,11.0581 L 23.391,10.9989 L 23.4608,10.9518
 L 23.5406,10.9182 L 23.6305,10.898 L 23.7304,10.8913 L 23.7982,10.8958 L 23.7982,11.7374 L 23.7707,11.7428
 L 23.6475,11.7499 L 23.4747,11.7499 L 23.4747,12.025 L 23.6546,12.025 L 23.7932,12.0321 L 23.7982,12.033
 L 23.7982,12.9116 L 23.8849,12.9116 L 23.8615,12.9168 L 23.748,12.9242 z
M 24.1015,11.3301 L 24.1026,11.3152 L 24.1043,11.2882 L 24.1066,11.2491 L 24.1094,11.1979 L 24.1121,11.141
 L 24.114,11.085 L 24.1148,11.0512 L 24.1299,11.0698 L 24.1665,11.1432 L 24.1846,11.2122 L 24.1605,11.2429
 L 24.1068,11.3301 z
M 22.5789,12.7009 L 22.4846,12.6875 L 22.4026,12.6652 L 22.3329,12.6339 L 22.2748,12.5931 L 22.2276,12.542
 L 22.1911,12.4807 L 22.1655,12.4091 L 22.118,12.4184 L 22.11,12.2172 L 22.1196,11.9769 L 22.1342,11.8606
 L 22.1523,11.8753 L 22.2069,11.9111 L 22.2745,11.9452 L 22.3618,11.9796 L 22.4689,12.0144 L 22.5956,12.0495
 L 22.8231,12.1094 L 22.9035,12.1339 L 22.9721,12.1614 L 23.0287,12.192 L 23.0734,12.2258 L 23.1074,12.2637
 L 23.1316,12.3069 L 23.1462,12.3553 L 23.151,12.4091 L 23.144,12.4785 L 23.1402,12.4895 L 22.8788,12.5134
 L 22.9114,12.6698 L 22.9158,12.6807 L 22.8947,12.6868 L 22.7982,12.7007 L 22.6855,12.7053 z
M 24.1156,12.1483 L 24.1733,12.2011 L 24.2221,12.2747 L 24.2513,12.3594 L 24.2611,12.4552 L 24.2525,12.5644
 L 24.2269,12.6593 L 24.1842,12.7398 L 24.1244,12.806 L 24.1156,12.8122 z
M 28.031,11.4484 L 28.0826,11.4484 L 28.1214,10.6674 L 28.031,10.6674 L 28.031,10.2952 L 27.7136,10.2952
 L 27.7136,12.9116 L 28.031,12.9116 z
M -4.73842,13.1587 L -4.51682,13.074 L -4.34966,12.933 L -4.33746,12.9116 L -3.82228,12.9116 L -3.82228,12.6419
 L -5.11818,12.6419 L -5.08754,12.5795 L -5.04854,12.516 L -5.00116,12.4513 L -4.9454,12.3853 L -4.88028,12.3167
 L -4.82628,12.2647 L -4.18578,12.2647 L -4.18578,12.2225 L -4.23834,11.7789 L -4.24591,11.7637 L -4.20389,11.7252
 L -4.12378,11.644 L -4.06256,11.5725 L -4.0094,11.5011 L -3.96428,11.4297 L -3.9272,11.3583 L -3.89827,11.2868
 L -3.87761,11.2151 L -3.8652,11.1431 L -3.86107,11.0709 L -3.87369,10.9171 L -3.91154,10.782 L -3.97464,10.6655
 L -4.06297,10.5676 L -4.17476,10.49 L -4.30824,10.4347 L -4.46346,10.4014 L -4.64038,10.3904 L -4.80363,10.4014
 L -4.95135,10.4344 L -5.08354,10.4895 L -5.20018,10.5667 L -5.29765,10.6624 L -5.3723,10.7734 L -5.42415,10.8996
 L -5.45319,11.041 L -5.12875,11.0709 L -5.11052,10.9769 L -5.07874,10.894 L -5.0334,10.8222 L -4.9745,10.7615
 L -4.90436,10.7133 L -4.82529,10.6788 L -4.73729,10.6582 L -4.64038,10.6513 L -4.53955,10.6584 L -4.45041,10.6795
 L -4.37294,10.7148 L -4.30716,10.7641 L -4.2547,10.8263 L -4.21722,10.8999 L -4.19473,10.985 L -4.18724,11.0815
 L -4.1916,11.1553 L -4.20467,11.2252 L -4.22643,11.2911 L -4.2569,11.353 L -4.29442,11.4123 L -4.33736,11.4703
 L -4.37184,11.5107 L -4.39603,11.4621 L -4.65884,11.272 L -5.02679,11.2087 L -5.22035,11.2244 L -5.39021,11.2717
 L -5.53639,11.3505 L -5.65889,11.4608 L -5.75569,11.6006 L -5.82483,11.768 L -5.86632,11.963 L -5.88014,12.1854
 L -5.86632,12.4187 L -5.82483,12.6214 L -5.75569,12.7934 L -5.65889,12.9347 L -5.53563,13.045 L -5.38713,13.1238
 L -5.21341,13.1711 L -5.01445,13.1869 z
M -5.5434,12.0215 L -5.53033,11.8938 L -5.50174,11.7806 L -5.45761,11.6818 L -5.39795,11.5974 L -5.32449,11.53
 L -5.23903,11.4817 L -5.14156,11.4528 L -5.03207,11.4432 L -4.92001,11.4518 L -4.82184,11.4778 L -4.73755,11.521
 L -4.66714,11.5816 L -4.60994,11.6609 L -4.58607,11.7143 L -4.62402,11.7462 L -4.6924,11.8009 L -4.76265,11.8567
 L -4.83322,11.9148 L -4.90414,11.9753 L -4.9566,12.0215 z
M -4.54408,12.0215 L -4.51686,11.9989 L -4.51373,12.0215 z
M -5.46466,12.6822 L -5.47057,12.6724 L -5.51299,12.5552 L -5.53844,12.4194 L -5.54692,12.2647 L -5.19762,12.2647
 L -5.24779,12.3236 L -5.3101,12.4055 L -5.36745,12.4935 L -5.41985,12.5876 z
M -5.1371,12.9377 L -5.22078,12.9116 L -4.77919,12.9116 L -4.82866,12.9281 L -4.91643,12.9437 L -5.01445,12.9489
 z
M 13.2108,12.9116 L 13.653,12.9116 L 13.653,12.6366 L 13.3923,12.6366 L 13.569,12.3688 L 14.0821,13.1516
 L 14.4365,13.1516 L 14.2687,12.9116 L 14.3848,12.9116 L 14.3848,11.9437 L 15.1148,11.9437 L 15.3019,11.9307
 L 15.4685,11.8917 L 15.6144,11.8266 L 15.7398,11.7356 L 15.8405,11.6226 L 15.9124,11.4914 L 15.9555,11.3422
 L 15.9699,11.175 L 15.9694,11.1694 L 15.983,11.134 L 16.0283,11.0622 L 16.0872,11.0015 L 16.1574,10.9533
 L 16.2364,10.9188 L 16.3244,10.8982 L 16.4214,10.8913 L 16.5222,10.8983 L 16.6113,10.9195 L 16.6888,10.9548
 L 16.7546,11.0041 L 16.807,11.0663 L 16.8445,11.1399 L 16.867,11.225 L 16.8745,11.3215 L 16.8701,11.3953
 L 16.8571,11.4652 L 16.8353,11.5311 L 16.8048,11.593 L 16.7673,11.6523 L 16.7244,11.7103 L 16.6761,11.7669
 L 16.6223,11.8223 L 16.5642,11.8769 L 16.5027,11.9315 L 16.4377,11.9862 L 16.3693,12.0408 L 16.2991,12.0967
 L 16.2285,12.1548 L 16.1576,12.2152 L 16.0863,12.278 L 16.0158,12.3438 L 15.9468,12.4133 L 15.8796,12.4866
 L 15.8139,12.5636 L 15.7516,12.6455 L 15.6943,12.7335 L 15.6419,12.8276 L 15.5945,12.9277 L 15.5945,13.1516
 L 17.2394,13.1516 L 17.2394,12.9116 L 17.3735,12.9116 L 17.3735,10.7024 L 18.0045,10.7024 L 17.9394,10.7295
 L 17.8228,10.8067 L 17.7253,10.9024 L 17.6507,11.0134 L 17.5988,11.1396 L 17.5698,11.2809 L 17.8942,11.3109
 L 17.9124,11.2169 L 17.9442,11.134 L 17.9896,11.0622 L 18.0485,11.0015 L 18.1186,10.9533 L 18.1977,10.9188
 L 18.2857,10.8982 L 18.3826,10.8913 L 18.4834,10.8983 L 18.5543,10.9152 L 18.5543,11.8497 L 18.5255,11.8769
 L 18.4639,11.9315 L 18.3989,11.9862 L 18.3306,12.0408 L 18.2603,12.0967 L 18.1897,12.1548 L 18.1188,12.2152
 L 18.0476,12.278 L 17.977,12.3438 L 17.9081,12.4133 L 17.8408,12.4866 L 17.7752,12.5636 L 17.7129,12.6455
 L 17.6555,12.7335 L 17.6031,12.8276 L 17.5557,12.9277 L 17.5557,13.1516 L 19.2007,13.1516 L 19.2007,12.8819
 L 18.8911,12.8819 L 18.8911,11.8921 L 18.8992,11.8839 L 18.9604,11.8125 L 18.9993,11.7603 L 20.2346,11.7603
 L 20.2346,12.9116 L 20.5713,12.9116 L 20.5713,10.4274 L 20.2346,10.4274 L 20.2346,10.6674 L 20.1393,10.6674
 L 20.1746,11.4484 L 20.2346,11.4484 L 20.2346,11.4782 L 19.1387,11.4782 L 19.1454,11.455 L 19.1578,11.3831
 L 19.1619,11.3109 L 19.1493,11.1571 L 19.1114,11.022 L 19.0483,10.9054 L 18.96,10.8075 L 18.8911,10.7598
 L 18.8911,10.4274 L 18.5543,10.4274 L 18.5543,10.6411 L 18.3826,10.6304 L 18.2268,10.6409 L 18.2268,10.4274
 L 16.1851,10.4274 L 16.1851,10.6577 L 16.1104,10.6744 L 15.9782,10.7295 L 15.8774,10.7962 L 15.8409,10.731
 L 15.7407,10.6231 L 15.6143,10.5375 L 15.4643,10.4763 L 15.2907,10.4396 L 15.0936,10.4274 L 14.0481,10.4274
 L 14.0481,11.2439 L 14.0415,11.2439 L 13.569,11.9862 L 13.4309,11.7709 L 13.4749,11.7709 L 13.4749,11.4994
 L 13.2568,11.4994 L 13.093,11.2439 L 12.7421,11.2439 L 12.9203,11.4994 L 12.0327,11.4994 L 12.0327,10.7024
 L 13.5807,10.7024 L 13.5807,10.4274 L 11.696,10.4274 L 11.696,12.9116 L 12.8766,12.9116 L 12.7104,13.1516
 L 13.0524,13.1516 z
M 14.3848,11.6774 L 14.3848,11.2597 L 14.3959,11.2439 L 14.3848,11.2439 L 14.3848,10.6971 L 15.0531,10.6971
 L 15.3061,10.7272 L 15.4868,10.8175 L 15.5952,10.9679 L 15.6306,11.1738 L 15.6085,11.2809 L 15.6147,11.2815
 L 15.5961,11.3968 L 15.4903,11.5527 L 15.314,11.6463 L 15.0672,11.6774 z
M 16.9988,10.8075 L 16.887,10.73 L 16.8205,10.7024 L 17.0385,10.7024 L 17.0385,10.8515 z
M 13.7488,12.1678 L 14.0481,11.7405 L 14.0481,12.596 z
M 15.9435,12.8819 L 15.9742,12.8195 L 16.0132,12.756 L 16.0606,12.6913 L 16.1163,12.6253 L 16.1814,12.5567
 L 16.2569,12.484 L 16.3428,12.4073 L 16.439,12.3265 L 16.6084,12.1864 L 16.748,12.066 L 16.8578,11.9652
 L 16.9379,11.8839 L 16.9992,11.8125 L 17.0385,11.7597 L 17.0385,12.8819 z
M 13.067,12.6366 L 12.0327,12.6366 L 12.0327,11.7709 L 13.1098,11.7709 L 13.3892,12.1713 z
M 17.9048,12.8819 L 17.9354,12.8195 L 17.9744,12.756 L 18.0218,12.6913 L 18.0776,12.6253 L 18.1427,12.5567
 L 18.2182,12.484 L 18.304,12.4073 L 18.4002,12.3265 L 18.5543,12.1991 L 18.5543,12.8819 z
M -7.03825,13.1819 L -6.94376,13.167 L -6.85797,13.1422 L -6.7809,13.1075 L -6.71175,13.0614 L -6.64977,13.0022
 L -6.59492,12.93 L -6.54727,12.8448 L -6.54022,12.8448 L -6.53984,12.8836 L -6.53868,12.9259 L -6.53676,12.9718
 L -6.53406,13.0211 L -6.53102,13.0676 L -6.52809,13.1049 L -6.52528,13.1329 L -6.5226,13.1516 L -6.21933,13.1516
 L -6.22395,13.0913 L -6.22726,13.0057 L -6.22925,12.8947 L -6.2299,12.7584 L -6.2299,10.5351 L -6.54727,10.5351
 L -6.54727,11.3268 L -6.54373,11.5401 L -6.54727,11.5401 L -6.59488,11.4596 L -6.64954,11.3907 L -6.71126,11.3335
 L -6.78001,11.288 L -6.85681,11.2533 L -6.94266,11.2285 L -7.03754,11.2136 L -7.14145,11.2087 L -7.44844,11.271
 L -7.66772,11.4581 L -7.7993,11.77 L -7.84192,12.1943 L -7.84192,10.4274 L -8.17867,10.4274 L -8.17867,11.4782
 L -8.21935,11.4782 L -8.21935,11.2439 L -8.53673,11.2439 L -8.53673,11.4782 L -8.97914,11.4782 L -8.98358,11.4696
 L -9.05096,11.3889 L -9.13544,11.325 L -9.23654,11.2764 L -9.35384,11.2417 L -9.48734,11.2209 L -9.52217,11.2193
 L -9.52217,10.4274 L -9.85892,10.4274 L -9.85892,11.232 L -9.95065,11.2481 L -10.0756,11.2908 L -10.1792,11.3506
 L -10.2606,11.4267 L -10.3187,11.5183 L -10.3536,11.6255 L -10.3652,11.7482 L -10.3611,11.8159 L -10.3489,11.8782
 L -10.3285,11.935 L -10.3,11.9862 L -10.2642,12.0329 L -10.2222,12.0759 L -10.1739,12.1153 L -10.1193,12.1511
 L -10.0517,12.1852 L -9.96431,12.2196 L -9.85892,12.2538 L -9.85892,12.9116 L -9.52217,12.9116 L -9.52217,12.3443
 L -9.50304,12.3494 L -9.42259,12.3738 L -9.35405,12.4014 L -9.29742,12.432 L -9.25267,12.4658 L -9.21873,12.5037
 L -9.19449,12.5468 L -9.17995,12.5953 L -9.17509,12.6491 L -9.18208,12.7185 L -9.20308,12.7787 L -9.23807,12.8296
 L -9.28705,12.8713 L -9.35112,12.9037 L -9.43141,12.9268 L -9.52789,12.9407 L -9.64056,12.9453 L -9.74724,12.9409
 L -9.84157,12.9275 L -9.92355,12.9052 L -9.99321,12.8739 L -10.0513,12.8331 L -10.0985,12.782 L -10.135,12.7207
 L -10.1607,12.6491 L -10.441,12.7038 L -10.4035,12.8199 L -10.3491,12.9195 L -10.2779,13.0028 L -10.1898,13.0696
 L -10.0831,13.1209 L -9.95595,13.1576 L -9.80846,13.1795 L -9.64056,13.1869 L -9.46739,13.1777 L -9.31462,13.1503
 L -9.18222,13.1046 L -9.07021,13.0405 L -8.98111,12.9596 L -8.91747,12.8633 L -8.87927,12.7516 L -8.86655,12.6244
 L -8.86876,12.5713 L -8.87537,12.5211 L -8.8864,12.4739 L -8.90182,12.4296 L -8.92128,12.3881 L -8.94437,12.3492
 L -8.97108,12.3127 L -9.00143,12.2789 L -9.03653,12.247 L -9.07747,12.2165 L -9.12424,12.1875 L -9.17686,12.1599
 L -9.24121,12.1324 L -9.3232,12.1037 L -9.42281,12.0737 L -9.52217,12.0474 L -9.52217,11.7603 L -8.53673,11.7603
 L -8.53673,13.1516 L -8.21935,13.1516 L -8.21935,11.7603 L -8.17867,11.7603 L -8.17867,12.9116 L -7.84192,12.9116
 L -7.84192,12.2334 L -7.83252,12.4378 L -7.80063,12.6376 L -7.74745,12.8063 L -7.67302,12.9436 L -7.57599,13.05
 L -7.45505,13.126 L -7.3102,13.1717 L -7.14145,13.1869 z
M -7.17108,12.931 L -7.26529,12.8986 L -7.34299,12.8446 L -7.40414,12.769 L -7.45044,12.6684 L -7.48349,12.5394
 L -7.50333,12.3819 L -7.50995,12.196 L -7.50328,12.0106 L -7.48328,11.8529 L -7.44994,11.7228 L -7.40326,11.6203
 L -7.34161,11.5428 L -7.26332,11.4875 L -7.16838,11.4542 L -7.05681,11.4432 L -6.93274,11.4542 L -6.82672,11.4872
 L -6.73878,11.5423 L -6.66891,11.6195 L -6.61569,11.7203 L -6.57768,11.8465 L -6.55487,11.998 L -6.54727,12.1749
 L -6.55487,12.3585 L -6.57768,12.5164 L -6.61569,12.6486 L -6.66891,12.7549 L -6.739,12.8367 L -6.82761,12.8951
 L -6.93471,12.9301 L -7.06032,12.9418 z
M -9.52217,11.4782 L -9.52217,11.4615 L -9.46271,11.4707 L -9.43716,11.4782 z
M -9.88918,11.9404 L -9.92809,11.9209 L -9.96191,11.8994 L -9.99068,11.8759 L -10.0144,11.8504 L -10.0329,11.8222
 L -10.0461,11.7905 L -10.054,11.7552 L -10.0567,11.7164 L -10.0503,11.6545 L -10.0311,11.601 L -9.99916,11.5558
 L -9.95442,11.519 L -9.89622,11.4904 L -9.85892,11.4799 L -9.85892,11.952 z
M 10.0303,12.9116 L 10.0784,12.9116 L 10.2529,12.902 L 10.4169,12.8733 L 10.5703,12.8253 L 10.7131,12.7582
 L 10.8428,12.6731 L 10.9569,12.5711 L 11.0553,12.4523 L 11.138,12.3166 L 11.2036,12.1664 L 11.2504,12.0043
 L 11.2785,11.8301 L 11.2879,11.644 L 11.2665,11.3689 L 11.2022,11.1271 L 11.095,10.9188 L 10.945,10.7439
 L 10.9133,10.7208 L 10.916,10.6674 L 10.8403,10.6674 L 10.7555,10.6054 L 10.53,10.5065 L 10.2684,10.4472
 L 9.97084,10.4274 L 9.14925,10.4274 L 9.14925,11.4742 L 8.55981,12.3423 L 8.55981,12.5892 L 9.14925,12.5892
 L 9.14925,12.9116 L 9.73055,12.9116 L 9.73055,13.1516 L 10.0303,13.1516 z
M 9.48599,10.6971 L 9.67683,10.6971 L 9.48599,10.9782 z
M 10.3794,12.3388 L 10.0303,12.3388 L 10.0303,10.7016 L 10.1894,10.7123 L 10.3867,10.7578 L 10.5557,10.8335
 L 10.6011,10.8677 L 10.6286,11.4484 L 10.8772,11.4484 L 10.8875,11.2422 L 10.9336,11.4267 L 10.9494,11.644
 L 10.9424,11.7923 L 10.9216,11.9305 L 10.8869,12.0585 L 10.8383,12.1764 L 10.7768,12.2826 L 10.7032,12.3756
 L 10.6176,12.4554 L 10.5201,12.522 L 10.4124,12.5744 L 10.3794,12.5851 z
M 9.48599,12.3388 L 9.48599,11.4214 L 9.6124,11.2351 L 9.62531,11.2153 L 9.64105,11.1893 L 9.65968,11.1571
 L 9.68117,11.1187 L 9.70145,11.0818 L 9.71643,11.0539 L 9.72614,11.0351 L 9.73055,11.0253 L 9.73055,12.3388
 z
M 8.85249,12.3388 L 8.88071,12.3035 L 8.97592,12.1731 L 9.14925,11.9176 L 9.14925,12.3388 z
M 10.0396,12.6419 L 10.0303,12.6419 L 10.0303,12.5892 L 10.3667,12.5892 L 10.2964,12.6119 L 10.1721,12.6344
 z
M 9.48599,12.6419 L 9.48599,12.5892 L 9.73055,12.5892 L 9.73055,12.6419 z
M -0.290207,13.1812 L -0.187775,13.1642 L -0.0940552,13.1358 L -0.0090332,13.0961 L 0.0691528,13.0427 L 0.14238,12.9733
 L 0.210648,12.888 L 0.273941,12.7867 L 0.2845,12.7867 L 0.294144,12.8788 L 0.3125,12.9579 L 0.339539,13.0238
 L 0.37529,13.0767 L 0.421417,13.1172 L 0.479553,13.1461 L 0.549698,13.1635 L 0.631866,13.1692 L 0.694122,13.1675
 L 0.755707,13.1622 L 0.816635,13.1534 L 0.876907,13.141 L 0.876907,12.9436 L 0.848602,12.949 L 0.821838,12.9528
 L 0.7966,12.9551 L 0.772919,12.9559 L 0.725082,12.9514 L 0.685638,12.938 L 0.654556,12.9157 L 0.631836,12.8845
 L 0.615646,12.8445 L 0.604065,12.7957 L 0.597122,12.7382 L 0.594818,12.672 L 0.594818,11.9049 L 1.07414,11.9049
 L 1.07414,11.6263 L 0.562973,11.6263 L 0.549408,11.5752 L 0.492661,11.4651 L 0.413208,11.3735 L 0.311279,11.3014
 L 0.187088,11.2499 L 0.0406494,11.219 L -0.128067,11.2087 L -0.311646,11.2281 L -0.311646,10.7024 L 1.11647,10.7024
 L 1.11647,10.4274 L -0.648392,10.4274 L -0.648392,11.3319 L -0.661407,11.3374 L -0.815002,11.4983 L -0.89325,11.7235
 L -0.648392,11.7457 L -0.648392,12.0861 L -0.670715,12.0942 L -0.783051,12.1643 L -0.868286,12.2522 L -0.929169,12.3573
 L -0.965698,12.4796 L -0.977875,12.6192 L -0.968842,12.7443 L -0.941727,12.8554 L -0.896561,12.9524 L -0.833313,13.0352
 L -0.75209,13.1016 L -0.65303,13.149 L -0.536118,13.1774 L -0.401352,13.1869 z
M -0.311646,11.6263 L -0.311646,11.4671 L -0.234497,11.4547 L -0.135117,11.4502 L -0.036377,11.4565 L 0.0482635,11.4753
 L 0.11879,11.5067 L 0.175201,11.5507 L 0.218399,11.6092 L 0.225433,11.6263 z
M -0.311646,12.0063 L -0.311646,11.9049 L 0.273941,11.9049 L 0.273941,11.988 L -0.15451,11.995 z
M -0.402161,12.9436 L -0.466354,12.9277 L -0.499969,12.9116 L -0.311646,12.9116 L -0.311646,12.2377 L -0.270218,12.2304
 L -0.178574,12.2213 L -0.0733795,12.2172 L 0.273941,12.2101 L 0.273941,12.367 L 0.269043,12.4397 L 0.254333,12.5114
 L 0.229813,12.5821 L 0.19548,12.6518 L 0.152664,12.7173 L 0.102692,12.7754 L 0.0455475,12.8261 L -0.0187531,12.8695
 L -0.0890503,12.9042 L -0.1642,12.929 L -0.244202,12.9439 L -0.329041,12.9489 z
M -0.651703,12.6244 L -0.648392,12.5661 L -0.648392,12.6707 z
M 8.3476,12.8819 L 7.74287,12.8819 L 7.74287,10.6674 L 7.4502,10.6674 L 6.86305,11.0711 L 6.86305,11.3708
 L 7.42372,10.9706 L 7.42372,12.6366 L 6.3504,12.6366 L 6.3504,10.4274 L 6.01366,10.4274 L 6.01366,12.9116
 L 6.79077,12.9116 L 6.79077,13.1516 L 8.3476,13.1516 z
M 4.08635,13.1587 L 4.30795,13.074 L 4.47511,12.933 L 4.4873,12.9116 L 4.99577,12.9116 L 4.99577,13.1516
 L 5.31314,13.1516 L 5.31314,12.9116 L 5.64449,12.9116 L 5.64449,12.6366 L 5.31314,12.6366 L 5.31314,10.5351
 L 4.99577,10.5351 L 4.99577,12.6366 L 4.38916,12.6366 L 4.38916,12.2647 L 4.63899,12.2647 L 4.63899,12.2225
 L 4.58643,11.7789 L 4.42874,11.4621 L 4.38916,11.4335 L 4.38916,10.4274 L 4.05241,10.4274 L 4.05241,11.2525
 L 3.79797,11.2087 L 3.60442,11.2244 L 3.53856,11.2428 L 3.53856,10.4274 L 3.20358,10.4274 L 3.20358,11.4268
 L 3.16588,11.4608 L 3.06908,11.6006 L 2.99994,11.768 L 2.95845,11.963 L 2.94463,12.1854 L 2.95845,12.4187
 L 2.97939,12.5209 L 2.91527,12.571 L 2.79433,12.628 L 2.65475,12.6622 L 2.60367,12.6659 L 2.60367,11.8804
 L 2.59457,11.7133 L 2.56731,11.5716 L 2.52184,11.4554 L 2.45819,11.3647 L 2.37495,11.2964 L 2.27066,11.2477
 L 2.14532,11.2184 L 1.99893,11.2087 L 1.89661,11.2138 L 1.82483,11.2256 L 1.82483,10.4274 L 1.48805,10.4274
 L 1.48805,11.4251 L 1.44569,11.4786 L 1.3889,11.5701 L 1.38359,11.5701 L 1.3819,11.506 L 1.38029,11.4531
 L 1.37881,11.4113 L 1.37743,11.3806 L 1.375,11.3332 L 1.37395,11.3116 L 1.37302,11.2915 L 1.37213,11.274
 L 1.37125,11.2602 L 1.37038,11.2502 L 1.36951,11.2439 L 1.06978,11.2439 L 1.07439,11.2971 L 1.07768,11.3828
 L 1.07967,11.5008 L 1.08032,11.6512 L 1.08032,13.1516 L 1.39771,13.1516 L 1.39771,12.0462 L 1.40598,11.9145
 L 1.43077,11.798 L 1.47209,11.6967 L 1.48805,11.673 L 1.48805,12.0089 L 1.49588,12.1502 L 1.51935,12.2813
 L 1.55847,12.4023 L 1.61324,12.5132 L 1.68222,12.6127 L 1.76399,12.6996 L 1.85854,12.774 L 1.96585,12.8358
 L 2.08443,12.8844 L 2.21269,12.9191 L 2.28455,12.9299 L 2.28455,13.1516 L 2.60367,13.1516 L 2.60367,12.9419
 L 2.65178,12.9397 L 2.79475,12.918 L 2.92726,12.8819 L 3.0493,12.8314 L 3.08206,12.8123 L 3.16588,12.9347
 L 3.28914,13.045 L 3.43764,13.1238 L 3.61136,13.1711 L 3.81032,13.1869 z
M 3.53613,12.0215 L 3.53856,11.9772 L 3.53856,11.5083 L 3.58572,11.4817 L 3.6832,11.4528 L 3.79269,11.4432
 L 3.90475,11.4518 L 4.00293,11.4778 L 4.05241,11.5032 L 4.05241,12.0215 z
M 2.20874,12.6295 L 2.09358,12.5744 L 1.9976,12.4973 L 1.92201,12.3989 L 1.86803,12.28 L 1.83563,12.1406
 L 1.82483,11.9807 L 1.82483,11.4598 L 1.89137,11.4538 L 1.96509,11.4566 L 2.02933,11.4652 L 2.08409,11.4795
 L 2.12938,11.4996 L 2.16718,11.5261 L 2.19948,11.56 L 2.22626,11.6011 L 2.24751,11.6494 L 2.26372,11.7068
 L 2.27528,11.7746 L 2.28223,11.8531 L 2.28455,11.9421 L 2.28455,12.6482 z
M 3.81032,12.9489 L 3.68767,12.9377 L 3.58066,12.9043 L 3.48929,12.8487 L 3.41359,12.7708 L 3.3542,12.6724
 L 3.33145,12.6096 L 3.34023,12.6002 L 3.41075,12.4973 L 3.46667,12.3828 L 3.50443,12.2647 L 4.05241,12.2647
 L 4.05241,12.9093 L 3.99611,12.9281 L 3.90834,12.9437 z
M 51.819,10.4274 L 51.4946,10.4274 L 51.5316,11.2085 L 51.7802,11.2085 z
M 52.4696,10.4274 L 52.1452,10.4274 L 52.1805,11.2085 L 52.4308,11.2085 z
M -8.21935,10.5351 L -8.53673,10.5351 L -8.53673,10.8384 L -8.21935,10.8384 z
M -13.4192,12.8819 L -14.7151,12.8819 L -14.6844,12.8195 L -14.6454,12.756 L -14.5981,12.6913 L -14.5423,12.6253
 L -14.4772,12.5567 L -14.4017,12.484 L -14.3159,12.4073 L -14.2197,12.3265 L -14.0503,12.1864 L -13.9107,12.066
 L -13.8008,11.9652 L -13.7207,11.8839 L -13.6595,11.8125 L -13.6063,11.7411 L -13.5612,11.6697 L -13.5241,11.5983
 L -13.4952,11.5268 L -13.4745,11.455 L -13.4621,11.3831 L -13.458,11.3109 L -13.4706,11.1571 L -13.5085,11.022
 L -13.5715,10.9054 L -13.6599,10.8075 L -13.7717,10.73 L -13.9052,10.6747 L -14.0604,10.6414 L -14.2373,10.6304
 L -14.4005,10.6414 L -14.5483,10.6744 L -14.6805,10.7295 L -14.7971,10.8067 L -14.8946,10.9024 L -14.9692,11.0134
 L -15.0211,11.1396 L -15.0501,11.2809 L -14.7257,11.3109 L -14.7074,11.2169 L -14.6756,11.134 L -14.6303,11.0622
 L -14.5714,11.0015 L -14.5013,10.9533 L -14.4222,10.9188 L -14.3342,10.8982 L -14.2373,10.8913 L -14.1365,10.8983
 L -14.0473,10.9195 L -13.9698,10.9548 L -13.9041,11.0041 L -13.8516,11.0663 L -13.8141,11.1399 L -13.7916,11.225
 L -13.7841,11.3215 L -13.7885,11.3953 L -13.8016,11.4652 L -13.8233,11.5311 L -13.8538,11.593 L -13.8913,11.6523
 L -13.9343,11.7103 L -13.9826,11.7669 L -14.0363,11.8223 L -14.0944,11.8769 L -14.156,11.9315 L -14.2209,11.9862
 L -14.2893,12.0408 L -14.3596,12.0967 L -14.4301,12.1548 L -14.5011,12.2152 L -14.5723,12.278 L -14.6429,12.3438
 L -14.7118,12.4133 L -14.7791,12.4866 L -14.8447,12.5636 L -14.907,12.6455 L -14.9644,12.7335 L -15.0168,12.8276
 L -15.0642,12.9277 L -15.0642,13.1516 L -13.4192,13.1516 z
M 11.5666,10.6674 L 11.2422,10.6674 L 11.2775,11.4484 L 11.5278,11.4484 z
M -17.3042,12.8766 L -18.9245,12.8766 L -18.9245,12.0109 L -17.4823,12.0109 L -17.4823,11.7393 L -18.9245,11.7393
 L -18.9245,10.9424 L -17.3765,10.9424 L -17.3765,10.6674 L -19.2613,10.6674 L -19.2613,13.1516 L -17.3042,13.1516
 z
M 27.2356,12.6183 L 27.2522,12.5892 L 27.5847,12.5892 L 27.5847,12.3388 L 27.2356,12.3388 L 27.2356,12.0247
 L 27.3569,12.0247 L 27.3569,11.9825 L 27.3043,11.5389 L 27.2356,11.401 L 27.2356,10.6674 L 26.9024,10.6674
 L 26.6788,10.9967 L 26.5158,10.9687 L 26.3223,10.9844 L 26.1524,11.0317 L 26.0062,11.1105 L 25.8837,11.2208
 L 25.7869,11.3606 L 25.7178,11.528 L 25.6763,11.723 L 25.6625,11.9454 L 25.6763,12.1787 L 25.7178,12.3814
 L 25.7652,12.4992 L 25.7652,12.5892 L 25.8114,12.5892 L 25.8837,12.6947 L 26.007,12.8051 L 26.1555,12.8839
 L 26.3292,12.9311 L 26.5282,12.9469 L 26.8042,12.9187 L 26.9359,12.8684 L 26.9359,13.1516 L 27.2356,13.1516
 z
M 26.9196,11.058 L 26.9218,11.0539 L 26.9315,11.0351 L 26.9359,11.0253 L 26.9359,11.0697 z
M 25.9992,11.7815 L 26.0123,11.6538 L 26.0409,11.5406 L 26.085,11.4418 L 26.1447,11.3575 L 26.2181,11.29
 L 26.3036,11.2417 L 26.4011,11.2128 L 26.5106,11.2032 L 26.5372,11.2052 L 26.146,11.7815 z
M 26.447,11.7815 L 26.7914,11.274 L 26.8051,11.281 L 26.8755,11.3416 L 26.9327,11.421 L 26.9359,11.4281
 L 26.9359,11.7815 z
M 26.9359,12.3388 L 26.0578,12.3388 L 26.0861,12.3035 L 26.1813,12.1731 L 26.2819,12.0247 L 26.9359,12.0247
 z
M 26.4055,12.6977 L 26.2985,12.6644 L 26.2072,12.6087 L 26.1882,12.5892 L 26.9064,12.5892 L 26.8587,12.626
 L 26.7915,12.6623 L 26.714,12.6882 L 26.6262,12.7037 L 26.5282,12.7089 z
M 19.8131,10.6674 L 19.4887,10.6674 L 19.5258,11.4484 L 19.7743,11.4484 z
M 54.1335,12.9151 L 54.133,12.7893 L 54.1317,12.6974 L 54.1295,12.6394 L 54.1264,12.6154 L 54.1352,12.6154
 L 54.2291,12.7604 L 54.3592,12.864 L 54.5253,12.9262 L 54.7276,12.9469 L 55.0347,12.8845 L 55.254,12.6974
 L 55.3855,12.3855 L 55.4294,11.949 L 55.4185,11.7128 L 55.3858,11.5104 L 55.3312,11.3417 L 55.2548,11.2067
 L 55.1564,11.1033 L 55.0358,11.0295 L 54.8928,10.9852 L 54.7276,10.9704 L 54.6194,10.9755 L 54.5222,10.9909
 L 54.4361,11.0165 L 54.3609,11.0524 L 54.2947,11.0993 L 54.2353,11.158 L 54.1827,11.2285 L 54.137,11.3107
 L 54.13,11.3107 L 54.1297,11.2904 L 54.1289,11.2631 L 54.1275,11.2287 L 54.1255,11.1873 L 54.1234,11.1453
 L 54.1214,11.1091 L 54.1194,11.0787 L 54.1176,11.0542 L 54.116,11.0349 L 54.1145,11.02 L 54.1133,11.0097
 L 54.1123,11.0039 L 53.8055,11.0039 L 53.8102,11.064 L 53.8135,11.149 L 53.8155,11.2588 L 53.8161,11.3936
 L 53.8161,13.6609 L 54.1335,13.6609 z
M 54.5175,12.7012 L 54.4107,12.6679 L 54.3227,12.6122 L 54.2534,12.5343 L 54.2009,12.4329 L 54.1635,12.3069
 L 54.141,12.1561 L 54.1335,11.9807 L 54.1369,11.8522 L 54.1474,11.7363 L 54.1647,11.6331 L 54.189,11.5426
 L 54.22,11.4639 L 54.2573,11.3964 L 54.3011,11.3401 L 54.3512,11.2948 L 54.4097,11.2601 L 54.4784,11.2353
 L 54.5574,11.2205 L 54.6466,11.2155 L 54.7559,11.2262 L 54.8493,11.2583 L 54.9269,11.3117 L 54.9886,11.3865
 L 55.0356,11.4863 L 55.0693,11.6144 L 55.0894,11.771 L 55.0961,11.956 L 55.0894,12.1458 L 55.069,12.3062
 L 55.0352,12.4372 L 54.9877,12.5387 L 54.9255,12.6147 L 54.8473,12.669 L 54.7532,12.7015 L 54.643,12.7124
 z
M -2.53186,13.1551 L -2.5323,13.0293 L -2.53362,12.9374 L -2.53583,12.8794 L -2.53891,12.8554 L -2.53009,12.8554
 L -2.4362,13.0004 L -2.30617,13.104 L -2.14,13.1662 L -1.93768,13.1869 L -1.63066,13.1245 L -1.41138,12.9374
 L -1.2798,12.6255 L -1.23595,12.1889 L -1.24686,11.9528 L -1.27959,11.7504 L -1.33414,11.5817 L -1.41051,11.4467
 L -1.50891,11.3433 L -1.62956,11.2695 L -1.77249,11.2252 L -1.93768,11.2104 L -2.0459,11.2155 L -2.11771,11.2269
 L -1.96155,11.0039 L -2.31593,11.0039 L -2.54329,11.3611 L -2.54396,11.3491 L -2.5459,11.3187 L -2.54771,11.2942
 L -2.54938,11.2748 L -2.55081,11.26 L -2.55202,11.2497 L -2.55299,11.2439 L -2.8598,11.2439 L -2.85516,11.304
 L -2.85185,11.3889 L -2.84987,11.4988 L -2.84921,11.6336 L -2.84921,11.6515 L -3.2645,11.0039 L -3.61536,11.0039
 L -2.96828,11.9313 L -3.64708,12.9116 L -3.30505,12.9116 L -2.84921,12.2209 L -2.84921,13.9009 L -2.53186,13.9009
 z
M -2.14783,12.9412 L -2.24254,12.9116 L -1.92099,12.9116 L -2.52444,12.0482 L -2.51797,11.9763 L -2.50063,11.8731
 L -2.47632,11.7826 L -2.44534,11.7039 L -2.42102,11.66 L -2.37251,11.5907 L -2.36424,11.5801 L -2.3141,11.5348
 L -2.25565,11.5001 L -2.18694,11.4753 L -2.10797,11.4604 L -2.01877,11.4555 L -1.90945,11.4662 L -1.81602,11.4982
 L -1.73845,11.5517 L -1.67674,11.6265 L -1.62968,11.7262 L -1.59607,11.8544 L -1.5759,12.011 L -1.56918,12.196
 L -1.57596,12.3858 L -1.5963,12.5462 L -1.63019,12.6772 L -1.67763,12.7787 L -1.73982,12.8547 L -1.81801,12.909
 L -1.91217,12.9415 L -2.02231,12.9524 z
M -2.34265,12.8522 L -2.41197,12.7743 L -2.46442,12.6729 L -2.49147,12.5819 L -2.29428,12.8828 z
M 56.7307,13.6564 L 56.8031,13.6426 L 56.8713,13.6198 L 56.9355,13.5878 L 56.9963,13.5464 L 57.0543,13.4957
 L 57.1096,13.4354 L 57.1621,13.3656 L 57.2142,13.2814 L 57.2683,13.1776 L 57.3244,13.0544 L 57.3825,12.9116
 L 58.1159,11.0039 L 57.7809,11.0039 L 57.3631,12.2187 L 57.2397,12.5661 L 57.2332,12.5438 L 57.2189,12.4999
 L 57.197,12.4345 L 57.1674,12.3474 L 57.1373,12.2596 L 57.114,12.192 L 57.0976,12.1446 L 57.088,12.1173
 L 57.0669,12.0583 L 56.6649,11.0039 L 56.3264,11.0039 L 57.0827,12.9028 L 57.0528,12.9786 L 56.9586,13.1691
 L 56.8491,13.3052 L 56.7242,13.3869 L 56.5838,13.4141 L 56.5441,13.4135 L 56.5062,13.4115 L 56.47,13.4082
 L 56.4357,13.4035 L 56.4357,13.6415 L 56.4824,13.65 L 56.5344,13.6561 L 56.5917,13.6597 L 56.6543,13.6609
 z
M -12.3854,12.3688 L -11.8723,13.1516 L -11.5179,13.1516 L -12.2055,12.1678 L -11.5585,11.2439 L -11.9128,11.2439
 L -12.3854,11.9862 L -12.8614,11.2439 L -13.2123,11.2439 L -12.5652,12.1713 L -13.244,13.1516 L -12.902,13.1516
 z
M 8.72069,11.8114 L 7.83913,11.8114 L 7.83913,12.0935 L 8.72069,12.0935 z
" stroke="black" fill="lightgray" stroke-width="0.5"/>
</svg>
