<?xml version="1.0" standalone="no"?>
<!DOCTYPE svg PUBLIC "-//W3C//DTD SVG 1.1//EN" "http://www.w3.org/Graphics/SVG/1.1/DTD/svg11.dtd">
<svg width="129mm" height="43mm" viewBox="-52 -24 129 43" xmlns="http://www.w3.org/2000/svg" version="1.1">
<title>OpenSCAD Model</title>
<path d="
M 0.610321,0.444748 L 10.5098,-5.27072 L 10.5278,-5.2874 L 10.5391,-5.31238 L 10.543,-5.34396 L 10.5684,-5.3631
 L 10.5844,-5.38538 L 10.5898,-5.40929 L 10.5898,-23.3722 L 10.5844,-23.3961 L 10.5684,-23.4184 L 10.543,-23.4375
 L 10.5391,-23.4691 L 10.5278,-23.4941 L 10.5098,-23.5108 L 9.97949,-23.817 L 9.95605,-23.8242 L 9.92877,-23.8215
 L 9.89949,-23.809 L 9.87021,-23.8215 L 9.84293,-23.8242 L 9.81949,-23.817 L -0.0799866,-18.1015 L -0.0979767,-18.0848
 L -0.109268,-18.0598 L -0.113129,-18.0282 L -0.13855,-18.0091 L -0.154541,-17.9868 L -0.159988,-17.9629 L -0.159988,-0
 L -0.154541,0.0238953 L -0.13855,0.0461731 L -0.113129,0.0653076 L -0.109268,0.0968933 L -0.0979767,0.121887 L -0.0799866,0.13855
 L 0.450317,0.444748 L 0.473755,0.451981 L 0.501038,0.449265 L 0.530319,0.436813 L 0.559601,0.449265 L 0.586884,0.451981
 z
M 43.3569,18.918 L 53.2564,13.2025 L 53.2744,13.1858 L 53.2857,13.1608 L 53.2895,13.1293 L 53.315,13.1101
 L 53.3309,13.0878 L 53.3364,13.0639 L 53.3364,13.0394 L 53.4211,13.0912 L 53.5621,13.1443 L 53.7222,13.1762
 L 53.9013,13.1869 L 54.0924,13.1751 L 54.2601,13.1397 L 54.4045,13.0807 L 54.5255,12.9982 L 54.6211,12.8942
 L 54.6894,12.7708 L 54.7304,12.628 L 54.7441,12.4658 L 54.7344,12.3518 L 54.7183,12.2944 L 54.8276,12.1288
 L 55.3407,12.9116 L 55.6951,12.9116 L 55.291,12.3335 L 55.8978,12.3335 L 55.8978,12.0514 L 55.0938,12.0514
 L 55.0074,11.9278 L 55.6545,11.0039 L 55.3001,11.0039 L 54.8276,11.7462 L 54.6503,11.4698 L 54.667,11.4014
 L 54.6753,11.288 L 54.6624,11.1414 L 54.6236,11.0119 L 54.5588,10.8994 L 54.4682,10.804 L 54.3542,10.728
 L 54.2193,10.6738 L 54.0637,10.6412 L 53.8872,10.6304 L 53.724,10.641 L 53.5762,10.6731 L 53.4441,10.7265
 L 53.3274,10.8014 L 53.2299,10.8953 L 53.1553,11.0059 L 53.1035,11.1333 L 53.0744,11.2774 L 53.3935,11.3021
 L 53.4109,11.2098 L 53.4418,11.1284 L 53.4863,11.0581 L 53.5443,10.9989 L 53.6141,10.9518 L 53.6939,10.9182
 L 53.7838,10.898 L 53.8837,10.8913 L 53.9921,10.8985 L 54.0862,10.9202 L 54.1662,10.9563 L 54.2282,11.0039
 L 54.0007,11.0039 L 54.3239,11.4672 L 54.3132,11.5007 L 54.2683,11.5739 L 54.2054,11.6362 L 54.1263,11.686
 L 54.0325,11.7215 L 53.924,11.7428 L 53.8008,11.7499 L 53.628,11.7499 L 53.628,12.025 L 53.8079,12.025
 L 53.9465,12.0321 L 54.0677,12.0534 L 54.1717,12.089 L 54.2584,12.1387 L 54.3266,12.2011 L 54.3754,12.2747
 L 54.3869,12.3081 L 53.969,12.9116 L 54.0382,12.9116 L 54.0148,12.9168 L 53.9013,12.9242 L 53.6883,12.8966
 L 53.5271,12.814 L 53.4177,12.6762 L 53.3601,12.4834 L 53.3364,12.4855 L 53.3364,12.4516 L 53.3309,12.4277
 L 53.315,12.4054 L 53.2895,12.3862 L 53.2857,12.3547 L 53.2744,12.3297 L 53.2564,12.313 L 50.5293,10.7385
 L 50.5631,10.711 L 50.6759,10.6636 L 50.804,10.6478 L 50.9479,10.6667 L 51.0641,10.7236 L 51.1525,10.8184
 L 51.2131,10.951 L 51.5163,10.8964 L 51.4171,10.675 L 51.266,10.5169 L 51.0628,10.422 L 50.8075,10.3904
 L 50.6064,10.412 L 50.4298,10.4768 L 50.2776,10.5848 L 50.2728,10.5904 L 20.7295,-6.4664 L 20.7061,-6.47363
 L 20.6788,-6.47093 L 20.6495,-6.45848 L 20.6202,-6.47093 L 20.5929,-6.47363 L 20.5695,-6.4664 L 10.67,-0.750931
 L 10.652,-0.734253 L 10.6407,-0.709274 L 10.6369,-0.677689 L 10.6115,-0.658554 L 10.5955,-0.636276 L 10.59,-0.612366
 L 10.59,-0 L 10.5955,0.0238953 L 10.6115,0.0461731 L 10.6369,0.0653076 L 10.6407,0.0968933 L 10.652,0.121887
 L 10.67,0.13855 L 29.8666,11.2217 L 29.7365,11.53 L 29.6926,11.9666 L 29.6965,12.0514 L 29.4087,12.0514
 L 29.4087,11.8114 L 28.7911,11.8114 L 28.7857,11.7133 L 28.7585,11.5716 L 28.713,11.4554 L 28.6494,11.3647
 L 28.5661,11.2964 L 28.4618,11.2477 L 28.3365,11.2184 L 28.1901,11.2087 L 28.1438,11.211 L 28.1438,10.2952
 L 27.8265,10.2952 L 27.8265,11.2952 L 27.7633,11.3389 L 27.6979,11.4015 L 27.6368,11.4786 L 27.58,11.5701
 L 27.5747,11.5701 L 27.573,11.506 L 27.5714,11.4531 L 27.57,11.4113 L 27.5686,11.3806 L 27.5673,11.3562
 L 27.5651,11.3116 L 27.5642,11.2915 L 27.5633,11.274 L 27.5624,11.2602 L 27.5615,11.2502 L 27.5607,11.2439
 L 27.3604,11.2439 L 27.3604,10.2952 L 27.043,10.2952 L 27.043,12.9116 L 27.2715,12.9116 L 27.2715,13.1516
 L 27.5889,13.1516 L 27.5889,12.0462 L 27.5971,11.9145 L 27.6219,11.798 L 27.6632,11.6967 L 27.7211,11.6107
 L 27.7933,11.542 L 27.8265,11.5227 L 27.8265,12.9116 L 28.1438,12.9116 L 28.1438,11.4561 L 28.1562,11.4566
 L 28.2205,11.4652 L 28.2752,11.4795 L 28.3205,11.4996 L 28.3583,11.5261 L 28.3906,11.56 L 28.4174,11.6011
 L 28.4387,11.6494 L 28.4549,11.7068 L 28.4664,11.7746 L 28.4734,11.8531 L 28.4757,11.9421 L 28.4757,13.1516
 L 28.7948,13.1516 L 28.7948,12.0935 L 29.1428,12.0935 L 29.1428,12.3335 L 29.7249,12.3335 L 29.7352,12.3977
 L 29.7883,12.5663 L 29.8628,12.7036 L 29.9598,12.81 L 30.0807,12.886 L 30.2256,12.9317 L 30.3943,12.9469
 L 30.4071,12.9463 L 30.4071,13.1516 L 30.7245,13.1516 L 30.7245,12.8813 L 30.7549,12.8676 L 30.8241,12.8214
 L 30.886,12.7622 L 30.9409,12.69 L 30.9885,12.6048 L 30.9956,12.6048 L 30.996,12.6436 L 30.9971,12.6859
 L 30.999,12.7318 L 31.0017,12.7811 L 31.0048,12.8277 L 31.0077,12.8649 L 31.0105,12.8929 L 31.0132,12.9116
 L 31.3165,12.9116 L 31.3118,12.8513 L 31.3085,12.7657 L 31.3065,12.6548 L 31.3059,12.5184 L 31.3059,12.0527
 L 31.6113,12.229 L 31.6113,13.1516 L 31.9304,13.1516 L 31.9304,12.7426 L 32.0002,12.8051 L 32.1487,12.8839
 L 32.3224,12.9311 L 32.4967,12.9449 L 32.6024,13.0435 L 32.7474,13.1232 L 32.918,13.1709 L 33.1141,13.1869
 L 33.2518,13.1762 L 33.7068,13.4389 L 33.7068,13.6609 L 34.0242,13.6609 L 34.0242,13.6221 L 43.1969,18.918
 L 43.2203,18.9252 L 43.2476,18.9225 L 43.2769,18.9101 L 43.3062,18.9225 L 43.3335,18.9252 z
M 30.3647,12.691 L 30.2705,12.6586 L 30.1928,12.6046 L 30.1316,12.529 L 30.0854,12.4284 L 30.0523,12.2994
 L 30.0325,12.1419 L 30.0258,11.956 L 30.0325,11.7706 L 30.0525,11.6129 L 30.0859,11.4828 L 30.1325,11.3804
 L 30.1353,11.3769 L 30.4071,11.5338 L 30.4071,12.6951 z
M 54.5036,12.0003 L 54.4029,11.9456 L 54.2868,11.9069 L 54.1552,11.8839 L 54.1552,11.8769 L 54.2746,11.8444
 L 54.3789,11.8 L 54.4681,11.7435 L 54.4977,11.7162 L 54.6478,11.9313 L 54.5649,12.051 z
M 30.7245,12.0268 L 30.7329,11.9021 L 30.7582,11.7909 L 30.777,11.7473 L 30.9856,11.8678 L 30.9885,11.9349
 L 30.9809,12.1185 L 30.9581,12.2764 L 30.9201,12.4086 L 30.8669,12.5149 L 30.7968,12.5967 L 30.7245,12.6443
 z
M 32.2917,12.6644 L 32.2003,12.6087 L 32.1246,12.5308 L 32.1196,12.5225 L 32.3327,12.6455 L 32.3468,12.6815
 z
M 65.9836,13.1766 L 66.1154,13.1459 L 66.2339,13.0946 L 66.3393,13.0229 L 66.428,12.934 L 66.4967,12.8312
 L 66.5453,12.7145 L 66.5738,12.5839 L 66.349,12.5691 L 66.563,11.7782 L 66.5632,11.7782 L 66.5631,11.7778
 L 66.9643,10.2952 L 66.6858,10.2952 L 66.3795,11.4159 L 66.3208,11.3603 L 66.218,11.294 L 66.1028,11.2466
 L 65.9752,11.2181 L 65.8351,11.2087 L 65.7592,11.2151 L 65.7723,11.1615 L 65.7807,11.048 L 65.7677,10.9014
 L 65.7289,10.7719 L 65.6641,10.6594 L 65.5735,10.564 L 65.4595,10.4881 L 65.3247,10.4338 L 65.169,10.4012
 L 64.9925,10.3904 L 64.8293,10.401 L 64.6816,10.4331 L 64.5494,10.4866 L 64.4327,10.5614 L 64.3353,10.6553
 L 64.2606,10.7659 L 64.2088,10.8933 L 64.1797,11.0374 L 64.4989,11.0621 L 64.5162,10.9698 L 64.5471,10.8884
 L 64.5916,10.8181 L 64.6496,10.7589 L 64.7194,10.7118 L 64.7992,10.6782 L 64.8891,10.658 L 64.989,10.6513
 L 65.0974,10.6585 L 65.1915,10.6802 L 65.2715,10.7163 L 65.3372,10.7668 L 65.3885,10.8298 L 65.4251,10.9032
 L 65.4471,10.9871 L 65.4545,11.0815 L 65.4455,11.1766 L 65.4185,11.2607 L 65.3736,11.3339 L 65.3704,11.3371
 L 65.3458,11.351 L 65.2721,11.4205 L 65.2316,11.446 L 65.1378,11.4815 L 65.0293,11.5028 L 64.9061,11.5099
 L 64.7334,11.5099 L 64.7334,11.785 L 64.9132,11.785 L 65.0518,11.7921 L 65.0653,11.7945 L 65.0302,11.9696
 L 65.017,12.196 L 65.0301,12.4239 L 65.0696,12.6229 L 65.0912,12.6787 L 65.0066,12.6842 L 64.7936,12.6566
 L 64.6324,12.574 L 64.523,12.4362 L 64.4654,12.2434 L 64.1374,12.2734 L 64.17,12.4298 L 64.2253,12.5658
 L 64.3035,12.6815 L 64.3926,12.7655 L 64.2135,12.7655 L 64.2135,13.1516 L 64.5573,13.1516 L 64.5573,12.8628
 L 64.6674,12.9043 L 64.8275,12.9362 L 65.0066,12.9469 L 65.1977,12.9351 L 65.2247,12.9294 L 65.2276,12.9339
 L 65.3448,13.0445 L 65.4857,13.1236 L 65.6503,13.1711 L 65.8386,13.1869 z
M 65.7166,12.925 L 65.6186,12.8907 L 65.5359,12.8334 L 65.5303,12.8268 L 65.6308,12.7582 L 65.7264,12.6542
 L 65.7947,12.5308 L 65.8357,12.388 L 65.8494,12.2258 L 65.8397,12.1118 L 65.8106,12.008 L 65.7621,11.9144
 L 65.6942,11.8308 L 65.6089,11.7603 L 65.5082,11.7057 L 65.4332,11.6806 L 65.4613,11.6248 L 65.5264,11.5515
 L 65.6089,11.4991 L 65.7089,11.4677 L 65.8262,11.4573 L 65.9135,11.4631 L 65.9902,11.4806 L 66.0563,11.5098
 L 66.1118,11.5507 L 66.1574,11.6015 L 66.1934,11.6604 L 66.22,11.7276 L 66.237,11.8028 L 66.2746,11.8
 L 65.9692,12.9173 L 65.9109,12.9308 L 65.8298,12.9365 z
M 65.3784,12.5204 L 65.3559,12.367 L 65.3484,12.1889 L 65.3555,12.0049 L 65.3692,11.9038 L 65.4319,11.9612
 L 65.4807,12.0347 L 65.5099,12.1194 L 65.5197,12.2152 L 65.5112,12.3244 L 65.4855,12.4193 L 65.4428,12.4998
 L 65.3896,12.5588 z
M 63.8515,13.4707 L 63.7188,13.2775 L 63.6087,13.0793 L 63.5519,12.9478 L 63.5587,12.9418 L 63.6552,12.8033
 L 63.724,12.6328 L 63.7654,12.4304 L 63.7791,12.196 L 63.7662,11.9596 L 63.7276,11.7563 L 63.6631,11.5862
 L 63.5728,11.4493 L 63.4552,11.344 L 63.4439,11.3382 L 63.4554,11.2856 L 63.5228,11.0744 L 63.6109,10.871
 L 63.721,10.6733 L 63.8529,10.4814 L 64.0068,10.2952 L 63.7001,10.2952 L 63.5451,10.4771 L 63.4116,10.665
 L 63.2995,10.8588 L 63.209,11.0586 L 63.1523,11.2286 L 63.1335,11.2237 L 62.9293,11.2087 L 62.5552,11.2704
 L 62.2879,11.4555 L 62.1276,11.7641 L 62.0742,12.196 L 62.0875,12.4225 L 62.1275,12.6207 L 62.1942,12.7905
 L 62.2875,12.9321 L 62.407,13.0435 L 62.552,13.1232 L 62.7226,13.1709 L 62.9187,13.1869 L 63.1161,13.1715
 L 63.2885,13.1256 L 63.3104,13.1142 L 63.4105,13.2878 L 63.5443,13.4764 L 63.7001,13.6592 L 64.0068,13.6592
 z
M 62.7926,12.9405 L 62.6875,12.905 L 62.6,12.8457 L 62.5299,12.7628 L 62.4763,12.6563 L 62.438,12.5264
 L 62.4151,12.3729 L 62.4074,12.196 L 62.4152,12.0149 L 62.4385,11.8595 L 62.4773,11.7297 L 62.5317,11.6257
 L 62.6035,11.5458 L 62.6946,11.4888 L 62.8049,11.4546 L 62.9346,11.4432 L 63.063,11.4543 L 63.0952,11.4643
 L 63.0894,11.4901 L 63.0594,11.7254 L 63.0495,11.9737 L 63.0495,11.9807 L 63.0594,12.2275 L 63.0891,12.4618
 L 63.1387,12.6837 L 63.2036,12.8794 L 63.16,12.9065 L 63.0478,12.9409 L 62.9152,12.9524 z
M 63.4067,12.4462 L 63.3781,12.2165 L 63.3686,11.9772 L 63.3782,11.7369 L 63.3797,11.7247 L 63.3799,11.7251
 L 63.4166,11.8551 L 63.4386,12.0121 L 63.4459,12.196 L 63.4382,12.3779 L 63.4195,12.5052 z
M 73.6557,10.2952 L 73.3383,10.2952 L 73.3383,12.9116 L 73.6557,12.9116 z
M 76.1247,13.4773 L 76.2582,13.2894 L 76.3702,13.0956 L 76.4607,12.8958 L 76.5305,12.6865 L 76.5804,12.4642
 L 76.6103,12.229 L 76.6203,11.9807 L 76.6203,11.9737 L 76.6104,11.7269 L 76.5806,11.4926 L 76.531,11.2707
 L 76.4616,11.0612 L 76.3714,10.861 L 76.2593,10.6665 L 76.1254,10.4779 L 75.9697,10.2952 L 75.6629,10.2952
 L 75.8168,10.482 L 75.9487,10.6742 L 76.0588,10.8717 L 76.1469,11.0745 L 76.2144,11.2849 L 76.2626,11.5055
 L 76.2915,11.7363 L 76.3012,11.9772 L 76.2916,12.218 L 76.2628,12.4486 L 76.2149,12.6689 L 76.1478,12.879
 L 76.0599,13.0815 L 75.9499,13.279 L 75.8175,13.4716 L 75.6629,13.6592 L 75.9697,13.6592 z
M 24.4952,11.2349 L 24.8672,11.2349 L 24.8672,11.0039 L 24.4952,11.0039 L 24.4952,10.8329 L 24.4986,10.7581
 L 24.5088,10.6958 L 24.5259,10.6461 L 24.5498,10.609 L 24.5813,10.582 L 24.6212,10.5627 L 24.6695,10.5511
 L 24.7262,10.5473 L 24.7581,10.5482 L 24.7923,10.5508 L 24.8286,10.5552 L 24.8672,10.5614 L 24.8672,10.3199
 L 24.8188,10.3106 L 24.7654,10.304 L 24.7069,10.3 L 24.6433,10.2987 L 24.5328,10.3058 L 24.4375,10.3273
 L 24.3573,10.3632 L 24.2924,10.4133 L 24.2423,10.4797 L 24.2065,10.5645 L 24.185,10.6675 L 24.1778,10.7888
 L 24.1778,11.0039 L 23.9098,11.0039 L 23.9098,11.2349 L 24.1778,11.2349 L 24.1778,12.9116 L 24.4952,12.9116
 z
M -22.0188,12.9116 L -21.3832,12.9116 L -21.3832,12.6419 L -22.0188,12.6419 L -22.0188,12.5892 L -21.6697,12.5892
 L -21.6697,12.3388 L -22.0188,12.3388 L -22.0188,11.9502 L -22.0143,11.9464 L -21.8747,11.826 L -21.7648,11.7252
 L -21.6847,11.644 L -21.6235,11.5725 L -21.5704,11.5011 L -21.5252,11.4297 L -21.4881,11.3583 L -21.4592,11.2868
 L -21.4386,11.2151 L -21.433,11.183 L -21.4205,11.4484 L -21.1719,11.4484 L -21.1516,11.0394 L -20.5292,11.9313
 L -21.208,12.9116 L -20.866,12.9116 L -20.3494,12.1288 L -19.8363,12.9116 L -19.4819,12.9116 L -20.1696,11.9278
 L -19.5225,11.0039 L -19.8769,11.0039 L -20.3494,11.7462 L -20.5404,11.4484 L -20.5213,11.4484 L -20.4825,10.6674
 L -20.8069,10.6674 L -20.7892,11.0605 L -20.8254,11.0039 L -21.1498,11.0039 L -21.1331,10.6674 L -21.4575,10.6674
 L -21.4479,10.8699 L -21.4725,10.782 L -21.5356,10.6655 L -21.6239,10.5676 L -21.7357,10.49 L -21.8692,10.4347
 L -22.0244,10.4014 L -22.2013,10.3904 L -22.3646,10.4014 L -22.5123,10.4344 L -22.6445,10.4895 L -22.7611,10.5667
 L -22.8586,10.6624 L -22.9333,10.7734 L -22.9851,10.8996 L -23.0141,11.041 L -22.6897,11.0709 L -22.6715,10.9769
 L -22.6397,10.894 L -22.5944,10.8222 L -22.5355,10.7615 L -22.4653,10.7133 L -22.3862,10.6788 L -22.3549,10.6715
 L -23.4893,12.3423 L -23.4893,12.5892 L -22.9816,12.5892 L -23.0282,12.6877 L -23.0282,12.9116 L -22.3186,12.9116
 L -22.3186,13.1516 L -22.0188,13.1516 z
M -22.3374,10.6674 L -22.2982,10.6582 L -22.2013,10.6513 L -22.1005,10.6584 L -22.0625,10.6674 z
M -22.0188,10.6777 L -22.0114,10.6795 L -21.9339,10.7148 L -21.8681,10.7641 L -21.8157,10.8263 L -21.7782,10.8999
 L -21.7557,10.985 L -21.7482,11.0815 L -21.7525,11.1553 L -21.7656,11.2252 L -21.7874,11.2911 L -21.8179,11.353
 L -21.8554,11.4123 L -21.8983,11.4703 L -21.9466,11.5269 L -22.0004,11.5823 L -22.0188,11.5996 z
M -23.1966,12.3388 L -23.1684,12.3035 L -23.0732,12.1731 L -22.4367,11.2351 L -22.4238,11.2153 L -22.408,11.1893
 L -22.3894,11.1571 L -22.3679,11.1187 L -22.3477,11.0818 L -22.3327,11.0539 L -22.323,11.0351 L -22.3186,11.0253
 L -22.3186,11.8527 L -22.3236,11.8567 L -22.3942,11.9148 L -22.4651,11.9753 L -22.5363,12.038 L -22.6069,12.1038
 L -22.6758,12.1733 L -22.7431,12.2466 L -22.8087,12.3236 L -22.8203,12.3388 z
M -22.4622,12.3388 L -22.4412,12.3167 L -22.3658,12.244 L -22.3186,12.2019 L -22.3186,12.3388 z
M -22.6791,12.6419 L -22.6532,12.5892 L -22.3186,12.5892 L -22.3186,12.6419 z
M 2.81697,13.7173 L 2.95047,13.5294 L 3.06248,13.3355 L 3.15302,13.1357 L 3.22282,12.9265 L 3.22617,12.9116
 L 3.98546,12.9116 L 4.16,12.902 L 4.32396,12.8733 L 4.47736,12.8253 L 4.62016,12.7582 L 4.74988,12.6731
 L 4.86392,12.5711 L 4.96233,12.4523 L 5.02077,12.3564 L 5.38297,12.3564 L 5.45433,12.5799 L 5.60959,12.7838
 L 5.82899,12.9061 L 6.11252,12.9469 L 6.27364,12.9339 L 6.41667,12.8951 L 6.54163,12.8303 L 6.64851,12.7397
 L 6.73415,12.6265 L 6.7953,12.494 L 6.82857,12.3564 L 7.40419,12.3564 L 7.41902,12.4023 L 7.47379,12.5132
 L 7.54277,12.6127 L 7.62454,12.6996 L 7.71909,12.774 L 7.8264,12.8358 L 7.94498,12.8844 L 8.07324,12.9191
 L 8.21121,12.9399 L 8.35889,12.9469 L 8.51233,12.9397 L 8.6553,12.918 L 8.78781,12.8819 L 8.90985,12.8314
 L 9.02005,12.7672 L 9.11703,12.6901 L 9.18524,12.6169 L 9.18855,12.6376 L 9.24173,12.8063 L 9.31616,12.9436
 L 9.41319,13.05 L 9.53413,13.126 L 9.67899,13.1717 L 9.84773,13.1869 L 9.95093,13.1819 L 10.0454,13.167
 L 10.1312,13.1422 L 10.2083,13.1075 L 10.2774,13.0614 L 10.3394,13.0022 L 10.3943,12.93 L 10.4104,12.9011
 L 10.427,12.9074 L 10.4501,12.9097 L 10.4505,12.9259 L 10.4524,12.9718 L 10.4551,13.0211 L 10.4582,13.0676
 L 10.4611,13.1049 L 10.4639,13.1329 L 10.4666,13.1516 L 10.7699,13.1516 L 10.7652,13.0913 L 10.7619,13.0057
 L 10.7607,12.9398 L 10.8333,12.9469 L 11.0638,12.9351 L 11.206,12.9103 L 11.206,13.1516 L 11.5234,13.1516
 L 11.5234,12.7957 L 11.5906,12.7582 L 11.7082,12.6542 L 11.7922,12.5308 L 11.8426,12.388 L 11.8595,12.2258
 L 11.8571,12.1601 L 11.85,12.0988 L 11.8381,12.0419 L 11.8215,11.9895 L 11.8008,11.9409 L 11.7764,11.8956
 L 11.7483,11.8537 L 11.7166,11.815 L 11.6816,11.7794 L 11.6437,11.7466 L 11.6042,11.7178 L 11.6274,11.6697
 L 11.6853,11.5953 L 11.7548,11.5421 L 11.836,11.5102 L 11.9289,11.4996 L 11.9791,11.5007 L 12.0241,11.504
 L 12.0638,11.5095 L 12.0982,11.5172 L 12.0982,11.2263 L 12.0656,11.2186 L 12.0333,11.2131 L 12.0013,11.2098
 L 11.9694,11.2087 L 11.8846,11.2143 L 11.8099,11.2311 L 11.7453,11.2592 L 11.6908,11.2986 L 11.6429,11.3532
 L 11.5978,11.4273 L 11.5556,11.5207 L 11.5163,11.6336 L 11.5093,11.6336 L 11.5084,11.5847 L 11.5057,11.5035
 L 11.5013,11.3899 L 11.4952,11.2439 L 11.1954,11.2439 L 11.2001,11.3629 L 11.2034,11.4767 L 11.2047,11.5505
 L 11.2025,11.5498 L 11.1462,11.5355 L 11.0893,11.5219 L 11.0323,11.5084 L 10.9752,11.495 L 10.7611,11.4453
 L 10.7593,11.4448 L 10.7593,10.6477 L 10.8368,10.6443 L 10.9652,10.6498 L 11.0788,10.6665 L 11.1777,10.6943
 L 11.2617,10.7333 L 11.3323,10.7846 L 11.3904,10.8494 L 11.4363,10.9278 L 11.4698,11.0198 L 11.8013,10.9616
 L 11.7479,10.817 L 11.6778,10.6952 L 11.591,10.5962 L 11.4874,10.52 L 11.363,10.4633 L 11.2137,10.4228
 L 11.0395,10.3985 L 10.8403,10.3904 L 10.6261,10.4012 L 10.4381,10.4336 L 10.2765,10.4876 L 10.1413,10.5632
 L 10.0344,10.6587 L 9.95811,10.7725 L 9.91234,10.9046 L 9.89708,11.0551 L 9.89999,11.1227 L 9.90875,11.1864
 L 9.91498,11.2119 L 9.84773,11.2087 L 9.54074,11.271 L 9.39911,11.3919 L 9.39911,10.4274 L 9.06413,10.4274
 L 9.06413,11.9578 L 9.05251,12.1227 L 9.01762,12.2665 L 8.9595,12.3893 L 8.87813,12.4911 L 8.77582,12.571
 L 8.65488,12.628 L 8.5153,12.6622 L 8.35712,12.6736 L 8.20361,12.6626 L 8.06929,12.6295 L 7.95413,12.5744
 L 7.85815,12.4973 L 7.78256,12.3989 L 7.76329,12.3564 L 8.09901,12.3564 L 8.09901,12.1149 L 7.69444,12.1149
 L 7.68538,11.9807 L 7.68538,10.4274 L 7.3486,10.4274 L 7.3486,12.0089 L 7.35448,12.1149 L 6.84424,12.1149
 L 6.84424,10.4274 L 6.03143,10.4274 L 6.03143,10.7024 L 6.50923,10.7024 L 6.50923,12.1149 L 5.12553,12.1149
 L 5.15749,12.0043 L 5.18559,11.8301 L 5.19495,11.644 L 5.17352,11.3689 L 5.10922,11.1271 L 5.00204,10.9188
 L 4.85201,10.7439 L 4.66254,10.6054 L 4.43703,10.5065 L 4.17548,10.4472 L 3.8779,10.4274 L 3.05629,10.4274
 L 3.05629,11.0882 L 2.95158,10.9065 L 2.81769,10.7179 L 2.66197,10.5351 L 2.35521,10.5351 L 2.50909,10.722
 L 2.64105,10.9142 L 2.75107,11.1117 L 2.83917,11.3145 L 2.90666,11.5249 L 2.95488,11.7455 L 2.98381,11.9763
 L 2.99345,12.2172 L 2.98386,12.458 L 2.95509,12.6886 L 2.90717,12.9089 L 2.84006,13.119 L 2.75223,13.3215
 L 2.64215,13.519 L 2.50981,13.7116 L 2.35521,13.8992 L 2.66197,13.8992 z
M 3.39305,12.6419 L 3.39305,10.6971 L 3.87085,10.6971 L 4.09648,10.7123 L 4.29378,10.7578 L 4.46277,10.8335
 L 4.60342,10.9396 L 4.71411,11.0745 L 4.79318,11.2369 L 4.84062,11.4267 L 4.85643,11.644 L 4.84949,11.7923
 L 4.82866,11.9305 L 4.79396,12.0585 L 4.77071,12.1149 L 4.48816,12.1149 L 4.48816,12.3564 L 4.62543,12.3564
 L 4.61026,12.3756 L 4.5247,12.4554 L 4.42712,12.522 L 4.3194,12.5744 L 4.20343,12.6119 L 4.07918,12.6344
 L 3.94667,12.6419 z
M 10.4073,11.3265 L 10.3601,11.2962 L 10.3196,11.263 L 10.2858,11.227 L 10.2592,11.187 L 10.2402,11.1421
 L 10.2288,11.0922 L 10.225,11.0374 L 10.2348,10.9456 L 10.2642,10.866 L 10.3133,10.7984 L 10.3819,10.743
 L 10.4419,10.7133 L 10.4419,11.3268 L 10.4422,11.3442 z
M 9.8181,12.931 L 9.72389,12.8986 L 9.64619,12.8446 L 9.58504,12.769 L 9.53874,12.6684 L 9.50569,12.5394
 L 9.48586,12.3819 L 9.47923,12.196 L 9.4859,12.0106 L 9.50591,11.8529 L 9.53925,11.7228 L 9.58592,11.6203
 L 9.64757,11.5428 L 9.72588,11.4875 L 9.8208,11.4542 L 9.93237,11.4432 L 10.0422,11.4529 L 10.0787,11.4897
 L 10.1268,11.5289 L 10.1829,11.5662 L 10.2471,11.6016 L 10.3193,11.6351 L 10.3309,11.6396 L 10.3735,11.7203
 L 10.4115,11.8465 L 10.4343,11.998 L 10.4419,12.1749 L 10.4343,12.3585 L 10.4115,12.5164 L 10.388,12.5982
 L 10.3467,12.5793 L 10.2629,12.5194 L 10.1951,12.4446 L 10.143,12.3549 L 10.1069,12.2504 L 9.78072,12.3157
 L 9.90073,12.5918 L 10.1161,12.7891 L 10.2469,12.8389 L 10.1616,12.8951 L 10.0545,12.9301 L 9.92886,12.9418
 z
M 10.7593,12.6804 L 10.7593,11.7639 L 10.7663,11.7656 L 10.8491,11.7847 L 10.9281,11.8031 L 11.0033,11.8208
 L 11.0748,11.8379 L 11.1421,11.8557 L 11.2044,11.8754 L 11.206,11.876 L 11.206,12.6347 L 11.1346,12.6562
 L 10.9994,12.6772 L 10.8456,12.6842 z
M 11.5234,12.1962 L 11.5262,12.2434 L 11.5234,12.2694 z
M 6.03407,12.6664 L 5.96091,12.6449 L 5.89479,12.6091 L 5.83572,12.559 L 5.78516,12.4961 L 5.74449,12.4219
 L 5.72092,12.3564 L 6.4899,12.3564 L 6.48279,12.3922 L 6.44972,12.4772 L 6.40344,12.5475 L 6.3457,12.6027
 L 6.27827,12.6421 L 6.20113,12.6657 L 6.11429,12.6736 z
M 60.7925,11.2085 L 61.0329,11.2085 L 61.0717,10.4274 L 60.7473,10.4274 L 60.7587,10.6674 L 60.4949,10.6674
 L 60.5302,11.4484 L 60.7805,11.4484 z
M -14.8097,12.8819 L -14.8977,12.8819 L -14.1569,11.8255 L -13.9044,12.1932 L -13.9303,12.2152 L -14.0015,12.278
 L -14.0721,12.3438 L -14.141,12.4133 L -14.2083,12.4866 L -14.2739,12.5636 L -14.3362,12.6455 L -14.3936,12.7335
 L -14.446,12.8276 L -14.4934,12.9277 L -14.4934,13.1516 L -12.8484,13.1516 L -12.8484,12.8819 L -13.0601,12.8819
 L -13.5254,12.2244 L -13.4795,12.1864 L -13.3399,12.066 L -13.23,11.9652 L -13.1499,11.8839 L -13.0887,11.8125
 L -13.0355,11.7411 L -12.9904,11.6697 L -12.9533,11.5983 L -12.9244,11.5268 L -12.9037,11.455 L -12.8913,11.3831
 L -12.8872,11.3109 L -12.8998,11.1571 L -12.9377,11.022 L -13.0008,10.9054 L -13.0891,10.8075 L -13.2009,10.73
 L -13.2996,10.6891 L -13.1113,10.4274 L -13.4834,10.4274 L -13.625,10.6329 L -13.6665,10.6304 L -13.8298,10.6414
 L -13.9775,10.6744 L -14.1097,10.7295 L -14.2263,10.8067 L -14.3238,10.9024 L -14.3984,11.0134 L -14.4103,11.0424
 L -14.8463,10.4274 L -15.2183,10.4274 L -14.3455,11.621 L -15.2688,12.8819 L -15.6815,12.8819 L -15.6815,12.3864
 L -15.6101,12.3265 L -15.4408,12.1864 L -15.3011,12.066 L -15.1913,11.9652 L -15.1112,11.8839 L -15.0499,11.8125
 L -14.9968,11.7411 L -14.9516,11.6697 L -14.9146,11.5983 L -14.8856,11.5268 L -14.865,11.455 L -14.8526,11.3831
 L -14.8484,11.3109 L -14.8611,11.1571 L -14.8989,11.022 L -14.962,10.9054 L -15.0503,10.8075 L -15.1621,10.73
 L -15.2956,10.6747 L -15.4508,10.6414 L -15.6277,10.6304 L -15.6815,10.634 L -15.6815,10.4274 L -16.0182,10.4274
 L -16.0182,10.7076 L -16.0709,10.7295 L -16.1876,10.8067 L -16.285,10.9024 L -16.3597,11.0134 L -16.4115,11.1396
 L -16.4406,11.2809 L -16.1161,11.3109 L -16.0979,11.2169 L -16.0661,11.134 L -16.0208,11.0622 L -16.0182,11.0595
 L -16.0182,12.3297 L -16.0333,12.3438 L -16.1022,12.4133 L -16.1695,12.4866 L -16.2352,12.5636 L -16.2975,12.6455
 L -16.3548,12.7335 L -16.4072,12.8276 L -16.4547,12.9277 L -16.4547,13.1516 L -14.8097,13.1516 z
M -15.6815,10.8951 L -15.6277,10.8913 L -15.5269,10.8983 L -15.4378,10.9195 L -15.3603,10.9548 L -15.2945,11.0041
 L -15.2421,11.0663 L -15.2046,11.1399 L -15.1821,11.225 L -15.1746,11.3215 L -15.179,11.3953 L -15.192,11.4652
 L -15.2138,11.5311 L -15.2443,11.593 L -15.2818,11.6523 L -15.3247,11.7103 L -15.373,11.7669 L -15.4268,11.8223
 L -15.4849,11.8769 L -15.5464,11.9315 L -15.6114,11.9862 L -15.6815,12.0422 z
M -14.2245,11.3045 L -14.1549,11.3109 L -14.1367,11.2169 L -14.1049,11.134 L -14.0595,11.0622 L -14.0006,11.0015
 L -13.9305,10.9533 L -13.8514,10.9188 L -13.8163,10.9106 L -14.1551,11.4024 z
M -13.9612,11.6087 L -13.4681,10.9233 L -13.3991,10.9548 L -13.3333,11.0041 L -13.2808,11.0663 L -13.2433,11.1399
 L -13.2209,11.225 L -13.2134,11.3215 L -13.2177,11.3953 L -13.2308,11.4652 L -13.2525,11.5311 L -13.283,11.593
 L -13.3206,11.6523 L -13.3635,11.7103 L -13.4118,11.7669 L -13.4655,11.8223 L -13.5237,11.8769 L -13.5852,11.9315
 L -13.6501,11.9862 L -13.6782,12.0086 z
M -14.1443,12.8819 L -14.1137,12.8195 L -14.0747,12.756 L -14.0273,12.6913 L -13.9715,12.6253 L -13.9064,12.5567
 L -13.8309,12.484 L -13.7527,12.4141 L -13.4315,12.8819 z
M -16.1055,12.8819 L -16.0749,12.8195 L -16.0359,12.756 L -16.0182,12.7318 L -16.0182,12.8819 z
M -18.4801,12.3688 L -18.2094,12.7819 L -18.2094,12.9116 L -18.1243,12.9116 L -17.967,13.1516 L -17.6126,13.1516
 L -17.8726,12.7797 L -17.8726,11.9049 L -16.4868,11.9049 L -16.4868,11.6263 L -17.8726,11.6263 L -17.8726,11.5572
 L -17.6532,11.2439 L -17.8726,11.2439 L -17.8726,10.7024 L -16.4445,10.7024 L -16.4445,10.4274 L -18.2094,10.4274
 L -18.2094,11.5609 L -18.4801,11.9862 L -18.9561,11.2439 L -19.307,11.2439 L -18.6599,12.1713 L -19.3387,13.1516
 L -18.9967,13.1516 z
M -18.3003,12.1678 L -18.2094,12.038 L -18.2094,12.2979 z
M 0.983963,13.8964 L 1.0563,13.8826 L 1.12457,13.8598 L 1.18875,13.8278 L 1.24953,13.7864 L 1.30756,13.7356
 L 1.36281,13.6754 L 1.41531,13.6056 L 1.46744,13.5214 L 1.52155,13.4176 L 1.57764,13.2944 L 1.63573,13.1516
 L 2.00729,12.1852 L 2.18164,12.1852 L 2.4655,12.9116 L 2.80933,12.9116 L 2.25682,11.5362 L 2.36919,11.2439
 L 2.1394,11.2439 L 1.8114,10.4274 L 1.42879,10.4274 L 1.00383,11.4687 L 0.918121,11.2439 L 0.579605,11.2439
 L 0.834457,11.8837 L 0.414993,12.9116 L 0.764084,12.9116 L 1.00244,12.3054 L 1.336,13.1428 L 1.30602,13.2186
 L 1.2119,13.4091 L 1.10237,13.5452 L 0.977417,13.6269 L 0.837021,13.6541 L 0.797348,13.6534 L 0.75943,13.6515
 L 0.723282,13.6482 L 0.688904,13.6435 L 0.688904,13.8815 L 0.735626,13.89 L 0.787643,13.8961 L 0.844955,13.8997
 L 0.907532,13.9009 z
M 1.17685,11.9225 L 1.16454,11.8902 L 1.46935,11.1062 L 1.50989,10.9968 L 1.54515,10.8977 L 1.57513,10.809
 L 1.59981,10.7307 L 1.61569,10.6813 L 1.6633,10.8276 L 1.68797,10.9023 L 1.71266,10.9731 L 1.73734,11.0398
 L 1.76202,11.1027 L 1.9323,11.5401 L 1.80075,11.9225 z
M 1.4864,12.7838 L 1.4722,12.7399 L 1.45027,12.6745 L 1.42062,12.5874 L 1.39053,12.4996 L 1.36728,12.432
 L 1.35086,12.3846 L 1.34128,12.3573 L 1.32011,12.2983 L 1.27701,12.1852 L 1.7104,12.1852 L 1.61632,12.4587
 L 1.4929,12.806 z
M -10.7663,12.6366 L -12.3866,12.6366 L -12.3866,11.7709 L -10.9444,11.7709 L -10.9444,11.4994 L -12.3866,11.4994
 L -12.3866,11.4484 L -12.2747,11.4484 L -12.2377,10.7024 L -11.9082,10.7024 L -11.8745,11.4484 L -11.6242,11.4484
 L -11.5871,10.7024 L -10.8386,10.7024 L -10.8386,10.4274 L -12.7233,10.4274 L -12.7233,12.9116 L -10.7663,12.9116
 z
M -9.45619,13.7107 L -9.58891,13.5175 L -9.69905,13.3193 L -9.78661,13.1163 L -9.85158,12.9116 L -9.44203,12.9116
 L -9.26749,12.902 L -9.10352,12.8733 L -9.04839,12.856 L -9.00417,12.9215 L -8.90318,13.0167 L -8.78125,13.0912
 L -8.64026,13.1443 L -8.48019,13.1762 L -8.30107,13.1869 L -8.10999,13.1751 L -7.94228,13.1397 L -7.79793,13.0807
 L -7.67694,12.9982 L -7.58128,12.8942 L -7.51297,12.7708 L -7.47197,12.628 L -7.45831,12.4658 L -7.468,12.3518
 L -7.4971,12.248 L -7.54559,12.1544 L -7.61348,12.0708 L -7.69876,12.0003 L -7.79947,11.9456 L -7.91562,11.9069
 L -8.04718,11.8839 L -8.04718,11.8769 L -7.92778,11.8444 L -7.82349,11.8 L -7.73428,11.7435 L -7.66017,11.675
 L -7.60193,11.595 L -7.56033,11.5038 L -7.53537,11.4014 L -7.52705,11.288 L -7.53999,11.1414 L -7.57884,11.0119
 L -7.64359,10.8994 L -7.73422,10.804 L -7.84822,10.728 L -7.98305,10.6738 L -8.1387,10.6412 L -8.31519,10.6304
 L -8.47844,10.641 L -8.62614,10.6731 L -8.65587,10.6851 L -8.76495,10.6054 L -8.99046,10.5065 L -9.25201,10.4472
 L -9.54959,10.4274 L -10.3712,10.4274 L -10.3712,12.9116 L -10.1717,12.9116 L -10.169,12.9237 L -10.0996,13.1331
 L -10.0093,13.3334 L -9.89725,13.5278 L -9.76337,13.7164 L -9.60765,13.8992 L -9.30087,13.8992 z
M -10.0344,10.6971 L -9.74565,10.6971 L -9.76263,10.7171 L -9.89615,10.905 L -10.0082,11.0988 L -10.0344,11.1568
 z
M -9.90651,12.6419 L -9.9296,12.4565 L -9.93912,12.2172 L -9.92947,11.9769 L -9.90056,11.7464 L -9.85236,11.5256
 L -9.78487,11.3144 L -9.69676,11.111 L -9.58673,10.9133 L -9.45476,10.7214 L -9.44113,10.7049 L -9.33101,10.7123
 L -9.13371,10.7578 L -8.96472,10.8335 L -8.93309,10.8574 L -8.97244,10.8953 L -9.04709,11.0059 L -9.09894,11.1333
 L -9.12798,11.2774 L -8.80885,11.3021 L -8.79149,11.2098 L -8.76057,11.1284 L -8.72078,11.0655 L -8.71336,11.0745
 L -8.63431,11.2369 L -8.58687,11.4267 L -8.57106,11.644 L -8.578,11.7923 L -8.59882,11.9305 L -8.63353,12.0585
 L -8.68213,12.1764 L -8.74367,12.2826 L -8.81721,12.3756 L -8.90279,12.4554 L -8.95947,12.4941 L -9.1703,12.5134
 L -9.15446,12.5894 L -9.22406,12.6119 L -9.34831,12.6344 L -9.48082,12.6419 z
M -8.23253,11.644 L -8.25397,11.3689 L -8.31827,11.1271 L -8.42545,10.9188 L -8.4393,10.9027 L -8.41859,10.898
 L -8.3187,10.8913 L -8.21033,10.8985 L -8.11617,10.9202 L -8.03622,10.9563 L -7.9705,11.0068 L -7.9192,11.0698
 L -7.88257,11.1432 L -7.86058,11.2271 L -7.85324,11.3215 L -7.86223,11.4165 L -7.88918,11.5007 L -7.93408,11.5739
 L -7.99695,11.6362 L -8.07611,11.686 L -8.16994,11.7215 L -8.23709,11.7347 z
M -8.51407,12.8966 L -8.67529,12.814 L -8.74963,12.7204 L -8.67761,12.6731 L -8.56355,12.5711 L -8.46515,12.4523
 L -8.3824,12.3166 L -8.31683,12.1664 L -8.27773,12.031 L -8.25594,12.0321 L -8.13467,12.0534 L -8.0307,12.089
 L -7.94405,12.1387 L -7.87578,12.2011 L -7.82703,12.2747 L -7.79776,12.3594 L -7.78801,12.4552 L -7.79655,12.5644
 L -7.82217,12.6593 L -7.86488,12.7398 L -7.92467,12.806 L -7.99944,12.8577 L -8.08708,12.8946 L -8.18764,12.9168
 L -8.30107,12.9242 z
M 52.8252,10.4274 L 52.5008,10.4274 L 52.5361,11.2085 L 52.7864,11.2085 z
M 57.862,12.9116 L 58.0047,12.9116 L 58.0047,13.1516 L 59.5616,13.1516 L 59.5616,12.8819 L 58.9568,12.8819
 L 58.9568,12.3492 L 59.8863,12.3492 L 59.8863,12.9116 L 60.186,12.9116 L 60.186,12.3492 L 60.5351,12.3492
 L 60.5351,12.0988 L 60.186,12.0988 L 60.186,10.4274 L 59.8528,10.4274 L 58.9568,11.747 L 58.9568,10.6674
 L 58.6642,10.6674 L 58.077,11.0711 L 58.077,11.3708 L 58.6377,10.9706 L 58.6377,12.8819 L 58.5033,12.8819
 L 58.5033,12.6419 L 57.8986,12.6419 L 57.8986,10.4274 L 57.6059,10.4274 L 57.2569,10.6674 L 56.9646,10.6674
 L 56.3775,11.0711 L 56.3775,11.3708 L 56.9382,10.9706 L 56.9382,12.8819 L 56.3052,12.8819 L 56.3052,13.1516
 L 57.862,13.1516 z
M 57.2573,10.9606 L 57.5794,10.7307 L 57.5794,12.6419 L 57.2573,12.6419 z
M 59.0082,12.0988 L 59.0365,12.0636 L 59.1317,11.9331 L 59.7681,10.9951 L 59.781,10.9753 L 59.7968,10.9493
 L 59.8154,10.9171 L 59.8369,10.8787 L 59.853,10.8495 L 59.8814,11.4484 L 59.8863,11.4484 L 59.8863,12.0988
 z
M 61.7223,10.4274 L 61.3979,10.4274 L 61.4332,11.2085 L 61.6835,11.2085 z
M 16.6311,13.1728 L 16.8043,13.1304 L 16.955,13.0599 L 17.0831,12.9612 L 17.1242,12.9116 L 17.5181,12.9116
 L 17.6718,12.9029 L 17.6718,13.1516 L 17.9874,13.1516 L 17.9874,12.8338 L 18.0573,12.808 L 18.1899,12.7274
 L 18.2955,12.6261 L 18.371,12.5063 L 18.4163,12.3682 L 18.4314,12.2116 L 18.4214,12.0927 L 18.3913,11.9845
 L 18.3412,11.8869 L 18.271,11.8 L 18.1823,11.7264 L 18.0766,11.6689 L 18.0705,11.6668 L 18.1055,11.6089
 L 18.1699,11.541 L 18.2448,11.4925 L 18.3303,11.4634 L 18.4264,11.4538 L 18.5175,11.4604 L 18.5935,11.4802
 L 18.6542,11.5133 L 18.6997,11.5595 L 18.7329,11.6231 L 18.7566,11.7081 L 18.7708,11.8144 L 18.7755,11.9421
 L 18.7755,13.1516 L 19.0894,13.1516 L 19.0894,12.9116 L 19.8775,12.9116 L 19.8775,13.1516 L 20.1913,13.1516
 L 20.1913,12.9116 L 20.4538,12.9116 L 20.4538,12.6366 L 20.1913,12.6366 L 20.1913,11.8804 L 20.1831,11.714
 L 20.1585,11.5727 L 20.1174,11.4566 L 20.0599,11.3656 L 19.9844,11.2969 L 19.8891,11.2479 L 19.7742,11.2185
 L 19.6395,11.2087 L 19.5435,11.214 L 19.455,11.2298 L 19.3738,11.2563 L 19.3,11.2933 L 19.2325,11.3423
 L 19.1985,11.3765 L 19.1985,10.4274 L 18.8618,10.4274 L 18.8618,11.2848 L 18.8117,11.2573 L 18.7316,11.2303
 L 18.6402,11.2141 L 18.5375,11.2087 L 18.4459,11.2136 L 18.3616,11.2285 L 18.2846,11.2533 L 18.2368,11.2771
 L 18.256,11.2331 L 18.2791,11.1362 L 18.2868,11.0304 L 18.2322,10.7666 L 18.0682,10.5781 L 17.7949,10.4651
 L 17.4123,10.4274 L 16.5096,10.4274 L 16.5096,10.6674 L 15.7599,10.6674 L 15.7066,11.5274 L 15.2647,10.4274
 L 14.8821,10.4274 L 14.2576,11.9577 L 14.2576,10.5351 L 14.0917,10.5351 L 14.0917,10.4274 L 12.05,10.4274
 L 12.05,10.7024 L 12.3715,10.7024 L 12.3715,10.8384 L 12.6889,10.8384 L 12.6889,10.7024 L 12.9034,10.7024
 L 12.9034,12.9116 L 13.1568,12.9116 L 13.1568,13.1516 L 13.4741,13.1516 L 13.4741,10.7024 L 13.9402,10.7024
 L 13.9402,12.7354 L 13.8683,12.9116 L 13.9402,12.9116 L 13.9402,13.1516 L 14.2576,13.1516 L 14.2576,12.8094
 L 14.5031,12.1852 L 15.635,12.1852 L 15.7874,12.5752 L 15.6048,12.5962 L 15.6428,12.7314 L 15.7004,12.8497
 L 15.7777,12.9509 L 15.8745,13.0352 L 15.9896,13.1016 L 16.1214,13.149 L 16.2699,13.1774 L 16.4352,13.1869
 z
M 14.6053,11.9225 L 14.9227,11.1062 L 14.9632,10.9968 L 14.9985,10.8977 L 15.0285,10.809 L 15.0531,10.7307
 L 15.069,10.6813 L 15.1166,10.8276 L 15.1413,10.9023 L 15.166,10.9731 L 15.1907,11.0398 L 15.2153,11.1027
 L 15.5345,11.9225 z
M 16.8464,11.4835 L 16.8464,10.9371 L 17.1722,10.9371 L 17.1722,10.6971 L 17.4123,10.6971 L 17.5351,10.7025
 L 17.6424,10.7187 L 17.7343,10.7457 L 17.8108,10.7835 L 17.871,10.8339 L 17.9139,10.8986 L 17.9397,10.9776
 L 17.9483,11.0709 L 17.94,11.1691 L 17.9179,11.2439 L 17.6612,11.2439 L 17.6658,11.2971 L 17.6692,11.3828
 L 17.6703,11.4505 L 17.6479,11.4582 L 17.5387,11.4772 L 17.4123,11.4835 z
M 16.0015,11.7253 L 16.0491,10.9371 L 16.5096,10.9371 L 16.5096,11.5669 L 16.3674,11.5765 L 16.2329,11.6062
 L 16.1109,11.6558 z
M 19.1985,12.6366 L 19.1985,11.6187 L 19.2048,11.608 L 19.2684,11.5405 L 19.3435,11.4923 L 19.4301,11.4634
 L 19.5284,11.4538 L 19.6195,11.4604 L 19.6954,11.4802 L 19.7561,11.5133 L 19.8017,11.5595 L 19.8348,11.6231
 L 19.8585,11.7081 L 19.8727,11.8144 L 19.8775,11.9421 L 19.8775,12.6366 z
M 17.9751,11.5701 L 17.9744,11.5447 L 18.0022,11.5316 L 17.9804,11.5701 z
M 17.2721,12.6419 L 17.3022,12.5284 L 17.3168,12.3423 L 17.3032,12.1777 L 17.2623,12.0294 L 17.1943,11.8974
 L 17.099,11.7817 L 17.0545,11.7462 L 17.474,11.7462 L 17.6718,11.7663 L 17.6718,12.6299 L 17.6443,12.6347
 L 17.5005,12.6419 z
M 16.2602,12.9054 L 15.898,12.0038 L 15.9874,12.0038 L 16.0429,11.9589 L 16.0984,11.921 L 16.154,11.8901
 L 16.2095,11.8663 L 16.2662,11.8486 L 16.325,11.8359 L 16.3861,11.8283 L 16.4493,11.8258 L 16.5096,11.8304
 L 16.5096,12.9116 L 16.587,12.9116 L 16.5631,12.9181 L 16.4423,12.9277 z
M 17.9874,12.0462 L 17.9942,11.9239 L 18.0526,11.9931 L 18.0911,12.1852 L 18.0823,12.2919 L 18.0559,12.3844
 L 18.0118,12.4629 L 17.9874,12.4883 z
M 16.8464,12.6419 L 16.8464,11.9762 L 16.9052,12.0482 L 16.9507,12.1374 L 16.978,12.2378 L 16.9871,12.3494
 L 16.978,12.4771 L 16.9509,12.5903 L 16.9273,12.6419 z
M 68.4942,12.3492 L 68.8433,12.3492 L 68.8433,12.0988 L 68.4942,12.0988 L 68.4942,10.4274 L 68.161,10.4274
 L 67.0238,12.1023 L 67.0238,12.3492 L 68.1945,12.3492 L 68.1945,12.9116 L 68.4942,12.9116 z
M 67.3165,12.0988 L 67.3447,12.0636 L 67.4399,11.9331 L 68.0764,10.9951 L 68.0892,10.9753 L 68.105,10.9493
 L 68.1236,10.9171 L 68.1451,10.8787 L 68.1654,10.8418 L 68.1804,10.8139 L 68.1901,10.7951 L 68.1945,10.7853
 L 68.1945,12.0988 z
M 52.1746,10.4274 L 51.8502,10.4274 L 51.8872,11.2085 L 52.1358,11.2085 z
M 69.38,10.4274 L 69.0556,10.4274 L 69.0926,11.2085 L 69.3412,11.2085 z
M 20.925,12.9116 L 21.7131,12.9116 L 21.7131,13.1516 L 22.027,13.1516 L 22.027,12.9116 L 22.78,12.9116
 L 22.78,12.6366 L 22.027,12.6366 L 22.027,12.0462 L 22.0342,11.9123 L 22.0558,11.7947 L 22.0643,11.7709
 L 22.602,11.7709 L 22.602,11.4994 L 22.2701,11.4994 L 22.2811,11.4923 L 22.3677,11.4634 L 22.466,11.4538
 L 22.5571,11.4604 L 22.633,11.4802 L 22.6937,11.5133 L 22.7393,11.5595 L 22.7724,11.6231 L 22.7961,11.7081
 L 22.8103,11.8144 L 22.8151,11.9421 L 22.8151,13.1516 L 23.1289,13.1516 L 23.1289,11.8804 L 23.1207,11.714
 L 23.0961,11.5727 L 23.055,11.4566 L 22.9975,11.3656 L 22.922,11.2969 L 22.8267,11.2479 L 22.7117,11.2185
 L 22.577,11.2087 L 22.4811,11.214 L 22.3926,11.2298 L 22.3114,11.2563 L 22.2376,11.2933 L 22.1701,11.3423
 L 22.1078,11.4048 L 22.0507,11.4807 L 22.0399,11.4994 L 21.9697,11.4994 L 21.964,11.4822 L 21.9249,11.407
 L 21.8762,11.3447 L 21.818,11.2951 L 21.7493,11.2573 L 21.6693,11.2303 L 21.5778,11.2141 L 21.4751,11.2087
 L 21.3835,11.2136 L 21.2992,11.2285 L 21.2222,11.2533 L 21.1598,11.2844 L 21.1598,10.7024 L 22.7078,10.7024
 L 22.7078,10.4274 L 20.823,10.4274 L 20.823,11.2439 L 20.5988,11.2439 L 20.6035,11.2971 L 20.6068,11.3828
 L 20.6087,11.5008 L 20.6094,11.6512 L 20.6094,13.1516 L 20.925,13.1516 z
M 21.1719,11.4994 L 21.1824,11.4925 L 21.2679,11.4634 L 21.364,11.4538 L 21.4551,11.4604 L 21.5311,11.4802
 L 21.5663,11.4994 z
M 21.7131,12.6366 L 21.1598,12.6366 L 21.1598,11.7709 L 21.7026,11.7709 L 21.7084,11.8144 L 21.7131,11.9421
 z
M -2.26987,12.6419 L -2.8746,12.6419 L -2.8746,10.4274 L -3.16728,10.4274 L -3.51627,10.6674 L -3.60155,10.6674
 L -3.59898,10.7243 L -3.75441,10.8311 L -3.75441,11.1309 L -3.58606,11.0107 L -3.5663,11.4484 L -3.31593,11.4484
 L -3.28346,10.7947 L -3.19376,10.7307 L -3.19376,12.6419 L -3.82669,12.6419 L -3.82669,12.9116 L -2.26987,12.9116
 z
M 70.0306,10.4274 L 69.7062,10.4274 L 69.7414,11.2085 L 69.9918,11.2085 z
M -27.9628,13.1587 L -27.7412,13.074 L -27.574,12.933 L -27.4613,12.7355 L -27.7398,12.6562 L -27.7669,12.7169
 L -27.804,12.7721 L -27.8511,12.8218 L -27.9082,12.866 L -27.9755,12.9023 L -28.053,12.9281 L -28.1408,12.9437
 L -28.2388,12.9489 L -28.3615,12.9377 L -28.4685,12.9043 L -28.5598,12.8487 L -28.6355,12.7708 L -28.6949,12.6724
 L -28.7373,12.5552 L -28.7628,12.4194 L -28.7713,12.2647 L -27.4199,12.2647 L -27.4199,12.9116 L -27.0831,12.9116
 L -27.0831,11.7603 L -27.0533,11.7603 L -27.0533,13.1516 L -26.736,13.1516 L -26.736,11.7603 L -25.7396,11.7603
 L -25.7396,12.9116 L -25.4029,12.9116 L -25.4029,10.4274 L -25.7396,10.4274 L -25.7396,11.4782 L -26.736,11.4782
 L -26.736,10.5351 L -27.0533,10.5351 L -27.0533,11.4782 L -27.0831,11.4782 L -27.0831,10.4274 L -27.4199,10.4274
 L -27.4199,12.1402 L -27.4627,11.7789 L -27.6204,11.4621 L -27.8832,11.272 L -28.2511,11.2087 L -28.4447,11.2244
 L -28.6146,11.2717 L -28.7607,11.3505 L -28.8832,11.4608 L -28.98,11.6006 L -29.0492,11.768 L -29.0907,11.963
 L -29.1045,12.1854 L -29.0907,12.4187 L -29.0492,12.6214 L -28.98,12.7934 L -28.8832,12.9347 L -28.76,13.045
 L -28.6115,13.1238 L -28.4378,13.1711 L -28.2388,13.1869 z
M -28.7677,12.0215 L -28.7547,11.8938 L -28.7261,11.7806 L -28.682,11.6818 L -28.6223,11.5974 L -28.5488,11.53
 L -28.4634,11.4817 L -28.3659,11.4528 L -28.2564,11.4432 L -28.1444,11.4518 L -28.0462,11.4778 L -27.9619,11.521
 L -27.8915,11.5816 L -27.8343,11.6609 L -27.7897,11.7607 L -27.7576,11.8809 L -27.7381,12.0215 z
M -6.69637,11.8396 L -6.21704,11.8396 L -6.21704,12.2438 L -6.28394,12.3423 L -6.28394,12.5892 L -6.21704,12.5892
 L -6.21704,12.5943 L -5.95787,12.5943 L -5.95787,12.5892 L -5.1132,12.5892 L -5.1132,13.1516 L -4.81348,13.1516
 L -4.81348,12.5892 L -4.46437,12.5892 L -4.46437,12.3388 L -4.81348,12.3388 L -4.81348,10.6674 L -5.14671,10.6674
 L -5.76785,11.5822 L -5.95787,11.5822 L -5.95787,10.8276 L -6.21704,10.8276 L -6.21704,11.5822 L -6.62671,11.5822
 L -6.34335,10.5351 L -6.62192,10.5351 L -6.90807,11.5822 L -6.96463,11.5822 L -6.96463,11.7892 L -7.34657,13.1869
 L -7.06093,13.1869 z
M -5.95787,12.3388 L -5.95787,12.2965 L -5.86783,12.1731 L -5.64157,11.8396 L -5.2103,11.8396 L -5.2103,11.5822
 L -5.4669,11.5822 L -5.23135,11.2351 L -5.21844,11.2153 L -5.2027,11.1893 L -5.18407,11.1571 L -5.16258,11.1187
 L -5.1423,11.0818 L -5.12732,11.0539 L -5.11761,11.0351 L -5.1132,11.0253 L -5.1132,12.3388 z
M -5.95787,11.8621 L -5.95787,11.8396 L -5.94263,11.8396 z
M 0.347977,10.5351 L 0.0306091,10.5351 L 0.0306091,13.1516 L 0.347977,13.1516 z
M 26.7966,10.5351 L 26.4792,10.5351 L 26.4792,10.8384 L 26.7966,10.8384 z
M -40.2685,10.5351 L -40.5858,10.5351 L -40.5858,10.8384 L -40.2685,10.8384 z
M -39.0874,13.1819 L -38.9929,13.167 L -38.9071,13.1422 L -38.83,13.1075 L -38.7609,13.0614 L -38.6989,13.0022
 L -38.644,12.93 L -38.5964,12.8448 L -38.5893,12.8448 L -38.5889,12.8836 L -38.5878,12.9259 L -38.5859,12.9718
 L -38.5832,13.0211 L -38.5801,13.0676 L -38.5772,13.1049 L -38.5744,13.1329 L -38.5717,13.1516 L -38.2684,13.1516
 L -38.2731,13.0913 L -38.2764,13.0057 L -38.2784,12.8947 L -38.279,12.7584 L -38.279,10.5351 L -38.5964,10.5351
 L -38.5964,11.3268 L -38.5928,11.5401 L -38.5964,11.5401 L -38.644,11.4596 L -38.6987,11.3907 L -38.7604,11.3335
 L -38.8291,11.288 L -38.9059,11.2533 L -38.9918,11.2285 L -39.0866,11.2136 L -39.1906,11.2087 L -39.4976,11.271
 L -39.7168,11.4581 L -39.8484,11.77 L -39.8923,12.2066 L -39.8816,12.4378 L -39.8497,12.6376 L -39.7966,12.8063
 L -39.7221,12.9436 L -39.6251,13.05 L -39.5042,13.126 L -39.3593,13.1717 L -39.1906,13.1869 z
M -39.2202,12.931 L -39.3144,12.8986 L -39.3921,12.8446 L -39.4533,12.769 L -39.4995,12.6684 L -39.5326,12.5394
 L -39.5524,12.3819 L -39.5591,12.196 L -39.5524,12.0106 L -39.5324,11.8529 L -39.4991,11.7228 L -39.4524,11.6203
 L -39.3907,11.5428 L -39.3124,11.4875 L -39.2175,11.4542 L -39.1059,11.4432 L -38.9818,11.4542 L -38.8758,11.4872
 L -38.7879,11.5423 L -38.718,11.6195 L -38.6648,11.7203 L -38.6268,11.8465 L -38.604,11.998 L -38.5964,12.1749
 L -38.604,12.3585 L -38.6268,12.5164 L -38.6648,12.6486 L -38.718,12.7549 L -38.7881,12.8367 L -38.8767,12.8951
 L -38.9838,12.9301 L -39.1094,12.9418 z
M -45.4683,12.8819 L -46.7642,12.8819 L -46.7336,12.8195 L -46.6946,12.756 L -46.6472,12.6913 L -46.5914,12.6253
 L -46.5263,12.5567 L -46.4508,12.484 L -46.365,12.4073 L -46.2688,12.3265 L -46.0994,12.1864 L -45.9598,12.066
 L -45.8499,11.9652 L -45.7698,11.8839 L -45.7086,11.8125 L -45.6554,11.7411 L -45.6103,11.6697 L -45.5732,11.5983
 L -45.5443,11.5268 L -45.5236,11.455 L -45.5112,11.3831 L -45.5071,11.3109 L -45.5197,11.1571 L -45.5576,11.022
 L -45.6207,10.9054 L -45.709,10.8075 L -45.8208,10.73 L -45.9543,10.6747 L -46.1095,10.6414 L -46.2864,10.6304
 L -46.4496,10.6414 L -46.5974,10.6744 L -46.7296,10.7295 L -46.8462,10.8067 L -46.9437,10.9024 L -47.0183,11.0134
 L -47.0702,11.1396 L -47.0992,11.2809 L -46.7748,11.3109 L -46.7565,11.2169 L -46.7248,11.134 L -46.6794,11.0622
 L -46.6205,11.0015 L -46.5504,10.9533 L -46.4713,10.9188 L -46.3833,10.8982 L -46.2864,10.8913 L -46.1856,10.8983
 L -46.0964,10.9195 L -46.019,10.9548 L -45.9532,11.0041 L -45.9007,11.0663 L -45.8633,11.1399 L -45.8408,11.225
 L -45.8333,11.3215 L -45.8376,11.3953 L -45.8507,11.4652 L -45.8725,11.5311 L -45.9029,11.593 L -45.9404,11.6523
 L -45.9834,11.7103 L -46.0317,11.7669 L -46.0854,11.8223 L -46.1435,11.8769 L -46.2051,11.9315 L -46.2701,11.9862
 L -46.3384,12.0408 L -46.4087,12.0967 L -46.4792,12.1548 L -46.5502,12.2152 L -46.6214,12.278 L -46.692,12.3438
 L -46.7609,12.4133 L -46.8282,12.4866 L -46.8938,12.5636 L -46.9561,12.6455 L -47.0135,12.7335 L -47.0659,12.8276
 L -47.1133,12.9277 L -47.1133,13.1516 L -45.4683,13.1516 z
M -49.3533,12.8766 L -50.9736,12.8766 L -50.9736,12.0109 L -49.5314,12.0109 L -49.5314,11.7393 L -50.9736,11.7393
 L -50.9736,10.9424 L -49.4256,10.9424 L -49.4256,10.6674 L -51.3104,10.6674 L -51.3104,13.1516 L -49.3533,13.1516
 z
M -23.7015,12.8819 L -24.3062,12.8819 L -24.3062,10.6674 L -24.5989,10.6674 L -25.1861,11.0711 L -25.1861,11.3708
 L -24.6254,10.9706 L -24.6254,12.8819 L -25.2583,12.8819 L -25.2583,13.1516 L -23.7015,13.1516 z
M -3.92775,10.6674 L -4.25215,10.6674 L -4.21512,11.4484 L -3.96654,11.4484 z
M 71.6944,12.9151 L 71.694,12.7893 L 71.6927,12.6974 L 71.6905,12.6394 L 71.6874,12.6154 L 71.6962,12.6154
 L 71.7901,12.7604 L 71.9201,12.864 L 72.0863,12.9262 L 72.2886,12.9469 L 72.5956,12.8845 L 72.8149,12.6974
 L 72.9465,12.3855 L 72.9903,11.949 L 72.9794,11.7128 L 72.9467,11.5104 L 72.8922,11.3417 L 72.8158,11.2067
 L 72.7174,11.1033 L 72.5967,11.0295 L 72.4538,10.9852 L 72.2886,10.9704 L 72.1804,10.9755 L 72.0832,10.9909
 L 71.997,11.0165 L 71.9219,11.0524 L 71.8557,11.0993 L 71.7963,11.158 L 71.7437,11.2285 L 71.698,11.3107
 L 71.6909,11.3107 L 71.6906,11.2904 L 71.6898,11.2631 L 71.6884,11.2287 L 71.6865,11.1873 L 71.6844,11.1453
 L 71.6823,11.1091 L 71.6804,11.0787 L 71.6786,11.0542 L 71.6769,11.0349 L 71.6755,11.02 L 71.6743,11.0097
 L 71.6733,11.0039 L 71.3665,11.0039 L 71.3711,11.064 L 71.3744,11.149 L 71.3764,11.2588 L 71.3771,11.3936
 L 71.3771,13.6609 L 71.6944,13.6609 z
M 72.0785,12.7012 L 71.9717,12.6679 L 71.8836,12.6122 L 71.8143,12.5343 L 71.7619,12.4329 L 71.7244,12.3069
 L 71.7019,12.1561 L 71.6944,11.9807 L 71.6979,11.8522 L 71.7083,11.7363 L 71.7257,11.6331 L 71.75,11.5426
 L 71.7809,11.4639 L 71.8183,11.3964 L 71.862,11.3401 L 71.9122,11.2948 L 71.9706,11.2601 L 72.0394,11.2353
 L 72.1183,11.2205 L 72.2075,11.2155 L 72.3168,11.2262 L 72.4103,11.2583 L 72.4878,11.3117 L 72.5495,11.3865
 L 72.5966,11.4863 L 72.6302,11.6144 L 72.6504,11.771 L 72.6571,11.956 L 72.6503,12.1458 L 72.63,12.3062
 L 72.5961,12.4372 L 72.5487,12.5387 L 72.4865,12.6147 L 72.4083,12.669 L 72.3141,12.7015 L 72.204,12.7124
 z
M 74.2917,13.6564 L 74.364,13.6426 L 74.4323,13.6198 L 74.4965,13.5878 L 74.5572,13.5464 L 74.6152,13.4957
 L 74.6705,13.4354 L 74.723,13.3656 L 74.7751,13.2814 L 74.8293,13.1776 L 74.8853,13.0544 L 74.9434,12.9116
 L 75.6769,11.0039 L 75.3419,11.0039 L 74.924,12.2187 L 74.8006,12.5661 L 74.7941,12.5438 L 74.7799,12.4999
 L 74.758,12.4345 L 74.7283,12.3474 L 74.6982,12.2596 L 74.675,12.192 L 74.6586,12.1446 L 74.649,12.1173
 L 74.6278,12.0583 L 74.2258,11.0039 L 73.8873,11.0039 L 74.6437,12.9028 L 74.6137,12.9786 L 74.5196,13.1691
 L 74.4101,13.3052 L 74.2851,13.3869 L 74.1447,13.4141 L 74.1051,13.4135 L 74.0671,13.4115 L 74.031,13.4082
 L 73.9966,13.4035 L 73.9966,13.6415 L 74.0433,13.65 L 74.0954,13.6561 L 74.1526,13.6597 L 74.2152,13.6609
 z
M 24.8371,13.1551 L 24.8366,13.0293 L 24.8353,12.9374 L 24.8331,12.8794 L 24.83,12.8554 L 24.8388,12.8554
 L 24.9327,13.0004 L 25.0627,13.104 L 25.2289,13.1662 L 25.4312,13.1869 L 25.7383,13.1245 L 25.9576,12.9374
 L 25.9766,12.8923 L 26.0347,12.8649 L 26.1044,12.8167 L 26.1698,12.754 L 26.2309,12.677 L 26.2878,12.5854
 L 26.293,12.5854 L 26.2947,12.6495 L 26.2963,12.7025 L 26.2978,12.7443 L 26.2992,12.775 L 26.3016,12.8224
 L 26.3027,12.8439 L 26.3036,12.864 L 26.3045,12.8815 L 26.3054,12.8953 L 26.3063,12.9053 L 26.3071,12.9116
 L 26.4792,12.9116 L 26.4792,13.1516 L 26.7966,13.1516 L 26.7966,11.2439 L 26.5963,11.2439 L 26.5963,11.0039
 L 26.2789,11.0039 L 26.2789,12.1094 L 26.2707,12.2411 L 26.2459,12.3576 L 26.2045,12.4588 L 26.1467,12.5449
 L 26.092,12.5969 L 26.133,12.1889 L 26.1221,11.9528 L 26.0893,11.7504 L 26.0348,11.5817 L 25.9584,11.4467
 L 25.86,11.3433 L 25.7393,11.2695 L 25.5964,11.2252 L 25.4312,11.2104 L 25.3921,11.2123 L 25.3921,11.0039
 L 25.073,11.0039 L 25.073,11.2884 L 25.0645,11.2924 L 24.9983,11.3393 L 24.9389,11.398 L 24.8863,11.4684
 L 24.8406,11.5507 L 24.8336,11.5507 L 24.8333,11.5304 L 24.8324,11.5031 L 24.8311,11.4687 L 24.8291,11.4273
 L 24.827,11.3853 L 24.825,11.3491 L 24.823,11.3187 L 24.8212,11.2942 L 24.8195,11.2748 L 24.8181,11.26
 L 24.8169,11.2497 L 24.8159,11.2439 L 24.5091,11.2439 L 24.5137,11.304 L 24.5171,11.3889 L 24.519,11.4988
 L 24.5197,11.6336 L 24.5197,13.9009 L 24.8371,13.9009 z
M 25.7115,12.6989 L 25.6473,12.6903 L 25.5925,12.676 L 25.5472,12.656 L 25.5094,12.6294 L 25.4771,12.5956
 L 25.4504,12.5545 L 25.4291,12.5061 L 25.4129,12.4488 L 25.4013,12.3809 L 25.3944,12.3024 L 25.3921,12.2134
 L 25.3921,11.4596 L 25.4595,11.4662 L 25.5529,11.4982 L 25.6305,11.5517 L 25.6922,11.6265 L 25.7392,11.7262
 L 25.7728,11.8544 L 25.793,12.011 L 25.7997,12.196 L 25.793,12.3858 L 25.7726,12.5462 L 25.7387,12.6772
 L 25.7283,12.6996 z
M 25.2211,12.9412 L 25.1143,12.9079 L 25.0263,12.8522 L 24.957,12.7743 L 24.9045,12.6729 L 24.867,12.5469
 L 24.8446,12.3961 L 24.8371,12.2207 L 24.8405,12.0921 L 24.851,11.9763 L 24.8683,11.8731 L 24.8926,11.7826
 L 24.9236,11.7039 L 24.9609,11.6364 L 25.0047,11.5801 L 25.0548,11.5348 L 25.073,11.5241 L 25.073,12.2751
 L 25.082,12.4422 L 25.1093,12.5839 L 25.1548,12.7001 L 25.2184,12.7908 L 25.3017,12.8591 L 25.406,12.9079
 L 25.4944,12.9285 L 25.4568,12.9415 L 25.3466,12.9524 z
M -1.61328,13.1551 L -1.61371,13.0293 L -1.61504,12.9374 L -1.61723,12.8794 L -1.62032,12.8554 L -1.61151,12.8554
 L -1.51762,13.0004 L -1.38759,13.104 L -1.22142,13.1662 L -1.0191,13.1869 L -0.712082,13.1245 L -0.492798,12.9374
 L -0.481934,12.9116 L -0.373856,12.9116 L -0.441254,12.8152 L -0.361221,12.6255 L -0.317352,12.1889 L -0.328262,11.9528
 L -0.360992,11.7504 L -0.415543,11.5817 L -0.491928,11.4467 L -0.590317,11.3433 L -0.63356,11.3168 L -0.414413,11.0039
 L -0.768799,11.0039 L -0.906631,11.2205 L -1.0191,11.2104 L -1.1273,11.2155 L -1.2245,11.2309 L -1.31067,11.2565
 L -1.38583,11.2924 L -1.45206,11.3393 L -1.4828,11.3697 L -1.71735,11.0039 L -2.06822,11.0039 L -1.90077,11.2439
 L -1.94121,11.2439 L -1.93658,11.304 L -1.93327,11.3889 L -1.93129,11.4988 L -1.93063,11.6336 L -1.93063,12.6671
 L -2.09995,12.9116 L -1.93063,12.9116 L -1.93063,13.9009 L -1.61328,13.9009 z
M -1.38202,11.5268 L -1.33707,11.5001 L -1.26836,11.4753 L -1.18939,11.4604 L -1.10019,11.4555 L -1.05882,11.4595
 L -1.24132,11.7462 z
M -1.06148,11.9278 L -0.808075,11.566 L -0.758163,11.6265 L -0.711105,11.7262 L -0.67749,11.8544 L -0.657318,12.011
 L -0.650604,12.196 L -0.657379,12.3858 L -0.670273,12.4875 z
M -1.6098,12.0921 L -1.5994,11.9763 L -1.58203,11.8731 L -1.55774,11.7826 L -1.5459,11.7525 L -1.42113,11.9313
 L -1.61295,12.2083 z
M -1.22923,12.9412 L -1.33601,12.9079 L -1.42407,12.8522 L -1.49339,12.7743 L -1.54584,12.6729 L -1.56277,12.6159
 L -1.24132,12.1288 L -0.790314,12.8169 L -0.821243,12.8547 L -0.899429,12.909 L -0.993591,12.9415 L -1.10373,12.9524
 z
M -32.3393,13.1812 L -32.2369,13.1642 L -32.1432,13.1358 L -32.0582,13.0961 L -31.98,13.0427 L -31.9067,12.9733
 L -31.8385,12.888 L -31.7752,12.7867 L -31.7646,12.7867 L -31.755,12.8788 L -31.7366,12.9579 L -31.7096,13.0238
 L -31.6738,13.0767 L -31.6277,13.1172 L -31.5695,13.1461 L -31.4994,13.1635 L -31.4173,13.1692 L -31.355,13.1675
 L -31.2934,13.1622 L -31.2325,13.1534 L -31.1722,13.141 L -31.1722,12.9436 L -31.2005,12.949 L -31.2273,12.9528
 L -31.2525,12.9551 L -31.2762,12.9559 L -31.324,12.9514 L -31.3635,12.938 L -31.3946,12.9157 L -31.4173,12.8845
 L -31.4335,12.8445 L -31.445,12.7957 L -31.452,12.7382 L -31.4543,12.672 L -31.4543,11.8504 L -31.4657,11.7036
 L -31.4997,11.5752 L -31.5565,11.4651 L -31.6359,11.3735 L -31.7378,11.3014 L -31.862,11.2499 L -32.0085,11.219
 L -32.1772,11.2087 L -32.4815,11.2408 L -32.7105,11.3374 L -32.8641,11.4983 L -32.9424,11.7235 L -32.6109,11.7535
 L -32.5964,11.6795 L -32.5721,11.6164 L -32.5382,11.5641 L -32.4945,11.5225 L -32.4388,11.4909 L -32.3685,11.4683
 L -32.2836,11.4547 L -32.1842,11.4502 L -32.0855,11.4565 L -32.0009,11.4753 L -31.9303,11.5067 L -31.8739,11.5507
 L -31.8307,11.6092 L -31.7999,11.6843 L -31.7813,11.7758 L -31.7752,11.8839 L -31.7752,11.988 L -32.2036,11.995
 L -32.4055,12.0096 L -32.5776,12.0426 L -32.7198,12.0942 L -32.8322,12.1643 L -32.9174,12.2522 L -32.9783,12.3573
 L -33.0148,12.4796 L -33.027,12.6192 L -33.0179,12.7443 L -32.9908,12.8554 L -32.9457,12.9524 L -32.8824,13.0352
 L -32.8012,13.1016 L -32.7021,13.149 L -32.5852,13.1774 L -32.4505,13.1869 z
M -32.4513,12.9436 L -32.5155,12.9277 L -32.5707,12.9013 L -32.6171,12.8642 L -32.6537,12.8175 L -32.6799,12.762
 L -32.6956,12.6976 L -32.7008,12.6244 L -32.697,12.5564 L -32.6854,12.4953 L -32.6661,12.441 L -32.6391,12.3935
 L -32.6049,12.3523 L -32.564,12.3168 L -32.5163,12.287 L -32.4619,12.263 L -32.3974,12.2443 L -32.3193,12.2304
 L -32.2277,12.2213 L -32.1225,12.2172 L -31.7752,12.2101 L -31.7752,12.367 L -31.7801,12.4397 L -31.7948,12.5114
 L -31.8193,12.5821 L -31.8536,12.6518 L -31.8965,12.7173 L -31.9464,12.7754 L -32.0036,12.8261 L -32.0679,12.8695
 L -32.1382,12.9042 L -32.2133,12.929 L -32.2933,12.9439 L -32.3782,12.9489 z
M -30.6514,12.0462 L -30.6431,11.9145 L -30.6183,11.798 L -30.577,11.6967 L -30.5192,11.6107 L -30.447,11.542
 L -30.3627,11.493 L -30.2663,11.4635 L -30.1577,11.4538 L -30.084,11.4566 L -30.0198,11.4652 L -29.965,11.4795
 L -29.9197,11.4996 L -29.8819,11.5261 L -29.8496,11.56 L -29.8229,11.6011 L -29.8016,11.6494 L -29.7854,11.7068
 L -29.7738,11.7746 L -29.7669,11.8531 L -29.7646,11.9421 L -29.7646,13.1516 L -29.4454,13.1516 L -29.4454,11.8804
 L -29.4545,11.7133 L -29.4818,11.5716 L -29.5273,11.4554 L -29.5909,11.3647 L -29.6742,11.2964 L -29.7785,11.2477
 L -29.9038,11.2184 L -30.0502,11.2087 L -30.1525,11.2138 L -30.2461,11.2292 L -30.331,11.2548 L -30.4072,11.2906
 L -30.4769,11.3389 L -30.5423,11.4015 L -30.6034,11.4786 L -30.6602,11.5701 L -30.6655,11.5701 L -30.6672,11.506
 L -30.6688,11.4531 L -30.6703,11.4113 L -30.6717,11.3806 L -30.673,11.3562 L -30.6752,11.3116 L -30.6761,11.2915
 L -30.677,11.274 L -30.6779,11.2602 L -30.6787,11.2502 L -30.6796,11.2439 L -30.9793,11.2439 L -30.9747,11.2971
 L -30.9714,11.3828 L -30.9695,11.5008 L -30.9688,11.6512 L -30.9688,13.1516 L -30.6514,13.1516 z
M -36.7875,13.1587 L -36.5659,13.074 L -36.3988,12.933 L -36.286,12.7355 L -36.5646,12.6562 L -36.5917,12.7169
 L -36.6287,12.7721 L -36.6759,12.8218 L -36.733,12.866 L -36.8003,12.9023 L -36.8778,12.9281 L -36.9655,12.9437
 L -37.0636,12.9489 L -37.1862,12.9377 L -37.2932,12.9043 L -37.3846,12.8487 L -37.4603,12.7708 L -37.5197,12.6724
 L -37.5621,12.5552 L -37.5876,12.4194 L -37.596,12.2647 L -36.2349,12.2647 L -36.2349,12.2225 L -36.2874,11.7789
 L -36.4451,11.4621 L -36.708,11.272 L -37.0759,11.2087 L -37.2695,11.2244 L -37.4393,11.2717 L -37.5855,11.3505
 L -37.708,11.4608 L -37.8048,11.6006 L -37.8739,11.768 L -37.9154,11.963 L -37.9293,12.1854 L -37.9154,12.4187
 L -37.8739,12.6214 L -37.8048,12.7934 L -37.708,12.9347 L -37.5847,13.045 L -37.4362,13.1238 L -37.2625,13.1711
 L -37.0636,13.1869 z
M -37.5925,12.0215 L -37.5795,11.8938 L -37.5509,11.7806 L -37.5067,11.6818 L -37.4471,11.5974 L -37.3736,11.53
 L -37.2881,11.4817 L -37.1907,11.4528 L -37.0812,11.4432 L -36.9691,11.4518 L -36.871,11.4778 L -36.7867,11.521
 L -36.7162,11.5816 L -36.6591,11.6609 L -36.6144,11.7607 L -36.5824,11.8809 L -36.5629,12.0215 z
M -34.581,13.1551 L -34.5814,13.0293 L -34.5827,12.9374 L -34.5849,12.8794 L -34.588,12.8554 L -34.5792,12.8554
 L -34.4853,13.0004 L -34.3553,13.104 L -34.1891,13.1662 L -33.9868,13.1869 L -33.6798,13.1245 L -33.4605,12.9374
 L -33.3289,12.6255 L -33.285,12.1889 L -33.296,11.9528 L -33.3287,11.7504 L -33.3832,11.5817 L -33.4596,11.4467
 L -33.558,11.3433 L -33.6787,11.2695 L -33.8216,11.2252 L -33.9868,11.2104 L -34.095,11.2155 L -34.1922,11.2309
 L -34.2784,11.2565 L -34.3535,11.2924 L -34.4198,11.3393 L -34.4791,11.398 L -34.5317,11.4684 L -34.5774,11.5507
 L -34.5845,11.5507 L -34.5848,11.5304 L -34.5856,11.5031 L -34.587,11.4687 L -34.5889,11.4273 L -34.591,11.3853
 L -34.5931,11.3491 L -34.595,11.3187 L -34.5968,11.2942 L -34.5985,11.2748 L -34.5999,11.26 L -34.6011,11.2497
 L -34.6021,11.2439 L -34.9089,11.2439 L -34.9043,11.304 L -34.901,11.3889 L -34.899,11.4988 L -34.8983,11.6336
 L -34.8983,13.9009 L -34.581,13.9009 z
M -34.1969,12.9412 L -34.3037,12.9079 L -34.3918,12.8522 L -34.4611,12.7743 L -34.5135,12.6729 L -34.551,12.5469
 L -34.5735,12.3961 L -34.581,12.2207 L -34.5775,12.0921 L -34.5671,11.9763 L -34.5497,11.8731 L -34.5254,11.7826
 L -34.4945,11.7039 L -34.4571,11.6364 L -34.4134,11.5801 L -34.3632,11.5348 L -34.3048,11.5001 L -34.2361,11.4753
 L -34.1571,11.4604 L -34.0679,11.4555 L -33.9586,11.4662 L -33.8651,11.4982 L -33.7876,11.5517 L -33.7259,11.6265
 L -33.6788,11.7262 L -33.6452,11.8544 L -33.625,12.011 L -33.6183,12.196 L -33.6251,12.3858 L -33.6454,12.5462
 L -33.6793,12.6772 L -33.7267,12.7787 L -33.7889,12.8547 L -33.8671,12.909 L -33.9613,12.9415 L -34.0714,12.9524
 z
M -41.5165,13.1777 L -41.3637,13.1503 L -41.2313,13.1046 L -41.1193,13.0405 L -41.0302,12.9596 L -40.9666,12.8633
 L -40.9284,12.7516 L -40.9157,12.6244 L -40.9179,12.5713 L -40.9245,12.5211 L -40.9355,12.4739 L -40.9509,12.4296
 L -40.9704,12.3881 L -40.9935,12.3492 L -41.0202,12.3127 L -41.0506,12.2789 L -41.0856,12.247 L -41.1266,12.2165
 L -41.1734,12.1875 L -41.226,12.1599 L -41.2903,12.1324 L -41.3723,12.1037 L -41.4719,12.0737 L -41.5892,12.0426
 L -41.7108,12.0118 L -41.8096,11.9844 L -41.8854,11.9606 L -41.9383,11.9404 L -41.9772,11.9209 L -42.011,11.8994
 L -42.0398,11.8759 L -42.0635,11.8504 L -42.082,11.8222 L -42.0952,11.7905 L -42.1031,11.7552 L -42.1058,11.7164
 L -42.0994,11.6545 L -42.0802,11.601 L -42.0483,11.5558 L -42.0035,11.519 L -41.9453,11.4904 L -41.873,11.47
 L -41.7867,11.4578 L -41.6861,11.4538 L -41.5941,11.458 L -41.5118,11.4707 L -41.4394,11.4919 L -41.3767,11.5216
 L -41.3245,11.5592 L -41.2835,11.6043 L -41.2536,11.6567 L -41.2348,11.7164 L -40.9492,11.6812 L -40.9824,11.567
 L -41.0327,11.4696 L -41.1001,11.3889 L -41.1846,11.325 L -41.2857,11.2764 L -41.403,11.2417 L -41.5365,11.2209
 L -41.6861,11.2139 L -41.8536,11.2225 L -41.9998,11.2481 L -42.1247,11.2908 L -42.2283,11.3506 L -42.3097,11.4267
 L -42.3678,11.5183 L -42.4027,11.6255 L -42.4143,11.7482 L -42.4102,11.8159 L -42.398,11.8782 L -42.3776,11.935
 L -42.3491,11.9862 L -42.3133,12.0329 L -42.2713,12.0759 L -42.223,12.1153 L -42.1684,12.1511 L -42.1008,12.1852
 L -42.0134,12.2196 L -41.9064,12.2543 L -41.7796,12.2894 L -41.5521,12.3494 L -41.4717,12.3738 L -41.4032,12.4014
 L -41.3465,12.432 L -41.3018,12.4658 L -41.2679,12.5037 L -41.2436,12.5468 L -41.229,12.5953 L -41.2242,12.6491
 L -41.2312,12.7185 L -41.2522,12.7787 L -41.2872,12.8296 L -41.3362,12.8713 L -41.4002,12.9037 L -41.4805,12.9268
 L -41.577,12.9407 L -41.6897,12.9453 L -41.7964,12.9409 L -41.8907,12.9275 L -41.9727,12.9052 L -42.0423,12.8739
 L -42.1004,12.8331 L -42.1477,12.782 L -42.1841,12.7207 L -42.2098,12.6491 L -42.4901,12.7038 L -42.4526,12.8199
 L -42.3982,12.9195 L -42.327,13.0028 L -42.2389,13.0696 L -42.1322,13.1209 L -42.0051,13.1576 L -41.8576,13.1795
 L -41.6897,13.1869 z
M 12.6889,11.2439 L 12.3715,11.2439 L 12.3715,13.1516 L 12.6889,13.1516 z
M -44.4345,12.3688 L -43.9214,13.1516 L -43.567,13.1516 L -44.2546,12.1678 L -43.6076,11.2439 L -43.962,11.2439
 L -44.4345,11.9862 L -44.9105,11.2439 L -45.2614,11.2439 L -44.6143,12.1713 L -45.2931,13.1516 L -44.9511,13.1516
 z
M -40.2685,11.2439 L -40.5858,11.2439 L -40.5858,13.1516 L -40.2685,13.1516 z
M 67.3003,12.7655 L 66.9565,12.7655 L 66.9565,13.1516 L 67.3003,13.1516 z
" stroke="black" fill="lightgray" stroke-width="0.5"/>
</svg>
