<?xml version="1.0" standalone="no"?>
<!DOCTYPE svg PUBLIC "-//W3C//DTD SVG 1.1//EN" "http://www.w3.org/Graphics/SVG/1.1/DTD/svg11.dtd">
<svg width="113mm" height="23mm" viewBox="-37 -4 113 23" xmlns="http://www.w3.org/2000/svg" version="1.1">
<title>OpenSCAD Model</title>
<path d="
M 32.6069,18.918 L 33.1372,18.6118 L 33.1552,18.5951 L 33.1665,18.5701 L 33.1704,18.5386 L 33.1958,18.5194
 L 33.2118,18.4971 L 33.2172,18.4732 L 33.2172,15.0031 L 33.2118,14.9792 L 33.1958,14.9569 L 33.1704,14.9378
 L 33.1665,14.9062 L 33.1552,14.8812 L 33.1372,14.8646 L 21.4198,8.09949 L 21.4198,7.85199 L 22.1098,7.85199
 L 22.1098,7.61436 L 21.4198,7.61436 L 21.4198,6.91782 L 21.1805,6.91782 L 21.1805,7.61436 L 20.5795,7.61436
 L 18.7585,6.563 L 18.642,6.42628 L 18.5217,6.42628 L 0.610321,-3.91486 L 0.586884,-3.92209 L 0.559601,-3.91939
 L 0.530319,-3.90692 L 0.501038,-3.91939 L 0.473755,-3.92209 L 0.450317,-3.91486 L -0.0799866,-3.60867 L -0.0979767,-3.592
 L -0.109268,-3.567 L -0.113129,-3.53542 L -0.13855,-3.5163 L -0.154541,-3.494 L -0.159988,-3.47011 L -0.159988,-0
 L -0.154541,0.0238953 L -0.13855,0.0461731 L -0.113129,0.0653076 L -0.109268,0.0968933 L -0.0979767,0.121887 L -0.0799866,0.13855
 L 11.0106,6.54169 L 10.9517,6.55487 L 10.8296,6.60574 L 10.722,6.67694 L 10.632,6.76534 L 10.5631,6.86777
 L 10.5152,6.98424 L 10.4884,7.11473 L 10.7879,7.14241 L 10.8047,7.05559 L 10.8341,6.97903 L 10.8759,6.91277
 L 10.9303,6.85678 L 10.995,6.81227 L 11.068,6.78047 L 11.1492,6.7614 L 11.2387,6.75505 L 11.3318,6.76155
 L 11.4141,6.78108 L 11.4667,6.80502 L 11.4989,6.82365 L 11.5463,6.85921 L 11.5947,6.91658 L 11.6293,6.98453
 L 11.6501,7.06306 L 11.657,7.15218 L 11.653,7.22032 L 11.6409,7.28481 L 11.6208,7.34563 L 11.5927,7.4028
 L 11.558,7.45752 L 11.5184,7.51103 L 11.4738,7.56332 L 11.4242,7.6144 L 11.3706,7.66484 L 11.3138,7.71529
 L 11.2538,7.76573 L 11.1907,7.81618 L 11.1258,7.86769 L 11.0607,7.92136 L 10.9952,7.97714 L 10.9295,8.03506
 L 10.8643,8.09579 L 10.8007,8.15997 L 10.7386,8.22763 L 10.678,8.29874 L 10.6205,8.37436 L 10.5676,8.45558
 L 10.5192,8.54239 L 10.4754,8.63481 L 10.4754,8.84149 L 11.9939,8.84149 L 11.9939,8.5925 L 10.7977,8.5925
 L 10.8259,8.53497 L 10.8619,8.47633 L 10.9057,8.41656 L 10.9571,8.35568 L 11.0173,8.29236 L 11.0869,8.22528
 L 11.1662,8.15443 L 11.255,8.07983 L 11.4113,7.95056 L 11.5402,7.83939 L 11.6416,7.74631 L 11.7156,7.67134
 L 11.7721,7.60542 L 11.8212,7.53951 L 11.8628,7.47359 L 11.897,7.40767 L 11.9237,7.34166 L 11.9428,7.27544
 L 11.9543,7.20903 L 11.9581,7.14241 L 11.9534,7.08606 L 14.4027,8.50014 L 14.4027,9.53317 L 14.6956,9.53317
 L 14.6956,8.84476 L 14.6952,8.72859 L 14.6944,8.66855 L 14.8675,8.76849 L 14.904,8.79755 L 14.9433,8.81226
 L 32.4469,18.918 L 32.4703,18.9252 L 32.4976,18.9225 L 32.5269,18.9101 L 32.5562,18.9225 L 32.5835,18.9252
 z
M 20.9911,7.85199 L 21.1805,7.85199 L 21.1805,7.96135 z
M 49.7128,8.86946 L 49.8,8.85573 L 49.8792,8.83286 L 49.9504,8.80081 L 50.0142,8.75819 L 50.0714,8.70357
 L 50.122,8.63695 L 50.166,8.55832 L 50.1725,8.55832 L 50.1729,8.59412 L 50.174,8.63318 L 50.1757,8.67549
 L 50.1782,8.72105 L 50.181,8.76398 L 50.1837,8.79837 L 50.1863,8.8242 L 50.1888,8.84149 L 50.4687,8.84149
 L 50.4645,8.78586 L 50.4614,8.70682 L 50.4596,8.60439 L 50.459,8.47856 L 50.459,6.42628 L 50.166,6.42628
 L 50.166,7.15704 L 50.1693,7.35396 L 50.166,7.35396 L 50.1221,7.27962 L 50.0716,7.21605 L 50.0146,7.16327
 L 49.9512,7.12126 L 49.8803,7.08922 L 49.8011,7.06633 L 49.7135,7.0526 L 49.6176,7.048 L 49.3342,7.10558
 L 49.1317,7.27831 L 49.0103,7.56616 L 48.9698,7.96916 L 48.9796,8.18256 L 49.0091,8.36707 L 49.0582,8.52271
 L 49.1269,8.64944 L 49.2164,8.7477 L 49.3281,8.81789 L 49.4618,8.86 L 49.6176,8.87404 z
M 49.5902,8.63785 L 49.5032,8.60794 L 49.4315,8.55811 L 49.3751,8.48833 L 49.3323,8.39546 L 49.3018,8.27635
 L 49.2835,8.131 L 49.2774,7.95941 L 49.2836,7.78827 L 49.302,7.64265 L 49.3328,7.52257 L 49.3759,7.42802
 L 49.4328,7.35648 L 49.5051,7.30536 L 49.5927,7.27469 L 49.6957,7.26447 L 49.8102,7.27464 L 49.9081,7.30516
 L 49.9892,7.35602 L 50.0537,7.42722 L 50.1029,7.52028 L 50.138,7.63675 L 50.159,7.77661 L 50.166,7.93988
 L 50.159,8.10942 L 50.138,8.25519 L 50.1029,8.37714 L 50.0537,8.4753 L 49.989,8.55078 L 49.9073,8.60469
 L 49.8084,8.63702 L 49.6924,8.64781 z
M 42.2934,8.2149 L 42.5082,8.03752 L 43.1039,8.84149 L 43.4473,8.84149 L 42.6954,7.83734 L 43.4098,7.08055
 L 43.0664,7.08055 L 42.2934,7.93498 L 42.2934,6.42628 L 42.0004,6.42628 L 42.0004,8.84149 L 42.2934,8.84149
 z
M -14.8255,8.86946 L -14.7382,8.85573 L -14.6591,8.83286 L -14.5879,8.80081 L -14.5241,8.75819 L -14.4669,8.70357
 L -14.4162,8.63695 L -14.3722,8.55832 L -14.3657,8.55832 L -14.3654,8.59412 L -14.3643,8.63318 L -14.3625,8.67549
 L -14.36,8.72105 L -14.3573,8.76398 L -14.3546,8.79837 L -14.352,8.8242 L -14.3495,8.84149 L -14.0695,8.84149
 L -14.0738,8.78586 L -14.0769,8.70682 L -14.0787,8.60439 L -14.0793,8.47856 L -14.0793,6.42628 L -14.3722,6.42628
 L -14.3722,7.15704 L -14.369,7.35396 L -14.3722,7.35396 L -14.4162,7.27962 L -14.4666,7.21605 L -14.5236,7.16327
 L -14.5871,7.12126 L -14.658,7.08922 L -14.7372,7.06633 L -14.8248,7.0526 L -14.9207,7.048 L -15.2041,7.10558
 L -15.4065,7.27831 L -15.528,7.56616 L -15.5685,7.96916 L -15.5586,8.18256 L -15.5292,8.36707 L -15.4801,8.52271
 L -15.4114,8.64944 L -15.3218,8.7477 L -15.2102,8.81789 L -15.0765,8.86 L -14.9207,8.87404 z
M -14.9481,8.63785 L -15.035,8.60794 L -15.1068,8.55811 L -15.1632,8.48833 L -15.2059,8.39546 L -15.2365,8.27635
 L -15.2548,8.131 L -15.2609,7.95941 L -15.2547,7.78827 L -15.2363,7.64265 L -15.2055,7.52257 L -15.1624,7.42802
 L -15.1055,7.35648 L -15.0332,7.30536 L -14.9456,7.27469 L -14.8426,7.26447 L -14.7281,7.27464 L -14.6302,7.30516
 L -14.549,7.35602 L -14.4845,7.42722 L -14.4354,7.52028 L -14.4003,7.63675 L -14.3793,7.77661 L -14.3722,7.93988
 L -14.3793,8.10942 L -14.4003,8.25519 L -14.4354,8.37714 L -14.4845,8.4753 L -14.5492,8.55078 L -14.631,8.60469
 L -14.7299,8.63702 L -14.8458,8.64781 z
M 37.0515,7.80318 L 37.0593,7.68813 L 37.0826,7.58549 L 37.1215,7.49527 L 37.176,7.41747 L 37.2434,7.3548
 L 37.321,7.31004 L 37.409,7.28319 L 37.5072,7.27423 L 37.5726,7.27689 L 37.6305,7.28482 L 37.6808,7.29803
 L 37.7236,7.31654 L 37.7599,7.3407 L 37.7908,7.37086 L 37.8161,7.40703 L 37.8359,7.44919 L 37.8509,7.50031
 L 37.8616,7.56331 L 37.868,7.63823 L 37.8701,7.72505 L 37.8701,8.84149 L 38.1647,8.84149 L 38.1647,7.66808
 L 38.1562,7.5125 L 38.1307,7.38104 L 38.0883,7.27368 L 38.0288,7.19043 L 37.9514,7.12813 L 37.8553,7.08362
 L 37.7403,7.05692 L 37.6065,7.048 L 37.5092,7.05304 L 37.4207,7.06816 L 37.3411,7.09334 L 37.2704,7.12859
 L 37.2065,7.17461 L 37.1473,7.23212 L 37.0929,7.30113 L 37.0434,7.38164 L 37.0385,7.38164 L 37.0395,7.3679
 L 37.0411,7.34299 L 37.0432,7.30687 L 37.0458,7.25957 L 37.0483,7.20708 L 37.0501,7.15541 L 37.0511,7.10455
 L 37.0515,7.05452 L 37.0515,6.42628 L 36.7585,6.42628 L 36.7585,8.84149 L 37.0515,8.84149 z
M 34.9214,6.42628 L 34.6643,6.42628 L 33.9954,8.87404 L 34.2591,8.87404 z
M 7.45602,9.35762 L 7.33351,9.1792 L 7.23184,8.99631 L 7.15103,8.80894 L 7.08943,8.61487 L 7.04544,8.41182
 L 7.01904,8.19984 L 7.01024,7.97893 L 7.01915,7.75717 L 7.04584,7.54437 L 7.09035,7.34053 L 7.15263,7.14565
 L 7.23396,6.95787 L 7.33554,6.77539 L 7.45735,6.59819 L 7.5994,6.42628 L 7.31622,6.42628 L 7.17316,6.59422
 L 7.04991,6.76765 L 6.94652,6.94658 L 6.86296,7.131 L 6.79852,7.32417 L 6.75249,7.52934 L 6.72487,7.74651
 L 6.71567,7.97568 L 6.71567,7.98219 L 6.72482,8.20998 L 6.75229,8.42627 L 6.79807,8.63109 L 6.86214,8.8244
 L 6.94545,9.00928 L 7.04889,9.18877 L 7.17249,9.36285 L 7.31622,9.53157 L 7.5994,9.53157 z
M 10.3294,6.42628 L 10.0723,6.42628 L 9.40337,8.87404 L 9.66704,8.87404 z
M -18.2665,6.42628 L -18.5595,6.42628 L -18.5595,6.70622 L -18.2665,6.70622 z
M 24.4825,8.81647 L 24.6849,8.64374 L 24.8064,8.35588 L 24.8469,7.95288 L 24.8371,7.73949 L 24.8076,7.55496
 L 24.7585,7.39934 L 24.6898,7.2726 L 24.6003,7.17435 L 24.4886,7.10416 L 24.3549,7.06204 L 24.1991,7.048
 L 24.1039,7.0526 L 24.0166,7.06633 L 23.9374,7.08922 L 23.8663,7.12126 L 23.8025,7.16388 L 23.7453,7.21849
 L 23.6946,7.28511 L 23.6507,7.36374 L 23.6441,7.36374 L 23.647,7.29446 L 23.649,7.22987 L 23.6502,7.16997
 L 23.6507,7.11473 L 23.6507,6.42628 L 23.3577,6.42628 L 23.3577,8.47856 L 23.3571,8.60439 L 23.3553,8.70682
 L 23.3522,8.78586 L 23.3479,8.84149 L 23.6311,8.84149 L 23.633,8.82791 L 23.6352,8.80345 L 23.6378,8.76811
 L 23.6409,8.72188 L 23.6437,8.67351 L 23.6458,8.63174 L 23.647,8.5966 L 23.6474,8.56805 L 23.6507,8.56805
 L 23.6953,8.64308 L 23.7461,8.70702 L 23.8031,8.75987 L 23.8663,8.80164 L 23.9368,8.83331 L 24.0158,8.85594
 L 24.1033,8.86951 L 24.1991,8.87404 z
M 24.0051,8.64726 L 23.9066,8.61629 L 23.8253,8.56467 L 23.7613,8.49239 L 23.7129,8.39845 L 23.6783,8.28183
 L 23.6576,8.14253 L 23.6507,7.98056 L 23.6577,7.80907 L 23.6789,7.6624 L 23.7143,7.54054 L 23.7638,7.44351
 L 23.8287,7.36945 L 23.9104,7.31656 L 24.009,7.28482 L 24.1243,7.27423 L 24.2265,7.28421 L 24.3135,7.31412
 L 24.3852,7.36395 L 24.4416,7.43375 L 24.4843,7.5266 L 24.5149,7.64571 L 24.5332,7.79106 L 24.5393,7.96265
 L 24.5331,8.13379 L 24.5146,8.27939 L 24.4839,8.39948 L 24.4408,8.49402 L 24.3839,8.56558 L 24.3116,8.61668
 L 24.224,8.64735 L 24.121,8.65758 z
M -22.6073,8.2149 L -22.3925,8.03752 L -21.7968,8.84149 L -21.4534,8.84149 L -22.2053,7.83734 L -21.4908,7.08055
 L -21.8343,7.08055 L -22.6073,7.93498 L -22.6073,6.42628 L -22.9003,6.42628 L -22.9003,8.84149 L -22.6073,8.84149
 z
M -15.9157,6.42628 L -16.2087,6.42628 L -16.2087,6.70622 L -15.9157,6.70622 z
M -19.7099,8.86946 L -19.6227,8.85573 L -19.5435,8.83286 L -19.4723,8.80081 L -19.4085,8.75819 L -19.3513,8.70357
 L -19.3007,8.63695 L -19.2567,8.55832 L -19.2502,8.55832 L -19.2498,8.59412 L -19.2487,8.63318 L -19.247,8.67549
 L -19.2445,8.72105 L -19.2417,8.76398 L -19.239,8.79837 L -19.2364,8.8242 L -19.2339,8.84149 L -18.9539,8.84149
 L -18.9582,8.78586 L -18.9613,8.70682 L -18.9631,8.60439 L -18.9637,8.47856 L -18.9637,6.42628 L -19.2567,6.42628
 L -19.2567,7.15704 L -19.2534,7.35396 L -19.2567,7.35396 L -19.3006,7.27962 L -19.3511,7.21605 L -19.408,7.16327
 L -19.4715,7.12126 L -19.5424,7.08922 L -19.6216,7.06633 L -19.7092,7.0526 L -19.8051,7.048 L -20.0885,7.10558
 L -20.2909,7.27831 L -20.4124,7.56616 L -20.4529,7.96916 L -20.4431,8.18256 L -20.4136,8.36707 L -20.3645,8.52271
 L -20.2958,8.64944 L -20.2063,8.7477 L -20.0946,8.81789 L -19.9609,8.86 L -19.8051,8.87404 z
M -19.8325,8.63785 L -19.9195,8.60794 L -19.9912,8.55811 L -20.0476,8.48833 L -20.0904,8.39546 L -20.1209,8.27635
 L -20.1392,8.131 L -20.1453,7.95941 L -20.1391,7.78827 L -20.1207,7.64265 L -20.0899,7.52257 L -20.0468,7.42802
 L -19.9899,7.35648 L -19.9176,7.30536 L -19.83,7.27469 L -19.727,7.26447 L -19.6125,7.27464 L -19.5146,7.30516
 L -19.4335,7.35602 L -19.369,7.42722 L -19.3198,7.52028 L -19.2847,7.63675 L -19.2637,7.77661 L -19.2567,7.93988
 L -19.2637,8.10942 L -19.2847,8.25519 L -19.3198,8.37714 L -19.369,8.4753 L -19.4337,8.55078 L -19.5154,8.60469
 L -19.6143,8.63702 L -19.7303,8.64781 z
M 2.51436,8.5925 L 1.31816,8.5925 L 1.34644,8.53497 L 1.38243,8.47633 L 1.42618,8.41656 L 1.47763,8.35568
 L 1.53775,8.29236 L 1.60742,8.22528 L 1.68668,8.15443 L 1.77548,8.07983 L 1.93182,7.95056 L 2.0607,7.83939
 L 2.16211,7.74631 L 2.23607,7.67134 L 2.29257,7.60542 L 2.34164,7.53951 L 2.3833,7.47359 L 2.41753,7.40767
 L 2.44423,7.34166 L 2.4633,7.27544 L 2.47475,7.20903 L 2.47856,7.14241 L 2.4669,7.00044 L 2.43196,6.87569
 L 2.37373,6.76811 L 2.29219,6.67773 L 2.18901,6.60619 L 2.06578,6.55507 L 1.92252,6.5244 L 1.7592,6.51418
 L 1.60851,6.52435 L 1.47215,6.55487 L 1.35013,6.60574 L 1.24246,6.67694 L 1.1525,6.76534 L 1.08357,6.86777
 L 1.03572,6.98424 L 1.00891,7.11473 L 1.3084,7.14241 L 1.32521,7.05559 L 1.35455,6.97903 L 1.39641,6.91277
 L 1.45078,6.85678 L 1.51552,6.81227 L 1.58852,6.78047 L 1.66974,6.7614 L 1.7592,6.75505 L 1.85228,6.76155
 L 1.93456,6.78108 L 2.00607,6.81363 L 2.06679,6.85921 L 2.11522,6.91658 L 2.14981,6.98453 L 2.17056,7.06306
 L 2.17747,7.15218 L 2.17346,7.22032 L 2.16141,7.28481 L 2.14131,7.34563 L 2.11317,7.4028 L 2.07854,7.45752
 L 2.03893,7.51103 L 1.99431,7.56332 L 1.94473,7.6144 L 1.89107,7.66484 L 1.83426,7.71529 L 1.77429,7.76573
 L 1.71118,7.81618 L 1.64633,7.86769 L 1.58119,7.92136 L 1.51573,7.97714 L 1.44997,8.03506 L 1.38483,8.09579
 L 1.3212,8.15997 L 1.25909,8.22763 L 1.19852,8.29874 L 1.14099,8.37436 L 1.08806,8.45558 L 1.03969,8.54239
 L 0.995911,8.63481 L 0.995911,8.84149 L 2.51436,8.84149 z
M -7.15814,8.86092 L -7.01289,8.82155 L -6.88635,8.75595 L -6.77853,8.66411 L -6.69238,8.54958 L -6.63084,8.41591
 L -6.59392,8.26312 L -6.58162,8.0912 L -6.59326,7.93213 L -6.6282,7.79015 L -6.68645,7.66524 L -6.76797,7.55742
 L -6.86934,7.47055 L -6.98706,7.40849 L -7.12117,7.37126 L -7.27167,7.35886 L -7.36261,7.36369 L -7.44826,7.37819
 L -7.52861,7.40234 L -7.60368,7.43616 L -7.67203,7.47925 L -7.73225,7.53117 L -7.78433,7.59195 L -7.82828,7.66158
 L -7.81967,7.45331 L -7.7939,7.27118 L -7.75092,7.11519 L -7.69075,6.98535 L -7.61493,6.88318 L -7.52495,6.8102
 L -7.42085,6.7664 L -7.3026,6.7518 L -7.16975,6.7693 L -7.06253,6.82178 L -6.98096,6.90926 L -6.925,7.03172
 L -6.64507,6.98126 L -6.73662,6.77692 L -6.87619,6.63095 L -7.06375,6.54337 L -7.29933,6.51418 L -7.48497,6.53412
 L -7.64803,6.59393 L -7.7885,6.69362 L -7.90639,6.83319 L -7.99966,7.00998 L -8.06628,7.22134 L -8.10626,7.46729
 L -8.11958,7.74783 L -8.10677,8.00648 L -8.06831,8.23241 L -8.00424,8.42558 L -7.91454,8.58598 L -7.80061,8.71201
 L -7.66389,8.80202 L -7.50439,8.85603 L -7.32211,8.87404 z
M -7.42979,8.62747 L -7.51845,8.59573 L -7.59784,8.54285 L -7.66797,8.4688 L -7.72528,8.37816 L -7.76622,8.27553
 L -7.79079,8.16089 L -7.79897,8.03426 L -7.79109,7.93494 L -7.76744,7.84689 L -7.72803,7.77016 L -7.67285,7.7047
 L -7.60484,7.65237 L -7.52698,7.61499 L -7.43924,7.59256 L -7.34164,7.58508 L -7.2386,7.59352 L -7.14757,7.61885
 L -7.06853,7.66107 L -7.0015,7.72018 L -6.94809,7.79483 L -6.90994,7.88373 L -6.88705,7.98688 L -6.87943,8.10423
 L -6.88696,8.22208 L -6.90955,8.32658 L -6.94719,8.41779 L -6.99989,8.49565 L -7.0658,8.55795 L -7.1431,8.60245
 L -7.2318,8.62915 L -7.33188,8.63805 z
M 57.2689,8.85512 L 57.4305,8.79836 L 57.5679,8.70377 L 57.6813,8.57132 L 57.7699,8.40298 L 57.8333,8.20067
 L 57.8713,7.96439 L 57.8839,7.69412 L 57.8719,7.41988 L 57.8357,7.18146 L 57.7754,6.97884 L 57.6911,6.81203
 L 57.5814,6.68172 L 57.4451,6.58864 L 57.2823,6.53279 L 57.093,6.51418 L 56.8987,6.53259 L 56.7323,6.58783
 L 56.5939,6.67989 L 56.4835,6.80876 L 56.3991,6.97456 L 56.3388,7.17738 L 56.3027,7.41724 L 56.2906,7.69412
 L 56.303,7.96571 L 56.3403,8.2027 L 56.4023,8.40512 L 56.4892,8.57295 L 56.6008,8.70468 L 56.737,8.79877
 L 56.8978,8.85522 L 57.0832,8.87404 z
M 56.9651,8.62067 L 56.8613,8.57825 L 56.7751,8.50755 L 56.7064,8.40858 L 56.6541,8.2791 L 56.6167,8.11685
 L 56.5943,7.92186 L 56.5868,7.69412 L 56.5942,7.46037 L 56.6163,7.26202 L 56.6532,7.09908 L 56.7048,6.97153
 L 56.7733,6.8754 L 56.8609,6.80673 L 56.9674,6.76553 L 57.093,6.7518 L 57.2155,6.76573 L 57.3194,6.80754
 L 57.4047,6.87721 L 57.4714,6.97476 L 57.5216,7.10333 L 57.5574,7.26608 L 57.5789,7.46301 L 57.5861,7.69412
 L 57.5786,7.91789 L 57.556,8.11075 L 57.5184,8.27269 L 57.4657,8.4037 L 57.3968,8.50481 L 57.3107,8.57703
 L 57.2072,8.62036 L 57.0865,8.63481 z
M -8.66541,8.32233 L -8.34315,8.32233 L -8.34315,8.0912 L -8.66541,8.0912 L -8.66541,6.54836 L -8.97302,6.54836
 L -10.0228,8.09447 L -10.0228,8.32233 L -8.94208,8.32233 L -8.94208,8.84149 L -8.66541,8.84149 z
M -9.75258,8.0912 L -9.72655,8.05865 L -9.63866,7.93825 L -9.05113,7.07242 L -9.03923,7.05411 L -9.02467,7.03009
 L -9.00749,7.0004 L -8.98766,6.965 L -8.96893,6.93092 L -8.95511,6.90518 L -8.94615,6.88779 L -8.94208,6.87874
 L -8.94208,8.0912 z
M 4.89008,6.54836 L 4.59064,6.54836 L 4.62482,7.26933 L 4.85428,7.26933 z
M -36.1114,7.9122 L -34.8322,7.9122 L -34.8322,7.65508 L -36.1114,7.65508 L -36.1114,6.80225 L -34.7931,6.80225
 L -34.7931,6.54836 L -36.4222,6.54836 L -36.4222,8.84149 L -36.1114,8.84149 z
M 5.49063,6.54836 L 5.19119,6.54836 L 5.22372,7.26933 L 5.45483,7.26933 z
M 56.041,8.5925 L 55.4828,8.5925 L 55.4828,6.54836 L 55.2126,6.54836 L 54.6707,6.92105 L 54.6707,7.19772
 L 55.1882,6.82829 L 55.1882,8.5925 L 54.6039,8.5925 L 54.6039,8.84149 L 56.041,8.84149 z
M 3.71945,8.86102 L 3.87941,8.82196 L 4.01851,8.75685 L 4.13675,8.66571 L 4.23111,8.5519 L 4.29851,8.41875
 L 4.33894,8.26627 L 4.35242,8.09447 L 4.33986,7.94252 L 4.30217,7.8056 L 4.23936,7.68375 L 4.15141,7.57695
 L 4.04233,7.49008 L 3.91605,7.42804 L 3.77257,7.39081 L 3.61189,7.3784 L 3.4761,7.38754 L 3.35191,7.41501
 L 3.2393,7.46078 L 3.13829,7.52487 L 3.18222,6.79735 L 4.21896,6.79735 L 4.21896,6.54836 L 2.91533,6.54836
 L 2.83884,7.782 L 3.12527,7.782 L 3.17654,7.74049 L 3.2278,7.70551 L 3.27907,7.67703 L 3.33034,7.65508
 L 3.38263,7.63869 L 3.43695,7.62698 L 3.4933,7.61996 L 3.55168,7.61763 L 3.65976,7.62598 L 3.75613,7.651
 L 3.84082,7.6927 L 3.9138,7.7511 L 3.97255,7.823 L 4.01451,7.90529 L 4.03969,7.99796 L 4.04808,8.10097
 L 4.03973,8.21883 L 4.01471,8.32335 L 3.97301,8.41454 L 3.91461,8.49242 L 3.84148,8.5547 L 3.75552,8.59921
 L 3.65675,8.6259 L 3.54518,8.63481 L 3.37134,8.61354 L 3.23392,8.54976 L 3.13292,8.44347 L 3.06833,8.29465
 L 2.77211,8.32883 L 2.80721,8.45363 L 2.86041,8.56277 L 2.9317,8.65625 L 3.02112,8.73407 L 3.1273,8.7953
 L 3.24896,8.83905 L 3.38608,8.8653 L 3.53865,8.87404 z
M -5.43687,6.54836 L -5.73633,6.54836 L -5.70378,7.26933 L -5.47269,7.26933 z
M -6.03743,6.54836 L -6.33687,6.54836 L -6.3027,7.26933 L -6.07323,7.26933 z
M 9.28395,8.5925 L 8.72574,8.5925 L 8.72574,6.54836 L 8.45557,6.54836 L 7.9136,6.92105 L 7.9136,7.19772
 L 8.43114,6.82829 L 8.43114,8.5925 L 7.84688,8.5925 L 7.84688,8.84149 L 9.28395,8.84149 z
M -0.452667,8.32233 L -0.130432,8.32233 L -0.130432,8.0912 L -0.452667,8.0912 L -0.452667,6.54836 L -0.760284,6.54836
 L -1.81001,8.09447 L -1.81001,8.32233 L -0.72934,8.32233 L -0.72934,8.84149 L -0.452667,8.84149 z
M -1.53986,8.0912 L -1.51381,8.05865 L -1.42592,7.93825 L -0.838394,7.07242 L -0.826492,7.05411 L -0.811951,7.03009
 L -0.794754,7.0004 L -0.774918,6.965 L -0.75621,6.93092 L -0.742371,6.90518 L -0.733414,6.88779 L -0.72934,6.87874
 L -0.72934,8.0912 z
M -31.2074,8.5925 L -31.7657,8.5925 L -31.7657,6.54836 L -32.0358,6.54836 L -32.5778,6.92105 L -32.5778,7.19772
 L -32.0603,6.82829 L -32.0603,8.5925 L -32.6445,8.5925 L -32.6445,8.84149 L -31.2074,8.84149 z
M 52.6367,7.85199 L 53.3268,7.85199 L 53.3268,7.61436 L 52.6367,7.61436 L 52.6367,6.91782 L 52.3974,6.91782
 L 52.3974,7.61436 L 51.7074,7.61436 L 51.7074,7.85199 L 52.3974,7.85199 L 52.3974,8.54855 L 52.6367,8.54855
 z
M -12.7025,8.84799 L -12.498,8.76988 L -12.3437,8.63968 L -12.2396,8.4574 L -12.4967,8.38417 L -12.5217,8.44022
 L -12.556,8.49118 L -12.5995,8.53705 L -12.6522,8.57785 L -12.7143,8.61131 L -12.7858,8.63522 L -12.8669,8.64957
 L -12.9573,8.65434 L -13.0706,8.64407 L -13.1693,8.61325 L -13.2537,8.56187 L -13.3235,8.48996 L -13.3784,8.39912
 L -13.4175,8.29099 L -13.441,8.16556 L -13.4489,8.02286 L -12.1924,8.02286 L -12.1924,7.98383 L -12.2409,7.5744
 L -12.3865,7.28197 L -12.6291,7.10651 L -12.9687,7.048 L -13.1474,7.06256 L -13.3042,7.1062 L -13.4391,7.17892
 L -13.5522,7.28075 L -13.6416,7.40982 L -13.7054,7.56433 L -13.7437,7.74428 L -13.7564,7.94965 L -13.7437,8.16496
 L -13.7054,8.35202 L -13.6416,8.5108 L -13.5522,8.64131 L -13.4384,8.74313 L -13.3013,8.81586 L -13.141,8.8595
 L -12.9573,8.87404 z
M -13.4456,7.79828 L -13.4335,7.68044 L -13.4071,7.57593 L -13.3664,7.48474 L -13.3113,7.40689 L -13.2435,7.34457
 L -13.1646,7.30006 L -13.0747,7.27336 L -12.9736,7.26447 L -12.8702,7.27245 L -12.7795,7.2964 L -12.7017,7.33633
 L -12.6367,7.39223 L -12.5839,7.4655 L -12.5427,7.55762 L -12.5131,7.66853 L -12.4951,7.79828 z
M -25.6439,8.85989 L -25.4847,8.81747 L -25.3485,8.74678 L -25.2353,8.64781 L -25.1463,8.51996 L -25.0827,8.36259
 L -25.0446,8.17575 L -25.0319,7.95941 L -25.0438,7.74117 L -25.0795,7.55354 L -25.139,7.39655 L -25.2223,7.27016
 L -25.3308,7.17297 L -25.466,7.10355 L -25.6279,7.06189 L -25.8163,7.048 L -26.1617,7.10498 L -26.4083,7.27586
 L -26.5563,7.56067 L -26.6057,7.95941 L -26.5934,8.16847 L -26.5564,8.35141 L -26.4949,8.50821 L -26.4087,8.63885
 L -26.2985,8.74174 L -26.1646,8.81525 L -26.0071,8.85934 L -25.8261,8.87404 z
M -25.9425,8.64665 L -26.0395,8.61385 L -26.1203,8.55916 L -26.185,8.48262 L -26.2345,8.38431 L -26.2698,8.26433
 L -26.291,8.1227 L -26.2981,7.95941 L -26.2909,7.79224 L -26.2694,7.64876 L -26.2335,7.52899 L -26.1833,7.43292
 L -26.1171,7.35922 L -26.033,7.30658 L -25.9311,7.27499 L -25.8114,7.26447 L -25.6929,7.2748 L -25.5928,7.30577
 L -25.511,7.35739 L -25.4477,7.42966 L -25.4004,7.52472 L -25.3665,7.6447 L -25.3462,7.7896 L -25.3395,7.95941
 L -25.3465,8.12733 L -25.3678,8.27147 L -25.4031,8.3918 L -25.4526,8.48833 L -25.5186,8.56238 L -25.6033,8.61526
 L -25.7069,8.647 L -25.8294,8.65758 z
M -28.032,7.82108 L -28.0243,7.69951 L -28.0014,7.592 L -27.9633,7.49852 L -27.9099,7.41908 L -27.8433,7.35571
 L -27.7654,7.31044 L -27.6765,7.28329 L -27.5763,7.27423 L -27.5082,7.27689 L -27.4489,7.28482 L -27.3984,7.29803
 L -27.3566,7.31654 L -27.3217,7.34106 L -27.2919,7.37228 L -27.2671,7.41023 L -27.2475,7.45488 L -27.2326,7.50778
 L -27.2219,7.57043 L -27.2155,7.64287 L -27.2133,7.72505 L -27.2133,8.84149 L -26.9188,8.84149 L -26.9188,7.66808
 L -26.9272,7.51382 L -26.9523,7.38306 L -26.9943,7.2758 L -27.053,7.19203 L -27.1299,7.12903 L -27.2262,7.08401
 L -27.3418,7.05701 L -27.477,7.048 L -27.5714,7.05273 L -27.6578,7.06693 L -27.7362,7.09058 L -27.8066,7.12369
 L -27.8709,7.16818 L -27.9313,7.22601 L -27.9877,7.29716 L -28.0401,7.38164 L -28.045,7.38164 L -28.0466,7.32249
 L -28.048,7.27362 L -28.0494,7.23502 L -28.0507,7.2067 L -28.0529,7.16295 L -28.0547,7.1245 L -28.0556,7.10832
 L -28.0564,7.09561 L -28.0572,7.08635 L -28.058,7.08055 L -28.3347,7.08055 L -28.3304,7.12968 L -28.3273,7.20872
 L -28.3255,7.31767 L -28.3249,7.45651 L -28.3249,8.84149 L -28.032,8.84149 z
M 64.41,8.84799 L 64.6145,8.76988 L 64.7688,8.63968 L 64.8729,8.4574 L 64.6157,8.38417 L 64.5908,8.44022
 L 64.5565,8.49118 L 64.513,8.53705 L 64.4603,8.57785 L 64.3982,8.61131 L 64.3266,8.63522 L 64.2456,8.64957
 L 64.1552,8.65434 L 64.0419,8.64407 L 63.9432,8.61325 L 63.8588,8.56187 L 63.7889,8.48996 L 63.7341,8.39912
 L 63.695,8.29099 L 63.6715,8.16556 L 63.6636,8.02286 L 64.9201,8.02286 L 64.9201,7.98383 L 64.8716,7.5744
 L 64.726,7.28197 L 64.4834,7.10651 L 64.1438,7.048 L 63.9651,7.06256 L 63.8083,7.1062 L 63.6734,7.17892
 L 63.5603,7.28075 L 63.4709,7.40982 L 63.4071,7.56433 L 63.3688,7.74428 L 63.356,7.94965 L 63.3688,8.16496
 L 63.4071,8.35202 L 63.4709,8.5108 L 63.5603,8.64131 L 63.6741,8.74313 L 63.8111,8.81586 L 63.9715,8.8595
 L 64.1552,8.87404 z
M 63.6669,7.79828 L 63.679,7.68044 L 63.7054,7.57593 L 63.7461,7.48474 L 63.8011,7.40689 L 63.869,7.34457
 L 63.9478,7.30006 L 64.0378,7.27336 L 64.1389,7.26447 L 64.2423,7.27245 L 64.3329,7.2964 L 64.4108,7.33633
 L 64.4757,7.39223 L 64.5285,7.4655 L 64.5697,7.55762 L 64.5993,7.66853 L 64.6173,7.79828 z
M 61.5367,8.86458 L 61.6583,8.8362 L 61.7678,8.78891 L 61.865,8.72269 L 61.9469,8.64059 L 62.0103,8.54568
 L 62.0551,8.43797 L 62.0815,8.31743 L 61.7853,8.29791 L 61.7681,8.3801 L 61.7407,8.4509 L 61.7034,8.5103
 L 61.6559,8.55832 L 61.6002,8.59534 L 61.5381,8.62178 L 61.4696,8.63765 L 61.3947,8.64294 L 61.2902,8.63237
 L 61.1998,8.60063 L 61.1234,8.54774 L 61.061,8.47369 L 61.0126,8.37767 L 60.978,8.25885 L 60.9573,8.11725
 L 60.9504,7.95288 L 60.9569,7.78302 L 60.9764,7.6396 L 61.009,7.52263 L 61.0545,7.43211 L 61.1147,7.36446
 L 61.1908,7.31613 L 61.2831,7.28714 L 61.3914,7.27748 L 61.472,7.28287 L 61.5428,7.29904 L 61.6038,7.32599
 L 61.6551,7.36374 L 61.6971,7.41063 L 61.7304,7.46504 L 61.7549,7.52699 L 61.7706,7.59647 L 62.0717,7.57368
 L 62.0407,7.45741 L 61.993,7.35437 L 61.9288,7.26457 L 61.8479,7.18797 L 61.7531,7.12674 L 61.6468,7.08301
 L 61.5289,7.05676 L 61.3996,7.048 L 61.2279,7.06261 L 61.0773,7.1064 L 60.948,7.17938 L 60.8397,7.28156
 L 60.7543,7.4115 L 60.6933,7.56779 L 60.6566,7.75043 L 60.6444,7.95941 L 60.6566,8.1698 L 60.693,8.35344
 L 60.7538,8.51035 L 60.8389,8.64049 L 60.9471,8.74266 L 61.0771,8.81564 L 61.229,8.85944 L 61.4028,8.87404
 z
M 27.2779,7.82108 L 27.2856,7.69951 L 27.3085,7.592 L 27.3466,7.49852 L 27.4,7.41908 L 27.4666,7.35571
 L 27.5444,7.31044 L 27.6334,7.28329 L 27.7336,7.27423 L 27.8017,7.27689 L 27.861,7.28482 L 27.9115,7.29803
 L 27.9533,7.31654 L 27.9882,7.34106 L 28.018,7.37228 L 28.0428,7.41023 L 28.0624,7.45488 L 28.0773,7.50778
 L 28.088,7.57043 L 28.0944,7.64287 L 28.0966,7.72505 L 28.0966,8.84149 L 28.3911,8.84149 L 28.3911,7.66808
 L 28.3827,7.51382 L 28.3576,7.38306 L 28.3156,7.2758 L 28.2569,7.19203 L 28.18,7.12903 L 28.0837,7.08401
 L 27.968,7.05701 L 27.8329,7.048 L 27.7385,7.05273 L 27.6521,7.06693 L 27.5737,7.09058 L 27.5033,7.12369
 L 27.439,7.16818 L 27.3786,7.22601 L 27.3222,7.29716 L 27.2698,7.38164 L 27.2649,7.38164 L 27.2633,7.32249
 L 27.2619,7.27362 L 27.2605,7.23502 L 27.2592,7.2067 L 27.257,7.16295 L 27.2551,7.1245 L 27.2543,7.10832
 L 27.2535,7.09561 L 27.2527,7.08635 L 27.2519,7.08055 L 26.9752,7.08055 L 26.9795,7.12968 L 26.9825,7.20872
 L 26.9844,7.31767 L 26.985,7.45651 L 26.985,8.84149 L 27.2779,8.84149 z
M 48.2699,7.9236 L 48.2759,7.78561 L 48.2939,7.66463 L 48.3239,7.56062 L 48.3659,7.4736 L 48.4193,7.40489
 L 48.4835,7.3558 L 48.5585,7.32637 L 48.6442,7.31654 L 48.6906,7.31757 L 48.7321,7.32062 L 48.7687,7.3257
 L 48.8005,7.33282 L 48.8005,7.06429 L 48.7705,7.05716 L 48.7406,7.05208 L 48.711,7.04903 L 48.6816,7.048
 L 48.6033,7.05319 L 48.5343,7.06876 L 48.4747,7.0947 L 48.4245,7.131 L 48.3802,7.18146 L 48.3386,7.2498
 L 48.2997,7.33606 L 48.2634,7.44022 L 48.2569,7.44022 L 48.2561,7.39516 L 48.2536,7.32019 L 48.2496,7.21533
 L 48.2439,7.08055 L 47.9672,7.08055 L 47.9715,7.19041 L 47.9745,7.29538 L 47.9763,7.39548 L 47.9769,7.49069
 L 47.9769,8.84149 L 48.2699,8.84149 z
M 73.0932,8.84799 L 73.2977,8.76988 L 73.452,8.63968 L 73.5561,8.4574 L 73.2989,8.38417 L 73.274,8.44022
 L 73.2397,8.49118 L 73.1962,8.53705 L 73.1435,8.57785 L 73.0814,8.61131 L 73.0098,8.63522 L 72.9288,8.64957
 L 72.8383,8.65434 L 72.7251,8.64407 L 72.6264,8.61325 L 72.542,8.56187 L 72.4721,8.48996 L 72.4173,8.39912
 L 72.3782,8.29099 L 72.3547,8.16556 L 72.3468,8.02286 L 73.6033,8.02286 L 73.6033,7.98383 L 73.5547,7.5744
 L 73.4092,7.28197 L 73.1666,7.10651 L 72.827,7.048 L 72.6483,7.06256 L 72.4915,7.1062 L 72.3566,7.17892
 L 72.2435,7.28075 L 72.1541,7.40982 L 72.0903,7.56433 L 72.052,7.74428 L 72.0392,7.94965 L 72.052,8.16496
 L 72.0903,8.35202 L 72.1541,8.5108 L 72.2435,8.64131 L 72.3573,8.74313 L 72.4943,8.81586 L 72.6547,8.8595
 L 72.8383,8.87404 z
M 72.3501,7.79828 L 72.3622,7.68044 L 72.3885,7.57593 L 72.4293,7.48474 L 72.4843,7.40689 L 72.5522,7.34457
 L 72.631,7.30006 L 72.721,7.27336 L 72.8221,7.26447 L 72.9255,7.27245 L 73.0161,7.2964 L 73.0939,7.33633
 L 73.1589,7.39223 L 73.2117,7.4655 L 73.2529,7.55762 L 73.2825,7.66853 L 73.3005,7.79828 z
M -23.8335,8.85989 L -23.6743,8.81747 L -23.5381,8.74678 L -23.4249,8.64781 L -23.3359,8.51996 L -23.2723,8.36259
 L -23.2342,8.17575 L -23.2215,7.95941 L -23.2334,7.74117 L -23.2691,7.55354 L -23.3286,7.39655 L -23.4119,7.27016
 L -23.5204,7.17297 L -23.6556,7.10355 L -23.8175,7.06189 L -24.0059,7.048 L -24.3513,7.10498 L -24.5979,7.27586
 L -24.7459,7.56067 L -24.7953,7.95941 L -24.783,8.16847 L -24.746,8.35141 L -24.6845,8.50821 L -24.5984,8.63885
 L -24.4881,8.74174 L -24.3542,8.81525 L -24.1968,8.85934 L -24.0157,8.87404 z
M -24.1321,8.64665 L -24.2291,8.61385 L -24.3099,8.55916 L -24.3746,8.48262 L -24.4241,8.38431 L -24.4594,8.26433
 L -24.4806,8.1227 L -24.4877,7.95941 L -24.4805,7.79224 L -24.459,7.64876 L -24.4232,7.52899 L -24.373,7.43292
 L -24.3067,7.35922 L -24.2226,7.30658 L -24.1207,7.27499 L -24.0011,7.26447 L -23.8825,7.2748 L -23.7824,7.30577
 L -23.7006,7.35739 L -23.6373,7.42966 L -23.59,7.52472 L -23.5562,7.6447 L -23.5359,7.7896 L -23.5291,7.95941
 L -23.5362,8.12733 L -23.5574,8.27147 L -23.5927,8.3918 L -23.6422,8.48833 L -23.7082,8.56238 L -23.793,8.61526
 L -23.8965,8.647 L -24.019,8.65758 z
M 69.6552,8.84799 L 69.8597,8.76988 L 70.014,8.63968 L 70.1181,8.4574 L 69.8609,8.38417 L 69.836,8.44022
 L 69.8017,8.49118 L 69.7582,8.53705 L 69.7055,8.57785 L 69.6434,8.61131 L 69.5718,8.63522 L 69.4908,8.64957
 L 69.4003,8.65434 L 69.2871,8.64407 L 69.1884,8.61325 L 69.104,8.56187 L 69.0341,8.48996 L 68.9793,8.39912
 L 68.9402,8.29099 L 68.9167,8.16556 L 68.9088,8.02286 L 70.1653,8.02286 L 70.1653,7.98383 L 70.1168,7.5744
 L 69.9712,7.28197 L 69.7286,7.10651 L 69.3889,7.048 L 69.2103,7.06256 L 69.0535,7.1062 L 68.9185,7.17892
 L 68.8055,7.28075 L 68.7161,7.40982 L 68.6523,7.56433 L 68.614,7.74428 L 68.6012,7.94965 L 68.614,8.16496
 L 68.6523,8.35202 L 68.7161,8.5108 L 68.8055,8.64131 L 68.9193,8.74313 L 69.0563,8.81586 L 69.2167,8.8595
 L 69.4003,8.87404 z
M 68.9121,7.79828 L 68.9241,7.68044 L 68.9505,7.57593 L 68.9913,7.48474 L 69.0464,7.40689 L 69.1142,7.34457
 L 69.193,7.30006 L 69.283,7.27336 L 69.3841,7.26447 L 69.4875,7.27245 L 69.5781,7.2964 L 69.6559,7.33633
 L 69.7209,7.39223 L 69.7737,7.4655 L 69.8149,7.55762 L 69.8445,7.66853 L 69.8625,7.79828 z
M 31.5701,8.84799 L 31.7747,8.76988 L 31.929,8.63968 L 32.0331,8.4574 L 31.7759,8.38417 L 31.7509,8.44022
 L 31.7167,8.49118 L 31.6732,8.53705 L 31.6205,8.57785 L 31.5584,8.61131 L 31.4868,8.63522 L 31.4058,8.64957
 L 31.3154,8.65434 L 31.2021,8.64407 L 31.1033,8.61325 L 31.019,8.56187 L 30.9491,8.48996 L 30.8943,8.39912
 L 30.8551,8.29099 L 30.8317,8.16556 L 30.8238,8.02286 L 32.0803,8.02286 L 32.0803,7.98383 L 32.0318,7.5744
 L 31.8862,7.28197 L 31.6436,7.10651 L 31.304,7.048 L 31.1253,7.06256 L 30.9685,7.1062 L 30.8336,7.17892
 L 30.7205,7.28075 L 30.6311,7.40982 L 30.5673,7.56433 L 30.529,7.74428 L 30.5163,7.94965 L 30.529,8.16496
 L 30.5673,8.35202 L 30.6311,8.5108 L 30.7205,8.64131 L 30.8343,8.74313 L 30.9713,8.81586 L 31.1317,8.8595
 L 31.3154,8.87404 z
M 30.8271,7.79828 L 30.8391,7.68044 L 30.8655,7.57593 L 30.9063,7.48474 L 30.9613,7.40689 L 31.0291,7.34457
 L 31.108,7.30006 L 31.198,7.27336 L 31.2991,7.26447 L 31.4025,7.27245 L 31.4931,7.2964 L 31.571,7.33633
 L 31.6359,7.39223 L 31.6887,7.4655 L 31.7299,7.55762 L 31.7595,7.66853 L 31.7775,7.79828 z
M 45.3417,8.86458 L 45.4634,8.8362 L 45.5728,8.78891 L 45.6701,8.72269 L 45.7519,8.64059 L 45.8153,8.54568
 L 45.8602,8.43797 L 45.8865,8.31743 L 45.5903,8.29791 L 45.5731,8.3801 L 45.5458,8.4509 L 45.5084,8.5103
 L 45.4609,8.55832 L 45.4052,8.59534 L 45.3431,8.62178 L 45.2746,8.63765 L 45.1997,8.64294 L 45.0952,8.63237
 L 45.0048,8.60063 L 44.9284,8.54774 L 44.8661,8.47369 L 44.8176,8.37767 L 44.7831,8.25885 L 44.7623,8.11725
 L 44.7554,7.95288 L 44.7619,7.78302 L 44.7814,7.6396 L 44.814,7.52263 L 44.8596,7.43211 L 44.9197,7.36446
 L 44.9959,7.31613 L 45.0881,7.28714 L 45.1965,7.27748 L 45.277,7.28287 L 45.3478,7.29904 L 45.4088,7.32599
 L 45.4601,7.36374 L 45.5021,7.41063 L 45.5354,7.46504 L 45.5599,7.52699 L 45.5757,7.59647 L 45.8767,7.57368
 L 45.8457,7.45741 L 45.798,7.35437 L 45.7338,7.26457 L 45.653,7.18797 L 45.5581,7.12674 L 45.4518,7.08301
 L 45.3339,7.05676 L 45.2046,7.048 L 45.0329,7.06261 L 44.8824,7.1064 L 44.753,7.17938 L 44.6447,7.28156
 L 44.5593,7.4115 L 44.4983,7.56779 L 44.4616,7.75043 L 44.4494,7.95941 L 44.4616,8.1698 L 44.4981,8.35344
 L 44.5588,8.51035 L 44.6439,8.64049 L 44.7521,8.74266 L 44.8821,8.81564 L 45.0341,8.85944 L 45.2078,8.87404
 z
M 39.4395,8.85989 L 39.5987,8.81747 L 39.7349,8.74678 L 39.8481,8.64781 L 39.9371,8.51996 L 40.0007,8.36259
 L 40.0389,8.17575 L 40.0516,7.95941 L 40.0397,7.74117 L 40.004,7.55354 L 39.9445,7.39655 L 39.8611,7.27016
 L 39.7526,7.17297 L 39.6174,7.10355 L 39.4556,7.06189 L 39.2671,7.048 L 38.9218,7.10498 L 38.6751,7.27586
 L 38.5271,7.56067 L 38.4778,7.95941 L 38.4901,8.16847 L 38.527,8.35141 L 38.5885,8.50821 L 38.6747,8.63885
 L 38.785,8.74174 L 38.9188,8.81525 L 39.0763,8.85934 L 39.2574,8.87404 z
M 39.1409,8.64665 L 39.0439,8.61385 L 38.9631,8.55916 L 38.8985,8.48262 L 38.849,8.38431 L 38.8136,8.26433
 L 38.7924,8.1227 L 38.7854,7.95941 L 38.7925,7.79224 L 38.8141,7.64876 L 38.8499,7.52899 L 38.9001,7.43292
 L 38.9664,7.35922 L 39.0505,7.30658 L 39.1523,7.27499 L 39.272,7.26447 L 39.3905,7.2748 L 39.4907,7.30577
 L 39.5724,7.35739 L 39.6357,7.42966 L 39.6831,7.52472 L 39.7169,7.6447 L 39.7372,7.7896 L 39.744,7.95941
 L 39.7369,8.12733 L 39.7157,8.27147 L 39.6803,8.3918 L 39.6309,8.48833 L 39.5649,8.56238 L 39.4801,8.61526
 L 39.3765,8.647 L 39.2541,8.65758 z
M 33.3805,8.84799 L 33.5851,8.76988 L 33.7394,8.63968 L 33.8434,8.4574 L 33.5863,8.38417 L 33.5613,8.44022
 L 33.5271,8.49118 L 33.4836,8.53705 L 33.4309,8.57785 L 33.3688,8.61131 L 33.2972,8.63522 L 33.2162,8.64957
 L 33.1257,8.65434 L 33.0125,8.64407 L 32.9137,8.61325 L 32.8294,8.56187 L 32.7595,8.48996 L 32.7047,8.39912
 L 32.6655,8.29099 L 32.642,8.16556 L 32.6342,8.02286 L 33.8907,8.02286 L 33.8907,7.98383 L 33.8421,7.5744
 L 33.6966,7.28197 L 33.454,7.10651 L 33.1143,7.048 L 32.9357,7.06256 L 32.7789,7.1062 L 32.6439,7.17892
 L 32.5309,7.28075 L 32.4415,7.40982 L 32.3777,7.56433 L 32.3394,7.74428 L 32.3266,7.94965 L 32.3394,8.16496
 L 32.3777,8.35202 L 32.4415,8.5108 L 32.5309,8.64131 L 32.6446,8.74313 L 32.7817,8.81586 L 32.9421,8.8595
 L 33.1257,8.87404 z
M 32.6375,7.79828 L 32.6495,7.68044 L 32.6759,7.57593 L 32.7167,7.48474 L 32.7717,7.40689 L 32.8395,7.34457
 L 32.9184,7.30006 L 33.0084,7.27336 L 33.1095,7.26447 L 33.2129,7.27245 L 33.3035,7.2964 L 33.3813,7.33633
 L 33.4463,7.39223 L 33.4991,7.4655 L 33.5403,7.55762 L 33.5699,7.66853 L 33.5879,7.79828 z
M 41.1821,8.86458 L 41.3037,8.8362 L 41.4132,8.78891 L 41.5104,8.72269 L 41.5923,8.64059 L 41.6557,8.54568
 L 41.7005,8.43797 L 41.7269,8.31743 L 41.4307,8.29791 L 41.4134,8.3801 L 41.3861,8.4509 L 41.3487,8.5103
 L 41.3013,8.55832 L 41.2456,8.59534 L 41.1835,8.62178 L 41.115,8.63765 L 41.0401,8.64294 L 40.9356,8.63237
 L 40.8452,8.60063 L 40.7688,8.54774 L 40.7064,8.47369 L 40.658,8.37767 L 40.6234,8.25885 L 40.6027,8.11725
 L 40.5957,7.95288 L 40.6023,7.78302 L 40.6218,7.6396 L 40.6543,7.52263 L 40.6999,7.43211 L 40.76,7.36446
 L 40.8362,7.31613 L 40.9285,7.28714 L 41.0368,7.27748 L 41.1174,7.28287 L 41.1882,7.29904 L 41.2492,7.32599
 L 41.3005,7.36374 L 41.3425,7.41063 L 41.3757,7.46504 L 41.4003,7.52699 L 41.416,7.59647 L 41.7171,7.57368
 L 41.686,7.45741 L 41.6384,7.35437 L 41.5741,7.26457 L 41.4933,7.18797 L 41.3985,7.12674 L 41.2921,7.08301
 L 41.1743,7.05676 L 41.045,7.048 L 40.8733,7.06261 L 40.7227,7.1064 L 40.5933,7.17938 L 40.4851,7.28156
 L 40.3996,7.4115 L 40.3386,7.56779 L 40.302,7.75043 L 40.2898,7.95941 L 40.302,8.1698 L 40.3384,8.35344
 L 40.3992,8.51035 L 40.4843,8.64049 L 40.5925,8.74266 L 40.7225,8.81564 L 40.8744,8.85944 L 41.0482,8.87404
 z
M 62.6545,7.9236 L 62.6605,7.78561 L 62.6785,7.66463 L 62.7085,7.56062 L 62.7505,7.4736 L 62.8039,7.40489
 L 62.8681,7.3558 L 62.9431,7.32637 L 63.0288,7.31654 L 63.0752,7.31757 L 63.1167,7.32062 L 63.1533,7.3257
 L 63.1851,7.33282 L 63.1851,7.06429 L 63.1551,7.05716 L 63.1252,7.05208 L 63.0956,7.04903 L 63.0663,7.048
 L 62.9879,7.05319 L 62.919,7.06876 L 62.8593,7.0947 L 62.8091,7.131 L 62.7648,7.18146 L 62.7233,7.2498
 L 62.6843,7.33606 L 62.648,7.44022 L 62.6415,7.44022 L 62.6407,7.39516 L 62.6382,7.32019 L 62.6342,7.21533
 L 62.6285,7.08055 L 62.3518,7.08055 L 62.3561,7.19041 L 62.3591,7.29538 L 62.3609,7.39548 L 62.3615,7.49069
 L 62.3615,8.84149 L 62.6545,8.84149 z
M -11.5636,7.9236 L -11.5576,7.78561 L -11.5396,7.66463 L -11.5096,7.56062 L -11.4676,7.4736 L -11.4142,7.40489
 L -11.35,7.3558 L -11.275,7.32637 L -11.1893,7.31654 L -11.1429,7.31757 L -11.1014,7.32062 L -11.0648,7.3257
 L -11.033,7.33282 L -11.033,7.06429 L -11.063,7.05716 L -11.0928,7.05208 L -11.1225,7.04903 L -11.1518,7.048
 L -11.2302,7.05319 L -11.2991,7.06876 L -11.3587,7.0947 L -11.409,7.131 L -11.4532,7.18146 L -11.4948,7.2498
 L -11.5338,7.33606 L -11.5701,7.44022 L -11.5766,7.44022 L -11.5774,7.39516 L -11.5799,7.32019 L -11.5839,7.21533
 L -11.5896,7.08055 L -11.8663,7.08055 L -11.862,7.19041 L -11.859,7.29538 L -11.8572,7.39548 L -11.8566,7.49069
 L -11.8566,8.84149 L -11.5636,8.84149 z
M 47.0372,8.85989 L 47.1964,8.81747 L 47.3326,8.74678 L 47.4458,8.64781 L 47.5348,8.51996 L 47.5984,8.36259
 L 47.6365,8.17575 L 47.6492,7.95941 L 47.6373,7.74117 L 47.6016,7.55354 L 47.5421,7.39655 L 47.4588,7.27016
 L 47.3503,7.17297 L 47.2151,7.10355 L 47.0532,7.06189 L 46.8648,7.048 L 46.5194,7.10498 L 46.2728,7.27586
 L 46.1248,7.56067 L 46.0754,7.95941 L 46.0877,8.16847 L 46.1246,8.35141 L 46.1862,8.50821 L 46.2723,8.63885
 L 46.3826,8.74174 L 46.5165,8.81525 L 46.6739,8.85934 L 46.855,8.87404 z
M 46.7386,8.64665 L 46.6416,8.61385 L 46.5608,8.55916 L 46.4961,8.48262 L 46.4466,8.38431 L 46.4113,8.26433
 L 46.3901,8.1227 L 46.383,7.95941 L 46.3902,7.79224 L 46.4117,7.64876 L 46.4476,7.52899 L 46.4978,7.43292
 L 46.564,7.35922 L 46.6481,7.30658 L 46.75,7.27499 L 46.8696,7.26447 L 46.9882,7.2748 L 47.0883,7.30577
 L 47.1701,7.35739 L 47.2334,7.42966 L 47.2807,7.52472 L 47.3146,7.6447 L 47.3349,7.7896 L 47.3416,7.95941
 L 47.3345,8.12733 L 47.3133,8.27147 L 47.278,8.3918 L 47.2285,8.48833 L 47.1625,8.56238 L 47.0778,8.61526
 L 46.9742,8.647 L 46.8517,8.65758 z
M 59.8667,8.8656 L 60.0077,8.84027 L 60.1299,8.79807 L 60.2333,8.73897 L 60.3156,8.66429 L 60.3743,8.57539
 L 60.4096,8.47224 L 60.4213,8.35487 L 60.4193,8.30579 L 60.4132,8.25946 L 60.403,8.21588 L 60.3888,8.17503
 L 60.3708,8.13673 L 60.3495,8.10078 L 60.3248,8.06717 L 60.2968,8.03589 L 60.2644,8.00644 L 60.2266,7.97833
 L 60.1835,7.95152 L 60.1349,7.92606 L 60.0755,7.90067 L 59.9998,7.87416 L 59.9079,7.84654 L 59.7996,7.81781
 L 59.6873,7.78934 L 59.5962,7.7641 L 59.5262,7.74214 L 59.4774,7.72342 L 59.4415,7.70541 L 59.4102,7.68558
 L 59.3837,7.66393 L 59.3618,7.64043 L 59.3447,7.61438 L 59.3325,7.58508 L 59.3252,7.55254 L 59.3228,7.51674
 L 59.3287,7.45956 L 59.3464,7.41013 L 59.3759,7.36842 L 59.4171,7.33446 L 59.4709,7.30811 L 59.5376,7.28929
 L 59.6174,7.278 L 59.7101,7.27423 L 59.7951,7.27815 L 59.871,7.2899 L 59.9379,7.30948 L 59.9957,7.3369
 L 60.0439,7.37163 L 60.0818,7.41318 L 60.1094,7.46155 L 60.1268,7.51674 L 60.3904,7.48416 L 60.3597,7.37878
 L 60.3133,7.28886 L 60.2511,7.2144 L 60.1731,7.15541 L 60.0798,7.11055 L 59.9715,7.07852 L 59.8483,7.0593
 L 59.7101,7.05289 L 59.5556,7.06076 L 59.4206,7.08443 L 59.3053,7.12384 L 59.2096,7.17903 L 59.1345,7.24925
 L 59.0809,7.33383 L 59.0487,7.43275 L 59.0379,7.54601 L 59.0417,7.60857 L 59.053,7.66605 L 59.0718,7.71843
 L 59.0982,7.76573 L 59.1312,7.80881 L 59.17,7.84854 L 59.2146,7.8849 L 59.265,7.91792 L 59.3274,7.94939
 L 59.408,7.98117 L 59.5068,8.01324 L 59.6239,8.04565 L 59.8338,8.10097 L 59.9081,8.12355 L 59.9713,8.14899
 L 60.0236,8.17726 L 60.0649,8.20839 L 60.0962,8.24338 L 60.1186,8.28325 L 60.132,8.328 L 60.1365,8.37764
 L 60.1301,8.44174 L 60.1107,8.49728 L 60.0784,8.54428 L 60.0332,8.58272 L 59.974,8.61263 L 59.8999,8.63399
 L 59.8109,8.6468 L 59.7068,8.65108 L 59.6084,8.64696 L 59.5213,8.6346 L 59.4456,8.614 L 59.3813,8.58517
 L 59.3277,8.54749 L 59.2841,8.50032 L 59.2505,8.44371 L 59.2268,8.37764 L 58.968,8.42812 L 59.0026,8.53528
 L 59.0528,8.62727 L 59.1186,8.70412 L 59.1999,8.76582 L 59.2984,8.81317 L 59.4157,8.84698 L 59.5519,8.86728
 L 59.7068,8.87404 z
M 35.8913,8.8656 L 36.0323,8.84027 L 36.1546,8.79807 L 36.2579,8.73897 L 36.3402,8.66429 L 36.3989,8.57539
 L 36.4342,8.47224 L 36.4459,8.35487 L 36.4439,8.30579 L 36.4378,8.25946 L 36.4276,8.21588 L 36.4134,8.17503
 L 36.3954,8.13673 L 36.3741,8.10078 L 36.3495,8.06717 L 36.3214,8.03589 L 36.289,8.00644 L 36.2513,7.97833
 L 36.2081,7.95152 L 36.1595,7.92606 L 36.1001,7.90067 L 36.0244,7.87416 L 35.9325,7.84654 L 35.8242,7.81781
 L 35.7119,7.78934 L 35.6208,7.7641 L 35.5508,7.74214 L 35.502,7.72342 L 35.4661,7.70541 L 35.4348,7.68558
 L 35.4083,7.66393 L 35.3864,7.64043 L 35.3693,7.61438 L 35.3571,7.58508 L 35.3498,7.55254 L 35.3474,7.51674
 L 35.3533,7.45956 L 35.371,7.41013 L 35.4005,7.36842 L 35.4418,7.33446 L 35.4955,7.30811 L 35.5622,7.28929
 L 35.642,7.278 L 35.7347,7.27423 L 35.8197,7.27815 L 35.8956,7.2899 L 35.9625,7.30948 L 36.0204,7.3369
 L 36.0685,7.37163 L 36.1064,7.41318 L 36.134,7.46155 L 36.1514,7.51674 L 36.415,7.48416 L 36.3844,7.37878
 L 36.3379,7.28886 L 36.2757,7.2144 L 36.1977,7.15541 L 36.1044,7.11055 L 35.9961,7.07852 L 35.8729,7.0593
 L 35.7347,7.05289 L 35.5802,7.06076 L 35.4452,7.08443 L 35.3299,7.12384 L 35.2343,7.17903 L 35.1591,7.24925
 L 35.1055,7.33383 L 35.0733,7.43275 L 35.0626,7.54601 L 35.0663,7.60857 L 35.0776,7.66605 L 35.0964,7.71843
 L 35.1228,7.76573 L 35.1558,7.80881 L 35.1946,7.84854 L 35.2392,7.8849 L 35.2896,7.91792 L 35.352,7.94939
 L 35.4326,7.98117 L 35.5314,8.01324 L 35.6485,8.04565 L 35.8584,8.10097 L 35.9327,8.12355 L 35.9959,8.14899
 L 36.0482,8.17726 L 36.0895,8.20839 L 36.1208,8.24338 L 36.1432,8.28325 L 36.1567,8.328 L 36.1611,8.37764
 L 36.1547,8.44174 L 36.1353,8.49728 L 36.103,8.54428 L 36.0578,8.58272 L 35.9986,8.61263 L 35.9245,8.63399
 L 35.8355,8.6468 L 35.7315,8.65108 L 35.633,8.64696 L 35.5459,8.6346 L 35.4702,8.614 L 35.406,8.58517
 L 35.3524,8.54749 L 35.3087,8.50032 L 35.2751,8.44371 L 35.2514,8.37764 L 34.9926,8.42812 L 35.0272,8.53528
 L 35.0774,8.62727 L 35.1432,8.70412 L 35.2245,8.76582 L 35.323,8.81317 L 35.4403,8.84698 L 35.5765,8.86728
 L 35.7315,8.87404 z
M 29.7787,9.48679 L 30.0091,9.34764 L 30.1473,9.11572 L 30.1934,8.79105 L 30.1934,7.44511 L 30.194,7.31857
 L 30.1958,7.21564 L 30.1989,7.13629 L 30.2032,7.08055 L 29.9249,7.08055 L 29.9216,7.09306 L 29.9183,7.11922
 L 29.9151,7.15898 L 29.9118,7.21239 L 29.909,7.26813 L 29.907,7.31491 L 29.9057,7.35275 L 29.9053,7.38164
 L 29.9021,7.38164 L 29.8607,7.30722 L 29.8115,7.24187 L 29.7545,7.18558 L 29.6897,7.13832 L 29.6178,7.10094
 L 29.5397,7.07425 L 29.4555,7.05823 L 29.365,7.05289 L 29.2088,7.06677 L 29.0739,7.10843 L 28.9602,7.17786
 L 28.8678,7.27505 L 28.7962,7.40143 L 28.7451,7.55843 L 28.7144,7.74605 L 28.7042,7.96428 L 28.7137,8.1792
 L 28.7423,8.36342 L 28.7898,8.51692 L 28.8564,8.63969 L 28.9432,8.73369 L 29.0515,8.80081 L 29.1812,8.84109
 L 29.3325,8.85452 L 29.4262,8.84918 L 29.5139,8.83316 L 29.5955,8.80646 L 29.6709,8.76909 L 29.7395,8.72112
 L 29.8003,8.66267 L 29.8534,8.59377 L 29.8988,8.51437 L 29.9021,8.51437 L 29.9021,8.79755 L 29.8747,9.02184
 L 29.7926,9.18205 L 29.6558,9.27817 L 29.4643,9.31021 L 29.3868,9.30609 L 29.3172,9.29373 L 29.2554,9.27313
 L 29.2014,9.24428 L 29.1558,9.20782 L 29.119,9.16434 L 29.0911,9.11385 L 29.0721,9.05632 L 28.7775,9.09863
 L 28.8095,9.19684 L 28.8568,9.28314 L 28.9194,9.35756 L 28.9972,9.42006 L 29.0899,9.46954 L 29.1974,9.5049
 L 29.3194,9.52611 L 29.4561,9.53317 z
M 29.3239,8.62817 L 29.2332,8.59859 L 29.1595,8.54926 L 29.103,8.48019 L 29.061,8.38855 L 29.0309,8.27147
 L 29.0129,8.12895 L 29.0069,7.96101 L 29.0134,7.79135 L 29.0326,7.64691 L 29.0646,7.52769 L 29.1095,7.43372
 L 29.1684,7.36252 L 29.2425,7.31166 L 29.3319,7.28114 L 29.4366,7.27097 L 29.5024,7.27611 L 29.5646,7.29152
 L 29.6232,7.31721 L 29.6783,7.35316 L 29.7286,7.39883 L 29.7729,7.45366 L 29.8112,7.51764 L 29.8435,7.59077
 L 29.8691,7.6722 L 29.8874,7.76105 L 29.8984,7.85732 L 29.9021,7.96101 L 29.8984,8.06236 L 29.8874,8.15651
 L 29.8691,8.24344 L 29.8435,8.32314 L 29.8111,8.39479 L 29.7727,8.45761 L 29.7281,8.51157 L 29.6775,8.55669
 L 29.6218,8.59229 L 29.5623,8.61771 L 29.4989,8.63297 L 29.4317,8.63805 z
M 74.6995,8.8656 L 74.8406,8.84027 L 74.9628,8.79807 L 75.0662,8.73897 L 75.1484,8.66429 L 75.2072,8.57539
 L 75.2424,8.47224 L 75.2542,8.35487 L 75.2521,8.30579 L 75.246,8.25946 L 75.2358,8.21588 L 75.2216,8.17503
 L 75.2036,8.13673 L 75.1823,8.10078 L 75.1577,8.06717 L 75.1296,8.03589 L 75.0972,8.00644 L 75.0595,7.97833
 L 75.0163,7.95152 L 74.9677,7.92606 L 74.9083,7.90067 L 74.8326,7.87416 L 74.7407,7.84654 L 74.6325,7.81781
 L 74.5202,7.78934 L 74.429,7.7641 L 74.359,7.74214 L 74.3102,7.72342 L 74.2743,7.70541 L 74.2431,7.68558
 L 74.2165,7.66393 L 74.1946,7.64043 L 74.1776,7.61438 L 74.1653,7.58508 L 74.158,7.55254 L 74.1556,7.51674
 L 74.1615,7.45956 L 74.1792,7.41013 L 74.2087,7.36842 L 74.25,7.33446 L 74.3037,7.30811 L 74.3704,7.28929
 L 74.4502,7.278 L 74.5429,7.27423 L 74.6279,7.27815 L 74.7039,7.2899 L 74.7707,7.30948 L 74.8286,7.3369
 L 74.8767,7.37163 L 74.9146,7.41318 L 74.9422,7.46155 L 74.9596,7.51674 L 75.2232,7.48416 L 75.1926,7.37878
 L 75.1461,7.28886 L 75.0839,7.2144 L 75.006,7.15541 L 74.9126,7.11055 L 74.8044,7.07852 L 74.6811,7.0593
 L 74.5429,7.05289 L 74.3884,7.06076 L 74.2534,7.08443 L 74.1381,7.12384 L 74.0425,7.17903 L 73.9673,7.24925
 L 73.9137,7.33383 L 73.8815,7.43275 L 73.8708,7.54601 L 73.8745,7.60857 L 73.8858,7.66605 L 73.9046,7.71843
 L 73.931,7.76573 L 73.964,7.80881 L 74.0028,7.84854 L 74.0474,7.8849 L 74.0978,7.91792 L 74.1602,7.94939
 L 74.2408,7.98117 L 74.3397,8.01324 L 74.4567,8.04565 L 74.6666,8.10097 L 74.7409,8.12355 L 74.8042,8.14899
 L 74.8564,8.17726 L 74.8977,8.20839 L 74.9291,8.24338 L 74.9514,8.28325 L 74.9649,8.328 L 74.9693,8.37764
 L 74.9629,8.44174 L 74.9435,8.49728 L 74.9112,8.54428 L 74.866,8.58272 L 74.8069,8.61263 L 74.7327,8.63399
 L 74.6437,8.6468 L 74.5397,8.65108 L 74.4412,8.64696 L 74.3541,8.6346 L 74.2785,8.614 L 74.2142,8.58517
 L 74.1606,8.54749 L 74.1169,8.50032 L 74.0833,8.44371 L 74.0596,8.37764 L 73.8008,8.42812 L 73.8354,8.53528
 L 73.8856,8.62727 L 73.9514,8.70412 L 74.0327,8.76582 L 74.1312,8.81317 L 74.2486,8.84698 L 74.3847,8.86728
 L 74.5397,8.87404 z
M 70.6514,9.52895 L 70.7182,9.51628 L 70.7812,9.49518 L 70.8405,9.46564 L 70.8966,9.42749 L 70.9501,9.3806
 L 71.0011,9.32497 L 71.0496,9.26057 L 71.0977,9.18282 L 71.1477,9.08705 L 71.1994,8.97327 L 71.253,8.84149
 L 71.9301,7.08055 L 71.6208,7.08055 L 71.2351,8.20189 L 71.1212,8.52251 L 71.1152,8.50195 L 71.1021,8.46147
 L 71.0818,8.40105 L 71.0545,8.32069 L 71.0267,8.23967 L 71.0052,8.17728 L 70.9901,8.13348 L 70.9812,8.10832
 L 70.9617,8.05379 L 70.5906,7.08055 L 70.2782,7.08055 L 70.9764,8.83336 L 70.9487,8.90334 L 70.8618,9.07921
 L 70.7607,9.20483 L 70.6454,9.28021 L 70.5158,9.30534 L 70.4792,9.30473 L 70.4442,9.3029 L 70.4108,9.29985
 L 70.3791,9.29558 L 70.3791,9.51527 L 70.4222,9.5231 L 70.4702,9.5287 L 70.5231,9.53206 L 70.5809,9.53317
 z
M 65.9853,8.32024 L 66.0851,7.92828 L 66.1513,7.66559 L 66.1836,7.53218 L 66.198,7.46744 L 66.2105,7.41074
 L 66.2208,7.36206 L 66.2292,7.32143 L 66.2878,7.59647 L 66.5954,8.84149 L 66.9355,8.84149 L 67.44,7.08055
 L 67.1536,7.08055 L 66.82,8.37277 L 66.7695,8.599 L 66.6947,8.28978 L 66.3871,7.08055 L 66.0729,7.08055
 L 65.7051,8.47856 L 65.6775,8.599 L 65.6511,8.47267 L 65.6307,8.37685 L 65.6161,8.31154 L 65.3096,7.08055
 L 65.02,7.08055 L 65.5131,8.84149 L 65.8516,8.84149 z
M -30.258,8.11888 L -29.7844,8.84149 L -29.4573,8.84149 L -30.092,7.93336 L -29.4947,7.08055 L -29.8218,7.08055
 L -30.258,7.76573 L -30.6974,7.08055 L -31.0213,7.08055 L -30.424,7.93661 L -31.0506,8.84149 L -30.7349,8.84149
 z
M 25.8126,8.86931 L 25.899,8.85512 L 25.9774,8.83147 L 26.0478,8.79837 L 26.1121,8.75386 L 26.1725,8.69604
 L 26.2289,8.62489 L 26.2813,8.54041 L 26.2862,8.54041 L 26.2878,8.59956 L 26.2892,8.64844 L 26.2906,8.68704
 L 26.2919,8.71538 L 26.2941,8.75909 L 26.2959,8.79755 L 26.2968,8.81372 L 26.2976,8.82643 L 26.2984,8.83569
 L 26.2992,8.84149 L 26.5759,8.84149 L 26.5716,8.79236 L 26.5686,8.71333 L 26.5667,8.60439 L 26.5661,8.46553
 L 26.5661,7.08055 L 26.2732,7.08055 L 26.2732,8.10097 L 26.2655,8.22253 L 26.2426,8.33005 L 26.2045,8.42354
 L 26.1511,8.50298 L 26.0845,8.56635 L 26.0067,8.6116 L 25.9176,8.63876 L 25.8175,8.64781 L 25.7494,8.64517
 L 25.6901,8.63724 L 25.6395,8.62401 L 25.5977,8.6055 L 25.5629,8.58099 L 25.5331,8.54976 L 25.5083,8.51183
 L 25.4887,8.46716 L 25.4738,8.41428 L 25.4631,8.35161 L 25.4567,8.27919 L 25.4545,8.19699 L 25.4545,7.08055
 L 25.16,7.08055 L 25.16,8.25397 L 25.1684,8.40822 L 25.1935,8.53897 L 25.2355,8.64624 L 25.2942,8.73001
 L 25.3711,8.79303 L 25.4673,8.83803 L 25.5831,8.86504 L 25.7182,8.87404 z
M -3.58852,8.11888 L -3.1149,8.84149 L -2.78778,8.84149 L -3.4225,7.93336 L -2.82521,7.08055 L -3.15233,7.08055
 L -3.58852,7.76573 L -4.02792,7.08055 L -4.35181,7.08055 L -3.7545,7.93661 L -4.38109,8.84149 L -4.06537,8.84149
 z
M -18.2665,7.08055 L -18.5595,7.08055 L -18.5595,8.84149 L -18.2665,8.84149 z
M -15.9157,7.08055 L -16.2087,7.08055 L -16.2087,8.84149 L -15.9157,8.84149 z
M -16.4041,7.08055 L -16.7149,7.08055 L -17.1153,8.22954 L -17.1788,8.42159 L -17.2357,8.612 L -17.2769,8.46767
 L -17.3094,8.35527 L -17.3331,8.27481 L -17.348,8.2263 L -17.7354,7.08055 L -18.0479,7.08055 L -17.4082,8.84149
 L -17.0616,8.84149 z
M 68.3375,7.82594 L 67.5237,7.82594 L 67.5237,8.08633 L 68.3375,8.08633 z
M 0.545563,8.48506 L 0.22821,8.48506 L 0.22821,8.84149 L 0.545563,8.84149 z
" stroke="black" fill="lightgray" stroke-width="0.5"/>
</svg>
