<?xml version="1.0" standalone="no"?>
<!DOCTYPE svg PUBLIC "-//W3C//DTD SVG 1.1//EN" "http://www.w3.org/Graphics/SVG/1.1/DTD/svg11.dtd">
<svg width="105mm" height="57mm" viewBox="-15 -29 105 57" xmlns="http://www.w3.org/2000/svg" version="1.1">
<title>OpenSCAD Model</title>
<path d="
M 41.3917,23.4147 L 41.4255,23.4007 L 41.4545,23.3785 L 41.4767,23.3495 L 41.4907,23.3157 L 41.4955,23.2795
 L 41.4907,23.2433 L 41.4767,23.2095 L 41.4545,23.1805 L 41.4255,23.1582 L 36.8557,19.7309 L 58.8619,7.02562
 L 58.9036,7.02562 L 58.9036,7.00157 L 59.9279,6.41016 L 60.1699,7.01749 L 60.1422,7.08746 L 60.0553,7.26334
 L 59.9542,7.38896 L 59.8389,7.46434 L 59.7093,7.48946 L 59.6727,7.48885 L 59.6377,7.48701 L 59.6043,7.48396
 L 59.5726,7.47969 L 59.5726,7.69939 L 59.6157,7.70723 L 59.6637,7.71281 L 59.7166,7.71617 L 59.7744,7.7173
 L 59.8449,7.71307 L 59.9117,7.70041 L 59.9747,7.67931 L 60.034,7.64977 L 60.0901,7.61162 L 60.1436,7.56473
 L 60.1946,7.50909 L 60.2431,7.4447 L 60.2912,7.36694 L 60.3412,7.27116 L 60.3929,7.15739 L 60.4465,7.02562
 L 60.8987,5.84972 L 62.48,4.93674 L 62.4763,4.95413 L 62.4697,5.06613 L 62.4697,5.26468 L 62.2224,5.26468
 L 62.2224,5.47787 L 62.4697,5.47787 L 62.4697,7.02562 L 62.7627,7.02562 L 62.7627,5.47787 L 63.1061,5.47787
 L 63.1061,5.26468 L 62.7627,5.26468 L 62.7627,5.10681 L 62.7658,5.03773 L 62.7753,4.98027 L 62.791,4.93439
 L 62.8131,4.90012 L 62.8422,4.8752 L 62.8791,4.85739 L 62.9236,4.84671 L 62.9759,4.84314 L 63.0054,4.84396
 L 63.0369,4.84641 L 63.0705,4.85048 L 63.1061,4.85617 L 63.1061,4.63321 L 63.0614,4.62466 L 63.0277,4.6205
 L 63.7196,4.22104 L 63.7376,4.20436 L 63.7489,4.17938 L 63.7527,4.1478 L 63.7782,4.12866 L 63.7942,4.10638
 L 63.7996,4.08247 L 63.7996,0.816498 L 63.7942,0.792587 L 63.7782,0.770309 L 63.7527,0.751175 L 63.7489,0.719589
 L 63.7376,0.694595 L 63.7196,0.677933 L 57.5956,-2.85774 L 63.7196,-6.3934 L 63.7376,-6.41008 L 63.7489,-6.43506
 L 63.7527,-6.46664 L 63.7782,-6.48578 L 63.7942,-6.50806 L 63.7996,-6.53197 L 63.7996,-7.75671 L 63.7942,-7.78061
 L 63.7782,-7.8029 L 63.7527,-7.82202 L 63.7489,-7.85361 L 63.7376,-7.8786 L 63.7196,-7.89526 L 28.3643,-28.3077
 L 28.3408,-28.3149 L 28.3136,-28.3122 L 28.2843,-28.2998 L 28.255,-28.3122 L 28.2277,-28.3149 L 28.2043,-28.3077
 L -0.0799866,-11.9778 L -0.0979767,-11.9611 L -0.109268,-11.9361 L -0.113129,-11.9045 L -0.13855,-11.8854 L -0.154541,-11.8631
 L -0.159988,-11.8392 L -0.159988,-10.6144 L -0.154541,-10.5905 L -0.13855,-10.5683 L -0.113129,-10.5491 L -0.109268,-10.5175
 L -0.0979767,-10.4926 L -0.0799866,-10.4759 L 6.04398,-6.94022 L -0.0799866,-3.40454 L -0.0979767,-3.38786 L -0.109268,-3.36288
 L -0.113129,-3.3313 L -0.13855,-3.31216 L -0.154541,-3.28989 L -0.159988,-3.26598 L -0.159988,-0 L -0.154541,0.0238953
 L -0.13855,0.0461731 L -0.113129,0.0653076 L -0.109268,0.0968933 L -0.0979767,0.121887 L -0.0799866,0.13855 L 35.2753,20.551
 L 35.2988,20.5582 L 35.326,20.5555 L 35.3553,20.543 L 35.3846,20.5555 L 35.4119,20.5582 L 35.4353,20.551
 L 36.5939,19.8821 L 41.2855,23.4007 L 41.3193,23.4147 L 41.3555,23.4195 z
M 60.3087,6.68608 L 60.2956,6.6456 L 60.2754,6.58517 L 60.248,6.50482 L 60.2202,6.4238 L 60.1988,6.3614
 L 60.1836,6.31761 L 60.1747,6.29243 L 60.1674,6.27191 L 60.5424,6.05542 L 60.4286,6.38602 L 60.3147,6.70663
 z
M 85.291,7.04921 L 85.3655,7.04189 L 85.4391,7.02968 L 85.512,7.01259 L 85.512,6.79613 L 85.4599,6.80611
 L 85.4143,6.81323 L 85.3753,6.8175 L 85.3427,6.81892 L 85.2953,6.81572 L 85.2554,6.80611 L 85.2232,6.79008
 L 85.1987,6.76767 L 85.1805,6.7373 L 85.1675,6.69748 L 85.1598,6.64819 L 85.1572,6.58945 L 85.1572,5.47787
 L 85.4827,5.47787 L 85.4827,5.26468 L 85.1572,5.26468 L 85.1572,4.87082 L 84.9619,4.87082 L 84.8756,5.26468
 L 84.6608,5.26468 L 84.6608,5.47787 L 84.8642,5.47787 L 84.8642,6.65292 L 84.8862,6.82736 L 84.9521,6.95197
 L 85.062,7.02673 L 85.2157,7.05165 z
M 70.9971,7.04921 L 71.0715,7.04189 L 71.1452,7.02968 L 71.218,7.01259 L 71.218,6.79613 L 71.1659,6.80611
 L 71.1203,6.81323 L 71.0813,6.8175 L 71.0487,6.81892 L 71.0013,6.81572 L 70.9615,6.80611 L 70.9293,6.79008
 L 70.9047,6.76767 L 70.8865,6.7373 L 70.8736,6.69748 L 70.8658,6.64819 L 70.8632,6.58945 L 70.8632,5.47787
 L 71.1887,5.47787 L 71.1887,5.26468 L 70.8632,5.26468 L 70.8632,4.87082 L 70.6679,4.87082 L 70.5816,5.26468
 L 70.3668,5.26468 L 70.3668,5.47787 L 70.5703,5.47787 L 70.5703,6.65292 L 70.5922,6.82736 L 70.6581,6.95197
 L 70.768,7.02673 L 70.9218,7.05165 z
M 64.1813,7.04402 L 64.3405,7.0016 L 64.4767,6.93091 L 64.5899,6.83194 L 64.6789,6.70407 L 64.7425,6.54672
 L 64.7806,6.35986 L 64.7933,6.14354 L 64.7814,5.92529 L 64.7457,5.73767 L 64.6862,5.58066 L 64.6029,5.45428
 L 64.4944,5.35709 L 64.3592,5.28767 L 64.1973,5.24602 L 64.0089,5.23213 L 63.6635,5.28909 L 63.4169,5.45999
 L 63.2689,5.7448 L 63.2195,6.14354 L 63.2318,6.3526 L 63.2688,6.53552 L 63.3303,6.69232 L 63.4164,6.82298
 L 63.5267,6.92587 L 63.6606,6.99936 L 63.818,7.04346 L 63.9991,7.05817 z
M 63.8827,6.83076 L 63.7857,6.79796 L 63.7049,6.74329 L 63.6402,6.66675 L 63.5907,6.56844 L 63.5554,6.44846
 L 63.5342,6.30682 L 63.5271,6.14354 L 63.5343,5.97636 L 63.5558,5.83289 L 63.5917,5.71312 L 63.6419,5.61705
 L 63.7081,5.54335 L 63.7922,5.49071 L 63.8941,5.45912 L 64.0137,5.44859 L 64.1323,5.45891 L 64.2324,5.48988
 L 64.3142,5.5415 L 64.3775,5.61378 L 64.4248,5.70883 L 64.4587,5.82881 L 64.479,5.97371 L 64.4857,6.14354
 L 64.4787,6.31145 L 64.4574,6.45558 L 64.4221,6.57591 L 64.3726,6.67245 L 64.3066,6.74651 L 64.2219,6.79939
 L 64.1183,6.83113 L 63.9958,6.84171 z
M 65.6663,7.05292 L 65.7609,7.0372 L 65.8474,7.01102 L 65.9259,6.97435 L 65.998,6.92508 L 66.0656,6.86104
 L 66.1286,6.78226 L 66.1871,6.68872 L 66.1968,6.68872 L 66.2057,6.77382 L 66.2227,6.8468 L 66.2476,6.90767
 L 66.2806,6.95645 L 66.3232,6.99382 L 66.3769,7.02052 L 66.4416,7.03654 L 66.5175,7.04189 L 66.5749,7.04025
 L 66.6318,7.03539 L 66.688,7.02724 L 66.7437,7.01585 L 66.7437,6.83357 L 66.7175,6.83856 L 66.6928,6.84212
 L 66.6695,6.84425 L 66.6477,6.84497 L 66.6035,6.84085 L 66.5671,6.82849 L 66.5384,6.80789 L 66.5174,6.77907
 L 66.5025,6.74208 L 66.4918,6.69707 L 66.4854,6.64401 L 66.4833,6.58293 L 66.4833,5.82452 L 66.4728,5.689
 L 66.4413,5.57045 L 66.389,5.46889 L 66.3156,5.38432 L 66.2215,5.31773 L 66.1069,5.27019 L 65.9717,5.24165
 L 65.816,5.23213 L 65.535,5.26184 L 65.3237,5.35094 L 65.1819,5.49945 L 65.1097,5.70735 L 65.4156,5.73503
 L 65.429,5.66678 L 65.4514,5.60849 L 65.4828,5.56018 L 65.523,5.52184 L 65.5745,5.49265 L 65.6394,5.47179
 L 65.7177,5.45926 L 65.8095,5.45509 L 65.9006,5.46089 L 65.9787,5.47829 L 66.0438,5.50728 L 66.0959,5.54788
 L 66.1358,5.60188 L 66.1643,5.67116 L 66.1814,5.75568 L 66.1871,5.85547 L 66.1871,5.95149 L 65.7916,5.95799
 L 65.6052,5.97142 L 65.4464,6.00194 L 65.3151,6.04955 L 65.2114,6.11423 L 65.1327,6.19539 L 65.0765,6.29243
 L 65.0428,6.40533 L 65.0315,6.53412 L 65.0399,6.64966 L 65.0649,6.75218 L 65.1066,6.84171 L 65.165,6.9182
 L 65.24,6.97943 L 65.3314,7.02316 L 65.4393,7.04941 L 65.5637,7.05817 z
M 65.563,6.83359 L 65.5037,6.81894 L 65.4527,6.79453 L 65.4099,6.76035 L 65.3761,6.71721 L 65.3519,6.66594
 L 65.3375,6.60654 L 65.3326,6.53899 L 65.3362,6.47623 L 65.3469,6.41978 L 65.3647,6.36963 L 65.3896,6.32581
 L 65.4212,6.28775 L 65.459,6.255 L 65.5029,6.22754 L 65.5531,6.20537 L 65.6127,6.18806 L 65.6848,6.17526
 L 65.7694,6.16692 L 65.8665,6.16304 L 66.1871,6.15654 L 66.1871,6.30136 L 66.1825,6.36845 L 66.169,6.43463
 L 66.1463,6.49988 L 66.1146,6.56421 L 66.0751,6.62468 L 66.029,6.67834 L 65.9762,6.72519 L 65.9169,6.76521
 L 65.852,6.79726 L 65.7826,6.82014 L 65.7088,6.83389 L 65.6305,6.83847 z
M 78.9864,6.10773 L 78.9924,5.96974 L 79.0104,5.84874 L 79.0404,5.74474 L 79.0824,5.65773 L 79.1358,5.58902
 L 79.2,5.53993 L 79.2749,5.51048 L 79.3607,5.50067 L 79.4071,5.50169 L 79.4486,5.50475 L 79.4852,5.50983
 L 79.5169,5.51694 L 79.5169,5.24841 L 79.4869,5.24129 L 79.4571,5.23621 L 79.4275,5.23315 L 79.3981,5.23213
 L 79.3198,5.23732 L 79.2508,5.25288 L 79.1912,5.27882 L 79.1409,5.31512 L 79.0967,5.36557 L 79.0551,5.43393
 L 79.0161,5.52019 L 78.9798,5.62434 L 78.9733,5.62434 L 78.9725,5.57928 L 78.9701,5.50432 L 78.966,5.39944
 L 78.9603,5.26468 L 78.6837,5.26468 L 78.6879,5.37453 L 78.691,5.47951 L 78.6928,5.57961 L 78.6934,5.67482
 L 78.6934,7.02562 L 78.9864,7.02562 z
M 67.2228,6.0052 L 67.2296,5.88232 L 67.25,5.77409 L 67.2841,5.68053 L 67.3318,5.60159 L 67.3912,5.53893
 L 67.4604,5.49417 L 67.5393,5.46732 L 67.628,5.45836 L 67.7121,5.46446 L 67.7822,5.48277 L 67.8383,5.51329
 L 67.8803,5.55602 L 67.9109,5.6147 L 67.9328,5.69312 L 67.9459,5.79128 L 67.9502,5.90918 L 67.9502,7.02562
 L 68.2399,7.02562 L 68.2399,6.0052 L 68.2466,5.88165 L 68.2666,5.77307 L 68.2999,5.67944 L 68.3465,5.60077
 L 68.4052,5.53847 L 68.4745,5.49396 L 68.5545,5.46725 L 68.6452,5.45836 L 68.7293,5.46446 L 68.7994,5.48277
 L 68.8554,5.51329 L 68.8975,5.55602 L 68.9281,5.6147 L 68.95,5.69312 L 68.9631,5.79128 L 68.9674,5.90918
 L 68.9674,7.02562 L 69.2571,7.02562 L 69.2571,5.8522 L 69.2495,5.69861 L 69.2268,5.56821 L 69.1889,5.461
 L 69.1359,5.37697 L 69.0661,5.31361 L 68.9782,5.26834 L 68.8721,5.24118 L 68.7477,5.23213 L 68.6592,5.23701
 L 68.5774,5.25166 L 68.5025,5.27608 L 68.4344,5.31026 L 68.3721,5.35551 L 68.3146,5.41319 L 68.2619,5.48328
 L 68.2139,5.56577 L 68.209,5.56577 L 68.1818,5.48459 L 68.1457,5.41522 L 68.1008,5.35765 L 68.0471,5.31189
 L 67.9836,5.27699 L 67.9098,5.25208 L 67.8254,5.23712 L 67.7305,5.23213 L 67.646,5.23671 L 67.5682,5.25044
 L 67.4971,5.27333 L 67.4327,5.30539 L 67.3734,5.34912 L 67.3176,5.40709 L 67.2652,5.47931 L 67.2163,5.56577
 L 67.2114,5.56577 L 67.2098,5.50661 L 67.2083,5.45775 L 67.2069,5.41914 L 67.2057,5.39082 L 67.2034,5.34708
 L 67.2025,5.32719 L 67.2016,5.30862 L 67.2008,5.29245 L 67.2,5.27974 L 67.1992,5.27048 L 67.1983,5.26468
 L 66.9217,5.26468 L 66.9259,5.31381 L 66.929,5.39284 L 66.9308,5.50179 L 66.9314,5.64064 L 66.9314,7.02562
 L 67.2228,7.02562 z
M 86.6164,7.04402 L 86.7756,7.0016 L 86.9118,6.93091 L 87.0251,6.83194 L 87.1141,6.70407 L 87.1776,6.54672
 L 87.2158,6.35986 L 87.2285,6.14354 L 87.2166,5.92529 L 87.1809,5.73767 L 87.1214,5.58066 L 87.0381,5.45428
 L 86.9295,5.35709 L 86.7943,5.28767 L 86.6325,5.24602 L 86.444,5.23213 L 86.0987,5.28909 L 85.852,5.45999
 L 85.704,5.7448 L 85.6547,6.14354 L 85.667,6.3526 L 85.7039,6.53552 L 85.7655,6.69232 L 85.8516,6.82298
 L 85.9619,6.92587 L 86.0957,6.99936 L 86.2532,7.04346 L 86.4343,7.05817 z
M 86.3178,6.83076 L 86.2209,6.79796 L 86.14,6.74329 L 86.0754,6.66675 L 86.0259,6.56844 L 85.9906,6.44846
 L 85.9694,6.30682 L 85.9623,6.14354 L 85.9695,5.97636 L 85.991,5.83289 L 86.0268,5.71312 L 86.077,5.61705
 L 86.1433,5.54335 L 86.2274,5.49071 L 86.3292,5.45912 L 86.4489,5.44859 L 86.5675,5.45891 L 86.6676,5.48988
 L 86.7493,5.5415 L 86.8127,5.61378 L 86.86,5.70883 L 86.8938,5.82881 L 86.9141,5.97371 L 86.9209,6.14354
 L 86.9138,6.31145 L 86.8926,6.45558 L 86.8573,6.57591 L 86.8078,6.67245 L 86.7418,6.74651 L 86.657,6.79939
 L 86.5534,6.83113 L 86.431,6.84171 z
M 72.3225,7.04402 L 72.4817,7.0016 L 72.6179,6.93091 L 72.7311,6.83194 L 72.8201,6.70407 L 72.8837,6.54672
 L 72.9218,6.35986 L 72.9345,6.14354 L 72.9226,5.92529 L 72.8869,5.73767 L 72.8274,5.58066 L 72.7441,5.45428
 L 72.6356,5.35709 L 72.5004,5.28767 L 72.3385,5.24602 L 72.1501,5.23213 L 71.8047,5.28909 L 71.5581,5.45999
 L 71.4101,5.7448 L 71.3607,6.14354 L 71.373,6.3526 L 71.41,6.53552 L 71.4715,6.69232 L 71.5576,6.82298
 L 71.6679,6.92587 L 71.8018,6.99936 L 71.9592,7.04346 L 72.1403,7.05817 z
M 72.0239,6.83076 L 71.9269,6.79796 L 71.8461,6.74329 L 71.7814,6.66675 L 71.7319,6.56844 L 71.6966,6.44846
 L 71.6754,6.30682 L 71.6683,6.14354 L 71.6755,5.97636 L 71.697,5.83289 L 71.7329,5.71312 L 71.7831,5.61705
 L 71.8493,5.54335 L 71.9334,5.49071 L 72.0353,5.45912 L 72.1549,5.44859 L 72.2735,5.45891 L 72.3736,5.48988
 L 72.4554,5.5415 L 72.5187,5.61378 L 72.566,5.70883 L 72.5999,5.82881 L 72.6202,5.97371 L 72.6269,6.14354
 L 72.6199,6.31145 L 72.5986,6.45558 L 72.5633,6.57591 L 72.5138,6.67245 L 72.4478,6.74651 L 72.3631,6.79939
 L 72.2595,6.83113 L 72.137,6.84171 z
M 77.8474,7.03212 L 78.052,6.95399 L 78.2063,6.82381 L 78.3103,6.64153 L 78.0532,6.5683 L 78.0282,6.62434
 L 77.994,6.67529 L 77.9505,6.72118 L 77.8978,6.76198 L 77.8357,6.79544 L 77.7641,6.81934 L 77.6831,6.83368
 L 77.5926,6.83847 L 77.4794,6.82819 L 77.3806,6.79736 L 77.2963,6.746 L 77.2264,6.67409 L 77.1716,6.58324
 L 77.1324,6.47511 L 77.1089,6.34969 L 77.1011,6.20697 L 78.3575,6.20697 L 78.3575,6.16794 L 78.309,5.75853
 L 78.1635,5.46608 L 77.9209,5.29062 L 77.5812,5.23213 L 77.4026,5.24667 L 77.2458,5.29031 L 77.1108,5.36304
 L 76.9978,5.46486 L 76.9084,5.59395 L 76.8446,5.74846 L 76.8063,5.92839 L 76.7935,6.13377 L 76.8063,6.34909
 L 76.8446,6.53615 L 76.9084,6.69493 L 76.9978,6.82542 L 77.1115,6.92725 L 77.2486,6.99998 L 77.409,7.04361
 L 77.5926,7.05817 z
M 77.1044,5.98239 L 77.1164,5.86456 L 77.1428,5.76006 L 77.1835,5.66887 L 77.2386,5.591 L 77.3064,5.5287
 L 77.3853,5.48419 L 77.4753,5.45749 L 77.5763,5.44859 L 77.6798,5.45657 L 77.7704,5.48053 L 77.8482,5.52045
 L 77.9132,5.57634 L 77.966,5.64963 L 78.0072,5.74173 L 78.0368,5.85266 L 78.0548,5.98239 z
M 75.3591,7.02888 L 75.3587,6.9127 L 75.3574,6.82788 L 75.3554,6.77437 L 75.3526,6.75218 L 75.3607,6.75218
 L 75.4474,6.88605 L 75.5674,6.98166 L 75.7208,7.03903 L 75.9075,7.05817 L 76.1909,7.00058 L 76.3934,6.82787
 L 76.5148,6.54001 L 76.5553,6.13701 L 76.5452,5.91902 L 76.515,5.73216 L 76.4647,5.57643 L 76.3942,5.45183
 L 76.3033,5.35641 L 76.192,5.28827 L 76.06,5.24738 L 75.9075,5.23375 L 75.8076,5.23848 L 75.7179,5.25267
 L 75.6384,5.27632 L 75.569,5.30943 L 75.5079,5.35272 L 75.4531,5.40688 L 75.4045,5.47192 L 75.3623,5.54785
 L 75.3558,5.54785 L 75.3556,5.52914 L 75.3548,5.50392 L 75.3535,5.4722 L 75.3517,5.43394 L 75.3498,5.39514
 L 75.3479,5.36172 L 75.3461,5.33369 L 75.3444,5.31107 L 75.3429,5.29321 L 75.3416,5.27953 L 75.3405,5.27002
 L 75.3396,5.26468 L 75.0564,5.26468 L 75.0606,5.32011 L 75.0637,5.39854 L 75.0655,5.49995 L 75.0661,5.62434
 L 75.0661,7.7173 L 75.3591,7.7173 z
M 75.7136,6.83144 L 75.615,6.80061 L 75.5337,6.74924 L 75.4697,6.67732 L 75.4213,6.58374 L 75.3867,6.46738
 L 75.366,6.32823 L 75.3591,6.16631 L 75.3623,6.04765 L 75.3719,5.9407 L 75.3879,5.84544 L 75.4103,5.76189
 L 75.4389,5.6893 L 75.4734,5.627 L 75.5138,5.57497 L 75.5601,5.53322 L 75.614,5.50117 L 75.6775,5.47827
 L 75.7503,5.46454 L 75.8327,5.45996 L 75.9336,5.46983 L 76.0198,5.49944 L 76.0914,5.54877 L 76.1484,5.61784
 L 76.1918,5.7099 L 76.2229,5.8282 L 76.2415,5.97275 L 76.2477,6.14354 L 76.2414,6.31873 L 76.2227,6.46678
 L 76.1914,6.58768 L 76.1476,6.68141 L 76.0902,6.75154 L 76.018,6.80164 L 75.9311,6.83168 L 75.8294,6.84171
 z
M 87.8427,7.02888 L 87.8422,6.9127 L 87.841,6.82788 L 87.839,6.77437 L 87.8362,6.75218 L 87.8443,6.75218
 L 87.931,6.88605 L 88.051,6.98166 L 88.2044,7.03903 L 88.3911,7.05817 L 88.6745,7.00058 L 88.8769,6.82787
 L 88.9984,6.54001 L 89.0389,6.13701 L 89.0288,5.91902 L 88.9986,5.73216 L 88.9482,5.57643 L 88.8777,5.45183
 L 88.7869,5.35641 L 88.6755,5.28827 L 88.5436,5.24738 L 88.3911,5.23375 L 88.2912,5.23848 L 88.2015,5.25267
 L 88.122,5.27632 L 88.0526,5.30943 L 87.9915,5.35272 L 87.9366,5.40688 L 87.8881,5.47192 L 87.8459,5.54785
 L 87.8394,5.54785 L 87.8392,5.52914 L 87.8384,5.50392 L 87.8371,5.4722 L 87.8353,5.43394 L 87.8334,5.39514
 L 87.8315,5.36172 L 87.8297,5.33369 L 87.828,5.31107 L 87.8265,5.29321 L 87.8252,5.27953 L 87.8241,5.27002
 L 87.8231,5.26468 L 87.5399,5.26468 L 87.5442,5.32011 L 87.5473,5.39854 L 87.5491,5.49995 L 87.5497,5.62434
 L 87.5497,7.7173 L 87.8427,7.7173 z
M 88.1971,6.83144 L 88.0986,6.80061 L 88.0173,6.74924 L 87.9533,6.67732 L 87.9049,6.58374 L 87.8703,6.46738
 L 87.8496,6.32823 L 87.8427,6.16631 L 87.8459,6.04765 L 87.8555,5.9407 L 87.8715,5.84544 L 87.8939,5.76189
 L 87.9225,5.6893 L 87.957,5.627 L 87.9974,5.57497 L 88.0437,5.53322 L 88.0976,5.50117 L 88.161,5.47827
 L 88.2339,5.46454 L 88.3163,5.45996 L 88.4172,5.46983 L 88.5034,5.49944 L 88.575,5.54877 L 88.632,5.61784
 L 88.6754,5.7099 L 88.7065,5.8282 L 88.7251,5.97275 L 88.7313,6.14354 L 88.725,6.31873 L 88.7063,6.46678
 L 88.675,6.58768 L 88.6312,6.68141 L 88.5738,6.75154 L 88.5016,6.80164 L 88.4147,6.83168 L 88.313,6.84171
 z
M 73.5487,7.02888 L 73.5483,6.9127 L 73.5471,6.82788 L 73.545,6.77437 L 73.5422,6.75218 L 73.5503,6.75218
 L 73.637,6.88605 L 73.757,6.98166 L 73.9104,7.03903 L 74.0972,7.05817 L 74.3806,7.00058 L 74.583,6.82787
 L 74.7044,6.54001 L 74.7449,6.13701 L 74.7348,5.91902 L 74.7046,5.73216 L 74.6543,5.57643 L 74.5838,5.45183
 L 74.493,5.35641 L 74.3816,5.28827 L 74.2496,5.24738 L 74.0972,5.23375 L 73.9973,5.23848 L 73.9075,5.25267
 L 73.828,5.27632 L 73.7586,5.30943 L 73.6975,5.35272 L 73.6427,5.40688 L 73.5942,5.47192 L 73.5519,5.54785
 L 73.5454,5.54785 L 73.5452,5.52914 L 73.5444,5.50392 L 73.5432,5.4722 L 73.5414,5.43394 L 73.5394,5.39514
 L 73.5375,5.36172 L 73.5357,5.33369 L 73.534,5.31107 L 73.5325,5.29321 L 73.5312,5.27953 L 73.5301,5.27002
 L 73.5292,5.26468 L 73.246,5.26468 L 73.2502,5.32011 L 73.2533,5.39854 L 73.2551,5.49995 L 73.2557,5.62434
 L 73.2557,7.7173 L 73.5487,7.7173 z
M 73.9032,6.83144 L 73.8046,6.80061 L 73.7233,6.74924 L 73.6593,6.67732 L 73.6109,6.58374 L 73.5764,6.46738
 L 73.5556,6.32823 L 73.5487,6.16631 L 73.5519,6.04765 L 73.5615,5.9407 L 73.5775,5.84544 L 73.5999,5.76189
 L 73.6285,5.6893 L 73.663,5.627 L 73.7034,5.57497 L 73.7497,5.53322 L 73.8036,5.50117 L 73.8671,5.47827
 L 73.94,5.46454 L 74.0223,5.45996 L 74.1232,5.46983 L 74.2095,5.49944 L 74.2811,5.54877 L 74.338,5.61784
 L 74.3815,5.7099 L 74.4125,5.8282 L 74.4311,5.97275 L 74.4373,6.14354 L 74.431,6.31873 L 74.4123,6.46678
 L 74.381,6.58768 L 74.3372,6.68141 L 74.2798,6.75154 L 74.2076,6.80164 L 74.1207,6.83168 L 74.019,6.84171
 z
M 62.053,6.01007 L 61.2393,6.01007 L 61.2393,6.27046 L 62.053,6.27046 z
M 83.7838,6.06865 L 80.4507,6.06865 L 80.4507,6.29163 L 83.7838,6.29163 z
M 70.8261,25.9177 L 71.0285,25.745 L 71.15,25.4571 L 71.1904,25.0541 L 71.1806,24.8407 L 71.1512,24.6562
 L 71.1021,24.5006 L 71.0334,24.3739 L 70.9438,24.2756 L 70.8322,24.2054 L 70.6985,24.1633 L 70.5427,24.1493
 L 70.4474,24.1538 L 70.3602,24.1676 L 70.281,24.1905 L 70.2099,24.2225 L 70.146,24.2651 L 70.0888,24.3197
 L 70.0382,24.3864 L 69.9942,24.465 L 69.9877,24.465 L 69.9906,24.3957 L 69.9926,24.3311 L 69.9938,24.2712
 L 69.9942,24.216 L 69.9942,23.5275 L 69.7013,23.5275 L 69.7013,25.5798 L 69.7007,25.7056 L 69.6988,25.8081
 L 69.6958,25.8871 L 69.6915,25.9427 L 69.9747,25.9427 L 69.9765,25.9292 L 69.9788,25.9047 L 69.9814,25.8694
 L 69.9845,25.8231 L 69.9873,25.7747 L 69.9893,25.733 L 69.9906,25.6978 L 69.991,25.6693 L 69.9942,25.6693
 L 70.0388,25.7443 L 70.0896,25.8083 L 70.1466,25.8611 L 70.2099,25.9029 L 70.2804,25.9346 L 70.3594,25.9572
 L 70.4468,25.9707 L 70.5427,25.9753 z
M 70.3487,25.7485 L 70.2502,25.7175 L 70.1689,25.6659 L 70.1049,25.5936 L 70.0565,25.4997 L 70.0219,25.3831
 L 70.0011,25.2438 L 69.9942,25.0818 L 70.0013,24.9103 L 70.0225,24.7636 L 70.0578,24.6418 L 70.1073,24.5448
 L 70.1723,24.4707 L 70.254,24.4178 L 70.3525,24.3861 L 70.4678,24.3755 L 70.5701,24.3855 L 70.657,24.4154
 L 70.7287,24.4652 L 70.7852,24.535 L 70.8279,24.6279 L 70.8584,24.7469 L 70.8767,24.8923 L 70.8828,25.0639
 L 70.8767,25.235 L 70.8582,25.3806 L 70.8275,25.5007 L 70.7844,25.5953 L 70.7275,25.6668 L 70.6552,25.7179
 L 70.5676,25.7486 L 70.4646,25.7588 z
M 60.5987,26.7166 L 60.7314,26.6812 L 60.8449,26.6223 L 60.9392,26.5398 L 61.0134,26.4333 L 61.0664,26.3022
 L 61.0982,26.1465 L 61.1088,25.9662 L 61.0988,25.7843 L 61.0691,25.628 L 61.0195,25.4971 L 60.9501,25.3918
 L 60.8596,25.3108 L 60.7576,25.2584 L 60.7576,24.7417 L 60.7471,24.6061 L 60.7157,24.4876 L 60.6633,24.386
 L 60.59,24.3014 L 60.4959,24.2349 L 60.3812,24.1873 L 60.246,24.1588 L 60.0903,24.1493 L 59.8094,24.179
 L 59.598,24.2681 L 59.4562,24.4166 L 59.384,24.6245 L 59.6899,24.6521 L 59.7034,24.5839 L 59.7258,24.5256
 L 59.7571,24.4773 L 59.7974,24.439 L 59.8488,24.4098 L 59.9137,24.3889 L 59.9921,24.3764 L 60.0838,24.3722
 L 60.175,24.378 L 60.2531,24.3954 L 60.3182,24.4244 L 60.3703,24.465 L 60.4101,24.519 L 60.4386,24.5883
 L 60.4557,24.6728 L 60.4614,24.7726 L 60.4614,24.8686 L 60.0659,24.8751 L 59.8795,24.8885 L 59.7207,24.919
 L 59.5894,24.9666 L 59.4857,25.0313 L 59.407,25.1125 L 59.3508,25.2095 L 59.3358,25.2598 L 59.2775,25.2358
 L 59.1794,25.214 L 59.0716,25.2067 L 59.0522,25.2083 L 59.0677,25.0541 L 59.0578,24.8407 L 59.0284,24.6562
 L 58.9793,24.5006 L 58.9106,24.3739 L 58.821,24.2756 L 58.7094,24.2054 L 58.5757,24.1633 L 58.4199,24.1493
 L 58.3246,24.1538 L 58.2374,24.1676 L 58.1582,24.1905 L 58.0871,24.2225 L 58.0232,24.2651 L 57.966,24.3197
 L 57.9154,24.3864 L 57.8714,24.465 L 57.8649,24.465 L 57.8678,24.3957 L 57.8698,24.3311 L 57.871,24.2712
 L 57.8714,24.216 L 57.8714,23.5275 L 57.5785,23.5275 L 57.5785,24.7048 L 57.5555,24.7005 L 57.5144,24.6954
 L 57.4694,24.6923 L 57.4205,24.6913 L 57.3354,24.6968 L 57.2621,24.7133 L 57.2005,24.7409 L 57.1506,24.7795
 L 57.112,24.8306 L 57.0844,24.8958 L 57.0679,24.975 L 57.0624,25.0683 L 57.0624,25.2338 L 56.8563,25.2338
 L 56.8563,25.4115 L 57.0624,25.4115 L 57.0624,26.7012 L 57.3065,26.7012 L 57.3065,25.4115 L 57.5785,25.4115
 L 57.5785,25.5798 L 57.5779,25.7056 L 57.576,25.8081 L 57.573,25.8871 L 57.5687,25.9427 L 57.8519,25.9427
 L 57.8537,25.9292 L 57.856,25.9047 L 57.8586,25.8694 L 57.8617,25.8231 L 57.8645,25.7747 L 57.8665,25.733
 L 57.8678,25.6978 L 57.8682,25.6693 L 57.8714,25.6693 L 57.916,25.7443 L 57.9668,25.8083 L 58.0238,25.8611
 L 58.0871,25.9029 L 58.1576,25.9346 L 58.2366,25.9572 L 58.324,25.9707 L 58.4199,25.9753 L 58.4425,25.9707
 L 58.4524,26.1415 L 58.4828,26.2945 L 58.5334,26.4253 L 58.6043,26.5337 L 58.6945,26.6189 L 58.8029,26.6797
 L 58.9294,26.7162 L 59.0743,26.7284 L 59.1858,26.7205 L 59.2872,26.6968 L 59.3784,26.6574 L 59.4594,26.6022
 L 59.5277,26.5338 L 59.5805,26.4547 L 59.6179,26.365 L 59.6398,26.2645 L 59.393,26.2483 L 59.3786,26.3167
 L 59.3559,26.3757 L 59.3247,26.4252 L 59.2852,26.4653 L 59.2388,26.4961 L 59.187,26.5182 L 59.1299,26.5314
 L 59.0675,26.5358 L 58.9804,26.527 L 58.9051,26.5005 L 58.8414,26.4565 L 58.7894,26.3947 L 58.7491,26.3147
 L 58.7203,26.2157 L 58.703,26.0977 L 58.6972,25.9607 L 58.6989,25.9186 L 58.7033,25.9177 L 58.9057,25.745
 L 59.0272,25.4571 L 59.0328,25.4007 L 59.0648,25.3979 L 59.1319,25.4024 L 59.1909,25.4159 L 59.2418,25.4383
 L 59.2845,25.4698 L 59.3092,25.4974 L 59.3142,25.5668 L 59.3392,25.6693 L 59.3809,25.7588 L 59.4393,25.8353
 L 59.5143,25.8965 L 59.6057,25.9403 L 59.7137,25.9665 L 59.7976,25.9724 L 59.8075,26.1404 L 59.8383,26.2928
 L 59.8896,26.4235 L 59.9614,26.5324 L 60.0533,26.6181 L 60.1648,26.6794 L 60.296,26.7161 L 60.4469,26.7284
 z
M 58.2259,25.7485 L 58.1273,25.7175 L 58.0461,25.6659 L 57.9821,25.5936 L 57.9337,25.4997 L 57.8991,25.3831
 L 57.8783,25.2438 L 57.8714,25.0818 L 57.8785,24.9103 L 57.8997,24.7636 L 57.9351,24.6418 L 57.9845,24.5448
 L 58.0495,24.4707 L 58.1312,24.4178 L 58.2297,24.3861 L 58.345,24.3755 L 58.4473,24.3855 L 58.5342,24.4154
 L 58.6059,24.4652 L 58.6624,24.535 L 58.7051,24.6279 L 58.7356,24.7469 L 58.754,24.8923 L 58.7601,25.0639
 L 58.7539,25.235 L 58.7473,25.2867 L 58.6952,25.3161 L 58.605,25.4013 L 58.5338,25.5096 L 58.483,25.6398
 L 58.4624,25.7424 L 58.4448,25.7486 L 58.3418,25.7588 z
M 57.3065,25.2338 L 57.3065,25.1022 L 57.3092,25.0447 L 57.317,24.9968 L 57.3302,24.9586 L 57.3486,24.93
 L 57.3728,24.9092 L 57.4035,24.8944 L 57.4406,24.8855 L 57.4842,24.8825 L 57.5088,24.8832 L 57.5351,24.8852
 L 57.563,24.8886 L 57.5785,24.8911 L 57.5785,25.2338 z
M 59.778,25.7361 L 59.727,25.7116 L 59.6842,25.6775 L 59.6504,25.6343 L 59.6263,25.5831 L 59.6118,25.5237
 L 59.6069,25.4561 L 59.6105,25.3934 L 59.6212,25.3369 L 59.639,25.2868 L 59.6639,25.2429 L 59.6955,25.2049
 L 59.7333,25.1721 L 59.7773,25.1447 L 59.8275,25.1225 L 59.887,25.1052 L 59.9591,25.0924 L 60.0437,25.084
 L 60.1408,25.0802 L 60.4614,25.0737 L 60.4614,25.2072 L 60.455,25.2067 L 60.1673,25.2542 L 59.9617,25.3965
 L 59.8384,25.6339 L 59.8243,25.7475 z
M 60.0775,25.7073 L 60.1074,25.6075 L 60.1492,25.5274 L 60.2044,25.466 L 60.2745,25.4221 L 60.3594,25.3958
 L 60.4302,25.3896 L 60.4207,25.417 L 60.389,25.4813 L 60.3494,25.5418 L 60.3033,25.5955 L 60.2506,25.6423
 L 60.1912,25.6823 L 60.1263,25.7144 L 60.0738,25.7317 z
M 60.8127,25.725 L 60.7918,25.6962 L 60.7768,25.6592 L 60.7661,25.6142 L 60.7597,25.5611 L 60.7583,25.5202
 L 60.7622,25.5247 L 60.8017,25.6039 L 60.8299,25.7039 L 60.8351,25.7411 z
M 60.3499,26.5389 L 60.2691,26.5115 L 60.2017,26.466 L 60.1478,26.4022 L 60.1066,26.3203 L 60.0771,26.2203
 L 60.0595,26.1022 L 60.0536,25.9662 L 60.0543,25.9485 L 60.1217,25.9281 L 60.2002,25.8915 L 60.2724,25.8422
 L 60.34,25.7782 L 60.403,25.6994 L 60.4614,25.6059 L 60.4711,25.6059 L 60.48,25.6909 L 60.497,25.7639
 L 60.522,25.8248 L 60.5549,25.8736 L 60.5975,25.9109 L 60.6512,25.9377 L 60.7159,25.9537 L 60.7918,25.959
 L 60.8492,25.9574 L 60.8521,25.9571 L 60.8524,25.9662 L 60.8465,26.1061 L 60.8289,26.2262 L 60.7994,26.3265
 L 60.7582,26.4069 L 60.7032,26.4686 L 60.6325,26.5127 L 60.5462,26.5392 L 60.4442,26.548 z
M 52.4466,23.5275 L 52.1536,23.5275 L 52.1536,23.8075 L 52.4466,23.8075 z
M 51.8189,26.704 L 51.8186,26.6072 L 51.8176,26.5365 L 51.8159,26.4919 L 51.8135,26.4734 L 51.8203,26.4734
 L 51.8925,26.5849 L 51.9925,26.6646 L 52.1203,26.7124 L 52.276,26.7284 L 52.5121,26.6804 L 52.6808,26.5365
 L 52.782,26.2966 L 52.8158,25.9607 L 52.8074,25.7791 L 52.7822,25.6234 L 52.7402,25.4936 L 52.6815,25.3898
 L 52.6058,25.3102 L 52.513,25.2534 L 52.4466,25.2329 L 52.4466,24.1818 L 52.1536,24.1818 L 52.1536,25.2182
 L 52.118,25.2238 L 52.0517,25.2435 L 51.9939,25.2711 L 51.9429,25.3072 L 51.8972,25.3523 L 51.8568,25.4065
 L 51.8216,25.4698 L 51.8162,25.4698 L 51.816,25.4542 L 51.8154,25.4332 L 51.8143,25.4067 L 51.8128,25.3749
 L 51.8112,25.3425 L 51.8096,25.3147 L 51.8081,25.2913 L 51.8067,25.2725 L 51.8054,25.2576 L 51.8043,25.2462
 L 51.8034,25.2383 L 51.8026,25.2338 L 51.6138,25.2338 L 51.6138,24.395 L 51.9572,24.395 L 51.9572,24.1818
 L 51.6138,24.1818 L 51.6138,24.0239 L 51.6169,23.9549 L 51.6264,23.8974 L 51.6421,23.8515 L 51.6642,23.8172
 L 51.6933,23.7923 L 51.7301,23.7745 L 51.7747,23.7638 L 51.827,23.7603 L 51.8565,23.7611 L 51.888,23.7635
 L 51.9216,23.7676 L 51.9572,23.7733 L 51.9572,23.5503 L 51.9125,23.5418 L 51.8632,23.5357 L 51.8092,23.532
 L 51.7505,23.5308 L 51.6485,23.5374 L 51.5605,23.5573 L 51.4865,23.5903 L 51.4266,23.6366 L 51.3803,23.6979
 L 51.3473,23.7761 L 51.3274,23.8712 L 51.3208,23.9832 L 51.3208,24.1818 L 51.0734,24.1818 L 51.0734,24.395
 L 51.3208,24.395 L 51.3208,25.2113 L 51.3133,25.2101 L 51.2886,25.2075 L 51.2641,25.2067 L 51.1989,25.211
 L 51.1414,25.224 L 51.0917,25.2456 L 51.0498,25.2758 L 51.013,25.3179 L 50.9783,25.3748 L 50.9458,25.4467
 L 50.9156,25.5335 L 50.9102,25.5335 L 50.9095,25.496 L 50.9074,25.4335 L 50.9041,25.3461 L 50.8993,25.2338
 L 50.6687,25.2338 L 50.6723,25.3253 L 50.6748,25.4128 L 50.6764,25.4962 L 50.6769,25.5756 L 50.6769,26.7012
 L 50.921,26.7012 L 50.921,25.9363 L 50.926,25.8214 L 50.941,25.7205 L 50.966,25.6339 L 51.001,25.5613
 L 51.0455,25.5041 L 51.099,25.4632 L 51.1615,25.4386 L 51.233,25.4305 L 51.2716,25.4313 L 51.3062,25.4339
 L 51.3208,25.4359 L 51.3208,25.9427 L 51.5748,25.9427 L 51.5748,27.2776 L 51.8189,27.2776 z
M 52.1143,26.5394 L 52.0322,26.5137 L 51.9644,26.4709 L 51.9111,26.411 L 51.8708,26.333 L 51.842,26.2361
 L 51.8247,26.1201 L 51.8189,25.9852 L 51.8216,25.8863 L 51.8296,25.7971 L 51.8429,25.7178 L 51.8616,25.6481
 L 51.8855,25.5876 L 51.9142,25.5357 L 51.9478,25.4924 L 51.9864,25.4576 L 52.0314,25.4309 L 52.0842,25.4118
 L 52.145,25.4004 L 52.1536,25.3999 L 52.1536,25.9427 L 52.4466,25.9427 L 52.4466,25.4916 L 52.4767,25.5281
 L 52.5129,25.6048 L 52.5387,25.7034 L 52.5543,25.8239 L 52.5594,25.9662 L 52.5542,26.1122 L 52.5386,26.2355
 L 52.5125,26.3363 L 52.476,26.4144 L 52.4282,26.4728 L 52.368,26.5146 L 52.2956,26.5396 L 52.2109,26.548
 z
M 47.3603,26.724 L 47.4391,26.7109 L 47.5112,26.6891 L 47.5766,26.6585 L 47.6367,26.6175 L 47.693,26.5641
 L 47.7456,26.4984 L 47.7943,26.4205 L 47.8024,26.4205 L 47.8098,26.4914 L 47.8239,26.5522 L 47.8447,26.603
 L 47.8722,26.6436 L 47.9077,26.6748 L 47.9524,26.697 L 48.0064,26.7104 L 48.0696,26.7148 L 48.1175,26.7134
 L 48.1648,26.7094 L 48.2117,26.7026 L 48.2581,26.6931 L 48.2581,26.5412 L 48.2363,26.5454 L 48.2157,26.5483
 L 48.1963,26.5501 L 48.1781,26.5507 L 48.1413,26.5473 L 48.1109,26.537 L 48.087,26.5198 L 48.0695,26.4958
 L 48.0571,26.465 L 48.0482,26.4275 L 48.0428,26.3832 L 48.0411,26.3323 L 48.0411,25.7003 L 48.0323,25.5874
 L 48.0061,25.4886 L 47.9726,25.4236 L 48.3131,25.4236 L 48.3131,25.9427 L 48.4335,25.9427 L 48.4335,26.3907
 L 48.4519,26.536 L 48.5068,26.6399 L 48.5983,26.7022 L 48.7265,26.7229 L 48.7892,26.7209 L 48.8513,26.7148
 L 48.9126,26.7046 L 48.9733,26.6904 L 48.9733,26.51 L 48.9299,26.5183 L 48.892,26.5242 L 48.8594,26.5278
 L 48.8323,26.529 L 48.7927,26.5263 L 48.7596,26.5183 L 48.7327,26.505 L 48.7122,26.4863 L 48.6971,26.461
 L 48.6863,26.4278 L 48.6798,26.3867 L 48.6777,26.3378 L 48.6777,25.4236 L 48.912,25.4236 L 48.912,25.4115
 L 48.9489,25.4115 L 48.9489,25.2338 L 48.912,25.2338 L 48.912,25.1924 L 48.6777,25.1924 L 48.6777,24.9056
 L 48.5897,24.9056 L 48.5897,23.6496 L 48.2821,23.6496 L 47.2324,25.1957 L 47.2324,25.2392 L 47.0748,25.3057
 L 46.9566,25.4294 L 46.8964,25.6027 L 47.1514,25.6258 L 47.1626,25.5689 L 47.1812,25.5203 L 47.2073,25.4801
 L 47.2409,25.4481 L 47.2838,25.4238 L 47.2844,25.4236 L 47.647,25.4236 L 47.6749,25.436 L 47.7183,25.4698
 L 47.7515,25.5148 L 47.7753,25.5725 L 47.7895,25.643 L 47.7943,25.7261 L 47.7943,25.8061 L 47.4647,25.8116
 L 47.3093,25.8228 L 47.177,25.8482 L 47.0676,25.8878 L 46.9812,25.9418 L 46.9156,26.0094 L 46.8688,26.0903
 L 46.8407,26.1843 L 46.8313,26.2917 L 46.8383,26.388 L 46.8591,26.4734 L 46.8939,26.548 L 46.9425,26.6117
 L 47.005,26.6628 L 47.0812,26.6992 L 47.1711,26.7211 L 47.2748,26.7284 z
M 47.5026,25.1924 L 47.5286,25.1599 L 47.6165,25.0395 L 48.204,24.1737 L 48.2159,24.1553 L 48.2305,24.1313
 L 48.2477,24.1016 L 48.2675,24.0662 L 48.2862,24.0322 L 48.3,24.0064 L 48.309,23.989 L 48.3131,23.98
 L 48.3131,25.1924 z
M 47.2742,26.5412 L 47.2248,26.529 L 47.1823,26.5087 L 47.1466,26.4802 L 47.1185,26.4442 L 47.0983,26.4015
 L 47.0862,26.352 L 47.0822,26.2957 L 47.0852,26.2434 L 47.0941,26.1964 L 47.1089,26.1546 L 47.1297,26.1181
 L 47.156,26.0864 L 47.1875,26.0591 L 47.2242,26.0362 L 47.266,26.0177 L 47.3156,26.0033 L 47.3757,25.9926
 L 47.4462,25.9857 L 47.5271,25.9824 L 47.7943,25.977 L 47.7943,26.0977 L 47.7905,26.1536 L 47.7792,26.2088
 L 47.7603,26.2631 L 47.7339,26.3167 L 47.701,26.3671 L 47.6625,26.4118 L 47.6186,26.4509 L 47.5691,26.4842
 L 47.515,26.5109 L 47.4572,26.53 L 47.3957,26.5415 L 47.3304,26.5453 z
M 49.4073,23.6496 L 49.1079,23.6496 L 49.1421,24.3706 L 49.3715,24.3706 z
M 50.0079,23.6496 L 49.7084,23.6496 L 49.741,24.3706 L 49.9721,24.3706 z
M 43.4882,26.7067 L 43.6587,26.6416 L 43.7873,26.5331 L 43.874,26.3812 L 43.6597,26.3201 L 43.6389,26.3669
 L 43.6104,26.4093 L 43.5741,26.4475 L 43.5302,26.4815 L 43.4784,26.5094 L 43.4188,26.5293 L 43.3513,26.5413
 L 43.2759,26.5453 L 43.1815,26.5367 L 43.0992,26.511 L 43.029,26.4682 L 42.9707,26.4083 L 42.925,26.3326
 L 42.8924,26.2425 L 42.8728,26.138 L 42.8663,26.019 L 43.9133,26.019 L 43.9133,25.9865 L 43.8729,25.6453
 L 43.8328,25.5648 L 43.9479,25.2722 L 44.761,25.2722 L 45.1612,26.7012 L 45.4433,26.7012 L 45.5547,26.2669
 L 45.6379,25.9402 L 45.693,25.7213 L 45.72,25.6102 L 45.732,25.5562 L 45.7423,25.5089 L 45.751,25.4684
 L 45.7579,25.4345 L 45.8068,25.6637 L 46.0631,26.7012 L 46.3465,26.7012 L 46.767,25.2338 L 46.5283,25.2338
 L 46.2502,26.3106 L 46.2082,26.4992 L 46.1458,26.2415 L 45.8895,25.2338 L 45.6277,25.2338 L 45.493,25.7458
 L 44.651,23.6496 L 44.2978,23.6496 L 43.6213,25.3074 L 43.5494,25.2554 L 43.2664,25.2067 L 43.1175,25.2188
 L 42.9868,25.2552 L 42.8744,25.3158 L 42.7802,25.4006 L 42.7057,25.5082 L 42.6525,25.6369 L 42.6206,25.7869
 L 42.61,25.958 L 42.6206,26.1375 L 42.6525,26.2934 L 42.7057,26.4257 L 42.7802,26.5344 L 42.875,26.6193
 L 42.9892,26.6799 L 43.1229,26.7162 L 43.2759,26.7284 z
M 44.0423,25.0297 L 44.3353,24.2762 L 44.3727,24.1752 L 44.4052,24.0837 L 44.4329,24.0019 L 44.4557,23.9295
 L 44.4703,23.884 L 44.5143,24.0191 L 44.5371,24.088 L 44.5598,24.1533 L 44.5826,24.215 L 44.6054,24.2729
 L 44.9,25.0297 z
M 45.2762,26.3939 L 45.2592,26.314 L 45.2471,26.2596 L 45.0161,25.3319 L 45.2548,25.9427 L 45.4412,25.9427
 L 45.3212,26.3988 L 45.2982,26.4992 z
M 42.869,25.8319 L 42.8791,25.7337 L 42.9011,25.6466 L 42.935,25.5706 L 42.9809,25.5057 L 43.0374,25.4538
 L 43.1031,25.4167 L 43.1781,25.3945 L 43.2623,25.3871 L 43.3485,25.3937 L 43.4241,25.4137 L 43.4889,25.4469
 L 43.5431,25.4935 L 43.5445,25.4955 L 43.4072,25.8319 z
M 73.7781,25.9663 L 73.8526,25.959 L 73.9263,25.9468 L 73.9991,25.9297 L 73.9991,25.7133 L 73.947,25.7232
 L 73.9014,25.7303 L 73.8624,25.7346 L 73.8298,25.7361 L 73.7824,25.7328 L 73.7425,25.7232 L 73.7103,25.7072
 L 73.6858,25.6848 L 73.6676,25.6544 L 73.6547,25.6146 L 73.6469,25.5653 L 73.6443,25.5066 L 73.6443,24.395
 L 73.9698,24.395 L 73.9698,24.1818 L 73.6443,24.1818 L 73.6443,23.7879 L 73.449,23.7879 L 73.3627,24.1818
 L 73.1479,24.1818 L 73.1479,24.395 L 73.3513,24.395 L 73.3513,25.57 L 73.3733,25.7445 L 73.4392,25.8691
 L 73.5491,25.9439 L 73.7029,25.9688 z
M 74.6826,25.9663 L 74.757,25.959 L 74.8307,25.9468 L 74.9035,25.9297 L 74.9035,25.7133 L 74.8514,25.7232
 L 74.8058,25.7303 L 74.7668,25.7346 L 74.7342,25.7361 L 74.6868,25.7328 L 74.6469,25.7232 L 74.6147,25.7072
 L 74.5902,25.6848 L 74.572,25.6544 L 74.5591,25.6146 L 74.5513,25.5653 L 74.5487,25.5066 L 74.5487,24.395
 L 74.8742,24.395 L 74.8742,24.1818 L 74.5487,24.1818 L 74.5487,23.7879 L 74.3534,23.7879 L 74.2671,24.1818
 L 74.0523,24.1818 L 74.0523,24.395 L 74.2558,24.395 L 74.2558,25.57 L 74.2777,25.7445 L 74.3436,25.8691
 L 74.4535,25.9439 L 74.6073,25.9688 z
M 53.333,25.9363 L 53.338,25.8214 L 53.353,25.7205 L 53.378,25.6339 L 53.413,25.5613 L 53.4575,25.5041
 L 53.511,25.4632 L 53.5735,25.4386 L 53.6449,25.4305 L 53.6836,25.4313 L 53.7182,25.4339 L 53.7487,25.4381
 L 53.7751,25.444 L 53.7751,25.2202 L 53.7501,25.2143 L 53.7253,25.2101 L 53.7006,25.2075 L 53.6761,25.2067
 L 53.6109,25.211 L 53.5534,25.224 L 53.5037,25.2456 L 53.4618,25.2758 L 53.425,25.3179 L 53.3903,25.3748
 L 53.3578,25.4467 L 53.3276,25.5335 L 53.3221,25.5335 L 53.3215,25.496 L 53.3194,25.4335 L 53.316,25.3461
 L 53.3113,25.2338 L 53.1779,25.2338 L 53.1779,25.0248 L 53.1839,24.8868 L 53.2019,24.7659 L 53.2319,24.6619
 L 53.2739,24.5748 L 53.3273,24.5061 L 53.3915,24.4571 L 53.4665,24.4276 L 53.5522,24.4178 L 53.5986,24.4188
 L 53.6401,24.4219 L 53.6767,24.4269 L 53.7085,24.4341 L 53.7085,24.1655 L 53.6785,24.1584 L 53.6487,24.1533
 L 53.619,24.1503 L 53.5897,24.1493 L 53.5113,24.1544 L 53.4424,24.17 L 53.3828,24.1959 L 53.3325,24.2323
 L 53.2883,24.2827 L 53.2467,24.351 L 53.2077,24.4373 L 53.1714,24.5415 L 53.1649,24.5415 L 53.1641,24.4964
 L 53.1616,24.4214 L 53.1576,24.3166 L 53.1519,24.1818 L 52.8752,24.1818 L 52.8795,24.2917 L 52.8825,24.3966
 L 52.8843,24.4967 L 52.8849,24.5919 L 52.8849,25.9427 L 53.0889,25.9427 L 53.0889,26.7012 L 53.333,26.7012
 z
M 56.2264,26.7166 L 56.359,26.6812 L 56.4725,26.6223 L 56.5669,26.5398 L 56.6411,26.4333 L 56.694,26.3022
 L 56.7258,26.1465 L 56.7364,25.9662 L 56.7265,25.7843 L 56.6967,25.628 L 56.6471,25.4971 L 56.5777,25.3918
 L 56.4873,25.3108 L 56.3746,25.253 L 56.2946,25.2324 L 56.2946,24.7693 L 56.2871,24.6157 L 56.2643,24.4853
 L 56.2265,24.3781 L 56.1734,24.2941 L 56.1037,24.2307 L 56.0157,24.1855 L 55.9096,24.1583 L 55.7852,24.1493
 L 55.6967,24.1541 L 55.615,24.1688 L 55.5401,24.1932 L 55.472,24.2274 L 55.4097,24.2726 L 55.3521,24.3303
 L 55.2994,24.4004 L 55.2514,24.4829 L 55.2466,24.4829 L 55.2193,24.4017 L 55.1833,24.3323 L 55.1384,24.2748
 L 55.0846,24.229 L 55.0212,24.1941 L 54.9473,24.1692 L 54.8629,24.1542 L 54.7681,24.1493 L 54.6835,24.1538
 L 54.6057,24.1676 L 54.5346,24.1905 L 54.4702,24.2225 L 54.4109,24.2662 L 54.3551,24.3242 L 54.3027,24.3964
 L 54.2538,24.4829 L 54.2489,24.4829 L 54.2473,24.4237 L 54.2458,24.3749 L 54.2445,24.3363 L 54.2432,24.3079
 L 54.241,24.2642 L 54.2391,24.2257 L 54.2383,24.2096 L 54.2375,24.1969 L 54.2367,24.1876 L 54.2359,24.1818
 L 53.9592,24.1818 L 53.9635,24.2309 L 53.9665,24.31 L 53.9684,24.4189 L 53.9689,24.5578 L 53.9689,25.6116
 L 53.9574,25.6339 L 53.9163,25.9662 L 53.9265,26.1404 L 53.9573,26.2928 L 54.0086,26.4235 L 54.0804,26.5324
 L 54.1723,26.6181 L 54.2838,26.6794 L 54.415,26.7161 L 54.5659,26.7284 L 54.7177,26.7166 L 54.8504,26.6812
 L 54.9639,26.6223 L 55.0582,26.5398 L 55.1324,26.4333 L 55.1854,26.3022 L 55.2172,26.1465 L 55.2278,25.9662
 L 55.2265,25.9427 L 55.2775,25.9427 L 55.2775,24.9223 L 55.2841,24.7988 L 55.3041,24.6902 L 55.3374,24.5966
 L 55.3841,24.5179 L 55.4427,24.4556 L 55.512,24.4111 L 55.592,24.3844 L 55.6827,24.3755 L 55.7668,24.3816
 L 55.8369,24.3999 L 55.893,24.4304 L 55.935,24.4731 L 55.9656,24.5318 L 55.9875,24.6102 L 56.0006,24.7084
 L 56.005,24.8263 L 56.005,25.2195 L 55.7949,25.2542 L 55.5894,25.3965 L 55.466,25.6339 L 55.4249,25.9662
 L 55.4352,26.1404 L 55.4659,26.2928 L 55.5172,26.4235 L 55.589,26.5324 L 55.6809,26.6181 L 55.7925,26.6794
 L 55.9237,26.7161 L 56.0746,26.7284 z
M 54.9786,25.3108 L 54.866,25.253 L 54.7311,25.2182 L 54.574,25.2067 L 54.2863,25.2542 L 54.2603,25.2722
 L 54.2603,24.9223 L 54.2671,24.7994 L 54.2876,24.6912 L 54.3216,24.5976 L 54.3693,24.5187 L 54.4287,24.4561
 L 54.4979,24.4113 L 54.5768,24.3844 L 54.6655,24.3755 L 54.7496,24.3816 L 54.8197,24.3999 L 54.8758,24.4304
 L 54.9178,24.4731 L 54.9484,24.5318 L 54.9703,24.6102 L 54.9834,24.7084 L 54.9878,24.8263 L 54.9878,25.319
 z
M 54.4689,26.5389 L 54.3881,26.5115 L 54.3207,26.466 L 54.2668,26.4022 L 54.2256,26.3203 L 54.1962,26.2203
 L 54.1785,26.1022 L 54.1726,25.9662 L 54.1736,25.9427 L 54.2603,25.9427 L 54.2603,25.5426 L 54.2682,25.5274
 L 54.3234,25.466 L 54.3935,25.4221 L 54.4784,25.3958 L 54.5781,25.3871 L 54.6769,25.3957 L 54.7603,25.4215
 L 54.8285,25.4645 L 54.8812,25.5247 L 54.9207,25.6039 L 54.9489,25.7039 L 54.9658,25.8247 L 54.9714,25.9662
 L 54.9655,26.1061 L 54.9479,26.2262 L 54.9184,26.3265 L 54.8772,26.4069 L 54.8222,26.4686 L 54.7515,26.5127
 L 54.6652,26.5392 L 54.5632,26.548 z
M 55.9775,26.5389 L 55.8967,26.5115 L 55.8294,26.466 L 55.7755,26.4022 L 55.7343,26.3203 L 55.7048,26.2203
 L 55.6871,26.1022 L 55.6812,25.9662 L 55.6872,25.8269 L 55.7051,25.7073 L 55.735,25.6075 L 55.7769,25.5274
 L 55.8321,25.466 L 55.9021,25.4221 L 55.987,25.3958 L 56.005,25.3943 L 56.005,25.9427 L 56.2946,25.9427
 L 56.2946,25.4377 L 56.3371,25.4645 L 56.3899,25.5247 L 56.4293,25.6039 L 56.4575,25.7039 L 56.4744,25.8247
 L 56.4801,25.9662 L 56.4742,26.1061 L 56.4565,26.2262 L 56.427,26.3265 L 56.3858,26.4069 L 56.3308,26.4686
 L 56.2602,26.5127 L 56.1739,26.5392 L 56.0718,26.548 z
M 77.2391,24.9223 L 77.2459,24.7994 L 77.2663,24.6912 L 77.3004,24.5976 L 77.3481,24.5187 L 77.4075,24.4561
 L 77.4767,24.4113 L 77.5556,24.3844 L 77.6443,24.3755 L 77.7284,24.3816 L 77.7985,24.3999 L 77.8546,24.4304
 L 77.8966,24.4731 L 77.9272,24.5318 L 77.9491,24.6102 L 77.9622,24.7084 L 77.9666,24.8263 L 77.9666,25.9427
 L 78.2563,25.9427 L 78.2563,24.9223 L 78.2629,24.7988 L 78.2829,24.6902 L 78.3162,24.5966 L 78.3629,24.5179
 L 78.4215,24.4556 L 78.4908,24.4111 L 78.5708,24.3844 L 78.6615,24.3755 L 78.7456,24.3816 L 78.8157,24.3999
 L 78.8718,24.4304 L 78.9138,24.4731 L 78.9444,24.5318 L 78.9663,24.6102 L 78.9794,24.7084 L 78.9837,24.8263
 L 78.9837,25.9427 L 79.2734,25.9427 L 79.2734,24.7693 L 79.2659,24.6157 L 79.2431,24.4853 L 79.2052,24.3781
 L 79.1522,24.2941 L 79.0825,24.2307 L 78.9945,24.1855 L 78.8884,24.1583 L 78.764,24.1493 L 78.6755,24.1541
 L 78.5938,24.1688 L 78.5188,24.1932 L 78.4507,24.2274 L 78.3884,24.2726 L 78.3309,24.3303 L 78.2782,24.4004
 L 78.2302,24.4829 L 78.2253,24.4829 L 78.1981,24.4017 L 78.162,24.3323 L 78.1171,24.2748 L 78.0634,24.229
 L 78,24.1941 L 77.9261,24.1692 L 77.8417,24.1542 L 77.7468,24.1493 L 77.6623,24.1538 L 77.5845,24.1676
 L 77.5134,24.1905 L 77.449,24.2225 L 77.3897,24.2662 L 77.3339,24.3242 L 77.2815,24.3964 L 77.2326,24.4829
 L 77.2277,24.4829 L 77.2261,24.4237 L 77.2246,24.3749 L 77.2233,24.3363 L 77.222,24.3079 L 77.2197,24.2642
 L 77.2188,24.2443 L 77.2179,24.2257 L 77.2171,24.2096 L 77.2163,24.1969 L 77.2155,24.1876 L 77.2147,24.1818
 L 76.938,24.1818 L 76.9423,24.2309 L 76.9453,24.31 L 76.9471,24.4189 L 76.9477,24.5578 L 76.9477,25.9427
 L 77.2391,25.9427 z
M 63.5419,26.7067 L 63.7123,26.6416 L 63.8409,26.5331 L 63.9276,26.3812 L 63.7134,26.3201 L 63.6925,26.3669
 L 63.664,26.4093 L 63.6278,26.4475 L 63.5838,26.4815 L 63.5321,26.5094 L 63.4724,26.5293 L 63.4049,26.5413
 L 63.3295,26.5453 L 63.2352,26.5367 L 63.1529,26.511 L 63.0826,26.4682 L 63.0244,26.4083 L 62.9787,26.3326
 L 62.946,26.2425 L 62.9265,26.138 L 62.9199,26.019 L 63.967,26.019 L 63.967,25.9865 L 63.9554,25.889
 L 64.0023,25.8711 L 64.1566,25.7409 L 64.2469,25.5829 L 64.2469,26.7012 L 64.491,26.7012 L 64.491,25.9363
 L 64.496,25.8214 L 64.511,25.7205 L 64.536,25.6339 L 64.571,25.5613 L 64.6155,25.5041 L 64.669,25.4632
 L 64.7315,25.4386 L 64.8029,25.4305 L 64.8416,25.4313 L 64.8762,25.4339 L 64.9067,25.4381 L 64.9331,25.444
 L 64.9331,25.2202 L 64.9081,25.2143 L 64.8833,25.2101 L 64.8586,25.2075 L 64.8341,25.2067 L 64.7688,25.211
 L 64.7114,25.224 L 64.6617,25.2456 L 64.6198,25.2758 L 64.5829,25.3179 L 64.5483,25.3748 L 64.5158,25.4467
 L 64.4855,25.5335 L 64.4801,25.5335 L 64.4794,25.496 L 64.4774,25.4335 L 64.474,25.3461 L 64.4693,25.2338
 L 64.2387,25.2338 L 64.2423,25.3253 L 64.2448,25.4128 L 64.2463,25.4962 L 64.2467,25.5547 L 64.0036,25.4854
 L 63.9786,25.5415 L 63.9444,25.5924 L 63.9154,25.623 L 63.8052,25.4016 L 63.6031,25.2554 L 63.32,25.2067
 L 63.1711,25.2188 L 63.0584,25.2502 L 63.0515,25.1241 L 64.3079,25.1241 L 64.3079,25.0851 L 64.2594,24.6756
 L 64.1138,24.3832 L 63.8712,24.2077 L 63.5316,24.1493 L 63.3529,24.1638 L 63.1961,24.2074 L 63.0612,24.2802
 L 62.9481,24.382 L 62.8588,24.5111 L 62.7949,24.6656 L 62.7566,24.8455 L 62.7439,25.0509 L 62.7566,25.2662
 L 62.7949,25.4533 L 62.7958,25.4555 L 62.7594,25.5082 L 62.7062,25.6369 L 62.6743,25.7869 L 62.6636,25.958
 L 62.6743,26.1375 L 62.7062,26.2934 L 62.7594,26.4257 L 62.8338,26.5344 L 62.9286,26.6193 L 63.0429,26.6799
 L 63.1765,26.7162 L 63.3295,26.7284 z
M 63.0547,24.8995 L 63.0668,24.7817 L 63.0932,24.6772 L 63.1339,24.586 L 63.189,24.5081 L 63.2568,24.4458
 L 63.3357,24.4013 L 63.4256,24.3746 L 63.5267,24.3657 L 63.6301,24.3737 L 63.7208,24.3976 L 63.7986,24.4376
 L 63.8636,24.4935 L 63.9164,24.5668 L 63.9576,24.6589 L 63.9872,24.7698 L 64.0052,24.8995 z
M 63.4297,25.7453 L 63.331,25.7145 L 63.2466,25.6631 L 63.1768,25.5912 L 63.1219,25.5004 L 63.1027,25.4472
 L 63.1568,25.4167 L 63.2318,25.3945 L 63.316,25.3871 L 63.4022,25.3937 L 63.4777,25.4137 L 63.5425,25.4469
 L 63.5967,25.4935 L 63.6407,25.5546 L 63.675,25.6313 L 63.6997,25.7238 L 63.7018,25.7387 L 63.6335,25.7508
 L 63.543,25.7556 z
M 62.9227,25.8319 L 62.9327,25.7337 L 62.9352,25.7237 L 62.9481,25.7426 L 63.0479,25.8319 z
M 72.3888,25.9611 L 72.548,25.9187 L 72.6842,25.848 L 72.7974,25.7491 L 72.8864,25.6212 L 72.95,25.4638
 L 72.9881,25.277 L 73.0008,25.0606 L 72.9889,24.8424 L 72.9532,24.6548 L 72.8937,24.4978 L 72.8104,24.3714
 L 72.7019,24.2742 L 72.5667,24.2048 L 72.4048,24.1631 L 72.2164,24.1493 L 71.871,24.2062 L 71.6244,24.3771
 L 71.4764,24.6619 L 71.427,25.0606 L 71.4393,25.2697 L 71.4763,25.4527 L 71.5378,25.6095 L 71.6239,25.7401
 L 71.7342,25.843 L 71.8681,25.9165 L 72.0255,25.9606 L 72.2066,25.9753 z
M 72.0902,25.7479 L 71.9932,25.7151 L 71.9124,25.6604 L 71.8477,25.5839 L 71.7982,25.4855 L 71.7629,25.3656
 L 71.7417,25.2239 L 71.7346,25.0606 L 71.7418,24.8935 L 71.7633,24.75 L 71.7992,24.6302 L 71.8494,24.5342
 L 71.9156,24.4605 L 71.9997,24.4078 L 72.1016,24.3762 L 72.2212,24.3657 L 72.3398,24.376 L 72.4399,24.407
 L 72.5217,24.4586 L 72.585,24.5309 L 72.6323,24.626 L 72.6662,24.7459 L 72.6865,24.8908 L 72.6932,25.0606
 L 72.6862,25.2286 L 72.6649,25.3727 L 72.6296,25.493 L 72.5801,25.5896 L 72.5141,25.6636 L 72.4294,25.7165
 L 72.3258,25.7482 L 72.2033,25.7588 z
M 76.008,25.9611 L 76.1672,25.9187 L 76.3034,25.848 L 76.4166,25.7491 L 76.5056,25.6212 L 76.5692,25.4638
 L 76.6073,25.277 L 76.62,25.0606 L 76.6081,24.8424 L 76.5724,24.6548 L 76.5129,24.4978 L 76.4296,24.3714
 L 76.3211,24.2742 L 76.1859,24.2048 L 76.024,24.1631 L 75.8356,24.1493 L 75.4902,24.2062 L 75.2436,24.3771
 L 75.0956,24.6619 L 75.0462,25.0606 L 75.0585,25.2697 L 75.0955,25.4527 L 75.157,25.6095 L 75.2431,25.7401
 L 75.3534,25.843 L 75.4873,25.9165 L 75.6447,25.9606 L 75.8258,25.9753 z
M 75.7094,25.7479 L 75.6124,25.7151 L 75.5316,25.6604 L 75.4669,25.5839 L 75.4174,25.4855 L 75.3821,25.3656
 L 75.3609,25.2239 L 75.3538,25.0606 L 75.361,24.8935 L 75.3825,24.75 L 75.4184,24.6302 L 75.4686,24.5342
 L 75.5348,24.4605 L 75.6189,24.4078 L 75.7208,24.3762 L 75.8404,24.3657 L 75.959,24.376 L 76.0591,24.407
 L 76.1409,24.4586 L 76.2042,24.5309 L 76.2515,24.626 L 76.2854,24.7459 L 76.3056,24.8908 L 76.3124,25.0606
 L 76.3053,25.2286 L 76.2841,25.3727 L 76.2488,25.493 L 76.1993,25.5896 L 76.1333,25.6636 L 76.0486,25.7165
 L 75.9449,25.7482 L 75.8225,25.7588 z
M 62.3469,25.8274 L 62.415,25.7655 L 62.4738,25.6766 L 62.509,25.5735 L 62.5208,25.4561 L 62.5188,25.407
 L 62.5149,25.3776 L 62.5686,25.2338 L 62.4678,25.2338 L 62.449,25.202 L 62.4243,25.1684 L 62.3963,25.1371
 L 62.3639,25.1077 L 62.3261,25.0796 L 62.2829,25.0528 L 62.2343,25.0273 L 62.1749,25.0019 L 62.0993,24.9754
 L 62.0073,24.9478 L 61.8991,24.919 L 61.7868,24.8906 L 61.6956,24.8653 L 61.6257,24.8434 L 61.5768,24.8246
 L 61.5409,24.8066 L 61.5097,24.7868 L 61.4831,24.7652 L 61.4613,24.7417 L 61.4442,24.7156 L 61.432,24.6863
 L 61.4247,24.6538 L 61.4222,24.618 L 61.4281,24.5608 L 61.4458,24.5114 L 61.4753,24.4697 L 61.5166,24.4357
 L 61.5703,24.4093 L 61.6371,24.3905 L 61.7168,24.3792 L 61.8096,24.3755 L 61.8945,24.3794 L 61.9705,24.3911
 L 62.0374,24.4107 L 62.0952,24.4381 L 62.1434,24.4729 L 62.1812,24.5144 L 62.2089,24.5628 L 62.2262,24.618
 L 62.4899,24.5854 L 62.4592,24.48 L 62.4128,24.3901 L 62.3506,24.3157 L 62.2726,24.2567 L 62.1792,24.2118
 L 62.071,24.1798 L 61.9478,24.1605 L 61.8096,24.1541 L 61.655,24.162 L 61.5201,24.1857 L 61.4048,24.2251
 L 61.3091,24.2803 L 61.234,24.3505 L 61.1803,24.4351 L 61.1481,24.534 L 61.1374,24.6473 L 61.1412,24.7098
 L 61.1525,24.7673 L 61.1713,24.8197 L 61.1976,24.867 L 61.2306,24.91 L 61.2694,24.9498 L 61.314,24.9861
 L 61.3644,25.0191 L 61.4268,25.0506 L 61.5075,25.0824 L 61.6063,25.1145 L 61.7233,25.1469 L 61.9333,25.2022
 L 62.0075,25.2248 L 62.0708,25.2502 L 62.1231,25.2785 L 62.1644,25.3096 L 62.1957,25.3446 L 62.2181,25.3845
 L 62.2315,25.4292 L 62.2335,25.4519 L 62.1611,25.6598 L 62.1326,25.684 L 62.0735,25.7139 L 61.9994,25.7352
 L 61.9103,25.748 L 61.8063,25.7523 L 61.7078,25.7482 L 61.6293,25.737 L 61.4592,25.2338 L 61.1988,25.2338
 L 61.2903,25.4859 L 61.0674,25.5294 L 61.1021,25.6365 L 61.1523,25.7285 L 61.218,25.8054 L 61.2993,25.8671
 L 61.3978,25.9144 L 61.4516,25.9299 L 61.7318,26.7012 L 62.0206,26.7012 z
M 61.8412,26.3897 L 61.8142,26.2961 L 61.7944,26.229 L 61.782,26.1886 L 61.7084,25.971 L 61.8063,25.9753
 L 61.9662,25.9668 L 62.06,25.95 L 61.9759,26.1913 L 61.923,26.3513 L 61.8755,26.51 z
M 21.2112,26.7245 L 21.2838,26.7131 L 21.3498,26.694 L 21.4091,26.6673 L 21.4623,26.6318 L 21.51,26.5863
 L 21.5522,26.5308 L 21.5888,26.4653 L 21.5943,26.4653 L 21.5946,26.4951 L 21.5954,26.5276 L 21.5969,26.5629
 L 21.599,26.6009 L 21.6013,26.6367 L 21.6036,26.6653 L 21.6057,26.6868 L 21.6078,26.7012 L 21.8411,26.7012
 L 21.8375,26.6549 L 21.835,26.589 L 21.8335,26.5037 L 21.833,26.3988 L 21.833,24.6886 L 21.5888,24.6886
 L 21.5888,25.2975 L 21.5916,25.4616 L 21.5888,25.4616 L 21.5522,25.3997 L 21.5102,25.3467 L 21.4627,25.3027
 L 21.4098,25.2677 L 21.3507,25.241 L 21.2847,25.2219 L 21.2117,25.2105 L 21.1318,25.2067 L 20.8956,25.2547
 L 20.7269,25.3986 L 20.6257,25.6385 L 20.592,25.9743 L 20.6002,26.1521 L 20.6247,26.3059 L 20.6656,26.4356
 L 20.7229,26.5412 L 20.7975,26.6231 L 20.8905,26.6816 L 21.002,26.7167 L 21.1318,26.7284 z
M 21.109,26.5315 L 21.0365,26.5066 L 20.9767,26.4651 L 20.9297,26.4069 L 20.8941,26.3295 L 20.8687,26.2303
 L 20.8534,26.1092 L 20.8483,25.9662 L 20.8535,25.8236 L 20.8688,25.7022 L 20.8945,25.6021 L 20.9304,25.5234
 L 20.9778,25.4637 L 21.038,25.4211 L 21.1111,25.3956 L 21.1969,25.3871 L 21.2923,25.3955 L 21.3739,25.421
 L 21.4415,25.4633 L 21.4953,25.5227 L 21.5362,25.6002 L 21.5654,25.6973 L 21.583,25.8138 L 21.5888,25.9499
 L 21.583,26.0912 L 21.5654,26.2126 L 21.5362,26.3143 L 21.4953,26.3961 L 21.4413,26.459 L 21.3732,26.5039
 L 21.2908,26.5309 L 21.1942,26.5398 z
M 22.4207,25.836 L 22.4272,25.7401 L 22.4467,25.6546 L 22.4791,25.5794 L 22.5245,25.5146 L 22.5806,25.4623
 L 22.6454,25.425 L 22.7186,25.4027 L 22.8005,25.3952 L 22.855,25.3974 L 22.9032,25.404 L 22.9452,25.415
 L 22.9809,25.4305 L 23.0111,25.4506 L 23.0368,25.4757 L 23.0579,25.5059 L 23.0744,25.541 L 23.0869,25.5836
 L 23.0958,25.6361 L 23.1011,25.6985 L 23.1029,25.7709 L 23.1029,26.7012 L 23.3484,26.7012 L 23.3484,25.7234
 L 23.3413,25.5938 L 23.3201,25.4842 L 23.2847,25.3947 L 23.2352,25.3254 L 23.1707,25.2734 L 23.0905,25.2363
 L 22.9947,25.2141 L 22.8832,25.2067 L 22.8021,25.2109 L 22.7284,25.2235 L 22.6621,25.2444 L 22.6031,25.2738
 L 22.5499,25.3122 L 22.5006,25.3601 L 22.4553,25.4176 L 22.414,25.4847 L 22.4099,25.4847 L 22.4108,25.4733
 L 22.4121,25.4525 L 22.4138,25.4224 L 22.416,25.383 L 22.4181,25.3392 L 22.4195,25.2962 L 22.4204,25.2538
 L 22.4207,25.2121 L 22.4207,24.6886 L 22.1766,24.6886 L 22.1766,26.7012 L 22.4207,26.7012 z
M 38.5496,24.6886 L 38.3054,24.6886 L 38.3054,24.9219 L 38.5496,24.9219 z
M -13.0177,24.6886 L -13.2618,24.6886 L -13.2618,26.7012 L -13.0177,26.7012 z
M 41.4201,25.836 L 41.4265,25.7401 L 41.446,25.6546 L 41.4784,25.5794 L 41.5238,25.5146 L 41.58,25.4623
 L 41.6447,25.425 L 41.718,25.4027 L 41.7998,25.3952 L 41.8543,25.3974 L 41.9025,25.404 L 41.9445,25.415
 L 41.9802,25.4305 L 42.0104,25.4506 L 42.0361,25.4757 L 42.0572,25.5059 L 42.0737,25.541 L 42.0862,25.5836
 L 42.0951,25.6361 L 42.1004,25.6985 L 42.1022,25.7709 L 42.1022,26.7012 L 42.3477,26.7012 L 42.3477,25.7234
 L 42.3406,25.5938 L 42.3194,25.4842 L 42.284,25.3947 L 42.2345,25.3254 L 42.17,25.2734 L 42.0899,25.2363
 L 41.994,25.2141 L 41.8825,25.2067 L 41.8015,25.2109 L 41.7277,25.2235 L 41.6614,25.2444 L 41.6024,25.2738
 L 41.5492,25.3122 L 41.4999,25.3601 L 41.4546,25.4176 L 41.4133,25.4847 L 41.4092,25.4847 L 41.4101,25.4733
 L 41.4114,25.4525 L 41.4131,25.4224 L 41.4153,25.383 L 41.4174,25.3392 L 41.4189,25.2962 L 41.4198,25.2538
 L 41.4201,25.2121 L 41.4201,24.6886 L 41.1759,24.6886 L 41.1759,26.7012 L 41.4201,26.7012 z
M 8.39096,24.6886 L 8.14682,24.6886 L 8.14682,24.9219 L 8.39096,24.9219 z
M 26.7876,24.6886 L 26.5434,24.6886 L 26.5434,24.9219 L 26.7876,24.9219 z
M 9.75409,25.836 L 9.76057,25.7401 L 9.78003,25.6546 L 9.81244,25.5794 L 9.85783,25.5146 L 9.91399,25.4623
 L 9.97871,25.425 L 10.052,25.4027 L 10.1338,25.3952 L 10.1883,25.3974 L 10.2366,25.404 L 10.2785,25.415
 L 10.3142,25.4305 L 10.3445,25.4506 L 10.3702,25.4757 L 10.3913,25.5059 L 10.4078,25.541 L 10.4203,25.5836
 L 10.4292,25.6361 L 10.4345,25.6985 L 10.4363,25.7709 L 10.4363,26.7012 L 10.6817,26.7012 L 10.6817,25.7234
 L 10.6747,25.5938 L 10.6534,25.4842 L 10.6181,25.3947 L 10.5685,25.3254 L 10.504,25.2734 L 10.4239,25.2363
 L 10.3281,25.2141 L 10.2166,25.2067 L 10.1355,25.2109 L 10.0618,25.2235 L 9.99545,25.2444 L 9.93649,25.2738
 L 9.88322,25.3122 L 9.83394,25.3601 L 9.78864,25.4176 L 9.74731,25.4847 L 9.74323,25.4847 L 9.74413,25.4733
 L 9.74544,25.4525 L 9.74718,25.4224 L 9.74933,25.383 L 9.75142,25.3392 L 9.7529,25.2962 L 9.7538,25.2538
 L 9.75409,25.2121 L 9.75409,24.6886 L 9.50995,24.6886 L 9.50995,26.7012 L 9.75409,26.7012 z
M 32.5231,25.836 L 32.5295,25.7401 L 32.549,25.6546 L 32.5814,25.5794 L 32.6268,25.5146 L 32.683,25.4623
 L 32.7477,25.425 L 32.821,25.4027 L 32.9028,25.3952 L 32.9573,25.3974 L 33.0055,25.404 L 33.0475,25.415
 L 33.0832,25.4305 L 33.1134,25.4506 L 33.1391,25.4757 L 33.1602,25.5059 L 33.1768,25.541 L 33.1892,25.5836
 L 33.1981,25.6361 L 33.2035,25.6985 L 33.2052,25.7709 L 33.2052,26.7012 L 33.4507,26.7012 L 33.4507,25.7234
 L 33.4436,25.5938 L 33.4224,25.4842 L 33.387,25.3947 L 33.3375,25.3254 L 33.273,25.2734 L 33.1929,25.2363
 L 33.097,25.2141 L 32.9855,25.2067 L 32.9045,25.2109 L 32.8307,25.2235 L 32.7644,25.2444 L 32.7055,25.2738
 L 32.6522,25.3122 L 32.6029,25.3601 L 32.5576,25.4176 L 32.5163,25.4847 L 32.5122,25.4847 L 32.5131,25.4733
 L 32.5144,25.4525 L 32.5161,25.4224 L 32.5183,25.383 L 32.5204,25.3392 L 32.5219,25.2962 L 32.5228,25.2538
 L 32.5231,25.2121 L 32.5231,24.6886 L 32.2789,24.6886 L 32.2789,26.7012 L 32.5231,26.7012 z
M 0.610626,25.4115 L 0.896805,25.4115 L 0.896805,25.2338 L 0.610626,25.2338 L 0.610626,25.1022 L 0.613251,25.0447
 L 0.62114,24.9968 L 0.634277,24.9586 L 0.652664,24.93 L 0.67691,24.9092 L 0.707596,24.8944 L 0.744736,24.8855
 L 0.7883,24.8825 L 0.812881,24.8832 L 0.839157,24.8852 L 0.867126,24.8886 L 0.896805,24.8934 L 0.896805,24.7076
 L 0.859589,24.7005 L 0.818481,24.6954 L 0.773468,24.6923 L 0.724564,24.6913 L 0.639542,24.6968 L 0.566223,24.7133
 L 0.504593,24.7409 L 0.454666,24.7795 L 0.416092,24.8306 L 0.38855,24.8958 L 0.372009,24.975 L 0.366501,25.0683
 L 0.366501,25.2338 L 0.16037,25.2338 L 0.16037,25.4115 L 0.366501,25.4115 L 0.366501,26.7012 L 0.610626,26.7012
 z
M 37.8556,25.4115 L 38.1418,25.4115 L 38.1418,25.2338 L 37.8556,25.2338 L 37.8556,25.1022 L 37.8582,25.0447
 L 37.8661,24.9968 L 37.8792,24.9586 L 37.8976,24.93 L 37.9219,24.9092 L 37.9525,24.8944 L 37.9897,24.8855
 L 38.0332,24.8825 L 38.0578,24.8832 L 38.0841,24.8852 L 38.1121,24.8886 L 38.1418,24.8934 L 38.1418,24.7076
 L 38.1045,24.7005 L 38.0634,24.6954 L 38.0184,24.6923 L 37.9695,24.6913 L 37.8845,24.6968 L 37.8112,24.7133
 L 37.7495,24.7409 L 37.6996,24.7795 L 37.661,24.8306 L 37.6335,24.8958 L 37.617,24.975 L 37.6115,25.0683
 L 37.6115,25.2338 L 37.4053,25.2338 L 37.4053,25.4115 L 37.6115,25.4115 L 37.6115,26.7012 L 37.8556,26.7012
 z
M -8.58571,25.4115 L -8.29953,25.4115 L -8.29953,25.2338 L -8.58571,25.2338 L -8.58571,25.1022 L -8.58308,25.0447
 L -8.5752,24.9968 L -8.56206,24.9586 L -8.54367,24.93 L -8.51941,24.9092 L -8.48872,24.8944 L -8.4516,24.8855
 L -8.40802,24.8825 L -8.38345,24.8832 L -8.35716,24.8852 L -8.32919,24.8886 L -8.29953,24.8934 L -8.29953,24.7076
 L -8.33673,24.7005 L -8.37784,24.6954 L -8.42285,24.6923 L -8.47177,24.6913 L -8.55679,24.6968 L -8.63011,24.7133
 L -8.69174,24.7409 L -8.74167,24.7795 L -8.78023,24.8306 L -8.80779,24.8958 L -8.82431,24.975 L -8.82982,25.0683
 L -8.82982,25.2338 L -9.03596,25.2338 L -9.03596,25.4115 L -8.82982,25.4115 L -8.82982,26.7012 L -8.58571,26.7012
 z
M -2.47739,26.7209 L -2.41534,26.7148 L -2.35397,26.7046 L -2.29327,26.6904 L -2.29327,26.51 L -2.33669,26.5183
 L -2.37465,26.5242 L -2.4072,26.5278 L -2.43433,26.529 L -2.47388,26.5263 L -2.50706,26.5183 L -2.53389,26.505
 L -2.55437,26.4863 L -2.56949,26.461 L -2.58029,26.4278 L -2.58678,26.3867 L -2.58894,26.3378 L -2.58894,25.4115
 L -2.31769,25.4115 L -2.31769,25.2338 L -2.58894,25.2338 L -2.58894,24.9056 L -2.75168,24.9056 L -2.82358,25.2338
 L -3.00259,25.2338 L -3.00259,25.4115 L -2.83305,25.4115 L -2.83305,26.3907 L -2.81476,26.536 L -2.75983,26.6399
 L -2.66829,26.7022 L -2.54012,26.7229 z
M 40.7969,26.7209 L 40.859,26.7148 L 40.9203,26.7046 L 40.981,26.6904 L 40.981,26.51 L 40.9376,26.5183
 L 40.8996,26.5242 L 40.8671,26.5278 L 40.84,26.529 L 40.8004,26.5263 L 40.7672,26.5183 L 40.7404,26.505
 L 40.7199,26.4863 L 40.7048,26.461 L 40.694,26.4278 L 40.6875,26.3867 L 40.6854,26.3378 L 40.6854,25.4115
 L 40.9566,25.4115 L 40.9566,25.2338 L 40.6854,25.2338 L 40.6854,24.9056 L 40.5226,24.9056 L 40.4507,25.2338
 L 40.2717,25.2338 L 40.2717,25.4115 L 40.4412,25.4115 L 40.4412,26.3907 L 40.4595,26.536 L 40.5145,26.6399
 L 40.606,26.7022 L 40.7342,26.7229 z
M 39.2896,26.7209 L 39.3516,26.7148 L 39.413,26.7046 L 39.4737,26.6904 L 39.4737,26.51 L 39.4303,26.5183
 L 39.3923,26.5242 L 39.3598,26.5278 L 39.3326,26.529 L 39.2931,26.5263 L 39.2599,26.5183 L 39.2331,26.505
 L 39.2126,26.4863 L 39.1975,26.461 L 39.1867,26.4278 L 39.1802,26.3867 L 39.178,26.3378 L 39.178,25.4115
 L 39.4493,25.4115 L 39.4493,25.2338 L 39.178,25.2338 L 39.178,24.9056 L 39.0153,24.9056 L 38.9434,25.2338
 L 38.7644,25.2338 L 38.7644,25.4115 L 38.9339,25.4115 L 38.9339,26.3907 L 38.9522,26.536 L 39.0071,26.6399
 L 39.0987,26.7022 L 39.2268,26.7229 z
M 31.8999,26.7209 L 31.962,26.7148 L 32.0233,26.7046 L 32.084,26.6904 L 32.084,26.51 L 32.0406,26.5183
 L 32.0027,26.5242 L 31.9701,26.5278 L 31.943,26.529 L 31.9034,26.5263 L 31.8703,26.5183 L 31.8434,26.505
 L 31.823,26.4863 L 31.8078,26.461 L 31.797,26.4278 L 31.7905,26.3867 L 31.7884,26.3378 L 31.7884,25.4115
 L 32.0596,25.4115 L 32.0596,25.2338 L 31.7884,25.2338 L 31.7884,24.9056 L 31.6256,24.9056 L 31.5537,25.2338
 L 31.3747,25.2338 L 31.3747,25.4115 L 31.5443,25.4115 L 31.5443,26.3907 L 31.5626,26.536 L 31.6175,26.6399
 L 31.709,26.7022 L 31.8372,26.7229 z
M 9.13095,26.7209 L 9.19299,26.7148 L 9.25436,26.7046 L 9.31506,26.6904 L 9.31506,26.51 L 9.27167,26.5183
 L 9.23369,26.5242 L 9.20114,26.5278 L 9.17403,26.529 L 9.13448,26.5263 L 9.10127,26.5183 L 9.07445,26.505
 L 9.05399,26.4863 L 9.03885,26.461 L 9.02805,26.4278 L 9.02156,26.3867 L 9.01939,26.3378 L 9.01939,25.4115
 L 9.29066,25.4115 L 9.29066,25.2338 L 9.01939,25.2338 L 9.01939,24.9056 L 8.85666,24.9056 L 8.78476,25.2338
 L 8.60574,25.2338 L 8.60574,25.4115 L 8.77528,25.4115 L 8.77528,26.3907 L 8.79359,26.536 L 8.84851,26.6399
 L 8.94006,26.7022 L 9.06822,26.7229 z
M 68.6502,24.9858 L 65.3171,24.9858 L 65.3171,25.2087 L 68.6502,25.2087 z
M 24.4889,26.7067 L 24.6594,26.6416 L 24.788,26.5331 L 24.8747,26.3812 L 24.6604,26.3201 L 24.6396,26.3669
 L 24.6111,26.4093 L 24.5748,26.4475 L 24.5309,26.4815 L 24.4791,26.5094 L 24.4195,26.5293 L 24.352,26.5413
 L 24.2766,26.5453 L 24.1822,26.5367 L 24.0999,26.511 L 24.0296,26.4682 L 23.9714,26.4083 L 23.9257,26.3326
 L 23.8931,26.2425 L 23.8735,26.138 L 23.867,26.019 L 24.914,26.019 L 24.914,25.9865 L 24.8736,25.6453
 L 24.7523,25.4016 L 24.5501,25.2554 L 24.2671,25.2067 L 24.1182,25.2188 L 23.9875,25.2552 L 23.8751,25.3158
 L 23.7809,25.4006 L 23.7064,25.5082 L 23.6532,25.6369 L 23.6213,25.7869 L 23.6107,25.958 L 23.6213,26.1375
 L 23.6532,26.2934 L 23.7064,26.4257 L 23.7809,26.5344 L 23.8757,26.6193 L 23.9899,26.6799 L 24.1235,26.7162
 L 24.2766,26.7284 z
M 23.8697,25.8319 L 23.8797,25.7337 L 23.9017,25.6466 L 23.9357,25.5706 L 23.9816,25.5057 L 24.0381,25.4538
 L 24.1038,25.4167 L 24.1788,25.3945 L 24.263,25.3871 L 24.3492,25.3937 L 24.4247,25.4137 L 24.4896,25.4469
 L 24.5437,25.4935 L 24.5877,25.5546 L 24.6221,25.6313 L 24.6467,25.7238 L 24.6617,25.8319 z
M 49.9719,26.7067 L 50.1423,26.6416 L 50.2709,26.5331 L 50.3577,26.3812 L 50.1434,26.3201 L 50.1226,26.3669
 L 50.094,26.4093 L 50.0578,26.4475 L 50.0138,26.4815 L 49.9621,26.5094 L 49.9025,26.5293 L 49.835,26.5413
 L 49.7596,26.5453 L 49.6652,26.5367 L 49.5829,26.511 L 49.5126,26.4682 L 49.4544,26.4083 L 49.4087,26.3326
 L 49.3761,26.2425 L 49.3565,26.138 L 49.35,26.019 L 50.397,26.019 L 50.397,25.9865 L 50.3566,25.6453
 L 50.2353,25.4016 L 50.0331,25.2554 L 49.7501,25.2067 L 49.6012,25.2188 L 49.4705,25.2552 L 49.3581,25.3158
 L 49.2638,25.4006 L 49.1894,25.5082 L 49.1362,25.6369 L 49.1043,25.7869 L 49.0936,25.958 L 49.1043,26.1375
 L 49.1362,26.2934 L 49.1894,26.4257 L 49.2638,26.5344 L 49.3587,26.6193 L 49.4729,26.6799 L 49.6065,26.7162
 L 49.7596,26.7284 z
M 49.3527,25.8319 L 49.3627,25.7337 L 49.3847,25.6466 L 49.4187,25.5706 L 49.4646,25.5057 L 49.5211,25.4538
 L 49.5868,25.4167 L 49.6618,25.3945 L 49.746,25.3871 L 49.8322,25.3937 L 49.9077,25.4137 L 49.9725,25.4469
 L 50.0267,25.4935 L 50.0707,25.5546 L 50.105,25.6313 L 50.1297,25.7238 L 50.1447,25.8319 z
M 19.6137,26.724 L 19.6925,26.7109 L 19.7646,26.6891 L 19.83,26.6585 L 19.8901,26.6175 L 19.9464,26.5641
 L 19.9989,26.4984 L 20.0477,26.4205 L 20.0558,26.4205 L 20.0632,26.4914 L 20.0773,26.5522 L 20.0981,26.603
 L 20.1256,26.6436 L 20.1611,26.6748 L 20.2058,26.697 L 20.2598,26.7104 L 20.323,26.7148 L 20.3708,26.7134
 L 20.4182,26.7094 L 20.4651,26.7026 L 20.5115,26.6931 L 20.5115,26.5412 L 20.4897,26.5454 L 20.4691,26.5483
 L 20.4497,26.5501 L 20.4315,26.5507 L 20.3947,26.5473 L 20.3643,26.537 L 20.3404,26.5198 L 20.323,26.4958
 L 20.3105,26.465 L 20.3016,26.4275 L 20.2962,26.3832 L 20.2945,26.3323 L 20.2945,25.7003 L 20.2857,25.5874
 L 20.2595,25.4886 L 20.2159,25.404 L 20.1548,25.3335 L 20.0764,25.278 L 19.9808,25.2384 L 19.8682,25.2146
 L 19.7384,25.2067 L 19.5043,25.2314 L 19.3281,25.3057 L 19.21,25.4294 L 19.1498,25.6027 L 19.4048,25.6258
 L 19.416,25.5689 L 19.4346,25.5203 L 19.4607,25.4801 L 19.4943,25.4481 L 19.5372,25.4238 L 19.5913,25.4064
 L 19.6565,25.396 L 19.733,25.3925 L 19.8089,25.3973 L 19.874,25.4118 L 19.9283,25.436 L 19.9717,25.4698
 L 20.0049,25.5148 L 20.0287,25.5725 L 20.0429,25.643 L 20.0477,25.7261 L 20.0477,25.8061 L 19.7181,25.8116
 L 19.5627,25.8228 L 19.4304,25.8482 L 19.321,25.8878 L 19.2346,25.9418 L 19.169,26.0094 L 19.1222,26.0903
 L 19.0941,26.1843 L 19.0847,26.2917 L 19.0917,26.388 L 19.1125,26.4734 L 19.1473,26.548 L 19.1959,26.6117
 L 19.2584,26.6628 L 19.3346,26.6992 L 19.4245,26.7211 L 19.5282,26.7284 z
M 19.5276,26.5412 L 19.4782,26.529 L 19.4357,26.5087 L 19.4,26.4802 L 19.3718,26.4442 L 19.3517,26.4015
 L 19.3396,26.352 L 19.3356,26.2957 L 19.3386,26.2434 L 19.3475,26.1964 L 19.3623,26.1546 L 19.3831,26.1181
 L 19.4094,26.0864 L 19.4409,26.0591 L 19.4775,26.0362 L 19.5194,26.0177 L 19.569,26.0033 L 19.6291,25.9926
 L 19.6996,25.9857 L 19.7805,25.9824 L 20.0477,25.977 L 20.0477,26.0977 L 20.0439,26.1536 L 20.0326,26.2088
 L 20.0137,26.2631 L 19.9873,26.3167 L 19.9543,26.3671 L 19.9159,26.4118 L 19.8719,26.4509 L 19.8225,26.4842
 L 19.7684,26.5109 L 19.7106,26.53 L 19.6491,26.5415 L 19.5838,26.5453 z
M 4.73595,26.7067 L 4.9064,26.6416 L 5.035,26.5331 L 5.12172,26.3812 L 4.90744,26.3201 L 4.88661,26.3669
 L 4.85809,26.4093 L 4.82185,26.4475 L 4.77789,26.4815 L 4.72615,26.5094 L 4.66652,26.5293 L 4.59901,26.5413
 L 4.52362,26.5453 L 4.42926,26.5367 L 4.34695,26.511 L 4.27667,26.4682 L 4.21843,26.4083 L 4.17274,26.3326
 L 4.14012,26.2425 L 4.12054,26.138 L 4.11401,26.019 L 5.16106,26.019 L 5.16106,25.9865 L 5.12062,25.6453
 L 4.99931,25.4016 L 4.79715,25.2554 L 4.51411,25.2067 L 4.36522,25.2188 L 4.23456,25.2552 L 4.12212,25.3158
 L 4.02789,25.4006 L 3.95343,25.5082 L 3.90024,25.6369 L 3.86833,25.7869 L 3.8577,25.958 L 3.86833,26.1375
 L 3.90024,26.2934 L 3.95343,26.4257 L 4.02789,26.5344 L 4.12271,26.6193 L 4.23694,26.6799 L 4.37057,26.7162
 L 4.52362,26.7284 z
M 4.11673,25.8319 L 4.12679,25.7337 L 4.14877,25.6466 L 4.18272,25.5706 L 4.22862,25.5057 L 4.28511,25.4538
 L 4.35086,25.4167 L 4.42584,25.3945 L 4.51006,25.3871 L 4.59625,25.3937 L 4.67177,25.4137 L 4.73662,25.4469
 L 4.79077,25.4935 L 4.83478,25.5546 L 4.86911,25.6313 L 4.89377,25.7238 L 4.90877,25.8319 z
M 15.995,26.724 L 16.0738,26.7109 L 16.1459,26.6891 L 16.2113,26.6585 L 16.2714,26.6175 L 16.3278,26.5641
 L 16.3803,26.4984 L 16.429,26.4205 L 16.4371,26.4205 L 16.4445,26.4914 L 16.4586,26.5522 L 16.4794,26.603
 L 16.5069,26.6436 L 16.5424,26.6748 L 16.5871,26.697 L 16.6411,26.7104 L 16.7043,26.7148 L 16.7522,26.7134
 L 16.7996,26.7094 L 16.8464,26.7026 L 16.8928,26.6931 L 16.8928,26.5412 L 16.871,26.5454 L 16.8504,26.5483
 L 16.831,26.5501 L 16.8128,26.5507 L 16.776,26.5473 L 16.7457,26.537 L 16.7217,26.5198 L 16.7043,26.4958
 L 16.6918,26.465 L 16.6829,26.4275 L 16.6776,26.3832 L 16.6758,26.3323 L 16.6758,25.7003 L 16.6671,25.5874
 L 16.6409,25.4886 L 16.5972,25.404 L 16.5361,25.3335 L 16.4577,25.278 L 16.3622,25.2384 L 16.2495,25.2146
 L 16.1197,25.2067 L 15.8856,25.2314 L 15.7095,25.3057 L 15.5913,25.4294 L 15.5311,25.6027 L 15.7861,25.6258
 L 15.7973,25.5689 L 15.8159,25.5203 L 15.842,25.4801 L 15.8756,25.4481 L 15.9185,25.4238 L 15.9726,25.4064
 L 16.0379,25.396 L 16.1143,25.3925 L 16.1903,25.3973 L 16.2554,25.4118 L 16.3096,25.436 L 16.353,25.4698
 L 16.3862,25.5148 L 16.41,25.5725 L 16.4242,25.643 L 16.429,25.7261 L 16.429,25.8061 L 16.0994,25.8116
 L 15.9441,25.8228 L 15.8117,25.8482 L 15.7023,25.8878 L 15.6159,25.9418 L 15.5503,26.0094 L 15.5035,26.0903
 L 15.4754,26.1843 L 15.466,26.2917 L 15.473,26.388 L 15.4938,26.4734 L 15.5286,26.548 L 15.5772,26.6117
 L 15.6397,26.6628 L 15.7159,26.6992 L 15.8058,26.7211 L 15.9095,26.7284 z
M 15.9089,26.5412 L 15.8595,26.529 L 15.817,26.5087 L 15.7814,26.4802 L 15.7532,26.4442 L 15.733,26.4015
 L 15.721,26.352 L 15.7169,26.2957 L 15.7199,26.2434 L 15.7288,26.1964 L 15.7436,26.1546 L 15.7644,26.1181
 L 15.7907,26.0864 L 15.8222,26.0591 L 15.8589,26.0362 L 15.9007,26.0177 L 15.9503,26.0033 L 16.0104,25.9926
 L 16.0809,25.9857 L 16.1618,25.9824 L 16.429,25.977 L 16.429,26.0977 L 16.4252,26.1536 L 16.4139,26.2088
 L 16.395,26.2631 L 16.3686,26.3167 L 16.3357,26.3671 L 16.2972,26.4118 L 16.2533,26.4509 L 16.2038,26.4842
 L 16.1497,26.5109 L 16.0919,26.53 L 16.0304,26.5415 L 15.9651,26.5453 z
M 14.8814,25.9363 L 14.8864,25.8214 L 14.9014,25.7205 L 14.9264,25.6339 L 14.9614,25.5613 L 15.0059,25.5041
 L 15.0594,25.4632 L 15.1219,25.4386 L 15.1934,25.4305 L 15.232,25.4313 L 15.2666,25.4339 L 15.2971,25.4381
 L 15.3236,25.444 L 15.3236,25.2202 L 15.2985,25.2143 L 15.2737,25.2101 L 15.249,25.2075 L 15.2245,25.2067
 L 15.1593,25.211 L 15.1018,25.224 L 15.0521,25.2456 L 15.0102,25.2758 L 14.9734,25.3179 L 14.9387,25.3748
 L 14.9062,25.4467 L 14.876,25.5335 L 14.8706,25.5335 L 14.8699,25.496 L 14.8678,25.4335 L 14.8645,25.3461
 L 14.8597,25.2338 L 14.6292,25.2338 L 14.6327,25.3253 L 14.6352,25.4128 L 14.6368,25.4962 L 14.6373,25.5756
 L 14.6373,26.7012 L 14.8814,26.7012 z
M 29.3129,26.7067 L 29.4834,26.6416 L 29.612,26.5331 L 29.6987,26.3812 L 29.4844,26.3201 L 29.4636,26.3669
 L 29.4351,26.4093 L 29.3988,26.4475 L 29.3549,26.4815 L 29.3031,26.5094 L 29.2435,26.5293 L 29.176,26.5413
 L 29.1006,26.5453 L 29.0062,26.5367 L 28.9239,26.511 L 28.8537,26.4682 L 28.7954,26.4083 L 28.7497,26.3326
 L 28.7171,26.2425 L 28.6975,26.138 L 28.691,26.019 L 29.738,26.019 L 29.738,25.9865 L 29.6976,25.6453
 L 29.5763,25.4016 L 29.3741,25.2554 L 29.0911,25.2067 L 28.9422,25.2188 L 28.8115,25.2552 L 28.6991,25.3158
 L 28.6049,25.4006 L 28.5304,25.5082 L 28.4772,25.6369 L 28.4453,25.7869 L 28.4347,25.958 L 28.4453,26.1375
 L 28.4772,26.2934 L 28.5304,26.4257 L 28.6049,26.5344 L 28.6997,26.6193 L 28.8139,26.6799 L 28.9475,26.7162
 L 29.1006,26.7284 z
M 28.6937,25.8319 L 28.7038,25.7337 L 28.7258,25.6466 L 28.7597,25.5706 L 28.8056,25.5057 L 28.8621,25.4538
 L 28.9278,25.4167 L 29.0028,25.3945 L 29.087,25.3871 L 29.1732,25.3937 L 29.2487,25.4137 L 29.3136,25.4469
 L 29.3678,25.4935 L 29.4117,25.5546 L 29.4461,25.6313 L 29.4707,25.7238 L 29.4857,25.8319 z
M 34.5912,26.7067 L 34.7617,26.6416 L 34.8903,26.5331 L 34.977,26.3812 L 34.7627,26.3201 L 34.7419,26.3669
 L 34.7134,26.4093 L 34.6771,26.4475 L 34.6332,26.4815 L 34.5815,26.5094 L 34.5218,26.5293 L 34.4543,26.5413
 L 34.3789,26.5453 L 34.2846,26.5367 L 34.2022,26.511 L 34.132,26.4682 L 34.0737,26.4083 L 34.028,26.3326
 L 33.9954,26.2425 L 33.9758,26.138 L 33.9693,26.019 L 35.0164,26.019 L 35.0164,25.9865 L 34.9759,25.6453
 L 34.8546,25.4016 L 34.6525,25.2554 L 34.3694,25.2067 L 34.2205,25.2188 L 34.0899,25.2552 L 33.9774,25.3158
 L 33.8832,25.4006 L 33.8087,25.5082 L 33.7555,25.6369 L 33.7236,25.7869 L 33.713,25.958 L 33.7236,26.1375
 L 33.7555,26.2934 L 33.8087,26.4257 L 33.8832,26.5344 L 33.978,26.6193 L 34.0922,26.6799 L 34.2259,26.7162
 L 34.3789,26.7284 z
M 33.972,25.8319 L 33.9821,25.7337 L 34.0041,25.6466 L 34.038,25.5706 L 34.0839,25.5057 L 34.1404,25.4538
 L 34.2061,25.4167 L 34.2811,25.3945 L 34.3654,25.3871 L 34.4516,25.3937 L 34.5271,25.4137 L 34.5919,25.4469
 L 34.6461,25.4935 L 34.6901,25.5546 L 34.7244,25.6313 L 34.7491,25.7238 L 34.7641,25.8319 z
M 35.5404,25.8509 L 35.5467,25.7496 L 35.5658,25.66 L 35.5976,25.5821 L 35.6421,25.5159 L 35.6976,25.4631
 L 35.7625,25.4254 L 35.8366,25.4027 L 35.9201,25.3952 L 35.9768,25.3974 L 36.0262,25.404 L 36.0683,25.415
 L 36.1032,25.4305 L 36.1323,25.4509 L 36.1571,25.4769 L 36.1777,25.5085 L 36.1941,25.5457 L 36.2065,25.5898
 L 36.2154,25.642 L 36.2208,25.7024 L 36.2225,25.7709 L 36.2225,26.7012 L 36.468,26.7012 L 36.468,25.7234
 L 36.461,25.5948 L 36.44,25.4859 L 36.4051,25.3965 L 36.3561,25.3267 L 36.2921,25.2742 L 36.2119,25.2367
 L 36.1154,25.2142 L 36.0028,25.2067 L 35.9241,25.2106 L 35.8521,25.2224 L 35.7868,25.2421 L 35.7282,25.2697
 L 35.6746,25.3068 L 35.6243,25.355 L 35.5773,25.4143 L 35.5336,25.4847 L 35.5295,25.4847 L 35.5282,25.4354
 L 35.527,25.3947 L 35.5258,25.3625 L 35.5248,25.3389 L 35.5229,25.3025 L 35.5207,25.2569 L 35.52,25.2463
 L 35.5193,25.2386 L 35.5187,25.2338 L 35.2881,25.2338 L 35.2917,25.2747 L 35.2942,25.3406 L 35.2957,25.4314
 L 35.2962,25.5471 L 35.2962,26.7012 L 35.5404,26.7012 z
M -5.95143,26.7205 L -5.85005,26.6968 L -5.75883,26.6574 L -5.6778,26.6022 L -5.60956,26.5338 L -5.55676,26.4547
 L -5.51938,26.365 L -5.49742,26.2645 L -5.74426,26.2483 L -5.75862,26.3167 L -5.78139,26.3757 L -5.81253,26.4252
 L -5.85208,26.4653 L -5.89848,26.4961 L -5.95024,26.5182 L -6.00732,26.5314 L -6.06976,26.5358 L -6.15681,26.527
 L -6.23218,26.5005 L -6.29584,26.4565 L -6.34779,26.3947 L -6.38815,26.3147 L -6.41696,26.2157 L -6.43425,26.0977
 L -6.44002,25.9607 L -6.4346,25.8192 L -6.41832,25.6997 L -6.39119,25.6022 L -6.35323,25.5268 L -6.30312,25.4704
 L -6.23962,25.4301 L -6.16275,25.4059 L -6.07246,25.3979 L -6.00533,25.4024 L -5.94633,25.4159 L -5.89548,25.4383
 L -5.85277,25.4698 L -5.81775,25.5089 L -5.79002,25.5542 L -5.76959,25.6058 L -5.75645,25.6637 L -5.50555,25.6447
 L -5.53145,25.5479 L -5.57117,25.462 L -5.62469,25.3871 L -5.69205,25.3233 L -5.77109,25.2723 L -5.8597,25.2358
 L -5.9579,25.214 L -6.06567,25.2067 L -6.20877,25.2188 L -6.33421,25.2553 L -6.44205,25.3161 L -6.53224,25.4013
 L -6.60344,25.5096 L -6.6543,25.6398 L -6.68481,25.792 L -6.69498,25.9662 L -6.68484,26.1415 L -6.65446,26.2945
 L -6.60382,26.4253 L -6.53291,26.5337 L -6.44276,26.6189 L -6.3344,26.6797 L -6.20779,26.7162 L -6.06299,26.7284
 z
M -4.46037,26.7067 L -4.28992,26.6416 L -4.16133,26.5331 L -4.07462,26.3812 L -4.28889,26.3201 L -4.30971,26.3669
 L -4.33824,26.4093 L -4.37448,26.4475 L -4.41843,26.4815 L -4.47017,26.5094 L -4.5298,26.5293 L -4.59732,26.5413
 L -4.67271,26.5453 L -4.76706,26.5367 L -4.84938,26.511 L -4.91965,26.4682 L -4.97789,26.4083 L -5.02357,26.3326
 L -5.05621,26.2425 L -5.07579,26.138 L -5.08231,26.019 L -4.03528,26.019 L -4.03528,25.9865 L -4.07571,25.6453
 L -4.19701,25.4016 L -4.39917,25.2554 L -4.68222,25.2067 L -4.8311,25.2188 L -4.96176,25.2552 L -5.07422,25.3158
 L -5.16843,25.4006 L -5.24289,25.5082 L -5.29608,25.6369 L -5.328,25.7869 L -5.33864,25.958 L -5.328,26.1375
 L -5.29608,26.2934 L -5.24289,26.4257 L -5.16843,26.5344 L -5.07362,26.6193 L -4.9594,26.6799 L -4.82576,26.7162
 L -4.67271,26.7284 z
M -5.07959,25.8319 L -5.06955,25.7337 L -5.04755,25.6466 L -5.01361,25.5706 L -4.96771,25.5057 L -4.91121,25.4538
 L -4.84547,25.4167 L -4.77049,25.3945 L -4.68628,25.3871 L -4.60007,25.3937 L -4.52455,25.4137 L -4.45972,25.4469
 L -4.40555,25.4935 L -4.36156,25.5546 L -4.32722,25.6313 L -4.30255,25.7238 L -4.28755,25.8319 z
M -1.37288,26.7166 L -1.24022,26.6812 L -1.12671,26.6223 L -1.03236,26.5398 L -0.958191,26.4333 L -0.905212,26.3022
 L -0.873428,26.1465 L -0.862823,25.9662 L -0.872742,25.7843 L -0.902496,25.628 L -0.952103,25.4971 L -1.02153,25.3918
 L -1.11197,25.3108 L -1.22462,25.253 L -1.35948,25.2182 L -1.51656,25.2067 L -1.80432,25.2542 L -2.00989,25.3965
 L -2.13322,25.6339 L -2.17433,25.9662 L -2.16408,26.1404 L -2.1333,26.2928 L -2.08202,26.4235 L -2.01022,26.5324
 L -1.91833,26.6181 L -1.80678,26.6794 L -1.67557,26.7161 L -1.52469,26.7284 z
M -1.6217,26.5389 L -1.70253,26.5115 L -1.76988,26.466 L -1.82375,26.4022 L -1.86499,26.3203 L -1.89444,26.2203
 L -1.91212,26.1022 L -1.91801,25.9662 L -1.91203,25.8269 L -1.8941,25.7073 L -1.86423,25.6075 L -1.82239,25.5274
 L -1.76717,25.466 L -1.6971,25.4221 L -1.61221,25.3958 L -1.51248,25.3871 L -1.4137,25.3957 L -1.33025,25.4215
 L -1.26213,25.4645 L -1.20937,25.5247 L -1.16991,25.6039 L -1.14172,25.7039 L -1.1248,25.8247 L -1.11917,25.9662
 L -1.12506,26.1061 L -1.14273,26.2262 L -1.1722,26.3265 L -1.21342,26.4069 L -1.2684,26.4686 L -1.33905,26.5127
 L -1.42538,26.5392 L -1.5274,26.548 z
M -7.67467,26.724 L -7.59587,26.7109 L -7.52377,26.6891 L -7.45837,26.6585 L -7.39822,26.6175 L -7.3419,26.5641
 L -7.28938,26.4984 L -7.24069,26.4205 L -7.23257,26.4205 L -7.22516,26.4914 L -7.21104,26.5522 L -7.19023,26.603
 L -7.16273,26.6436 L -7.12726,26.6748 L -7.08253,26.697 L -7.02858,26.7104 L -6.96538,26.7148 L -6.91748,26.7134
 L -6.8701,26.7094 L -6.82324,26.7026 L -6.77687,26.6931 L -6.77687,26.5412 L -6.79865,26.5454 L -6.81924,26.5483
 L -6.83865,26.5501 L -6.85687,26.5507 L -6.89366,26.5473 L -6.92401,26.537 L -6.94792,26.5198 L -6.96539,26.4958
 L -6.97786,26.465 L -6.98676,26.4275 L -6.9921,26.3832 L -6.99387,26.3323 L -6.99387,25.7003 L -7.00261,25.5874
 L -7.02879,25.4886 L -7.07245,25.404 L -7.13358,25.3335 L -7.21198,25.278 L -7.30751,25.2384 L -7.42015,25.2146
 L -7.54993,25.2067 L -7.78406,25.2314 L -7.96019,25.3057 L -8.07835,25.4294 L -8.13853,25.6027 L -7.88358,25.6258
 L -7.87238,25.5689 L -7.85373,25.5203 L -7.82762,25.4801 L -7.79405,25.4481 L -7.75116,25.4238 L -7.69708,25.4064
 L -7.63181,25.396 L -7.55536,25.3925 L -7.4794,25.3973 L -7.41429,25.4118 L -7.36005,25.436 L -7.31665,25.4698
 L -7.28342,25.5148 L -7.25969,25.5725 L -7.24544,25.643 L -7.24069,25.7261 L -7.24069,25.8061 L -7.57027,25.8116
 L -7.7256,25.8228 L -7.85797,25.8482 L -7.96736,25.8878 L -8.05377,25.9418 L -8.11934,26.0094 L -8.16617,26.0903
 L -8.19426,26.1843 L -8.20363,26.2917 L -8.19669,26.388 L -8.17583,26.4734 L -8.14108,26.548 L -8.09244,26.6117
 L -8.02995,26.6628 L -7.95375,26.6992 L -7.86382,26.7211 L -7.76015,26.7284 z
M -7.76077,26.5412 L -7.81017,26.529 L -7.85268,26.5087 L -7.88831,26.4802 L -7.9165,26.4442 L -7.93663,26.4015
 L -7.9487,26.352 L -7.95273,26.2957 L -7.94977,26.2434 L -7.94087,26.1964 L -7.92604,26.1546 L -7.90527,26.1181
 L -7.87895,26.0864 L -7.84746,26.0591 L -7.81081,26.0362 L -7.76897,26.0177 L -7.71935,26.0033 L -7.65927,25.9926
 L -7.58879,25.9857 L -7.50787,25.9824 L -7.24069,25.977 L -7.24069,26.0977 L -7.24446,26.1536 L -7.25578,26.2088
 L -7.27464,26.2631 L -7.30106,26.3167 L -7.33398,26.3671 L -7.37244,26.4118 L -7.41638,26.4509 L -7.46585,26.4842
 L -7.51993,26.5109 L -7.57773,26.53 L -7.63927,26.5415 L -7.70453,26.5453 z
M -10.3414,26.7067 L -10.1709,26.6416 L -10.0423,26.5331 L -9.95561,26.3812 L -10.1699,26.3201 L -10.1907,26.3669
 L -10.2192,26.4093 L -10.2555,26.4475 L -10.2994,26.4815 L -10.3512,26.5094 L -10.4108,26.5293 L -10.4783,26.5413
 L -10.5537,26.5453 L -10.6481,26.5367 L -10.7304,26.511 L -10.8006,26.4682 L -10.8589,26.4083 L -10.9046,26.3326
 L -10.9372,26.2425 L -10.9568,26.138 L -10.9633,26.019 L -9.91628,26.019 L -9.91628,25.9865 L -9.9567,25.6453
 L -10.078,25.4016 L -10.2802,25.2554 L -10.5632,25.2067 L -10.7121,25.2188 L -10.8428,25.2552 L -10.9552,25.3158
 L -11.0494,25.4006 L -11.1239,25.5082 L -11.1771,25.6369 L -11.209,25.7869 L -11.2196,25.958 L -11.209,26.1375
 L -11.1771,26.2934 L -11.1239,26.4257 L -11.0494,26.5344 L -10.9546,26.6193 L -10.8404,26.6799 L -10.7068,26.7162
 L -10.5537,26.7284 z
M -10.9606,25.8319 L -10.9505,25.7337 L -10.9285,25.6466 L -10.8946,25.5706 L -10.8487,25.5057 L -10.7922,25.4538
 L -10.7265,25.4167 L -10.6515,25.3945 L -10.5673,25.3871 L -10.4811,25.3937 L -10.4055,25.4137 L -10.3407,25.4469
 L -10.2865,25.4935 L -10.2426,25.5546 L -10.2082,25.6313 L -10.1835,25.7238 L -10.1685,25.8319 z
M 1.52167,26.724 L 1.60046,26.7109 L 1.67256,26.6891 L 1.73796,26.6585 L 1.7981,26.6175 L 1.85443,26.5641
 L 1.90694,26.4984 L 1.95564,26.4205 L 1.96376,26.4205 L 1.97118,26.4914 L 1.98529,26.5522 L 2.00609,26.603
 L 2.0336,26.6436 L 2.06908,26.6748 L 2.1138,26.697 L 2.16776,26.7104 L 2.23096,26.7148 L 2.27884,26.7134
 L 2.32622,26.7094 L 2.37309,26.7026 L 2.41945,26.6931 L 2.41945,26.5412 L 2.39767,26.5454 L 2.37709,26.5483
 L 2.35768,26.5501 L 2.33946,26.5507 L 2.30266,26.5473 L 2.27231,26.537 L 2.2484,26.5198 L 2.23094,26.4958
 L 2.21848,26.465 L 2.20958,26.4275 L 2.20424,26.3832 L 2.20245,26.3323 L 2.20245,25.7003 L 2.19373,25.5874
 L 2.16753,25.4886 L 2.12387,25.404 L 2.06276,25.3335 L 1.98436,25.278 L 1.88882,25.2384 L 1.77617,25.2146
 L 1.64639,25.2067 L 1.41228,25.2314 L 1.23613,25.3057 L 1.11798,25.4294 L 1.0578,25.6027 L 1.31276,25.6258
 L 1.32394,25.5689 L 1.34259,25.5203 L 1.3687,25.4801 L 1.40228,25.4481 L 1.44518,25.4238 L 1.49925,25.4064
 L 1.56451,25.396 L 1.64098,25.3925 L 1.71693,25.3973 L 1.78203,25.4118 L 1.83627,25.436 L 1.87967,25.4698
 L 1.9129,25.5148 L 1.93665,25.5725 L 1.95088,25.643 L 1.95564,25.7261 L 1.95564,25.8061 L 1.62605,25.8116
 L 1.47072,25.8228 L 1.33836,25.8482 L 1.22897,25.8878 L 1.14255,25.9418 L 1.077,26.0094 L 1.03017,26.0903
 L 1.00206,26.1843 L 0.992691,26.2917 L 0.999649,26.388 L 1.02049,26.4734 L 1.05525,26.548 L 1.1039,26.6117
 L 1.16637,26.6628 L 1.24257,26.6992 L 1.3325,26.7211 L 1.43617,26.7284 z
M 1.43555,26.5412 L 1.38617,26.529 L 1.34366,26.5087 L 1.30801,26.4802 L 1.27983,26.4442 L 1.2597,26.4015
 L 1.24762,26.352 L 1.24359,26.2957 L 1.24657,26.2434 L 1.25546,26.1964 L 1.27029,26.1546 L 1.29106,26.1181
 L 1.31738,26.0864 L 1.34888,26.0591 L 1.38553,26.0362 L 1.42735,26.0177 L 1.47699,26.0033 L 1.53705,25.9926
 L 1.60754,25.9857 L 1.68846,25.9824 L 1.95564,25.977 L 1.95564,26.0977 L 1.95186,26.1536 L 1.94055,26.2088
 L 1.92168,26.2631 L 1.89528,26.3167 L 1.86234,26.3671 L 1.8239,26.4118 L 1.77994,26.4509 L 1.73047,26.4842
 L 1.67641,26.5109 L 1.61859,26.53 L 1.55705,26.5415 L 1.49179,26.5453 z
M 3.2449,26.7205 L 3.34628,26.6968 L 3.43748,26.6574 L 3.51852,26.6022 L 3.58676,26.5338 L 3.63957,26.4547
 L 3.67696,26.365 L 3.69891,26.2645 L 3.45207,26.2483 L 3.4377,26.3167 L 3.41495,26.3757 L 3.38379,26.4252
 L 3.34425,26.4653 L 3.29784,26.4961 L 3.24609,26.5182 L 3.189,26.5314 L 3.12657,26.5358 L 3.03952,26.527
 L 2.96416,26.5005 L 2.9005,26.4565 L 2.84853,26.3947 L 2.80818,26.3147 L 2.77936,26.2157 L 2.76207,26.0977
 L 2.7563,25.9607 L 2.76173,25.8192 L 2.778,25.6997 L 2.80513,25.6022 L 2.84311,25.5268 L 2.8932,25.4704
 L 2.9567,25.4301 L 3.03358,25.4059 L 3.12387,25.3979 L 3.19099,25.4024 L 3.25,25.4159 L 3.30084,25.4383
 L 3.34357,25.4698 L 3.37859,25.5089 L 3.4063,25.5542 L 3.42673,25.6058 L 3.43987,25.6637 L 3.69077,25.6447
 L 3.66487,25.5479 L 3.62517,25.462 L 3.57164,25.3871 L 3.50429,25.3233 L 3.42525,25.2723 L 3.33662,25.2358
 L 3.23843,25.214 L 3.13065,25.2067 L 2.98756,25.2188 L 2.86211,25.2553 L 2.75429,25.3161 L 2.66409,25.4013
 L 2.5929,25.5096 L 2.54204,25.6398 L 2.51152,25.792 L 2.50134,25.9662 L 2.51147,26.1415 L 2.54185,26.2945
 L 2.5925,26.4253 L 2.66341,26.5337 L 2.75356,26.6189 L 2.86194,26.6797 L 2.98853,26.7162 L 3.13335,26.7284
 z
M 13.3673,26.704 L 13.367,26.6072 L 13.366,26.5365 L 13.3643,26.4919 L 13.3619,26.4734 L 13.3687,26.4734
 L 13.4409,26.5849 L 13.5409,26.6646 L 13.6687,26.7124 L 13.8244,26.7284 L 14.0605,26.6804 L 14.2292,26.5365
 L 14.3304,26.2966 L 14.3642,25.9607 L 14.3558,25.7791 L 14.3306,25.6234 L 14.2887,25.4936 L 14.2299,25.3898
 L 14.1542,25.3102 L 14.0614,25.2534 L 13.9514,25.2194 L 13.8244,25.208 L 13.7411,25.212 L 13.6664,25.2238
 L 13.6001,25.2435 L 13.5423,25.2711 L 13.4913,25.3072 L 13.4456,25.3523 L 13.4052,25.4065 L 13.37,25.4698
 L 13.3646,25.4698 L 13.3644,25.4542 L 13.3638,25.4332 L 13.3627,25.4067 L 13.3612,25.3749 L 13.3596,25.3425
 L 13.358,25.3147 L 13.3565,25.2913 L 13.3551,25.2725 L 13.3539,25.2576 L 13.3528,25.2462 L 13.3518,25.2383
 L 13.3511,25.2338 L 13.1151,25.2338 L 13.1186,25.28 L 13.1212,25.3454 L 13.1227,25.4299 L 13.1232,25.5335
 L 13.1232,27.2776 L 13.3673,27.2776 z
M 13.6627,26.5394 L 13.5806,26.5137 L 13.5129,26.4709 L 13.4595,26.411 L 13.4192,26.333 L 13.3904,26.2361
 L 13.3731,26.1201 L 13.3673,25.9852 L 13.37,25.8863 L 13.378,25.7971 L 13.3914,25.7178 L 13.41,25.6481
 L 13.4339,25.5876 L 13.4626,25.5357 L 13.4963,25.4924 L 13.5348,25.4576 L 13.5798,25.4309 L 13.6326,25.4118
 L 13.6934,25.4004 L 13.762,25.3965 L 13.8461,25.4048 L 13.918,25.4294 L 13.9776,25.4705 L 14.0251,25.5281
 L 14.0613,25.6048 L 14.0872,25.7034 L 14.1027,25.8239 L 14.1078,25.9662 L 14.1026,26.1122 L 14.087,26.2355
 L 14.0609,26.3363 L 14.0244,26.4144 L 13.9766,26.4728 L 13.9164,26.5146 L 13.844,26.5396 L 13.7593,26.548
 z
M 25.8275,26.7213 L 25.9451,26.7002 L 26.0469,26.6651 L 26.1331,26.6158 L 26.2016,26.5536 L 26.2506,26.4795
 L 26.28,26.3935 L 26.2897,26.2957 L 26.288,26.2548 L 26.283,26.2162 L 26.2745,26.1799 L 26.2626,26.1459
 L 26.2476,26.114 L 26.2299,26.084 L 26.2093,26.056 L 26.186,26.0299 L 26.159,26.0054 L 26.1275,25.9819
 L 26.0915,25.9596 L 26.051,25.9384 L 26.0015,25.9172 L 25.9385,25.8951 L 25.8618,25.8721 L 25.7717,25.8482
 L 25.6781,25.8244 L 25.6021,25.8034 L 25.5438,25.7851 L 25.5031,25.7695 L 25.4732,25.7545 L 25.4472,25.738
 L 25.425,25.7199 L 25.4068,25.7004 L 25.3926,25.6786 L 25.3824,25.6542 L 25.3763,25.6271 L 25.3743,25.5973
 L 25.3792,25.5496 L 25.3939,25.5084 L 25.4185,25.4737 L 25.4529,25.4454 L 25.4977,25.4234 L 25.5533,25.4077
 L 25.6198,25.3983 L 25.6971,25.3952 L 25.7679,25.3985 L 25.8312,25.4082 L 25.8869,25.4246 L 25.9351,25.4474
 L 25.9752,25.4764 L 26.0068,25.511 L 26.0298,25.5513 L 26.0443,25.5973 L 26.264,25.5701 L 26.2384,25.4823
 L 26.1997,25.4074 L 26.1479,25.3453 L 26.0829,25.2962 L 26.0051,25.2588 L 25.9149,25.2321 L 25.8122,25.2161
 L 25.6971,25.2107 L 25.5683,25.2173 L 25.4558,25.237 L 25.3597,25.2699 L 25.28,25.3159 L 25.2174,25.3744
 L 25.1727,25.4449 L 25.1459,25.5273 L 25.1369,25.6217 L 25.1401,25.6738 L 25.1495,25.7217 L 25.1651,25.7654
 L 25.1871,25.8048 L 25.2146,25.8407 L 25.2469,25.8738 L 25.2841,25.9041 L 25.3261,25.9316 L 25.3781,25.9578
 L 25.4453,25.9843 L 25.5277,26.011 L 25.6252,26.038 L 25.8001,26.0841 L 25.862,26.103 L 25.9147,26.1241
 L 25.9583,26.1477 L 25.9927,26.1737 L 26.0188,26.2028 L 26.0375,26.236 L 26.0487,26.2733 L 26.0524,26.3147
 L 26.047,26.3681 L 26.0309,26.4144 L 26.004,26.4536 L 25.9663,26.4856 L 25.917,26.5105 L 25.8552,26.5283
 L 25.781,26.539 L 25.6943,26.5426 L 25.6123,26.5391 L 25.5397,26.5288 L 25.4767,26.5117 L 25.4231,26.4876
 L 25.3784,26.4562 L 25.3421,26.4169 L 25.314,26.3698 L 25.2943,26.3147 L 25.0786,26.3568 L 25.1075,26.4461
 L 25.1493,26.5227 L 25.2041,26.5868 L 25.2719,26.6382 L 25.354,26.6776 L 25.4517,26.7058 L 25.5652,26.7227
 L 25.6943,26.7284 z
M -13.9456,27.239 L -13.7536,27.123 L -13.6384,26.9298 L -13.6,26.6592 L -13.6,25.5376 L -13.5995,25.4321
 L -13.598,25.3464 L -13.5954,25.2802 L -13.5919,25.2338 L -13.8238,25.2338 L -13.8265,25.2442 L -13.8292,25.266
 L -13.8319,25.2992 L -13.8346,25.3437 L -13.837,25.3901 L -13.8387,25.4291 L -13.8397,25.4606 L -13.84,25.4847
 L -13.8428,25.4847 L -13.8772,25.4227 L -13.9182,25.3682 L -13.9657,25.3213 L -14.0198,25.2819 L -14.0797,25.2508
 L -14.1447,25.2285 L -14.2149,25.2152 L -14.2903,25.2107 L -14.4205,25.2223 L -14.5329,25.257 L -14.6277,25.3149
 L -14.7047,25.3959 L -14.7643,25.5012 L -14.8069,25.632 L -14.8324,25.7884 L -14.841,25.9702 L -14.833,26.1493
 L -14.8093,26.3028 L -14.7696,26.4308 L -14.7142,26.5331 L -14.6418,26.6114 L -14.5516,26.6673 L -14.4435,26.7009
 L -14.3174,26.7121 L -14.2393,26.7077 L -14.1662,26.6943 L -14.0983,26.6721 L -14.0354,26.6409 L -13.9782,26.6009
 L -13.9275,26.5522 L -13.8833,26.4948 L -13.8455,26.4286 L -13.8428,26.4286 L -13.8428,26.6646 L -13.8656,26.8515
 L -13.934,26.985 L -14.048,27.0651 L -14.2076,27.0918 L -14.2722,27.0884 L -14.3302,27.0781 L -14.3817,27.0609
 L -14.4267,27.0369 L -14.4647,27.0065 L -14.4953,26.9703 L -14.5186,26.9282 L -14.5345,26.8803 L -14.78,26.9155
 L -14.7533,26.9974 L -14.7138,27.0693 L -14.6617,27.1313 L -14.5968,27.1834 L -14.5195,27.2246 L -14.43,27.2541
 L -14.3283,27.2717 L -14.2144,27.2776 z
M -14.3246,26.5235 L -14.4002,26.4988 L -14.4616,26.4577 L -14.5087,26.4002 L -14.5437,26.3238 L -14.5687,26.2262
 L -14.5837,26.1075 L -14.5887,25.9675 L -14.5834,25.8261 L -14.5674,25.7058 L -14.5406,25.6064 L -14.5033,25.5281
 L -14.4542,25.4688 L -14.3924,25.4264 L -14.3179,25.401 L -14.2307,25.3925 L -14.1759,25.3968 L -14.124,25.4096
 L -14.0752,25.431 L -14.0293,25.461 L -13.9874,25.499 L -13.9504,25.5447 L -13.9185,25.598 L -13.8916,25.659
 L -13.8702,25.7268 L -13.855,25.8009 L -13.8458,25.8811 L -13.8428,25.9675 L -13.8458,26.052 L -13.855,26.1304
 L -13.8702,26.2029 L -13.8916,26.2693 L -13.9186,26.329 L -13.9506,26.3813 L -13.9877,26.4263 L -14.03,26.4639
 L -14.0763,26.4936 L -14.1259,26.5148 L -14.1787,26.5275 L -14.2347,26.5317 z
M 12.4059,26.7213 L 12.5235,26.7002 L 12.6253,26.6651 L 12.7115,26.6158 L 12.78,26.5536 L 12.829,26.4795
 L 12.8583,26.3935 L 12.8681,26.2957 L 12.8664,26.2548 L 12.8613,26.2162 L 12.8529,26.1799 L 12.841,26.1459
 L 12.826,26.114 L 12.8083,26.084 L 12.7877,26.056 L 12.7644,26.0299 L 12.7374,26.0054 L 12.7059,25.9819
 L 12.6699,25.9596 L 12.6294,25.9384 L 12.5799,25.9172 L 12.5169,25.8951 L 12.4402,25.8721 L 12.3501,25.8482
 L 12.2565,25.8244 L 12.1805,25.8034 L 12.1222,25.7851 L 12.0815,25.7695 L 12.0516,25.7545 L 12.0255,25.738
 L 12.0034,25.7199 L 11.9852,25.7004 L 11.971,25.6786 L 11.9608,25.6542 L 11.9547,25.6271 L 11.9527,25.5973
 L 11.9576,25.5496 L 11.9723,25.5084 L 11.9969,25.4737 L 12.0313,25.4454 L 12.0761,25.4234 L 12.1317,25.4077
 L 12.1982,25.3983 L 12.2755,25.3952 L 12.3463,25.3985 L 12.4095,25.4082 L 12.4653,25.4246 L 12.5135,25.4474
 L 12.5536,25.4764 L 12.5852,25.511 L 12.6082,25.5513 L 12.6227,25.5973 L 12.8424,25.5701 L 12.8168,25.4823
 L 12.7781,25.4074 L 12.7263,25.3453 L 12.6613,25.2962 L 12.5835,25.2588 L 12.4933,25.2321 L 12.3906,25.2161
 L 12.2755,25.2107 L 12.1467,25.2173 L 12.0342,25.237 L 11.9381,25.2699 L 11.8584,25.3159 L 11.7958,25.3744
 L 11.7511,25.4449 L 11.7243,25.5273 L 11.7153,25.6217 L 11.7184,25.6738 L 11.7279,25.7217 L 11.7435,25.7654
 L 11.7655,25.8048 L 11.793,25.8407 L 11.8253,25.8738 L 11.8625,25.9041 L 11.9045,25.9316 L 11.9565,25.9578
 L 12.0237,25.9843 L 12.106,26.011 L 12.2036,26.038 L 12.3785,26.0841 L 12.4404,26.103 L 12.4931,26.1241
 L 12.5367,26.1477 L 12.5711,26.1737 L 12.5972,26.2028 L 12.6159,26.236 L 12.6271,26.2733 L 12.6308,26.3147
 L 12.6254,26.3681 L 12.6093,26.4144 L 12.5824,26.4536 L 12.5447,26.4856 L 12.4954,26.5105 L 12.4336,26.5283
 L 12.3594,26.539 L 12.2727,26.5426 L 12.1907,26.5391 L 12.1181,26.5288 L 12.0551,26.5117 L 12.0015,26.4876
 L 11.9568,26.4562 L 11.9205,26.4169 L 11.8924,26.3698 L 11.8727,26.3147 L 11.657,26.3568 L 11.6859,26.4461
 L 11.7277,26.5227 L 11.7825,26.5868 L 11.8503,26.6382 L 11.9324,26.6776 L 12.0301,26.7058 L 12.1436,26.7227
 L 12.2727,26.7284 z
M 26.7876,25.2338 L 26.5434,25.2338 L 26.5434,26.7012 L 26.7876,26.7012 z
M 28.3396,25.2338 L 28.0806,25.2338 L 27.7469,26.1913 L 27.6941,26.3513 L 27.6466,26.51 L 27.6123,26.3897
 L 27.5852,26.2961 L 27.5655,26.229 L 27.553,26.1886 L 27.2302,25.2338 L 26.9698,25.2338 L 27.5028,26.7012
 L 27.7917,26.7012 z
M 17.1745,27.2741 L 17.2302,27.2636 L 17.2827,27.246 L 17.332,27.2214 L 17.3788,27.1896 L 17.4234,27.1505
 L 17.4659,27.1041 L 17.5063,27.0505 L 17.5464,26.9857 L 17.588,26.9059 L 17.6312,26.8111 L 17.6759,26.7012
 L 18.2401,25.2338 L 17.9824,25.2338 L 17.6609,26.1682 L 17.566,26.4354 L 17.561,26.4183 L 17.5501,26.3846
 L 17.5332,26.3342 L 17.5104,26.2672 L 17.4873,26.1997 L 17.4694,26.1477 L 17.4567,26.1112 L 17.4494,26.0903
 L 17.4331,26.0448 L 17.1239,25.2338 L 16.8635,25.2338 L 17.4453,26.6945 L 17.4222,26.7528 L 17.3499,26.8993
 L 17.2656,27.004 L 17.1695,27.0668 L 17.0615,27.0878 L 17.031,27.0873 L 17.0018,27.0858 L 16.974,27.0832
 L 16.9475,27.0796 L 16.9475,27.2627 L 16.9835,27.2693 L 17.0235,27.2739 L 17.0676,27.2767 L 17.1157,27.2776
 z
M 8.39096,25.2338 L 8.14682,25.2338 L 8.14682,26.7012 L 8.39096,26.7012 z
M 38.5496,25.2338 L 38.3054,25.2338 L 38.3054,26.7012 L 38.5496,26.7012 z
M -12.122,26.7244 L -12.05,26.7126 L -11.9847,26.6929 L -11.9261,26.6653 L -11.8725,26.6282 L -11.8221,26.58
 L -11.7751,26.5207 L -11.7314,26.4503 L -11.7274,26.4503 L -11.7261,26.4996 L -11.7248,26.5404 L -11.7237,26.5725
 L -11.7226,26.5961 L -11.7208,26.6326 L -11.7186,26.6781 L -11.7179,26.6887 L -11.7172,26.6964 L -11.7165,26.7012
 L -11.486,26.7012 L -11.4895,26.6603 L -11.4921,26.5944 L -11.4936,26.5036 L -11.4941,26.3879 L -11.4941,25.2338
 L -11.7382,25.2338 L -11.7382,26.0841 L -11.7446,26.1854 L -11.7637,26.275 L -11.7954,26.3529 L -11.8399,26.4191
 L -11.8955,26.472 L -11.9603,26.5097 L -12.0345,26.5323 L -12.118,26.5398 L -12.1747,26.5376 L -12.2241,26.531
 L -12.2662,26.52 L -12.3011,26.5046 L -12.3302,26.4842 L -12.355,26.4581 L -12.3756,26.4265 L -12.3919,26.3893
 L -12.4044,26.3452 L -12.4133,26.293 L -12.4186,26.2327 L -12.4204,26.1642 L -12.4204,25.2338 L -12.6659,25.2338
 L -12.6659,26.2116 L -12.6589,26.3402 L -12.6379,26.4491 L -12.603,26.5385 L -12.554,26.6083 L -12.49,26.6609
 L -12.4097,26.6984 L -12.3133,26.7209 L -12.2007,26.7284 z
M 6.80238,26.2669 L 6.88562,25.9402 L 6.9407,25.7213 L 6.96767,25.6102 L 6.97971,25.5562 L 6.99005,25.5089
 L 6.99869,25.4684 L 7.00565,25.4345 L 7.05447,25.6637 L 7.31081,26.7012 L 7.59425,26.7012 L 8.01469,25.2338
 L 7.776,25.2338 L 7.49796,26.3106 L 7.45592,26.4992 L 7.39354,26.2415 L 7.13719,25.2338 L 6.87544,25.2338
 L 6.56894,26.3988 L 6.54588,26.4992 L 6.52393,26.3939 L 6.5069,26.314 L 6.49477,26.2596 L 6.23936,25.2338
 L 5.99796,25.2338 L 6.40891,26.7012 L 6.69099,26.7012 z
M -3.14644,25.855 L -3.82455,25.855 L -3.82455,26.0719 L -3.14644,26.0719 z
M 0.0192261,25.855 L -0.65889,25.855 L -0.65889,26.0719 L 0.0192261,26.0719 z
M 30.267,27.012 L 30.2888,26.9664 L 30.307,26.9198 L 30.3217,26.8721 L 30.333,26.821 L 30.341,26.764
 L 30.3459,26.701 L 30.3475,26.6321 L 30.3475,26.4042 L 30.083,26.4042 L 30.083,26.7012 L 30.2024,26.7012
 L 30.1944,26.7875 L 30.1705,26.8755 L 30.1307,26.9652 L 30.0749,27.0566 L 30.2417,27.0566 z
" stroke="black" fill="lightgray" stroke-width="0.5"/>
</svg>
