<?xml version="1.0" standalone="no"?>
<!DOCTYPE svg PUBLIC "-//W3C//DTD SVG 1.1//EN" "http://www.w3.org/Graphics/SVG/1.1/DTD/svg11.dtd">
<svg width="151mm" height="45mm" viewBox="-17 -20 151 45" xmlns="http://www.w3.org/2000/svg" version="1.1">
<title>OpenSCAD Model</title>
<path d="
M 42.5064,24.6335 L 60.2803,14.3717 L 60.2803,14.7012 L 60.5258,14.7012 L 60.5258,14.2299 L 60.795,14.0745
 L 60.7987,14.1375 L 60.8306,14.2934 L 60.8838,14.4257 L 60.9583,14.5344 L 61.0531,14.6193 L 61.1673,14.6799
 L 61.301,14.7162 L 61.454,14.7284 L 61.6664,14.7067 L 61.8368,14.6416 L 61.9654,14.5331 L 62.0521,14.3812
 L 61.8378,14.3201 L 61.817,14.3669 L 61.7885,14.4093 L 61.7523,14.4475 L 61.7083,14.4815 L 61.6566,14.5094
 L 61.5969,14.5293 L 61.5294,14.5413 L 61.454,14.5453 L 61.3597,14.5367 L 61.2774,14.511 L 61.2071,14.4682
 L 61.1488,14.4083 L 61.1031,14.3326 L 61.0705,14.2425 L 61.0509,14.138 L 61.0444,14.019 L 62.0915,14.019
 L 62.0915,13.9865 L 62.051,13.6453 L 61.9366,13.4154 L 65.5191,11.3471 L 67.8578,14.2706 L 67.8868,14.2928
 L 67.9206,14.3068 L 67.9568,14.3116 L 67.9931,14.3068 L 68.0268,14.2928 L 68.0558,14.2706 L 68.0781,14.2416
 L 68.0921,14.2078 L 68.0968,14.1716 L 68.0921,14.1353 L 68.0781,14.1016 L 68.0558,14.0726 L 65.7628,11.2063
 L 70.7907,8.30353 L 70.8087,8.28685 L 70.82,8.26187 L 70.8238,8.23029 L 70.8492,8.21115 L 70.8652,8.18887
 L 70.8707,8.16496 L 70.8707,4.89897 L 70.8652,4.87506 L 70.8492,4.85278 L 70.8238,4.83365 L 70.82,4.80206
 L 70.8087,4.77708 L 70.7907,4.76041 L 28.3643,-19.7345 L 28.3408,-19.7417 L 28.3136,-19.739 L 28.2843,-19.7265
 L 28.255,-19.739 L 28.2277,-19.7417 L 28.2043,-19.7345 L -0.0799866,-3.40454 L -0.0979767,-3.38786 L -0.109268,-3.36288
 L -0.113129,-3.3313 L -0.13855,-3.31216 L -0.154541,-3.28989 L -0.159988,-3.26598 L -0.159988,-0 L -0.154541,0.0238953
 L -0.13855,0.0461731 L -0.113129,0.0653076 L -0.109268,0.0968933 L -0.0979767,0.121887 L -0.0799866,0.13855 L 22.8004,13.3485
 L 22.8004,14.7012 L 23.0445,14.7012 L 23.0445,13.4895 L 23.4085,13.6996 L 23.4085,14.7012 L 23.6526,14.7012
 L 23.6526,13.9363 L 23.6567,13.8429 L 24.2587,14.1905 L 24.2798,14.2934 L 24.3329,14.4257 L 24.4074,14.5344
 L 24.5022,14.6193 L 24.6164,14.6799 L 24.7501,14.7162 L 24.9031,14.7284 L 25.1154,14.7067 L 25.1379,14.6981
 L 42.3464,24.6335 L 42.3698,24.6407 L 42.3971,24.638 L 42.4264,24.6255 L 42.4557,24.638 L 42.483,24.6407
 z
M 61.2153,13.8319 L 61.7447,13.5262 L 61.7652,13.5546 L 61.7995,13.6313 L 61.8242,13.7238 L 61.8392,13.8319
 z
M 24.8088,14.5367 L 24.7265,14.511 L 24.6562,14.4682 L 24.5979,14.4083 L 24.5776,14.3746 L 24.8676,14.5421
 z
M 89.2058,5.93346 L 89.2931,5.91972 L 89.3722,5.89685 L 89.4434,5.86481 L 89.5072,5.82219 L 89.5644,5.76756
 L 89.6151,5.70094 L 89.659,5.62231 L 89.6656,5.62231 L 89.6659,5.65811 L 89.667,5.69717 L 89.6687,5.73949
 L 89.6712,5.78505 L 89.674,5.82797 L 89.6767,5.86237 L 89.6793,5.8882 L 89.6818,5.90549 L 89.9618,5.90549
 L 89.9575,5.84985 L 89.9544,5.77081 L 89.9526,5.66838 L 89.952,5.54256 L 89.952,3.49028 L 89.659,3.49028
 L 89.659,4.22104 L 89.6623,4.41795 L 89.659,4.41795 L 89.6151,4.34361 L 89.5646,4.28004 L 89.5077,4.22726
 L 89.4442,4.18526 L 89.3733,4.15321 L 89.2941,4.13033 L 89.2065,4.11659 L 89.1106,4.112 L 88.8272,4.16957
 L 88.6248,4.3423 L 88.5033,4.63016 L 88.4628,5.03316 L 88.4727,5.24655 L 88.5021,5.43106 L 88.5512,5.5867
 L 88.6199,5.71344 L 88.7095,5.81169 L 88.8211,5.88188 L 88.9548,5.924 L 89.1106,5.93803 z
M 89.0832,5.70184 L 88.9962,5.67194 L 88.9245,5.6221 L 88.8681,5.55232 L 88.8253,5.45946 L 88.7948,5.34035
 L 88.7765,5.19499 L 88.7704,5.02341 L 88.7766,4.85226 L 88.795,4.70665 L 88.8258,4.58656 L 88.8689,4.49202
 L 88.9258,4.42047 L 88.9981,4.36935 L 89.0857,4.33868 L 89.1887,4.32846 L 89.3032,4.33864 L 89.4011,4.36916
 L 89.4823,4.42001 L 89.5468,4.49121 L 89.5959,4.58427 L 89.631,4.70074 L 89.652,4.84061 L 89.659,5.00388
 L 89.652,5.17342 L 89.631,5.31918 L 89.5959,5.44113 L 89.5468,5.53929 L 89.4821,5.61478 L 89.4003,5.66869
 L 89.3014,5.70102 L 89.1855,5.71181 z
M 97.1644,3.49028 L 96.8714,3.49028 L 96.8714,5.90549 L 97.1644,5.90549 z
M 110.006,3.49028 L 109.713,3.49028 L 109.713,3.77022 L 110.006,3.77022 z
M 71.6505,3.49028 L 71.3575,3.49028 L 71.3575,5.90549 L 71.6505,5.90549 z
M 103.312,3.49028 L 103.019,3.49028 L 103.019,3.77022 L 103.312,3.77022 z
M 106.569,5.2789 L 106.784,5.10152 L 107.38,5.90549 L 107.723,5.90549 L 106.971,4.90134 L 107.686,4.14455
 L 107.342,4.14455 L 106.569,4.99898 L 106.569,3.49028 L 106.276,3.49028 L 106.276,5.90549 L 106.569,5.90549
 z
M 110.8,4.35774 L 111.144,4.35774 L 111.144,4.14455 L 110.8,4.14455 L 110.8,3.98668 L 110.804,3.9176
 L 110.813,3.86014 L 110.829,3.81427 L 110.851,3.77998 L 110.88,3.75507 L 110.917,3.73726 L 110.961,3.72658
 L 111.014,3.72302 L 111.043,3.72383 L 111.075,3.72627 L 111.108,3.73035 L 111.144,3.73605 L 111.144,3.51309
 L 111.099,3.50455 L 111.05,3.49843 L 110.996,3.49477 L 110.937,3.49355 L 110.835,3.50017 L 110.747,3.52
 L 110.673,3.55305 L 110.613,3.59935 L 110.567,3.66068 L 110.534,3.73889 L 110.514,3.834 L 110.507,3.946
 L 110.507,4.14455 L 110.26,4.14455 L 110.26,4.35774 L 110.507,4.35774 L 110.507,5.90549 L 110.8,5.90549
 z
M 86.2888,5.92909 L 86.3632,5.92175 L 86.4369,5.90955 L 86.5097,5.89246 L 86.5097,5.67599 L 86.4576,5.68597
 L 86.4121,5.6931 L 86.373,5.69737 L 86.3405,5.69881 L 86.293,5.6956 L 86.2532,5.68599 L 86.221,5.66997
 L 86.1964,5.64754 L 86.1783,5.61717 L 86.1653,5.57735 L 86.1575,5.52806 L 86.1549,5.46931 L 86.1549,4.35774
 L 86.4804,4.35774 L 86.4804,4.14455 L 86.1549,4.14455 L 86.1549,3.75069 L 85.9596,3.75069 L 85.8734,4.14455
 L 85.6585,4.14455 L 85.6585,4.35774 L 85.862,4.35774 L 85.862,5.53279 L 85.8839,5.70724 L 85.9499,5.83185
 L 86.0597,5.9066 L 86.2135,5.93153 z
M 101.489,5.92909 L 101.563,5.92175 L 101.637,5.90955 L 101.71,5.89246 L 101.71,5.67599 L 101.658,5.68597
 L 101.612,5.6931 L 101.573,5.69737 L 101.54,5.69881 L 101.493,5.6956 L 101.453,5.68599 L 101.421,5.66997
 L 101.396,5.64754 L 101.378,5.61717 L 101.365,5.57735 L 101.357,5.52806 L 101.355,5.46931 L 101.355,4.35774
 L 101.68,4.35774 L 101.68,4.14455 L 101.355,4.14455 L 101.355,3.75069 L 101.16,3.75069 L 101.073,4.14455
 L 100.859,4.14455 L 100.859,4.35774 L 101.062,4.35774 L 101.062,5.53279 L 101.084,5.70724 L 101.15,5.83185
 L 101.26,5.9066 L 101.413,5.93153 z
M 81.0148,5.91199 L 81.2194,5.83388 L 81.3737,5.70367 L 81.4777,5.52139 L 81.2206,5.44817 L 81.1956,5.50421
 L 81.1614,5.55518 L 81.1179,5.60104 L 81.0651,5.64185 L 81.0031,5.67531 L 80.9315,5.69922 L 80.8505,5.71356
 L 80.76,5.71834 L 80.6468,5.70807 L 80.548,5.67725 L 80.4637,5.62587 L 80.3938,5.55396 L 80.339,5.46312
 L 80.2998,5.35498 L 80.2763,5.22955 L 80.2685,5.08685 L 81.5249,5.08685 L 81.5249,5.04782 L 81.4764,4.6384
 L 81.3309,4.34596 L 81.0882,4.1705 L 80.7486,4.112 L 80.5699,4.12656 L 80.4131,4.1702 L 80.2782,4.24292
 L 80.1651,4.34474 L 80.0758,4.47382 L 80.012,4.62833 L 79.9737,4.80827 L 79.9609,5.01364 L 79.9737,5.22896
 L 80.012,5.41602 L 80.0758,5.5748 L 80.1651,5.70531 L 80.2789,5.80713 L 80.416,5.87985 L 80.5764,5.92349
 L 80.76,5.93803 z
M 80.2717,4.86227 L 80.2838,4.74443 L 80.3102,4.63992 L 80.3509,4.54874 L 80.406,4.47089 L 80.4738,4.40857
 L 80.5527,4.36406 L 80.6427,4.33736 L 80.7437,4.32846 L 80.8472,4.33644 L 80.9378,4.3604 L 81.0156,4.40033
 L 81.0806,4.45622 L 81.1334,4.5295 L 81.1746,4.62161 L 81.2042,4.73253 L 81.2222,4.86227 z
M 74.1906,4.88507 L 74.1982,4.7635 L 74.2211,4.65599 L 74.2592,4.56252 L 74.3126,4.48308 L 74.3793,4.41971
 L 74.4571,4.37444 L 74.5461,4.34729 L 74.6463,4.33823 L 74.7143,4.34088 L 74.7736,4.34882 L 74.8242,4.36203
 L 74.866,4.38054 L 74.9009,4.40506 L 74.9307,4.43628 L 74.9554,4.47423 L 74.975,4.51888 L 74.99,4.57178
 L 75.0006,4.63443 L 75.007,4.70686 L 75.0092,4.78905 L 75.0092,5.90549 L 75.3038,5.90549 L 75.3038,4.73207
 L 75.2954,4.57782 L 75.2702,4.44705 L 75.2282,4.3398 L 75.1695,4.25603 L 75.0927,4.19302 L 74.9964,4.14801
 L 74.8807,4.121 L 74.7455,4.112 L 74.6511,4.11673 L 74.5647,4.13092 L 74.4863,4.15457 L 74.416,4.18768
 L 74.3516,4.23218 L 74.2913,4.29001 L 74.2349,4.36116 L 74.1824,4.44563 L 74.1776,4.44563 L 74.176,4.38649
 L 74.1745,4.33762 L 74.1731,4.29901 L 74.1719,4.27069 L 74.1696,4.22694 L 74.1686,4.20706 L 74.1678,4.18849
 L 74.167,4.17232 L 74.1662,4.15961 L 74.1653,4.15034 L 74.1645,4.14455 L 73.8879,4.14455 L 73.8921,4.19368
 L 73.8952,4.27272 L 73.897,4.38167 L 73.8976,4.52051 L 73.8976,5.90549 L 74.1906,5.90549 z
M 96.032,5.91199 L 96.2365,5.83388 L 96.3908,5.70367 L 96.4949,5.52139 L 96.2377,5.44817 L 96.2128,5.50421
 L 96.1785,5.55518 L 96.135,5.60104 L 96.0823,5.64185 L 96.0202,5.67531 L 95.9487,5.69922 L 95.8676,5.71356
 L 95.7772,5.71834 L 95.6639,5.70807 L 95.5652,5.67725 L 95.4808,5.62587 L 95.4109,5.55396 L 95.3561,5.46312
 L 95.317,5.35498 L 95.2935,5.22955 L 95.2856,5.08685 L 96.5421,5.08685 L 96.5421,5.04782 L 96.4936,4.6384
 L 96.348,4.34596 L 96.1054,4.1705 L 95.7658,4.112 L 95.5871,4.12656 L 95.4303,4.1702 L 95.2954,4.24292
 L 95.1823,4.34474 L 95.0929,4.47382 L 95.0291,4.62833 L 94.9908,4.80827 L 94.9781,5.01364 L 94.9908,5.22896
 L 95.0291,5.41602 L 95.0929,5.5748 L 95.1823,5.70531 L 95.2961,5.80713 L 95.4332,5.87985 L 95.5935,5.92349
 L 95.7772,5.93803 z
M 95.2889,4.86227 L 95.301,4.74443 L 95.3273,4.63992 L 95.3681,4.54874 L 95.4232,4.47089 L 95.491,4.40857
 L 95.5699,4.36406 L 95.6598,4.33736 L 95.7609,4.32846 L 95.8643,4.33644 L 95.955,4.3604 L 96.0328,4.40033
 L 96.0977,4.45622 L 96.1505,4.5295 L 96.1917,4.62161 L 96.2213,4.73253 L 96.2393,4.86227 z
M 98.5656,5.91199 L 98.7701,5.83388 L 98.9244,5.70367 L 99.0285,5.52139 L 98.7713,5.44817 L 98.7464,5.50421
 L 98.7121,5.55518 L 98.6686,5.60104 L 98.6159,5.64185 L 98.5538,5.67531 L 98.4823,5.69922 L 98.4012,5.71356
 L 98.3108,5.71834 L 98.1975,5.70807 L 98.0988,5.67725 L 98.0144,5.62587 L 97.9445,5.55396 L 97.8897,5.46312
 L 97.8506,5.35498 L 97.8271,5.22955 L 97.8192,5.08685 L 99.0757,5.08685 L 99.0757,5.04782 L 99.0272,4.6384
 L 98.8816,4.34596 L 98.639,4.1705 L 98.2994,4.112 L 98.1207,4.12656 L 97.9639,4.1702 L 97.8289,4.24292
 L 97.7159,4.34474 L 97.6265,4.47382 L 97.5627,4.62833 L 97.5244,4.80827 L 97.5117,5.01364 L 97.5244,5.22896
 L 97.5627,5.41602 L 97.6265,5.5748 L 97.7159,5.70531 L 97.8297,5.80713 L 97.9667,5.87985 L 98.1271,5.92349
 L 98.3108,5.93803 z
M 97.8225,4.86227 L 97.8345,4.74443 L 97.8609,4.63992 L 97.9017,4.54874 L 97.9568,4.47089 L 98.0246,4.40857
 L 98.1034,4.36406 L 98.1934,4.33736 L 98.2945,4.32846 L 98.3979,4.33644 L 98.4885,4.3604 L 98.5664,4.40033
 L 98.6313,4.45622 L 98.6841,4.5295 L 98.7253,4.62161 L 98.7549,4.73253 L 98.7729,4.86227 z
M 72.9578,5.92389 L 73.117,5.88147 L 73.2532,5.81078 L 73.3665,5.71181 L 73.4555,5.58395 L 73.519,5.42659
 L 73.5572,5.23975 L 73.5699,5.02341 L 73.558,4.80516 L 73.5223,4.61754 L 73.4628,4.46054 L 73.3795,4.33415
 L 73.2709,4.23697 L 73.1357,4.16754 L 72.9739,4.12589 L 72.7854,4.112 L 72.4401,4.16898 L 72.1934,4.33986
 L 72.0454,4.62466 L 71.9961,5.02341 L 72.0084,5.23247 L 72.0453,5.41541 L 72.1069,5.5722 L 72.193,5.70285
 L 72.3033,5.80574 L 72.4371,5.87924 L 72.5946,5.92334 L 72.7757,5.93803 z
M 72.6592,5.71065 L 72.5623,5.67784 L 72.4814,5.62315 L 72.4168,5.54662 L 72.3673,5.4483 L 72.332,5.32832
 L 72.3107,5.18669 L 72.3037,5.02341 L 72.3109,4.85623 L 72.3324,4.71275 L 72.3682,4.59299 L 72.4184,4.49692
 L 72.4847,4.42322 L 72.5688,4.37057 L 72.6706,4.33899 L 72.7903,4.32846 L 72.9089,4.33879 L 73.009,4.36977
 L 73.0907,4.42139 L 73.1541,4.49365 L 73.2014,4.58871 L 73.2352,4.70869 L 73.2555,4.85359 L 73.2623,5.02341
 L 73.2552,5.19133 L 73.234,5.33546 L 73.1987,5.4558 L 73.1492,5.55232 L 73.0832,5.62637 L 72.9984,5.67926
 L 72.8948,5.711 L 72.7724,5.72157 z
M 108.203,4.88507 L 108.211,4.7635 L 108.234,4.65599 L 108.272,4.56252 L 108.325,4.48308 L 108.392,4.41971
 L 108.47,4.37444 L 108.559,4.34729 L 108.659,4.33823 L 108.727,4.34088 L 108.786,4.34882 L 108.837,4.36203
 L 108.879,4.38054 L 108.914,4.40506 L 108.943,4.43628 L 108.968,4.47423 L 108.988,4.51888 L 109.003,4.57178
 L 109.013,4.63443 L 109.02,4.70686 L 109.022,4.78905 L 109.022,5.90549 L 109.317,5.90549 L 109.317,4.73207
 L 109.308,4.57782 L 109.283,4.44705 L 109.241,4.3398 L 109.182,4.25603 L 109.105,4.19302 L 109.009,4.14801
 L 108.893,4.121 L 108.758,4.112 L 108.664,4.11673 L 108.577,4.13092 L 108.499,4.15457 L 108.429,4.18768
 L 108.364,4.23218 L 108.304,4.29001 L 108.248,4.36116 L 108.195,4.44563 L 108.19,4.44563 L 108.189,4.38649
 L 108.187,4.33762 L 108.186,4.29901 L 108.185,4.27069 L 108.182,4.22694 L 108.181,4.20706 L 108.181,4.18849
 L 108.18,4.17232 L 108.179,4.15961 L 108.178,4.15034 L 108.177,4.14455 L 107.901,4.14455 L 107.905,4.19368
 L 107.908,4.27272 L 107.91,4.38167 L 107.91,4.52051 L 107.91,5.90549 L 108.203,5.90549 z
M 102.237,4.98759 L 102.243,4.84961 L 102.261,4.72862 L 102.291,4.62462 L 102.333,4.5376 L 102.386,4.46889
 L 102.45,4.4198 L 102.525,4.39037 L 102.611,4.38054 L 102.657,4.38156 L 102.699,4.38461 L 102.735,4.38969
 L 102.767,4.39682 L 102.767,4.12828 L 102.737,4.12115 L 102.707,4.11607 L 102.678,4.11302 L 102.648,4.112
 L 102.57,4.11719 L 102.501,4.13275 L 102.441,4.15869 L 102.391,4.19499 L 102.347,4.24545 L 102.305,4.3138
 L 102.266,4.40005 L 102.23,4.50421 L 102.223,4.50421 L 102.223,4.45915 L 102.22,4.38419 L 102.216,4.27933
 L 102.21,4.14455 L 101.934,4.14455 L 101.938,4.25441 L 101.941,4.35938 L 101.943,4.45947 L 101.944,4.55469
 L 101.944,5.90549 L 102.237,5.90549 z
M 112.313,5.91199 L 112.517,5.83388 L 112.672,5.70367 L 112.776,5.52139 L 112.519,5.44817 L 112.494,5.50421
 L 112.459,5.55518 L 112.416,5.60104 L 112.363,5.64185 L 112.301,5.67531 L 112.23,5.69922 L 112.148,5.71356
 L 112.058,5.71834 L 111.945,5.70807 L 111.846,5.67725 L 111.762,5.62587 L 111.692,5.55396 L 111.637,5.46312
 L 111.598,5.35498 L 111.574,5.22955 L 111.566,5.08685 L 112.823,5.08685 L 112.823,5.04782 L 112.774,4.6384
 L 112.629,4.34596 L 112.386,4.1705 L 112.047,4.112 L 111.868,4.12656 L 111.711,4.1702 L 111.576,4.24292
 L 111.463,4.34474 L 111.374,4.47382 L 111.31,4.62833 L 111.272,4.80827 L 111.259,5.01364 L 111.272,5.22896
 L 111.31,5.41602 L 111.374,5.5748 L 111.463,5.70531 L 111.577,5.80713 L 111.714,5.87985 L 111.874,5.92349
 L 112.058,5.93803 z
M 111.57,4.86227 L 111.582,4.74443 L 111.608,4.63992 L 111.649,4.54874 L 111.704,4.47089 L 111.772,4.40857
 L 111.851,4.36406 L 111.941,4.33736 L 112.042,4.32846 L 112.145,4.33644 L 112.236,4.3604 L 112.314,4.40033
 L 112.379,4.45622 L 112.431,4.5295 L 112.473,4.62161 L 112.502,4.73253 L 112.52,4.86227 z
M 83.2378,4.98759 L 83.2438,4.84961 L 83.2618,4.72862 L 83.2918,4.62462 L 83.3338,4.5376 L 83.3872,4.46889
 L 83.4514,4.4198 L 83.5263,4.39037 L 83.6121,4.38054 L 83.6585,4.38156 L 83.7,4.38461 L 83.7366,4.38969
 L 83.7683,4.39682 L 83.7683,4.12828 L 83.7383,4.12115 L 83.7085,4.11607 L 83.6789,4.11302 L 83.6495,4.112
 L 83.5712,4.11719 L 83.5022,4.13275 L 83.4426,4.15869 L 83.3923,4.19499 L 83.3481,4.24545 L 83.3065,4.3138
 L 83.2675,4.40005 L 83.2312,4.50421 L 83.2247,4.50421 L 83.2239,4.45915 L 83.2215,4.38419 L 83.2174,4.27933
 L 83.2117,4.14455 L 82.935,4.14455 L 82.9393,4.25441 L 82.9424,4.35938 L 82.9442,4.45947 L 82.9448,4.55469
 L 82.9448,5.90549 L 83.2378,5.90549 z
M 93.3721,4.98759 L 93.3781,4.84961 L 93.3961,4.72862 L 93.4261,4.62462 L 93.4681,4.5376 L 93.5215,4.46889
 L 93.5857,4.4198 L 93.6607,4.39037 L 93.7464,4.38054 L 93.7928,4.38156 L 93.8343,4.38461 L 93.8709,4.38969
 L 93.9027,4.39682 L 93.9027,4.12828 L 93.8727,4.12115 L 93.8428,4.11607 L 93.8132,4.11302 L 93.7838,4.112
 L 93.7055,4.11719 L 93.6366,4.13275 L 93.577,4.15869 L 93.5267,4.19499 L 93.4825,4.24545 L 93.4408,4.3138
 L 93.4019,4.40005 L 93.3656,4.50421 L 93.3591,4.50421 L 93.3583,4.45915 L 93.3558,4.38419 L 93.3518,4.27933
 L 93.3461,4.14455 L 93.0694,4.14455 L 93.0737,4.25441 L 93.0767,4.35938 L 93.0785,4.45947 L 93.0791,4.55469
 L 93.0791,5.90549 L 93.3721,5.90549 z
M 87.708,5.91199 L 87.9126,5.83388 L 88.0668,5.70367 L 88.1709,5.52139 L 87.9138,5.44817 L 87.8888,5.50421
 L 87.8546,5.55518 L 87.8111,5.60104 L 87.7583,5.64185 L 87.6962,5.67531 L 87.6247,5.69922 L 87.5437,5.71356
 L 87.4532,5.71834 L 87.34,5.70807 L 87.2412,5.67725 L 87.1569,5.62587 L 87.087,5.55396 L 87.0322,5.46312
 L 86.993,5.35498 L 86.9695,5.22955 L 86.9617,5.08685 L 88.2181,5.08685 L 88.2181,5.04782 L 88.1696,4.6384
 L 88.024,4.34596 L 87.7814,4.1705 L 87.4418,4.112 L 87.2631,4.12656 L 87.1063,4.1702 L 86.9714,4.24292
 L 86.8583,4.34474 L 86.769,4.47382 L 86.7052,4.62833 L 86.6669,4.80827 L 86.6541,5.01364 L 86.6669,5.22896
 L 86.7052,5.41602 L 86.769,5.5748 L 86.8583,5.70531 L 86.9721,5.80713 L 87.1092,5.87985 L 87.2695,5.92349
 L 87.4532,5.93803 z
M 86.9649,4.86227 L 86.977,4.74443 L 87.0034,4.63992 L 87.0441,4.54874 L 87.0992,4.47089 L 87.167,4.40857
 L 87.2459,4.36406 L 87.3359,4.33736 L 87.4369,4.32846 L 87.5404,4.33644 L 87.631,4.3604 L 87.7088,4.40033
 L 87.7738,4.45622 L 87.8266,4.5295 L 87.8678,4.62161 L 87.8974,4.73253 L 87.9154,4.86227 z
M 82.1537,4.98759 L 82.1597,4.84961 L 82.1777,4.72862 L 82.2078,4.62462 L 82.2498,4.5376 L 82.3032,4.46889
 L 82.3674,4.4198 L 82.4423,4.39037 L 82.5281,4.38054 L 82.5744,4.38156 L 82.616,4.38461 L 82.6526,4.38969
 L 82.6843,4.39682 L 82.6843,4.12828 L 82.6543,4.12115 L 82.6245,4.11607 L 82.5949,4.11302 L 82.5655,4.112
 L 82.4872,4.11719 L 82.4182,4.13275 L 82.3586,4.15869 L 82.3083,4.19499 L 82.2641,4.24545 L 82.2225,4.3138
 L 82.1835,4.40005 L 82.1472,4.50421 L 82.1407,4.50421 L 82.1399,4.45915 L 82.1375,4.38419 L 82.1334,4.27933
 L 82.1277,4.14455 L 81.851,4.14455 L 81.8553,4.25441 L 81.8583,4.35938 L 81.8602,4.45947 L 81.8608,4.55469
 L 81.8608,5.90549 L 82.1537,5.90549 z
M 92.1394,5.92389 L 92.2986,5.88147 L 92.4348,5.81078 L 92.548,5.71181 L 92.637,5.58395 L 92.7006,5.42659
 L 92.7387,5.23975 L 92.7514,5.02341 L 92.7395,4.80516 L 92.7038,4.61754 L 92.6443,4.46054 L 92.561,4.33415
 L 92.4525,4.23697 L 92.3173,4.16754 L 92.1554,4.12589 L 91.967,4.112 L 91.6216,4.16898 L 91.375,4.33986
 L 91.227,4.62466 L 91.1776,5.02341 L 91.1899,5.23247 L 91.2269,5.41541 L 91.2884,5.5722 L 91.3745,5.70285
 L 91.4848,5.80574 L 91.6187,5.87924 L 91.7761,5.92334 L 91.9572,5.93803 z
M 91.8408,5.71065 L 91.7438,5.67784 L 91.663,5.62315 L 91.5983,5.54662 L 91.5488,5.4483 L 91.5135,5.32832
 L 91.4923,5.18669 L 91.4852,5.02341 L 91.4924,4.85623 L 91.5139,4.71275 L 91.5498,4.59299 L 91.6,4.49692
 L 91.6662,4.42322 L 91.7503,4.37057 L 91.8522,4.33899 L 91.9718,4.32846 L 92.0904,4.33879 L 92.1905,4.36977
 L 92.2723,4.42139 L 92.3356,4.49365 L 92.3829,4.58871 L 92.4168,4.70869 L 92.4371,4.85359 L 92.4438,5.02341
 L 92.4368,5.19133 L 92.4155,5.33546 L 92.3802,5.4558 L 92.3307,5.55232 L 92.2647,5.62637 L 92.18,5.67926
 L 92.0764,5.711 L 91.9539,5.72157 z
M 84.5741,5.9328 L 84.6686,5.91708 L 84.7551,5.89088 L 84.8336,5.85422 L 84.9058,5.80495 L 84.9734,5.74092
 L 85.0364,5.66212 L 85.0948,5.5686 L 85.1046,5.5686 L 85.1135,5.65369 L 85.1304,5.72667 L 85.1554,5.78755
 L 85.1884,5.83632 L 85.231,5.8737 L 85.2846,5.90041 L 85.3494,5.91641 L 85.4252,5.92175 L 85.4827,5.92014
 L 85.5395,5.91525 L 85.5958,5.90712 L 85.6514,5.89572 L 85.6514,5.71344 L 85.6253,5.71843 L 85.6006,5.72198
 L 85.5773,5.72412 L 85.5554,5.72484 L 85.5113,5.72072 L 85.4748,5.70836 L 85.4462,5.68777 L 85.4252,5.65894
 L 85.4102,5.62195 L 85.3996,5.57693 L 85.3931,5.5239 L 85.391,5.46281 L 85.391,4.70439 L 85.3805,4.56886
 L 85.3491,4.45032 L 85.2967,4.34877 L 85.2234,4.26419 L 85.1293,4.19762 L 85.0146,4.15005 L 84.8795,4.12152
 L 84.7237,4.112 L 84.4428,4.14171 L 84.2314,4.23082 L 84.0896,4.37932 L 84.0174,4.58723 L 84.3234,4.6149
 L 84.3368,4.54665 L 84.3592,4.48837 L 84.3905,4.44005 L 84.4308,4.40172 L 84.4823,4.37251 L 84.5472,4.35165
 L 84.6255,4.33914 L 84.7172,4.33496 L 84.8084,4.34076 L 84.8865,4.35817 L 84.9516,4.38716 L 85.0037,4.42775
 L 85.0435,4.48177 L 85.072,4.55103 L 85.0891,4.63556 L 85.0948,4.73534 L 85.0948,4.83136 L 84.6993,4.83786
 L 84.5129,4.85129 L 84.3541,4.88181 L 84.2228,4.92941 L 84.1191,4.99411 L 84.0405,5.07526 L 83.9843,5.1723
 L 83.9505,5.28522 L 83.9393,5.41399 L 83.9476,5.52954 L 83.9727,5.63206 L 84.0144,5.72157 L 84.0727,5.79807
 L 84.1477,5.8593 L 84.2392,5.90305 L 84.3471,5.92929 L 84.4715,5.93803 z
M 84.4707,5.71346 L 84.4115,5.69881 L 84.3605,5.67439 L 84.3177,5.64021 L 84.2839,5.59709 L 84.2597,5.54582
 L 84.2452,5.4864 L 84.2404,5.41887 L 84.2439,5.35611 L 84.2546,5.29965 L 84.2724,5.24951 L 84.2973,5.20567
 L 84.3289,5.16763 L 84.3667,5.13487 L 84.4107,5.10741 L 84.4609,5.08524 L 84.5204,5.06795 L 84.5925,5.05513
 L 84.6771,5.04678 L 84.7742,5.04292 L 85.0948,5.03641 L 85.0948,5.18124 L 85.0903,5.24832 L 85.0767,5.3145
 L 85.0541,5.37975 L 85.0224,5.44409 L 84.9829,5.50456 L 84.9367,5.55821 L 84.884,5.60506 L 84.8246,5.64508
 L 84.7598,5.67714 L 84.6904,5.70003 L 84.6165,5.71376 L 84.5382,5.71834 z
M 104.554,5.92857 L 104.675,5.90019 L 104.785,5.85291 L 104.882,5.78668 L 104.964,5.70459 L 105.027,5.60968
 L 105.072,5.50197 L 105.098,5.38142 L 104.802,5.36191 L 104.785,5.44409 L 104.758,5.51489 L 104.72,5.5743
 L 104.673,5.62231 L 104.617,5.65933 L 104.555,5.68578 L 104.486,5.70164 L 104.412,5.70694 L 104.307,5.69637
 L 104.217,5.66463 L 104.14,5.61174 L 104.078,5.53769 L 104.029,5.44167 L 103.995,5.32285 L 103.974,5.18124
 L 103.967,5.01688 L 103.974,4.84702 L 103.993,4.7036 L 104.026,4.58662 L 104.071,4.49611 L 104.132,4.42845
 L 104.208,4.38013 L 104.3,4.35114 L 104.408,4.34148 L 104.489,4.34686 L 104.56,4.36304 L 104.621,4.38998
 L 104.672,4.42773 L 104.714,4.47462 L 104.747,4.52904 L 104.772,4.59099 L 104.788,4.66046 L 105.089,4.63768
 L 105.058,4.52141 L 105.01,4.41837 L 104.946,4.32857 L 104.865,4.25197 L 104.77,4.19073 L 104.664,4.147
 L 104.546,4.12076 L 104.416,4.112 L 104.245,4.1266 L 104.094,4.17039 L 103.965,4.24338 L 103.857,4.34555
 L 103.771,4.47549 L 103.71,4.63179 L 103.673,4.81442 L 103.661,5.02341 L 103.673,5.2338 L 103.71,5.41743
 L 103.771,5.57434 L 103.856,5.70448 L 103.964,5.80666 L 104.094,5.87964 L 104.246,5.92343 L 104.42,5.93803
 z
M 100.214,5.92857 L 100.336,5.90019 L 100.445,5.85291 L 100.543,5.78668 L 100.625,5.70459 L 100.688,5.60968
 L 100.733,5.50197 L 100.759,5.38142 L 100.463,5.36191 L 100.446,5.44409 L 100.418,5.51489 L 100.381,5.5743
 L 100.334,5.62231 L 100.278,5.65933 L 100.216,5.68578 L 100.147,5.70164 L 100.072,5.70694 L 99.9678,5.69637
 L 99.8774,5.66463 L 99.801,5.61174 L 99.7386,5.53769 L 99.6902,5.44167 L 99.6557,5.32285 L 99.6349,5.18124
 L 99.628,5.01688 L 99.6345,4.84702 L 99.654,4.7036 L 99.6866,4.58662 L 99.7321,4.49611 L 99.7923,4.42845
 L 99.8685,4.38013 L 99.9607,4.35114 L 100.069,4.34148 L 100.15,4.34686 L 100.22,4.36304 L 100.281,4.38998
 L 100.333,4.42773 L 100.375,4.47462 L 100.408,4.52904 L 100.432,4.59099 L 100.448,4.66046 L 100.749,4.63768
 L 100.718,4.52141 L 100.671,4.41837 L 100.606,4.32857 L 100.526,4.25197 L 100.431,4.19073 L 100.324,4.147
 L 100.207,4.12076 L 100.077,4.112 L 99.9055,4.1266 L 99.7549,4.17039 L 99.6255,4.24338 L 99.5173,4.34555
 L 99.4319,4.47549 L 99.3708,4.63179 L 99.3342,4.81442 L 99.322,5.02341 L 99.3342,5.2338 L 99.3707,5.41743
 L 99.4314,5.57434 L 99.5165,5.70448 L 99.6247,5.80666 L 99.7547,5.87964 L 99.9066,5.92343 L 100.08,5.93803
 z
M 79.1832,5.9296 L 79.3242,5.90427 L 79.4464,5.86206 L 79.5498,5.80296 L 79.6321,5.72829 L 79.6908,5.63939
 L 79.7261,5.53624 L 79.7378,5.41887 L 79.7358,5.36978 L 79.7297,5.32346 L 79.7195,5.27988 L 79.7052,5.23903
 L 79.6873,5.20073 L 79.666,5.16478 L 79.6413,5.13116 L 79.6133,5.09988 L 79.5809,5.07043 L 79.5431,5.04233
 L 79.4999,5.01552 L 79.4514,4.99005 L 79.392,4.96466 L 79.3163,4.93816 L 79.2243,4.91054 L 79.1161,4.88181
 L 79.0038,4.85333 L 78.9127,4.82809 L 78.8427,4.80614 L 78.7938,4.78741 L 78.7579,4.76941 L 78.7267,4.74957
 L 78.7002,4.72792 L 78.6783,4.70442 L 78.6612,4.67838 L 78.649,4.64908 L 78.6417,4.61653 L 78.6392,4.58073
 L 78.6451,4.52356 L 78.6628,4.47412 L 78.6923,4.43242 L 78.7336,4.39845 L 78.7873,4.3721 L 78.8541,4.35329
 L 78.9338,4.342 L 79.0266,4.33823 L 79.1116,4.34215 L 79.1875,4.3539 L 79.2544,4.37347 L 79.3122,4.40089
 L 79.3604,4.43562 L 79.3983,4.47717 L 79.4259,4.52554 L 79.4432,4.58073 L 79.7069,4.54816 L 79.6762,4.44278
 L 79.6298,4.35286 L 79.5676,4.2784 L 79.4896,4.21941 L 79.3963,4.17455 L 79.288,4.14252 L 79.1648,4.12329
 L 79.0266,4.11688 L 78.872,4.12476 L 78.7371,4.14842 L 78.6218,4.18784 L 78.5261,4.24303 L 78.451,4.31325
 L 78.3974,4.39783 L 78.3652,4.49675 L 78.3544,4.61 L 78.3582,4.67256 L 78.3695,4.73004 L 78.3883,4.78242
 L 78.4146,4.82973 L 78.4476,4.8728 L 78.4865,4.91254 L 78.5311,4.9489 L 78.5815,4.98192 L 78.6439,5.01338
 L 78.7245,5.04517 L 78.8233,5.07724 L 78.9403,5.10965 L 79.1503,5.16496 L 79.2245,5.18755 L 79.2878,5.21298
 L 79.3401,5.24126 L 79.3814,5.27238 L 79.4127,5.30737 L 79.4351,5.34724 L 79.4485,5.392 L 79.453,5.44164
 L 79.4465,5.50574 L 79.4272,5.56128 L 79.3949,5.60828 L 79.3497,5.64671 L 79.2905,5.67662 L 79.2164,5.69798
 L 79.1273,5.7108 L 79.0233,5.71507 L 78.9249,5.71095 L 78.8378,5.69859 L 78.7621,5.67799 L 78.6978,5.64917
 L 78.6442,5.61148 L 78.6006,5.56432 L 78.5669,5.50771 L 78.5432,5.44164 L 78.2844,5.49211 L 78.3191,5.59927
 L 78.3693,5.69127 L 78.435,5.76811 L 78.5164,5.82982 L 78.6149,5.87717 L 78.7322,5.91098 L 78.8684,5.93127
 L 79.0233,5.93803 z
M 76.6913,6.55078 L 76.9217,6.41164 L 77.0599,6.17972 L 77.106,5.85504 L 77.106,4.50911 L 77.1066,4.38257
 L 77.1085,4.27963 L 77.1115,4.20029 L 77.1158,4.14455 L 76.8375,4.14455 L 76.8342,4.15706 L 76.831,4.18321
 L 76.8277,4.22298 L 76.8245,4.27638 L 76.8216,4.33212 L 76.8196,4.37891 L 76.8184,4.41675 L 76.818,4.44563
 L 76.8147,4.44563 L 76.7734,4.37122 L 76.7242,4.30586 L 76.6672,4.24957 L 76.6023,4.20232 L 76.5304,4.16493
 L 76.4524,4.13824 L 76.3681,4.12222 L 76.2776,4.11688 L 76.1214,4.13077 L 75.9865,4.17242 L 75.8728,4.24185
 L 75.7804,4.33905 L 75.7089,4.46542 L 75.6577,4.62242 L 75.6271,4.81004 L 75.6169,5.02827 L 75.6264,5.24319
 L 75.6549,5.42741 L 75.7025,5.58092 L 75.769,5.70369 L 75.8559,5.79768 L 75.9641,5.86481 L 76.0939,5.90509
 L 76.2451,5.91852 L 76.3389,5.91318 L 76.4265,5.89716 L 76.5081,5.87045 L 76.5836,5.83308 L 76.6521,5.78511
 L 76.713,5.72667 L 76.7661,5.65776 L 76.8114,5.57837 L 76.8147,5.57837 L 76.8147,5.86154 L 76.7873,6.08583
 L 76.7052,6.24605 L 76.5684,6.34216 L 76.3769,6.37421 L 76.2994,6.37009 L 76.2298,6.35773 L 76.168,6.33713
 L 76.114,6.30827 L 76.0684,6.27182 L 76.0317,6.22833 L 76.0038,6.17784 L 75.9847,6.12032 L 75.6901,6.16263
 L 75.7221,6.26083 L 75.7694,6.34714 L 75.832,6.42155 L 75.9098,6.48405 L 76.0026,6.53354 L 76.11,6.56889
 L 76.232,6.5901 L 76.3688,6.59717 z
M 76.2365,5.69217 L 76.1458,5.66258 L 76.0722,5.61325 L 76.0156,5.54419 L 75.9736,5.45255 L 75.9436,5.33546
 L 75.9256,5.19295 L 75.9196,5.02501 L 75.926,4.85535 L 75.9452,4.71091 L 75.9772,4.59169 L 76.0221,4.49771
 L 76.081,4.42651 L 76.1552,4.37566 L 76.2446,4.34514 L 76.3492,4.33496 L 76.415,4.3401 L 76.4772,4.35551
 L 76.5358,4.38121 L 76.5909,4.41716 L 76.6412,4.46283 L 76.6855,4.51765 L 76.7238,4.58163 L 76.7561,4.65477
 L 76.7817,4.73619 L 76.8,4.82504 L 76.811,4.92131 L 76.8147,5.02501 L 76.811,5.12636 L 76.8,5.2205
 L 76.7817,5.30743 L 76.7561,5.38713 L 76.7238,5.45879 L 76.6853,5.52161 L 76.6407,5.57556 L 76.5901,5.62068
 L 76.5345,5.65628 L 76.475,5.6817 L 76.4116,5.69696 L 76.3443,5.70204 z
M 103.312,4.14455 L 103.019,4.14455 L 103.019,5.90549 L 103.312,5.90549 z
M 110.006,4.14455 L 109.713,4.14455 L 109.713,5.90549 L 110.006,5.90549 z
M 1.93517,12.6886 L 1.69104,12.6886 L 1.69104,14.7012 L 1.93517,14.7012 z
M -1.6835,12.6886 L -1.92763,12.6886 L -1.92763,14.7012 L -1.6835,14.7012 z
M -2.28618,12.6886 L -2.5303,12.6886 L -2.5303,14.7012 L -2.28618,14.7012 z
M 19.2789,13.836 L 19.2854,13.7401 L 19.3049,13.6546 L 19.3373,13.5794 L 19.3827,13.5146 L 19.4388,13.4623
 L 19.5036,13.425 L 19.5768,13.4027 L 19.6587,13.3952 L 19.7132,13.3974 L 19.7614,13.404 L 19.8034,13.415
 L 19.8391,13.4305 L 19.8693,13.4506 L 19.895,13.4757 L 19.9161,13.5059 L 19.9326,13.541 L 19.9451,13.5836
 L 19.954,13.6361 L 19.9594,13.6985 L 19.9611,13.7709 L 19.9611,14.7012 L 20.2066,14.7012 L 20.2066,13.7234
 L 20.1995,13.5938 L 20.1783,13.4842 L 20.1429,13.3947 L 20.0934,13.3254 L 20.0289,13.2734 L 19.9488,13.2363
 L 19.8529,13.2141 L 19.7414,13.2067 L 19.6603,13.2109 L 19.5866,13.2235 L 19.5203,13.2444 L 19.4613,13.2738
 L 19.4081,13.3122 L 19.3588,13.3601 L 19.3135,13.4176 L 19.2722,13.4847 L 19.2681,13.4847 L 19.269,13.4733
 L 19.2703,13.4525 L 19.272,13.4224 L 19.2742,13.383 L 19.2763,13.3392 L 19.2778,13.2962 L 19.2786,13.2538
 L 19.2789,13.2121 L 19.2789,12.6886 L 19.0348,12.6886 L 19.0348,14.7012 L 19.2789,14.7012 z
M 13.3912,12.6886 L 13.1471,12.6886 L 13.1471,14.7012 L 13.3912,14.7012 z
M -7.65585,13.4115 L -7.36967,13.4115 L -7.36967,13.2338 L -7.65585,13.2338 L -7.65585,13.1022 L -7.65323,13.0447
 L -7.64534,12.9968 L -7.6322,12.9586 L -7.61382,12.93 L -7.58955,12.9092 L -7.55887,12.8944 L -7.52174,12.8855
 L -7.47816,12.8825 L -7.4536,12.8832 L -7.42732,12.8852 L -7.39934,12.8886 L -7.36967,12.8934 L -7.36967,12.7076
 L -7.40688,12.7005 L -7.448,12.6954 L -7.493,12.6923 L -7.54192,12.6913 L -7.62694,12.6968 L -7.70026,12.7133
 L -7.76189,12.7409 L -7.81181,12.7795 L -7.85039,12.8306 L -7.87793,12.8958 L -7.89445,12.975 L -7.89998,13.0683
 L -7.89998,13.2338 L -8.10611,13.2338 L -8.10611,13.4115 L -7.89998,13.4115 L -7.89998,14.7012 L -7.65585,14.7012
 z
M 0.162964,14.7193 L 0.291977,14.6921 L 0.403015,14.6467 L 0.496078,14.5832 L 0.569656,14.5032 L 0.622223,14.4083
 L 0.653748,14.2984 L 0.664261,14.1737 L 0.656799,14.086 L 0.634415,14.0062 L 0.597122,13.9341 L 0.544907,13.8699
 L 0.479294,13.8156 L 0.401825,13.7736 L 0.312485,13.7437 L 0.211273,13.7261 L 0.211273,13.7207 L 0.303131,13.6957
 L 0.383362,13.6615 L 0.451981,13.6181 L 0.508987,13.5654 L 0.553787,13.5038 L 0.585785,13.4337 L 0.60498,13.355
 L 0.611374,13.2677 L 0.601425,13.1549 L 0.571533,13.0553 L 0.521744,12.9688 L 0.452026,12.8954 L 0.364334,12.837
 L 0.26062,12.7952 L 0.140884,12.7702 L 0.00512695,12.7618 L -0.120453,12.77 L -0.234085,12.7947 L -0.335754,12.8358
 L -0.425476,12.8934 L -0.500458,12.9656 L -0.557892,13.0507 L -0.597763,13.1487 L -0.620102,13.2596 L -0.374619,13.2786
 L -0.361267,13.2075 L -0.337494,13.145 L -0.303284,13.0909 L -0.258667,13.0453 L -0.204956,13.0091 L -0.143555,12.9832
 L -0.0744171,12.9677 L 0.00242615,12.9625 L 0.0857849,12.9681 L 0.158203,12.9847 L 0.219696,13.0125 L 0.270264,13.0514
 L 0.309723,13.0998 L 0.337906,13.1563 L 0.354828,13.2209 L 0.360458,13.2935 L 0.353546,13.3666 L 0.332825,13.4313
 L 0.298279,13.4876 L 0.249924,13.5356 L 0.189026,13.5738 L 0.116852,13.6012 L 0.0334015,13.6176 L -0.0613251,13.623
 L -0.194244,13.623 L -0.194244,13.8346 L -0.0558929,13.8346 L 0.0506897,13.8401 L 0.143982,13.8565 L 0.223953,13.8838
 L 0.290619,13.9221 L 0.343124,13.9701 L 0.38063,14.0267 L 0.403137,14.0918 L 0.410645,14.1655 L 0.404068,14.2495
 L 0.384354,14.3225 L 0.351517,14.3845 L 0.305527,14.4354 L 0.248016,14.4752 L 0.180588,14.5036 L 0.103241,14.5206
 L 0.015976,14.5263 L -0.147873,14.5051 L -0.271881,14.4415 L -0.356049,14.3356 L -0.400375,14.1872 L -0.652664,14.2103
 L -0.627609,14.3306 L -0.585007,14.4352 L -0.524872,14.5242 L -0.447174,14.5975 L -0.353394,14.6547 L -0.244934,14.6956
 L -0.121811,14.7202 L 0.015976,14.7284 z
M -9.08554,14.7209 L -9.0235,14.7148 L -8.96213,14.7046 L -8.90143,14.6904 L -8.90143,14.51 L -8.94484,14.5183
 L -8.9828,14.5242 L -9.01535,14.5278 L -9.04248,14.529 L -9.08203,14.5263 L -9.11522,14.5183 L -9.14204,14.505
 L -9.16252,14.4863 L -9.17764,14.461 L -9.18845,14.4278 L -9.19493,14.3867 L -9.1971,14.3378 L -9.1971,13.4115
 L -8.92584,13.4115 L -8.92584,13.2338 L -9.1971,13.2338 L -9.1971,12.9056 L -9.35983,12.9056 L -9.43173,13.2338
 L -9.61075,13.2338 L -9.61075,13.4115 L -9.44121,13.4115 L -9.44121,14.3907 L -9.42291,14.536 L -9.36798,14.6399
 L -9.27644,14.7022 L -9.14827,14.7229 z
M 18.6558,14.7209 L 18.7178,14.7148 L 18.7792,14.7046 L 18.8399,14.6904 L 18.8399,14.51 L 18.7965,14.5183
 L 18.7585,14.5242 L 18.726,14.5278 L 18.6989,14.529 L 18.6593,14.5263 L 18.6261,14.5183 L 18.5993,14.505
 L 18.5788,14.4863 L 18.5637,14.461 L 18.5529,14.4278 L 18.5464,14.3867 L 18.5443,14.3378 L 18.5443,13.4115
 L 18.8155,13.4115 L 18.8155,13.2338 L 18.5443,13.2338 L 18.5443,12.9056 L 18.3815,12.9056 L 18.3096,13.2338
 L 18.1306,13.2338 L 18.1306,13.4115 L 18.3001,13.4115 L 18.3001,14.3907 L 18.3184,14.536 L 18.3734,14.6399
 L 18.4649,14.7022 L 18.5931,14.7229 z
M -10.5145,14.724 L -10.4357,14.7109 L -10.3636,14.6891 L -10.2982,14.6585 L -10.2381,14.6175 L -10.1817,14.5641
 L -10.1292,14.4984 L -10.0805,14.4205 L -10.0724,14.4205 L -10.065,14.4914 L -10.0509,14.5522 L -10.03,14.603
 L -10.0025,14.6436 L -9.96707,14.6748 L -9.92235,14.697 L -9.86839,14.7104 L -9.80519,14.7148 L -9.75729,14.7134
 L -9.70992,14.7094 L -9.66306,14.7026 L -9.61668,14.6931 L -9.61668,14.5412 L -9.63846,14.5454 L -9.65906,14.5483
 L -9.67847,14.5501 L -9.69669,14.5507 L -9.73347,14.5473 L -9.76382,14.537 L -9.78773,14.5198 L -9.80521,14.4958
 L -9.81767,14.465 L -9.82657,14.4275 L -9.83191,14.3832 L -9.83369,14.3323 L -9.83369,13.7003 L -9.84242,13.5874
 L -9.86861,13.4886 L -9.91226,13.404 L -9.97339,13.3335 L -10.0518,13.278 L -10.1473,13.2384 L -10.26,13.2146
 L -10.3897,13.2067 L -10.6239,13.2314 L -10.8,13.3057 L -10.9182,13.4294 L -10.9783,13.6027 L -10.7234,13.6258
 L -10.7122,13.5689 L -10.6935,13.5203 L -10.6674,13.4801 L -10.6339,13.4481 L -10.591,13.4238 L -10.5369,13.4064
 L -10.4716,13.396 L -10.3952,13.3925 L -10.3192,13.3973 L -10.2541,13.4118 L -10.1999,13.436 L -10.1565,13.4698
 L -10.1232,13.5148 L -10.0995,13.5725 L -10.0853,13.643 L -10.0805,13.7261 L -10.0805,13.8061 L -10.4101,13.8116
 L -10.5654,13.8228 L -10.6978,13.8482 L -10.8072,13.8878 L -10.8936,13.9418 L -10.9592,14.0094 L -11.006,14.0903
 L -11.0341,14.1843 L -11.0434,14.2917 L -11.0365,14.388 L -11.0156,14.4734 L -10.9809,14.548 L -10.9323,14.6117
 L -10.8698,14.6628 L -10.7936,14.6992 L -10.7036,14.7211 L -10.6,14.7284 z
M -10.6006,14.5412 L -10.65,14.529 L -10.6925,14.5087 L -10.7281,14.4802 L -10.7563,14.4442 L -10.7764,14.4015
 L -10.7885,14.352 L -10.7925,14.2957 L -10.7896,14.2434 L -10.7807,14.1964 L -10.7659,14.1546 L -10.7451,14.1181
 L -10.7188,14.0864 L -10.6873,14.0591 L -10.6506,14.0362 L -10.6088,14.0177 L -10.5592,14.0033 L -10.4991,13.9926
 L -10.4286,13.9857 L -10.3477,13.9824 L -10.0805,13.977 L -10.0805,14.0977 L -10.0843,14.1536 L -10.0956,14.2088
 L -10.1145,14.2631 L -10.1409,14.3167 L -10.1738,14.3671 L -10.2122,14.4118 L -10.2562,14.4509 L -10.3057,14.4842
 L -10.3597,14.5109 L -10.4175,14.53 L -10.4791,14.5415 L -10.5443,14.5453 z
M 62.6155,13.9363 L 62.6205,13.8214 L 62.6355,13.7205 L 62.6605,13.6339 L 62.6955,13.5613 L 62.74,13.5041
 L 62.7935,13.4632 L 62.856,13.4386 L 62.9274,13.4305 L 62.9661,13.4313 L 63.0006,13.4339 L 63.0312,13.4381
 L 63.0576,13.444 L 63.0576,13.2202 L 63.0326,13.2143 L 63.0078,13.2101 L 62.9831,13.2075 L 62.9586,13.2067
 L 62.8933,13.211 L 62.8358,13.224 L 62.7862,13.2456 L 62.7443,13.2758 L 62.7074,13.3179 L 62.6728,13.3748
 L 62.6403,13.4467 L 62.61,13.5335 L 62.6046,13.5335 L 62.6039,13.496 L 62.6019,13.4335 L 62.5985,13.3461
 L 62.5938,13.2338 L 62.3632,13.2338 L 62.3668,13.3253 L 62.3693,13.4128 L 62.3708,13.4962 L 62.3713,13.5756
 L 62.3713,14.7012 L 62.6155,14.7012 z
M 5.96782,14.7067 L 6.13828,14.6416 L 6.26686,14.5331 L 6.35358,14.3812 L 6.1393,14.3201 L 6.11848,14.3669
 L 6.08995,14.4093 L 6.05371,14.4475 L 6.00977,14.4815 L 5.95802,14.5094 L 5.89839,14.5293 L 5.83087,14.5413
 L 5.75548,14.5453 L 5.66113,14.5367 L 5.57881,14.511 L 5.50854,14.4682 L 5.4503,14.4083 L 5.40462,14.3326
 L 5.37198,14.2425 L 5.3524,14.138 L 5.34589,14.019 L 6.39291,14.019 L 6.39291,13.9865 L 6.35249,13.6453
 L 6.23119,13.4016 L 6.02902,13.2554 L 5.74599,13.2067 L 5.59709,13.2188 L 5.46643,13.2552 L 5.35399,13.3158
 L 5.25977,13.4006 L 5.1853,13.5082 L 5.13211,13.6369 L 5.1002,13.7869 L 5.08955,13.958 L 5.1002,14.1375
 L 5.13211,14.2934 L 5.1853,14.4257 L 5.25977,14.5344 L 5.35457,14.6193 L 5.4688,14.6799 L 5.60243,14.7162
 L 5.75548,14.7284 z
M 5.3486,13.8319 L 5.35864,13.7337 L 5.38065,13.6466 L 5.41458,13.5706 L 5.46048,13.5057 L 5.51698,13.4538
 L 5.58272,13.4167 L 5.6577,13.3945 L 5.74191,13.3871 L 5.82812,13.3937 L 5.90364,13.4137 L 5.96848,13.4469
 L 6.02264,13.4935 L 6.06664,13.5546 L 6.10097,13.6313 L 6.12564,13.7238 L 6.14064,13.8319 z
M 6.91693,13.9363 L 6.92194,13.8214 L 6.93694,13.7205 L 6.96194,13.6339 L 6.99695,13.5613 L 7.04146,13.5041
 L 7.09494,13.4632 L 7.15741,13.4386 L 7.22887,13.4305 L 7.26752,13.4313 L 7.30211,13.4339 L 7.33263,13.4381
 L 7.35907,13.444 L 7.35907,13.2202 L 7.33406,13.2143 L 7.30922,13.2101 L 7.28455,13.2075 L 7.26006,13.2067
 L 7.19478,13.211 L 7.13731,13.224 L 7.08763,13.2456 L 7.04575,13.2758 L 7.00888,13.3179 L 6.97421,13.3748
 L 6.94176,13.4467 L 6.9115,13.5335 L 6.90607,13.5335 L 6.9054,13.496 L 6.90337,13.4335 L 6.89998,13.3461
 L 6.89523,13.2338 L 6.66467,13.2338 L 6.66823,13.3253 L 6.67076,13.4128 L 6.67229,13.4962 L 6.67279,13.5756
 L 6.67279,14.7012 L 6.91693,14.7012 z
M 15.508,13.8509 L 15.5143,13.7496 L 15.5334,13.66 L 15.5652,13.5821 L 15.6097,13.5159 L 15.6652,13.4631
 L 15.7301,13.4254 L 15.8042,13.4027 L 15.8877,13.3952 L 15.9444,13.3974 L 15.9938,13.404 L 16.0359,13.415
 L 16.0708,13.4305 L 16.0999,13.4509 L 16.1247,13.4769 L 16.1453,13.5085 L 16.1617,13.5457 L 16.1741,13.5898
 L 16.183,13.642 L 16.1884,13.7024 L 16.1902,13.7709 L 16.1902,14.7012 L 16.4356,14.7012 L 16.4356,13.7234
 L 16.4286,13.5948 L 16.4077,13.4859 L 16.3727,13.3965 L 16.3237,13.3267 L 16.2597,13.2742 L 16.1795,13.2367
 L 16.0831,13.2142 L 15.9704,13.2067 L 15.8917,13.2106 L 15.8197,13.2224 L 15.7544,13.2421 L 15.6958,13.2697
 L 15.6422,13.3068 L 15.5919,13.355 L 15.5449,13.4143 L 15.5012,13.4847 L 15.4971,13.4847 L 15.4958,13.4354
 L 15.4946,13.3947 L 15.4934,13.3625 L 15.4924,13.3389 L 15.4905,13.3025 L 15.4883,13.2569 L 15.4876,13.2463
 L 15.4869,13.2386 L 15.4863,13.2338 L 15.2557,13.2338 L 15.2593,13.2747 L 15.2618,13.3406 L 15.2633,13.4314
 L 15.2638,13.5471 L 15.2638,14.7012 L 15.508,14.7012 z
M -6.47369,14.7166 L -6.34103,14.6812 L -6.22752,14.6223 L -6.13318,14.5398 L -6.05901,14.4333 L -6.00603,14.3022
 L -5.97424,14.1465 L -5.96364,13.9662 L -5.97356,13.7843 L -6.00331,13.628 L -6.0529,13.4971 L -6.12234,13.3918
 L -6.21278,13.3108 L -6.32544,13.253 L -6.4603,13.2182 L -6.61736,13.2067 L -6.90514,13.2542 L -7.11069,13.3965
 L -7.23402,13.6339 L -7.27515,13.9662 L -7.26488,14.1404 L -7.23412,14.2928 L -7.18283,14.4235 L -7.11104,14.5324
 L -7.01915,14.6181 L -6.90759,14.6794 L -6.77638,14.7161 L -6.6255,14.7284 z
M -6.72252,14.5389 L -6.80334,14.5115 L -6.8707,14.466 L -6.92456,14.4022 L -6.96581,14.3203 L -6.99525,14.2203
 L -7.01292,14.1022 L -7.01881,13.9662 L -7.01285,13.8269 L -6.99492,13.7073 L -6.96503,13.6075 L -6.9232,13.5274
 L -6.86797,13.466 L -6.79791,13.4221 L -6.71303,13.3958 L -6.6133,13.3871 L -6.5145,13.3957 L -6.43105,13.4215
 L -6.36295,13.4645 L -6.31018,13.5247 L -6.27072,13.6039 L -6.24252,13.7039 L -6.22562,13.8247 L -6.21999,13.9662
 L -6.22588,14.1061 L -6.24355,14.2262 L -6.27299,14.3265 L -6.31424,14.4069 L -6.36922,14.4686 L -6.43987,14.5127
 L -6.5262,14.5392 L -6.62822,14.548 z
M -11.6738,14.7067 L -11.5034,14.6416 L -11.3748,14.5331 L -11.2881,14.3812 L -11.5024,14.3201 L -11.5232,14.3669
 L -11.5517,14.4093 L -11.588,14.4475 L -11.6319,14.4815 L -11.6836,14.5094 L -11.7433,14.5293 L -11.8108,14.5413
 L -11.8862,14.5453 L -11.9805,14.5367 L -12.0629,14.511 L -12.1331,14.4682 L -12.1914,14.4083 L -12.237,14.3326
 L -12.2697,14.2425 L -12.2893,14.138 L -12.2958,14.019 L -11.2487,14.019 L -11.2487,13.9865 L -11.2892,13.6453
 L -11.4105,13.4016 L -11.6126,13.2554 L -11.8957,13.2067 L -12.0446,13.2188 L -12.1752,13.2552 L -12.2877,13.3158
 L -12.3819,13.4006 L -12.4564,13.5082 L -12.5096,13.6369 L -12.5415,13.7869 L -12.5521,13.958 L -12.5415,14.1375
 L -12.5096,14.2934 L -12.4564,14.4257 L -12.3819,14.5344 L -12.2871,14.6193 L -12.1729,14.6799 L -12.0392,14.7162
 L -11.8862,14.7284 z
M -12.2931,13.8319 L -12.283,13.7337 L -12.261,13.6466 L -12.2271,13.5706 L -12.1812,13.5057 L -12.1247,13.4538
 L -12.0589,13.4167 L -11.984,13.3945 L -11.8997,13.3871 L -11.8135,13.3937 L -11.738,13.4137 L -11.6732,13.4469
 L -11.619,13.4935 L -11.575,13.5546 L -11.5407,13.6313 L -11.516,13.7238 L -11.501,13.8319 z
M 14.5589,14.7067 L 14.7293,14.6416 L 14.8579,14.5331 L 14.9446,14.3812 L 14.7303,14.3201 L 14.7095,14.3669
 L 14.681,14.4093 L 14.6447,14.4475 L 14.6008,14.4815 L 14.5491,14.5094 L 14.4894,14.5293 L 14.4219,14.5413
 L 14.3465,14.5453 L 14.2522,14.5367 L 14.1698,14.511 L 14.0996,14.4682 L 14.0413,14.4083 L 13.9957,14.3326
 L 13.963,14.2425 L 13.9434,14.138 L 13.9369,14.019 L 14.984,14.019 L 14.984,13.9865 L 14.9435,13.6453
 L 14.8222,13.4016 L 14.6201,13.2554 L 14.337,13.2067 L 14.1881,13.2188 L 14.0575,13.2552 L 13.945,13.3158
 L 13.8508,13.4006 L 13.7763,13.5082 L 13.7231,13.6369 L 13.6912,13.7869 L 13.6806,13.958 L 13.6912,14.1375
 L 13.7231,14.2934 L 13.7763,14.4257 L 13.8508,14.5344 L 13.9456,14.6193 L 14.0598,14.6799 L 14.1935,14.7162
 L 14.3465,14.7284 z
M 13.9396,13.8319 L 13.9497,13.7337 L 13.9717,13.6466 L 14.0056,13.5706 L 14.0515,13.5057 L 14.108,13.4538
 L 14.1738,13.4167 L 14.2487,13.3945 L 14.333,13.3871 L 14.4192,13.3937 L 14.4947,13.4137 L 14.5595,13.4469
 L 14.6137,13.4935 L 14.6577,13.5546 L 14.692,13.6313 L 14.7167,13.7238 L 14.7317,13.8319 z
M 2.75352,14.724 L 2.83232,14.7109 L 2.90442,14.6891 L 2.96982,14.6585 L 3.02997,14.6175 L 3.08629,14.5641
 L 3.13881,14.4984 L 3.1875,14.4205 L 3.19562,14.4205 L 3.20303,14.4914 L 3.21715,14.5522 L 3.23796,14.603
 L 3.26546,14.6436 L 3.30093,14.6748 L 3.34566,14.697 L 3.39963,14.7104 L 3.46281,14.7148 L 3.51071,14.7134
 L 3.55809,14.7094 L 3.60495,14.7026 L 3.65132,14.6931 L 3.65132,14.5412 L 3.62955,14.5454 L 3.60895,14.5483
 L 3.58954,14.5501 L 3.57132,14.5507 L 3.53453,14.5473 L 3.50418,14.537 L 3.48027,14.5198 L 3.4628,14.4958
 L 3.45035,14.465 L 3.44144,14.4275 L 3.4361,14.3832 L 3.43433,14.3323 L 3.43433,13.7003 L 3.42558,13.5874
 L 3.3994,13.4886 L 3.35574,13.404 L 3.29462,13.3335 L 3.21622,13.278 L 3.1207,13.2384 L 3.00804,13.2146
 L 2.87827,13.2067 L 2.64413,13.2314 L 2.468,13.3057 L 2.34984,13.4294 L 2.28966,13.6027 L 2.54462,13.6258
 L 2.55582,13.5689 L 2.57446,13.5203 L 2.60057,13.4801 L 2.63414,13.4481 L 2.67703,13.4238 L 2.73111,13.4064
 L 2.79639,13.396 L 2.87283,13.3925 L 2.94879,13.3973 L 3.0139,13.4118 L 3.06815,13.436 L 3.11154,13.4698
 L 3.14478,13.5148 L 3.1685,13.5725 L 3.18275,13.643 L 3.1875,13.7261 L 3.1875,13.8061 L 2.85793,13.8116
 L 2.70259,13.8228 L 2.57022,13.8482 L 2.46083,13.8878 L 2.37442,13.9418 L 2.30885,14.0094 L 2.26202,14.0903
 L 2.23393,14.1843 L 2.22456,14.2917 L 2.23151,14.388 L 2.25237,14.4734 L 2.28711,14.548 L 2.33575,14.6117
 L 2.39824,14.6628 L 2.47444,14.6992 L 2.56438,14.7211 L 2.66805,14.7284 z
M 2.66742,14.5412 L 2.61804,14.529 L 2.57553,14.5087 L 2.53989,14.4802 L 2.5117,14.4442 L 2.49156,14.4015
 L 2.47949,14.352 L 2.47546,14.2957 L 2.47842,14.2434 L 2.48732,14.1964 L 2.50215,14.1546 L 2.52292,14.1181
 L 2.54924,14.0864 L 2.58073,14.0591 L 2.6174,14.0362 L 2.65923,14.0177 L 2.70885,14.0033 L 2.76892,13.9926
 L 2.8394,13.9857 L 2.92032,13.9824 L 3.1875,13.977 L 3.1875,14.0977 L 3.18373,14.1536 L 3.17241,14.2088
 L 3.15355,14.2631 L 3.12714,14.3167 L 3.09421,14.3671 L 3.05576,14.4118 L 3.01181,14.4509 L 2.96234,14.4842
 L 2.90826,14.5109 L 2.85046,14.53 L 2.78893,14.5415 L 2.72366,14.5453 z
M -16.154,13.9363 L -16.149,13.8214 L -16.134,13.7205 L -16.109,13.6339 L -16.074,13.5613 L -16.0295,13.5041
 L -15.976,13.4632 L -15.9135,13.4386 L -15.8421,13.4305 L -15.8034,13.4313 L -15.7689,13.4339 L -15.7383,13.4381
 L -15.7119,13.444 L -15.7119,13.2202 L -15.7369,13.2143 L -15.7617,13.2101 L -15.7864,13.2075 L -15.8109,13.2067
 L -15.8762,13.211 L -15.9337,13.224 L -15.9833,13.2456 L -16.0252,13.2758 L -16.0621,13.3179 L -16.0967,13.3748
 L -16.1292,13.4467 L -16.1595,13.5335 L -16.1649,13.5335 L -16.1656,13.496 L -16.1676,13.4335 L -16.171,13.3461
 L -16.1757,13.2338 L -16.4063,13.2338 L -16.4027,13.3253 L -16.4002,13.4128 L -16.3987,13.4962 L -16.3982,13.5756
 L -16.3982,14.7012 L -16.154,14.7012 z
M -3.57915,14.724 L -3.50035,14.7109 L -3.42825,14.6891 L -3.36285,14.6585 L -3.30272,14.6175 L -3.24638,14.5641
 L -3.19388,14.4984 L -3.14517,14.4205 L -3.13705,14.4205 L -3.12964,14.4914 L -3.11552,14.5522 L -3.09471,14.603
 L -3.06721,14.6436 L -3.03174,14.6748 L -2.98701,14.697 L -2.93306,14.7104 L -2.86986,14.7148 L -2.82198,14.7134
 L -2.7746,14.7094 L -2.72772,14.7026 L -2.68135,14.6931 L -2.68135,14.5412 L -2.70314,14.5454 L -2.72372,14.5483
 L -2.74313,14.5501 L -2.76135,14.5507 L -2.79814,14.5473 L -2.82849,14.537 L -2.8524,14.5198 L -2.86987,14.4958
 L -2.88234,14.465 L -2.89124,14.4275 L -2.89658,14.3832 L -2.89836,14.3323 L -2.89836,13.7003 L -2.90709,13.5874
 L -2.93327,13.4886 L -2.97694,13.404 L -3.03806,13.3335 L -3.11646,13.278 L -3.21199,13.2384 L -3.32463,13.2146
 L -3.45442,13.2067 L -3.68854,13.2314 L -3.86467,13.3057 L -3.98283,13.4294 L -4.04301,13.6027 L -3.78806,13.6258
 L -3.77687,13.5689 L -3.75821,13.5203 L -3.7321,13.4801 L -3.69853,13.4481 L -3.65564,13.4238 L -3.60156,13.4064
 L -3.53629,13.396 L -3.45984,13.3925 L -3.38388,13.3973 L -3.31879,13.4118 L -3.26453,13.436 L -3.22113,13.4698
 L -3.1879,13.5148 L -3.16417,13.5725 L -3.14992,13.643 L -3.14517,13.7261 L -3.14517,13.8061 L -3.47476,13.8116
 L -3.6301,13.8228 L -3.76245,13.8482 L -3.87184,13.8878 L -3.95825,13.9418 L -4.02382,14.0094 L -4.07065,14.0903
 L -4.09875,14.1843 L -4.10811,14.2917 L -4.10117,14.388 L -4.08032,14.4734 L -4.04556,14.548 L -3.99692,14.6117
 L -3.93443,14.6628 L -3.85823,14.6992 L -3.7683,14.7211 L -3.66464,14.7284 z
M -3.66527,14.5412 L -3.71465,14.529 L -3.75716,14.5087 L -3.7928,14.4802 L -3.82098,14.4442 L -3.84111,14.4015
 L -3.8532,14.352 L -3.85721,14.2957 L -3.85425,14.2434 L -3.84535,14.1964 L -3.83052,14.1546 L -3.80975,14.1181
 L -3.78343,14.0864 L -3.75194,14.0591 L -3.71529,14.0362 L -3.67346,14.0177 L -3.62383,14.0033 L -3.56377,13.9926
 L -3.49327,13.9857 L -3.41235,13.9824 L -3.14517,13.977 L -3.14517,14.0977 L -3.14894,14.1536 L -3.16026,14.2088
 L -3.17912,14.2631 L -3.20554,14.3167 L -3.23846,14.3671 L -3.27692,14.4118 L -3.32088,14.4509 L -3.37033,14.4842
 L -3.42441,14.5109 L -3.48221,14.53 L -3.54375,14.5415 L -3.60901,14.5453 z
M 64.0783,14.7067 L 64.2488,14.6416 L 64.3774,14.5331 L 64.4641,14.3812 L 64.2498,14.3201 L 64.229,14.3669
 L 64.2005,14.4093 L 64.1642,14.4475 L 64.1203,14.4815 L 64.0685,14.5094 L 64.0089,14.5293 L 63.9414,14.5413
 L 63.866,14.5453 L 63.7717,14.5367 L 63.6893,14.511 L 63.6191,14.4682 L 63.5608,14.4083 L 63.5152,14.3326
 L 63.4825,14.2425 L 63.4629,14.138 L 63.4564,14.019 L 64.5034,14.019 L 64.5034,13.9865 L 64.463,13.6453
 L 64.3417,13.4016 L 64.1395,13.2554 L 63.8565,13.2067 L 63.7076,13.2188 L 63.577,13.2552 L 63.4645,13.3158
 L 63.3703,13.4006 L 63.2958,13.5082 L 63.2426,13.6369 L 63.2107,13.7869 L 63.2001,13.958 L 63.2107,14.1375
 L 63.2426,14.2934 L 63.2958,14.4257 L 63.3703,14.5344 L 63.4651,14.6193 L 63.5793,14.6799 L 63.713,14.7162
 L 63.866,14.7284 z
M 63.4591,13.8319 L 63.4692,13.7337 L 63.4912,13.6466 L 63.5251,13.5706 L 63.571,13.5057 L 63.6275,13.4538
 L 63.6933,13.4167 L 63.7682,13.3945 L 63.8524,13.3871 L 63.9386,13.3937 L 64.0142,13.4137 L 64.079,13.4469
 L 64.1332,13.4935 L 64.1772,13.5546 L 64.2115,13.6313 L 64.2362,13.7238 L 64.2512,13.8319 z
M -14.6911,14.7067 L -14.5207,14.6416 L -14.3921,14.5331 L -14.3054,14.3812 L -14.5197,14.3201 L -14.5405,14.3669
 L -14.569,14.4093 L -14.6053,14.4475 L -14.6492,14.4815 L -14.7009,14.5094 L -14.7606,14.5293 L -14.8281,14.5413
 L -14.9035,14.5453 L -14.9978,14.5367 L -15.0802,14.511 L -15.1504,14.4682 L -15.2087,14.4083 L -15.2543,14.3326
 L -15.287,14.2425 L -15.3066,14.138 L -15.3131,14.019 L -14.266,14.019 L -14.266,13.9865 L -14.3065,13.6453
 L -14.4278,13.4016 L -14.6299,13.2554 L -14.913,13.2067 L -15.0619,13.2188 L -15.1925,13.2552 L -15.305,13.3158
 L -15.3992,13.4006 L -15.4737,13.5082 L -15.5269,13.6369 L -15.5588,13.7869 L -15.5694,13.958 L -15.5588,14.1375
 L -15.5269,14.2934 L -15.4737,14.4257 L -15.3992,14.5344 L -15.3044,14.6193 L -15.1902,14.6799 L -15.0565,14.7162
 L -14.9035,14.7284 z
M -15.3104,13.8319 L -15.3003,13.7337 L -15.2783,13.6466 L -15.2444,13.5706 L -15.1985,13.5057 L -15.142,13.4538
 L -15.0762,13.4167 L -15.0013,13.3945 L -14.917,13.3871 L -14.8308,13.3937 L -14.7553,13.4137 L -14.6905,13.4469
 L -14.6363,13.4935 L -14.5923,13.5546 L -14.558,13.6313 L -14.5333,13.7238 L -14.5183,13.8319 z
M 21.7515,14.724 L 21.8303,14.7109 L 21.9024,14.6891 L 21.9678,14.6585 L 22.028,14.6175 L 22.0843,14.5641
 L 22.1368,14.4984 L 22.1855,14.4205 L 22.1936,14.4205 L 22.201,14.4914 L 22.2151,14.5522 L 22.2359,14.603
 L 22.2634,14.6436 L 22.2989,14.6748 L 22.3436,14.697 L 22.3976,14.7104 L 22.4608,14.7148 L 22.5087,14.7134
 L 22.5561,14.7094 L 22.603,14.7026 L 22.6493,14.6931 L 22.6493,14.5412 L 22.6275,14.5454 L 22.6069,14.5483
 L 22.5875,14.5501 L 22.5693,14.5507 L 22.5325,14.5473 L 22.5022,14.537 L 22.4783,14.5198 L 22.4608,14.4958
 L 22.4483,14.465 L 22.4394,14.4275 L 22.4341,14.3832 L 22.4323,14.3323 L 22.4323,13.7003 L 22.4236,13.5874
 L 22.3974,13.4886 L 22.3537,13.404 L 22.2926,13.3335 L 22.2142,13.278 L 22.1187,13.2384 L 22.006,13.2146
 L 21.8763,13.2067 L 21.6421,13.2314 L 21.466,13.3057 L 21.3478,13.4294 L 21.2876,13.6027 L 21.5426,13.6258
 L 21.5538,13.5689 L 21.5724,13.5203 L 21.5986,13.4801 L 21.6321,13.4481 L 21.675,13.4238 L 21.7291,13.4064
 L 21.7944,13.396 L 21.8708,13.3925 L 21.9468,13.3973 L 22.0119,13.4118 L 22.0661,13.436 L 22.1095,13.4698
 L 22.1428,13.5148 L 22.1665,13.5725 L 22.1807,13.643 L 22.1855,13.7261 L 22.1855,13.8061 L 21.8559,13.8116
 L 21.7006,13.8228 L 21.5682,13.8482 L 21.4588,13.8878 L 21.3724,13.9418 L 21.3068,14.0094 L 21.26,14.0903
 L 21.2319,14.1843 L 21.2225,14.2917 L 21.2295,14.388 L 21.2504,14.4734 L 21.2851,14.548 L 21.3338,14.6117
 L 21.3962,14.6628 L 21.4724,14.6992 L 21.5624,14.7211 L 21.666,14.7284 z
M 21.6654,14.5412 L 21.616,14.529 L 21.5735,14.5087 L 21.5379,14.4802 L 21.5097,14.4442 L 21.4895,14.4015
 L 21.4775,14.352 L 21.4734,14.2957 L 21.4764,14.2434 L 21.4853,14.1964 L 21.5001,14.1546 L 21.5209,14.1181
 L 21.5472,14.0864 L 21.5787,14.0591 L 21.6154,14.0362 L 21.6572,14.0177 L 21.7068,14.0033 L 21.7669,13.9926
 L 21.8374,13.9857 L 21.9183,13.9824 L 22.1855,13.977 L 22.1855,14.0977 L 22.1817,14.1536 L 22.1704,14.2088
 L 22.1515,14.2631 L 22.1251,14.3167 L 22.0922,14.3671 L 22.0537,14.4118 L 22.0098,14.4509 L 21.9603,14.4842
 L 21.9062,14.5109 L 21.8484,14.53 L 21.7869,14.5415 L 21.7216,14.5453 z
M -5.44641,13.9363 L -5.44141,13.8214 L -5.42641,13.7205 L -5.4014,13.6339 L -5.36639,13.5613 L -5.32188,13.5041
 L -5.2684,13.4632 L -5.20592,13.4386 L -5.13446,13.4305 L -5.09583,13.4313 L -5.06123,13.4339 L -5.03072,13.4381
 L -5.00427,13.444 L -5.00427,13.2202 L -5.02928,13.2143 L -5.05412,13.2101 L -5.0788,13.2075 L -5.10329,13.2067
 L -5.16856,13.211 L -5.22603,13.224 L -5.27571,13.2456 L -5.31758,13.2758 L -5.35446,13.3179 L -5.38913,13.3748
 L -5.42159,13.4467 L -5.45184,13.5335 L -5.45726,13.5335 L -5.45795,13.496 L -5.45998,13.4335 L -5.46336,13.3461
 L -5.46811,13.2338 L -5.69867,13.2338 L -5.69511,13.3253 L -5.69258,13.4128 L -5.69106,13.4962 L -5.69055,13.5756
 L -5.69055,14.7012 L -5.44641,14.7012 z
M -13.7475,14.704 L -13.7478,14.6072 L -13.7488,14.5365 L -13.7505,14.4919 L -13.7529,14.4734 L -13.7461,14.4734
 L -13.6739,14.5849 L -13.5739,14.6646 L -13.446,14.7124 L -13.2904,14.7284 L -13.0542,14.6804 L -12.8856,14.5365
 L -12.7843,14.2966 L -12.7506,13.9607 L -12.759,13.7791 L -12.7842,13.6234 L -12.8261,13.4936 L -12.8849,13.3898
 L -12.9606,13.3102 L -13.0534,13.2534 L -13.1633,13.2194 L -13.2904,13.208 L -13.3737,13.212 L -13.4484,13.2238
 L -13.5147,13.2435 L -13.5725,13.2711 L -13.6235,13.3072 L -13.6691,13.3523 L -13.7096,13.4065 L -13.7448,13.4698
 L -13.7502,13.4698 L -13.7504,13.4542 L -13.751,13.4332 L -13.7521,13.4067 L -13.7536,13.3749 L -13.7552,13.3425
 L -13.7568,13.3147 L -13.7583,13.2913 L -13.7597,13.2725 L -13.7609,13.2576 L -13.7621,13.2462 L -13.763,13.2383
 L -13.7637,13.2338 L -13.9997,13.2338 L -13.9962,13.28 L -13.9936,13.3454 L -13.9921,13.4299 L -13.9916,13.5335
 L -13.9916,15.2776 L -13.7475,15.2776 z
M -13.4521,14.5394 L -13.5342,14.5137 L -13.6019,14.4709 L -13.6553,14.411 L -13.6956,14.333 L -13.7244,14.2361
 L -13.7417,14.1201 L -13.7475,13.9852 L -13.7448,13.8863 L -13.7368,13.7971 L -13.7234,13.7178 L -13.7048,13.6481
 L -13.6809,13.5876 L -13.6522,13.5357 L -13.6185,13.4924 L -13.58,13.4576 L -13.535,13.4309 L -13.4821,13.4118
 L -13.4214,13.4004 L -13.3528,13.3965 L -13.2687,13.4048 L -13.1968,13.4294 L -13.1372,13.4705 L -13.0897,13.5281
 L -13.0535,13.6048 L -13.0276,13.7034 L -13.0121,13.8239 L -13.007,13.9662 L -13.0122,14.1122 L -13.0278,14.2355
 L -13.0539,14.3363 L -13.0904,14.4144 L -13.1382,14.4728 L -13.1984,14.5146 L -13.2708,14.5396 L -13.3555,14.548
 z
M 8.20981,14.7213 L 8.32733,14.7002 L 8.42917,14.6651 L 8.51534,14.6158 L 8.58388,14.5536 L 8.63283,14.4795
 L 8.6622,14.3935 L 8.672,14.2957 L 8.6703,14.2548 L 8.66521,14.2162 L 8.65672,14.1799 L 8.64485,14.1459
 L 8.6299,14.114 L 8.61214,14.084 L 8.59158,14.056 L 8.56824,14.0299 L 8.54123,14.0054 L 8.50975,13.9819
 L 8.47377,13.9596 L 8.43329,13.9384 L 8.38379,13.9172 L 8.32072,13.8951 L 8.24409,13.8721 L 8.15392,13.8482
 L 8.06033,13.8244 L 7.98438,13.8034 L 7.92604,13.7851 L 7.88535,13.7695 L 7.85544,13.7545 L 7.82941,13.738
 L 7.80728,13.7199 L 7.78905,13.7004 L 7.77481,13.6786 L 7.76465,13.6542 L 7.75854,13.6271 L 7.75652,13.5973
 L 7.76143,13.5496 L 7.77618,13.5084 L 7.80077,13.4737 L 7.83517,13.4454 L 7.87994,13.4234 L 7.93555,13.4077
 L 8.002,13.3983 L 8.07932,13.3952 L 8.15013,13.3985 L 8.21341,13.4082 L 8.26913,13.4246 L 8.31734,13.4474
 L 8.35747,13.4764 L 8.38905,13.511 L 8.41206,13.5513 L 8.42651,13.5973 L 8.64621,13.5701 L 8.62067,13.4823
 L 8.58197,13.4074 L 8.53014,13.3453 L 8.46515,13.2962 L 8.38739,13.2588 L 8.29715,13.2321 L 8.19446,13.2161
 L 8.07932,13.2107 L 7.95052,13.2173 L 7.83807,13.237 L 7.74197,13.2699 L 7.66225,13.3159 L 7.59966,13.3744
 L 7.55495,13.4449 L 7.52812,13.5273 L 7.51917,13.6217 L 7.52231,13.6738 L 7.53172,13.7217 L 7.54739,13.7654
 L 7.56935,13.8048 L 7.59686,13.8407 L 7.6292,13.8738 L 7.66637,13.9041 L 7.70837,13.9316 L 7.76038,13.9578
 L 7.82756,13.9843 L 7.90991,14.011 L 8.00743,14.038 L 8.18239,14.0841 L 8.24426,14.103 L 8.29698,14.1241
 L 8.34056,14.1477 L 8.37497,14.1737 L 8.40108,14.2028 L 8.41974,14.236 L 8.43092,14.2733 L 8.43465,14.3147
 L 8.42928,14.3681 L 8.41312,14.4144 L 8.38622,14.4536 L 8.34853,14.4856 L 8.29924,14.5105 L 8.23749,14.5283
 L 8.16327,14.539 L 8.0766,14.5426 L 7.99454,14.5391 L 7.92198,14.5288 L 7.8589,14.5117 L 7.80533,14.4876
 L 7.76067,14.4562 L 7.7243,14.4169 L 7.69626,14.3698 L 7.67651,14.3147 L 7.46085,14.3568 L 7.48972,14.4461
 L 7.53156,14.5227 L 7.58635,14.5868 L 7.65411,14.6382 L 7.73621,14.6776 L 7.834,14.7058 L 7.94745,14.7227
 L 8.0766,14.7284 z
M 17.5919,15.239 L 17.7839,15.123 L 17.8991,14.9298 L 17.9375,14.6592 L 17.9375,13.5376 L 17.938,13.4321
 L 17.9395,13.3464 L 17.9421,13.2802 L 17.9456,13.2338 L 17.7137,13.2338 L 17.711,13.2442 L 17.7083,13.266
 L 17.7056,13.2992 L 17.7029,13.3437 L 17.7005,13.3901 L 17.6988,13.4291 L 17.6978,13.4606 L 17.6975,13.4847
 L 17.6947,13.4847 L 17.6603,13.4227 L 17.6193,13.3682 L 17.5718,13.3213 L 17.5177,13.2819 L 17.4579,13.2508
 L 17.3928,13.2285 L 17.3226,13.2152 L 17.2472,13.2107 L 17.117,13.2223 L 17.0046,13.257 L 16.9099,13.3149
 L 16.8328,13.3959 L 16.7732,13.5012 L 16.7306,13.632 L 16.7051,13.7884 L 16.6965,13.9702 L 16.7045,14.1493
 L 16.7282,14.3028 L 16.7679,14.4308 L 16.8233,14.5331 L 16.8957,14.6114 L 16.9859,14.6673 L 17.0941,14.7009
 L 17.2201,14.7121 L 17.2982,14.7077 L 17.3713,14.6943 L 17.4393,14.6721 L 17.5021,14.6409 L 17.5593,14.6009
 L 17.61,14.5522 L 17.6542,14.4948 L 17.692,14.4286 L 17.6947,14.4286 L 17.6947,14.6646 L 17.6719,14.8515
 L 17.6035,14.985 L 17.4895,15.0651 L 17.3299,15.0918 L 17.2654,15.0884 L 17.2073,15.0781 L 17.1558,15.0609
 L 17.1109,15.0369 L 17.0728,15.0065 L 17.0422,14.9703 L 17.019,14.9282 L 17.0031,14.8803 L 16.7576,14.9155
 L 16.7843,14.9974 L 16.8237,15.0693 L 16.8758,15.1313 L 16.9407,15.1834 L 17.018,15.2246 L 17.1075,15.2541
 L 17.2092,15.2717 L 17.3231,15.2776 z
M 17.2129,14.5235 L 17.1373,14.4988 L 17.0759,14.4577 L 17.0288,14.4002 L 16.9938,14.3238 L 16.9688,14.2262
 L 16.9538,14.1075 L 16.9488,13.9675 L 16.9541,13.8261 L 16.9702,13.7058 L 16.9969,13.6064 L 17.0342,13.5281
 L 17.0833,13.4688 L 17.1451,13.4264 L 17.2196,13.401 L 17.3069,13.3925 L 17.3617,13.3968 L 17.4135,13.4096
 L 17.4623,13.431 L 17.5082,13.461 L 17.5502,13.499 L 17.5871,13.5447 L 17.619,13.598 L 17.6459,13.659
 L 17.6673,13.7268 L 17.6825,13.8009 L 17.6917,13.8811 L 17.6947,13.9675 L 17.6917,14.052 L 17.6825,14.1304
 L 17.6673,14.2029 L 17.6459,14.2693 L 17.6189,14.329 L 17.5869,14.3813 L 17.5498,14.4263 L 17.5076,14.4639
 L 17.4612,14.4936 L 17.4116,14.5148 L 17.3588,14.5275 L 17.3028,14.5317 z
M 3.93304,15.2741 L 3.98869,15.2636 L 4.0412,15.246 L 4.09058,15.2214 L 4.13733,15.1896 L 4.18195,15.1505
 L 4.22446,15.1041 L 4.26485,15.0505 L 4.30495,14.9857 L 4.34657,14.9059 L 4.38971,14.8111 L 4.43439,14.7012
 L 4.9986,13.2338 L 4.74089,13.2338 L 4.41948,14.1682 L 4.32454,14.4354 L 4.31953,14.4183 L 4.30861,14.3846
 L 4.29173,14.3342 L 4.26894,14.2672 L 4.24579,14.1997 L 4.22791,14.1477 L 4.21527,14.1112 L 4.20789,14.0903
 L 4.19162,14.0448 L 3.88239,13.2338 L 3.62199,13.2338 L 4.20383,14.6945 L 4.18077,14.7528 L 4.10838,14.8993
 L 4.02412,15.004 L 3.92799,15.0668 L 3.82001,15.0878 L 3.78949,15.0873 L 3.76033,15.0858 L 3.73253,15.0832
 L 3.70607,15.0796 L 3.70607,15.2627 L 3.74202,15.2693 L 3.78203,15.2739 L 3.82611,15.2767 L 3.87425,15.2776
 z
M 12.2712,13.9038 L 9.49358,13.9038 L 9.49358,14.0896 L 12.2712,14.0896 z
M 95.7393,14.55 L 95.4463,14.55 L 95.4463,16.9652 L 95.7393,16.9652 z
M 129.393,14.55 L 129.1,14.55 L 129.1,14.83 L 129.393,14.83 z
M 112.071,14.55 L 111.814,14.55 L 111.145,16.9978 L 111.409,16.9978 z
M 95.016,14.55 L 94.7231,14.55 L 94.7231,16.9652 L 95.016,16.9652 z
M 88.1384,14.55 L 87.8455,14.55 L 87.8455,14.83 L 88.1384,14.83 z
M 94.2912,14.55 L 93.9983,14.55 L 93.9983,14.83 L 94.2912,14.83 z
M 127.591,15.9269 L 127.598,15.8119 L 127.622,15.7092 L 127.661,15.619 L 127.715,15.5412 L 127.782,15.4785
 L 127.86,15.4338 L 127.948,15.4069 L 128.046,15.398 L 128.112,15.4006 L 128.17,15.4086 L 128.22,15.4218
 L 128.263,15.4403 L 128.299,15.4644 L 128.33,15.4946 L 128.355,15.5308 L 128.375,15.5729 L 128.39,15.6241
 L 128.401,15.6871 L 128.407,15.762 L 128.409,15.8488 L 128.409,16.9652 L 128.704,16.9652 L 128.704,15.7918
 L 128.695,15.6362 L 128.67,15.5048 L 128.627,15.3974 L 128.568,15.3142 L 128.49,15.2519 L 128.394,15.2074
 L 128.279,15.1807 L 128.146,15.1718 L 128.048,15.1768 L 127.96,15.1919 L 127.88,15.2171 L 127.809,15.2523
 L 127.745,15.2984 L 127.686,15.3559 L 127.632,15.4249 L 127.582,15.5054 L 127.578,15.5054 L 127.579,15.4917
 L 127.58,15.4667 L 127.582,15.4306 L 127.585,15.3833 L 127.587,15.3308 L 127.589,15.2792 L 127.59,15.2283
 L 127.591,15.1783 L 127.591,14.55 L 127.298,14.55 L 127.298,16.9652 L 127.591,16.9652 z
M 71.9165,15.4175 L 72.4691,15.4175 L 72.4691,16.9652 L 72.7621,16.9652 L 72.7621,15.4175 L 73.1055,15.4175
 L 73.1055,15.2043 L 72.7621,15.2043 L 72.7621,15.0464 L 72.7652,14.9774 L 72.7747,14.9199 L 72.7905,14.874
 L 72.8125,14.8397 L 72.8416,14.8148 L 72.8784,14.797 L 72.923,14.7863 L 72.9753,14.7828 L 73.0048,14.7836
 L 73.0363,14.786 L 73.0699,14.7901 L 73.1055,14.7958 L 73.1055,14.5728 L 73.0608,14.5643 L 73.0115,14.5582
 L 72.9575,14.5545 L 72.8988,14.5533 L 72.7968,14.5599 L 72.7088,14.5798 L 72.6348,14.6128 L 72.5749,14.6591
 L 72.5286,14.7204 L 72.4956,14.7986 L 72.4757,14.8938 L 72.4691,15.0058 L 72.4691,15.2043 L 71.9165,15.2043
 L 71.9165,15.0464 L 71.9196,14.9774 L 71.9291,14.9199 L 71.9448,14.874 L 71.9669,14.8397 L 71.996,14.8148
 L 72.0328,14.797 L 72.0774,14.7863 L 72.1297,14.7828 L 72.1592,14.7836 L 72.1907,14.786 L 72.2243,14.7901
 L 72.2599,14.7958 L 72.2599,14.5728 L 72.2152,14.5643 L 72.1659,14.5582 L 72.1119,14.5545 L 72.0532,14.5533
 L 71.9512,14.5599 L 71.8632,14.5798 L 71.7892,14.6128 L 71.7293,14.6591 L 71.683,14.7204 L 71.65,14.7986
 L 71.6301,14.8938 L 71.6235,15.0058 L 71.6235,15.2043 L 71.3762,15.2043 L 71.3762,15.4175 L 71.6235,15.4175
 L 71.6235,16.9652 L 71.9165,16.9652 z
M 81.2446,16.9789 L 81.4062,16.9221 L 81.5437,16.8275 L 81.657,16.6951 L 81.7457,16.5267 L 81.809,16.3244
 L 81.847,16.0881 L 81.8597,15.8179 L 81.8476,15.5436 L 81.8114,15.3052 L 81.7512,15.1026 L 81.6668,14.9358
 L 81.5571,14.8055 L 81.4209,14.7124 L 81.2581,14.6565 L 81.0687,14.6379 L 80.8744,14.6563 L 80.708,14.7116
 L 80.5696,14.8036 L 80.4592,14.9325 L 80.3748,15.0983 L 80.3146,15.3011 L 80.2784,15.541 L 80.2663,15.8179
 L 80.2788,16.0895 L 80.316,16.3264 L 80.378,16.5289 L 80.4649,16.6967 L 80.5765,16.8284 L 80.7127,16.9225
 L 80.8735,16.979 L 81.0589,16.9978 z
M 80.9408,16.7444 L 80.837,16.702 L 80.7508,16.6313 L 80.6822,16.5323 L 80.6298,16.4028 L 80.5925,16.2406
 L 80.57,16.0456 L 80.5626,15.8179 L 80.5699,15.5841 L 80.5921,15.3858 L 80.6289,15.2228 L 80.6805,15.0953
 L 80.7491,14.9991 L 80.8366,14.9305 L 80.9431,14.8893 L 81.0687,14.8755 L 81.1912,14.8895 L 81.2951,14.9313
 L 81.3804,15.001 L 81.4471,15.0985 L 81.4973,15.2271 L 81.5332,15.3898 L 81.5547,15.5868 L 81.5618,15.8179
 L 81.5543,16.0416 L 81.5317,16.2345 L 81.4941,16.3964 L 81.4414,16.5275 L 81.3725,16.6286 L 81.2864,16.7008
 L 81.1829,16.7441 L 81.0622,16.7586 z
M 80.0167,16.7162 L 79.4585,16.7162 L 79.4585,14.6721 L 79.1884,14.6721 L 78.6464,15.0448 L 78.6464,15.3215
 L 79.1639,14.952 L 79.1639,16.7162 L 78.5797,16.7162 L 78.5797,16.9652 L 80.0167,16.9652 z
M 82.3876,14.6721 L 82.0881,14.6721 L 82.1223,15.3931 L 82.3518,15.3931 z
M 82.9881,14.6721 L 82.6887,14.6721 L 82.7212,15.3931 L 82.9523,15.3931 z
M 77.1976,16.9888 L 77.2721,16.9815 L 77.3458,16.9693 L 77.4186,16.9522 L 77.4186,16.7357 L 77.3665,16.7457
 L 77.3209,16.7529 L 77.2819,16.7571 L 77.2493,16.7586 L 77.2019,16.7554 L 77.162,16.7457 L 77.1299,16.7297
 L 77.1053,16.7073 L 77.0871,16.6769 L 77.0742,16.6371 L 77.0664,16.5878 L 77.0638,16.5291 L 77.0638,15.4175
 L 77.3893,15.4175 L 77.3893,15.2043 L 77.0638,15.2043 L 77.0638,14.8104 L 76.8685,14.8104 L 76.7822,15.2043
 L 76.5674,15.2043 L 76.5674,15.4175 L 76.7708,15.4175 L 76.7708,16.5925 L 76.7928,16.767 L 76.8587,16.8916
 L 76.9686,16.9664 L 77.1224,16.9913 z
M 101.691,16.9888 L 101.766,16.9815 L 101.839,16.9693 L 101.912,16.9522 L 101.912,16.7357 L 101.86,16.7457
 L 101.815,16.7529 L 101.775,16.7571 L 101.743,16.7586 L 101.695,16.7554 L 101.656,16.7457 L 101.623,16.7297
 L 101.599,16.7073 L 101.581,16.6769 L 101.568,16.6371 L 101.56,16.5878 L 101.557,16.5291 L 101.557,15.4175
 L 101.883,15.4175 L 101.883,15.2043 L 101.557,15.2043 L 101.557,14.8104 L 101.362,14.8104 L 101.276,15.2043
 L 101.061,15.2043 L 101.061,15.4175 L 101.264,15.4175 L 101.264,16.5925 L 101.286,16.767 L 101.352,16.8916
 L 101.462,16.9664 L 101.616,16.9913 z
M 86.3148,16.9888 L 86.3893,16.9815 L 86.4629,16.9693 L 86.5357,16.9522 L 86.5357,16.7357 L 86.4836,16.7457
 L 86.4381,16.7529 L 86.399,16.7571 L 86.3665,16.7586 L 86.319,16.7554 L 86.2792,16.7457 L 86.247,16.7297
 L 86.2224,16.7073 L 86.2043,16.6769 L 86.1913,16.6371 L 86.1835,16.5878 L 86.1809,16.5291 L 86.1809,15.4175
 L 86.5064,15.4175 L 86.5064,15.2043 L 86.1809,15.2043 L 86.1809,14.8104 L 85.9856,14.8104 L 85.8994,15.2043
 L 85.6845,15.2043 L 85.6845,15.4175 L 85.888,15.4175 L 85.888,16.5925 L 85.91,16.767 L 85.9759,16.8916
 L 86.0857,16.9664 L 86.2395,16.9913 z
M 118.726,16.0473 L 118.732,15.9094 L 118.75,15.7884 L 118.78,15.6844 L 118.822,15.5974 L 118.876,15.5286
 L 118.94,15.4796 L 119.015,15.4501 L 119.1,15.4403 L 119.147,15.4413 L 119.188,15.4444 L 119.225,15.4494
 L 119.257,15.4566 L 119.257,15.188 L 119.227,15.1809 L 119.197,15.1758 L 119.167,15.1728 L 119.138,15.1718
 L 119.06,15.1769 L 118.991,15.1925 L 118.931,15.2184 L 118.881,15.2547 L 118.836,15.3052 L 118.795,15.3736
 L 118.756,15.4598 L 118.72,15.564 L 118.713,15.564 L 118.712,15.5189 L 118.71,15.4439 L 118.706,15.3391
 L 118.7,15.2043 L 118.423,15.2043 L 118.428,15.3142 L 118.431,15.4191 L 118.433,15.5192 L 118.433,15.6144
 L 118.433,16.9652 L 118.726,16.9652 z
M 123.035,16.9883 L 123.156,16.9599 L 123.266,16.9127 L 123.363,16.8464 L 123.445,16.7643 L 123.508,16.6694
 L 123.553,16.5617 L 123.58,16.4412 L 123.283,16.4217 L 123.266,16.5038 L 123.239,16.5746 L 123.201,16.634
 L 123.154,16.6821 L 123.098,16.7191 L 123.036,16.7455 L 122.968,16.7614 L 122.893,16.7667 L 122.788,16.7561
 L 122.698,16.7244 L 122.621,16.6715 L 122.559,16.5974 L 122.511,16.5014 L 122.476,16.3826 L 122.455,16.241
 L 122.448,16.0766 L 122.455,15.9068 L 122.474,15.7634 L 122.507,15.6464 L 122.553,15.5559 L 122.613,15.4882
 L 122.689,15.4399 L 122.781,15.4109 L 122.889,15.4012 L 122.97,15.4066 L 123.041,15.4228 L 123.102,15.4497
 L 123.153,15.4875 L 123.195,15.5344 L 123.228,15.5888 L 123.253,15.6507 L 123.269,15.7202 L 123.57,15.6974
 L 123.539,15.5812 L 123.491,15.4781 L 123.427,15.3883 L 123.346,15.3117 L 123.251,15.2505 L 123.145,15.2068
 L 123.027,15.1805 L 122.898,15.1718 L 122.726,15.1864 L 122.575,15.2301 L 122.446,15.3031 L 122.338,15.4053
 L 122.252,15.5352 L 122.191,15.6915 L 122.155,15.8742 L 122.142,16.0832 L 122.155,16.2935 L 122.191,16.4772
 L 122.252,16.6341 L 122.337,16.7642 L 122.445,16.8664 L 122.575,16.9394 L 122.727,16.9832 L 122.901,16.9978
 z
M 120.482,16.9717 L 120.686,16.8936 L 120.84,16.7634 L 120.945,16.5811 L 120.687,16.5079 L 120.662,16.564
 L 120.628,16.6149 L 120.585,16.6608 L 120.532,16.7016 L 120.47,16.7351 L 120.398,16.759 L 120.317,16.7733
 L 120.227,16.7781 L 120.114,16.7678 L 120.015,16.737 L 119.93,16.6856 L 119.861,16.6137 L 119.806,16.5229
 L 119.767,16.4147 L 119.743,16.2893 L 119.735,16.1466 L 120.992,16.1466 L 120.992,16.1076 L 120.943,15.6982
 L 120.798,15.4057 L 120.555,15.2303 L 120.215,15.1718 L 120.037,15.1863 L 119.88,15.2299 L 119.745,15.3027
 L 119.632,15.4045 L 119.543,15.5336 L 119.479,15.6881 L 119.44,15.868 L 119.428,16.0734 L 119.44,16.2887
 L 119.479,16.4758 L 119.543,16.6346 L 119.632,16.7651 L 119.746,16.8669 L 119.883,16.9396 L 120.043,16.9832
 L 120.227,16.9978 z
M 119.739,15.922 L 119.751,15.8042 L 119.777,15.6997 L 119.818,15.6085 L 119.873,15.5306 L 119.941,15.4683
 L 120.019,15.4238 L 120.109,15.3971 L 120.211,15.3882 L 120.314,15.3962 L 120.405,15.4202 L 120.482,15.4601
 L 120.547,15.516 L 120.6,15.5892 L 120.641,15.6814 L 120.671,15.7923 L 120.689,15.922 z
M 117.168,16.9926 L 117.263,16.9768 L 117.349,16.9506 L 117.428,16.914 L 117.5,16.8647 L 117.567,16.8007
 L 117.63,16.7219 L 117.689,16.6284 L 117.699,16.6284 L 117.707,16.7134 L 117.724,16.7864 L 117.749,16.8473
 L 117.782,16.8961 L 117.825,16.9335 L 117.879,16.9602 L 117.943,16.9762 L 118.019,16.9815 L 118.077,16.9799
 L 118.134,16.975 L 118.19,16.9669 L 118.245,16.9555 L 118.245,16.7732 L 118.219,16.7782 L 118.195,16.7817
 L 118.171,16.7839 L 118.149,16.7846 L 118.105,16.7805 L 118.069,16.7681 L 118.04,16.7475 L 118.019,16.7187
 L 118.004,16.6817 L 117.994,16.6367 L 117.987,16.5836 L 117.985,16.5226 L 117.985,15.7641 L 117.975,15.6286
 L 117.943,15.5101 L 117.891,15.4085 L 117.817,15.3239 L 117.723,15.2574 L 117.609,15.2098 L 117.473,15.1813
 L 117.318,15.1718 L 117.037,15.2015 L 116.825,15.2906 L 116.684,15.4391 L 116.611,15.647 L 116.917,15.6747
 L 116.931,15.6064 L 116.953,15.5481 L 116.984,15.4998 L 117.025,15.4615 L 117.076,15.4323 L 117.141,15.4114
 L 117.219,15.3989 L 117.311,15.3947 L 117.402,15.4005 L 117.48,15.4179 L 117.546,15.4469 L 117.598,15.4875
 L 117.638,15.5415 L 117.666,15.6108 L 117.683,15.6953 L 117.689,15.7951 L 117.689,15.8911 L 117.293,15.8976
 L 117.107,15.911 L 116.948,15.9416 L 116.817,15.9892 L 116.713,16.0539 L 116.634,16.135 L 116.578,16.2321
 L 116.545,16.345 L 116.533,16.4737 L 116.542,16.5893 L 116.567,16.6918 L 116.608,16.7813 L 116.667,16.8578
 L 116.742,16.9191 L 116.833,16.9628 L 116.941,16.989 L 117.065,16.9978 z
M 117.065,16.7732 L 117.005,16.7586 L 116.954,16.7341 L 116.912,16.7 L 116.878,16.6568 L 116.854,16.6056
 L 116.839,16.5462 L 116.834,16.4786 L 116.838,16.4159 L 116.849,16.3594 L 116.866,16.3093 L 116.891,16.2654
 L 116.923,16.2274 L 116.961,16.1946 L 117.005,16.1672 L 117.055,16.145 L 117.114,16.1277 L 117.187,16.1149
 L 117.271,16.1065 L 117.368,16.1027 L 117.689,16.0962 L 117.689,16.241 L 117.684,16.3081 L 117.671,16.3743
 L 117.648,16.4395 L 117.616,16.5038 L 117.577,16.5643 L 117.531,16.618 L 117.478,16.6648 L 117.419,16.7048
 L 117.354,16.7369 L 117.284,16.7598 L 117.211,16.7735 L 117.132,16.7781 z
M 97.0466,16.9836 L 97.2058,16.9412 L 97.342,16.8705 L 97.4552,16.7716 L 97.5443,16.6437 L 97.6078,16.4863
 L 97.646,16.2995 L 97.6587,16.0832 L 97.6468,15.8649 L 97.6111,15.6773 L 97.5516,15.5203 L 97.4683,15.3939
 L 97.3597,15.2967 L 97.2245,15.2273 L 97.0627,15.1856 L 96.8742,15.1718 L 96.5289,15.2287 L 96.2822,15.3996
 L 96.1342,15.6844 L 96.0849,16.0832 L 96.0972,16.2922 L 96.1341,16.4752 L 96.1957,16.632 L 96.2818,16.7626
 L 96.3921,16.8655 L 96.526,16.939 L 96.6834,16.9831 L 96.8645,16.9978 z
M 96.748,16.7704 L 96.651,16.7376 L 96.5702,16.6829 L 96.5056,16.6064 L 96.4561,16.5081 L 96.4208,16.3881
 L 96.3996,16.2464 L 96.3925,16.0832 L 96.3997,15.916 L 96.4212,15.7725 L 96.457,15.6527 L 96.5072,15.5567
 L 96.5735,15.483 L 96.6576,15.4303 L 96.7594,15.3987 L 96.8791,15.3882 L 96.9977,15.3985 L 97.0978,15.4295
 L 97.1795,15.4811 L 97.2428,15.5534 L 97.2902,15.6485 L 97.324,15.7684 L 97.3443,15.9133 L 97.3511,16.0832
 L 97.344,16.2511 L 97.3228,16.3952 L 97.2875,16.5155 L 97.238,16.6121 L 97.172,16.6861 L 97.0872,16.739
 L 96.9836,16.7708 L 96.8612,16.7813 z
M 74.1128,16.9883 L 74.2345,16.9599 L 74.3439,16.9127 L 74.4412,16.8464 L 74.5231,16.7643 L 74.5864,16.6694
 L 74.6313,16.5617 L 74.6576,16.4412 L 74.3614,16.4217 L 74.3442,16.5038 L 74.3169,16.5746 L 74.2795,16.634
 L 74.232,16.6821 L 74.1763,16.7191 L 74.1142,16.7455 L 74.0457,16.7614 L 73.9708,16.7667 L 73.8663,16.7561
 L 73.7759,16.7244 L 73.6995,16.6715 L 73.6372,16.5974 L 73.5888,16.5014 L 73.5542,16.3826 L 73.5334,16.241
 L 73.5265,16.0766 L 73.533,15.9068 L 73.5526,15.7634 L 73.5851,15.6464 L 73.6307,15.5559 L 73.6908,15.4882
 L 73.767,15.4399 L 73.8592,15.4109 L 73.9676,15.4012 L 74.0481,15.4066 L 74.1189,15.4228 L 74.1799,15.4497
 L 74.2312,15.4875 L 74.2732,15.5344 L 74.3065,15.5888 L 74.331,15.6507 L 74.3468,15.7202 L 74.6479,15.6974
 L 74.6168,15.5812 L 74.5691,15.4781 L 74.5049,15.3883 L 74.4241,15.3117 L 74.3292,15.2505 L 74.2229,15.2068
 L 74.105,15.1805 L 73.9757,15.1718 L 73.804,15.1864 L 73.6535,15.2301 L 73.5241,15.3031 L 73.4158,15.4053
 L 73.3304,15.5352 L 73.2694,15.6915 L 73.2328,15.8742 L 73.2206,16.0832 L 73.2327,16.2935 L 73.2692,16.4772
 L 73.3299,16.6341 L 73.415,16.7642 L 73.5232,16.8664 L 73.6533,16.9394 L 73.8052,16.9832 L 73.979,16.9978
 z
M 109.681,16.0473 L 109.687,15.9094 L 109.705,15.7884 L 109.735,15.6844 L 109.777,15.5974 L 109.83,15.5286
 L 109.894,15.4796 L 109.969,15.4501 L 110.055,15.4403 L 110.101,15.4413 L 110.143,15.4444 L 110.179,15.4494
 L 110.211,15.4566 L 110.211,15.188 L 110.181,15.1809 L 110.151,15.1758 L 110.122,15.1728 L 110.092,15.1718
 L 110.014,15.1769 L 109.945,15.1925 L 109.885,15.2184 L 109.835,15.2547 L 109.791,15.3052 L 109.749,15.3736
 L 109.71,15.4598 L 109.674,15.564 L 109.667,15.564 L 109.667,15.5189 L 109.664,15.4439 L 109.66,15.3391
 L 109.654,15.2043 L 109.378,15.2043 L 109.382,15.3142 L 109.385,15.4191 L 109.387,15.5192 L 109.388,15.6144
 L 109.388,16.9652 L 109.681,16.9652 z
M 103.017,16.9836 L 103.176,16.9412 L 103.312,16.8705 L 103.425,16.7716 L 103.514,16.6437 L 103.578,16.4863
 L 103.616,16.2995 L 103.629,16.0832 L 103.617,15.8649 L 103.581,15.6773 L 103.522,15.5203 L 103.438,15.3939
 L 103.33,15.2967 L 103.195,15.2273 L 103.033,15.1856 L 102.844,15.1718 L 102.499,15.2287 L 102.252,15.3996
 L 102.104,15.6844 L 102.055,16.0832 L 102.067,16.2922 L 102.104,16.4752 L 102.166,16.632 L 102.252,16.7626
 L 102.362,16.8655 L 102.496,16.939 L 102.653,16.9831 L 102.834,16.9978 z
M 102.718,16.7704 L 102.621,16.7376 L 102.54,16.6829 L 102.476,16.6064 L 102.426,16.5081 L 102.391,16.3881
 L 102.37,16.2464 L 102.362,16.0832 L 102.37,15.916 L 102.391,15.7725 L 102.427,15.6527 L 102.477,15.5567
 L 102.544,15.483 L 102.628,15.4303 L 102.729,15.3987 L 102.849,15.3882 L 102.968,15.3985 L 103.068,15.4295
 L 103.15,15.4811 L 103.213,15.5534 L 103.26,15.6485 L 103.294,15.7684 L 103.314,15.9133 L 103.321,16.0832
 L 103.314,16.2511 L 103.293,16.3952 L 103.257,16.5155 L 103.208,16.6121 L 103.142,16.6861 L 103.057,16.739
 L 102.954,16.7708 L 102.831,16.7813 z
M 70.6203,16.9836 L 70.7795,16.9412 L 70.9157,16.8705 L 71.0289,16.7716 L 71.1179,16.6437 L 71.1815,16.4863
 L 71.2196,16.2995 L 71.2323,16.0832 L 71.2204,15.8649 L 71.1847,15.6773 L 71.1252,15.5203 L 71.0419,15.3939
 L 70.9334,15.2967 L 70.7982,15.2273 L 70.6364,15.1856 L 70.4479,15.1718 L 70.1025,15.2287 L 69.8559,15.3996
 L 69.7079,15.6844 L 69.6585,16.0832 L 69.6708,16.2922 L 69.7078,16.4752 L 69.7693,16.632 L 69.8555,16.7626
 L 69.9657,16.8655 L 70.0996,16.939 L 70.257,16.9831 L 70.4381,16.9978 z
M 70.3217,16.7704 L 70.2247,16.7376 L 70.1439,16.6829 L 70.0792,16.6064 L 70.0297,16.5081 L 69.9944,16.3881
 L 69.9732,16.2464 L 69.9661,16.0832 L 69.9733,15.916 L 69.9948,15.7725 L 70.0307,15.6527 L 70.0809,15.5567
 L 70.1471,15.483 L 70.2312,15.4303 L 70.3331,15.3987 L 70.4527,15.3882 L 70.5713,15.3985 L 70.6714,15.4295
 L 70.7532,15.4811 L 70.8165,15.5534 L 70.8638,15.6485 L 70.8977,15.7684 L 70.918,15.9133 L 70.9247,16.0832
 L 70.9176,16.2511 L 70.8964,16.3952 L 70.8611,16.5155 L 70.8116,16.6121 L 70.7457,16.6861 L 70.6609,16.739
 L 70.5573,16.7708 L 70.4348,16.7813 z
M 87.0626,16.0473 L 87.0686,15.9094 L 87.0866,15.7884 L 87.1166,15.6844 L 87.1586,15.5974 L 87.212,15.5286
 L 87.2762,15.4796 L 87.3511,15.4501 L 87.4369,15.4403 L 87.4833,15.4413 L 87.5248,15.4444 L 87.5614,15.4494
 L 87.5931,15.4566 L 87.5931,15.188 L 87.5631,15.1809 L 87.5333,15.1758 L 87.5037,15.1728 L 87.4743,15.1718
 L 87.396,15.1769 L 87.327,15.1925 L 87.2674,15.2184 L 87.2171,15.2547 L 87.1729,15.3052 L 87.1313,15.3736
 L 87.0923,15.4598 L 87.056,15.564 L 87.0495,15.564 L 87.0487,15.5189 L 87.0463,15.4439 L 87.0422,15.3391
 L 87.0365,15.2043 L 86.7599,15.2043 L 86.7641,15.3142 L 86.7672,15.4191 L 86.769,15.5192 L 86.7696,15.6144
 L 86.7696,16.9652 L 87.0626,16.9652 z
M 130.702,16.9836 L 130.861,16.9412 L 130.997,16.8705 L 131.11,16.7716 L 131.199,16.6437 L 131.263,16.4863
 L 131.301,16.2995 L 131.314,16.0832 L 131.302,15.8649 L 131.266,15.6773 L 131.207,15.5203 L 131.123,15.3939
 L 131.015,15.2967 L 130.88,15.2273 L 130.718,15.1856 L 130.529,15.1718 L 130.184,15.2287 L 129.937,15.3996
 L 129.789,15.6844 L 129.74,16.0832 L 129.752,16.2922 L 129.789,16.4752 L 129.851,16.632 L 129.937,16.7626
 L 130.047,16.8655 L 130.181,16.939 L 130.339,16.9831 L 130.52,16.9978 z
M 130.403,16.7704 L 130.306,16.7376 L 130.225,16.6829 L 130.161,16.6064 L 130.111,16.5081 L 130.076,16.3881
 L 130.055,16.2464 L 130.048,16.0832 L 130.055,15.916 L 130.076,15.7725 L 130.112,15.6527 L 130.162,15.5567
 L 130.229,15.483 L 130.313,15.4303 L 130.415,15.3987 L 130.534,15.3882 L 130.653,15.3985 L 130.753,15.4295
 L 130.835,15.4811 L 130.898,15.5534 L 130.945,15.6485 L 130.979,15.7684 L 130.999,15.9133 L 131.006,16.0832
 L 130.999,16.2511 L 130.978,16.3952 L 130.943,16.5155 L 130.893,16.6121 L 130.827,16.6861 L 130.742,16.739
 L 130.639,16.7708 L 130.516,16.7813 z
M 108.542,16.9717 L 108.746,16.8936 L 108.9,16.7634 L 109.005,16.5811 L 108.747,16.5079 L 108.722,16.564
 L 108.688,16.6149 L 108.645,16.6608 L 108.592,16.7016 L 108.53,16.7351 L 108.458,16.759 L 108.377,16.7733
 L 108.287,16.7781 L 108.174,16.7678 L 108.075,16.737 L 107.99,16.6856 L 107.921,16.6137 L 107.866,16.5229
 L 107.827,16.4147 L 107.803,16.2893 L 107.795,16.1466 L 109.052,16.1466 L 109.052,16.1076 L 109.003,15.6982
 L 108.858,15.4057 L 108.615,15.2303 L 108.275,15.1718 L 108.097,15.1863 L 107.94,15.2299 L 107.805,15.3027
 L 107.692,15.4045 L 107.603,15.5336 L 107.539,15.6881 L 107.5,15.868 L 107.488,16.0734 L 107.5,16.2887
 L 107.539,16.4758 L 107.603,16.6346 L 107.692,16.7651 L 107.806,16.8669 L 107.943,16.9396 L 108.103,16.9832
 L 108.287,16.9978 z
M 107.799,15.922 L 107.811,15.8042 L 107.837,15.6997 L 107.878,15.6085 L 107.933,15.5306 L 108.001,15.4683
 L 108.079,15.4238 L 108.169,15.3971 L 108.271,15.3882 L 108.374,15.3962 L 108.465,15.4202 L 108.542,15.4601
 L 108.607,15.516 L 108.66,15.5892 L 108.701,15.6814 L 108.731,15.7923 L 108.749,15.922 z
M 131.935,15.9448 L 131.942,15.8233 L 131.965,15.7157 L 132.003,15.6223 L 132.057,15.5428 L 132.123,15.4795
 L 132.201,15.4342 L 132.29,15.407 L 132.39,15.398 L 132.458,15.4006 L 132.518,15.4086 L 132.568,15.4218
 L 132.61,15.4403 L 132.645,15.4648 L 132.675,15.496 L 132.699,15.534 L 132.719,15.5786 L 132.734,15.6315
 L 132.745,15.6942 L 132.751,15.7666 L 132.753,15.8488 L 132.753,16.9652 L 133.048,16.9652 L 133.048,15.7918
 L 133.039,15.6376 L 133.014,15.5068 L 132.972,15.3996 L 132.913,15.3158 L 132.837,15.2528 L 132.74,15.2078
 L 132.625,15.1808 L 132.49,15.1718 L 132.395,15.1765 L 132.309,15.1907 L 132.23,15.2143 L 132.16,15.2474
 L 132.096,15.2919 L 132.035,15.3498 L 131.979,15.4209 L 131.926,15.5054 L 131.921,15.5054 L 131.92,15.4462
 L 131.918,15.3974 L 131.917,15.3588 L 131.916,15.3304 L 131.914,15.2867 L 131.912,15.2482 L 131.911,15.2321
 L 131.91,15.2194 L 131.909,15.2101 L 131.908,15.2043 L 131.632,15.2043 L 131.636,15.2534 L 131.639,15.3325
 L 131.641,15.4414 L 131.642,15.5803 L 131.642,16.9652 L 131.935,16.9652 z
M 104.243,16.9685 L 104.242,16.8523 L 104.241,16.7675 L 104.239,16.714 L 104.236,16.6918 L 104.244,16.6918
 L 104.331,16.8257 L 104.451,16.9213 L 104.605,16.9787 L 104.791,16.9978 L 105.075,16.9402 L 105.277,16.7675
 L 105.399,16.4796 L 105.439,16.0766 L 105.429,15.8587 L 105.399,15.6718 L 105.348,15.5161 L 105.278,15.3914
 L 105.187,15.296 L 105.076,15.2279 L 104.944,15.187 L 104.791,15.1734 L 104.691,15.1781 L 104.602,15.1923
 L 104.522,15.2159 L 104.453,15.2491 L 104.392,15.2923 L 104.337,15.3465 L 104.288,15.4115 L 104.246,15.4875
 L 104.24,15.4875 L 104.239,15.4688 L 104.239,15.4435 L 104.237,15.4118 L 104.236,15.3736 L 104.234,15.3348
 L 104.232,15.3013 L 104.23,15.2733 L 104.228,15.2507 L 104.227,15.2328 L 104.225,15.2192 L 104.224,15.2096
 L 104.223,15.2043 L 103.94,15.2043 L 103.944,15.2597 L 103.947,15.3382 L 103.949,15.4396 L 103.95,15.564
 L 103.95,17.6569 L 104.243,17.6569 z
M 104.597,16.7711 L 104.499,16.7402 L 104.417,16.6889 L 104.354,16.617 L 104.305,16.5234 L 104.271,16.407
 L 104.25,16.2679 L 104.243,16.1059 L 104.246,15.9873 L 104.256,15.8803 L 104.272,15.7851 L 104.294,15.7015
 L 104.323,15.6289 L 104.357,15.5666 L 104.398,15.5146 L 104.444,15.4728 L 104.498,15.4408 L 104.561,15.4179
 L 104.634,15.4042 L 104.716,15.3996 L 104.817,15.4095 L 104.904,15.4391 L 104.975,15.4884 L 105.032,15.5575
 L 105.076,15.6495 L 105.107,15.7678 L 105.125,15.9124 L 105.131,16.0832 L 105.125,16.2583 L 105.106,16.4064
 L 105.075,16.5273 L 105.031,16.621 L 104.974,16.6912 L 104.902,16.7413 L 104.815,16.7713 L 104.713,16.7813
 z
M 106.053,16.9685 L 106.053,16.8523 L 106.052,16.7675 L 106.05,16.714 L 106.047,16.6918 L 106.055,16.6918
 L 106.142,16.8257 L 106.262,16.9213 L 106.415,16.9787 L 106.602,16.9978 L 106.885,16.9402 L 107.088,16.7675
 L 107.209,16.4796 L 107.249,16.0766 L 107.239,15.8587 L 107.209,15.6718 L 107.159,15.5161 L 107.088,15.3914
 L 106.997,15.296 L 106.886,15.2279 L 106.754,15.187 L 106.602,15.1734 L 106.502,15.1781 L 106.412,15.1923
 L 106.333,15.2159 L 106.263,15.2491 L 106.202,15.2923 L 106.147,15.3465 L 106.099,15.4115 L 106.056,15.4875
 L 106.05,15.4875 L 106.05,15.4688 L 106.049,15.4435 L 106.048,15.4118 L 106.046,15.3736 L 106.044,15.3348
 L 106.042,15.3013 L 106.04,15.2733 L 106.039,15.2507 L 106.037,15.2328 L 106.036,15.2192 L 106.035,15.2096
 L 106.034,15.2043 L 105.751,15.2043 L 105.755,15.2597 L 105.758,15.3382 L 105.76,15.4396 L 105.76,15.564
 L 105.76,17.6569 L 106.053,17.6569 z
M 106.408,16.7711 L 106.309,16.7402 L 106.228,16.6889 L 106.164,16.617 L 106.115,16.5234 L 106.081,16.407
 L 106.06,16.2679 L 106.053,16.1059 L 106.056,15.9873 L 106.066,15.8803 L 106.082,15.7851 L 106.104,15.7015
 L 106.133,15.6289 L 106.168,15.5666 L 106.208,15.5146 L 106.254,15.4728 L 106.308,15.4408 L 106.372,15.4179
 L 106.445,15.4042 L 106.527,15.3996 L 106.628,15.4095 L 106.714,15.4391 L 106.786,15.4884 L 106.843,15.5575
 L 106.886,15.6495 L 106.917,15.7678 L 106.936,15.9124 L 106.942,16.0832 L 106.936,16.2583 L 106.917,16.4064
 L 106.886,16.5273 L 106.842,16.621 L 106.784,16.6912 L 106.712,16.7413 L 106.625,16.7713 L 106.524,16.7813
 z
M 115.099,16.9685 L 115.098,16.8523 L 115.097,16.7675 L 115.095,16.714 L 115.092,16.6918 L 115.1,16.6918
 L 115.187,16.8257 L 115.307,16.9213 L 115.461,16.9787 L 115.647,16.9978 L 115.931,16.9402 L 116.133,16.7675
 L 116.255,16.4796 L 116.295,16.0766 L 116.285,15.8587 L 116.255,15.6718 L 116.204,15.5161 L 116.134,15.3914
 L 116.043,15.296 L 115.932,15.2279 L 115.8,15.187 L 115.647,15.1734 L 115.547,15.1781 L 115.458,15.1923
 L 115.378,15.2159 L 115.309,15.2491 L 115.248,15.2923 L 115.193,15.3465 L 115.144,15.4115 L 115.102,15.4875
 L 115.096,15.4875 L 115.095,15.4688 L 115.095,15.4435 L 115.093,15.4118 L 115.092,15.3736 L 115.09,15.3348
 L 115.088,15.3013 L 115.086,15.2733 L 115.084,15.2507 L 115.083,15.2328 L 115.081,15.2192 L 115.08,15.2096
 L 115.079,15.2043 L 114.796,15.2043 L 114.8,15.2597 L 114.803,15.3382 L 114.805,15.4396 L 114.806,15.564
 L 114.806,17.6569 L 115.099,17.6569 z
M 115.453,16.7711 L 115.355,16.7402 L 115.273,16.6889 L 115.21,16.617 L 115.161,16.5234 L 115.127,16.407
 L 115.106,16.2679 L 115.099,16.1059 L 115.102,15.9873 L 115.112,15.8803 L 115.128,15.7851 L 115.15,15.7015
 L 115.179,15.6289 L 115.213,15.5666 L 115.254,15.5146 L 115.3,15.4728 L 115.354,15.4408 L 115.417,15.4179
 L 115.49,15.4042 L 115.572,15.3996 L 115.673,15.4095 L 115.76,15.4391 L 115.831,15.4884 L 115.888,15.5575
 L 115.932,15.6495 L 115.963,15.7678 L 115.981,15.9124 L 115.987,16.0832 L 115.981,16.2583 L 115.962,16.4064
 L 115.931,16.5273 L 115.887,16.621 L 115.83,16.6912 L 115.758,16.7413 L 115.671,16.7713 L 115.569,16.7813
 z
M 92.4825,16.9685 L 92.482,16.8523 L 92.4808,16.7675 L 92.4788,16.714 L 92.476,16.6918 L 92.4841,16.6918
 L 92.5708,16.8257 L 92.6908,16.9213 L 92.8442,16.9787 L 93.0309,16.9978 L 93.3143,16.9402 L 93.5167,16.7675
 L 93.6382,16.4796 L 93.6787,16.0766 L 93.6686,15.8587 L 93.6384,15.6718 L 93.588,15.5161 L 93.5175,15.3914
 L 93.4267,15.296 L 93.3153,15.2279 L 93.1834,15.187 L 93.0309,15.1734 L 92.931,15.1781 L 92.8413,15.1923
 L 92.7618,15.2159 L 92.6924,15.2491 L 92.6313,15.2923 L 92.5764,15.3465 L 92.5279,15.4115 L 92.4857,15.4875
 L 92.4792,15.4875 L 92.479,15.4688 L 92.4782,15.4435 L 92.4769,15.4118 L 92.4751,15.3736 L 92.4731,15.3348
 L 92.4713,15.3013 L 92.4695,15.2733 L 92.4678,15.2507 L 92.4663,15.2328 L 92.465,15.2192 L 92.4639,15.2096
 L 92.4629,15.2043 L 92.1797,15.2043 L 92.184,15.2597 L 92.1871,15.3382 L 92.1889,15.4396 L 92.1895,15.564
 L 92.1895,17.6569 L 92.4825,17.6569 z
M 92.8369,16.7711 L 92.7384,16.7402 L 92.6571,16.6889 L 92.5931,16.617 L 92.5447,16.5234 L 92.5101,16.407
 L 92.4894,16.2679 L 92.4825,16.1059 L 92.4857,15.9873 L 92.4953,15.8803 L 92.5113,15.7851 L 92.5337,15.7015
 L 92.5623,15.6289 L 92.5968,15.5666 L 92.6372,15.5146 L 92.6835,15.4728 L 92.7374,15.4408 L 92.8008,15.4179
 L 92.8737,15.4042 L 92.9561,15.3996 L 93.057,15.4095 L 93.1432,15.4391 L 93.2148,15.4884 L 93.2718,15.5575
 L 93.3152,15.6495 L 93.3463,15.7678 L 93.3649,15.9124 L 93.3711,16.0832 L 93.3648,16.2583 L 93.3461,16.4064
 L 93.3148,16.5273 L 93.271,16.621 L 93.2135,16.6912 L 93.1414,16.7413 L 93.0545,16.7713 L 92.9528,16.7813
 z
M 88.8633,16.9685 L 88.8629,16.8523 L 88.8616,16.7675 L 88.8596,16.714 L 88.8568,16.6918 L 88.8649,16.6918
 L 88.9516,16.8257 L 89.0716,16.9213 L 89.225,16.9787 L 89.4117,16.9978 L 89.6951,16.9402 L 89.8976,16.7675
 L 90.019,16.4796 L 90.0595,16.0766 L 90.0494,15.8587 L 90.0192,15.6718 L 89.9688,15.5161 L 89.8983,15.3914
 L 89.8075,15.296 L 89.6961,15.2279 L 89.5642,15.187 L 89.4117,15.1734 L 89.3118,15.1781 L 89.2221,15.1923
 L 89.1426,15.2159 L 89.0732,15.2491 L 89.0121,15.2923 L 88.9572,15.3465 L 88.9087,15.4115 L 88.8665,15.4875
 L 88.86,15.4875 L 88.8598,15.4688 L 88.859,15.4435 L 88.8577,15.4118 L 88.8559,15.3736 L 88.854,15.3348
 L 88.8521,15.3013 L 88.8503,15.2733 L 88.8486,15.2507 L 88.8471,15.2328 L 88.8458,15.2192 L 88.8447,15.2096
 L 88.8438,15.2043 L 88.5605,15.2043 L 88.5648,15.2597 L 88.5679,15.3382 L 88.5697,15.4396 L 88.5703,15.564
 L 88.5703,17.6569 L 88.8633,17.6569 z
M 89.2178,16.7711 L 89.1192,16.7402 L 89.0379,16.6889 L 88.9739,16.617 L 88.9255,16.5234 L 88.8909,16.407
 L 88.8702,16.2679 L 88.8633,16.1059 L 88.8665,15.9873 L 88.8761,15.8803 L 88.8921,15.7851 L 88.9145,15.7015
 L 88.9431,15.6289 L 88.9776,15.5666 L 89.018,15.5146 L 89.0643,15.4728 L 89.1182,15.4408 L 89.1816,15.4179
 L 89.2545,15.4042 L 89.3369,15.3996 L 89.4378,15.4095 L 89.524,15.4391 L 89.5956,15.4884 L 89.6526,15.5575
 L 89.696,15.6495 L 89.7271,15.7678 L 89.7457,15.9124 L 89.7519,16.0832 L 89.7456,16.2583 L 89.7269,16.4064
 L 89.6956,16.5273 L 89.6518,16.621 L 89.5944,16.6912 L 89.5222,16.7413 L 89.4353,16.7713 L 89.3336,16.7813
 z
M 126.43,16.9893 L 126.571,16.964 L 126.694,16.9218 L 126.797,16.8627 L 126.879,16.788 L 126.938,16.6991
 L 126.973,16.596 L 126.985,16.4786 L 126.983,16.4295 L 126.977,16.3832 L 126.967,16.3396 L 126.952,16.2988
 L 126.934,16.2605 L 126.913,16.2245 L 126.889,16.1909 L 126.86,16.1596 L 126.828,16.1302 L 126.79,16.1021
 L 126.747,16.0753 L 126.699,16.0498 L 126.639,16.0244 L 126.563,15.9979 L 126.472,15.9703 L 126.363,15.9416
 L 126.251,15.9131 L 126.16,15.8878 L 126.09,15.8659 L 126.041,15.8472 L 126.005,15.8292 L 125.974,15.8093
 L 125.947,15.7877 L 125.925,15.7642 L 125.908,15.7381 L 125.896,15.7088 L 125.889,15.6763 L 125.886,15.6405
 L 125.892,15.5833 L 125.91,15.5339 L 125.94,15.4922 L 125.981,15.4582 L 126.035,15.4319 L 126.101,15.413
 L 126.181,15.4017 L 126.274,15.398 L 126.359,15.4019 L 126.435,15.4137 L 126.502,15.4332 L 126.559,15.4606
 L 126.608,15.4954 L 126.645,15.5369 L 126.673,15.5853 L 126.69,15.6405 L 126.954,15.6079 L 126.923,15.5025
 L 126.877,15.4126 L 126.815,15.3382 L 126.737,15.2792 L 126.643,15.2343 L 126.535,15.2023 L 126.412,15.183
 L 126.274,15.1766 L 126.119,15.1845 L 125.984,15.2082 L 125.869,15.2476 L 125.773,15.3028 L 125.698,15.373
 L 125.645,15.4576 L 125.612,15.5565 L 125.602,15.6698 L 125.605,15.7323 L 125.617,15.7898 L 125.635,15.8422
 L 125.662,15.8895 L 125.695,15.9326 L 125.734,15.9723 L 125.778,16.0087 L 125.829,16.0417 L 125.891,16.0731
 L 125.972,16.1049 L 126.07,16.137 L 126.188,16.1694 L 126.397,16.2247 L 126.472,16.2473 L 126.535,16.2727
 L 126.587,16.301 L 126.629,16.3321 L 126.66,16.3671 L 126.682,16.407 L 126.696,16.4518 L 126.7,16.5014
 L 126.694,16.5655 L 126.674,16.621 L 126.642,16.668 L 126.597,16.7065 L 126.538,16.7364 L 126.464,16.7577
 L 126.375,16.7706 L 126.271,16.7748 L 126.172,16.7707 L 126.085,16.7583 L 126.009,16.7377 L 125.945,16.7089
 L 125.891,16.6712 L 125.848,16.6241 L 125.814,16.5675 L 125.79,16.5014 L 125.532,16.5519 L 125.566,16.659
 L 125.616,16.751 L 125.682,16.8279 L 125.764,16.8896 L 125.862,16.9369 L 125.979,16.9707 L 126.116,16.991
 L 126.271,16.9978 z
M 113.945,16.9893 L 114.086,16.964 L 114.208,16.9218 L 114.312,16.8627 L 114.394,16.788 L 114.453,16.6991
 L 114.488,16.596 L 114.5,16.4786 L 114.498,16.4295 L 114.492,16.3832 L 114.481,16.3396 L 114.467,16.2988
 L 114.449,16.2605 L 114.428,16.2245 L 114.403,16.1909 L 114.375,16.1596 L 114.343,16.1302 L 114.305,16.1021
 L 114.262,16.0753 L 114.213,16.0498 L 114.154,16.0244 L 114.078,15.9979 L 113.986,15.9703 L 113.878,15.9416
 L 113.766,15.9131 L 113.675,15.8878 L 113.605,15.8659 L 113.556,15.8472 L 113.52,15.8292 L 113.489,15.8093
 L 113.462,15.7877 L 113.44,15.7642 L 113.423,15.7381 L 113.411,15.7088 L 113.404,15.6763 L 113.401,15.6405
 L 113.407,15.5833 L 113.425,15.5339 L 113.454,15.4922 L 113.496,15.4582 L 113.549,15.4319 L 113.616,15.413
 L 113.696,15.4017 L 113.789,15.398 L 113.874,15.4019 L 113.95,15.4137 L 114.016,15.4332 L 114.074,15.4606
 L 114.122,15.4954 L 114.16,15.5369 L 114.188,15.5853 L 114.205,15.6405 L 114.469,15.6079 L 114.438,15.5025
 L 114.392,15.4126 L 114.33,15.3382 L 114.252,15.2792 L 114.158,15.2343 L 114.05,15.2023 L 113.927,15.183
 L 113.789,15.1766 L 113.634,15.1845 L 113.499,15.2082 L 113.384,15.2476 L 113.288,15.3028 L 113.213,15.373
 L 113.159,15.4576 L 113.127,15.5565 L 113.116,15.6698 L 113.12,15.7323 L 113.131,15.7898 L 113.15,15.8422
 L 113.177,15.8895 L 113.21,15.9326 L 113.248,15.9723 L 113.293,16.0087 L 113.343,16.0417 L 113.406,16.0731
 L 113.486,16.1049 L 113.585,16.137 L 113.702,16.1694 L 113.912,16.2247 L 113.987,16.2473 L 114.05,16.2727
 L 114.102,16.301 L 114.143,16.3321 L 114.175,16.3671 L 114.197,16.407 L 114.211,16.4518 L 114.215,16.5014
 L 114.209,16.5655 L 114.189,16.621 L 114.157,16.668 L 114.112,16.7065 L 114.053,16.7364 L 113.978,16.7577
 L 113.889,16.7706 L 113.785,16.7748 L 113.687,16.7707 L 113.6,16.7583 L 113.524,16.7377 L 113.46,16.7089
 L 113.406,16.6712 L 113.363,16.6241 L 113.329,16.5675 L 113.305,16.5014 L 113.046,16.5519 L 113.081,16.659
 L 113.131,16.751 L 113.197,16.8279 L 113.278,16.8896 L 113.377,16.9369 L 113.494,16.9707 L 113.63,16.991
 L 113.785,16.9978 z
M 84.998,16.9893 L 85.139,16.964 L 85.2612,16.9218 L 85.3646,16.8627 L 85.4469,16.788 L 85.5056,16.6991
 L 85.5408,16.596 L 85.5526,16.4786 L 85.5506,16.4295 L 85.5445,16.3832 L 85.5343,16.3396 L 85.52,16.2988
 L 85.5021,16.2605 L 85.4808,16.2245 L 85.4561,16.1909 L 85.4281,16.1596 L 85.3957,16.1302 L 85.3579,16.1021
 L 85.3147,16.0753 L 85.2662,16.0498 L 85.2068,16.0244 L 85.1311,15.9979 L 85.0391,15.9703 L 84.9309,15.9416
 L 84.8186,15.9131 L 84.7275,15.8878 L 84.6575,15.8659 L 84.6086,15.8472 L 84.5727,15.8292 L 84.5415,15.8093
 L 84.515,15.7877 L 84.4931,15.7642 L 84.476,15.7381 L 84.4638,15.7088 L 84.4565,15.6763 L 84.454,15.6405
 L 84.4599,15.5833 L 84.4776,15.5339 L 84.5071,15.4922 L 84.5484,15.4582 L 84.6021,15.4319 L 84.6689,15.413
 L 84.7486,15.4017 L 84.8414,15.398 L 84.9264,15.4019 L 85.0023,15.4137 L 85.0692,15.4332 L 85.127,15.4606
 L 85.1752,15.4954 L 85.2131,15.5369 L 85.2407,15.5853 L 85.258,15.6405 L 85.5217,15.6079 L 85.491,15.5025
 L 85.4446,15.4126 L 85.3824,15.3382 L 85.3044,15.2792 L 85.2111,15.2343 L 85.1028,15.2023 L 84.9796,15.183
 L 84.8414,15.1766 L 84.6868,15.1845 L 84.5519,15.2082 L 84.4366,15.2476 L 84.3409,15.3028 L 84.2658,15.373
 L 84.2121,15.4576 L 84.1799,15.5565 L 84.1692,15.6698 L 84.173,15.7323 L 84.1843,15.7898 L 84.2031,15.8422
 L 84.2294,15.8895 L 84.2625,15.9326 L 84.3013,15.9723 L 84.3459,16.0087 L 84.3963,16.0417 L 84.4587,16.0731
 L 84.5393,16.1049 L 84.6381,16.137 L 84.7551,16.1694 L 84.9651,16.2247 L 85.0393,16.2473 L 85.1026,16.2727
 L 85.1549,16.301 L 85.1962,16.3321 L 85.2275,16.3671 L 85.2499,16.407 L 85.2633,16.4518 L 85.2678,16.5014
 L 85.2613,16.5655 L 85.242,16.621 L 85.2097,16.668 L 85.1645,16.7065 L 85.1053,16.7364 L 85.0312,16.7577
 L 84.9421,16.7706 L 84.8381,16.7748 L 84.7397,16.7707 L 84.6526,16.7583 L 84.5769,16.7377 L 84.5126,16.7089
 L 84.459,16.6712 L 84.4154,16.6241 L 84.3817,16.5675 L 84.358,16.5014 L 84.0992,16.5519 L 84.1339,16.659
 L 84.1841,16.751 L 84.2498,16.8279 L 84.3311,16.8896 L 84.4297,16.9369 L 84.547,16.9707 L 84.6832,16.991
 L 84.8381,16.9978 z
M 88.1384,15.2043 L 87.8455,15.2043 L 87.8455,16.9652 L 88.1384,16.9652 z
M 129.393,15.2043 L 129.1,15.2043 L 129.1,16.9652 L 129.393,16.9652 z
M 94.2912,15.2043 L 93.9983,15.2043 L 93.9983,16.9652 L 94.2912,16.9652 z
M 90.7778,15.2043 L 90.4604,15.2043 L 90.4604,15.5412 L 90.7778,15.5412 z
M 98.7157,16.444 L 98.8156,16.052 L 98.8817,15.7893 L 98.9141,15.6559 L 98.9285,15.5912 L 98.9409,15.5345
 L 98.9513,15.4858 L 98.9597,15.4452 L 99.0183,15.7202 L 99.3259,16.9652 L 99.666,16.9652 L 100.171,15.2043
 L 99.8841,15.2043 L 99.5504,16.4965 L 99.5,16.7227 L 99.4251,16.4135 L 99.1175,15.2043 L 98.8034,15.2043
 L 98.4356,16.6023 L 98.4079,16.7227 L 98.3816,16.5964 L 98.3612,16.5006 L 98.3466,16.4353 L 98.338,16.4005
 L 98.0401,15.2043 L 97.7504,15.2043 L 98.2436,16.9652 L 98.5821,16.9652 z
M 124.498,16.9931 L 124.584,16.9789 L 124.662,16.9552 L 124.733,16.9221 L 124.797,16.8776 L 124.857,16.8198
 L 124.914,16.7486 L 124.966,16.6642 L 124.971,16.6642 L 124.973,16.7233 L 124.974,16.7722 L 124.976,16.8108
 L 124.977,16.8391 L 124.979,16.8828 L 124.98,16.9027 L 124.981,16.9213 L 124.982,16.9375 L 124.983,16.9502
 L 124.983,16.9594 L 124.984,16.9652 L 125.261,16.9652 L 125.257,16.9161 L 125.254,16.8371 L 125.252,16.7281
 L 125.251,16.5893 L 125.251,15.2043 L 124.958,15.2043 L 124.958,16.2247 L 124.951,16.3463 L 124.928,16.4538
 L 124.889,16.5473 L 124.836,16.6267 L 124.769,16.6901 L 124.692,16.7354 L 124.603,16.7625 L 124.502,16.7716
 L 124.434,16.7689 L 124.375,16.761 L 124.325,16.7478 L 124.283,16.7292 L 124.248,16.7047 L 124.218,16.6735
 L 124.193,16.6356 L 124.174,16.5909 L 124.159,16.538 L 124.148,16.4754 L 124.142,16.4029 L 124.14,16.3207
 L 124.14,15.2043 L 123.845,15.2043 L 123.845,16.3777 L 123.853,16.532 L 123.879,16.6627 L 123.92,16.77
 L 123.979,16.8538 L 124.056,16.9168 L 124.152,16.9618 L 124.268,16.9888 L 124.403,16.9978 z
M 75.5757,16.9931 L 75.6621,16.9789 L 75.7405,16.9552 L 75.8108,16.9221 L 75.8752,16.8776 L 75.9355,16.8198
 L 75.9919,16.7486 L 76.0444,16.6642 L 76.0493,16.6642 L 76.0508,16.7233 L 76.0523,16.7722 L 76.0537,16.8108
 L 76.0549,16.8391 L 76.0572,16.8828 L 76.059,16.9213 L 76.0598,16.9375 L 76.0607,16.9502 L 76.0615,16.9594
 L 76.0623,16.9652 L 76.339,16.9652 L 76.3347,16.9161 L 76.3316,16.8371 L 76.3298,16.7281 L 76.3292,16.5893
 L 76.3292,15.2043 L 76.0362,15.2043 L 76.0362,16.2247 L 76.0286,16.3463 L 76.0057,16.4538 L 75.9676,16.5473
 L 75.9142,16.6267 L 75.8475,16.6901 L 75.7697,16.7354 L 75.6807,16.7625 L 75.5805,16.7716 L 75.5125,16.7689
 L 75.4532,16.761 L 75.4026,16.7478 L 75.3608,16.7292 L 75.3259,16.7047 L 75.2961,16.6735 L 75.2714,16.6356
 L 75.2518,16.5909 L 75.2368,16.538 L 75.2262,16.4754 L 75.2197,16.4029 L 75.2176,16.3207 L 75.2176,15.2043
 L 74.923,15.2043 L 74.923,16.3777 L 74.9314,16.532 L 74.9566,16.6627 L 74.9986,16.77 L 75.0573,16.8538
 L 75.1341,16.9168 L 75.2304,16.9618 L 75.3461,16.9888 L 75.4813,16.9978 z
M 90.7778,16.6284 L 90.4604,16.6284 L 90.4604,16.9652 L 90.7778,16.9652 z
" stroke="black" fill="lightgray" stroke-width="0.5"/>
</svg>
