<?xml version="1.0" standalone="no"?>
<!DOCTYPE svg PUBLIC "-//W3C//DTD SVG 1.1//EN" "http://www.w3.org/Graphics/SVG/1.1/DTD/svg11.dtd">
<svg width="142mm" height="116mm" viewBox="-57 -20 142 116" xmlns="http://www.w3.org/2000/svg" version="1.1">
<title>OpenSCAD Model</title>
<path d="
M 42.5064,24.6335 L 70.7907,8.30353 L 70.8087,8.28685 L 70.82,8.26187 L 70.8238,8.23029 L 70.8492,8.21115
 L 70.8652,8.18887 L 70.8707,8.16496 L 70.8707,4.89897 L 70.8652,4.87506 L 70.8492,4.85278 L 70.8238,4.83365
 L 70.82,4.80206 L 70.8087,4.77708 L 70.7907,4.76041 L 28.3643,-19.7345 L 28.3408,-19.7417 L 28.3136,-19.739
 L 28.2843,-19.7265 L 28.255,-19.739 L 28.2277,-19.7417 L 28.2043,-19.7345 L -0.0799866,-3.40454 L -0.0979767,-3.38786
 L -0.109268,-3.36288 L -0.113129,-3.3313 L -0.13855,-3.31216 L -0.154541,-3.28989 L -0.159988,-3.26598 L -0.159988,-0
 L -0.154541,0.0238953 L -0.13855,0.0461731 L -0.113129,0.0653076 L -0.109268,0.0968933 L -0.0979767,0.121887 L -0.0799866,0.13855
 L 42.3464,24.6335 L 42.3698,24.6407 L 42.3971,24.638 L 42.4264,24.6255 L 42.4557,24.638 L 42.483,24.6407
 z
M -12.6609,6.95255 L -12.4248,6.75104 L -12.2831,6.41519 L -12.2358,5.94502 L -12.2473,5.69606 L -12.2816,5.48079
 L -12.3389,5.29922 L -12.4191,5.15137 L -12.5235,5.03673 L -12.6538,4.95485 L -12.8098,4.90572 L -12.9915,4.88934
 L -13.1027,4.89468 L -13.2044,4.91071 L -13.2968,4.93741 L -13.3799,4.97481 L -13.4543,5.02452 L -13.5211,5.08824
 L -13.5801,5.16595 L -13.6314,5.25769 L -13.639,5.25769 L -13.6357,5.17688 L -13.6333,5.10152 L -13.6319,5.03163
 L -13.6314,4.96718 L -13.6314,4.164 L -13.9732,4.164 L -13.9732,6.55832 L -13.9739,6.70512 L -13.976,6.82462
 L -13.9796,6.91682 L -13.9846,6.98174 L -13.6542,6.98174 L -13.6521,6.9659 L -13.6495,6.93736 L -13.6464,6.89612
 L -13.6428,6.84219 L -13.6395,6.78577 L -13.6371,6.73705 L -13.6357,6.69603 L -13.6352,6.66273 L -13.6314,6.66273
 L -13.5794,6.75026 L -13.5201,6.82486 L -13.4536,6.88652 L -13.3799,6.93524 L -13.2975,6.9722 L -13.2054,6.9986
 L -13.1034,7.01443 L -12.9915,7.01971 z
M -13.2178,6.75513 L -13.3328,6.71899 L -13.4277,6.65877 L -13.5023,6.57445 L -13.5588,6.46486 L -13.5992,6.3288
 L -13.6234,6.16628 L -13.6314,5.97731 L -13.6232,5.77724 L -13.5984,5.60612 L -13.5572,5.46396 L -13.4995,5.35075
 L -13.4237,5.26436 L -13.3283,5.20265 L -13.2134,5.16562 L -13.0789,5.15327 L -12.9596,5.1649 L -12.8581,5.1998
 L -12.7745,5.25795 L -12.7086,5.33936 L -12.6588,5.44771 L -12.6232,5.58665 L -12.6018,5.75623 L -12.5947,5.95642
 L -12.6019,6.15608 L -12.6234,6.32596 L -12.6593,6.46605 L -12.7096,6.57635 L -12.776,6.65984 L -12.8603,6.71947
 L -12.9625,6.75525 L -13.0827,6.76718 z
M -29.4585,4.164 L -29.8003,4.164 L -29.8003,4.4906 L -29.4585,4.4906 z
M -30.4301,5.17604 L -30.0295,5.17604 L -30.0295,4.92731 L -30.4301,4.92731 L -30.4301,4.74313 L -30.4264,4.66255
 L -30.4154,4.5955 L -30.397,4.54198 L -30.3713,4.502 L -30.3373,4.47292 L -30.2943,4.45213 L -30.2424,4.43968
 L -30.1814,4.43552 L -30.147,4.43648 L -30.1102,4.43932 L -30.071,4.44408 L -30.0295,4.45073 L -30.0295,4.19061
 L -30.0816,4.18063 L -30.1391,4.17351 L -30.2021,4.16924 L -30.2706,4.16782 L -30.3896,4.17552 L -30.4923,4.19867
 L -30.5786,4.23724 L -30.6485,4.29124 L -30.7025,4.36279 L -30.741,4.45404 L -30.7642,4.565 L -30.7719,4.69566
 L -30.7719,4.92731 L -31.0605,4.92731 L -31.0605,5.17604 L -30.7719,5.17604 L -30.7719,6.98174 L -30.4301,6.98174
 z
M -23.0479,5.17604 L -22.6472,5.17604 L -22.6472,4.92731 L -23.0479,4.92731 L -23.0479,4.74313 L -23.0442,4.66255
 L -23.0331,4.5955 L -23.0147,4.54198 L -22.989,4.502 L -22.955,4.47292 L -22.9121,4.45213 L -22.8601,4.43968
 L -22.7991,4.43552 L -22.7647,4.43648 L -22.7279,4.43932 L -22.6887,4.44408 L -22.6472,4.45073 L -22.6472,4.19061
 L -22.6993,4.18063 L -22.7569,4.17351 L -22.8199,4.16924 L -22.8883,4.16782 L -23.0074,4.17552 L -23.11,4.19867
 L -23.1963,4.23724 L -23.2662,4.29124 L -23.3202,4.36279 L -23.3588,4.45404 L -23.3819,4.565 L -23.3896,4.69566
 L -23.3896,4.92731 L -23.6782,4.92731 L -23.6782,5.17604 L -23.3896,5.17604 L -23.3896,6.98174 L -23.0479,6.98174
 z
M -50.34,6.69124 L -50.9912,6.69124 L -50.9912,4.30641 L -51.3064,4.30641 L -51.9387,4.74123 L -51.9387,5.06401
 L -51.3349,4.63301 L -51.3349,6.69124 L -52.0166,6.69124 L -52.0166,6.98174 L -50.34,6.98174 z
M -56.0555,6.19945 L -54.8365,6.19945 L -54.5308,6.98174 L -54.1605,6.98174 L -55.2352,4.30641 L -55.6472,4.30641
 L -56.739,6.98174 L -56.3631,6.98174 z
M -55.9453,5.91655 L -55.6036,5.03745 L -55.5599,4.91959 L -55.5219,4.81291 L -55.4896,4.71738 L -55.4631,4.63301
 L -55.446,4.57983 L -55.3947,4.73744 L -55.3681,4.8179 L -55.3415,4.89407 L -55.3149,4.96599 L -55.2884,5.03363
 L -54.9447,5.91655 z
M -33.0043,4.30641 L -33.3536,4.30641 L -33.3138,5.14757 L -33.0461,5.14757 z
M -32.3036,4.30641 L -32.653,4.30641 L -32.615,5.14757 L -32.3454,5.14757 z
M -33.9581,6.37605 L -33.5822,6.37605 L -33.5822,6.1064 L -33.9581,6.1064 L -33.9581,4.30641 L -34.317,4.30641
 L -35.5417,6.11021 L -35.5417,6.37605 L -34.2809,6.37605 L -34.2809,6.98174 L -33.9581,6.98174 z
M -35.2265,6.1064 L -35.1961,6.06844 L -35.0936,5.92795 L -34.4081,4.91782 L -34.3943,4.89645 L -34.3773,4.86844
 L -34.3572,4.83379 L -34.3341,4.7925 L -34.3123,4.75275 L -34.2961,4.72272 L -34.2857,4.70242 L -34.2809,4.69186
 L -34.2809,6.1064 z
M -6.71735,6.98933 L -6.4787,6.89819 L -6.29868,6.74629 L -6.17728,6.53363 L -6.47726,6.4482 L -6.50641,6.51358
 L -6.54636,6.57304 L -6.59709,6.62657 L -6.65863,6.67416 L -6.73106,6.7132 L -6.81454,6.74109 L -6.90906,6.75783
 L -7.01462,6.7634 L -7.14671,6.75142 L -7.26195,6.71545 L -7.36034,6.65553 L -7.44186,6.57162 L -7.50583,6.46564
 L -7.55151,6.33949 L -7.57892,6.19316 L -7.58806,6.02666 L -6.12221,6.02666 L -6.12221,5.98112 L -6.1788,5.50346
 L -6.34863,5.16229 L -6.63167,4.95758 L -7.02792,4.88934 L -7.23636,4.90631 L -7.4193,4.95723 L -7.57672,5.04207
 L -7.70862,5.16086 L -7.81287,5.31145 L -7.88733,5.49171 L -7.93201,5.70164 L -7.9469,5.94125 L -7.93201,6.19246
 L -7.88733,6.41069 L -7.81287,6.59595 L -7.70862,6.7482 L -7.57588,6.86699 L -7.41597,6.95183 L -7.22888,7.00275
 L -7.01462,7.01971 z
M -7.58424,5.76465 L -7.57019,5.62718 L -7.5394,5.50525 L -7.49187,5.39886 L -7.42761,5.30803 L -7.34851,5.23534
 L -7.25648,5.18341 L -7.1515,5.15227 L -7.0336,5.14188 L -6.91292,5.1512 L -6.80719,5.17914 L -6.71642,5.22571
 L -6.64059,5.29092 L -6.57899,5.37642 L -6.53093,5.48387 L -6.4964,5.61328 L -6.47539,5.76465 z
M -27.3425,5.79126 L -27.3345,5.6479 L -27.3107,5.52164 L -27.2709,5.41246 L -27.2153,5.32037 L -27.146,5.24727
 L -27.0653,5.19505 L -26.9732,5.16371 L -26.8697,5.15327 L -26.7716,5.1604 L -26.6898,5.18176 L -26.6244,5.21736
 L -26.5754,5.26721 L -26.5397,5.33568 L -26.5142,5.42717 L -26.4989,5.54169 L -26.4938,5.67923 L -26.4938,6.98174
 L -26.1558,6.98174 L -26.1558,5.79126 L -26.148,5.64713 L -26.1247,5.52045 L -26.0858,5.41121 L -26.0314,5.31943
 L -25.963,5.24673 L -25.8821,5.19481 L -25.7888,5.16365 L -25.683,5.15327 L -25.5848,5.1604 L -25.5031,5.18176
 L -25.4377,5.21736 L -25.3887,5.26721 L -25.353,5.33568 L -25.3274,5.42717 L -25.3121,5.54169 L -25.307,5.67923
 L -25.307,6.98174 L -24.9691,6.98174 L -24.9691,5.61275 L -24.9779,5.43356 L -25.0044,5.28142 L -25.0486,5.15634
 L -25.1105,5.05832 L -25.1919,4.98439 L -25.2945,4.93159 L -25.4183,4.8999 L -25.5634,4.88934 L -25.6667,4.89503
 L -25.762,4.91212 L -25.8494,4.94061 L -25.9289,4.98048 L -26.0016,5.03329 L -26.0687,5.10057 L -26.1302,5.18234
 L -26.1861,5.27858 L -26.1918,5.27858 L -26.2236,5.18387 L -26.2657,5.10295 L -26.3181,5.03578 L -26.3808,4.98239
 L -26.4548,4.94168 L -26.541,4.91261 L -26.6394,4.89516 L -26.7501,4.88934 L -26.8487,4.89468 L -26.9395,4.91071
 L -27.0224,4.93741 L -27.0975,4.97481 L -27.1667,5.02582 L -27.2319,5.09346 L -27.293,5.1777 L -27.3501,5.27858
 L -27.3558,5.27858 L -27.3576,5.20956 L -27.3593,5.15256 L -27.3609,5.10753 L -27.3624,5.07448 L -27.3638,5.04819
 L -27.3662,5.00024 L -27.3672,4.97858 L -27.3681,4.95972 L -27.3691,4.94487 L -27.37,4.93408 L -27.371,4.92731
 L -27.6937,4.92731 L -27.6888,4.98463 L -27.6852,5.07684 L -27.6831,5.20395 L -27.6824,5.36594 L -27.6824,6.98174
 L -27.3425,6.98174 z
M -45.346,5.46086 L -45.3452,5.2578 L -45.3427,5.09676 L -45.3385,4.97774 L -45.3327,4.90071 L -45.6612,4.90071
 L -45.665,4.9136 L -45.6688,4.94275 L -45.6726,4.98814 L -45.6764,5.04979 L -45.6797,5.1144 L -45.6821,5.16869
 L -45.6835,5.21265 L -45.684,5.24629 L -45.6878,5.24629 L -45.7421,5.15723 L -45.8026,5.08182 L -45.8693,5.02005
 L -45.9422,4.97194 L -46.0233,4.93581 L -46.1145,4.90999 L -46.216,4.8945 L -46.3277,4.88934 L -46.6583,4.95651
 L -46.8944,5.15802 L -47.0361,5.49385 L -47.0833,5.96402 L -47.072,6.21143 L -47.0378,6.42587 L -46.9808,6.60733
 L -46.9011,6.75578 L -46.7969,6.87125 L -46.6666,6.95374 L -46.5102,7.00322 L -46.3277,7.01971 L -46.2128,7.01431
 L -46.1093,6.99811 L -46.0172,6.97112 L -45.9365,6.93333 L -45.8645,6.88283 L -45.7984,6.81773 L -45.7382,6.73804
 L -45.684,6.64375 L -45.6802,6.64375 L -45.6878,6.95517 L -45.6878,7.7887 L -45.346,7.7887 z
M -46.3588,6.74416 L -46.4598,6.70927 L -46.5435,6.65112 L -46.6096,6.56972 L -46.6599,6.46136 L -46.6958,6.3224
 L -46.7173,6.15283 L -46.7245,5.95265 L -46.7174,5.75528 L -46.696,5.58665 L -46.6604,5.44675 L -46.6106,5.33556
 L -46.5445,5.25082 L -46.4601,5.19029 L -46.3574,5.15398 L -46.2365,5.14188 L -46.1029,5.15398 L -45.9887,5.19029
 L -45.894,5.25082 L -45.8188,5.33556 L -45.7615,5.44531 L -45.7205,5.58095 L -45.696,5.74246 L -45.6878,5.92986
 L -45.696,6.12303 L -45.7205,6.2906 L -45.7615,6.43253 L -45.8188,6.54883 L -45.8943,6.63937 L -45.9897,6.70404
 L -46.105,6.74284 L -46.2403,6.75578 z
M -38.1868,5.79126 L -38.1779,5.64943 L -38.1512,5.52399 L -38.1067,5.41493 L -38.0444,5.32225 L -37.9666,5.24832
 L -37.8759,5.19553 L -37.772,5.16383 L -37.6552,5.15327 L -37.5758,5.15636 L -37.5066,5.16562 L -37.4476,5.18105
 L -37.3988,5.20264 L -37.3581,5.23123 L -37.3233,5.26767 L -37.2945,5.31194 L -37.2716,5.36403 L -37.2542,5.42574
 L -37.2417,5.49884 L -37.2342,5.58334 L -37.2317,5.67923 L -37.2317,6.98174 L -36.8881,6.98174 L -36.8881,5.61275
 L -36.8979,5.43279 L -36.9272,5.28023 L -36.9762,5.15509 L -37.0447,5.05737 L -37.1344,4.98386 L -37.2467,4.93135
 L -37.3817,4.89984 L -37.5393,4.88934 L -37.6495,4.89487 L -37.7503,4.91142 L -37.8418,4.93901 L -37.9238,4.97763
 L -37.9989,5.02954 L -38.0693,5.097 L -38.1351,5.18002 L -38.1963,5.27858 L -38.202,5.27858 L -38.2038,5.20956
 L -38.2055,5.15256 L -38.2071,5.10753 L -38.2086,5.07448 L -38.2112,5.02344 L -38.2124,5.00024 L -38.2134,4.97858
 L -38.2143,4.95972 L -38.2153,4.94487 L -38.2162,4.93408 L -38.2172,4.92731 L -38.5399,4.92731 L -38.535,4.98463
 L -38.5314,5.07684 L -38.5293,5.20395 L -38.5286,5.36594 L -38.5286,6.98174 L -38.1868,6.98174 z
M -21.3928,7.00322 L -21.2071,6.95374 L -21.0482,6.87125 L -20.9161,6.75578 L -20.8123,6.60661 L -20.7381,6.42303
 L -20.6936,6.20503 L -20.6788,5.95265 L -20.6926,5.69803 L -20.7343,5.47913 L -20.8037,5.29596 L -20.9009,5.14851
 L -21.0276,5.03513 L -21.1853,4.95413 L -21.3741,4.90555 L -21.594,4.88934 L -21.9969,4.9558 L -22.2846,5.15517
 L -22.4573,5.48746 L -22.5148,5.95265 L -22.5005,6.19655 L -22.4574,6.40997 L -22.3856,6.59291 L -22.2851,6.74533
 L -22.1565,6.86537 L -22.0003,6.95111 L -21.8166,7.00256 L -21.6054,7.01971 z
M -21.7412,6.75443 L -21.8543,6.71614 L -21.9486,6.65236 L -22.024,6.56306 L -22.0818,6.44836 L -22.123,6.3084
 L -22.1478,6.14314 L -22.156,5.95265 L -22.1476,5.7576 L -22.1225,5.59023 L -22.0807,5.45049 L -22.0221,5.33841
 L -21.9448,5.25243 L -21.8467,5.19101 L -21.7279,5.15416 L -21.5883,5.14188 L -21.45,5.15392 L -21.3331,5.19006
 L -21.2378,5.25029 L -21.1639,5.33459 L -21.1087,5.4455 L -21.0692,5.58548 L -21.0455,5.75452 L -21.0376,5.95265
 L -21.0459,6.14854 L -21.0706,6.31671 L -21.1119,6.45709 L -21.1696,6.56972 L -21.2466,6.65611 L -21.3455,6.71782
 L -21.4663,6.75484 L -21.6092,6.76718 z
M -19.6603,7.0136 L -19.55,6.99527 L -19.449,6.96471 L -19.3575,6.92194 L -19.2733,6.86444 L -19.1944,6.78973
 L -19.1209,6.69783 L -19.0527,6.5887 L -19.0414,6.5887 L -19.031,6.68797 L -19.0112,6.77312 L -18.9821,6.84415
 L -18.9436,6.90105 L -18.8939,6.94466 L -18.8313,6.9758 L -18.7558,6.99449 L -18.6673,7.00073 L -18.6002,6.99883
 L -18.5339,6.99313 L -18.4683,6.98364 L -18.4034,6.97035 L -18.4034,6.75769 L -18.4339,6.7635 L -18.4627,6.76765
 L -18.4899,6.77016 L -18.5154,6.77098 L -18.5669,6.76617 L -18.6094,6.75177 L -18.6428,6.72774 L -18.6673,6.69409
 L -18.6847,6.65096 L -18.6972,6.59843 L -18.7047,6.53654 L -18.7072,6.46529 L -18.7072,5.58047 L -18.7194,5.42235
 L -18.7561,5.28404 L -18.8172,5.16556 L -18.9028,5.06689 L -19.0125,4.98921 L -19.1463,4.93373 L -19.304,4.90044
 L -19.4857,4.88934 L -19.8134,4.924 L -20.06,5.02795 L -20.2254,5.20122 L -20.3097,5.44377 L -19.9528,5.47606
 L -19.9371,5.39642 L -19.911,5.32843 L -19.8744,5.27206 L -19.8274,5.22734 L -19.7674,5.19327 L -19.6917,5.16893
 L -19.6003,5.15433 L -19.4932,5.14946 L -19.3869,5.15623 L -19.2958,5.17653 L -19.2198,5.21036 L -19.1591,5.25772
 L -19.1125,5.32072 L -19.0793,5.40154 L -19.0594,5.50015 L -19.0527,5.61656 L -19.0527,5.72859 L -19.5141,5.73618
 L -19.7316,5.75185 L -19.9169,5.78745 L -20.0701,5.84299 L -20.191,5.91846 L -20.2828,6.01314 L -20.3484,6.12636
 L -20.3877,6.25809 L -20.4008,6.40833 L -20.3911,6.54314 L -20.3619,6.66275 L -20.3133,6.76717 L -20.2452,6.85641
 L -20.1577,6.92786 L -20.051,6.97888 L -19.9251,7.00951 L -19.78,7.01971 z
M -19.7808,6.75771 L -19.85,6.74062 L -19.9095,6.71213 L -19.9594,6.67226 L -19.9988,6.62195 L -20.027,6.56213
 L -20.0439,6.49281 L -20.0496,6.41402 L -20.0454,6.34079 L -20.033,6.27493 L -20.0122,6.21643 L -19.9831,6.16528
 L -19.9463,6.12091 L -19.9022,6.08269 L -19.8509,6.05064 L -19.7923,6.02478 L -19.7228,6.00461 L -19.6387,5.98965
 L -19.5401,5.97992 L -19.4268,5.9754 L -19.0527,5.96782 L -19.0527,6.13678 L -19.058,6.21506 L -19.0739,6.29225
 L -19.1003,6.36838 L -19.1372,6.44344 L -19.1833,6.51399 L -19.2372,6.57658 L -19.2987,6.63124 L -19.368,6.67795
 L -19.4436,6.71533 L -19.5246,6.74203 L -19.6107,6.75806 L -19.7021,6.7634 z
M -28.6053,5.91087 L -28.5983,5.74988 L -28.5773,5.60872 L -28.5423,5.48738 L -28.4932,5.38586 L -28.4309,5.30571
 L -28.356,5.24844 L -28.2686,5.2141 L -28.1685,5.20264 L -28.1144,5.20383 L -28.066,5.20738 L -28.0233,5.21332
 L -27.9863,5.22162 L -27.9863,4.90833 L -28.0213,4.90002 L -28.0561,4.89409 L -28.0906,4.89053 L -28.1249,4.88934
 L -28.2163,4.8954 L -28.2967,4.91356 L -28.3663,4.9438 L -28.4249,4.98618 L -28.4765,5.04503 L -28.5251,5.12477
 L -28.5705,5.2254 L -28.6129,5.34692 L -28.6205,5.34692 L -28.6214,5.29436 L -28.6243,5.20689 L -28.629,5.08455
 L -28.6356,4.92731 L -28.9584,4.92731 L -28.9534,5.05548 L -28.9499,5.17795 L -28.9478,5.29472 L -28.9471,5.40581
 L -28.9471,6.98174 L -28.6053,6.98174 z
M -17.8444,5.79126 L -17.8365,5.6479 L -17.8126,5.52164 L -17.7729,5.41246 L -17.7172,5.32037 L -17.6479,5.24727
 L -17.5672,5.19505 L -17.4751,5.16371 L -17.3716,5.15327 L -17.2735,5.1604 L -17.1917,5.18176 L -17.1263,5.21736
 L -17.0773,5.26721 L -17.0416,5.33568 L -17.0161,5.42717 L -17.0008,5.54169 L -16.9957,5.67923 L -16.9957,6.98174
 L -16.6577,6.98174 L -16.6577,5.79126 L -16.6499,5.64713 L -16.6266,5.52045 L -16.5878,5.41121 L -16.5333,5.31943
 L -16.4649,5.24673 L -16.384,5.19481 L -16.2907,5.16365 L -16.1849,5.15327 L -16.0868,5.1604 L -16.005,5.18176
 L -15.9396,5.21736 L -15.8906,5.26721 L -15.8549,5.33568 L -15.8294,5.42717 L -15.8141,5.54169 L -15.809,5.67923
 L -15.809,6.98174 L -15.471,6.98174 L -15.471,5.61275 L -15.4798,5.43356 L -15.5064,5.28142 L -15.5506,5.15634
 L -15.6125,5.05832 L -15.6938,4.98439 L -15.7964,4.93159 L -15.9202,4.8999 L -16.0653,4.88934 L -16.1686,4.89503
 L -16.264,4.91212 L -16.3514,4.94061 L -16.4308,4.98048 L -16.5035,5.03329 L -16.5706,5.10057 L -16.6321,5.18234
 L -16.6881,5.27858 L -16.6938,5.27858 L -16.7255,5.18387 L -16.7676,5.10295 L -16.82,5.03578 L -16.8827,4.98239
 L -16.9567,4.94168 L -17.0429,4.91261 L -17.1414,4.89516 L -17.252,4.88934 L -17.3506,4.89468 L -17.4414,4.91071
 L -17.5244,4.93741 L -17.5995,4.97481 L -17.6687,5.02582 L -17.7338,5.09346 L -17.7949,5.1777 L -17.852,5.27858
 L -17.8577,5.27858 L -17.8595,5.20956 L -17.8613,5.15256 L -17.8629,5.10753 L -17.8643,5.07448 L -17.867,5.02344
 L -17.8681,5.00024 L -17.8691,4.97858 L -17.8701,4.95972 L -17.871,4.94487 L -17.8719,4.93408 L -17.8729,4.92731
 L -18.1957,4.92731 L -18.1907,4.98463 L -18.1871,5.07684 L -18.185,5.20395 L -18.1843,5.36594 L -18.1843,6.98174
 L -17.8444,6.98174 z
M -11.2173,7.0136 L -11.107,6.99527 L -11.0061,6.96471 L -10.9145,6.92194 L -10.8303,6.86444 L -10.7515,6.78973
 L -10.678,6.69783 L -10.6098,6.5887 L -10.5984,6.5887 L -10.588,6.68797 L -10.5683,6.77312 L -10.5392,6.84415
 L -10.5006,6.90105 L -10.451,6.94466 L -10.3884,6.9758 L -10.3128,6.99449 L -10.2243,7.00073 L -10.1573,6.99883
 L -10.091,6.99313 L -10.0253,6.98364 L -9.96045,6.97035 L -9.96045,6.75769 L -9.99094,6.7635 L -10.0198,6.76765
 L -10.0469,6.77016 L -10.0724,6.77098 L -10.1239,6.76617 L -10.1664,6.75177 L -10.1999,6.72774 L -10.2244,6.69409
 L -10.2418,6.65096 L -10.2543,6.59843 L -10.2617,6.53654 L -10.2642,6.46529 L -10.2642,5.58047 L -10.2765,5.42235
 L -10.3131,5.28404 L -10.3743,5.16556 L -10.4598,5.06689 L -10.5696,4.98921 L -10.7033,4.93373 L -10.861,4.90044
 L -11.0427,4.88934 L -11.3705,4.924 L -11.6171,5.02795 L -11.7825,5.20122 L -11.8668,5.44377 L -11.5098,5.47606
 L -11.4942,5.39642 L -11.468,5.32843 L -11.4315,5.27206 L -11.3845,5.22734 L -11.3244,5.19327 L -11.2487,5.16893
 L -11.1573,5.15433 L -11.0503,5.14946 L -10.944,5.15623 L -10.8528,5.17653 L -10.7769,5.21036 L -10.7161,5.25772
 L -10.6696,5.32072 L -10.6364,5.40154 L -10.6164,5.50015 L -10.6098,5.61656 L -10.6098,5.72859 L -11.0712,5.73618
 L -11.2887,5.75185 L -11.474,5.78745 L -11.6271,5.84299 L -11.7481,5.91846 L -11.8399,6.01314 L -11.9055,6.12636
 L -11.9448,6.25809 L -11.9579,6.40833 L -11.9482,6.54314 L -11.919,6.66275 L -11.8703,6.76717 L -11.8022,6.85641
 L -11.7148,6.92786 L -11.6081,6.97888 L -11.4822,7.00951 L -11.337,7.01971 z
M -11.3379,6.75771 L -11.407,6.74062 L -11.4666,6.71213 L -11.5165,6.67226 L -11.5559,6.62195 L -11.5841,6.56213
 L -11.601,6.49281 L -11.6066,6.41402 L -11.6025,6.34079 L -11.59,6.27493 L -11.5693,6.21643 L -11.5402,6.16528
 L -11.5033,6.12091 L -11.4593,6.08269 L -11.4079,6.05064 L -11.3494,6.02478 L -11.2799,6.00461 L -11.1958,5.98965
 L -11.0971,5.97992 L -10.9838,5.9754 L -10.6098,5.96782 L -10.6098,6.13678 L -10.6151,6.21506 L -10.6309,6.29225
 L -10.6573,6.36838 L -10.6943,6.44344 L -10.7404,6.51399 L -10.7942,6.57658 L -10.8558,6.63124 L -10.925,6.67795
 L -11.0007,6.71533 L -11.0816,6.74203 L -11.1678,6.75806 L -11.2592,6.7634 z
M -41.6277,6.98933 L -41.389,6.89819 L -41.209,6.74629 L -41.0876,6.53363 L -41.3876,6.4482 L -41.4167,6.51358
 L -41.4567,6.57304 L -41.5074,6.62657 L -41.5689,6.67416 L -41.6414,6.7132 L -41.7249,6.74109 L -41.8194,6.75783
 L -41.9249,6.7634 L -42.057,6.75142 L -42.1723,6.71545 L -42.2706,6.65553 L -42.3522,6.57162 L -42.4161,6.46564
 L -42.4618,6.33949 L -42.4892,6.19316 L -42.4984,6.02666 L -41.0325,6.02666 L -41.0325,5.98112 L -41.0891,5.50346
 L -41.2589,5.16229 L -41.542,4.95758 L -41.9382,4.88934 L -42.1467,4.90631 L -42.3296,4.95723 L -42.487,5.04207
 L -42.6189,5.16086 L -42.7232,5.31145 L -42.7977,5.49171 L -42.8423,5.70164 L -42.8572,5.94125 L -42.8423,6.19246
 L -42.7977,6.41069 L -42.7232,6.59595 L -42.6189,6.7482 L -42.4862,6.86699 L -42.3263,6.95183 L -42.1392,7.00275
 L -41.9249,7.01971 z
M -42.4946,5.76465 L -42.4805,5.62718 L -42.4497,5.50525 L -42.4022,5.39886 L -42.3379,5.30803 L -42.2588,5.23534
 L -42.1668,5.18341 L -42.0618,5.15227 L -41.9439,5.14188 L -41.8232,5.1512 L -41.7175,5.17914 L -41.6267,5.22571
 L -41.5509,5.29092 L -41.4893,5.37642 L -41.4412,5.48387 L -41.4067,5.61328 L -41.3857,5.76465 z
M -39.5155,6.98933 L -39.2769,6.89819 L -39.0969,6.74629 L -38.9755,6.53363 L -39.2755,6.4482 L -39.3046,6.51358
 L -39.3446,6.57304 L -39.3953,6.62657 L -39.4568,6.67416 L -39.5293,6.7132 L -39.6127,6.74109 L -39.7073,6.75783
 L -39.8128,6.7634 L -39.9449,6.75142 L -40.0602,6.71545 L -40.1585,6.65553 L -40.2401,6.57162 L -40.304,6.46564
 L -40.3497,6.33949 L -40.3771,6.19316 L -40.3863,6.02666 L -38.9204,6.02666 L -38.9204,5.98112 L -38.977,5.50346
 L -39.1468,5.16229 L -39.4299,4.95758 L -39.8261,4.88934 L -40.0346,4.90631 L -40.2175,4.95723 L -40.3749,5.04207
 L -40.5068,5.16086 L -40.6111,5.31145 L -40.6855,5.49171 L -40.7302,5.70164 L -40.7451,5.94125 L -40.7302,6.19246
 L -40.6855,6.41069 L -40.6111,6.59595 L -40.5068,6.7482 L -40.3741,6.86699 L -40.2142,6.95183 L -40.0271,7.00275
 L -39.8128,7.01971 z
M -40.3824,5.76465 L -40.3684,5.62718 L -40.3376,5.50525 L -40.2901,5.39886 L -40.2258,5.30803 L -40.1467,5.23534
 L -40.0547,5.18341 L -39.9497,5.15227 L -39.8318,5.14188 L -39.7111,5.1512 L -39.6054,5.17914 L -39.5146,5.22571
 L -39.4388,5.29092 L -39.3772,5.37642 L -39.3291,5.48387 L -39.2946,5.61328 L -39.2736,5.76465 z
M -8.85425,7.00986 L -8.68971,6.98032 L -8.54712,6.93108 L -8.4265,6.86212 L -8.33055,6.77501 L -8.26201,6.6713
 L -8.22089,6.55096 L -8.20718,6.41402 L -8.20955,6.35677 L -8.21667,6.3027 L -8.22855,6.25186 L -8.24518,6.20421
 L -8.26611,6.15953 L -8.29097,6.11758 L -8.31975,6.07835 L -8.35245,6.04187 L -8.39023,6.00751 L -8.43433,5.97472
 L -8.4847,5.94345 L -8.54135,5.91373 L -8.61066,5.88411 L -8.69894,5.8532 L -8.80623,5.82097 L -8.9325,5.78745
 L -9.06351,5.75421 L -9.16985,5.72479 L -9.2515,5.69916 L -9.30847,5.67732 L -9.35036,5.65631 L -9.3868,5.63318
 L -9.41777,5.60791 L -9.4433,5.58049 L -9.46323,5.55011 L -9.47746,5.51593 L -9.48601,5.47795 L -9.48885,5.43619
 L -9.48196,5.36949 L -9.46132,5.31181 L -9.42691,5.26317 L -9.37872,5.22353 L -9.31606,5.19279 L -9.2382,5.17084
 L -9.14516,5.15767 L -9.03693,5.15327 L -8.93777,5.15784 L -8.8492,5.17155 L -8.77116,5.1944 L -8.7037,5.22638
 L -8.64751,5.26691 L -8.6033,5.31537 L -8.57108,5.3718 L -8.55084,5.43619 L -8.24327,5.39819 L -8.27904,5.27524
 L -8.33321,5.17033 L -8.40578,5.08347 L -8.49675,5.01465 L -8.60564,4.96231 L -8.73195,4.92493 L -8.87572,4.90251
 L -9.03693,4.89503 L -9.21725,4.90422 L -9.37466,4.93182 L -9.50919,4.97781 L -9.62082,5.04219 L -9.70845,5.12413
 L -9.77104,5.22281 L -9.80861,5.33821 L -9.82112,5.47035 L -9.81673,5.54333 L -9.80356,5.61038 L -9.7816,5.67149
 L -9.75087,5.72668 L -9.71236,5.77695 L -9.66708,5.82329 L -9.61505,5.86572 L -9.55624,5.90424 L -9.48343,5.94095
 L -9.38939,5.97803 L -9.27409,6.01546 L -9.13756,6.05327 L -8.89262,6.1178 L -8.806,6.14415 L -8.73218,6.17381
 L -8.67119,6.20682 L -8.623,6.24313 L -8.58646,6.28395 L -8.56033,6.33046 L -8.54468,6.38268 L -8.53946,6.44058
 L -8.54698,6.51537 L -8.5696,6.58015 L -8.60727,6.63499 L -8.66002,6.67984 L -8.72903,6.71474 L -8.81549,6.73965
 L -8.91939,6.75461 L -9.04074,6.7596 L -9.15561,6.75479 L -9.2572,6.74037 L -9.34549,6.71634 L -9.4205,6.68271
 L -9.48303,6.63873 L -9.53394,6.58371 L -9.57321,6.51767 L -9.60085,6.44058 L -9.90277,6.49947 L -9.86237,6.62448
 L -9.8038,6.73183 L -9.72708,6.82147 L -9.6322,6.89346 L -9.51727,6.9487 L -9.38037,6.98814 L -9.22153,7.01183
 L -9.04074,7.01971 z
M -44.1205,7.01419 L -44.0197,6.99763 L -43.9283,6.97005 L -43.8462,6.93143 L -43.7712,6.87952 L -43.7007,6.81204
 L -43.6349,6.72903 L -43.5738,6.63048 L -43.5681,6.63048 L -43.5662,6.69949 L -43.5645,6.75652 L -43.5629,6.80154
 L -43.5614,6.83461 L -43.5588,6.88562 L -43.5567,6.93048 L -43.5557,6.94934 L -43.5548,6.96417 L -43.5538,6.97498
 L -43.5529,6.98174 L -43.2301,6.98174 L -43.2351,6.92442 L -43.2386,6.83221 L -43.2408,6.70511 L -43.2415,6.54312
 L -43.2415,4.92731 L -43.5833,4.92731 L -43.5833,6.1178 L -43.5921,6.25963 L -43.6189,6.38506 L -43.6633,6.49413
 L -43.7257,6.58681 L -43.8034,6.66074 L -43.8942,6.71353 L -43.998,6.74522 L -44.1149,6.75578 L -44.1943,6.7527
 L -44.2635,6.74344 L -44.3225,6.72801 L -44.3712,6.70642 L -44.412,6.67783 L -44.4467,6.64139 L -44.4756,6.59712
 L -44.4985,6.54503 L -44.5159,6.48332 L -44.5284,6.41022 L -44.5358,6.32571 L -44.5383,6.22983 L -44.5383,4.92731
 L -44.882,4.92731 L -44.882,6.2963 L -44.8722,6.47626 L -44.8428,6.62881 L -44.7939,6.75395 L -44.7254,6.85168
 L -44.6357,6.9252 L -44.5234,6.97771 L -44.3884,7.0092 L -44.2307,7.01971 z
M -29.4585,4.92731 L -29.8003,4.92731 L -29.8003,6.98174 L -29.4585,6.98174 z
M -49.2323,6.13869 L -48.6798,6.98174 L -48.2981,6.98174 L -49.0387,5.92227 L -48.3418,4.92731 L -48.7234,4.92731
 L -49.2323,5.72668 L -49.745,4.92731 L -50.1228,4.92731 L -49.426,5.92604 L -50.157,6.98174 L -49.7887,6.98174
 z
M 56.5064,70.6335 L 84.7907,54.3035 L 84.8087,54.2868 L 84.82,54.2619 L 84.8238,54.2303 L 84.8492,54.2112
 L 84.8652,54.1889 L 84.8707,54.165 L 84.8707,52.9402 L 84.8652,52.9163 L 84.8492,52.894 L 84.8238,52.8749
 L 84.82,52.8433 L 84.8087,52.8183 L 84.7907,52.8017 L 42.3643,28.3068 L 42.3408,28.2995 L 42.3136,28.3022
 L 42.2843,28.3147 L 42.255,28.3022 L 42.2277,28.2995 L 42.2043,28.3068 L 13.92,44.6367 L 13.902,44.6534
 L 13.8907,44.6784 L 13.8869,44.7099 L 13.8615,44.7291 L 13.8455,44.7514 L 13.84,44.7753 L 13.84,46
 L 13.8455,46.0239 L 13.8615,46.0462 L 13.8869,46.0653 L 13.8907,46.0969 L 13.902,46.1219 L 13.92,46.1385
 L 56.3464,70.6335 L 56.3698,70.6407 L 56.3971,70.638 L 56.4264,70.6255 L 56.4557,70.638 L 56.483,70.6407
 z
M -39.93,52.6212 L -40.5813,52.6212 L -40.5813,50.2364 L -40.8965,50.2364 L -41.5287,50.6712 L -41.5287,50.994
 L -40.925,50.563 L -40.925,52.6212 L -41.6066,52.6212 L -41.6066,52.9117 L -39.93,52.9117 z
M -23.2482,52.6212 L -23.8994,52.6212 L -23.8994,50.2364 L -24.2146,50.2364 L -24.8469,50.6712 L -24.8469,50.994
 L -24.2431,50.563 L -24.2431,52.6212 L -24.9247,52.6212 L -24.9247,52.9117 L -23.2482,52.9117 z
M -44.9221,52.8993 L -44.7286,52.8621 L -44.5604,52.8001 L -44.4176,52.7133 L -44.3038,52.6042 L -44.2226,52.4753
 L -44.1738,52.3265 L -44.1575,52.1579 L -44.1683,52.0298 L -44.2007,51.9133 L -44.2547,51.8082 L -44.3303,51.7146
 L -44.4258,51.6354 L -44.5397,51.5734 L -44.6717,51.5286 L -44.8221,51.501 L -44.7074,51.4668 L -44.6066,51.4193
 L -44.5195,51.3586 L -44.4461,51.2845 L -44.388,51.1991 L -44.3464,51.1042 L -44.3215,50.9997 L -44.3132,50.8858
 L -44.3721,50.6017 L -44.5487,50.3988 L -44.843,50.277 L -45.255,50.2364 L -46.2271,50.2364 L -46.2271,52.9117
 L -45.1411,52.9117 z
M -45.8645,51.3738 L -45.8645,50.5269 L -45.255,50.5269 L -45.1228,50.5327 L -45.0072,50.5502 L -44.9082,50.5793
 L -44.8259,50.62 L -44.7611,50.6742 L -44.7148,50.7439 L -44.687,50.8289 L -44.6778,50.9295 L -44.6867,51.0351
 L -44.7136,51.1262 L -44.7584,51.2027 L -44.8211,51.2646 L -44.902,51.3124 L -45.0013,51.3465 L -45.1189,51.3669
 L -45.255,51.3738 z
M -45.8645,52.6212 L -45.8645,51.6567 L -45.1885,51.6567 L -44.8978,51.6862 L -44.6901,51.7749 L -44.5655,51.9226
 L -44.524,52.1295 L -44.5335,52.2443 L -44.562,52.344 L -44.6094,52.4285 L -44.6759,52.4978 L -44.7631,52.5518
 L -44.8729,52.5904 L -45.0052,52.6135 L -45.1601,52.6212 z
M -20.7928,52.9345 L -20.6062,52.8889 L -20.4439,52.813 L -20.3059,52.7067 L -20.1958,52.5739 L -20.1172,52.4185
 L -20.07,52.2406 L -20.0543,52.0402 L -20.069,51.8629 L -20.1129,51.7032 L -20.1862,51.561 L -20.2888,51.4364
 L -20.4161,51.3351 L -20.5634,51.2627 L -20.7308,51.2193 L -20.9182,51.2048 L -21.0767,51.2155 L -21.2216,51.2475
 L -21.3529,51.3009 L -21.4708,51.3757 L -21.4195,50.5269 L -20.21,50.5269 L -20.21,50.2364 L -21.7309,50.2364
 L -21.8201,51.6757 L -21.486,51.6757 L -21.4262,51.6272 L -21.3663,51.5864 L -21.3065,51.5532 L -21.2467,51.5276
 L -21.1857,51.5085 L -21.1224,51.4948 L -21.0566,51.4866 L -20.9885,51.4839 L -20.8624,51.4936 L -20.75,51.5228
 L -20.6512,51.5715 L -20.566,51.6396 L -20.4975,51.7235 L -20.4485,51.8195 L -20.4192,51.9276 L -20.4094,52.0478
 L -20.4191,52.1853 L -20.4483,52.3072 L -20.497,52.4136 L -20.5651,52.5045 L -20.6504,52.5772 L -20.7507,52.6291
 L -20.8659,52.6602 L -20.9961,52.6706 L -21.1989,52.6458 L -21.3592,52.5714 L -21.4771,52.4474 L -21.5524,52.2738
 L -21.898,52.3136 L -21.8571,52.4592 L -21.795,52.5866 L -21.7118,52.6956 L -21.6075,52.7864 L -21.4836,52.8578
 L -21.3417,52.9089 L -21.1817,52.9395 L -21.0037,52.9497 z
M -19.427,50.2364 L -19.7764,50.2364 L -19.7365,51.0776 L -19.4688,51.0776 z
M -18.7264,50.2364 L -19.0757,50.2364 L -19.0378,51.0776 L -18.7682,51.0776 z
M -1.97411,52.9393 L -1.88724,52.9307 L -1.80133,52.9165 L -1.71635,52.8965 L -1.71635,52.644 L -1.77711,52.6556
 L -1.83028,52.664 L -1.87584,52.6689 L -1.91382,52.6706 L -1.96918,52.6669 L -2.01566,52.6557 L -2.05321,52.637
 L -2.08186,52.6108 L -2.10304,52.5754 L -2.11818,52.5289 L -2.12726,52.4714 L -2.13028,52.4029 L -2.13028,51.106
 L -1.75052,51.106 L -1.75052,50.8573 L -2.13028,50.8573 L -2.13028,50.3978 L -2.35812,50.3978 L -2.45877,50.8573
 L -2.70941,50.8573 L -2.70941,51.106 L -2.47205,51.106 L -2.47205,52.4769 L -2.44641,52.6805 L -2.36952,52.8258
 L -2.24136,52.9131 L -2.06194,52.9421 z
M -16.9288,51.7213 L -16.9209,51.5779 L -16.897,51.4516 L -16.8573,51.3425 L -16.8016,51.2504 L -16.7323,51.1773
 L -16.6516,51.125 L -16.5595,51.0937 L -16.456,51.0833 L -16.3579,51.0904 L -16.2761,51.1118 L -16.2107,51.1474
 L -16.1617,51.1972 L -16.126,51.2657 L -16.1005,51.3572 L -16.0852,51.4717 L -16.0801,51.6092 L -16.0801,52.9117
 L -15.7421,52.9117 L -15.7421,51.7213 L -15.7343,51.5771 L -15.711,51.4504 L -15.6721,51.3412 L -15.6177,51.2494
 L -15.5493,51.1767 L -15.4684,51.1248 L -15.3751,51.0937 L -15.2693,51.0833 L -15.1712,51.0904 L -15.0894,51.1118
 L -15.024,51.1474 L -14.975,51.1972 L -14.9393,51.2657 L -14.9138,51.3572 L -14.8985,51.4717 L -14.8934,51.6092
 L -14.8934,52.9117 L -14.5554,52.9117 L -14.5554,51.5428 L -14.5642,51.3636 L -14.5908,51.2114 L -14.635,51.0863
 L -14.6969,50.9883 L -14.7782,50.9144 L -14.8808,50.8616 L -15.0046,50.8299 L -15.1497,50.8194 L -15.253,50.825
 L -15.3484,50.8421 L -15.4358,50.8706 L -15.5152,50.9105 L -15.5879,50.9633 L -15.655,51.0306 L -15.7165,51.1123
 L -15.7725,51.2086 L -15.7782,51.2086 L -15.8099,51.1139 L -15.852,51.0329 L -15.9044,50.9658 L -15.9671,50.9124
 L -16.0411,50.8717 L -16.1273,50.8426 L -16.2258,50.8252 L -16.3364,50.8194 L -16.435,50.8247 L -16.5258,50.8407
 L -16.6087,50.8674 L -16.6839,50.9048 L -16.7531,50.9558 L -16.8182,51.0235 L -16.8793,51.1077 L -16.9364,51.2086
 L -16.9421,51.2086 L -16.9439,51.1396 L -16.9457,51.0826 L -16.9473,51.0375 L -16.9487,51.0045 L -16.9514,50.9534
 L -16.9525,50.9302 L -16.9535,50.9086 L -16.9545,50.8897 L -16.9554,50.8749 L -16.9563,50.8641 L -16.9573,50.8573
 L -17.2801,50.8573 L -17.2751,50.9146 L -17.2715,51.0068 L -17.2694,51.1339 L -17.2687,51.2959 L -17.2687,52.9117
 L -16.9288,52.9117 z
M -6.37556,51.8409 L -6.36856,51.6799 L -6.34755,51.5387 L -6.31255,51.4174 L -6.26353,51.3159 L -6.20123,51.2357
 L -6.12634,51.1785 L -6.03888,51.1441 L -5.93884,51.1326 L -5.88474,51.1338 L -5.83632,51.1374 L -5.79359,51.1433
 L -5.75656,51.1516 L -5.75656,50.8383 L -5.79158,50.83 L -5.82635,50.8241 L -5.8609,50.8205 L -5.89519,50.8194
 L -5.98657,50.8254 L -6.06703,50.8436 L -6.13658,50.8738 L -6.19521,50.9162 L -6.24683,50.975 L -6.29536,51.0548
 L -6.34081,51.1554 L -6.38318,51.2769 L -6.39076,51.2769 L -6.39171,51.2243 L -6.39456,51.1369 L -6.39929,51.0145
 L -6.40593,50.8573 L -6.72871,50.8573 L -6.72375,50.9855 L -6.7202,51.108 L -6.71806,51.2247 L -6.71735,51.3358
 L -6.71735,52.9117 L -6.37556,52.9117 z
M -0.427795,52.9332 L -0.242065,52.8837 L -0.0831604,52.8013 L 0.0489197,52.6858 L 0.152756,52.5366 L 0.226929,52.353
 L 0.271439,52.135 L 0.28627,51.8826 L 0.272385,51.628 L 0.230728,51.4091 L 0.161301,51.226 L 0.0641022,51.0785
 L -0.0625305,50.9651 L -0.220245,50.8841 L -0.409042,50.8355 L -0.628937,50.8194 L -1.03183,50.8858 L -1.3196,51.0852
 L -1.49226,51.4174 L -1.54982,51.8826 L -1.53546,52.1266 L -1.49239,52.34 L -1.42059,52.5229 L -1.32008,52.6753
 L -1.19144,52.7954 L -1.03526,52.8811 L -0.851562,52.9326 L -0.640335,52.9497 z
M -0.776154,52.6844 L -0.889313,52.6461 L -0.983597,52.5824 L -1.05901,52.4931 L -1.11674,52.3784 L -1.15799,52.2384
 L -1.18272,52.0732 L -1.19098,51.8826 L -1.18262,51.6876 L -1.15752,51.5202 L -1.11568,51.3805 L -1.05711,51.2684
 L -0.979797,51.1824 L -0.881714,51.121 L -0.762863,51.0842 L -0.623245,51.0719 L -0.48494,51.0839 L -0.368103,51.1201
 L -0.272751,51.1803 L -0.198883,51.2646 L -0.143631,51.3755 L -0.104172,51.5155 L -0.0804901,51.6845 L -0.0726013,51.8826
 L -0.0808563,52.0786 L -0.105591,52.2467 L -0.146835,52.3871 L -0.204559,52.4997 L -0.281525,52.5861 L -0.380447,52.6478
 L -0.501312,52.6848 L -0.644135,52.6972 z
M 6.01797,52.9193 L 6.25662,52.8282 L 6.43665,52.6763 L 6.55804,52.4636 L 6.25806,52.3782 L 6.22891,52.4436
 L 6.18896,52.503 L 6.13823,52.5566 L 6.07671,52.6042 L 6.00426,52.6432 L 5.92078,52.6711 L 5.82626,52.6878
 L 5.7207,52.6934 L 5.58861,52.6814 L 5.47337,52.6455 L 5.37498,52.5855 L 5.29346,52.5016 L 5.22949,52.3956
 L 5.18381,52.2695 L 5.1564,52.1232 L 5.14726,51.9567 L 6.61313,51.9567 L 6.61313,51.9111 L 6.55652,51.4335
 L 6.38669,51.0923 L 6.10365,50.8876 L 5.70741,50.8194 L 5.49896,50.8363 L 5.31602,50.8872 L 5.15862,50.9721
 L 5.0267,51.0909 L 4.92245,51.2415 L 4.84799,51.4217 L 4.80331,51.6317 L 4.78842,51.8712 L 4.80331,52.1225
 L 4.84799,52.3407 L 4.92245,52.5259 L 5.0267,52.6782 L 5.15944,52.797 L 5.31935,52.8818 L 5.50644,52.9327
 L 5.7207,52.9497 z
M 5.15108,51.6947 L 5.16513,51.5572 L 5.19594,51.4352 L 5.24345,51.3289 L 5.30771,51.238 L 5.38681,51.1653
 L 5.47884,51.1134 L 5.58382,51.0823 L 5.70172,51.0719 L 5.8224,51.0812 L 5.92813,51.1091 L 6.01891,51.1557
 L 6.09473,51.2209 L 6.15633,51.3064 L 6.20439,51.4139 L 6.23892,51.5433 L 6.25993,51.6947 z
M -7.81375,52.9332 L -7.62802,52.8837 L -7.46913,52.8013 L -7.33704,52.6858 L -7.2332,52.5366 L -7.15903,52.353
 L -7.11452,52.135 L -7.09969,51.8826 L -7.11357,51.628 L -7.15523,51.4091 L -7.22466,51.226 L -7.32187,51.0785
 L -7.44849,50.9651 L -7.6062,50.8841 L -7.795,50.8355 L -8.01489,50.8194 L -8.41779,50.8858 L -8.70557,51.0852
 L -8.87822,51.4174 L -8.93578,51.8826 L -8.92142,52.1266 L -8.87834,52.34 L -8.80655,52.5229 L -8.70604,52.6753
 L -8.57739,52.7954 L -8.42122,52.8811 L -8.23752,52.9326 L -8.02629,52.9497 z
M -8.16211,52.6844 L -8.27527,52.6461 L -8.36955,52.5824 L -8.44498,52.4931 L -8.5027,52.3784 L -8.54395,52.2384
 L -8.56868,52.0732 L -8.57693,51.8826 L -8.56857,51.6876 L -8.54347,51.5202 L -8.50163,51.3805 L -8.44307,51.2684
 L -8.36575,51.1824 L -8.26767,51.121 L -8.14882,51.0842 L -8.0092,51.0719 L -7.8709,51.0839 L -7.75406,51.1201
 L -7.65871,51.1803 L -7.58484,51.2646 L -7.52959,51.3755 L -7.49013,51.5155 L -7.46645,51.6845 L -7.45856,51.8826
 L -7.46681,52.0786 L -7.49155,52.2467 L -7.53279,52.3871 L -7.59052,52.4997 L -7.66748,52.5861 L -7.7664,52.6478
 L -7.88727,52.6848 L -8.03009,52.6972 z
M 7.34674,51.8409 L 7.35374,51.6799 L 7.37474,51.5387 L 7.40976,51.4174 L 7.45877,51.3159 L 7.52107,51.2357
 L 7.59595,51.1785 L 7.68341,51.1441 L 7.78346,51.1326 L 7.83755,51.1338 L 7.88597,51.1374 L 7.9287,51.1433
 L 7.96573,51.1516 L 7.96573,50.8383 L 7.93071,50.83 L 7.89594,50.8241 L 7.8614,50.8205 L 7.8271,50.8194
 L 7.73573,50.8254 L 7.65526,50.8436 L 7.58572,50.8738 L 7.52708,50.9162 L 7.47548,50.975 L 7.42694,51.0548
 L 7.38148,51.1554 L 7.33913,51.2769 L 7.33154,51.2769 L 7.33058,51.2243 L 7.32774,51.1369 L 7.323,51.0145
 L 7.31636,50.8573 L 6.99358,50.8573 L 6.99855,50.9855 L 7.00211,51.108 L 7.00423,51.2247 L 7.00494,51.3358
 L 7.00494,52.9117 L 7.34674,52.9117 z
M -11.6531,51.7213 L -11.6452,51.5779 L -11.6213,51.4516 L -11.5816,51.3425 L -11.5259,51.2504 L -11.4566,51.1773
 L -11.3759,51.125 L -11.2838,51.0937 L -11.1804,51.0833 L -11.0822,51.0904 L -11.0004,51.1118 L -10.9351,51.1474
 L -10.886,51.1972 L -10.8503,51.2657 L -10.8248,51.3572 L -10.8095,51.4717 L -10.8044,51.6092 L -10.8044,52.9117
 L -10.4664,52.9117 L -10.4664,51.7213 L -10.4586,51.5771 L -10.4353,51.4504 L -10.3965,51.3412 L -10.3421,51.2494
 L -10.2737,51.1767 L -10.1928,51.1248 L -10.0994,51.0937 L -9.99364,51.0833 L -9.89549,51.0904 L -9.81372,51.1118
 L -9.74834,51.1474 L -9.69933,51.1972 L -9.6636,51.2657 L -9.63809,51.3572 L -9.62277,51.4717 L -9.61768,51.6092
 L -9.61768,52.9117 L -9.27972,52.9117 L -9.27972,51.5428 L -9.28856,51.3636 L -9.31508,51.2114 L -9.35928,51.0863
 L -9.42117,50.9883 L -9.50252,50.9144 L -9.60512,50.8616 L -9.72894,50.8299 L -9.87402,50.8194 L -9.97733,50.825
 L -10.0727,50.8421 L -10.1601,50.8706 L -10.2395,50.9105 L -10.3122,50.9633 L -10.3793,51.0306 L -10.4408,51.1123
 L -10.4968,51.2086 L -10.5025,51.2086 L -10.5343,51.1139 L -10.5763,51.0329 L -10.6287,50.9658 L -10.6915,50.9124
 L -10.7654,50.8717 L -10.8516,50.8426 L -10.9501,50.8252 L -11.0607,50.8194 L -11.1593,50.8247 L -11.2501,50.8407
 L -11.3331,50.8674 L -11.4082,50.9048 L -11.4774,50.9558 L -11.5425,51.0235 L -11.6036,51.1077 L -11.6607,51.2086
 L -11.6664,51.2086 L -11.6683,51.1396 L -11.67,51.0826 L -11.6716,51.0375 L -11.6731,51.0045 L -11.6757,50.9534
 L -11.6768,50.9302 L -11.6778,50.9086 L -11.6788,50.8897 L -11.6797,50.8749 L -11.6807,50.8641 L -11.6816,50.8573
 L -12.0044,50.8573 L -11.9994,50.9146 L -11.9959,51.0068 L -11.9937,51.1339 L -11.993,51.2959 L -11.993,52.9117
 L -11.6531,52.9117 z
M -29.1056,52.9193 L -28.8669,52.8282 L -28.6869,52.6763 L -28.5655,52.4636 L -28.8655,52.3782 L -28.8946,52.4436
 L -28.9346,52.503 L -28.9853,52.5566 L -29.0468,52.6042 L -29.1193,52.6432 L -29.2028,52.6711 L -29.2973,52.6878
 L -29.4028,52.6934 L -29.5349,52.6814 L -29.6502,52.6455 L -29.7486,52.5855 L -29.8301,52.5016 L -29.894,52.3956
 L -29.9397,52.2695 L -29.9671,52.1232 L -29.9763,51.9567 L -28.5104,51.9567 L -28.5104,51.9111 L -28.567,51.4335
 L -28.7368,51.0923 L -29.0199,50.8876 L -29.4161,50.8194 L -29.6246,50.8363 L -29.8075,50.8872 L -29.9649,50.9721
 L -30.0968,51.0909 L -30.2011,51.2415 L -30.2755,51.4217 L -30.3202,51.6317 L -30.3351,51.8712 L -30.3202,52.1225
 L -30.2755,52.3407 L -30.2011,52.5259 L -30.0968,52.6782 L -29.9641,52.797 L -29.8042,52.8818 L -29.6171,52.9327
 L -29.4028,52.9497 z
M -29.9725,51.6947 L -29.9584,51.5572 L -29.9276,51.4352 L -29.8801,51.3289 L -29.8158,51.238 L -29.7367,51.1653
 L -29.6447,51.1134 L -29.5397,51.0823 L -29.4218,51.0719 L -29.3011,51.0812 L -29.1954,51.1091 L -29.1046,51.1557
 L -29.0288,51.2209 L -28.9672,51.3064 L -28.9191,51.4139 L -28.8846,51.5433 L -28.8636,51.6947 z
M -12.98,52.9193 L -12.7413,52.8282 L -12.5613,52.6763 L -12.4399,52.4636 L -12.7399,52.3782 L -12.7691,52.4436
 L -12.809,52.503 L -12.8597,52.5566 L -12.9213,52.6042 L -12.9937,52.6432 L -13.0772,52.6711 L -13.1717,52.6878
 L -13.2773,52.6934 L -13.4094,52.6814 L -13.5246,52.6455 L -13.623,52.5855 L -13.7045,52.5016 L -13.7685,52.3956
 L -13.8142,52.2695 L -13.8416,52.1232 L -13.8507,51.9567 L -12.3849,51.9567 L -12.3849,51.9111 L -12.4415,51.4335
 L -12.6113,51.0923 L -12.8943,50.8876 L -13.2906,50.8194 L -13.499,50.8363 L -13.6819,50.8872 L -13.8394,50.9721
 L -13.9713,51.0909 L -14.0755,51.2415 L -14.15,51.4217 L -14.1947,51.6317 L -14.2095,51.8712 L -14.1947,52.1225
 L -14.15,52.3407 L -14.0755,52.5259 L -13.9713,52.6782 L -13.8385,52.797 L -13.6786,52.8818 L -13.4915,52.9327
 L -13.2773,52.9497 z
M -13.8469,51.6947 L -13.8328,51.5572 L -13.802,51.4352 L -13.7545,51.3289 L -13.6903,51.238 L -13.6112,51.1653
 L -13.5191,51.1134 L -13.4142,51.0823 L -13.2962,51.0719 L -13.1756,51.0812 L -13.0698,51.1091 L -12.9791,51.1557
 L -12.9032,51.2209 L -12.8416,51.3064 L -12.7936,51.4139 L -12.759,51.5433 L -12.738,51.6947 z
M -34.936,51.3909 L -34.9352,51.1878 L -34.9327,51.0268 L -34.9285,50.9077 L -34.9227,50.8307 L -35.2512,50.8307
 L -35.255,50.8436 L -35.2588,50.8727 L -35.2626,50.9181 L -35.2664,50.9798 L -35.2697,51.0444 L -35.2721,51.0987
 L -35.2735,51.1427 L -35.274,51.1763 L -35.2778,51.1763 L -35.3321,51.0872 L -35.3927,51.0118 L -35.4594,50.9501
 L -35.5322,50.9019 L -35.6133,50.8658 L -35.7045,50.84 L -35.806,50.8245 L -35.9177,50.8194 L -36.2483,50.8865
 L -36.4844,51.088 L -36.6261,51.4238 L -36.6734,51.894 L -36.662,52.1414 L -36.6278,52.3559 L -36.5708,52.5373
 L -36.4911,52.6858 L -36.3869,52.8013 L -36.2566,52.8837 L -36.1002,52.9332 L -35.9177,52.9497 L -35.8028,52.9443
 L -35.6993,52.9281 L -35.6072,52.9011 L -35.5265,52.8633 L -35.4545,52.8128 L -35.3884,52.7477 L -35.3282,52.668
 L -35.274,52.5738 L -35.2702,52.5738 L -35.2778,52.8852 L -35.2778,53.7187 L -34.936,53.7187 z
M -35.9488,52.6741 L -36.0499,52.6393 L -36.1335,52.5811 L -36.1996,52.4997 L -36.2499,52.3914 L -36.2858,52.2524
 L -36.3073,52.0828 L -36.3145,51.8826 L -36.3074,51.6853 L -36.286,51.5166 L -36.2504,51.3767 L -36.2006,51.2655
 L -36.1345,51.1808 L -36.0501,51.1203 L -35.9474,51.084 L -35.8265,51.0719 L -35.6929,51.084 L -35.5787,51.1203
 L -35.484,51.1808 L -35.4088,51.2655 L -35.3515,51.3753 L -35.3105,51.511 L -35.286,51.6725 L -35.2778,51.8598
 L -35.286,52.053 L -35.3105,52.2206 L -35.3515,52.3625 L -35.4088,52.4788 L -35.4843,52.5694 L -35.5797,52.634
 L -35.695,52.6729 L -35.8303,52.6858 z
M -31.2177,52.9193 L -30.979,52.8282 L -30.799,52.6763 L -30.6776,52.4636 L -30.9776,52.3782 L -31.0067,52.4436
 L -31.0467,52.503 L -31.0974,52.5566 L -31.159,52.6042 L -31.2314,52.6432 L -31.3149,52.6711 L -31.4094,52.6878
 L -31.5149,52.6934 L -31.647,52.6814 L -31.7623,52.6455 L -31.8607,52.5855 L -31.9422,52.5016 L -32.0061,52.3956
 L -32.0518,52.2695 L -32.0793,52.1232 L -32.0884,51.9567 L -30.6225,51.9567 L -30.6225,51.9111 L -30.6791,51.4335
 L -30.849,51.0923 L -31.132,50.8876 L -31.5282,50.8194 L -31.7367,50.8363 L -31.9196,50.8872 L -32.077,50.9721
 L -32.209,51.0909 L -32.3132,51.2415 L -32.3877,51.4217 L -32.4323,51.6317 L -32.4472,51.8712 L -32.4323,52.1225
 L -32.3877,52.3407 L -32.3132,52.5259 L -32.209,52.6782 L -32.0762,52.797 L -31.9163,52.8818 L -31.7292,52.9327
 L -31.5149,52.9497 z
M -32.0846,51.6947 L -32.0705,51.5572 L -32.0397,51.4352 L -31.9922,51.3289 L -31.9279,51.238 L -31.8488,51.1653
 L -31.7568,51.1134 L -31.6518,51.0823 L -31.5339,51.0719 L -31.4133,51.0812 L -31.3075,51.1091 L -31.2168,51.1557
 L -31.1409,51.2209 L -31.0793,51.3064 L -31.0313,51.4139 L -30.9967,51.5433 L -30.9757,51.6947 z
M -27.7768,51.7213 L -27.7679,51.5794 L -27.7412,51.454 L -27.6967,51.3449 L -27.6344,51.2523 L -27.5567,51.1783
 L -27.4659,51.1255 L -27.362,51.0938 L -27.2452,51.0833 L -27.1658,51.0864 L -27.0966,51.0956 L -27.0376,51.111
 L -26.9888,51.1326 L -26.9481,51.1612 L -26.9134,51.1977 L -26.8845,51.2419 L -26.8616,51.294 L -26.8442,51.3557
 L -26.8317,51.4288 L -26.8242,51.5133 L -26.8217,51.6092 L -26.8217,52.9117 L -26.4781,52.9117 L -26.4781,51.5428
 L -26.4879,51.3628 L -26.5172,51.2102 L -26.5662,51.0851 L -26.6347,50.9874 L -26.7244,50.9139 L -26.8367,50.8614
 L -26.9717,50.8298 L -27.1293,50.8194 L -27.2395,50.8249 L -27.3403,50.8414 L -27.4318,50.869 L -27.5139,50.9076
 L -27.5889,50.9595 L -27.6593,51.027 L -27.7251,51.11 L -27.7863,51.2086 L -27.792,51.2086 L -27.7938,51.1396
 L -27.7955,51.0826 L -27.7971,51.0375 L -27.7986,51.0045 L -27.8013,50.9534 L -27.8034,50.9086 L -27.8044,50.8897
 L -27.8053,50.8749 L -27.8062,50.8641 L -27.8072,50.8573 L -28.13,50.8573 L -28.125,50.9146 L -28.1214,51.0068
 L -28.1193,51.1339 L -28.1186,51.2959 L -28.1186,52.9117 L -27.7768,52.9117 z
M 3.1149,52.9156 L 3.11443,52.78 L 3.11301,52.681 L 3.11063,52.6186 L 3.10732,52.5927 L 3.11681,52.5927
 L 3.21791,52.7489 L 3.35794,52.8605 L 3.5369,52.9274 L 3.75478,52.9497 L 4.0854,52.8825 L 4.32156,52.681
 L 4.46327,52.3452 L 4.5105,51.875 L 4.49875,51.6207 L 4.4635,51.4027 L 4.40475,51.221 L 4.32251,51.0757
 L 4.21654,50.9643 L 4.08659,50.8848 L 3.93268,50.8371 L 3.75478,50.8212 L 3.63824,50.8267 L 3.53357,50.8433
 L 3.44078,50.8709 L 3.35985,50.9095 L 3.28853,50.96 L 3.22456,51.0232 L 3.16795,51.0991 L 3.1187,51.1877
 L 3.11111,51.1877 L 3.11082,51.1659 L 3.10992,51.1364 L 3.10844,51.0994 L 3.10635,51.0548 L 3.10405,51.0095
 L 3.10185,50.9705 L 3.09978,50.9378 L 3.09782,50.9114 L 3.09604,50.8906 L 3.0945,50.8746 L 3.09319,50.8635
 L 3.09213,50.8573 L 2.76173,50.8573 L 2.76672,50.922 L 2.77028,51.0135 L 2.77242,51.1318 L 2.77313,51.2769
 L 2.77313,53.7187 L 3.1149,53.7187 z
M 3.52847,52.6852 L 3.41348,52.6492 L 3.31866,52.5893 L 3.244,52.5054 L 3.18752,52.3962 L 3.14717,52.2605
 L 3.12297,52.0981 L 3.1149,51.9092 L 3.11864,51.7708 L 3.12985,51.646 L 3.14854,51.5349 L 3.1747,51.4374
 L 3.20807,51.3527 L 3.24829,51.28 L 3.29541,51.2193 L 3.3494,51.1706 L 3.41235,51.1332 L 3.48636,51.1065
 L 3.57138,51.0905 L 3.66745,51.0851 L 3.78517,51.0967 L 3.8858,51.1312 L 3.96935,51.1888 L 4.03578,51.2693
 L 4.08647,51.3767 L 4.12267,51.5148 L 4.14438,51.6834 L 4.15163,51.8826 L 4.14433,52.087 L 4.12242,52.2598
 L 4.08594,52.4008 L 4.03484,52.5102 L 3.96785,52.592 L 3.88365,52.6504 L 3.78226,52.6855 L 3.66364,52.6972
 z
M 1.00278,52.9156 L 1.0023,52.78 L 1.00089,52.681 L 0.99852,52.6186 L 0.995193,52.5927 L 1.00468,52.5927
 L 1.1058,52.7489 L 1.24583,52.8605 L 1.42479,52.9274 L 1.64267,52.9497 L 1.9733,52.8825 L 2.20946,52.681
 L 2.35115,52.3452 L 2.39839,51.875 L 2.38664,51.6207 L 2.35139,51.4027 L 2.29265,51.221 L 2.2104,51.0757
 L 2.10443,50.9643 L 1.97449,50.8848 L 1.82056,50.8371 L 1.64267,50.8212 L 1.52612,50.8267 L 1.42146,50.8433
 L 1.32866,50.8709 L 1.24773,50.9095 L 1.17641,50.96 L 1.11244,51.0232 L 1.05585,51.0991 L 1.00659,51.1877
 L 0.999008,51.1877 L 0.998703,51.1659 L 0.997818,51.1364 L 0.996323,51.0994 L 0.994247,51.0548 L 0.991943,51.0095
 L 0.989746,50.9705 L 0.987671,50.9378 L 0.985703,50.9114 L 0.983917,50.8906 L 0.982376,50.8746 L 0.981079,50.8635
 L 0.980026,50.8573 L 0.649612,50.8573 L 0.654602,50.922 L 0.658173,51.0135 L 0.660309,51.1318 L 0.661011,51.2769
 L 0.661011,53.7187 L 1.00278,53.7187 z
M 1.41637,52.6852 L 1.30138,52.6492 L 1.20654,52.5893 L 1.1319,52.5054 L 1.07541,52.3962 L 1.03506,52.2605
 L 1.01085,52.0981 L 1.00278,51.9092 L 1.00652,51.7708 L 1.01773,51.646 L 1.03642,51.5349 L 1.06259,51.4374
 L 1.09595,51.3527 L 1.13618,51.28 L 1.18329,51.2193 L 1.23729,51.1706 L 1.30025,51.1332 L 1.37424,51.1065
 L 1.45927,51.0905 L 1.55534,51.0851 L 1.67305,51.0967 L 1.77368,51.1312 L 1.85722,51.1888 L 1.92368,51.2693
 L 1.97435,51.3767 L 2.01056,51.5148 L 2.03227,51.6834 L 2.03951,51.8826 L 2.03221,52.087 L 2.01031,52.2598
 L 1.97382,52.4008 L 1.92273,52.5102 L 1.85574,52.592 L 1.77155,52.6504 L 1.67014,52.6855 L 1.55153,52.6972
 z
M -33.7106,52.9442 L -33.6097,52.9276 L -33.5183,52.9001 L -33.4362,52.8614 L -33.3612,52.8095 L -33.2907,52.7421
 L -33.2249,52.659 L -33.1638,52.5605 L -33.1581,52.5605 L -33.1562,52.6295 L -33.1545,52.6865 L -33.1529,52.7316
 L -33.1514,52.7646 L -33.1488,52.8156 L -33.1477,52.8388 L -33.1467,52.8605 L -33.1457,52.8793 L -33.1448,52.8942
 L -33.1438,52.905 L -33.1429,52.9117 L -32.8201,52.9117 L -32.8251,52.8544 L -32.8286,52.7622 L -32.8308,52.6351
 L -32.8315,52.4731 L -32.8315,50.8573 L -33.1733,50.8573 L -33.1733,52.0478 L -33.1822,52.1896 L -33.2089,52.3151
 L -33.2534,52.4241 L -33.3157,52.5168 L -33.3934,52.5907 L -33.4842,52.6435 L -33.588,52.6752 L -33.7049,52.6858
 L -33.7843,52.6827 L -33.8535,52.6734 L -33.9125,52.658 L -33.9613,52.6364 L -34.002,52.6078 L -34.0367,52.5714
 L -34.0656,52.5271 L -34.0885,52.475 L -34.1059,52.4133 L -34.1184,52.3402 L -34.1259,52.2557 L -34.1283,52.1598
 L -34.1283,50.8573 L -34.472,50.8573 L -34.472,52.2263 L -34.4622,52.4063 L -34.4329,52.5588 L -34.3839,52.6839
 L -34.3154,52.7817 L -34.2257,52.8552 L -34.1134,52.9077 L -33.9784,52.9392 L -33.8207,52.9497 z
M -5.27733,53.7138 L -5.19942,53.699 L -5.1259,53.6744 L -5.05678,53.6399 L -4.99133,53.5954 L -4.92885,53.5407
 L -4.86934,53.4758 L -4.81279,53.4007 L -4.75667,53.31 L -4.69839,53.1982 L -4.63799,53.0655 L -4.57544,52.9117
 L -3.78555,50.8573 L -4.14633,50.8573 L -4.59633,52.1655 L -4.72925,52.5396 L -4.73624,52.5156 L -4.75154,52.4684
 L -4.77516,52.3979 L -4.80708,52.3041 L -4.83948,52.2096 L -4.86452,52.1368 L -4.8822,52.0857 L -4.89253,52.0564
 L -4.91533,51.9928 L -5.34824,50.8573 L -5.7128,50.8573 L -4.89822,52.9023 L -4.93051,52.9839 L -5.03186,53.1891
 L -5.14981,53.3356 L -5.28439,53.4236 L -5.43556,53.4529 L -5.4783,53.4522 L -5.51913,53.45 L -5.55806,53.4465
 L -5.59509,53.4415 L -5.59509,53.6978 L -5.54477,53.707 L -5.48875,53.7135 L -5.42703,53.7174 L -5.35963,53.7187
 z
M -38.8223,52.0687 L -38.2698,52.9117 L -37.8881,52.9117 L -38.6287,51.8523 L -37.9318,50.8573 L -38.3135,50.8573
 L -38.8223,51.6567 L -39.335,50.8573 L -39.7128,50.8573 L -39.016,51.856 L -39.747,52.9117 L -39.3787,52.9117
 z
M -22.3835,52.4959 L -22.7538,52.4959 L -22.7538,52.9117 L -22.3835,52.9117 z
M 15.4796,92.4263 L 15.1867,92.4263 L 15.1867,94.8415 L 15.4796,94.8415 z
M 63.0203,92.4263 L 62.7273,92.4263 L 62.7273,92.7062 L 63.0203,92.7062 z
M 16.2028,92.4263 L 15.9099,92.4263 L 15.9099,94.8415 L 16.2028,94.8415 z
M 21.3771,94.8165 L 21.5795,94.6437 L 21.701,94.3559 L 21.7415,93.9529 L 21.7316,93.7395 L 21.7022,93.555
 L 21.6531,93.3993 L 21.5844,93.2726 L 21.4948,93.1743 L 21.3832,93.1042 L 21.2495,93.062 L 21.0937,93.048
 L 20.9984,93.0526 L 20.9112,93.0663 L 20.832,93.0892 L 20.7609,93.1213 L 20.697,93.1639 L 20.6398,93.2185
 L 20.5892,93.2851 L 20.5452,93.3637 L 20.5387,93.3637 L 20.5416,93.2945 L 20.5436,93.2299 L 20.5448,93.17
 L 20.5452,93.1147 L 20.5452,92.4263 L 20.2523,92.4263 L 20.2523,94.4786 L 20.2517,94.6044 L 20.2498,94.7068
 L 20.2468,94.7859 L 20.2425,94.8415 L 20.5257,94.8415 L 20.5275,94.8279 L 20.5298,94.8035 L 20.5324,94.7681
 L 20.5354,94.7219 L 20.5383,94.6735 L 20.5403,94.6317 L 20.5416,94.5966 L 20.542,94.5681 L 20.5452,94.5681
 L 20.5898,94.6431 L 20.6406,94.707 L 20.6976,94.7599 L 20.7609,94.8016 L 20.8314,94.8333 L 20.9104,94.8559
 L 20.9978,94.8695 L 21.0937,94.874 z
M 20.8997,94.6473 L 20.8011,94.6163 L 20.7199,94.5647 L 20.6559,94.4924 L 20.6075,94.3985 L 20.5729,94.2818
 L 20.5521,94.1425 L 20.5452,93.9806 L 20.5523,93.8091 L 20.5735,93.6624 L 20.6088,93.5405 L 20.6583,93.4435
 L 20.7233,93.3694 L 20.805,93.3166 L 20.9035,93.2848 L 21.0188,93.2742 L 21.1211,93.2842 L 21.208,93.3141
 L 21.2797,93.364 L 21.3362,93.4337 L 21.3789,93.5266 L 21.4094,93.6457 L 21.4277,93.7911 L 21.4338,93.9626
 L 21.4277,94.1338 L 21.4092,94.2794 L 21.3784,94.3995 L 21.3354,94.494 L 21.2785,94.5656 L 21.2062,94.6167
 L 21.1186,94.6474 L 21.0156,94.6576 z
M 22.3556,92.4263 L 22.0627,92.4263 L 22.0627,94.8415 L 22.3556,94.8415 z
M 45.5845,94.8165 L 45.7869,94.6437 L 45.9084,94.3559 L 45.9489,93.9529 L 45.9391,93.7395 L 45.9096,93.555
 L 45.8605,93.3993 L 45.7918,93.2726 L 45.7023,93.1743 L 45.5906,93.1042 L 45.4569,93.062 L 45.3011,93.048
 L 45.2059,93.0526 L 45.1186,93.0663 L 45.0394,93.0892 L 44.9683,93.1213 L 44.9045,93.1639 L 44.8472,93.2185
 L 44.7966,93.2851 L 44.7527,93.3637 L 44.7461,93.3637 L 44.749,93.2945 L 44.751,93.2299 L 44.7522,93.17
 L 44.7527,93.1147 L 44.7527,92.4263 L 44.4597,92.4263 L 44.4597,94.4786 L 44.4591,94.6044 L 44.4573,94.7068
 L 44.4542,94.7859 L 44.4499,94.8415 L 44.7331,94.8415 L 44.735,94.8279 L 44.7372,94.8035 L 44.7398,94.7681
 L 44.7429,94.7219 L 44.7457,94.6735 L 44.7478,94.6317 L 44.749,94.5966 L 44.7494,94.5681 L 44.7527,94.5681
 L 44.7973,94.6431 L 44.8481,94.707 L 44.9051,94.7599 L 44.9683,94.8016 L 45.0388,94.8333 L 45.1178,94.8559
 L 45.2052,94.8695 L 45.3011,94.874 z
M 45.1071,94.6473 L 45.0086,94.6163 L 44.9273,94.5647 L 44.8633,94.4924 L 44.8149,94.3985 L 44.7803,94.2818
 L 44.7596,94.1425 L 44.7527,93.9806 L 44.7597,93.8091 L 44.7809,93.6624 L 44.8163,93.5405 L 44.8658,93.4435
 L 44.9307,93.3694 L 45.0124,93.3166 L 45.111,93.2848 L 45.2263,93.2742 L 45.3285,93.2842 L 45.4155,93.3141
 L 45.4872,93.364 L 45.5436,93.4337 L 45.5863,93.5266 L 45.6169,93.6457 L 45.6352,93.7911 L 45.6413,93.9626
 L 45.6351,94.1338 L 45.6167,94.2794 L 45.5859,94.3995 L 45.5428,94.494 L 45.4859,94.5656 L 45.4136,94.6167
 L 45.326,94.6474 L 45.223,94.6576 z
M 26.6996,94.2149 L 26.9144,94.0375 L 27.5101,94.8415 L 27.8535,94.8415 L 27.1016,93.8373 L 27.8161,93.0806
 L 27.4726,93.0806 L 26.6996,93.935 L 26.6996,92.4263 L 26.4066,92.4263 L 26.4066,94.8415 L 26.6996,94.8415
 z
M 56.8738,92.4263 L 56.5808,92.4263 L 56.5808,92.7062 L 56.8738,92.7062 z
M 48.4434,93.2937 L 48.7868,93.2937 L 48.7868,93.0806 L 48.4434,93.0806 L 48.4434,92.9227 L 48.4465,92.8536
 L 48.456,92.7961 L 48.4718,92.7503 L 48.4939,92.716 L 48.5229,92.6911 L 48.5598,92.6733 L 48.6043,92.6626
 L 48.6566,92.659 L 48.6861,92.6598 L 48.7176,92.6623 L 48.7512,92.6664 L 48.7868,92.6721 L 48.7868,92.4491
 L 48.7422,92.4406 L 48.6928,92.4344 L 48.6388,92.4308 L 48.5801,92.4296 L 48.4781,92.4362 L 48.3901,92.456
 L 48.3162,92.4891 L 48.2562,92.5354 L 48.21,92.5967 L 48.1769,92.6749 L 48.1571,92.77 L 48.1505,92.882
 L 48.1505,93.0806 L 47.9031,93.0806 L 47.9031,93.2937 L 48.1505,93.2937 L 48.1505,94.8415 L 48.4434,94.8415
 z
M 31.4724,94.8609 L 31.6176,94.8215 L 31.7442,94.756 L 31.852,94.6641 L 31.9382,94.5496 L 31.9997,94.4159
 L 32.0366,94.2631 L 32.0489,94.0912 L 32.0373,93.9321 L 32.0023,93.7901 L 31.9441,93.6652 L 31.8626,93.5574
 L 31.7612,93.4706 L 31.6435,93.4085 L 31.5094,93.3713 L 31.3589,93.3589 L 31.2679,93.3637 L 31.1823,93.3782
 L 31.1019,93.4023 L 31.0269,93.4362 L 30.9585,93.4792 L 30.8983,93.5312 L 30.8462,93.5919 L 30.8023,93.6616
 L 30.8109,93.4533 L 30.8367,93.2712 L 30.8796,93.1152 L 30.9398,92.9854 L 31.0156,92.8832 L 31.1056,92.8102
 L 31.2097,92.7664 L 31.3279,92.7518 L 31.4608,92.7693 L 31.568,92.8218 L 31.6496,92.9093 L 31.7055,93.0317
 L 31.9855,92.9813 L 31.8939,92.7769 L 31.7543,92.631 L 31.5668,92.5434 L 31.3312,92.5142 L 31.1456,92.5341
 L 30.9825,92.5939 L 30.842,92.6936 L 30.7242,92.8332 L 30.6309,93.01 L 30.5643,93.2213 L 30.5243,93.4673
 L 30.511,93.7478 L 30.5238,94.0065 L 30.5622,94.2324 L 30.6263,94.4256 L 30.716,94.586 L 30.8299,94.712
 L 30.9666,94.802 L 31.1261,94.856 L 31.3084,94.874 z
M 31.2007,94.6275 L 31.1121,94.5957 L 31.0327,94.5428 L 30.9626,94.4688 L 30.9053,94.3782 L 30.8643,94.2755
 L 30.8398,94.1609 L 30.8316,94.0343 L 30.8394,93.9349 L 30.8631,93.8469 L 30.9025,93.7702 L 30.9577,93.7047
 L 31.0257,93.6524 L 31.1036,93.615 L 31.1913,93.5926 L 31.2889,93.5851 L 31.3919,93.5935 L 31.483,93.6189
 L 31.562,93.6611 L 31.629,93.7202 L 31.6824,93.7948 L 31.7206,93.8837 L 31.7435,93.9869 L 31.7511,94.1042
 L 31.7436,94.2221 L 31.721,94.3266 L 31.6833,94.4178 L 31.6306,94.4957 L 31.5647,94.558 L 31.4874,94.6024
 L 31.3987,94.6292 L 31.2987,94.638 z
M 33.2605,94.8551 L 33.4221,94.7984 L 33.5596,94.7038 L 33.6729,94.5713 L 33.7616,94.403 L 33.8249,94.2007
 L 33.8629,93.9644 L 33.8756,93.6941 L 33.8635,93.4199 L 33.8274,93.1815 L 33.7671,92.9788 L 33.6827,92.812
 L 33.573,92.6817 L 33.4368,92.5886 L 33.274,92.5328 L 33.0846,92.5142 L 32.8903,92.5326 L 32.7239,92.5878
 L 32.5855,92.6799 L 32.4751,92.8088 L 32.3907,92.9746 L 32.3305,93.1774 L 32.2943,93.4172 L 32.2823,93.6941
 L 32.2947,93.9657 L 32.3319,94.2027 L 32.394,94.4051 L 32.4808,94.573 L 32.5924,94.7047 L 32.7286,94.7988
 L 32.8894,94.8552 L 33.0749,94.874 z
M 32.9567,94.6207 L 32.8529,94.5782 L 32.7667,94.5076 L 32.6981,94.4086 L 32.6458,94.2791 L 32.6084,94.1169
 L 32.586,93.9219 L 32.5785,93.6941 L 32.5858,93.4604 L 32.608,93.262 L 32.6448,93.0991 L 32.6965,92.9715
 L 32.765,92.8754 L 32.8525,92.8067 L 32.9591,92.7655 L 33.0846,92.7518 L 33.2072,92.7657 L 33.3111,92.8075
 L 33.3963,92.8772 L 33.463,92.9748 L 33.5132,93.1033 L 33.5491,93.2661 L 33.5706,93.463 L 33.5778,93.6941
 L 33.5702,93.9179 L 33.5477,94.1107 L 33.51,94.2727 L 33.4573,94.4037 L 33.3885,94.5048 L 33.3023,94.577
 L 33.1989,94.6204 L 33.0781,94.6348 z
M 41.4703,94.8629 L 41.6261,94.8297 L 41.76,94.7743 L 41.8718,94.6967 L 41.9601,94.5992 L 42.0232,94.4843
 L 42.0611,94.3518 L 42.0737,94.2019 L 42.066,94.0935 L 42.0431,93.9946 L 42.005,93.9051 L 41.9516,93.8251
 L 41.8845,93.757 L 41.8051,93.7033 L 41.7136,93.6639 L 41.6098,93.6388 L 41.6098,93.6323 L 41.6992,93.6068
 L 41.7787,93.5676 L 41.8481,93.5148 L 41.9077,93.4484 L 41.9554,93.372 L 41.9894,93.2893 L 42.0099,93.2003
 L 42.0167,93.105 L 42.0044,92.9761 L 41.9677,92.8612 L 41.9064,92.7604 L 41.8206,92.6737 L 41.7136,92.6039
 L 41.5889,92.5541 L 41.4463,92.5242 L 41.2859,92.5142 L 41.1292,92.5244 L 40.9891,92.5549 L 40.8659,92.6057
 L 40.7594,92.6769 L 40.6736,92.7645 L 40.6124,92.8645 L 40.5756,92.9769 L 40.5633,93.1017 L 40.5701,93.197
 L 40.5904,93.286 L 40.6242,93.3687 L 40.6716,93.4451 L 40.7306,93.5119 L 40.7995,93.5659 L 40.8783,93.6071
 L 40.967,93.6355 L 40.967,93.642 L 40.8714,93.6658 L 40.7847,93.7047 L 40.707,93.7586 L 40.6382,93.8276
 L 40.5819,93.9085 L 40.5418,93.9985 L 40.5177,94.0973 L 40.5096,94.2051 L 40.5226,94.3563 L 40.5615,94.4891
 L 40.6263,94.6037 L 40.7171,94.6999 L 40.8309,94.7761 L 40.9647,94.8305 L 41.1186,94.8632 L 41.2924,94.874
 z
M 41.1932,93.5184 L 41.1088,93.499 L 41.0358,93.4667 L 40.9743,93.4215 L 40.9255,93.364 L 40.8907,93.2948
 L 40.8698,93.2139 L 40.8628,93.1212 L 40.8696,93.0304 L 40.8899,92.9516 L 40.9237,92.8847 L 40.971,92.8299
 L 41.0313,92.7872 L 41.1039,92.7567 L 41.1888,92.7384 L 41.2859,92.7323 L 41.4725,92.7566 L 41.6058,92.8295
 L 41.6857,92.9511 L 41.7124,93.1212 L 41.7056,93.2205 L 41.6853,93.3049 L 41.6515,93.3747 L 41.6041,93.4297
 L 41.5439,93.4713 L 41.4713,93.5011 L 41.3864,93.5189 L 41.2892,93.5249 z
M 41.0842,94.6247 L 40.9332,94.5359 L 40.8425,94.3879 L 40.8123,94.1807 L 40.8202,94.0845 L 40.8437,93.9991
 L 40.8828,93.9246 L 40.9377,93.8609 L 41.0064,93.81 L 41.0874,93.7737 L 41.1806,93.7518 L 41.2859,93.7446
 L 41.3943,93.7513 L 41.4898,93.7716 L 41.5725,93.8055 L 41.6423,93.8528 L 41.6979,93.9135 L 41.7376,93.9873
 L 41.7614,94.0742 L 41.7693,94.1742 L 41.762,94.291 L 41.74,94.3909 L 41.7034,94.4737 L 41.6521,94.5396
 L 41.5859,94.5898 L 41.5044,94.6257 L 41.4077,94.6472 L 41.2957,94.6543 z
M 18.4186,94.8632 L 18.5734,94.8305 L 18.7066,94.7761 L 18.8183,94.6999 L 18.9066,94.6039 L 18.9697,94.4899
 L 19.0075,94.3581 L 19.0201,94.2084 L 19.0112,94.1032 L 18.9843,94.0074 L 18.9396,93.9209 L 18.8769,93.8439
 L 18.7982,93.7787 L 18.7052,93.7283 L 18.598,93.6925 L 18.4766,93.6713 L 18.4766,93.6648 L 18.5868,93.6349
 L 18.683,93.5938 L 18.7654,93.5417 L 18.8338,93.4785 L 18.8876,93.4046 L 18.926,93.3204 L 18.949,93.226
 L 18.9567,93.1212 L 18.9447,92.9859 L 18.9089,92.8663 L 18.8491,92.7625 L 18.7654,92.6745 L 18.6602,92.6044
 L 18.5358,92.5543 L 18.3921,92.5242 L 18.2292,92.5142 L 18.0785,92.524 L 17.9421,92.5536 L 17.8201,92.603
 L 17.7124,92.6721 L 17.6225,92.7587 L 17.5536,92.8608 L 17.5057,92.9784 L 17.4789,93.1115 L 17.7735,93.1343
 L 17.7895,93.049 L 17.818,92.974 L 17.8591,92.9091 L 17.9126,92.8543 L 17.9771,92.8109 L 18.0508,92.7799
 L 18.1337,92.7612 L 18.2259,92.7551 L 18.326,92.7617 L 18.4129,92.7817 L 18.4867,92.815 L 18.5473,92.8616
 L 18.5947,92.9198 L 18.6285,92.9876 L 18.6488,93.065 L 18.6556,93.1522 L 18.6473,93.2399 L 18.6224,93.3176
 L 18.581,93.3851 L 18.5229,93.4427 L 18.4498,93.4886 L 18.3632,93.5214 L 18.2631,93.5411 L 18.1494,93.5476
 L 17.9899,93.5476 L 17.9899,93.8015 L 18.1559,93.8015 L 18.2839,93.8081 L 18.3958,93.8278 L 18.4918,93.8606
 L 18.5718,93.9065 L 18.6348,93.9641 L 18.6798,94.032 L 18.7068,94.1102 L 18.7158,94.1986 L 18.7079,94.2994
 L 18.6842,94.387 L 18.6448,94.4614 L 18.5896,94.5225 L 18.5206,94.5702 L 18.4397,94.6043 L 18.3469,94.6247
 L 18.2422,94.6315 L 18.0456,94.6061 L 17.8968,94.5298 L 17.7958,94.4027 L 17.7426,94.2247 L 17.4398,94.2523
 L 17.4699,94.3967 L 17.521,94.5223 L 17.5932,94.629 L 17.6864,94.717 L 17.799,94.7857 L 17.9291,94.8348
 L 18.0769,94.8642 L 18.2422,94.874 z
M 34.4035,92.5484 L 34.104,92.5484 L 34.1382,93.2693 L 34.3677,93.2693 z
M 35.004,92.5484 L 34.7046,92.5484 L 34.7372,93.2693 L 34.9682,93.2693 z
M 42.6162,92.5484 L 42.3168,92.5484 L 42.3509,93.2693 L 42.5804,93.2693 z
M 43.2168,92.5484 L 42.9173,92.5484 L 42.9499,93.2693 L 43.181,93.2693 z
M 39.4589,94.6841 L 39.4725,94.5294 L 39.4952,94.3774 L 39.5269,94.2279 L 39.5676,94.0793 L 39.6174,93.9297
 L 39.6762,93.7791 L 39.7441,93.6274 L 39.8295,93.4607 L 39.9406,93.2649 L 40.0776,93.04 L 40.2405,92.786
 L 40.2405,92.5484 L 38.7253,92.5484 L 38.7253,92.7973 L 39.9573,92.7973 L 39.7549,93.1047 L 39.5836,93.3936
 L 39.4436,93.6642 L 39.3348,93.9163 L 39.2533,94.1563 L 39.1951,94.3905 L 39.1601,94.6189 L 39.1485,94.8415
 L 39.4544,94.8415 z
M 55.0502,94.8651 L 55.1246,94.8578 L 55.1983,94.8456 L 55.2711,94.8285 L 55.2711,94.612 L 55.219,94.622
 L 55.1734,94.6291 L 55.1344,94.6334 L 55.1019,94.6348 L 55.0544,94.6316 L 55.0146,94.622 L 54.9824,94.606
 L 54.9578,94.5835 L 54.9397,94.5532 L 54.9267,94.5134 L 54.9189,94.4641 L 54.9163,94.4053 L 54.9163,93.2937
 L 55.2418,93.2937 L 55.2418,93.0806 L 54.9163,93.0806 L 54.9163,92.6867 L 54.721,92.6867 L 54.6347,93.0806
 L 54.4199,93.0806 L 54.4199,93.2937 L 54.6234,93.2937 L 54.6234,94.4688 L 54.6453,94.6432 L 54.7112,94.7679
 L 54.8211,94.8426 L 54.9749,94.8675 z
M 47.241,94.848 L 47.4456,94.7699 L 47.5999,94.6397 L 47.7039,94.4574 L 47.4468,94.3842 L 47.4218,94.4402
 L 47.3876,94.4912 L 47.3441,94.537 L 47.2913,94.5779 L 47.2292,94.6113 L 47.1577,94.6352 L 47.0767,94.6496
 L 46.9862,94.6543 L 46.873,94.6441 L 46.7742,94.6133 L 46.6899,94.5619 L 46.62,94.49 L 46.5652,94.3991
 L 46.526,94.291 L 46.5025,94.1656 L 46.4947,94.0229 L 47.7511,94.0229 L 47.7511,93.9838 L 47.7026,93.5744
 L 47.5571,93.282 L 47.3144,93.1065 L 46.9748,93.048 L 46.7961,93.0626 L 46.6393,93.1062 L 46.5044,93.1789
 L 46.3913,93.2807 L 46.302,93.4098 L 46.2382,93.5643 L 46.1999,93.7443 L 46.1871,93.9496 L 46.1999,94.165
 L 46.2382,94.352 L 46.302,94.5108 L 46.3913,94.6413 L 46.5051,94.7431 L 46.6422,94.8159 L 46.8026,94.8595
 L 46.9862,94.874 z
M 46.4979,93.7983 L 46.51,93.6804 L 46.5364,93.5759 L 46.5771,93.4847 L 46.6322,93.4069 L 46.7,93.3446
 L 46.7789,93.3001 L 46.8689,93.2734 L 46.9699,93.2645 L 47.0734,93.2724 L 47.164,93.2964 L 47.2418,93.3363
 L 47.3068,93.3922 L 47.3596,93.4655 L 47.4008,93.5576 L 47.4304,93.6685 L 47.4484,93.7983 z
M 49.862,94.8599 L 50.0212,94.8175 L 50.1574,94.7468 L 50.2706,94.6478 L 50.3596,94.52 L 50.4232,94.3626
 L 50.4613,94.1758 L 50.4741,93.9594 L 50.4622,93.7412 L 50.4264,93.5535 L 50.3669,93.3965 L 50.2836,93.2702
 L 50.1751,93.173 L 50.0399,93.1035 L 49.8781,93.0619 L 49.6896,93.048 L 49.3443,93.105 L 49.0976,93.2759
 L 48.9496,93.5607 L 48.9003,93.9594 L 48.9126,94.1685 L 48.9495,94.3514 L 49.011,94.5082 L 49.0972,94.6389
 L 49.2074,94.7417 L 49.3413,94.8152 L 49.4988,94.8593 L 49.6798,94.874 z
M 49.5634,94.6467 L 49.4664,94.6138 L 49.3856,94.5592 L 49.321,94.4826 L 49.2715,94.3843 L 49.2361,94.2643
 L 49.2149,94.1227 L 49.2078,93.9594 L 49.215,93.7922 L 49.2365,93.6488 L 49.2724,93.529 L 49.3226,93.4329
 L 49.3889,93.3592 L 49.4729,93.3066 L 49.5748,93.275 L 49.6945,93.2645 L 49.813,93.2748 L 49.9132,93.3058
 L 49.9949,93.3574 L 50.0582,93.4297 L 50.1056,93.5247 L 50.1394,93.6447 L 50.1597,93.7896 L 50.1664,93.9594
 L 50.1594,94.1273 L 50.1382,94.2715 L 50.1028,94.3918 L 50.0533,94.4883 L 49.9874,94.5624 L 49.9026,94.6153
 L 49.799,94.647 L 49.6766,94.6576 z
M 63.7516,93.8211 L 63.7592,93.6995 L 63.7821,93.592 L 63.8203,93.4985 L 63.8737,93.4191 L 63.9403,93.3557
 L 64.0181,93.3104 L 64.1071,93.2833 L 64.2073,93.2742 L 64.2753,93.2769 L 64.3346,93.2848 L 64.3852,93.298
 L 64.427,93.3165 L 64.4619,93.3411 L 64.4917,93.3723 L 64.5164,93.4102 L 64.5361,93.4549 L 64.551,93.5078
 L 64.5617,93.5704 L 64.5681,93.6429 L 64.5702,93.7251 L 64.5702,94.8415 L 64.8648,94.8415 L 64.8648,93.6681
 L 64.8564,93.5138 L 64.8312,93.3831 L 64.7893,93.2758 L 64.7305,93.192 L 64.6537,93.129 L 64.5574,93.084
 L 64.4417,93.057 L 64.3066,93.048 L 64.2121,93.0527 L 64.1257,93.0669 L 64.0473,93.0906 L 63.977,93.1237
 L 63.9127,93.1682 L 63.8523,93.226 L 63.7959,93.2972 L 63.7435,93.3816 L 63.7386,93.3816 L 63.737,93.3225
 L 63.7355,93.2736 L 63.7342,93.235 L 63.7329,93.2067 L 63.7307,93.1629 L 63.7297,93.1431 L 63.7288,93.1245
 L 63.728,93.1083 L 63.7272,93.0956 L 63.7264,93.0863 L 63.7256,93.0806 L 63.4489,93.0806 L 63.4532,93.1297
 L 63.4562,93.2087 L 63.458,93.3177 L 63.4586,93.4565 L 63.4586,94.8415 L 63.7516,94.8415 z
M 52.8502,94.848 L 53.0547,94.7699 L 53.209,94.6397 L 53.3131,94.4574 L 53.056,94.3842 L 53.031,94.4402
 L 52.9967,94.4912 L 52.9533,94.537 L 52.9005,94.5779 L 52.8384,94.6113 L 52.7669,94.6352 L 52.6859,94.6496
 L 52.5954,94.6543 L 52.4822,94.6441 L 52.3834,94.6133 L 52.2991,94.5619 L 52.2292,94.49 L 52.1743,94.3991
 L 52.1352,94.291 L 52.1117,94.1656 L 52.1039,94.0229 L 53.3603,94.0229 L 53.3603,93.9838 L 53.3118,93.5744
 L 53.1662,93.282 L 52.9236,93.1065 L 52.584,93.048 L 52.4053,93.0626 L 52.2485,93.1062 L 52.1136,93.1789
 L 52.0005,93.2807 L 51.9112,93.4098 L 51.8473,93.5643 L 51.809,93.7443 L 51.7963,93.9496 L 51.809,94.165
 L 51.8473,94.352 L 51.9112,94.5108 L 52.0005,94.6413 L 52.1143,94.7431 L 52.2514,94.8159 L 52.4117,94.8595
 L 52.5954,94.874 z
M 52.1071,93.7983 L 52.1192,93.6804 L 52.1456,93.5759 L 52.1863,93.4847 L 52.2414,93.4069 L 52.3092,93.3446
 L 52.3881,93.3001 L 52.478,93.2734 L 52.5791,93.2645 L 52.6825,93.2724 L 52.7732,93.2964 L 52.851,93.3363
 L 52.916,93.3922 L 52.9688,93.4655 L 53.01,93.5576 L 53.0396,93.6685 L 53.0576,93.7983 z
M 55.7979,93.9236 L 55.8039,93.7856 L 55.8219,93.6646 L 55.8519,93.5606 L 55.894,93.4736 L 55.9474,93.4049
 L 56.0116,93.3558 L 56.0865,93.3264 L 56.1723,93.3165 L 56.2186,93.3176 L 56.2601,93.3206 L 56.2968,93.3257
 L 56.3285,93.3328 L 56.3285,93.0643 L 56.2985,93.0572 L 56.2687,93.0521 L 56.2391,93.049 L 56.2097,93.048
 L 56.1313,93.0532 L 56.0624,93.0688 L 56.0028,93.0947 L 55.9525,93.131 L 55.9083,93.1815 L 55.8667,93.2498
 L 55.8277,93.3361 L 55.7914,93.4402 L 55.7849,93.4402 L 55.7841,93.3952 L 55.7816,93.3202 L 55.7776,93.2153
 L 55.7719,93.0806 L 55.4952,93.0806 L 55.4995,93.1904 L 55.5025,93.2954 L 55.5044,93.3955 L 55.505,93.4907
 L 55.505,94.8415 L 55.7979,94.8415 z
M 60.3151,93.8211 L 60.322,93.6982 L 60.3424,93.59 L 60.3765,93.4964 L 60.4242,93.4175 L 60.4836,93.3548
 L 60.5528,93.31 L 60.6317,93.2832 L 60.7204,93.2742 L 60.8045,93.2803 L 60.8746,93.2986 L 60.9306,93.3292
 L 60.9727,93.3719 L 61.0033,93.4306 L 61.0251,93.509 L 61.0383,93.6072 L 61.0426,93.7251 L 61.0426,94.8415
 L 61.3323,94.8415 L 61.3323,93.8211 L 61.339,93.6975 L 61.359,93.589 L 61.3923,93.4953 L 61.4389,93.4167
 L 61.4976,93.3543 L 61.5669,93.3098 L 61.6469,93.2831 L 61.7376,93.2742 L 61.8217,93.2803 L 61.8918,93.2986
 L 61.9478,93.3292 L 61.9898,93.3719 L 62.0205,93.4306 L 62.0423,93.509 L 62.0555,93.6072 L 62.0598,93.7251
 L 62.0598,94.8415 L 62.3495,94.8415 L 62.3495,93.6681 L 62.3419,93.5145 L 62.3192,93.3841 L 62.2813,93.2769
 L 62.2283,93.1929 L 62.1585,93.1295 L 62.0706,93.0842 L 61.9645,93.0571 L 61.8401,93.048 L 61.7516,93.0529
 L 61.6698,93.0675 L 61.5949,93.0919 L 61.5268,93.1261 L 61.4645,93.1714 L 61.407,93.2291 L 61.3542,93.2991
 L 61.3063,93.3816 L 61.3014,93.3816 L 61.2742,93.3005 L 61.2381,93.2311 L 61.1932,93.1735 L 61.1395,93.1278
 L 61.076,93.0929 L 61.0021,93.0679 L 60.9178,93.053 L 60.8229,93.048 L 60.7384,93.0526 L 60.6606,93.0663
 L 60.5895,93.0892 L 60.5251,93.1213 L 60.4658,93.165 L 60.41,93.223 L 60.3576,93.2952 L 60.3086,93.3816
 L 60.3037,93.3816 L 60.3022,93.3225 L 60.3007,93.2736 L 60.2993,93.235 L 60.2981,93.2067 L 60.2958,93.1629
 L 60.2948,93.1431 L 60.294,93.1245 L 60.2932,93.1083 L 60.2924,93.0956 L 60.2915,93.0863 L 60.2907,93.0806
 L 60.0141,93.0806 L 60.0183,93.1297 L 60.0214,93.2087 L 60.0232,93.3177 L 60.0238,93.4565 L 60.0238,94.8415
 L 60.3151,94.8415 z
M 13.9281,94.8688 L 14.0226,94.8531 L 14.1091,94.8269 L 14.1876,94.7902 L 14.2598,94.741 L 14.3274,94.6769
 L 14.3904,94.5981 L 14.4488,94.5046 L 14.4586,94.5046 L 14.4675,94.5897 L 14.4844,94.6627 L 14.5094,94.7236
 L 14.5424,94.7723 L 14.5849,94.8097 L 14.6386,94.8364 L 14.7034,94.8524 L 14.7792,94.8578 L 14.8367,94.8561
 L 14.8935,94.8513 L 14.9498,94.8431 L 15.0054,94.8317 L 15.0054,94.6494 L 14.9793,94.6544 L 14.9545,94.658
 L 14.9313,94.6601 L 14.9094,94.6608 L 14.8652,94.6567 L 14.8288,94.6444 L 14.8001,94.6238 L 14.7792,94.5949
 L 14.7642,94.558 L 14.7535,94.5129 L 14.7471,94.4599 L 14.745,94.3988 L 14.745,93.6404 L 14.7345,93.5049
 L 14.7031,93.3863 L 14.6507,93.2848 L 14.5774,93.2002 L 14.4833,93.1336 L 14.3686,93.0861 L 14.2335,93.0575
 L 14.0777,93.048 L 13.7968,93.0777 L 13.5854,93.1668 L 13.4436,93.3153 L 13.3714,93.5232 L 13.6774,93.5509
 L 13.6908,93.4827 L 13.7132,93.4244 L 13.7445,93.3761 L 13.7848,93.3377 L 13.8363,93.3085 L 13.9012,93.2877
 L 13.9795,93.2751 L 14.0712,93.271 L 14.1624,93.2768 L 14.2405,93.2942 L 14.3056,93.3232 L 14.3577,93.3638
 L 14.3975,93.4178 L 14.426,93.487 L 14.4431,93.5716 L 14.4488,93.6713 L 14.4488,93.7674 L 14.0533,93.7739
 L 13.8669,93.7873 L 13.7081,93.8178 L 13.5768,93.8654 L 13.4731,93.9301 L 13.3944,94.0113 L 13.3382,94.1083
 L 13.3045,94.2212 L 13.2933,94.35 L 13.3016,94.4655 L 13.3266,94.5681 L 13.3683,94.6576 L 13.4267,94.7341
 L 13.5017,94.7953 L 13.5931,94.8391 L 13.7011,94.8653 L 13.8255,94.874 z
M 13.8247,94.6495 L 13.7655,94.6348 L 13.7144,94.6104 L 13.6717,94.5762 L 13.6378,94.5331 L 13.6137,94.4818
 L 13.5992,94.4224 L 13.5944,94.3549 L 13.5979,94.2921 L 13.6086,94.2357 L 13.6264,94.1855 L 13.6513,94.1417
 L 13.6829,94.1036 L 13.7207,94.0709 L 13.7647,94.0434 L 13.8149,94.0212 L 13.8744,94.004 L 13.9465,93.9911
 L 14.0311,93.9828 L 14.1282,93.9789 L 14.4488,93.9724 L 14.4488,94.1172 L 14.4443,94.1843 L 14.4307,94.2505
 L 14.4081,94.3158 L 14.3764,94.3801 L 14.3369,94.4406 L 14.2907,94.4942 L 14.238,94.5411 L 14.1786,94.5811
 L 14.1137,94.6131 L 14.0444,94.636 L 13.9705,94.6498 L 13.8922,94.6543 z
M 51.0947,93.9236 L 51.1007,93.7856 L 51.1187,93.6646 L 51.1487,93.5606 L 51.1908,93.4736 L 51.2442,93.4049
 L 51.3083,93.3558 L 51.3833,93.3264 L 51.4691,93.3165 L 51.5154,93.3176 L 51.5569,93.3206 L 51.5936,93.3257
 L 51.6253,93.3328 L 51.6253,93.0643 L 51.5953,93.0572 L 51.5655,93.0521 L 51.5359,93.049 L 51.5065,93.048
 L 51.4281,93.0532 L 51.3592,93.0688 L 51.2996,93.0947 L 51.2493,93.131 L 51.2051,93.1815 L 51.1635,93.2498
 L 51.1245,93.3361 L 51.0882,93.4402 L 51.0817,93.4402 L 51.0809,93.3952 L 51.0784,93.3202 L 51.0744,93.2153
 L 51.0687,93.0806 L 50.792,93.0806 L 50.7963,93.1904 L 50.7993,93.2954 L 50.8012,93.3955 L 50.8018,93.4907
 L 50.8018,94.8415 L 51.0947,94.8415 z
M 57.6035,93.8211 L 57.6103,93.6982 L 57.6308,93.59 L 57.6649,93.4964 L 57.7126,93.4175 L 57.772,93.3548
 L 57.8411,93.31 L 57.9201,93.2832 L 58.0088,93.2742 L 58.0929,93.2803 L 58.163,93.2986 L 58.219,93.3292
 L 58.261,93.3719 L 58.2916,93.4306 L 58.3135,93.509 L 58.3266,93.6072 L 58.331,93.7251 L 58.331,94.8415
 L 58.6207,94.8415 L 58.6207,93.8211 L 58.6274,93.6975 L 58.6474,93.589 L 58.6807,93.4953 L 58.7273,93.4167
 L 58.7859,93.3543 L 58.8553,93.3098 L 58.9353,93.2831 L 59.026,93.2742 L 59.1101,93.2803 L 59.1802,93.2986
 L 59.2362,93.3292 L 59.2782,93.3719 L 59.3088,93.4306 L 59.3307,93.509 L 59.3438,93.6072 L 59.3482,93.7251
 L 59.3482,94.8415 L 59.6379,94.8415 L 59.6379,93.6681 L 59.6303,93.5145 L 59.6076,93.3841 L 59.5697,93.2769
 L 59.5166,93.1929 L 59.4469,93.1295 L 59.359,93.0842 L 59.2528,93.0571 L 59.1285,93.048 L 59.0399,93.0529
 L 58.9582,93.0675 L 58.8833,93.0919 L 58.8152,93.1261 L 58.7529,93.1714 L 58.6954,93.2291 L 58.6426,93.2991
 L 58.5947,93.3816 L 58.5898,93.3816 L 58.5626,93.3005 L 58.5265,93.2311 L 58.4816,93.1735 L 58.4278,93.1278
 L 58.3644,93.0929 L 58.2905,93.0679 L 58.2061,93.053 L 58.1113,93.048 L 58.0268,93.0526 L 57.949,93.0663
 L 57.8779,93.0892 L 57.8135,93.1213 L 57.7542,93.165 L 57.6983,93.223 L 57.646,93.2952 L 57.597,93.3816
 L 57.5921,93.3816 L 57.5905,93.3225 L 57.5891,93.2736 L 57.5877,93.235 L 57.5864,93.2067 L 57.5842,93.1629
 L 57.5824,93.1245 L 57.5815,93.1083 L 57.5807,93.0956 L 57.5799,93.0863 L 57.5791,93.0806 L 57.3024,93.0806
 L 57.3067,93.1297 L 57.3098,93.2087 L 57.3116,93.3177 L 57.3122,93.4565 L 57.3122,94.8415 L 57.6035,94.8415
 z
M 23.3376,94.8688 L 23.4322,94.8531 L 23.5187,94.8269 L 23.5972,94.7902 L 23.6694,94.741 L 23.737,94.6769
 L 23.8,94.5981 L 23.8584,94.5046 L 23.8681,94.5046 L 23.877,94.5897 L 23.894,94.6627 L 23.919,94.7236
 L 23.952,94.7723 L 23.9945,94.8097 L 24.0482,94.8364 L 24.1129,94.8524 L 24.1888,94.8578 L 24.2462,94.8561
 L 24.3031,94.8513 L 24.3594,94.8431 L 24.415,94.8317 L 24.415,94.6494 L 24.3889,94.6544 L 24.3642,94.658
 L 24.3409,94.6601 L 24.319,94.6608 L 24.2748,94.6567 L 24.2384,94.6444 L 24.2097,94.6238 L 24.1888,94.5949
 L 24.1738,94.558 L 24.1631,94.5129 L 24.1567,94.4599 L 24.1546,94.3988 L 24.1546,93.6404 L 24.1441,93.5049
 L 24.1127,93.3863 L 24.0603,93.2848 L 23.987,93.2002 L 23.8929,93.1336 L 23.7782,93.0861 L 23.6431,93.0575
 L 23.4873,93.048 L 23.2064,93.0777 L 22.995,93.1668 L 22.8532,93.3153 L 22.781,93.5232 L 23.0869,93.5509
 L 23.1004,93.4827 L 23.1228,93.4244 L 23.1541,93.3761 L 23.1944,93.3377 L 23.2458,93.3085 L 23.3107,93.2877
 L 23.3891,93.2751 L 23.4808,93.271 L 23.572,93.2768 L 23.6501,93.2942 L 23.7152,93.3232 L 23.7673,93.3638
 L 23.8071,93.4178 L 23.8356,93.487 L 23.8527,93.5716 L 23.8584,93.6713 L 23.8584,93.7674 L 23.4629,93.7739
 L 23.2765,93.7873 L 23.1177,93.8178 L 22.9864,93.8654 L 22.8827,93.9301 L 22.804,94.0113 L 22.7478,94.1083
 L 22.7141,94.2212 L 22.7029,94.35 L 22.7112,94.4655 L 22.7362,94.5681 L 22.7779,94.6576 L 22.8363,94.7341
 L 22.9113,94.7953 L 23.0027,94.8391 L 23.1107,94.8653 L 23.235,94.874 z
M 23.2343,94.6495 L 23.175,94.6348 L 23.124,94.6104 L 23.0813,94.5762 L 23.0474,94.5331 L 23.0233,94.4818
 L 23.0088,94.4224 L 23.004,94.3549 L 23.0075,94.2921 L 23.0182,94.2357 L 23.036,94.1855 L 23.0609,94.1417
 L 23.0925,94.1036 L 23.1303,94.0709 L 23.1743,94.0434 L 23.2245,94.0212 L 23.284,94.004 L 23.3561,93.9911
 L 23.4407,93.9828 L 23.5378,93.9789 L 23.8584,93.9724 L 23.8584,94.1172 L 23.8539,94.1843 L 23.8403,94.2505
 L 23.8177,94.3158 L 23.786,94.3801 L 23.7464,94.4406 L 23.7003,94.4942 L 23.6476,94.5411 L 23.5882,94.5811
 L 23.5233,94.6131 L 23.454,94.636 L 23.3801,94.6498 L 23.3018,94.6543 z
M 24.8957,93.8211 L 24.9034,93.6995 L 24.9262,93.592 L 24.9644,93.4985 L 25.0178,93.4191 L 25.0844,93.3557
 L 25.1622,93.3104 L 25.2512,93.2833 L 25.3514,93.2742 L 25.4195,93.2769 L 25.4788,93.2848 L 25.5293,93.298
 L 25.5711,93.3165 L 25.606,93.3411 L 25.6358,93.3723 L 25.6605,93.4102 L 25.6802,93.4549 L 25.6951,93.5078
 L 25.7058,93.5704 L 25.7122,93.6429 L 25.7143,93.7251 L 25.7143,94.8415 L 26.0089,94.8415 L 26.0089,93.6681
 L 26.0005,93.5138 L 25.9753,93.3831 L 25.9334,93.2758 L 25.8746,93.192 L 25.7978,93.129 L 25.7015,93.084
 L 25.5858,93.057 L 25.4507,93.048 L 25.3562,93.0527 L 25.2698,93.0669 L 25.1915,93.0906 L 25.1211,93.1237
 L 25.0568,93.1682 L 24.9964,93.226 L 24.94,93.2972 L 24.8876,93.3816 L 24.8827,93.3816 L 24.8811,93.3225
 L 24.8797,93.2736 L 24.8783,93.235 L 24.877,93.2067 L 24.8748,93.1629 L 24.8729,93.1245 L 24.8721,93.1083
 L 24.8713,93.0956 L 24.8705,93.0863 L 24.8697,93.0806 L 24.593,93.0806 L 24.5973,93.1297 L 24.6003,93.2087
 L 24.6021,93.3177 L 24.6028,93.4565 L 24.6028,94.8415 L 24.8957,94.8415 z
M 66.2523,95.4868 L 66.4827,95.3476 L 66.621,95.1157 L 66.6671,94.791 L 66.6671,93.4451 L 66.6677,93.3186
 L 66.6695,93.2156 L 66.6725,93.1363 L 66.6768,93.0806 L 66.3985,93.0806 L 66.3953,93.0931 L 66.392,93.1192
 L 66.3888,93.159 L 66.3855,93.2124 L 66.3827,93.2681 L 66.3806,93.3149 L 66.3794,93.3528 L 66.379,93.3816
 L 66.3757,93.3816 L 66.3344,93.3072 L 66.2852,93.2419 L 66.2282,93.1856 L 66.1633,93.1383 L 66.0915,93.1009
 L 66.0134,93.0742 L 65.9291,93.0582 L 65.8387,93.0529 L 65.6825,93.0668 L 65.5475,93.1084 L 65.4339,93.1779
 L 65.3415,93.2751 L 65.2699,93.4014 L 65.2188,93.5584 L 65.1881,93.746 L 65.1779,93.9643 L 65.1874,94.1792
 L 65.2159,94.3634 L 65.2635,94.5169 L 65.3301,94.6397 L 65.4169,94.7337 L 65.5252,94.8008 L 65.6549,94.8411
 L 65.8061,94.8545 L 65.8999,94.8492 L 65.9876,94.8332 L 66.0692,94.8065 L 66.1446,94.7691 L 66.2132,94.7211
 L 66.274,94.6627 L 66.3271,94.5938 L 66.3725,94.5144 L 66.3757,94.5144 L 66.3757,94.7975 L 66.3484,95.0218
 L 66.2663,95.1821 L 66.1295,95.2782 L 65.9379,95.3102 L 65.8605,95.3061 L 65.7908,95.2937 L 65.729,95.2731
 L 65.6751,95.2443 L 65.6295,95.2078 L 65.5927,95.1643 L 65.5648,95.1138 L 65.5457,95.0563 L 65.2511,95.0986
 L 65.2832,95.1968 L 65.3305,95.2831 L 65.393,95.3576 L 65.4708,95.4201 L 65.5636,95.4695 L 65.671,95.5049
 L 65.7931,95.5261 L 65.9298,95.5332 z
M 65.7976,94.6282 L 65.7068,94.5986 L 65.6332,94.5493 L 65.5766,94.4802 L 65.5346,94.3885 L 65.5046,94.2715
 L 65.4866,94.129 L 65.4806,93.961 L 65.487,93.7914 L 65.5062,93.6469 L 65.5383,93.5277 L 65.5831,93.4337
 L 65.642,93.3625 L 65.7162,93.3117 L 65.8056,93.2811 L 65.9103,93.271 L 65.976,93.2761 L 66.0382,93.2915
 L 66.0969,93.3172 L 66.1519,93.3532 L 66.2022,93.3988 L 66.2465,93.4537 L 66.2848,93.5176 L 66.3171,93.5908
 L 66.3428,93.6722 L 66.3611,93.761 L 66.3721,93.8573 L 66.3757,93.961 L 66.3721,94.0624 L 66.3611,94.1565
 L 66.3428,94.2434 L 66.3171,94.3231 L 66.2848,94.3948 L 66.2463,94.4576 L 66.2018,94.5116 L 66.1511,94.5567
 L 66.0955,94.5923 L 66.036,94.6177 L 65.9726,94.633 L 65.9054,94.638 z
M 28.8012,94.8656 L 28.9422,94.8403 L 29.0644,94.7981 L 29.1678,94.739 L 29.25,94.6643 L 29.3088,94.5754
 L 29.344,94.4722 L 29.3558,94.3549 L 29.3538,94.3058 L 29.3476,94.2595 L 29.3375,94.2159 L 29.3232,94.175
 L 29.3053,94.1367 L 29.284,94.1008 L 29.2593,94.0672 L 29.2313,94.0359 L 29.1989,94.0064 L 29.1611,93.9783
 L 29.1179,93.9515 L 29.0694,93.9261 L 29.0099,93.9007 L 28.9343,93.8742 L 28.8423,93.8465 L 28.7341,93.8178
 L 28.6218,93.7893 L 28.5306,93.7641 L 28.4606,93.7421 L 28.4118,93.7234 L 28.3759,93.7054 L 28.3447,93.6856
 L 28.3181,93.6639 L 28.2963,93.6404 L 28.2792,93.6144 L 28.267,93.5851 L 28.2597,93.5525 L 28.2572,93.5167
 L 28.2631,93.4596 L 28.2808,93.4101 L 28.3103,93.3684 L 28.3516,93.3345 L 28.4053,93.3081 L 28.4721,93.2893
 L 28.5518,93.278 L 28.6446,93.2742 L 28.7296,93.2782 L 28.8055,93.2899 L 28.8724,93.3095 L 28.9302,93.3369
 L 28.9784,93.3716 L 29.0163,93.4132 L 29.0439,93.4615 L 29.0612,93.5167 L 29.3248,93.4842 L 29.2942,93.3788
 L 29.2478,93.2889 L 29.1855,93.2144 L 29.1076,93.1554 L 29.0143,93.1105 L 28.906,93.0785 L 28.7827,93.0593
 L 28.6446,93.0529 L 28.49,93.0608 L 28.3551,93.0844 L 28.2398,93.1238 L 28.1441,93.179 L 28.069,93.2493
 L 28.0153,93.3338 L 27.9831,93.4328 L 27.9724,93.546 L 27.9762,93.6086 L 27.9875,93.666 L 28.0063,93.7184
 L 28.0326,93.7657 L 28.0656,93.8088 L 28.1044,93.8485 L 28.149,93.8849 L 28.1994,93.9179 L 28.2619,93.9494
 L 28.3425,93.9812 L 28.4413,94.0132 L 28.5583,94.0457 L 28.7683,94.101 L 28.8425,94.1236 L 28.9058,94.149
 L 28.9581,94.1773 L 28.9994,94.2084 L 29.0307,94.2434 L 29.0531,94.2832 L 29.0665,94.328 L 29.071,94.3776
 L 29.0645,94.4417 L 29.0452,94.4973 L 29.0128,94.5443 L 28.9676,94.5827 L 28.9085,94.6126 L 28.8344,94.634
 L 28.7453,94.6468 L 28.6413,94.6511 L 28.5428,94.647 L 28.4558,94.6346 L 28.3801,94.614 L 28.3158,94.5852
 L 28.2622,94.5475 L 28.2186,94.5003 L 28.1849,94.4437 L 28.1612,94.3776 L 27.9024,94.4281 L 27.9371,94.5353
 L 27.9873,94.6273 L 28.053,94.7041 L 28.1343,94.7658 L 28.2328,94.8132 L 28.3502,94.847 L 28.4863,94.8673
 L 28.6413,94.874 z
M 56.8738,93.0806 L 56.5808,93.0806 L 56.5808,94.8415 L 56.8738,94.8415 z
M 63.0203,93.0806 L 62.7273,93.0806 L 62.7273,94.8415 L 63.0203,94.8415 z
M 36.8524,94.1189 L 37.326,94.8415 L 37.6532,94.8415 L 37.0184,93.9334 L 37.6157,93.0806 L 37.2886,93.0806
 L 36.8524,93.7657 L 36.413,93.0806 L 36.0891,93.0806 L 36.6864,93.9366 L 36.0598,94.8415 L 36.3755,94.8415
 z
" stroke="black" fill="lightgray" stroke-width="0.5"/>
</svg>
