<?xml version="1.0" standalone="no"?>
<!DOCTYPE svg PUBLIC "-//W3C//DTD SVG 1.1//EN" "http://www.w3.org/Graphics/SVG/1.1/DTD/svg11.dtd">
<svg width="54mm" height="47mm" viewBox="-17 -38 54 47" xmlns="http://www.w3.org/2000/svg" version="1.1">
<title>OpenSCAD Model</title>
<path d="
M 25.6771,-34.9367 L 25.8284,-34.9633 L 25.97,-35.0075 L 26.1019,-35.0695 L 26.2216,-35.148 L 26.3269,-35.2422
 L 26.4177,-35.3519 L 26.4941,-35.4771 L 26.5546,-35.6157 L 26.5978,-35.7654 L 26.6238,-35.9262 L 26.6324,-36.098
 L 26.6126,-36.352 L 26.5533,-36.5751 L 26.4544,-36.7674 L 26.3159,-36.9289 L 26.141,-37.0567 L 25.9328,-37.148
 L 25.6914,-37.2028 L 25.4167,-37.221 L 24.6583,-37.221 L 24.6583,-34.9279 L 25.516,-34.9279 z
M 24.9691,-35.1769 L 24.9691,-36.972 L 25.4102,-36.972 L 25.6185,-36.958 L 25.8006,-36.9161 L 25.9566,-36.8461
 L 26.0864,-36.7482 L 26.1886,-36.6237 L 26.2616,-36.4738 L 26.3053,-36.2986 L 26.3199,-36.098 L 26.3135,-35.9611
 L 26.2943,-35.8336 L 26.2623,-35.7154 L 26.2174,-35.6066 L 26.1606,-35.5085 L 26.0927,-35.4226 L 26.0137,-35.349
 L 25.9237,-35.2876 L 25.8242,-35.2391 L 25.7172,-35.2045 L 25.6025,-35.1838 L 25.4802,-35.1769 z
M 14.5507,8.46434 L 15.6113,7.85197 L 15.6237,7.84052 L 15.6315,7.82333 L 15.6341,7.80162 L 15.6516,7.78847
 L 15.6626,7.77315 L 15.6663,7.75671 L 15.6663,-4.09607 L 16.2085,-3.78308 L 16.2246,-3.77811 L 16.2433,-3.77997
 L 16.2634,-3.78853 L 16.2836,-3.77997 L 16.3023,-3.77811 L 16.3185,-3.78308 L 36.8246,-15.6223 L 36.8369,-15.6338
 L 36.8447,-15.6509 L 36.8473,-15.6726 L 36.8648,-15.6858 L 36.8758,-15.7011 L 36.8795,-15.7175 L 36.8795,-16.9423
 L 36.8758,-16.9587 L 36.8648,-16.974 L 36.8473,-16.9872 L 36.8447,-17.0089 L 36.8369,-17.0261 L 36.8246,-17.0376
 L 20.1358,-26.6728 L 20.1358,-32.3537 L 20.1303,-32.3776 L 20.1143,-32.3999 L 20.0889,-32.419 L 20.085,-32.4506
 L 20.0737,-32.4756 L 20.0558,-32.4922 L 19.6527,-32.7249 L 22.3747,-34.5396 L 22.4037,-34.5619 L 22.426,-34.5909
 L 22.44,-34.6246 L 22.4447,-34.6609 L 22.44,-34.6971 L 22.426,-34.7309 L 22.4037,-34.7599 L 22.3747,-34.7821
 L 22.341,-34.7961 L 22.3047,-34.8009 L 22.2685,-34.7961 L 22.2347,-34.7821 L 19.3828,-32.8808 L 18.9951,-33.1046
 L 18.9717,-33.1118 L 18.9444,-33.1091 L 18.9151,-33.0967 L 18.8858,-33.1091 L 18.8585,-33.1118 L 18.8351,-33.1046
 L 13.9153,-30.2642 L 4.29764,-35.817 L 4.28152,-35.822 L 4.26277,-35.8201 L 4.24263,-35.8115 L 4.2225,-35.8201
 L 4.20374,-35.822 L 4.18764,-35.817 L -16.3185,-23.9778 L -16.3308,-23.9663 L -16.3386,-23.9491 L -16.3412,-23.9274
 L -16.3587,-23.9143 L -16.3697,-23.899 L -16.3734,-23.8825 L -16.3734,-22.6578 L -16.3697,-22.6413 L -16.3587,-22.626
 L -16.3412,-22.6129 L -16.3386,-22.5912 L -16.3308,-22.574 L -16.3185,-22.5625 L -14.6057,-21.5737 L -14.6057,-8.36908
 L -14.6019,-8.35265 L -14.5909,-8.33733 L -14.5735,-8.32417 L -14.5708,-8.30246 L -14.563,-8.28529 L -14.5507,-8.27382
 L -13.49,-7.66145 L -13.4739,-7.65648 L -13.4552,-7.65834 L -13.435,-7.6669 L -13.4149,-7.65834 L -13.3961,-7.65648
 L -13.38,-7.66145 L -12.3194,-8.27382 L -12.307,-8.28529 L -12.2992,-8.30246 L -12.2966,-8.32417 L -12.2791,-8.33733
 L -12.2681,-8.35265 L -12.2644,-8.36908 L -12.2644,-20.2219 L 0.370331,-12.9272 L 0.370331,-9.08351 L 0.375778,-9.0596
 L 0.391754,-9.03732 L 0.417191,-9.0182 L 0.421036,-8.98662 L 0.432343,-8.96162 L 0.450317,-8.94495 L 0.930664,-8.66762
 L 0.930664,-7.37737 L 0.935089,-7.34372 L 0.948074,-7.31236 L 0.968735,-7.28545 L 0.995651,-7.26479 L 1.02701,-7.2518
 L 1.06065,-7.24736 L 1.0943,-7.2518 L 1.12566,-7.26479 L 1.15259,-7.28545 L 1.17325,-7.31236 L 1.18623,-7.34372
 L 1.19066,-7.37737 L 1.19066,-8.51752 L 1.51099,-8.33258 L 1.53441,-8.32535 L 1.56171,-8.32805 L 1.59099,-8.3405
 L 1.62027,-8.32805 L 1.64755,-8.32535 L 1.67097,-8.33258 L 4.99974,-10.2544 L 13.325,-5.44783 L 13.325,7.75671
 L 13.3288,7.77315 L 13.3398,7.78847 L 13.3572,7.80162 L 13.3599,7.82333 L 13.3677,7.84052 L 13.38,7.85197
 L 14.4407,8.46434 L 14.4568,8.46931 L 14.4756,8.46747 L 14.4957,8.45889 L 14.5158,8.46747 L 14.5346,8.46931
 z
M -12.8615,-23.2701 L 4.24263,-33.1452 L 11.574,-28.9124 L 0.450317,-22.4901 L 0.432343,-22.4735 L 0.421036,-22.4485
 L 0.417191,-22.4169 L 0.391754,-22.3978 L 0.375778,-22.3755 L 0.370331,-22.3516 L 0.370331,-15.6308 z
M 11.1658,-9.39796 L 11.2962,-9.6774 L 11.333,-9.83878 L 11.2962,-10.0002 L 11.1884,-10.1505 L 11.0167,-10.2797
 L 10.793,-10.3788 L 10.703,-10.4003 L 10.703,-13.2681 L 10.6877,-13.3353 L 10.6427,-13.398 L 10.5712,-13.4518
 L 10.5522,-13.4602 L 14.5625,-15.7755 L 14.5625,-13.9825 L 14.5662,-13.9661 L 14.5772,-13.9507 L 14.5947,-13.9376
 L 14.5973,-13.9159 L 14.6051,-13.8987 L 14.6175,-13.8872 L 15.6781,-13.2749 L 15.6942,-13.2699 L 15.713,-13.2717
 L 15.7331,-13.2803 L 15.7533,-13.2717 L 15.772,-13.2699 L 15.7881,-13.2749 L 16.8488,-13.8872 L 16.8611,-13.8987
 L 16.8689,-13.9159 L 16.8716,-13.9376 L 16.889,-13.9507 L 16.9,-13.9661 L 16.9038,-13.9825 L 16.9038,-17.1272
 L 20.0558,-18.947 L 20.0737,-18.9637 L 20.085,-18.9887 L 20.0889,-19.0203 L 20.1143,-19.0394 L 20.1303,-19.0617
 L 20.1358,-19.0856 L 20.1358,-23.9693 L 23.0477,-22.2881 L 23.0477,-10.3718 L 16.2634,-6.45486 z
M 25.3891,-20.9363 L 33.3676,-16.3299 L 25.3891,-11.7235 z
M 7.34106,-11.6062 L 9.80304,-13.0276 L 9.80304,-10.4003 L 9.71304,-10.3788 L 9.57384,-10.3171 z
M 1.0943,-4.4518 L 1.12566,-4.46478 L 1.15259,-4.48544 L 1.17325,-4.51237 L 1.18623,-4.54372 L 1.19066,-4.57736
 L 1.19066,-5.97737 L 1.18623,-6.01102 L 1.17325,-6.04237 L 1.15259,-6.06929 L 1.12566,-6.08995 L 1.0943,-6.10294
 L 1.06065,-6.10736 L 1.02701,-6.10294 L 0.995651,-6.08995 L 0.968735,-6.06929 L 0.948074,-6.04237 L 0.935089,-6.01102
 L 0.930664,-5.97737 L 0.930664,-4.57736 L 0.935089,-4.54372 L 0.948074,-4.51237 L 0.968735,-4.48544 L 0.995651,-4.46478
 L 1.02701,-4.4518 L 1.06065,-4.44737 z
" stroke="black" fill="lightgray" stroke-width="0.5"/>
</svg>
