<?xml version="1.0" standalone="no"?>
<!DOCTYPE svg PUBLIC "-//W3C//DTD SVG 1.1//EN" "http://www.w3.org/Graphics/SVG/1.1/DTD/svg11.dtd">
<svg width="95mm" height="69mm" viewBox="-47 -37 95 69" xmlns="http://www.w3.org/2000/svg" version="1.1">
<title>OpenSCAD Model</title>
<path d="
M 14.5757,15.8561 L 15.6363,15.2437 L 15.6543,15.2271 L 15.6656,15.2021 L 15.6695,15.1705 L 15.6949,15.1514
 L 15.7109,15.1291 L 15.7163,15.1052 L 15.7163,9.37282 L 18.5975,10.6076 L 18.6313,10.6216 L 18.6676,10.6264
 L 18.7038,10.6216 L 18.7375,10.6076 L 18.7665,10.5854 L 18.7888,10.5564 L 18.8028,10.5226 L 18.8076,10.4864
 L 18.8028,10.4501 L 18.7888,10.4164 L 18.7665,10.3874 L 18.7375,10.3651 L 15.7163,9.07033 L 15.7163,6.21609
 L 32.7205,-3.60123 L 32.7205,3.87836 L 32.7259,3.90225 L 32.7419,3.92453 L 32.7673,3.94366 L 32.7712,3.97525
 L 32.7825,4.00024 L 32.8005,4.01691 L 33.8611,4.62929 L 33.8846,4.63652 L 33.9118,4.63382 L 33.9411,4.62137
 L 33.9704,4.63382 L 33.9977,4.63652 L 34.0211,4.62929 L 35.0818,4.01691 L 35.0998,4.00024 L 35.1111,3.97525
 L 35.1149,3.94366 L 35.1404,3.92453 L 35.1563,3.90225 L 35.1618,3.87836 L 35.1618,-10.0021 L 35.1563,-10.026
 L 35.1404,-10.0483 L 35.1149,-10.0674 L 35.1111,-10.099 L 35.0998,-10.124 L 35.0818,-10.1406 L 34.0211,-10.753
 L 33.9977,-10.7602 L 33.9704,-10.7575 L 33.9411,-10.7451 L 33.9118,-10.7575 L 33.8846,-10.7602 L 33.8611,-10.753
 L 32.8005,-10.1406 L 32.7825,-10.124 L 32.7712,-10.099 L 32.7673,-10.0674 L 32.7419,-10.0483 L 32.7259,-10.026
 L 32.7205,-10.0021 L 32.7205,-7.82971 L 27.5436,-10.8186 L 33.3185,-14.1527 L 33.4011,-14.1161 L 33.4911,-14.0946
 L 33.4911,-11.2268 L 33.5065,-11.1596 L 33.5514,-11.0969 L 33.6229,-11.0431 L 33.7161,-11.0018 L 33.8246,-10.9759
 L 33.9411,-10.967 L 34.0576,-10.9759 L 34.1661,-11.0018 L 34.2593,-11.0431 L 34.3308,-11.0969 L 34.3758,-11.1596
 L 34.3911,-11.2268 L 34.3911,-14.0946 L 34.4811,-14.1161 L 34.7048,-14.2152 L 34.8764,-14.3443 L 34.9843,-14.4947
 L 35.0211,-14.6561 L 34.9843,-14.8175 L 34.8752,-15.0514 L 36.8495,-16.1914 L 36.8675,-16.208 L 36.8788,-16.233
 L 36.8827,-16.2646 L 36.9081,-16.2837 L 36.9241,-16.306 L 36.9296,-16.3299 L 36.9296,-17.5547 L 36.9241,-17.5786
 L 36.9081,-17.6009 L 36.8827,-17.62 L 36.8788,-17.6516 L 36.8675,-17.6766 L 36.8495,-17.6932 L 20.6596,-27.0405
 L 25.1767,-30.9123 L 25.199,-30.9413 L 25.2129,-30.9751 L 25.2177,-31.0113 L 25.2129,-31.0476 L 25.199,-31.0813
 L 25.1767,-31.1103 L 25.1477,-31.1326 L 25.1139,-31.1466 L 25.0777,-31.1513 L 25.0415,-31.1466 L 25.0077,-31.1326
 L 24.9787,-31.1103 L 20.4033,-27.1885 L 4.32263,-36.4727 L 4.29919,-36.4799 L 4.27191,-36.4772 L 4.24263,-36.4647
 L 4.21335,-36.4772 L 4.18607,-36.4799 L 4.16263,-36.4727 L -16.3434,-24.6335 L -16.3614,-24.6168 L -16.3727,-24.5918
 L -16.3766,-24.5602 L -16.402,-24.5411 L -16.418,-24.5188 L -16.4234,-24.4949 L -16.4234,-23.2701 L -16.418,-23.2462
 L -16.402,-23.224 L -16.3766,-23.2048 L -16.3727,-23.1732 L -16.3614,-23.1483 L -16.3434,-23.1316 L -13.6188,-21.5585
 L -14.4782,-19.7165 L -14.515,-19.5551 L -14.4782,-19.3937 L -14.3703,-19.2433 L -14.1987,-19.1142 L -13.975,-19.0151
 L -13.885,-18.9936 L -13.885,-16.1258 L -13.8697,-16.0586 L -13.8247,-15.9959 L -13.7532,-15.9421 L -13.66,-15.9008
 L -13.5515,-15.8748 L -13.435,-15.866 L -13.3186,-15.8748 L -13.21,-15.9008 L -13.1168,-15.9421 L -13.0453,-15.9959
 L -13.0004,-16.0586 L -12.985,-16.1258 L -12.985,-18.9936 L -12.895,-19.0151 L -12.6713,-19.1142 L -12.4997,-19.2433
 L -12.3918,-19.3937 L -12.355,-19.5551 L -12.3918,-19.7165 L -13.1158,-21.2681 L -5.26974,-16.7382 L -12.2144,-12.7287
 L -12.2144,-14.9011 L -12.2198,-14.925 L -12.2358,-14.9473 L -12.2612,-14.9664 L -12.2651,-14.998 L -12.2764,-15.0229
 L -12.2944,-15.0396 L -13.355,-15.652 L -13.3784,-15.6592 L -13.4057,-15.6565 L -13.435,-15.6441 L -13.4643,-15.6565
 L -13.4916,-15.6592 L -13.515,-15.652 L -14.5757,-15.0396 L -14.5937,-15.0229 L -14.605,-14.998 L -14.6088,-14.9664
 L -14.6342,-14.9473 L -14.6502,-14.925 L -14.6557,-14.9011 L -14.6557,-1.02061 L -14.6502,-0.996704 L -14.6342,-0.974426
 L -14.6088,-0.955292 L -14.605,-0.923706 L -14.5937,-0.898727 L -14.5757,-0.88205 L -13.515,-0.269684 L -13.4916,-0.262451
 L -13.4643,-0.265152 L -13.435,-0.277603 L -13.4057,-0.265152 L -13.3784,-0.262451 L -13.355,-0.269684 L -12.2944,-0.88205
 L -12.2764,-0.898727 L -12.2651,-0.923706 L -12.2612,-0.955292 L -12.2358,-0.974426 L -12.2198,-0.996704 L -12.2144,-1.02061
 L -12.2144,-8.5002 L -1.2885,-2.19215 L -5.41966,0.389816 L -5.44865,0.412064 L -5.4709,0.441055 L -5.48489,0.474823
 L -5.48967,0.511063 L -5.48489,0.547287 L -5.4709,0.581055 L -5.44865,0.610046 L -5.41966,0.632294 L -5.38589,0.646286
 L -5.34967,0.651062 L -5.31343,0.646286 L -5.27966,0.632294 L -1.01405,-2.03371 L 13.275,6.21609 L 13.275,15.1052
 L 13.2805,15.1291 L 13.2965,15.1514 L 13.3219,15.1705 L 13.3257,15.2021 L 13.337,15.2271 L 13.355,15.2437
 L 14.4157,15.8561 L 14.4391,15.8633 L 14.4664,15.8606 L 14.4957,15.8482 L 14.525,15.8606 L 14.5522,15.8633
 z
M 7.23106,-22.546 L 7.23106,-26.1279 L 7.2256,-26.1518 L 7.20963,-26.1741 L 7.1842,-26.1932 L 7.18034,-26.2248
 L 7.16904,-26.2498 L 7.15106,-26.2664 L 6.09039,-26.8788 L 6.06697,-26.8861 L 6.03969,-26.8833 L 6.01041,-26.8709
 L 5.98112,-26.8833 L 5.95383,-26.8861 L 5.9304,-26.8788 L 4.86974,-26.2664 L 4.85176,-26.2498 L 4.84045,-26.2248
 L 4.83661,-26.1932 L 4.81117,-26.1741 L 4.7952,-26.1518 L 4.78973,-26.1279 L 4.78973,-22.546 L -2.82841,-18.1477
 L -12.7615,-23.8825 L 4.24263,-33.6999 L 5.82666,-32.7853 L 4.96719,-30.9433 L 4.9304,-30.7819 L 4.96719,-30.6205
 L 5.07509,-30.4702 L 5.24672,-30.341 L 5.4704,-30.2419 L 5.56039,-30.2204 L 5.56039,-27.3526 L 5.57573,-27.2854
 L 5.62068,-27.2227 L 5.6922,-27.1689 L 5.7854,-27.1276 L 5.89394,-27.1017 L 6.01041,-27.0928 L 6.12686,-27.1017
 L 6.2354,-27.1276 L 6.3286,-27.1689 L 6.40012,-27.2227 L 6.44507,-27.2854 L 6.4604,-27.3526 L 6.4604,-30.2204
 L 6.5504,-30.2419 L 6.77408,-30.341 L 6.94571,-30.4702 L 7.0536,-30.6205 L 7.09039,-30.7819 L 7.0536,-30.9433
 L 6.32962,-32.4949 L 33.2676,-16.9423 L 25.1023,-12.2281 z
M 7.23106,-12.3398 L 7.23106,-19.727 L 22.661,-10.8186 L 16.2635,-7.12497 z
M -0.3871,-16.7382 L 4.78973,-19.727 L 4.78973,-13.7493 z
M 15.7163,1.22475 L 15.7109,1.20084 L 15.6949,1.17856 L 15.6695,1.15942 L 15.6656,1.12784 L 15.6543,1.10286
 L 15.6363,1.08618 L 14.5757,0.473801 L 14.5522,0.466568 L 14.525,0.469269 L 14.4957,0.481735 L 14.4664,0.469269
 L 14.4391,0.466568 L 14.4157,0.473801 L 13.355,1.08618 L 13.337,1.10286 L 13.3257,1.12784 L 13.3219,1.15942
 L 13.2965,1.17856 L 13.2805,1.20084 L 13.275,1.22475 L 13.275,3.39711 L -10.9937,-10.6144 L -2.82843,-15.3287
 L 14.312,-5.43266 L 13.4525,-3.59065 L 13.4157,-3.42928 L 13.4525,-3.2679 L 13.5604,-3.11751 L 13.732,-2.98837
 L 13.9557,-2.88928 L 14.0457,-2.86775 L 14.0457,-0 L 14.061,0.0672455 L 14.106,0.129898 L 14.1775,0.183701
 L 14.2707,0.224991 L 14.3792,0.250946 L 14.4957,0.259796 L 14.6122,0.250946 L 14.7207,0.224991 L 14.8139,0.183701
 L 14.8854,0.129898 L 14.9303,0.0672455 L 14.9457,-0 L 14.9457,-2.86775 L 15.0357,-2.88927 L 15.2594,-2.98837
 L 15.431,-3.11751 L 15.5389,-3.2679 L 15.5757,-3.42928 L 15.5389,-3.59065 L 14.8149,-5.1423 L 16.1835,-4.35216
 L 16.2069,-4.34492 L 16.2342,-4.34763 L 16.2634,-4.36008 L 16.2927,-4.34763 L 16.32,-4.34492 L 16.3434,-4.35216
 L 24.642,-9.14334 L 28.6043,-7.1622 L 28.638,-7.14822 L 28.6743,-7.14345 L 28.7105,-7.14822 L 28.7443,-7.1622
 L 28.7733,-7.18446 L 28.7955,-7.21346 L 28.8095,-7.24722 L 28.8121,-7.26718 L 31.1838,-5.89792 L 31.1838,-5.533
 L 15.7163,3.39711 z
M 24.9321,-9.31081 L 25.1023,-9.40907 L 27.473,-8.04036 z
M 31.4946,-5.71844 L 31.4998,-5.71547 L 31.4946,-5.71248 z
M 27.5683,-32.1891 L 28.6131,-32.1891 L 28.8751,-31.5186 L 29.1925,-31.5186 L 28.2713,-33.8117 L 27.9182,-33.8117
 L 26.9823,-31.5186 L 27.3046,-31.5186 z
M 27.6626,-32.4316 L 27.9556,-33.1851 L 27.993,-33.2861 L 28.0256,-33.3776 L 28.0532,-33.4594 L 28.076,-33.5318
 L 28.0907,-33.5773 L 28.1346,-33.4422 L 28.1574,-33.3733 L 28.1802,-33.308 L 28.203,-33.2464 L 28.2258,-33.1884
 L 28.5203,-32.4316 z
M -9.05658,2.07695 L -8.75713,1.84909 L -7.84084,2.9558 L -7.45515,2.9558 L -8.56183,1.65869 L -7.58533,0.662659
 L -7.95152,0.662659 L -9.05658,1.81169 L -9.05658,0.662659 L -9.36743,0.662659 L -9.36743,2.9558 L -9.05658,2.9558
 z
M 22.4169,12.6145 L 22.5707,12.5856 L 22.7143,12.5372 L 22.8476,12.4696 L 22.9686,12.3835 L 23.0753,12.2796
 L 23.1676,12.158 L 23.2455,12.0188 L 22.9917,11.8918 L 22.8555,12.1005 L 22.6893,12.2495 L 22.4933,12.3389
 L 22.2674,12.3687 L 22.0891,12.3527 L 21.9303,12.3046 L 21.7909,12.2245 L 21.6709,12.1124 L 21.5744,11.9739
 L 21.5055,11.8147 L 21.4642,11.6349 L 21.4504,11.4345 L 21.4636,11.2327 L 21.5033,11.0535 L 21.5694,10.897
 L 21.662,10.7632 L 21.7783,10.656 L 21.9158,10.5795 L 22.0745,10.5336 L 22.2544,10.5182 L 22.3715,10.5249
 L 22.4804,10.5447 L 22.5811,10.5778 L 22.6735,10.624 L 22.7557,10.6828 L 22.8258,10.7534 L 22.8839,10.8358
 L 22.9298,10.93 L 23.2244,10.8324 L 23.1585,10.7002 L 23.0763,10.5854 L 22.9778,10.4878 L 22.8631,10.4076
 L 22.7327,10.3449 L 22.5872,10.3002 L 22.4267,10.2733 L 22.2511,10.2644 L 22.0033,10.2838 L 21.784,10.3421
 L 21.5932,10.4392 L 21.4309,10.5752 L 21.3013,10.7455 L 21.2087,10.9455 L 21.1532,11.1751 L 21.1347,11.4345
 L 21.143,11.6115 L 21.1678,11.7761 L 21.2093,11.9284 L 21.2673,12.0684 L 21.3411,12.1945 L 21.4301,12.3052
 L 21.534,12.4004 L 21.653,12.4802 L 21.7854,12.5432 L 21.9295,12.5882 L 22.0853,12.6152 L 22.2528,12.6242
 z
M 39.6992,28.8203 L 39.4795,28.8203 L 39.4795,30.6317 L 39.6992,30.6317 z
M -43.1842,30.6129 L -43.0324,30.4834 L -42.9413,30.2675 L -42.9109,29.9652 L -42.9183,29.8052 L -42.9404,29.6668
 L -42.9772,29.5501 L -43.0287,29.455 L -43.0959,29.3813 L -43.1796,29.3287 L -43.2799,29.2971 L -43.3967,29.2866
 L -43.4682,29.29 L -43.5336,29.3003 L -43.593,29.3175 L -43.6464,29.3415 L -43.6942,29.3735 L -43.7372,29.4144
 L -43.7751,29.4644 L -43.8081,29.5234 L -43.813,29.5234 L -43.8108,29.4714 L -43.8093,29.423 L -43.8084,29.378
 L -43.8081,29.3366 L -43.8081,28.8203 L -44.0278,28.8203 L -44.0278,30.3595 L -44.0283,30.4539 L -44.0296,30.5307
 L -44.0319,30.59 L -44.0351,30.6317 L -43.8227,30.6317 L -43.8214,30.6215 L -43.8197,30.6031 L -43.8177,30.5766
 L -43.8154,30.542 L -43.8133,30.5057 L -43.8118,30.4744 L -43.8108,30.448 L -43.8105,30.4266 L -43.8081,30.4266
 L -43.7746,30.4829 L -43.7365,30.5308 L -43.6938,30.5705 L -43.6464,30.6018 L -43.5935,30.6255 L -43.5342,30.6425
 L -43.4686,30.6527 L -43.3967,30.6561 z
M -43.5422,30.486 L -43.6161,30.4628 L -43.6771,30.4241 L -43.7251,30.3699 L -43.7614,30.2994 L -43.7874,30.2119
 L -43.8029,30.1075 L -43.8081,29.986 L -43.8028,29.8574 L -43.7869,29.7474 L -43.7604,29.656 L -43.7233,29.5832
 L -43.6745,29.5276 L -43.6133,29.488 L -43.5394,29.4642 L -43.4529,29.4562 L -43.3762,29.4637 L -43.311,29.4861
 L -43.2572,29.5235 L -43.2149,29.5759 L -43.1828,29.6455 L -43.1599,29.7348 L -43.1462,29.8439 L -43.1416,29.9725
 L -43.1462,30.1009 L -43.1601,30.2101 L -43.1832,30.3002 L -43.2155,30.3711 L -43.2582,30.4247 L -43.3124,30.4631
 L -43.3781,30.4861 L -43.4553,30.4937 z
M 26.5373,28.8203 L 26.3176,28.8203 L 26.3176,30.6317 L 26.5373,30.6317 z
M 40.2416,28.8203 L 40.0219,28.8203 L 40.0219,30.6317 L 40.2416,30.6317 z
M 37.1723,31.0188 L 37.0804,30.885 L 37.0041,30.7478 L 36.9435,30.6073 L 36.8973,30.4617 L 36.8643,30.3094
 L 36.8445,30.1504 L 36.8379,29.9848 L 36.8446,29.8185 L 36.8646,29.6588 L 36.898,29.506 L 36.9447,29.3598
 L 37.0057,29.219 L 37.0819,29.0821 L 37.1732,28.9492 L 37.2798,28.8203 L 37.0674,28.8203 L 36.9601,28.9462
 L 36.8677,29.0763 L 36.7901,29.2105 L 36.7274,29.3488 L 36.6791,29.4937 L 36.6446,29.6476 L 36.6239,29.8104
 L 36.617,29.9823 L 36.617,29.9872 L 36.6238,30.158 L 36.6444,30.3203 L 36.6788,30.4739 L 36.7268,30.6189
 L 36.7893,30.7575 L 36.8669,30.8921 L 36.9596,31.0227 L 37.0674,31.1492 L 37.2798,31.1492 z
M 44.6647,30.6129 L 44.8166,30.4834 L 44.9076,30.2675 L 44.938,29.9652 L 44.9306,29.8052 L 44.9086,29.6668
 L 44.8717,29.5501 L 44.8202,29.455 L 44.753,29.3813 L 44.6693,29.3287 L 44.569,29.2971 L 44.4522,29.2866
 L 44.3807,29.29 L 44.3153,29.3003 L 44.2559,29.3175 L 44.2026,29.3415 L 44.1547,29.3735 L 44.1118,29.4144
 L 44.0738,29.4644 L 44.0408,29.5234 L 44.0359,29.5234 L 44.0381,29.4714 L 44.0396,29.423 L 44.0405,29.378
 L 44.0408,29.3366 L 44.0408,28.8203 L 43.8211,28.8203 L 43.8211,30.3595 L 43.8207,30.4539 L 43.8193,30.5307
 L 43.817,30.59 L 43.8138,30.6317 L 44.0262,30.6317 L 44.0276,30.6215 L 44.0292,30.6031 L 44.0312,30.5766
 L 44.0335,30.542 L 44.0356,30.5057 L 44.0372,30.4744 L 44.0381,30.448 L 44.0384,30.4266 L 44.0408,30.4266
 L 44.0743,30.4829 L 44.1124,30.5308 L 44.1552,30.5705 L 44.2026,30.6018 L 44.2555,30.6255 L 44.3147,30.6425
 L 44.3803,30.6527 L 44.4522,30.6561 z
M 44.3067,30.486 L 44.2328,30.4628 L 44.1718,30.4241 L 44.1238,30.3699 L 44.0875,30.2994 L 44.0616,30.2119
 L 44.046,30.1075 L 44.0408,29.986 L 44.0461,29.8574 L 44.062,29.7474 L 44.0885,29.656 L 44.1257,29.5832
 L 44.1744,29.5276 L 44.2357,29.488 L 44.3096,29.4642 L 44.396,29.4562 L 44.4727,29.4637 L 44.5379,29.4861
 L 44.5917,29.5235 L 44.6341,29.5759 L 44.6661,29.6455 L 44.689,29.7348 L 44.7027,29.8439 L 44.7073,29.9725
 L 44.7027,30.1009 L 44.6888,30.2101 L 44.6658,30.3002 L 44.6335,30.3711 L 44.5908,30.4247 L 44.5366,30.4631
 L 44.4708,30.4861 L 44.3936,30.4937 z
M 27.0797,28.8203 L 26.86,28.8203 L 26.86,30.6317 L 27.0797,30.6317 z
M 18.0691,30.6129 L 18.2209,30.4834 L 18.312,30.2675 L 18.3424,29.9652 L 18.335,29.8052 L 18.3129,29.6668
 L 18.2761,29.5501 L 18.2246,29.455 L 18.1574,29.3813 L 18.0737,29.3287 L 17.9734,29.2971 L 17.8566,29.2866
 L 17.7851,29.29 L 17.7197,29.3003 L 17.6603,29.3175 L 17.6069,29.3415 L 17.5591,29.3735 L 17.5162,29.4144
 L 17.4782,29.4644 L 17.4452,29.5234 L 17.4403,29.5234 L 17.4425,29.4714 L 17.444,29.423 L 17.4449,29.378
 L 17.4452,29.3366 L 17.4452,28.8203 L 17.2255,28.8203 L 17.2255,30.3595 L 17.225,30.4539 L 17.2237,30.5307
 L 17.2214,30.59 L 17.2182,30.6317 L 17.4306,30.6317 L 17.4319,30.6215 L 17.4336,30.6031 L 17.4356,30.5766
 L 17.4379,30.542 L 17.44,30.5057 L 17.4415,30.4744 L 17.4425,30.448 L 17.4428,30.4266 L 17.4452,30.4266
 L 17.4787,30.4829 L 17.5168,30.5308 L 17.5595,30.5705 L 17.6069,30.6018 L 17.6598,30.6255 L 17.7191,30.6425
 L 17.7847,30.6527 L 17.8566,30.6561 z
M 17.7111,30.486 L 17.6371,30.4628 L 17.5762,30.4241 L 17.5282,30.3699 L 17.4919,30.2994 L 17.466,30.2119
 L 17.4504,30.1075 L 17.4452,29.986 L 17.4505,29.8574 L 17.4664,29.7474 L 17.4929,29.656 L 17.53,29.5832
 L 17.5788,29.5276 L 17.64,29.488 L 17.7139,29.4642 L 17.8004,29.4562 L 17.8771,29.4637 L 17.9423,29.4861
 L 17.9961,29.5235 L 18.0384,29.5759 L 18.0705,29.6455 L 18.0934,29.7348 L 18.1071,29.8439 L 18.1117,29.9725
 L 18.1071,30.1009 L 18.0932,30.2101 L 18.0701,30.3002 L 18.0378,30.3711 L 17.9951,30.4247 L 17.9409,30.4631
 L 17.8752,30.4861 L 17.798,30.4937 z
M -16.9419,28.8203 L -17.1616,28.8203 L -17.1616,29.0302 L -16.9419,29.0302 z
M 10.7933,28.8203 L 10.5736,28.8203 L 10.5736,29.0302 L 10.7933,29.0302 z
M 0.486633,29.8529 L 0.492462,29.7667 L 0.509964,29.6897 L 0.539139,29.622 L 0.579987,29.5637 L 0.630539,29.5167
 L 0.688782,29.4831 L 0.75473,29.463 L 0.8284,29.4562 L 0.877441,29.4582 L 0.920853,29.4642 L 0.958618,29.4741
 L 0.990738,29.488 L 1.01797,29.5061 L 1.04109,29.5287 L 1.06007,29.5558 L 1.07495,29.5875 L 1.08617,29.6258
 L 1.09418,29.673 L 1.09898,29.7292 L 1.10059,29.7944 L 1.10059,30.6317 L 1.32152,30.6317 L 1.32152,29.7516
 L 1.31516,29.6349 L 1.29604,29.5363 L 1.26419,29.4558 L 1.2196,29.3934 L 1.16159,29.3466 L 1.08946,29.3133
 L 1.00322,29.2932 L 0.902863,29.2866 L 0.82988,29.2903 L 0.76355,29.3017 L 0.703842,29.3206 L 0.650787,29.347
 L 0.602844,29.3815 L 0.558487,29.4247 L 0.517715,29.4764 L 0.48053,29.5368 L 0.476852,29.5368 L 0.477661,29.5265
 L 0.478836,29.5078 L 0.480392,29.4807 L 0.482346,29.4452 L 0.484222,29.4059 L 0.48555,29.3671 L 0.486359,29.329
 L 0.486633,29.2915 L 0.486633,28.8203 L 0.266907,28.8203 L 0.266907,30.6317 L 0.486633,30.6317 z
M -5.35356,28.8203 L -5.57327,28.8203 L -5.57327,30.6317 L -5.35356,30.6317 z
M -8.1194,31.0233 L -8.02698,30.8932 L -7.94942,30.759 L -7.88675,30.6207 L -7.83842,30.4758 L -7.80391,30.3219
 L -7.78319,30.1591 L -7.77629,29.9872 L -7.77629,29.9823 L -7.78316,29.8115 L -7.80376,29.6492 L -7.83807,29.4956
 L -7.88614,29.3506 L -7.94862,29.212 L -8.02621,29.0774 L -8.1189,28.9468 L -8.2267,28.8203 L -8.43909,28.8203
 L -8.33255,28.9497 L -8.2412,29.0827 L -8.16502,29.2194 L -8.10403,29.3598 L -8.0573,29.5055 L -8.02393,29.6582
 L -8.00389,29.818 L -7.99722,29.9848 L -8.00386,30.1515 L -8.02377,30.3111 L -8.05696,30.4637 L -8.10342,30.6091
 L -8.16422,30.7493 L -8.24043,30.886 L -8.33205,31.0193 L -8.43909,31.1492 L -8.2267,31.1492 z
M -16.1242,30.6526 L -16.0588,30.6424 L -15.9994,30.6252 L -15.9461,30.6012 L -15.8982,30.5692 L -15.8553,30.5282
 L -15.8173,30.4783 L -15.7843,30.4193 L -15.7794,30.4193 L -15.7792,30.4462 L -15.7784,30.4754 L -15.777,30.5072
 L -15.7752,30.5414 L -15.7731,30.5735 L -15.771,30.5993 L -15.7691,30.6187 L -15.7672,30.6317 L -15.5573,30.6317
 L -15.5605,30.59 L -15.5628,30.5307 L -15.5641,30.4539 L -15.5646,30.3595 L -15.5646,28.8203 L -15.7843,28.8203
 L -15.7843,29.3683 L -15.7819,29.516 L -15.7843,29.516 L -15.8173,29.4603 L -15.8551,29.4126 L -15.8978,29.373
 L -15.9454,29.3415 L -15.9986,29.3175 L -16.058,29.3003 L -16.1237,29.29 L -16.1957,29.2866 L -16.4082,29.3298
 L -16.56,29.4593 L -16.6511,29.6752 L -16.6815,29.9774 L -16.6741,30.1375 L -16.652,30.2759 L -16.6152,30.3926
 L -16.5637,30.4876 L -16.4965,30.5613 L -16.4128,30.614 L -16.3125,30.6456 L -16.1957,30.6561 z
M -16.2162,30.4789 L -16.2814,30.4565 L -16.3352,30.4191 L -16.3775,30.3668 L -16.4096,30.2971 L -16.4325,30.2078
 L -16.4462,30.0988 L -16.4508,29.9701 L -16.4462,29.8418 L -16.4323,29.7326 L -16.4092,29.6425 L -16.3769,29.5716
 L -16.3342,29.5179 L -16.28,29.4796 L -16.2143,29.4566 L -16.1371,29.4489 L -16.0512,29.4565 L -15.9778,29.4794
 L -15.9169,29.5176 L -15.8685,29.571 L -15.8317,29.6408 L -15.8054,29.7281 L -15.7896,29.833 L -15.7843,29.9555
 L -15.7896,30.0826 L -15.8054,30.192 L -15.8317,30.2834 L -15.8685,30.357 L -15.9171,30.4136 L -15.9784,30.4541
 L -16.0526,30.4783 L -16.1395,30.4864 z
M 46.7026,31.0233 L 46.795,30.8932 L 46.8726,30.759 L 46.9352,30.6207 L 46.9836,30.4758 L 47.0181,30.3219
 L 47.0388,30.1591 L 47.0457,29.9872 L 47.0457,29.9823 L 47.0388,29.8115 L 47.0182,29.6492 L 46.9839,29.4956
 L 46.9359,29.3506 L 46.8734,29.212 L 46.7958,29.0774 L 46.7031,28.9468 L 46.5953,28.8203 L 46.3829,28.8203
 L 46.4894,28.9497 L 46.5808,29.0827 L 46.657,29.2194 L 46.718,29.3598 L 46.7647,29.5055 L 46.7981,29.6582
 L 46.8181,29.818 L 46.8248,29.9848 L 46.8181,30.1515 L 46.7982,30.3111 L 46.765,30.4637 L 46.7186,30.6091
 L 46.6578,30.7493 L 46.5816,30.886 L 46.4899,31.0193 L 46.3829,31.1492 L 46.5953,31.1492 z
M -33.4965,28.8203 L -33.7162,28.8203 L -33.7162,29.0302 L -33.4965,29.0302 z
M -32.9529,28.8203 L -33.1726,28.8203 L -33.1726,30.6317 L -32.9529,30.6317 z
M -30.1893,31.0188 L -30.2812,30.885 L -30.3575,30.7478 L -30.4181,30.6073 L -30.4643,30.4617 L -30.4973,30.3094
 L -30.5171,30.1504 L -30.5237,29.9848 L -30.517,29.8185 L -30.497,29.6588 L -30.4636,29.506 L -30.4169,29.3598
 L -30.3559,29.219 L -30.2797,29.0821 L -30.1884,28.9492 L -30.0818,28.8203 L -30.2942,28.8203 L -30.4015,28.9462
 L -30.4939,29.0763 L -30.5715,29.2105 L -30.6341,29.3488 L -30.6825,29.4937 L -30.717,29.6476 L -30.7377,29.8104
 L -30.7446,29.9823 L -30.7446,29.9872 L -30.7377,30.158 L -30.7171,30.3203 L -30.6828,30.4739 L -30.6348,30.6189
 L -30.5723,30.7575 L -30.4947,30.8921 L -30.402,31.0227 L -30.2942,31.1492 L -30.0818,31.1492 z
M -21.4159,30.6526 L -21.3505,30.6424 L -21.2911,30.6252 L -21.2378,30.6012 L -21.1899,30.5692 L -21.147,30.5282
 L -21.109,30.4783 L -21.076,30.4193 L -21.0711,30.4193 L -21.0709,30.4462 L -21.0701,30.4754 L -21.0687,30.5072
 L -21.0669,30.5414 L -21.0648,30.5735 L -21.0627,30.5993 L -21.0608,30.6187 L -21.0589,30.6317 L -20.849,30.6317
 L -20.8522,30.59 L -20.8545,30.5307 L -20.8559,30.4539 L -20.8563,30.3595 L -20.8563,28.8203 L -21.076,28.8203
 L -21.076,29.3683 L -21.0736,29.516 L -21.076,29.516 L -21.109,29.4603 L -21.1468,29.4126 L -21.1895,29.373
 L -21.2372,29.3415 L -21.2903,29.3175 L -21.3497,29.3003 L -21.4154,29.29 L -21.4874,29.2866 L -21.6999,29.3298
 L -21.8517,29.4593 L -21.9428,29.6752 L -21.9732,29.9774 L -21.9658,30.1375 L -21.9437,30.2759 L -21.9069,30.3926
 L -21.8554,30.4876 L -21.7882,30.5613 L -21.7045,30.614 L -21.6042,30.6456 L -21.4874,30.6561 z
M -21.5079,30.4789 L -21.5731,30.4565 L -21.6269,30.4191 L -21.6693,30.3668 L -21.7013,30.2971 L -21.7242,30.2078
 L -21.7379,30.0988 L -21.7425,29.9701 L -21.7379,29.8418 L -21.724,29.7326 L -21.7009,29.6425 L -21.6686,29.5716
 L -21.6259,29.5179 L -21.5717,29.4796 L -21.506,29.4566 L -21.4288,29.4489 L -21.3429,29.4565 L -21.2695,29.4794
 L -21.2086,29.5176 L -21.1602,29.571 L -21.1234,29.6408 L -21.0971,29.7281 L -21.0813,29.833 L -21.076,29.9555
 L -21.0813,30.0826 L -21.0971,30.192 L -21.1234,30.2834 L -21.1602,30.357 L -21.2088,30.4136 L -21.2701,30.4541
 L -21.3443,30.4783 L -21.4312,30.4864 z
M 37.7156,29.4709 L 37.9732,29.4709 L 37.9732,29.311 L 37.7156,29.311 L 37.7156,29.1926 L 37.718,29.1408
 L 37.7251,29.0977 L 37.7369,29.0633 L 37.7534,29.0376 L 37.7753,29.0189 L 37.8029,29.0055 L 37.8363,28.9975
 L 37.8755,28.9948 L 37.8976,28.9954 L 37.9213,28.9973 L 37.9465,29.0003 L 37.9732,29.0046 L 37.9732,28.8374
 L 37.9397,28.831 L 37.9027,28.8264 L 37.8622,28.8237 L 37.8182,28.8227 L 37.7416,28.8277 L 37.6756,28.8426
 L 37.6202,28.8674 L 37.5752,28.9021 L 37.5405,28.9481 L 37.5157,29.0067 L 37.5009,29.0781 L 37.4959,29.1621
 L 37.4959,29.311 L 37.3104,29.311 L 37.3104,29.4709 L 37.4959,29.4709 L 37.4959,30.6317 L 37.7156,30.6317
 z
M 30.389,29.4709 L 30.6466,29.4709 L 30.6466,29.311 L 30.389,29.311 L 30.389,29.1926 L 30.3914,29.1408
 L 30.3985,29.0977 L 30.4103,29.0633 L 30.4268,29.0376 L 30.4487,29.0189 L 30.4763,29.0055 L 30.5097,28.9975
 L 30.5489,28.9948 L 30.571,28.9954 L 30.5947,28.9973 L 30.6199,29.0003 L 30.6466,29.0046 L 30.6466,28.8374
 L 30.6131,28.831 L 30.5761,28.8264 L 30.5356,28.8237 L 30.4915,28.8227 L 30.415,28.8277 L 30.349,28.8426
 L 30.2936,28.8674 L 30.2486,28.9021 L 30.2139,28.9481 L 30.1891,29.0067 L 30.1742,29.0781 L 30.1693,29.1621
 L 30.1693,29.311 L 29.9838,29.311 L 29.9838,29.4709 L 30.1693,29.4709 L 30.1693,30.6317 L 30.389,30.6317
 z
M 3.9281,29.4709 L 4.18565,29.4709 L 4.18565,29.311 L 3.9281,29.311 L 3.9281,29.1926 L 3.93047,29.1408
 L 3.93756,29.0977 L 3.94939,29.0633 L 3.96593,29.0376 L 3.98776,29.0189 L 4.01538,29.0055 L 4.0488,28.9975
 L 4.08801,28.9948 L 4.11012,28.9954 L 4.13377,28.9973 L 4.15895,29.0003 L 4.18565,29.0046 L 4.18565,28.8374
 L 4.15218,28.831 L 4.11517,28.8264 L 4.07466,28.8237 L 4.03064,28.8227 L 3.95412,28.8277 L 3.88814,28.8426
 L 3.83267,28.8674 L 3.78773,28.9021 L 3.75302,28.9481 L 3.72823,29.0067 L 3.71335,29.0781 L 3.70839,29.1621
 L 3.70839,29.311 L 3.52286,29.311 L 3.52286,29.4709 L 3.70839,29.4709 L 3.70839,30.6317 L 3.9281,30.6317
 z
M -28.8221,30.4449 L -29.7192,30.4449 L -29.698,30.4018 L -29.671,30.3578 L -29.6382,30.313 L -29.5996,30.2673
 L -29.5545,30.2198 L -29.5023,30.1695 L -29.4428,30.1164 L -29.3762,30.0604 L -29.259,29.9635 L -29.1623,29.8801
 L -29.0862,29.8103 L -29.0308,29.7541 L -28.9884,29.7046 L -28.9516,29.6552 L -28.9203,29.6058 L -28.8947,29.5563
 L -28.8746,29.5068 L -28.8604,29.4571 L -28.8518,29.4073 L -28.8489,29.3574 L -28.8576,29.2509 L -28.8839,29.1573
 L -28.9275,29.0766 L -28.9887,29.0089 L -29.0661,28.9552 L -29.1585,28.9169 L -29.2659,28.8939 L -29.3884,28.8862
 L -29.5014,28.8938 L -29.6037,28.9167 L -29.6952,28.9549 L -29.776,29.0083 L -29.8435,29.0746 L -29.8951,29.1514
 L -29.931,29.2387 L -29.9511,29.3366 L -29.7265,29.3574 L -29.7139,29.2923 L -29.6919,29.2348 L -29.6605,29.1852
 L -29.6197,29.1431 L -29.5712,29.1098 L -29.5164,29.0859 L -29.4555,29.0716 L -29.3884,29.0668 L -29.3186,29.0717
 L -29.2569,29.0864 L -29.2033,29.1108 L -29.1577,29.145 L -29.1214,29.188 L -29.0955,29.239 L -29.0799,29.2979
 L -29.0747,29.3647 L -29.0777,29.4158 L -29.0868,29.4642 L -29.1018,29.5098 L -29.1229,29.5527 L -29.1489,29.5937
 L -29.1786,29.6338 L -29.2121,29.673 L -29.2493,29.7113 L -29.2895,29.7492 L -29.3321,29.787 L -29.3771,29.8249
 L -29.4244,29.8627 L -29.4731,29.9013 L -29.5219,29.9416 L -29.571,29.9834 L -29.6203,30.0269 L -29.6692,30.0724
 L -29.7169,30.1205 L -29.7635,30.1713 L -29.8089,30.2246 L -29.8521,30.2813 L -29.8918,30.3422 L -29.9281,30.4073
 L -29.9609,30.4767 L -29.9609,30.6317 L -28.8221,30.6317 z
M -9.4136,30.4449 L -10.3108,30.4449 L -10.2896,30.4018 L -10.2626,30.3578 L -10.2298,30.313 L -10.1911,30.2673
 L -10.1461,30.2198 L -10.0938,30.1695 L -10.0344,30.1164 L -9.96777,30.0604 L -9.85051,29.9635 L -9.75386,29.8801
 L -9.6778,29.8103 L -9.62233,29.7541 L -9.57996,29.7046 L -9.54315,29.6552 L -9.5119,29.6058 L -9.48624,29.5563
 L -9.4662,29.5068 L -9.4519,29.4571 L -9.44331,29.4073 L -9.44046,29.3574 L -9.44919,29.2509 L -9.4754,29.1573
 L -9.51907,29.0766 L -9.58023,29.0089 L -9.65762,28.9552 L -9.75005,28.9169 L -9.8575,28.8939 L -9.97998,28.8862
 L -10.093,28.8938 L -10.1953,28.9167 L -10.2868,28.9549 L -10.3675,29.0083 L -10.435,29.0746 L -10.4867,29.1514
 L -10.5226,29.2387 L -10.5427,29.3366 L -10.3181,29.3574 L -10.3055,29.2923 L -10.2835,29.2348 L -10.2521,29.1852
 L -10.2113,29.1431 L -10.1627,29.1098 L -10.108,29.0859 L -10.0471,29.0716 L -9.97998,29.0668 L -9.91017,29.0717
 L -9.84845,29.0864 L -9.79483,29.1108 L -9.74928,29.145 L -9.71297,29.188 L -9.68703,29.239 L -9.67146,29.2979
 L -9.66628,29.3647 L -9.66928,29.4158 L -9.67833,29.4642 L -9.69339,29.5098 L -9.71449,29.5527 L -9.74048,29.5937
 L -9.77019,29.6338 L -9.80365,29.673 L -9.84084,29.7113 L -9.88107,29.7492 L -9.92369,29.787 L -9.96866,29.8249
 L -10.016,29.8627 L -10.0646,29.9013 L -10.1135,29.9416 L -10.1626,29.9834 L -10.2119,30.0269 L -10.2608,30.0724
 L -10.3085,30.1205 L -10.3551,30.1713 L -10.4005,30.2246 L -10.4436,30.2813 L -10.4833,30.3422 L -10.5196,30.4073
 L -10.5524,30.4767 L -10.5524,30.6317 L -9.4136,30.6317 z
M -26.2435,30.4449 L -27.1407,30.4449 L -27.1195,30.4018 L -27.0925,30.3578 L -27.0597,30.313 L -27.0211,30.2673
 L -26.976,30.2198 L -26.9238,30.1695 L -26.8643,30.1164 L -26.7977,30.0604 L -26.6805,29.9635 L -26.5838,29.8801
 L -26.5077,29.8103 L -26.4523,29.7541 L -26.4099,29.7046 L -26.3731,29.6552 L -26.3419,29.6058 L -26.3162,29.5563
 L -26.2962,29.5068 L -26.2818,29.4571 L -26.2733,29.4073 L -26.2704,29.3574 L -26.2791,29.2509 L -26.3053,29.1573
 L -26.349,29.0766 L -26.4102,29.0089 L -26.4876,28.9552 L -26.58,28.9169 L -26.6874,28.8939 L -26.8099,28.8862
 L -26.9229,28.8938 L -27.0252,28.9167 L -27.1167,28.9549 L -27.1975,29.0083 L -27.265,29.0746 L -27.3167,29.1514
 L -27.3525,29.2387 L -27.3726,29.3366 L -27.148,29.3574 L -27.1354,29.2923 L -27.1134,29.2348 L -27.082,29.1852
 L -27.0412,29.1431 L -26.9927,29.1098 L -26.9379,29.0859 L -26.877,29.0716 L -26.8099,29.0668 L -26.7401,29.0717
 L -26.6784,29.0864 L -26.6248,29.1108 L -26.5792,29.145 L -26.5429,29.188 L -26.517,29.239 L -26.5014,29.2979
 L -26.4962,29.3647 L -26.4992,29.4158 L -26.5083,29.4642 L -26.5233,29.5098 L -26.5444,29.5527 L -26.5704,29.5937
 L -26.6001,29.6338 L -26.6336,29.673 L -26.6708,29.7113 L -26.711,29.7492 L -26.7536,29.787 L -26.7986,29.8249
 L -26.8459,29.8627 L -26.8946,29.9013 L -26.9434,29.9416 L -26.9925,29.9834 L -27.0419,30.0269 L -27.0907,30.0724
 L -27.1384,30.1205 L -27.185,30.1713 L -27.2304,30.2246 L -27.2736,30.2813 L -27.3133,30.3422 L -27.3495,30.4073
 L -27.3824,30.4767 L -27.3824,30.6317 L -26.2435,30.6317 z
M -46.7431,29.9725 L -46.5185,29.8017 L -45.8312,30.6317 L -45.542,30.6317 L -46.372,29.6588 L -45.6396,28.9118
 L -45.9143,28.9118 L -46.7431,29.7736 L -46.7431,28.9118 L -46.9762,28.9118 L -46.9762,30.6317 L -46.7431,30.6317
 z
M 28.9876,30.2423 L 29.2293,30.2423 L 29.2293,30.069 L 28.9876,30.069 L 28.9876,28.9118 L 28.7569,28.9118
 L 27.9696,30.0714 L 27.9696,30.2423 L 28.7801,30.2423 L 28.7801,30.6317 L 28.9876,30.6317 z
M 28.1723,30.069 L 28.1918,30.0446 L 28.2577,29.9543 L 28.6983,29.3049 L 28.7073,29.2911 L 28.7182,29.2731
 L 28.7311,29.2509 L 28.746,29.2243 L 28.76,29.1988 L 28.7704,29.1795 L 28.7771,29.1664 L 28.7801,29.1596
 L 28.7801,30.069 z
M -8.98961,28.9118 L -9.21419,28.9118 L -9.18855,29.4526 L -9.01646,29.4526 z
M -8.53918,28.9118 L -8.76378,28.9118 L -8.73936,29.4526 L -8.56604,29.4526 z
M 12.8171,30.6494 L 12.8729,30.6439 L 12.9282,30.6347 L 12.9828,30.6219 L 12.9828,30.4596 L 12.9437,30.467
 L 12.9095,30.4724 L 12.8803,30.4756 L 12.8559,30.4767 L 12.8203,30.4743 L 12.7904,30.4671 L 12.7662,30.455
 L 12.7478,30.4382 L 12.7342,30.4155 L 12.7245,30.3856 L 12.7186,30.3486 L 12.7167,30.3046 L 12.7167,29.4709
 L 12.9608,29.4709 L 12.9608,29.311 L 12.7167,29.311 L 12.7167,29.0156 L 12.5702,29.0156 L 12.5055,29.311
 L 12.3444,29.311 L 12.3444,29.4709 L 12.497,29.4709 L 12.497,30.3522 L 12.5135,30.483 L 12.5629,30.5764
 L 12.6453,30.6325 L 12.7606,30.6512 z
M -40.9702,30.6494 L -40.9143,30.6439 L -40.8591,30.6347 L -40.8045,30.6219 L -40.8045,30.4596 L -40.8435,30.467
 L -40.8777,30.4724 L -40.907,30.4756 L -40.9314,30.4767 L -40.967,30.4743 L -40.9969,30.4671 L -41.021,30.455
 L -41.0394,30.4382 L -41.053,30.4155 L -41.0628,30.3856 L -41.0686,30.3486 L -41.0705,30.3046 L -41.0705,29.4709
 L -40.8264,29.4709 L -40.8264,29.311 L -41.0705,29.311 L -41.0705,29.0156 L -41.217,29.0156 L -41.2817,29.311
 L -41.4428,29.311 L -41.4428,29.4709 L -41.2903,29.4709 L -41.2903,30.3522 L -41.2738,30.483 L -41.2243,30.5764
 L -41.142,30.6325 L -41.0266,30.6512 z
M -11.5243,30.6494 L -11.4684,30.6439 L -11.4132,30.6347 L -11.3586,30.6219 L -11.3586,30.4596 L -11.3976,30.467
 L -11.4318,30.4724 L -11.4611,30.4756 L -11.4855,30.4767 L -11.5211,30.4743 L -11.551,30.4671 L -11.5751,30.455
 L -11.5935,30.4382 L -11.6071,30.4155 L -11.6169,30.3856 L -11.6227,30.3486 L -11.6246,30.3046 L -11.6246,29.4709
 L -11.3805,29.4709 L -11.3805,29.311 L -11.6246,29.311 L -11.6246,29.0156 L -11.7711,29.0156 L -11.8358,29.311
 L -11.9969,29.311 L -11.9969,29.4709 L -11.8444,29.4709 L -11.8444,30.3522 L -11.8279,30.483 L -11.7785,30.5764
 L -11.6961,30.6325 L -11.5807,30.6512 z
M -40.2918,30.6494 L -40.236,30.6439 L -40.1808,30.6347 L -40.1261,30.6219 L -40.1261,30.4596 L -40.1652,30.467
 L -40.1994,30.4724 L -40.2287,30.4756 L -40.2531,30.4767 L -40.2887,30.4743 L -40.3185,30.4671 L -40.3427,30.455
 L -40.3611,30.4382 L -40.3747,30.4155 L -40.3845,30.3856 L -40.3903,30.3486 L -40.3922,30.3046 L -40.3922,29.4709
 L -40.1481,29.4709 L -40.1481,29.311 L -40.3922,29.311 L -40.3922,29.0156 L -40.5387,29.0156 L -40.6034,29.311
 L -40.7645,29.311 L -40.7645,29.4709 L -40.612,29.4709 L -40.612,30.3522 L -40.5955,30.483 L -40.546,30.5764
 L -40.4637,30.6325 L -40.3483,30.6512 z
M -0.0741882,30.6494 L -0.0183411,30.6439 L 0.0368805,30.6347 L 0.0914917,30.6219 L 0.0914917,30.4596 L 0.0524445,30.467
 L 0.0182648,30.4724 L -0.0110168,30.4756 L -0.0354156,30.4767 L -0.0710144,30.4743 L -0.100891,30.4671 L -0.125031,30.455
 L -0.143463,30.4382 L -0.157074,30.4155 L -0.166794,30.3856 L -0.172638,30.3486 L -0.174576,30.3046 L -0.174576,29.4709
 L 0.0695343,29.4709 L 0.0695343,29.311 L -0.174576,29.311 L -0.174576,29.0156 L -0.321045,29.0156 L -0.385757,29.311
 L -0.546875,29.311 L -0.546875,29.4709 L -0.394287,29.4709 L -0.394287,30.3522 L -0.377808,30.483 L -0.328384,30.5764
 L -0.245987,30.6325 L -0.130646,30.6512 z
M -6.18703,30.649 L -6.09578,30.6277 L -6.01369,30.5922 L -5.94077,30.5426 L -5.87935,30.481 L -5.83182,30.4098
 L -5.79817,30.329 L -5.77843,30.2386 L -6.00058,30.224 L -6.0135,30.2856 L -6.03398,30.3387 L -6.06203,30.3833
 L -6.09761,30.4193 L -6.13939,30.4471 L -6.18596,30.4669 L -6.23734,30.4788 L -6.29353,30.4828 L -6.37187,30.4748
 L -6.4397,30.451 L -6.49699,30.4114 L -6.54376,30.3558 L -6.58008,30.2838 L -6.60602,30.1947 L -6.62157,30.0885
 L -6.62675,29.9652 L -6.62187,29.8378 L -6.60722,29.7303 L -6.58282,29.6425 L -6.54865,29.5746 L -6.50356,29.5239
 L -6.44641,29.4877 L -6.37721,29.4659 L -6.29596,29.4587 L -6.23553,29.4627 L -6.18245,29.4748 L -6.13667,29.4951
 L -6.09822,29.5234 L -6.06671,29.5585 L -6.04176,29.5993 L -6.02338,29.6458 L -6.01155,29.6979 L -5.78575,29.6808
 L -5.80905,29.5936 L -5.84479,29.5163 L -5.89296,29.449 L -5.95358,29.3916 L -6.02472,29.3456 L -6.10448,29.3128
 L -6.19286,29.2931 L -6.28986,29.2866 L -6.41862,29.2975 L -6.53154,29.3304 L -6.62859,29.3851 L -6.70976,29.4617
 L -6.77383,29.5592 L -6.81961,29.6764 L -6.84708,29.8134 L -6.85622,29.9701 L -6.84711,30.1279 L -6.81976,30.2656
 L -6.77419,30.3833 L -6.71037,30.4809 L -6.62923,30.5576 L -6.53169,30.6123 L -6.41776,30.6451 L -6.28743,30.6561
 z
M -38.3745,29.8664 L -38.3693,29.7742 L -38.354,29.693 L -38.3285,29.6229 L -38.2927,29.5637 L -38.2481,29.5167
 L -38.1962,29.4831 L -38.137,29.463 L -38.0705,29.4562 L -38.0074,29.4608 L -37.9549,29.4745 L -37.9128,29.4974
 L -37.8813,29.5295 L -37.8584,29.5735 L -37.842,29.6323 L -37.8321,29.7059 L -37.8288,29.7944 L -37.8288,30.6317
 L -37.6116,30.6317 L -37.6116,29.8664 L -37.6066,29.7737 L -37.5916,29.6923 L -37.5666,29.6221 L -37.5316,29.563
 L -37.4876,29.5163 L -37.4357,29.4829 L -37.3756,29.4629 L -37.3076,29.4562 L -37.2445,29.4608 L -37.192,29.4745
 L -37.1499,29.4974 L -37.1184,29.5295 L -37.0955,29.5735 L -37.0791,29.6323 L -37.0692,29.7059 L -37.0659,29.7944
 L -37.0659,30.6317 L -36.8487,30.6317 L -36.8487,29.7516 L -36.8544,29.6364 L -36.8714,29.5386 L -36.8998,29.4582
 L -36.9396,29.3952 L -36.9919,29.3477 L -37.0579,29.3137 L -37.1375,29.2934 L -37.2307,29.2866 L -37.2971,29.2902
 L -37.3584,29.3012 L -37.4146,29.3195 L -37.4657,29.3452 L -37.5124,29.3791 L -37.5556,29.4224 L -37.5951,29.4749
 L -37.6311,29.5368 L -37.6348,29.5368 L -37.6552,29.4759 L -37.6822,29.4239 L -37.7159,29.3807 L -37.7562,29.3464
 L -37.8038,29.3202 L -37.8592,29.3015 L -37.9225,29.2903 L -37.9936,29.2866 L -38.057,29.29 L -38.1154,29.3003
 L -38.1687,29.3175 L -38.217,29.3415 L -38.2615,29.3743 L -38.3033,29.4178 L -38.3426,29.472 L -38.3793,29.5368
 L -38.383,29.5368 L -38.3842,29.4924 L -38.3853,29.4558 L -38.3863,29.4268 L -38.3873,29.4056 L -38.389,29.3728
 L -38.3903,29.3439 L -38.3909,29.3318 L -38.3916,29.3223 L -38.3922,29.3153 L -38.3928,29.311 L -38.6003,29.311
 L -38.5971,29.3478 L -38.5948,29.4071 L -38.5934,29.4888 L -38.593,29.593 L -38.593,30.6317 L -38.3745,30.6317
 z
M 9.26691,30.6366 L 9.42032,30.578 L 9.53604,30.4803 L 9.61409,30.3436 L 9.42123,30.2887 L 9.40251,30.3307
 L 9.37683,30.3689 L 9.34421,30.4034 L 9.30466,30.4339 L 9.25809,30.459 L 9.20442,30.477 L 9.14366,30.4877
 L 9.07581,30.4913 L 8.99089,30.4836 L 8.91681,30.4605 L 8.85356,30.422 L 8.80113,30.368 L 8.76003,30.2999
 L 8.73065,30.2188 L 8.71303,30.1247 L 8.70717,30.0177 L 9.64949,30.0177 L 9.64949,29.9884 L 9.61311,29.6814
 L 9.50394,29.462 L 9.32199,29.3304 L 9.06725,29.2866 L 8.93326,29.2975 L 8.81566,29.3302 L 8.71445,29.3848
 L 8.62965,29.4611 L 8.56264,29.5579 L 8.51477,29.6738 L 8.48605,29.8088 L 8.47647,29.9628 L 8.48605,30.1243
 L 8.51477,30.2646 L 8.56264,30.3837 L 8.62965,30.4815 L 8.71498,30.5579 L 8.81779,30.6125 L 8.93806,30.6452
 L 9.07581,30.6561 z
M 8.70961,29.8493 L 8.71864,29.7609 L 8.73845,29.6825 L 8.769,29.6141 L 8.8103,29.5557 L 8.86115,29.509
 L 8.92032,29.4756 L 8.98779,29.4556 L 9.0636,29.4489 L 9.14117,29.4549 L 9.20915,29.4729 L 9.2675,29.5028
 L 9.31624,29.5447 L 9.35585,29.5997 L 9.38675,29.6688 L 9.40895,29.752 L 9.42244,29.8493 z
M 4.55881,29.9433 L 4.56331,29.8398 L 4.57681,29.749 L 4.59932,29.671 L 4.63083,29.6058 L 4.67088,29.5542
 L 4.71902,29.5174 L 4.77524,29.4953 L 4.83955,29.488 L 4.87434,29.4887 L 4.90546,29.491 L 4.93292,29.4948
 L 4.95674,29.5002 L 4.95674,29.2988 L 4.93422,29.2934 L 4.91187,29.2896 L 4.88966,29.2873 L 4.86761,29.2866
 L 4.80887,29.2905 L 4.75714,29.3021 L 4.71243,29.3216 L 4.67474,29.3488 L 4.64157,29.3867 L 4.61037,29.4379
 L 4.58115,29.5026 L 4.55391,29.5807 L 4.54904,29.5807 L 4.54843,29.5469 L 4.5466,29.4907 L 4.54355,29.4121
 L 4.53928,29.311 L 4.33177,29.311 L 4.33498,29.3934 L 4.33725,29.4721 L 4.33862,29.5472 L 4.33908,29.6186
 L 4.33908,30.6317 L 4.55881,30.6317 z
M 6.72838,29.8664 L 6.73349,29.7742 L 6.74883,29.693 L 6.77438,29.6229 L 6.81015,29.5637 L 6.85471,29.5167
 L 6.90659,29.4831 L 6.96579,29.463 L 7.0323,29.4562 L 7.0954,29.4608 L 7.14796,29.4745 L 7.19,29.4974
 L 7.22151,29.5295 L 7.24448,29.5735 L 7.26088,29.6323 L 7.27072,29.7059 L 7.274,29.7944 L 7.274,30.6317
 L 7.49127,30.6317 L 7.49127,29.8664 L 7.49626,29.7737 L 7.51126,29.6923 L 7.53624,29.6221 L 7.57121,29.563
 L 7.61519,29.5163 L 7.66719,29.4829 L 7.72719,29.4629 L 7.7952,29.4562 L 7.85829,29.4608 L 7.91086,29.4745
 L 7.9529,29.4974 L 7.98441,29.5295 L 8.00737,29.5735 L 8.02377,29.6323 L 8.03362,29.7059 L 8.0369,29.7944
 L 8.0369,30.6317 L 8.25415,30.6317 L 8.25415,29.7516 L 8.24846,29.6364 L 8.23141,29.5386 L 8.203,29.4582
 L 8.16321,29.3952 L 8.11092,29.3477 L 8.04497,29.3137 L 7.96536,29.2934 L 7.8721,29.2866 L 7.80569,29.2902
 L 7.74438,29.3012 L 7.6882,29.3195 L 7.63713,29.3452 L 7.59041,29.3791 L 7.54726,29.4224 L 7.50771,29.4749
 L 7.47174,29.5368 L 7.46806,29.5368 L 7.44766,29.4759 L 7.42061,29.4239 L 7.38693,29.3807 L 7.3466,29.3464
 L 7.29904,29.3202 L 7.24362,29.3015 L 7.18034,29.2903 L 7.10921,29.2866 L 7.04581,29.29 L 6.98746,29.3003
 L 6.93413,29.3175 L 6.88585,29.3415 L 6.84137,29.3743 L 6.79948,29.4178 L 6.76019,29.472 L 6.7235,29.5368
 L 6.71983,29.5368 L 6.71866,29.4924 L 6.71754,29.4558 L 6.71652,29.4268 L 6.71556,29.4056 L 6.71315,29.3579
 L 6.71251,29.3439 L 6.7119,29.3318 L 6.71129,29.3223 L 6.71068,29.3153 L 6.71007,29.311 L 6.50256,29.311
 L 6.50577,29.3478 L 6.50806,29.4071 L 6.50941,29.4888 L 6.50987,29.593 L 6.50987,30.6317 L 6.72838,30.6317
 z
M 5.56104,30.6522 L 5.63196,30.6404 L 5.69684,30.6207 L 5.75571,30.5932 L 5.80983,30.5563 L 5.86052,30.5083
 L 5.90779,30.4492 L 5.95161,30.379 L 5.95892,30.379 L 5.96559,30.4428 L 5.9783,30.4976 L 5.99702,30.5432
 L 6.02177,30.5798 L 6.05371,30.6078 L 6.09396,30.6279 L 6.14252,30.6399 L 6.1994,30.6439 L 6.24249,30.6427
 L 6.28514,30.639 L 6.32733,30.6329 L 6.36905,30.6244 L 6.36905,30.4876 L 6.34946,30.4914 L 6.33092,30.494
 L 6.31345,30.4957 L 6.29706,30.4962 L 6.26395,30.4931 L 6.23663,30.4838 L 6.2151,30.4684 L 6.19939,30.4468
 L 6.18817,30.419 L 6.18016,30.3853 L 6.17535,30.3455 L 6.17375,30.2997 L 6.17375,29.7309 L 6.16589,29.6292
 L 6.14232,29.5403 L 6.10303,29.4641 L 6.04802,29.4007 L 5.97746,29.3508 L 5.89148,29.3151 L 5.7901,29.2937
 L 5.67329,29.2866 L 5.46259,29.3089 L 5.30406,29.3757 L 5.19772,29.4871 L 5.14355,29.643 L 5.37302,29.6637
 L 5.38309,29.6126 L 5.39987,29.5688 L 5.42337,29.5326 L 5.45358,29.5038 L 5.49219,29.4819 L 5.54086,29.4663
 L 5.59961,29.4569 L 5.66843,29.4538 L 5.73677,29.4581 L 5.79536,29.4712 L 5.84419,29.4929 L 5.88326,29.5234
 L 5.91316,29.5639 L 5.93452,29.6158 L 5.94734,29.6792 L 5.95161,29.7541 L 5.95161,29.8261 L 5.655,29.831
 L 5.5152,29.841 L 5.39607,29.8639 L 5.29762,29.8996 L 5.21985,29.9482 L 5.16083,30.009 L 5.11868,30.0818
 L 5.0934,30.1665 L 5.08496,30.2631 L 5.09122,30.3497 L 5.10999,30.4266 L 5.14127,30.4937 L 5.18504,30.5511
 L 5.24127,30.597 L 5.30986,30.6298 L 5.39081,30.6495 L 5.4841,30.6561 z
M 5.48354,30.4877 L 5.4391,30.4767 L 5.40083,30.4584 L 5.36876,30.4327 L 5.34338,30.4004 L 5.32527,30.3619
 L 5.31441,30.3174 L 5.31078,30.2667 L 5.31345,30.2196 L 5.32146,30.1773 L 5.33481,30.1397 L 5.35349,30.1068
 L 5.37718,30.0783 L 5.40553,30.0537 L 5.43852,30.0331 L 5.47617,30.0165 L 5.52083,30.0035 L 5.57489,29.9939
 L 5.63832,29.9877 L 5.71115,29.9848 L 5.95161,29.9799 L 5.95161,30.0885 L 5.94821,30.1388 L 5.93803,30.1884
 L 5.92105,30.2374 L 5.89729,30.2856 L 5.86765,30.331 L 5.83305,30.3712 L 5.79349,30.4064 L 5.74896,30.4364
 L 5.7003,30.4604 L 5.64828,30.4776 L 5.5929,30.4879 L 5.53416,30.4913 z
M -19.8237,30.6366 L -19.6703,30.578 L -19.5546,30.4803 L -19.4765,30.3436 L -19.6694,30.2887 L -19.6881,30.3307
 L -19.7138,30.3689 L -19.7464,30.4034 L -19.786,30.4339 L -19.8326,30.459 L -19.8862,30.477 L -19.947,30.4877
 L -20.0148,30.4913 L -20.0997,30.4836 L -20.1738,30.4605 L -20.2371,30.422 L -20.2895,30.368 L -20.3306,30.2999
 L -20.36,30.2188 L -20.3776,30.1247 L -20.3835,30.0177 L -19.4411,30.0177 L -19.4411,29.9884 L -19.4775,29.6814
 L -19.5867,29.462 L -19.7687,29.3304 L -20.0234,29.2866 L -20.1574,29.2975 L -20.275,29.3302 L -20.3762,29.3848
 L -20.461,29.4611 L -20.528,29.5579 L -20.5759,29.6738 L -20.6046,29.8088 L -20.6142,29.9628 L -20.6046,30.1243
 L -20.5759,30.2646 L -20.528,30.3837 L -20.461,30.4815 L -20.3757,30.5579 L -20.2728,30.6125 L -20.1526,30.6452
 L -20.0148,30.6561 z
M -20.381,29.8493 L -20.372,29.7609 L -20.3522,29.6825 L -20.3216,29.6141 L -20.2803,29.5557 L -20.2295,29.509
 L -20.1703,29.4756 L -20.1028,29.4556 L -20.027,29.4489 L -19.9495,29.4549 L -19.8815,29.4729 L -19.8231,29.5028
 L -19.7744,29.5447 L -19.7348,29.5997 L -19.7039,29.6688 L -19.6817,29.752 L -19.6682,29.8493 z
M 41.8496,30.649 L 41.9408,30.6277 L 42.0229,30.5922 L 42.0958,30.5426 L 42.1573,30.481 L 42.2048,30.4098
 L 42.2384,30.329 L 42.2582,30.2386 L 42.036,30.224 L 42.0231,30.2856 L 42.0026,30.3387 L 41.9746,30.3833
 L 41.939,30.4193 L 41.8972,30.4471 L 41.8506,30.4669 L 41.7993,30.4788 L 41.7431,30.4828 L 41.6647,30.4748
 L 41.5969,30.451 L 41.5396,30.4114 L 41.4928,30.3558 L 41.4565,30.2838 L 41.4306,30.1947 L 41.415,30.0885
 L 41.4099,29.9652 L 41.4147,29.8378 L 41.4294,29.7303 L 41.4538,29.6425 L 41.488,29.5746 L 41.5331,29.5239
 L 41.5902,29.4877 L 41.6594,29.4659 L 41.7406,29.4587 L 41.8011,29.4627 L 41.8542,29.4748 L 41.8999,29.4951
 L 41.9384,29.5234 L 41.9699,29.5585 L 41.9948,29.5993 L 42.0132,29.6458 L 42.0251,29.6979 L 42.2509,29.6808
 L 42.2276,29.5936 L 42.1918,29.5163 L 42.1436,29.449 L 42.083,29.3916 L 42.0119,29.3456 L 41.9321,29.3128
 L 41.8438,29.2931 L 41.7467,29.2866 L 41.618,29.2975 L 41.5051,29.3304 L 41.408,29.3851 L 41.3268,29.4617
 L 41.2628,29.5592 L 41.217,29.6764 L 41.1895,29.8134 L 41.1804,29.9701 L 41.1895,30.1279 L 41.2168,30.2656
 L 41.2624,30.3833 L 41.3262,30.4809 L 41.4074,30.5576 L 41.5049,30.6123 L 41.6189,30.6451 L 41.7492,30.6561
 z
M -18.9695,29.9433 L -18.965,29.8398 L -18.9515,29.749 L -18.929,29.671 L -18.8975,29.6058 L -18.8575,29.5542
 L -18.8093,29.5174 L -18.7531,29.4953 L -18.6888,29.488 L -18.654,29.4887 L -18.6229,29.491 L -18.5954,29.4948
 L -18.5716,29.5002 L -18.5716,29.2988 L -18.5941,29.2934 L -18.6165,29.2896 L -18.6387,29.2873 L -18.6607,29.2866
 L -18.7195,29.2905 L -18.7712,29.3021 L -18.8159,29.3216 L -18.8536,29.3488 L -18.8868,29.3867 L -18.918,29.4379
 L -18.9472,29.5026 L -18.9744,29.5807 L -18.9793,29.5807 L -18.9799,29.5469 L -18.9818,29.4907 L -18.9848,29.4121
 L -18.9891,29.311 L -19.1966,29.311 L -19.1934,29.3934 L -19.1911,29.4721 L -19.1897,29.5472 L -19.1893,29.6186
 L -19.1893,30.6317 L -18.9695,30.6317 z
M 25.3736,30.6522 L 25.4445,30.6404 L 25.5094,30.6207 L 25.5683,30.5932 L 25.6224,30.5563 L 25.6731,30.5083
 L 25.7204,30.4492 L 25.7642,30.379 L 25.7715,30.379 L 25.7782,30.4428 L 25.7909,30.4976 L 25.8096,30.5432
 L 25.8344,30.5798 L 25.8663,30.6078 L 25.9065,30.6279 L 25.9551,30.6399 L 26.012,30.6439 L 26.0551,30.6427
 L 26.0977,30.639 L 26.1399,30.6329 L 26.1816,30.6244 L 26.1816,30.4876 L 26.162,30.4914 L 26.1435,30.494
 L 26.126,30.4957 L 26.1096,30.4962 L 26.0765,30.4931 L 26.0492,30.4838 L 26.0277,30.4684 L 26.012,30.4468
 L 26.0008,30.419 L 25.9928,30.3853 L 25.9879,30.3455 L 25.9863,30.2997 L 25.9863,29.7309 L 25.9785,29.6292
 L 25.9549,29.5403 L 25.9156,29.4641 L 25.8606,29.4007 L 25.79,29.3508 L 25.7041,29.3151 L 25.6027,29.2937
 L 25.4859,29.2866 L 25.2752,29.3089 L 25.1167,29.3757 L 25.0103,29.4871 L 24.9561,29.643 L 25.1856,29.6637
 L 25.1957,29.6126 L 25.2125,29.5688 L 25.236,29.5326 L 25.2662,29.5038 L 25.3048,29.4819 L 25.3535,29.4663
 L 25.4122,29.4569 L 25.481,29.4538 L 25.5494,29.4581 L 25.608,29.4712 L 25.6568,29.4929 L 25.6958,29.5234
 L 25.7257,29.5639 L 25.7471,29.6158 L 25.7599,29.6792 L 25.7642,29.7541 L 25.7642,29.8261 L 25.4676,29.831
 L 25.3278,29.841 L 25.2086,29.8639 L 25.1102,29.8996 L 25.0324,29.9482 L 24.9734,30.009 L 24.9313,30.0818
 L 24.906,30.1665 L 24.8976,30.2631 L 24.9038,30.3497 L 24.9226,30.4266 L 24.9538,30.4937 L 24.9976,30.5511
 L 25.0539,30.597 L 25.1225,30.6298 L 25.2034,30.6495 L 25.2967,30.6561 z
M 25.2961,30.4877 L 25.2517,30.4767 L 25.2134,30.4584 L 25.1813,30.4327 L 25.156,30.4004 L 25.1379,30.3619
 L 25.127,30.3174 L 25.1234,30.2667 L 25.126,30.2196 L 25.134,30.1773 L 25.1474,30.1397 L 25.1661,30.1068
 L 25.1898,30.0783 L 25.2181,30.0537 L 25.2511,30.0331 L 25.2887,30.0165 L 25.3334,30.0035 L 25.3875,29.9939
 L 25.4509,29.9877 L 25.5237,29.9848 L 25.7642,29.9799 L 25.7642,30.0885 L 25.7608,30.1388 L 25.7506,30.1884
 L 25.7336,30.2374 L 25.7099,30.2856 L 25.6802,30.331 L 25.6456,30.3712 L 25.6061,30.4064 L 25.5616,30.4364
 L 25.5129,30.4604 L 25.4609,30.4776 L 25.4055,30.4879 L 25.3467,30.4913 z
M -1.72418,30.6366 L -1.57076,30.578 L -1.45503,30.4803 L -1.37698,30.3436 L -1.56984,30.2887 L -1.58858,30.3307
 L -1.61424,30.3689 L -1.64687,30.4034 L -1.68642,30.4339 L -1.73299,30.459 L -1.78665,30.477 L -1.84741,30.4877
 L -1.91527,30.4913 L -2.0002,30.4836 L -2.07428,30.4605 L -2.13753,30.422 L -2.18994,30.368 L -2.23105,30.2999
 L -2.26042,30.2188 L -2.27805,30.1247 L -2.28392,30.0177 L -1.34158,30.0177 L -1.34158,29.9884 L -1.37798,29.6814
 L -1.48714,29.462 L -1.6691,29.3304 L -1.92383,29.2866 L -2.05783,29.2975 L -2.17543,29.3302 L -2.27663,29.3848
 L -2.36142,29.4611 L -2.42844,29.5579 L -2.4763,29.6738 L -2.50504,29.8088 L -2.5146,29.9628 L -2.50504,30.1243
 L -2.4763,30.2646 L -2.42844,30.3837 L -2.36142,30.4815 L -2.27609,30.5579 L -2.17329,30.6125 L -2.05301,30.6452
 L -1.91527,30.6561 z
M -2.28146,29.8493 L -2.27243,29.7609 L -2.25262,29.6825 L -2.22208,29.6141 L -2.18077,29.5557 L -2.12993,29.509
 L -2.07076,29.4756 L -2.00328,29.4556 L -1.92747,29.4489 L -1.8499,29.4549 L -1.78194,29.4729 L -1.72357,29.5028
 L -1.67484,29.5447 L -1.63524,29.5997 L -1.60434,29.6688 L -1.58214,29.752 L -1.56863,29.8493 z
M -12.8103,30.6522 L -12.7394,30.6404 L -12.6745,30.6207 L -12.6156,30.5932 L -12.5615,30.5563 L -12.5108,30.5083
 L -12.4635,30.4492 L -12.4197,30.379 L -12.4124,30.379 L -12.4057,30.4428 L -12.393,30.4976 L -12.3743,30.5432
 L -12.3496,30.5798 L -12.3176,30.6078 L -12.2774,30.6279 L -12.2288,30.6399 L -12.1719,30.6439 L -12.1288,30.6427
 L -12.0862,30.639 L -12.044,30.6329 L -12.0023,30.6244 L -12.0023,30.4876 L -12.0219,30.4914 L -12.0404,30.494
 L -12.0579,30.4957 L -12.0743,30.4962 L -12.1074,30.4931 L -12.1347,30.4838 L -12.1562,30.4684 L -12.172,30.4468
 L -12.1832,30.419 L -12.1912,30.3853 L -12.196,30.3455 L -12.1976,30.2997 L -12.1976,29.7309 L -12.2054,29.6292
 L -12.229,29.5403 L -12.2683,29.4641 L -12.3233,29.4007 L -12.3939,29.3508 L -12.4799,29.3151 L -12.5812,29.2937
 L -12.698,29.2866 L -12.9088,29.3089 L -13.0673,29.3757 L -13.1736,29.4871 L -13.2278,29.643 L -12.9983,29.6637
 L -12.9883,29.6126 L -12.9715,29.5688 L -12.948,29.5326 L -12.9178,29.5038 L -12.8792,29.4819 L -12.8305,29.4663
 L -12.7717,29.4569 L -12.7029,29.4538 L -12.6346,29.4581 L -12.576,29.4712 L -12.5271,29.4929 L -12.4881,29.5234
 L -12.4582,29.5639 L -12.4368,29.6158 L -12.424,29.6792 L -12.4197,29.7541 L -12.4197,29.8261 L -12.7164,29.831
 L -12.8562,29.841 L -12.9753,29.8639 L -13.0737,29.8996 L -13.1515,29.9482 L -13.2105,30.009 L -13.2527,30.0818
 L -13.2779,30.1665 L -13.2864,30.2631 L -13.2801,30.3497 L -13.2614,30.4266 L -13.2301,30.4937 L -13.1863,30.5511
 L -13.1301,30.597 L -13.0615,30.6298 L -12.9805,30.6495 L -12.8872,30.6561 z
M -12.8878,30.4877 L -12.9323,30.4767 L -12.9705,30.4584 L -13.0026,30.4327 L -13.028,30.4004 L -13.0461,30.3619
 L -13.0569,30.3174 L -13.0606,30.2667 L -13.0579,30.2196 L -13.0499,30.1773 L -13.0365,30.1397 L -13.0179,30.1068
 L -12.9942,30.0783 L -12.9658,30.0537 L -12.9328,30.0331 L -12.8952,30.0165 L -12.8505,30.0035 L -12.7964,29.9939
 L -12.733,29.9877 L -12.6602,29.9848 L -12.4197,29.9799 L -12.4197,30.0885 L -12.4231,30.1388 L -12.4333,30.1884
 L -12.4503,30.2374 L -12.474,30.2856 L -12.5037,30.331 L -12.5383,30.3712 L -12.5779,30.4064 L -12.6224,30.4364
 L -12.671,30.4604 L -12.7231,30.4776 L -12.7784,30.4879 L -12.8372,30.4913 z
M -34.659,30.6522 L -34.5881,30.6404 L -34.5232,30.6207 L -34.4643,30.5932 L -34.4102,30.5563 L -34.3595,30.5083
 L -34.3122,30.4492 L -34.2684,30.379 L -34.2611,30.379 L -34.2544,30.4428 L -34.2417,30.4976 L -34.223,30.5432
 L -34.1982,30.5798 L -34.1663,30.6078 L -34.1261,30.6279 L -34.0775,30.6399 L -34.0206,30.6439 L -33.9775,30.6427
 L -33.9349,30.639 L -33.8927,30.6329 L -33.851,30.6244 L -33.851,30.4876 L -33.8706,30.4914 L -33.8891,30.494
 L -33.9066,30.4957 L -33.923,30.4962 L -33.9561,30.4931 L -33.9834,30.4838 L -34.0049,30.4684 L -34.0206,30.4468
 L -34.0318,30.419 L -34.0399,30.3853 L -34.0447,30.3455 L -34.0463,30.2997 L -34.0463,29.7309 L -34.0541,29.6292
 L -34.0777,29.5403 L -34.117,29.4641 L -34.172,29.4007 L -34.2426,29.3508 L -34.3285,29.3151 L -34.4299,29.2937
 L -34.5467,29.2866 L -34.7574,29.3089 L -34.916,29.3757 L -35.0223,29.4871 L -35.0765,29.643 L -34.847,29.6637
 L -34.8369,29.6126 L -34.8201,29.5688 L -34.7966,29.5326 L -34.7664,29.5038 L -34.7278,29.4819 L -34.6792,29.4663
 L -34.6204,29.4569 L -34.5516,29.4538 L -34.4832,29.4581 L -34.4247,29.4712 L -34.3758,29.4929 L -34.3368,29.5234
 L -34.3069,29.5639 L -34.2855,29.6158 L -34.2727,29.6792 L -34.2684,29.7541 L -34.2684,29.8261 L -34.565,29.831
 L -34.7048,29.841 L -34.8239,29.8639 L -34.9224,29.8996 L -35.0002,29.9482 L -35.0592,30.009 L -35.1013,30.0818
 L -35.1266,30.1665 L -35.1351,30.2631 L -35.1288,30.3497 L -35.11,30.4266 L -35.0788,30.4937 L -35.035,30.5511
 L -34.9787,30.597 L -34.9102,30.6298 L -34.8292,30.6495 L -34.7359,30.6561 z
M -34.7365,30.4877 L -34.7809,30.4767 L -34.8192,30.4584 L -34.8513,30.4327 L -34.8766,30.4004 L -34.8947,30.3619
 L -34.9056,30.3174 L -34.9092,30.2667 L -34.9066,30.2196 L -34.8986,30.1773 L -34.8852,30.1397 L -34.8665,30.1068
 L -34.8428,30.0783 L -34.8145,30.0537 L -34.7815,30.0331 L -34.7439,30.0165 L -34.6992,30.0035 L -34.6451,29.9939
 L -34.5817,29.9877 L -34.5089,29.9848 L -34.2684,29.9799 L -34.2684,30.0885 L -34.2718,30.1388 L -34.282,30.1884
 L -34.299,30.2374 L -34.3227,30.2856 L -34.3524,30.331 L -34.387,30.3712 L -34.4265,30.4064 L -34.4711,30.4364
 L -34.5197,30.4604 L -34.5717,30.4776 L -34.6271,30.4879 L -34.6859,30.4913 z
M -39.2978,30.6455 L -39.1784,30.6137 L -39.0762,30.5607 L -38.9913,30.4864 L -38.9246,30.3905 L -38.8769,30.2725
 L -38.8483,30.1324 L -38.8387,29.9701 L -38.8477,29.8064 L -38.8745,29.6657 L -38.9191,29.548 L -38.9816,29.4532
 L -39.063,29.3803 L -39.1644,29.3282 L -39.2857,29.297 L -39.4271,29.2866 L -39.6861,29.3293 L -39.8711,29.4575
 L -39.9821,29.6711 L -40.0191,29.9701 L -40.0099,30.1269 L -39.9822,30.2641 L -39.936,30.3817 L -39.8714,30.4797
 L -39.7887,30.5569 L -39.6883,30.612 L -39.5702,30.6451 L -39.4344,30.6561 z
M -39.5217,30.4855 L -39.5945,30.4609 L -39.6551,30.4199 L -39.7036,30.3625 L -39.7407,30.2888 L -39.7672,30.1988
 L -39.7831,30.0926 L -39.7884,29.9701 L -39.783,29.8447 L -39.7669,29.7371 L -39.74,29.6473 L -39.7023,29.5753
 L -39.6526,29.52 L -39.5896,29.4805 L -39.5132,29.4568 L -39.4234,29.4489 L -39.3345,29.4567 L -39.2594,29.4799
 L -39.1981,29.5186 L -39.1506,29.5728 L -39.1151,29.6441 L -39.0897,29.7341 L -39.0745,29.8428 L -39.0694,29.9701
 L -39.0748,30.0961 L -39.0907,30.2042 L -39.1172,30.2944 L -39.1543,30.3668 L -39.2038,30.4223 L -39.2673,30.462
 L -39.345,30.4858 L -39.4369,30.4937 z
M -23.0429,29.8664 L -23.0372,29.7752 L -23.02,29.6946 L -22.9914,29.6245 L -22.9513,29.5649 L -22.9014,29.5173
 L -22.843,29.4834 L -22.7763,29.463 L -22.7011,29.4562 L -22.6501,29.4582 L -22.6056,29.4642 L -22.5677,29.4741
 L -22.5363,29.488 L -22.5102,29.5064 L -22.4878,29.5298 L -22.4693,29.5582 L -22.4546,29.5917 L -22.4433,29.6314
 L -22.4353,29.6784 L -22.4305,29.7327 L -22.4289,29.7944 L -22.4289,30.6317 L -22.208,30.6317 L -22.208,29.7516
 L -22.2143,29.6359 L -22.2332,29.5379 L -22.2646,29.4574 L -22.3087,29.3946 L -22.3663,29.3473 L -22.4385,29.3136
 L -22.5253,29.2933 L -22.6267,29.2866 L -22.6975,29.2901 L -22.7623,29.3008 L -22.8211,29.3185 L -22.8739,29.3433
 L -22.9221,29.3767 L -22.9674,29.4201 L -23.0097,29.4734 L -23.049,29.5368 L -23.0527,29.5368 L -23.0538,29.4924
 L -23.0549,29.4558 L -23.056,29.4268 L -23.0569,29.4056 L -23.0593,29.3579 L -23.0606,29.3318 L -23.0612,29.3223
 L -23.0618,29.3153 L -23.0624,29.311 L -23.2699,29.311 L -23.2667,29.3478 L -23.2645,29.4071 L -23.2631,29.4888
 L -23.2626,29.593 L -23.2626,30.6317 L -23.0429,30.6317 z
M 15.6032,30.6522 L 15.6741,30.6404 L 15.739,30.6207 L 15.7979,30.5932 L 15.852,30.5563 L 15.9027,30.5083
 L 15.95,30.4492 L 15.9938,30.379 L 16.0011,30.379 L 16.0078,30.4428 L 16.0205,30.4976 L 16.0392,30.5432
 L 16.064,30.5798 L 16.0959,30.6078 L 16.1362,30.6279 L 16.1847,30.6399 L 16.2416,30.6439 L 16.2847,30.6427
 L 16.3273,30.639 L 16.3695,30.6329 L 16.4112,30.6244 L 16.4112,30.4876 L 16.3916,30.4914 L 16.3731,30.494
 L 16.3556,30.4957 L 16.3392,30.4962 L 16.3061,30.4931 L 16.2788,30.4838 L 16.2573,30.4684 L 16.2416,30.4468
 L 16.2304,30.419 L 16.2224,30.3853 L 16.2175,30.3455 L 16.2159,30.2997 L 16.2159,29.7309 L 16.2081,29.6292
 L 16.1845,29.5403 L 16.1452,29.4641 L 16.0902,29.4007 L 16.0197,29.3508 L 15.9337,29.3151 L 15.8323,29.2937
 L 15.7155,29.2866 L 15.5048,29.3089 L 15.3463,29.3757 L 15.2399,29.4871 L 15.1857,29.643 L 15.4152,29.6637
 L 15.4253,29.6126 L 15.4421,29.5688 L 15.4656,29.5326 L 15.4958,29.5038 L 15.5344,29.4819 L 15.5831,29.4663
 L 15.6418,29.4569 L 15.7106,29.4538 L 15.779,29.4581 L 15.8376,29.4712 L 15.8864,29.4929 L 15.9254,29.5234
 L 15.9554,29.5639 L 15.9767,29.6158 L 15.9895,29.6792 L 15.9938,29.7541 L 15.9938,29.8261 L 15.6972,29.831
 L 15.5574,29.841 L 15.4383,29.8639 L 15.3398,29.8996 L 15.262,29.9482 L 15.203,30.009 L 15.1609,30.0818
 L 15.1356,30.1665 L 15.1272,30.2631 L 15.1334,30.3497 L 15.1522,30.4266 L 15.1835,30.4937 L 15.2272,30.5511
 L 15.2835,30.597 L 15.3521,30.6298 L 15.433,30.6495 L 15.5263,30.6561 z
M 15.5257,30.4877 L 15.4813,30.4767 L 15.443,30.4584 L 15.4109,30.4327 L 15.3856,30.4004 L 15.3675,30.3619
 L 15.3566,30.3174 L 15.353,30.2667 L 15.3556,30.2196 L 15.3636,30.1773 L 15.377,30.1397 L 15.3957,30.1068
 L 15.4194,30.0783 L 15.4477,30.0537 L 15.4807,30.0331 L 15.5184,30.0165 L 15.563,30.0035 L 15.6171,29.9939
 L 15.6805,29.9877 L 15.7533,29.9848 L 15.9938,29.9799 L 15.9938,30.0885 L 15.9904,30.1388 L 15.9802,30.1884
 L 15.9632,30.2374 L 15.9395,30.2856 L 15.9098,30.331 L 15.8752,30.3712 L 15.8357,30.4064 L 15.7912,30.4364
 L 15.7425,30.4604 L 15.6905,30.4776 L 15.6351,30.4879 L 15.5763,30.4913 z
M 19.2411,30.6455 L 19.3605,30.6137 L 19.4627,30.5607 L 19.5476,30.4864 L 19.6143,30.3905 L 19.662,30.2725
 L 19.6906,30.1324 L 19.7002,29.9701 L 19.6912,29.8064 L 19.6645,29.6657 L 19.6198,29.548 L 19.5573,29.4532
 L 19.4759,29.3803 L 19.3745,29.3282 L 19.2532,29.297 L 19.1118,29.2866 L 18.8528,29.3293 L 18.6678,29.4575
 L 18.5568,29.6711 L 18.5198,29.9701 L 18.529,30.1269 L 18.5567,30.2641 L 18.6029,30.3817 L 18.6675,30.4797
 L 18.7502,30.5569 L 18.8506,30.612 L 18.9687,30.6451 L 19.1045,30.6561 z
M 19.0172,30.4855 L 18.9444,30.4609 L 18.8838,30.4199 L 18.8353,30.3625 L 18.7982,30.2888 L 18.7717,30.1988
 L 18.7558,30.0926 L 18.7505,29.9701 L 18.7559,29.8447 L 18.772,29.7371 L 18.7989,29.6473 L 18.8366,29.5753
 L 18.8863,29.52 L 18.9493,29.4805 L 19.0257,29.4568 L 19.1155,29.4489 L 19.2044,29.4567 L 19.2795,29.4799
 L 19.3408,29.5186 L 19.3883,29.5728 L 19.4238,29.6441 L 19.4492,29.7341 L 19.4644,29.8428 L 19.4695,29.9701
 L 19.4642,30.0961 L 19.4482,30.2042 L 19.4217,30.2944 L 19.3846,30.3668 L 19.3351,30.4223 L 19.2716,30.462
 L 19.1939,30.4858 L 19.102,30.4937 z
M -14.532,30.6366 L -14.3786,30.578 L -14.2629,30.4803 L -14.1848,30.3436 L -14.3777,30.2887 L -14.3964,30.3307
 L -14.4221,30.3689 L -14.4547,30.4034 L -14.4943,30.4339 L -14.5408,30.459 L -14.5945,30.477 L -14.6553,30.4877
 L -14.7231,30.4913 L -14.8081,30.4836 L -14.8821,30.4605 L -14.9454,30.422 L -14.9978,30.368 L -15.0389,30.2999
 L -15.0683,30.2188 L -15.0859,30.1247 L -15.0918,30.0177 L -14.1494,30.0177 L -14.1494,29.9884 L -14.1858,29.6814
 L -14.295,29.462 L -14.477,29.3304 L -14.7317,29.2866 L -14.8657,29.2975 L -14.9833,29.3302 L -15.0845,29.3848
 L -15.1693,29.4611 L -15.2363,29.5579 L -15.2842,29.6738 L -15.3129,29.8088 L -15.3225,29.9628 L -15.3129,30.1243
 L -15.2842,30.2646 L -15.2363,30.3837 L -15.1693,30.4815 L -15.084,30.5579 L -14.9812,30.6125 L -14.8609,30.6452
 L -14.7231,30.6561 z
M -15.0893,29.8493 L -15.0803,29.7609 L -15.0605,29.6825 L -15.0299,29.6141 L -14.9886,29.5557 L -14.9378,29.509
 L -14.8786,29.4756 L -14.8111,29.4556 L -14.7353,29.4489 L -14.6578,29.4549 L -14.5898,29.4729 L -14.5314,29.5028
 L -14.4827,29.5447 L -14.4431,29.5997 L -14.4122,29.6688 L -14.39,29.752 L -14.3765,29.8493 z
M 13.8111,30.6455 L 13.9305,30.6137 L 14.0327,30.5607 L 14.1176,30.4864 L 14.1844,30.3905 L 14.232,30.2725
 L 14.2607,30.1324 L 14.2702,29.9701 L 14.2613,29.8064 L 14.2345,29.6657 L 14.1898,29.548 L 14.1274,29.4532
 L 14.046,29.3803 L 13.9446,29.3282 L 13.8232,29.297 L 13.6818,29.2866 L 13.4228,29.3293 L 13.2378,29.4575
 L 13.1268,29.6711 L 13.0898,29.9701 L 13.0991,30.1269 L 13.1268,30.2641 L 13.1729,30.3817 L 13.2375,30.4797
 L 13.3202,30.5569 L 13.4206,30.612 L 13.5387,30.6451 L 13.6745,30.6561 z
M 13.5872,30.4855 L 13.5145,30.4609 L 13.4538,30.4199 L 13.4054,30.3625 L 13.3683,30.2888 L 13.3417,30.1988
 L 13.3258,30.0926 L 13.3205,29.9701 L 13.3259,29.8447 L 13.342,29.7371 L 13.3689,29.6473 L 13.4066,29.5753
 L 13.4563,29.52 L 13.5193,29.4805 L 13.5957,29.4568 L 13.6855,29.4489 L 13.7744,29.4567 L 13.8495,29.4799
 L 13.9108,29.5186 L 13.9583,29.5728 L 13.9938,29.6441 L 14.0192,29.7341 L 14.0344,29.8428 L 14.0395,29.9701
 L 14.0342,30.0961 L 14.0183,30.2042 L 13.9918,30.2944 L 13.9547,30.3668 L 13.9052,30.4223 L 13.8416,30.462
 L 13.7639,30.4858 L 13.6721,30.4937 z
M -35.6612,29.9433 L -35.6567,29.8398 L -35.6432,29.749 L -35.6207,29.671 L -35.5892,29.6058 L -35.5491,29.5542
 L -35.501,29.5174 L -35.4448,29.4953 L -35.3805,29.488 L -35.3457,29.4887 L -35.3146,29.491 L -35.2871,29.4948
 L -35.2633,29.5002 L -35.2633,29.2988 L -35.2858,29.2934 L -35.3082,29.2896 L -35.3304,29.2873 L -35.3524,29.2866
 L -35.4111,29.2905 L -35.4629,29.3021 L -35.5076,29.3216 L -35.5453,29.3488 L -35.5784,29.3867 L -35.6096,29.4379
 L -35.6389,29.5026 L -35.6661,29.5807 L -35.671,29.5807 L -35.6716,29.5469 L -35.6734,29.4907 L -35.6765,29.4121
 L -35.6807,29.311 L -35.8882,29.311 L -35.885,29.3934 L -35.8828,29.4721 L -35.8814,29.5472 L -35.8809,29.6186
 L -35.8809,30.6317 L -35.6612,30.6317 z
M 32.7598,30.649 L 32.8511,30.6277 L 32.9332,30.5922 L 33.0061,30.5426 L 33.0675,30.481 L 33.1151,30.4098
 L 33.1487,30.329 L 33.1685,30.2386 L 32.9463,30.224 L 32.9334,30.2856 L 32.9129,30.3387 L 32.8848,30.3833
 L 32.8493,30.4193 L 32.8075,30.4471 L 32.7609,30.4669 L 32.7095,30.4788 L 32.6534,30.4828 L 32.575,30.4748
 L 32.5072,30.451 L 32.4499,30.4114 L 32.4031,30.3558 L 32.3668,30.2838 L 32.3409,30.1947 L 32.3253,30.0885
 L 32.3201,29.9652 L 32.325,29.8378 L 32.3396,29.7303 L 32.3641,29.6425 L 32.3982,29.5746 L 32.4433,29.5239
 L 32.5005,29.4877 L 32.5697,29.4659 L 32.6509,29.4587 L 32.7113,29.4627 L 32.7644,29.4748 L 32.8102,29.4951
 L 32.8486,29.5234 L 32.8802,29.5585 L 32.9051,29.5993 L 32.9235,29.6458 L 32.9353,29.6979 L 33.1611,29.6808
 L 33.1378,29.5936 L 33.1021,29.5163 L 33.0539,29.449 L 32.9933,29.3916 L 32.9221,29.3456 L 32.8424,29.3128
 L 32.754,29.2931 L 32.657,29.2866 L 32.5282,29.2975 L 32.4153,29.3304 L 32.3183,29.3851 L 32.2371,29.4617
 L 32.173,29.5592 L 32.1273,29.6764 L 32.0998,29.8134 L 32.0907,29.9701 L 32.0998,30.1279 L 32.1271,30.2656
 L 32.1727,30.3833 L 32.2365,30.4809 L 32.3176,30.5576 L 32.4152,30.6123 L 32.5291,30.6451 L 32.6594,30.6561
 z
M -42.0122,30.6455 L -41.8928,30.6137 L -41.7906,30.5607 L -41.7057,30.4864 L -41.639,30.3905 L -41.5913,30.2725
 L -41.5627,30.1324 L -41.5531,29.9701 L -41.5621,29.8064 L -41.5889,29.6657 L -41.6335,29.548 L -41.696,29.4532
 L -41.7774,29.3803 L -41.8788,29.3282 L -42.0001,29.297 L -42.1415,29.2866 L -42.4005,29.3293 L -42.5855,29.4575
 L -42.6965,29.6711 L -42.7335,29.9701 L -42.7243,30.1269 L -42.6966,30.2641 L -42.6504,30.3817 L -42.5858,30.4797
 L -42.5031,30.5569 L -42.4027,30.612 L -42.2846,30.6451 L -42.1488,30.6561 z
M -42.2361,30.4855 L -42.3089,30.4609 L -42.3695,30.4199 L -42.418,30.3625 L -42.4551,30.2888 L -42.4816,30.1988
 L -42.4975,30.0926 L -42.5028,29.9701 L -42.4974,29.8447 L -42.4813,29.7371 L -42.4544,29.6473 L -42.4167,29.5753
 L -42.367,29.52 L -42.304,29.4805 L -42.2276,29.4568 L -42.1378,29.4489 L -42.0489,29.4567 L -41.9738,29.4799
 L -41.9125,29.5186 L -41.865,29.5728 L -41.8295,29.6441 L -41.8041,29.7341 L -41.7889,29.8428 L -41.7838,29.9701
 L -41.7891,30.0961 L -41.8051,30.2042 L -41.8316,30.2944 L -41.8687,30.3668 L -41.9182,30.4223 L -41.9817,30.462
 L -42.0594,30.4858 L -42.1513,30.4937 z
M 2.34799,30.6366 L 2.5014,30.578 L 2.61714,30.4803 L 2.69519,30.3436 L 2.50233,30.2887 L 2.4836,30.3307
 L 2.45792,30.3689 L 2.42531,30.4034 L 2.38574,30.4339 L 2.33917,30.459 L 2.28551,30.477 L 2.22475,30.4877
 L 2.15689,30.4913 L 2.07198,30.4836 L 1.99789,30.4605 L 1.93465,30.422 L 1.88223,30.368 L 1.84111,30.2999
 L 1.81175,30.2188 L 1.79413,30.1247 L 1.78825,30.0177 L 2.73059,30.0177 L 2.73059,29.9884 L 2.6942,29.6814
 L 2.58502,29.462 L 2.40308,29.3304 L 2.14835,29.2866 L 2.01434,29.2975 L 1.89674,29.3302 L 1.79555,29.3848
 L 1.71074,29.4611 L 1.64372,29.5579 L 1.59586,29.6738 L 1.56714,29.8088 L 1.55757,29.9628 L 1.56714,30.1243
 L 1.59586,30.2646 L 1.64372,30.3837 L 1.71074,30.4815 L 1.79608,30.5579 L 1.89888,30.6125 L 2.01915,30.6452
 L 2.15689,30.6561 z
M 1.7907,29.8493 L 1.79974,29.7609 L 1.81953,29.6825 L 1.85008,29.6141 L 1.89139,29.5557 L 1.94225,29.509
 L 2.0014,29.4756 L 2.06889,29.4556 L 2.14468,29.4489 L 2.22227,29.4549 L 2.29024,29.4729 L 2.34859,29.5028
 L 2.39734,29.5447 L 2.43694,29.5997 L 2.46783,29.6688 L 2.49004,29.752 L 2.50354,29.8493 z
M 11.3418,29.8664 L 11.3475,29.7752 L 11.3647,29.6946 L 11.3933,29.6245 L 11.4334,29.5649 L 11.4833,29.5173
 L 11.5417,29.4834 L 11.6084,29.463 L 11.6836,29.4562 L 11.7346,29.4582 L 11.7791,29.4642 L 11.817,29.4741
 L 11.8484,29.488 L 11.8745,29.5064 L 11.8969,29.5298 L 11.9154,29.5582 L 11.9301,29.5917 L 11.9414,29.6314
 L 11.9494,29.6784 L 11.9542,29.7327 L 11.9558,29.7944 L 11.9558,30.6317 L 12.1767,30.6317 L 12.1767,29.7516
 L 12.1704,29.6359 L 12.1515,29.5379 L 12.1201,29.4574 L 12.076,29.3946 L 12.0184,29.3473 L 11.9462,29.3136
 L 11.8594,29.2933 L 11.7581,29.2866 L 11.6872,29.2901 L 11.6224,29.3008 L 11.5636,29.3185 L 11.5109,29.3433
 L 11.4626,29.3767 L 11.4173,29.4201 L 11.375,29.4734 L 11.3357,29.5368 L 11.332,29.5368 L 11.3309,29.4924
 L 11.3298,29.4558 L 11.3287,29.4268 L 11.3278,29.4056 L 11.3261,29.3728 L 11.3247,29.3439 L 11.3241,29.3318
 L 11.3235,29.3223 L 11.3229,29.3153 L 11.3223,29.311 L 11.1148,29.311 L 11.118,29.3478 L 11.1203,29.4071
 L 11.1216,29.4888 L 11.1221,29.593 L 11.1221,30.6317 L 11.3418,30.6317 z
M 45.9071,30.6366 L 46.0605,30.578 L 46.1762,30.4803 L 46.2543,30.3436 L 46.0614,30.2887 L 46.0427,30.3307
 L 46.017,30.3689 L 45.9844,30.4034 L 45.9449,30.4339 L 45.8983,30.459 L 45.8446,30.477 L 45.7839,30.4877
 L 45.716,30.4913 L 45.6311,30.4836 L 45.557,30.4605 L 45.4937,30.422 L 45.4413,30.368 L 45.4002,30.2999
 L 45.3708,30.2188 L 45.3532,30.1247 L 45.3474,30.0177 L 46.2897,30.0177 L 46.2897,29.9884 L 46.2533,29.6814
 L 46.1441,29.462 L 45.9622,29.3304 L 45.7074,29.2866 L 45.5734,29.2975 L 45.4558,29.3302 L 45.3546,29.3848
 L 45.2699,29.4611 L 45.2028,29.5579 L 45.155,29.6738 L 45.1262,29.8088 L 45.1167,29.9628 L 45.1262,30.1243
 L 45.155,30.2646 L 45.2028,30.3837 L 45.2699,30.4815 L 45.3552,30.5579 L 45.458,30.6125 L 45.5783,30.6452
 L 45.716,30.6561 z
M 45.3498,29.8493 L 45.3588,29.7609 L 45.3786,29.6825 L 45.4092,29.6141 L 45.4505,29.5557 L 45.5013,29.509
 L 45.5605,29.4756 L 45.628,29.4556 L 45.7038,29.4489 L 45.7814,29.4549 L 45.8493,29.4729 L 45.9077,29.5028
 L 45.9564,29.5447 L 45.996,29.5997 L 46.0269,29.6688 L 46.0491,29.752 L 46.0626,29.8493 z
M 31.2089,30.6522 L 31.2798,30.6404 L 31.3447,30.6207 L 31.4036,30.5932 L 31.4577,30.5563 L 31.5084,30.5083
 L 31.5557,30.4492 L 31.5995,30.379 L 31.6068,30.379 L 31.6135,30.4428 L 31.6262,30.4976 L 31.6449,30.5432
 L 31.6697,30.5798 L 31.7016,30.6078 L 31.7419,30.6279 L 31.7904,30.6399 L 31.8473,30.6439 L 31.8904,30.6427
 L 31.933,30.639 L 31.9752,30.6329 L 32.0169,30.6244 L 32.0169,30.4876 L 31.9973,30.4914 L 31.9788,30.494
 L 31.9613,30.4957 L 31.9449,30.4962 L 31.9118,30.4931 L 31.8845,30.4838 L 31.863,30.4684 L 31.8473,30.4468
 L 31.8361,30.419 L 31.828,30.3853 L 31.8232,30.3455 L 31.8216,30.2997 L 31.8216,29.7309 L 31.8138,29.6292
 L 31.7902,29.5403 L 31.7509,29.4641 L 31.6959,29.4007 L 31.6254,29.3508 L 31.5394,29.3151 L 31.438,29.2937
 L 31.3212,29.2866 L 31.1105,29.3089 L 30.952,29.3757 L 30.8456,29.4871 L 30.7914,29.643 L 31.0209,29.6637
 L 31.031,29.6126 L 31.0478,29.5688 L 31.0713,29.5326 L 31.1015,29.5038 L 31.1401,29.4819 L 31.1888,29.4663
 L 31.2475,29.4569 L 31.3163,29.4538 L 31.3847,29.4581 L 31.4433,29.4712 L 31.4921,29.4929 L 31.5311,29.5234
 L 31.5611,29.5639 L 31.5824,29.6158 L 31.5952,29.6792 L 31.5995,29.7541 L 31.5995,29.8261 L 31.3029,29.831
 L 31.1631,29.841 L 31.044,29.8639 L 30.9455,29.8996 L 30.8677,29.9482 L 30.8087,30.009 L 30.7666,30.0818
 L 30.7413,30.1665 L 30.7329,30.2631 L 30.7391,30.3497 L 30.7579,30.4266 L 30.7892,30.4937 L 30.8329,30.5511
 L 30.8892,30.597 L 30.9577,30.6298 L 31.0387,30.6495 L 31.132,30.6561 z
M 31.1314,30.4877 L 31.087,30.4767 L 31.0487,30.4584 L 31.0166,30.4327 L 30.9913,30.4004 L 30.9732,30.3619
 L 30.9623,30.3174 L 30.9587,30.2667 L 30.9613,30.2196 L 30.9693,30.1773 L 30.9827,30.1397 L 31.0014,30.1068
 L 31.0251,30.0783 L 31.0534,30.0537 L 31.0864,30.0331 L 31.1241,30.0165 L 31.1687,30.0035 L 31.2228,29.9939
 L 31.2862,29.9877 L 31.359,29.9848 L 31.5995,29.9799 L 31.5995,30.0885 L 31.5961,30.1388 L 31.5859,30.1884
 L 31.569,30.2374 L 31.5452,30.2856 L 31.5155,30.331 L 31.4809,30.3712 L 31.4414,30.4064 L 31.3969,30.4364
 L 31.3482,30.4604 L 31.2962,30.4776 L 31.2408,30.4879 L 31.1821,30.4913 z
M -4.37302,30.6455 L -4.25363,30.6137 L -4.15147,30.5607 L -4.06656,30.4864 L -3.9998,30.3905 L -3.95212,30.2725
 L -3.92351,30.1324 L -3.91397,29.9701 L -3.9229,29.8064 L -3.94969,29.6657 L -3.99432,29.548 L -4.05681,29.4532
 L -4.1382,29.3803 L -4.23959,29.3282 L -4.36096,29.297 L -4.50232,29.2866 L -4.76132,29.3293 L -4.94632,29.4575
 L -5.05733,29.6711 L -5.09433,29.9701 L -5.0851,30.1269 L -5.0574,30.2641 L -5.01125,30.3817 L -4.94664,30.4797
 L -4.86394,30.5569 L -4.76353,30.612 L -4.64545,30.6451 L -4.50964,30.6561 z
M -4.59697,30.4855 L -4.66971,30.4609 L -4.73032,30.4199 L -4.77881,30.3625 L -4.81592,30.2888 L -4.84244,30.1988
 L -4.85834,30.0926 L -4.86363,29.9701 L -4.85826,29.8447 L -4.84212,29.7371 L -4.81523,29.6473 L -4.77759,29.5753
 L -4.72787,29.52 L -4.66483,29.4805 L -4.58842,29.4568 L -4.49867,29.4489 L -4.40976,29.4567 L -4.33464,29.4799
 L -4.27335,29.5186 L -4.22586,29.5728 L -4.19035,29.6441 L -4.16498,29.7341 L -4.14975,29.8428 L -4.14468,29.9701
 L -4.14998,30.0961 L -4.16589,30.2042 L -4.1924,30.2944 L -4.22952,30.3668 L -4.27899,30.4223 L -4.34258,30.462
 L -4.42029,30.4858 L -4.5121,30.4937 z
M 34.1018,30.6366 L 34.2552,30.578 L 34.3709,30.4803 L 34.449,30.3436 L 34.2561,30.2887 L 34.2374,30.3307
 L 34.2117,30.3689 L 34.1791,30.4034 L 34.1395,30.4339 L 34.093,30.459 L 34.0393,30.477 L 33.9785,30.4877
 L 33.9107,30.4913 L 33.8258,30.4836 L 33.7517,30.4605 L 33.6884,30.422 L 33.636,30.368 L 33.5949,30.2999
 L 33.5655,30.2188 L 33.5479,30.1247 L 33.5421,30.0177 L 34.4844,30.0177 L 34.4844,29.9884 L 34.448,29.6814
 L 34.3388,29.462 L 34.1569,29.3304 L 33.9021,29.2866 L 33.7681,29.2975 L 33.6505,29.3302 L 33.5493,29.3848
 L 33.4645,29.4611 L 33.3975,29.5579 L 33.3497,29.6738 L 33.3209,29.8088 L 33.3114,29.9628 L 33.3209,30.1243
 L 33.3497,30.2646 L 33.3975,30.3837 L 33.4645,30.4815 L 33.5499,30.5579 L 33.6527,30.6125 L 33.7729,30.6452
 L 33.9107,30.6561 z
M 33.5445,29.8493 L 33.5535,29.7609 L 33.5733,29.6825 L 33.6039,29.6141 L 33.6452,29.5557 L 33.696,29.509
 L 33.7552,29.4756 L 33.8227,29.4556 L 33.8985,29.4489 L 33.9761,29.4549 L 34.044,29.4729 L 34.1024,29.5028
 L 34.1511,29.5447 L 34.1907,29.5997 L 34.2216,29.6688 L 34.2438,29.752 L 34.2573,29.8493 z
M -3.09789,30.6497 L -2.99211,30.6308 L -2.90045,30.5991 L -2.82291,30.5548 L -2.76123,30.4988 L -2.71716,30.4321
 L -2.69073,30.3548 L -2.68192,30.2667 L -2.68344,30.2299 L -2.68802,30.1952 L -2.69566,30.1625 L -2.70634,30.1318
 L -2.7198,30.1031 L -2.73579,30.0761 L -2.75429,30.0509 L -2.7753,30.0275 L -2.79961,30.0054 L -2.82794,29.9843
 L -2.86032,29.9642 L -2.89674,29.9451 L -2.9413,29.9261 L -2.99806,29.9062 L -3.06702,29.8855 L -3.14819,29.8639
 L -3.23242,29.8426 L -3.30078,29.8236 L -3.35327,29.8072 L -3.38989,29.7931 L -3.41682,29.7796 L -3.44025,29.7648
 L -3.46016,29.7485 L -3.47656,29.7309 L -3.48938,29.7113 L -3.49854,29.6894 L -3.50403,29.665 L -3.50586,29.6381
 L -3.50143,29.5952 L -3.48816,29.5582 L -3.46603,29.5269 L -3.43506,29.5014 L -3.39478,29.4816 L -3.34473,29.4675
 L -3.28491,29.4591 L -3.21533,29.4562 L -3.1516,29.4592 L -3.09465,29.468 L -3.04448,29.4827 L -3.00111,29.5032
 L -2.965,29.5293 L -2.93657,29.5604 L -2.91586,29.5967 L -2.90285,29.6381 L -2.70512,29.6137 L -2.72812,29.5347
 L -2.76294,29.4672 L -2.8096,29.4114 L -2.86807,29.3671 L -2.93806,29.3335 L -3.01927,29.3094 L -3.11169,29.295
 L -3.21533,29.2902 L -3.33125,29.2961 L -3.43245,29.3139 L -3.51894,29.3434 L -3.59068,29.3848 L -3.64702,29.4375
 L -3.68727,29.5009 L -3.71141,29.5751 L -3.71945,29.6601 L -3.71663,29.707 L -3.70816,29.7501 L -3.69406,29.7894
 L -3.6743,29.8249 L -3.64954,29.8572 L -3.62044,29.887 L -3.58698,29.9142 L -3.54918,29.939 L -3.50237,29.9626
 L -3.44191,29.9865 L -3.3678,30.0105 L -3.28003,30.0348 L -3.12256,30.0763 L -3.06688,30.0932 L -3.01942,30.1123
 L -2.98021,30.1335 L -2.94923,30.1569 L -2.92574,30.1831 L -2.90895,30.213 L -2.89888,30.2466 L -2.89552,30.2838
 L -2.90038,30.3319 L -2.9149,30.3735 L -2.93912,30.4088 L -2.97304,30.4376 L -3.0174,30.46 L -3.07297,30.4761
 L -3.13977,30.4857 L -3.21777,30.4889 L -3.29163,30.4858 L -3.35693,30.4765 L -3.4137,30.4611 L -3.46191,30.4394
 L -3.50212,30.4112 L -3.53484,30.3758 L -3.56009,30.3333 L -3.57785,30.2838 L -3.77194,30.3217 L -3.74597,30.402
 L -3.70831,30.471 L -3.659,30.5287 L -3.59801,30.5749 L -3.52412,30.6104 L -3.43613,30.6358 L -3.334,30.651
 L -3.21777,30.6561 z
M 35.3066,30.6497 L 35.4123,30.6308 L 35.504,30.5991 L 35.5815,30.5548 L 35.6432,30.4988 L 35.6873,30.4321
 L 35.7137,30.3548 L 35.7225,30.2667 L 35.721,30.2299 L 35.7164,30.1952 L 35.7088,30.1625 L 35.6981,30.1318
 L 35.6846,30.1031 L 35.6687,30.0761 L 35.6502,30.0509 L 35.6292,30.0275 L 35.6049,30.0054 L 35.5765,29.9843
 L 35.5441,29.9642 L 35.5077,29.9451 L 35.4632,29.9261 L 35.4064,29.9062 L 35.3374,29.8855 L 35.2563,29.8639
 L 35.172,29.8426 L 35.1037,29.8236 L 35.0512,29.8072 L 35.0146,29.7931 L 34.9876,29.7796 L 34.9642,29.7648
 L 34.9443,29.7485 L 34.9279,29.7309 L 34.9151,29.7113 L 34.9059,29.6894 L 34.9004,29.665 L 34.8986,29.6381
 L 34.903,29.5952 L 34.9163,29.5582 L 34.9384,29.5269 L 34.9694,29.5014 L 35.0097,29.4816 L 35.0597,29.4675
 L 35.1196,29.4591 L 35.1891,29.4562 L 35.2529,29.4592 L 35.3098,29.468 L 35.36,29.4827 L 35.4034,29.5032
 L 35.4395,29.5293 L 35.4679,29.5604 L 35.4886,29.5967 L 35.5016,29.6381 L 35.6993,29.6137 L 35.6763,29.5347
 L 35.6415,29.4672 L 35.5949,29.4114 L 35.5364,29.3671 L 35.4664,29.3335 L 35.3852,29.3094 L 35.2928,29.295
 L 35.1891,29.2902 L 35.0732,29.2961 L 34.972,29.3139 L 34.8855,29.3434 L 34.8138,29.3848 L 34.7574,29.4375
 L 34.7172,29.5009 L 34.6931,29.5751 L 34.685,29.6601 L 34.6878,29.707 L 34.6963,29.7501 L 34.7104,29.7894
 L 34.7302,29.8249 L 34.7549,29.8572 L 34.784,29.887 L 34.8175,29.9142 L 34.8553,29.939 L 34.9021,29.9626
 L 34.9626,29.9865 L 35.0367,30.0105 L 35.1244,30.0348 L 35.2819,30.0763 L 35.3376,30.0932 L 35.385,30.1123
 L 35.4243,30.1335 L 35.4552,30.1569 L 35.4787,30.1831 L 35.4955,30.213 L 35.5056,30.2466 L 35.5089,30.2838
 L 35.5041,30.3319 L 35.4896,30.3735 L 35.4653,30.4088 L 35.4314,30.4376 L 35.3871,30.46 L 35.3315,30.4761
 L 35.2647,30.4857 L 35.1867,30.4889 L 35.1128,30.4858 L 35.0475,30.4765 L 34.9908,30.4611 L 34.9426,30.4394
 L 34.9023,30.4112 L 34.8696,30.3758 L 34.8444,30.3333 L 34.8266,30.2838 L 34.6325,30.3217 L 34.6585,30.402
 L 34.6961,30.471 L 34.7455,30.5287 L 34.8064,30.5749 L 34.8803,30.6104 L 34.9683,30.6358 L 35.0704,30.651
 L 35.1867,30.6561 z
M -32.055,30.6497 L -31.9492,30.6308 L -31.8576,30.5991 L -31.78,30.5548 L -31.7184,30.4988 L -31.6743,30.4321
 L -31.6479,30.3548 L -31.6391,30.2667 L -31.6406,30.2299 L -31.6452,30.1952 L -31.6528,30.1625 L -31.6635,30.1318
 L -31.6769,30.1031 L -31.6929,30.0761 L -31.7114,30.0509 L -31.7324,30.0275 L -31.7567,30.0054 L -31.7851,29.9843
 L -31.8175,29.9642 L -31.8539,29.9451 L -31.8984,29.9261 L -31.9552,29.9062 L -32.0242,29.8855 L -32.1053,29.8639
 L -32.1895,29.8426 L -32.2579,29.8236 L -32.3104,29.8072 L -32.347,29.7931 L -32.374,29.7796 L -32.3974,29.7648
 L -32.4173,29.7485 L -32.4337,29.7309 L -32.4465,29.7113 L -32.4557,29.6894 L -32.4612,29.665 L -32.463,29.6381
 L -32.4586,29.5952 L -32.4453,29.5582 L -32.4232,29.5269 L -32.3922,29.5014 L -32.3519,29.4816 L -32.3018,29.4675
 L -32.242,29.4591 L -32.1725,29.4562 L -32.1087,29.4592 L -32.0518,29.468 L -32.0016,29.4827 L -31.9583,29.5032
 L -31.9221,29.5293 L -31.8937,29.5604 L -31.873,29.5967 L -31.86,29.6381 L -31.6622,29.6137 L -31.6852,29.5347
 L -31.7201,29.4672 L -31.7667,29.4114 L -31.8252,29.3671 L -31.8952,29.3335 L -31.9764,29.3094 L -32.0688,29.295
 L -32.1725,29.2902 L -32.2884,29.2961 L -32.3896,29.3139 L -32.4761,29.3434 L -32.5478,29.3848 L -32.6042,29.4375
 L -32.6444,29.5009 L -32.6685,29.5751 L -32.6766,29.6601 L -32.6738,29.707 L -32.6653,29.7501 L -32.6512,29.7894
 L -32.6314,29.8249 L -32.6067,29.8572 L -32.5776,29.887 L -32.5441,29.9142 L -32.5063,29.939 L -32.4595,29.9626
 L -32.399,29.9865 L -32.3249,30.0105 L -32.2372,30.0348 L -32.0797,30.0763 L -32.024,30.0932 L -31.9766,30.1123
 L -31.9373,30.1335 L -31.9064,30.1569 L -31.8829,30.1831 L -31.8661,30.213 L -31.856,30.2466 L -31.8527,30.2838
 L -31.8575,30.3319 L -31.872,30.3735 L -31.8963,30.4088 L -31.9302,30.4376 L -31.9745,30.46 L -32.0301,30.4761
 L -32.0969,30.4857 L -32.1749,30.4889 L -32.2488,30.4858 L -32.3141,30.4765 L -32.3708,30.4611 L -32.4191,30.4394
 L -32.4592,30.4112 L -32.492,30.3758 L -32.5172,30.3333 L -32.535,30.2838 L -32.7291,30.3217 L -32.7031,30.402
 L -32.6655,30.471 L -32.6161,30.5287 L -32.5551,30.5749 L -32.4812,30.6104 L -32.3932,30.6358 L -32.2911,30.651
 L -32.1749,30.6561 z
M -17.806,30.6497 L -17.7002,30.6308 L -17.6085,30.5991 L -17.531,30.5548 L -17.4693,30.4988 L -17.4252,30.4321
 L -17.3988,30.3548 L -17.39,30.2667 L -17.3915,30.2299 L -17.3961,30.1952 L -17.4037,30.1625 L -17.4144,30.1318
 L -17.4279,30.1031 L -17.4438,30.0761 L -17.4623,30.0509 L -17.4834,30.0275 L -17.5077,30.0054 L -17.536,29.9843
 L -17.5684,29.9642 L -17.6048,29.9451 L -17.6494,29.9261 L -17.7061,29.9062 L -17.7751,29.8855 L -17.8562,29.8639
 L -17.9405,29.8426 L -18.0088,29.8236 L -18.0613,29.8072 L -18.0979,29.7931 L -18.1249,29.7796 L -18.1483,29.7648
 L -18.1682,29.7485 L -18.1846,29.7309 L -18.1974,29.7113 L -18.2066,29.6894 L -18.2121,29.665 L -18.2139,29.6381
 L -18.2095,29.5952 L -18.1962,29.5582 L -18.1741,29.5269 L -18.1431,29.5014 L -18.1028,29.4816 L -18.0528,29.4675
 L -17.993,29.4591 L -17.9234,29.4562 L -17.8596,29.4592 L -17.8027,29.468 L -17.7525,29.4827 L -17.7092,29.5032
 L -17.673,29.5293 L -17.6446,29.5604 L -17.6239,29.5967 L -17.6109,29.6381 L -17.4132,29.6137 L -17.4362,29.5347
 L -17.471,29.4672 L -17.5177,29.4114 L -17.5761,29.3671 L -17.6461,29.3335 L -17.7273,29.3094 L -17.8197,29.295
 L -17.9234,29.2902 L -18.0393,29.2961 L -18.1405,29.3139 L -18.227,29.3434 L -18.2987,29.3848 L -18.3551,29.4375
 L -18.3953,29.5009 L -18.4195,29.5751 L -18.4275,29.6601 L -18.4247,29.707 L -18.4162,29.7501 L -18.4021,29.7894
 L -18.3824,29.8249 L -18.3576,29.8572 L -18.3285,29.887 L -18.295,29.9142 L -18.2572,29.939 L -18.2104,29.9626
 L -18.15,29.9865 L -18.0759,30.0105 L -17.9881,30.0348 L -17.8306,30.0763 L -17.7749,30.0932 L -17.7275,30.1123
 L -17.6883,30.1335 L -17.6573,30.1569 L -17.6338,30.1831 L -17.617,30.213 L -17.6069,30.2466 L -17.6036,30.2838
 L -17.6084,30.3319 L -17.623,30.3735 L -17.6472,30.4088 L -17.6811,30.4376 L -17.7254,30.46 L -17.781,30.4761
 L -17.8478,30.4857 L -17.9258,30.4889 L -17.9997,30.4858 L -18.065,30.4765 L -18.1217,30.4611 L -18.17,30.4394
 L -18.2102,30.4112 L -18.2429,30.3758 L -18.2681,30.3333 L -18.2859,30.2838 L -18.48,30.3217 L -18.454,30.402
 L -18.4164,30.471 L -18.3671,30.5287 L -18.3061,30.5749 L -18.2322,30.6104 L -18.1442,30.6358 L -18.0421,30.651
 L -17.9258,30.6561 z
M -24.1419,30.6525 L -24.0771,30.6419 L -24.0183,30.6242 L -23.9655,30.5993 L -23.9173,30.566 L -23.872,30.5226
 L -23.8297,30.4692 L -23.7904,30.4059 L -23.7867,30.4059 L -23.7855,30.4502 L -23.7844,30.4869 L -23.7834,30.5158
 L -23.7825,30.5371 L -23.7808,30.5699 L -23.7794,30.5987 L -23.7788,30.6109 L -23.7782,30.6204 L -23.7776,30.6273
 L -23.7769,30.6317 L -23.5694,30.6317 L -23.5726,30.5948 L -23.5749,30.5356 L -23.5763,30.4538 L -23.5768,30.3497
 L -23.5768,29.311 L -23.7965,29.311 L -23.7965,30.0763 L -23.8022,30.1675 L -23.8194,30.2481 L -23.848,30.3182
 L -23.888,30.3778 L -23.938,30.4253 L -23.9964,30.4593 L -24.0631,30.4796 L -24.1383,30.4864 L -24.1893,30.4844
 L -24.2338,30.4785 L -24.2717,30.4686 L -24.303,30.4547 L -24.3292,30.4363 L -24.3516,30.4129 L -24.3701,30.3844
 L -24.3848,30.3509 L -24.396,30.3113 L -24.404,30.2643 L -24.4088,30.2099 L -24.4104,30.1483 L -24.4104,29.311
 L -24.6314,29.311 L -24.6314,30.191 L -24.6251,30.3067 L -24.6062,30.4048 L -24.5748,30.4852 L -24.5307,30.5481
 L -24.4731,30.5953 L -24.4008,30.6291 L -24.3141,30.6493 L -24.2127,30.6561 z
M 38.6051,30.6525 L 38.6699,30.6419 L 38.7287,30.6242 L 38.7815,30.5993 L 38.8297,30.566 L 38.875,30.5226
 L 38.9173,30.4692 L 38.9566,30.4059 L 38.9603,30.4059 L 38.9615,30.4502 L 38.9626,30.4869 L 38.9636,30.5158
 L 38.9646,30.5371 L 38.967,30.5848 L 38.9676,30.5987 L 38.9682,30.6109 L 38.9688,30.6204 L 38.9695,30.6273
 L 38.9701,30.6317 L 39.1776,30.6317 L 39.1744,30.5948 L 39.1721,30.5356 L 39.1707,30.4538 L 39.1702,30.3497
 L 39.1702,29.311 L 38.9505,29.311 L 38.9505,30.0763 L 38.9448,30.1675 L 38.9276,30.2481 L 38.899,30.3182
 L 38.859,30.3778 L 38.809,30.4253 L 38.7506,30.4593 L 38.6839,30.4796 L 38.6087,30.4864 L 38.5577,30.4844
 L 38.5132,30.4785 L 38.4753,30.4686 L 38.444,30.4547 L 38.4178,30.4363 L 38.3954,30.4129 L 38.3769,30.3844
 L 38.3622,30.3509 L 38.351,30.3113 L 38.343,30.2643 L 38.3382,30.2099 L 38.3365,30.1483 L 38.3365,29.311
 L 38.1156,29.311 L 38.1156,30.191 L 38.1219,30.3067 L 38.1408,30.4048 L 38.1723,30.4852 L 38.2163,30.5481
 L 38.2739,30.5953 L 38.3462,30.6291 L 38.4329,30.6493 L 38.5343,30.6561 z
M 42.9467,30.6525 L 43.0116,30.6419 L 43.0703,30.6242 L 43.1231,30.5993 L 43.1713,30.566 L 43.2166,30.5226
 L 43.2589,30.4692 L 43.2982,30.4059 L 43.3019,30.4059 L 43.3031,30.4502 L 43.3042,30.4869 L 43.3052,30.5158
 L 43.3062,30.5371 L 43.3079,30.5699 L 43.3092,30.5987 L 43.3098,30.6109 L 43.3105,30.6204 L 43.3111,30.6273
 L 43.3117,30.6317 L 43.5192,30.6317 L 43.516,30.5948 L 43.5137,30.5356 L 43.5123,30.4538 L 43.5119,30.3497
 L 43.5119,29.311 L 43.2921,29.311 L 43.2921,30.0763 L 43.2864,30.1675 L 43.2693,30.2481 L 43.2406,30.3182
 L 43.2006,30.3778 L 43.1506,30.4253 L 43.0923,30.4593 L 43.0255,30.4796 L 42.9504,30.4864 L 42.8993,30.4844
 L 42.8549,30.4785 L 42.8169,30.4686 L 42.7856,30.4547 L 42.7594,30.4363 L 42.7371,30.4129 L 42.7185,30.3844
 L 42.7038,30.3509 L 42.6926,30.3113 L 42.6846,30.2643 L 42.6798,30.2099 L 42.6782,30.1483 L 42.6782,29.311
 L 42.4572,29.311 L 42.4572,30.191 L 42.4635,30.3067 L 42.4824,30.4048 L 42.5139,30.4852 L 42.5579,30.5481
 L 42.6156,30.5953 L 42.6878,30.6291 L 42.7746,30.6493 L 42.8759,30.6561 z
M -45.0866,29.311 L -45.3246,29.311 L -45.3246,29.5636 L -45.0866,29.5636 z
M -28.1063,30.0897 L -27.7511,30.6317 L -27.5058,30.6317 L -27.9818,29.9506 L -27.5339,29.311 L -27.7792,29.311
 L -28.1063,29.8249 L -28.4359,29.311 L -28.6788,29.311 L -28.2308,29.953 L -28.7008,30.6317 L -28.464,30.6317
 z
M -16.9419,29.311 L -17.1616,29.311 L -17.1616,30.6317 L -16.9419,30.6317 z
M 10.7933,29.311 L 10.5736,29.311 L 10.5736,30.6317 L 10.7933,30.6317 z
M 20.3951,30.0897 L 20.7504,30.6317 L 20.9957,30.6317 L 20.5196,29.9506 L 20.9676,29.311 L 20.7223,29.311
 L 20.3951,29.8249 L 20.0656,29.311 L 19.8227,29.311 L 20.2706,29.953 L 19.8007,30.6317 L 20.0375,30.6317
 z
M -33.4965,29.311 L -33.7162,29.311 L -33.7162,30.6317 L -33.4965,30.6317 z
M 24.1715,29.914 L 21.6716,29.914 L 21.6716,30.0812 L 24.1715,30.0812 z
M -25.7528,30.9114 L -25.7332,30.8703 L -25.7168,30.8284 L -25.7036,30.7855 L -25.6934,30.7395 L -25.6862,30.6881
 L -25.6818,30.6315 L -25.6804,30.5694 L -25.6804,30.3644 L -25.9184,30.3644 L -25.9184,30.6317 L -25.811,30.6317
 L -25.8182,30.7093 L -25.8397,30.7885 L -25.8755,30.8692 L -25.9257,30.9515 L -25.7756,30.9515 z
M -45.0866,30.379 L -45.3246,30.379 L -45.3246,30.6317 L -45.0866,30.6317 z
" stroke="black" fill="lightgray" stroke-width="0.5"/>
</svg>
