<?xml version="1.0" standalone="no"?>
<!DOCTYPE svg PUBLIC "-//W3C//DTD SVG 1.1//EN" "http://www.w3.org/Graphics/SVG/1.1/DTD/svg11.dtd">
<svg width="127mm" height="61mm" viewBox="-44 -37 127 61" xmlns="http://www.w3.org/2000/svg" version="1.1">
<title>OpenSCAD Model</title>
<path d="
M 26.0662,13.1004 L 37.4302,6.53938 L 37.5376,6.53372 L 37.6786,6.50839 L 37.8008,6.46619 L 37.9042,6.40709
 L 37.9864,6.33243 L 38.0452,6.24352 L 38.0704,6.1698 L 38.3983,5.9805 L 38.3983,6.50961 L 38.6912,6.50961
 L 38.6912,5.81137 L 39.1198,5.56389 L 39.1198,6.50961 L 39.4128,6.50961 L 39.4128,5.39474 L 39.8359,5.15047
 L 39.8006,5.23428 L 39.7601,5.63727 L 39.7699,5.85068 L 39.7993,6.0352 L 39.8484,6.19083 L 39.9171,6.31757
 L 40.0067,6.41583 L 40.1183,6.48601 L 40.252,6.52812 L 40.4078,6.54216 L 40.5031,6.53758 L 40.5903,6.52385
 L 40.6695,6.50098 L 40.7406,6.46893 L 40.8044,6.42632 L 40.8617,6.37169 L 40.9123,6.30507 L 40.9563,6.22644
 L 40.9628,6.22644 L 40.9631,6.26224 L 40.9642,6.3013 L 40.966,6.34361 L 40.9685,6.38919 L 40.9713,6.43211
 L 40.974,6.46649 L 40.9766,6.49232 L 40.979,6.50961 L 41.259,6.50961 L 41.2547,6.45398 L 41.2517,6.37494
 L 41.2498,6.27251 L 41.2492,6.14668 L 41.2492,4.33449 L 43.7438,2.89423 L 43.7618,2.87756 L 43.7731,2.85257
 L 43.777,2.82098 L 43.8024,2.80186 L 43.8184,2.77957 L 43.8238,2.75568 L 43.8238,-9.08351 L 43.8184,-9.10742
 L 43.8024,-9.1297 L 43.777,-9.14883 L 43.7731,-9.18042 L 43.7618,-9.2054 L 43.7438,-9.22208 L 35.1118,-14.2058
 L 35.1118,-15.2458 L 36.8246,-16.2347 L 36.8369,-16.2461 L 36.8447,-16.2633 L 36.8473,-16.285 L 36.8648,-16.2982
 L 36.8758,-16.3135 L 36.8795,-16.3299 L 36.8795,-17.5547 L 36.8758,-17.5711 L 36.8648,-17.5864 L 36.8473,-17.5996
 L 36.8447,-17.6213 L 36.8369,-17.6385 L 36.8246,-17.6499 L 4.29764,-36.4294 L 4.28152,-36.4343 L 4.26277,-36.4325
 L 4.24263,-36.4239 L 4.2225,-36.4325 L 4.20374,-36.4343 L 4.18764,-36.4294 L -16.3185,-24.5901 L -16.3308,-24.5787
 L -16.3386,-24.5615 L -16.3412,-24.5398 L -16.3587,-24.5266 L -16.3697,-24.5113 L -16.3734,-24.4949 L -16.3734,-23.2701
 L -16.3697,-23.2537 L -16.3587,-23.2384 L -16.3412,-23.2252 L -16.3386,-23.2035 L -16.3308,-23.1864 L -16.3185,-23.1749
 L -14.6057,-22.186 L -14.6057,-15.931 L -14.6581,-15.931 L -14.6581,-14.961 L -15.8983,-14.961 L -15.8983,-15.931
 L -16.2091,-15.931 L -16.2091,-13.6379 L -15.8983,-13.6379 L -15.8983,-14.7006 L -14.6581,-14.7006 L -14.6581,-13.6379
 L -14.6057,-13.6379 L -14.6057,-8.36908 L -14.6019,-8.35265 L -14.5909,-8.33733 L -14.5735,-8.32417 L -14.5708,-8.30246
 L -14.563,-8.28529 L -14.5507,-8.27382 L -13.49,-7.66145 L -13.4739,-7.65648 L -13.4552,-7.65834 L -13.435,-7.6669
 L -13.4149,-7.65834 L -13.3961,-7.65648 L -13.38,-7.66145 L -12.3194,-8.27382 L -12.307,-8.28529 L -12.2992,-8.30246
 L -12.2966,-8.32417 L -12.2791,-8.33733 L -12.2681,-8.35265 L -12.2644,-8.36908 L -12.2644,-20.8342 L -8.94882,-18.92
 L -8.94882,-12.3224 L -11.8257,-13.7608 L -11.8595,-13.7748 L -11.8957,-13.7796 L -11.9319,-13.7748 L -11.9657,-13.7608
 L -11.9947,-13.7386 L -12.0169,-13.7096 L -12.0309,-13.6758 L -12.0357,-13.6396 L -12.0309,-13.6033 L -12.0169,-13.5696
 L -11.9947,-13.5406 L -11.9657,-13.5183 L -8.20175,-11.6364 L -8.168,-11.6224 L -8.13176,-11.6176 L -8.11349,-11.62
 L 0.420319,-6.69299 L 0.420319,-0.918549 L 0.424072,-0.902115 L 0.435059,-0.886795 L 0.452545,-0.873642 L 0.455185,-0.851929
 L 0.462967,-0.834747 L 0.475327,-0.823288 L 1.53598,-0.210922 L 1.55209,-0.205948 L 1.57085,-0.207794 L 1.59099,-0.21637
 L 1.61111,-0.207794 L 1.62987,-0.205948 L 1.64598,-0.210922 L 12.2144,-6.31258 L 12.2144,5.1031 L 12.2198,5.127
 L 12.2358,5.14929 L 12.2612,5.16841 L 12.2651,5.2 L 12.2764,5.22499 L 12.2944,5.24165 L 13.325,5.83672
 L 13.325,7.75671 L 13.3288,7.77315 L 13.3398,7.78847 L 13.3572,7.80162 L 13.3599,7.82333 L 13.3677,7.84052
 L 13.38,7.85197 L 14.4407,8.46434 L 14.4568,8.46931 L 14.4756,8.46747 L 14.4957,8.45889 L 14.5158,8.46747
 L 14.5346,8.46931 L 14.5507,8.46434 L 15.6113,7.85197 L 15.6237,7.84052 L 15.6315,7.82333 L 15.6341,7.80162
 L 15.6516,7.78847 L 15.6626,7.77315 L 15.6663,7.75671 L 15.6663,7.18846 L 25.9062,13.1004 L 25.9296,13.1077
 L 25.9569,13.105 L 25.9862,13.0925 L 26.0154,13.105 L 26.0427,13.1077 z
M -12.8615,-23.8825 L 4.24263,-33.7576 L 4.83974,-33.4128 L 4.83974,-24.7263 L -0.510681,-27.8153 L -0.526794,-27.8203
 L -0.545547,-27.8184 L -0.565674,-27.8099 L -0.585815,-27.8184 L -0.604568,-27.8203 L -0.620682,-27.8153 L -8.89383,-23.0388
 L -8.90619,-23.0273 L -8.91396,-23.0102 L -8.91661,-22.9884 L -8.9341,-22.9753 L -8.94508,-22.96 L -8.94882,-22.9435
 L -8.94882,-21.6236 z
M 7.18106,-23.3745 L 7.18106,-32.0611 L 18.6951,-25.4135 L 11.1723,-21.0701 z
M 20.0858,-24.6105 L 32.7705,-17.287 L 32.7705,-16.5975 L 31.8698,-16.0776 L 30.132,-17.0809 L 30.1086,-17.0881
 L 30.0813,-17.0854 L 30.052,-17.0729 L 30.0228,-17.0854 L 29.9955,-17.0881 L 29.972,-17.0809 L 20.0858,-11.373
 z
M 40.9563,5.02209 L 40.9123,4.94774 L 40.8619,4.88417 L 40.8049,4.83139 L 40.7414,4.78938 L 40.6705,4.75734
 L 40.5913,4.73445 L 40.5639,4.73016 L 40.9563,4.50363 L 40.9563,4.82516 L 40.9595,5.02209 z
M 40.3804,6.30597 L 40.2935,6.27606 L 40.2218,6.22623 L 40.1653,6.15646 L 40.1226,6.06358 L 40.0921,5.94447
 L 40.0738,5.79912 L 40.0677,5.62752 L 40.0738,5.45638 L 40.0923,5.31078 L 40.123,5.1907 L 40.1661,5.09615
 L 40.223,5.0246 L 40.2953,4.97348 L 40.3829,4.94281 L 40.4859,4.93259 L 40.6005,4.94276 L 40.6983,4.97328
 L 40.7795,5.02414 L 40.844,5.09534 L 40.8931,5.1884 L 40.9282,5.30487 L 40.9492,5.44472 L 40.9563,5.60799
 L 40.9492,5.77754 L 40.9282,5.92331 L 40.8931,6.04527 L 40.844,6.14342 L 40.7793,6.2189 L 40.6975,6.27281
 L 40.5986,6.30516 L 40.4827,6.31593 z
M 46.3991,6.48459 L 46.6015,6.31187 L 46.723,6.024 L 46.7634,5.62099 L 46.7536,5.40759 L 46.7242,5.2231
 L 46.6751,5.06747 L 46.6064,4.94073 L 46.5168,4.84247 L 46.4052,4.77228 L 46.2715,4.73018 L 46.1157,4.71614
 L 46.0204,4.72072 L 45.9332,4.73445 L 45.854,4.75734 L 45.7829,4.78938 L 45.719,4.832 L 45.6618,4.88661
 L 45.6112,4.95323 L 45.5672,5.03186 L 45.5607,5.03186 L 45.5636,4.96259 L 45.5656,4.89799 L 45.5668,4.83809
 L 45.5672,4.78285 L 45.5672,4.09442 L 45.2743,4.09442 L 45.2743,6.14668 L 45.2737,6.27251 L 45.2718,6.37494
 L 45.2688,6.45398 L 45.2645,6.50961 L 45.5477,6.50961 L 45.5495,6.49603 L 45.5518,6.47157 L 45.5544,6.43623
 L 45.5574,6.39 L 45.5603,6.34163 L 45.5623,6.29988 L 45.5636,6.26472 L 45.564,6.23619 L 45.5672,6.23619
 L 45.6118,6.3112 L 45.6626,6.37514 L 45.7196,6.42799 L 45.7829,6.46976 L 45.8534,6.50143 L 45.9324,6.52406
 L 46.0198,6.53763 L 46.1157,6.54216 z
M 45.9217,6.31538 L 45.8231,6.28441 L 45.7419,6.23279 L 45.6779,6.16051 L 45.6295,6.06657 L 45.5949,5.94995
 L 45.5741,5.81065 L 45.5672,5.64867 L 45.5743,5.47717 L 45.5955,5.33052 L 45.6308,5.20866 L 45.6803,5.11163
 L 45.7453,5.03758 L 45.827,4.98468 L 45.9255,4.95294 L 46.0408,4.94237 L 46.1431,4.95233 L 46.23,4.98224
 L 46.3017,5.03207 L 46.3582,5.10187 L 46.4009,5.19473 L 46.4314,5.31383 L 46.4497,5.45917 L 46.4558,5.63077
 L 46.4497,5.80191 L 46.4312,5.94753 L 46.4005,6.0676 L 46.3574,6.16214 L 46.3005,6.2337 L 46.2282,6.28482
 L 46.1406,6.31548 L 46.0376,6.3257 z
M 64.5809,6.48459 L 64.7833,6.31187 L 64.9048,6.024 L 64.9453,5.62099 L 64.9354,5.40759 L 64.906,5.2231
 L 64.8569,5.06747 L 64.7882,4.94073 L 64.6986,4.84247 L 64.587,4.77228 L 64.4533,4.73018 L 64.2975,4.71614
 L 64.2022,4.72072 L 64.115,4.73445 L 64.0358,4.75734 L 63.9647,4.78938 L 63.9008,4.832 L 63.8436,4.88661
 L 63.793,4.95323 L 63.749,5.03186 L 63.7425,5.03186 L 63.7454,4.96259 L 63.7474,4.89799 L 63.7486,4.83809
 L 63.749,4.78285 L 63.749,4.09442 L 63.4561,4.09442 L 63.4561,6.14668 L 63.4555,6.27251 L 63.4536,6.37494
 L 63.4506,6.45398 L 63.4463,6.50961 L 63.7295,6.50961 L 63.7313,6.49603 L 63.7336,6.47157 L 63.7362,6.43623
 L 63.7392,6.39 L 63.7421,6.34163 L 63.7441,6.29988 L 63.7454,6.26472 L 63.7458,6.23619 L 63.749,6.23619
 L 63.7936,6.3112 L 63.8444,6.37514 L 63.9014,6.42799 L 63.9647,6.46976 L 64.0352,6.50143 L 64.1142,6.52406
 L 64.2016,6.53763 L 64.2975,6.54216 z
M 64.1035,6.31538 L 64.0049,6.28441 L 63.9237,6.23279 L 63.8597,6.16051 L 63.8113,6.06657 L 63.7767,5.94995
 L 63.7559,5.81065 L 63.749,5.64867 L 63.7561,5.47717 L 63.7773,5.33052 L 63.8126,5.20866 L 63.8621,5.11163
 L 63.9271,5.03758 L 64.0088,4.98468 L 64.1073,4.95294 L 64.2226,4.94237 L 64.3249,4.95233 L 64.4118,4.98224
 L 64.4835,5.03207 L 64.54,5.10187 L 64.5827,5.19473 L 64.6132,5.31383 L 64.6315,5.45917 L 64.6376,5.63077
 L 64.6315,5.80191 L 64.613,5.94753 L 64.5822,6.0676 L 64.5392,6.16214 L 64.4823,6.2337 L 64.41,6.28482
 L 64.3224,6.31548 L 64.2194,6.3257 z
M 58.5912,4.09442 L 58.2982,4.09442 L 58.2982,4.37436 L 58.5912,4.37436 z
M 59.316,4.09442 L 59.0231,4.09442 L 59.0231,6.50961 L 59.316,6.50961 z
M 75.689,4.09442 L 75.396,4.09442 L 75.396,4.37436 L 75.689,4.37436 z
M 79.1301,6.53758 L 79.2173,6.52385 L 79.2965,6.50098 L 79.3676,6.46893 L 79.4314,6.42632 L 79.4887,6.37169
 L 79.5393,6.30507 L 79.5833,6.22644 L 79.5898,6.22644 L 79.5901,6.26224 L 79.5912,6.3013 L 79.593,6.34361
 L 79.5955,6.38919 L 79.5983,6.43211 L 79.601,6.46649 L 79.6036,6.49232 L 79.606,6.50961 L 79.886,6.50961
 L 79.8817,6.45398 L 79.8786,6.37494 L 79.8768,6.27251 L 79.8762,6.14668 L 79.8762,4.09442 L 79.5833,4.09442
 L 79.5833,4.82516 L 79.5865,5.02209 L 79.5833,5.02209 L 79.5393,4.94774 L 79.4889,4.88417 L 79.4319,4.83139
 L 79.3684,4.78938 L 79.2975,4.75734 L 79.2183,4.73445 L 79.1307,4.72072 L 79.0348,4.71614 L 78.7514,4.77371
 L 78.549,4.94643 L 78.4275,5.23428 L 78.3871,5.63727 L 78.3969,5.85068 L 78.4263,6.0352 L 78.4754,6.19083
 L 78.5441,6.31757 L 78.6337,6.41583 L 78.7453,6.48601 L 78.879,6.52812 L 79.0348,6.54216 z
M 79.0074,6.30597 L 78.9205,6.27606 L 78.8488,6.22623 L 78.7923,6.15646 L 78.7496,6.06358 L 78.7191,5.94447
 L 78.7007,5.79912 L 78.6946,5.62752 L 78.7008,5.45638 L 78.7193,5.31078 L 78.75,5.1907 L 78.7931,5.09615
 L 78.85,5.0246 L 78.9223,4.97348 L 79.0099,4.94281 L 79.1129,4.93259 L 79.2274,4.94276 L 79.3253,4.97328
 L 79.4065,5.02414 L 79.471,5.09534 L 79.5201,5.1884 L 79.5552,5.30487 L 79.5762,5.44472 L 79.5833,5.60799
 L 79.5762,5.77754 L 79.5552,5.92331 L 79.5201,6.04527 L 79.471,6.14342 L 79.4063,6.2189 L 79.3245,6.27281
 L 79.2256,6.30516 L 79.1097,6.31593 z
M 78.0398,4.09442 L 77.7468,4.09442 L 77.7468,4.37436 L 78.0398,4.37436 z
M 74.2456,6.53758 L 74.3329,6.52385 L 74.412,6.50098 L 74.4832,6.46893 L 74.547,6.42632 L 74.6042,6.37169
 L 74.6548,6.30507 L 74.6988,6.22644 L 74.7054,6.22644 L 74.7057,6.26224 L 74.7068,6.3013 L 74.7085,6.34361
 L 74.711,6.38919 L 74.7138,6.43211 L 74.7165,6.46649 L 74.7191,6.49232 L 74.7216,6.50961 L 75.0016,6.50961
 L 74.9973,6.45398 L 74.9942,6.37494 L 74.9924,6.27251 L 74.9918,6.14668 L 74.9918,4.09442 L 74.6988,4.09442
 L 74.6988,4.82516 L 74.7021,5.02209 L 74.6988,5.02209 L 74.6549,4.94774 L 74.6044,4.88417 L 74.5475,4.83139
 L 74.484,4.78938 L 74.4131,4.75734 L 74.3339,4.73445 L 74.2463,4.72072 L 74.1504,4.71614 L 73.867,4.77371
 L 73.6646,4.94643 L 73.5431,5.23428 L 73.5026,5.63727 L 73.5125,5.85068 L 73.5419,6.0352 L 73.591,6.19083
 L 73.6597,6.31757 L 73.7493,6.41583 L 73.8609,6.48601 L 73.9946,6.52812 L 74.1504,6.54216 z
M 74.123,6.30597 L 74.036,6.27606 L 73.9643,6.22623 L 73.9079,6.15646 L 73.8652,6.06358 L 73.8346,5.94447
 L 73.8163,5.79912 L 73.8102,5.62752 L 73.8164,5.45638 L 73.8348,5.31078 L 73.8656,5.1907 L 73.9087,5.09615
 L 73.9656,5.0246 L 74.0379,4.97348 L 74.1255,4.94281 L 74.2285,4.93259 L 74.343,4.94276 L 74.4409,4.97328
 L 74.5221,5.02414 L 74.5865,5.09534 L 74.6357,5.1884 L 74.6708,5.30487 L 74.6918,5.44472 L 74.6988,5.60799
 L 74.6918,5.77754 L 74.6708,5.92331 L 74.6357,6.04527 L 74.5865,6.14342 L 74.5219,6.2189 L 74.4401,6.27281
 L 74.3412,6.30516 L 74.2253,6.31593 z
M 70.2446,6.53322 L 70.319,6.52589 L 70.3927,6.51367 L 70.4655,6.49658 L 70.4655,6.28014 L 70.4134,6.2901
 L 70.3679,6.29723 L 70.3288,6.3015 L 70.2962,6.30293 L 70.2488,6.29973 L 70.209,6.29012 L 70.1768,6.27409
 L 70.1522,6.25166 L 70.134,6.2213 L 70.1211,6.18147 L 70.1133,6.13219 L 70.1107,6.07344 L 70.1107,4.96187
 L 70.4362,4.96187 L 70.4362,4.74869 L 70.1107,4.74869 L 70.1107,4.35481 L 69.9154,4.35481 L 69.8291,4.74869
 L 69.6143,4.74869 L 69.6143,4.96187 L 69.8178,4.96187 L 69.8178,6.13692 L 69.8397,6.31137 L 69.9057,6.43597
 L 70.0155,6.51074 L 70.1693,6.53566 z
M 52.0628,6.53322 L 52.1372,6.52589 L 52.2109,6.51367 L 52.2837,6.49658 L 52.2837,6.28014 L 52.2316,6.2901
 L 52.1861,6.29723 L 52.147,6.3015 L 52.1145,6.30293 L 52.067,6.29973 L 52.0272,6.29012 L 51.995,6.27409
 L 51.9704,6.25166 L 51.9523,6.2213 L 51.9393,6.18147 L 51.9315,6.13219 L 51.9289,6.07344 L 51.9289,4.96187
 L 52.2544,4.96187 L 52.2544,4.74869 L 51.9289,4.74869 L 51.9289,4.35481 L 51.7336,4.35481 L 51.6473,4.74869
 L 51.4325,4.74869 L 51.4325,4.96187 L 51.636,4.96187 L 51.636,6.13692 L 51.6579,6.31137 L 51.7238,6.43597
 L 51.8337,6.51074 L 51.9875,6.53566 z
M 61.5181,5.5201 L 62.2082,5.5201 L 62.2082,5.28249 L 61.5181,5.28249 L 61.5181,4.58594 L 61.2789,4.58594
 L 61.2789,5.28249 L 60.5888,5.28249 L 60.5888,5.5201 L 61.2789,5.5201 L 61.2789,6.21667 L 61.5181,6.21667
 z
M 81.253,6.51611 L 81.4575,6.438 L 81.6118,6.3078 L 81.7159,6.12552 L 81.4588,6.05229 L 81.4338,6.10834
 L 81.3996,6.1593 L 81.3561,6.20518 L 81.3033,6.24597 L 81.2412,6.27943 L 81.1697,6.30334 L 81.0887,6.31769
 L 80.9982,6.32246 L 80.8849,6.31219 L 80.7862,6.28137 L 80.7018,6.23001 L 80.632,6.1581 L 80.5771,6.06725
 L 80.538,5.95911 L 80.5145,5.83369 L 80.5067,5.69098 L 81.7631,5.69098 L 81.7631,5.65193 L 81.7146,5.24252
 L 81.569,4.95009 L 81.3264,4.77463 L 80.9868,4.71614 L 80.8081,4.73068 L 80.6513,4.77432 L 80.5164,4.84705
 L 80.4033,4.94887 L 80.314,5.07794 L 80.2501,5.23245 L 80.2118,5.41238 L 80.1991,5.61775 L 80.2118,5.83308
 L 80.2501,6.02014 L 80.314,6.17892 L 80.4033,6.30943 L 80.5171,6.41125 L 80.6542,6.48398 L 80.8145,6.52762
 L 80.9982,6.54216 z
M 80.5099,5.46638 L 80.522,5.34854 L 80.5484,5.24405 L 80.5891,5.15286 L 80.6442,5.07501 L 80.712,5.0127
 L 80.7909,4.9682 L 80.8808,4.9415 L 80.9819,4.93259 L 81.0853,4.94058 L 81.176,4.96452 L 81.2538,5.00446
 L 81.3188,5.06035 L 81.3716,5.13364 L 81.4128,5.22574 L 81.4424,5.33665 L 81.4604,5.46638 z
M 55.7049,5.59171 L 55.7109,5.45372 L 55.7289,5.33275 L 55.7589,5.22874 L 55.8009,5.14172 L 55.8544,5.07301
 L 55.9185,5.02394 L 55.9935,4.99449 L 56.0793,4.98466 L 56.1256,4.98569 L 56.1671,4.98874 L 56.2038,4.99382
 L 56.2355,5.00095 L 56.2355,4.73241 L 56.2055,4.7253 L 56.1757,4.7202 L 56.1461,4.71715 L 56.1167,4.71614
 L 56.0383,4.72133 L 55.9694,4.73688 L 55.9098,4.76282 L 55.8595,4.79913 L 55.8153,4.84958 L 55.7737,4.91792
 L 55.7347,5.00418 L 55.6984,5.10834 L 55.6919,5.10834 L 55.6911,5.06328 L 55.6886,4.98833 L 55.6846,4.88345
 L 55.6789,4.74869 L 55.4022,4.74869 L 55.4065,4.85854 L 55.4095,4.96352 L 55.4113,5.0636 L 55.412,5.15881
 L 55.412,6.50961 L 55.7049,6.50961 z
M 57.0412,6.53693 L 57.1358,6.52121 L 57.2223,6.49503 L 57.3008,6.45836 L 57.373,6.40907 L 57.4406,6.34505
 L 57.5036,6.26627 L 57.562,6.17273 L 57.5717,6.17273 L 57.5806,6.25781 L 57.5976,6.3308 L 57.6225,6.39168
 L 57.6555,6.44044 L 57.6981,6.47783 L 57.7518,6.50453 L 57.8165,6.52055 L 57.8924,6.52589 L 57.9498,6.52426
 L 58.0067,6.51938 L 58.0629,6.51125 L 58.1186,6.49985 L 58.1186,6.31757 L 58.0925,6.32256 L 58.0677,6.32613
 L 58.0444,6.32826 L 58.0226,6.32896 L 57.9784,6.32484 L 57.942,6.3125 L 57.9133,6.2919 L 57.8924,6.26306
 L 57.8774,6.22609 L 57.8667,6.18108 L 57.8603,6.12802 L 57.8582,6.06694 L 57.8582,5.30853 L 57.8477,5.173
 L 57.8163,5.05446 L 57.7639,4.9529 L 57.6905,4.86832 L 57.5965,4.80174 L 57.4818,4.75418 L 57.3466,4.72565
 L 57.1909,4.71614 L 56.91,4.74583 L 56.6986,4.83495 L 56.5568,4.98344 L 56.4846,5.19136 L 56.7905,5.21902
 L 56.804,5.15079 L 56.8264,5.0925 L 56.8577,5.04419 L 56.898,5.00584 L 56.9494,4.97664 L 57.0143,4.95578
 L 57.0927,4.94327 L 57.1844,4.9391 L 57.2756,4.9449 L 57.3537,4.9623 L 57.4188,4.99129 L 57.4708,5.03188
 L 57.5107,5.08589 L 57.5392,5.15515 L 57.5563,5.23969 L 57.562,5.33946 L 57.562,5.43547 L 57.1665,5.44197
 L 56.9801,5.4554 L 56.8213,5.48592 L 56.69,5.53352 L 56.5863,5.59822 L 56.5076,5.67938 L 56.4514,5.77643
 L 56.4177,5.88934 L 56.4065,6.01813 L 56.4148,6.13367 L 56.4398,6.23619 L 56.4815,6.3257 L 56.5399,6.40219
 L 56.6149,6.46342 L 56.7063,6.50717 L 56.8143,6.53342 L 56.9386,6.54216 z
M 56.9379,6.31758 L 56.8786,6.30293 L 56.8276,6.27852 L 56.7849,6.24434 L 56.751,6.20122 L 56.7269,6.14995
 L 56.7124,6.09055 L 56.7076,6.02299 L 56.7111,5.96024 L 56.7218,5.90378 L 56.7396,5.85364 L 56.7645,5.8098
 L 56.7961,5.77176 L 56.8339,5.739 L 56.8779,5.71153 L 56.9281,5.68936 L 56.9876,5.67207 L 57.0597,5.65926
 L 57.1443,5.65091 L 57.2414,5.64703 L 57.562,5.64053 L 57.562,5.78537 L 57.5575,5.85246 L 57.5439,5.91862
 L 57.5213,5.98389 L 57.4896,6.04822 L 57.45,6.10869 L 57.4039,6.16234 L 57.3512,6.20918 L 57.2918,6.24922
 L 57.2269,6.28127 L 57.1575,6.30415 L 57.0837,6.31789 L 57.0054,6.32246 z
M 53.3882,6.52802 L 53.5474,6.48561 L 53.6836,6.41492 L 53.7968,6.31593 L 53.8858,6.18808 L 53.9494,6.03072
 L 53.9875,5.84387 L 54.0002,5.62752 L 53.9883,5.40927 L 53.9526,5.22166 L 53.8931,5.06467 L 53.8098,4.93828
 L 53.7013,4.84109 L 53.5661,4.77167 L 53.4043,4.73003 L 53.2158,4.71614 L 52.8704,4.7731 L 52.6238,4.94398
 L 52.4758,5.22881 L 52.4264,5.62752 L 52.4388,5.83659 L 52.4757,6.01953 L 52.5372,6.17633 L 52.6234,6.30699
 L 52.7336,6.40988 L 52.8675,6.48337 L 53.0249,6.52747 L 53.206,6.54216 z
M 53.0896,6.31477 L 52.9926,6.28197 L 52.9118,6.22729 L 52.8471,6.15074 L 52.7977,6.05243 L 52.7623,5.93246
 L 52.7411,5.79082 L 52.734,5.62752 L 52.7412,5.46034 L 52.7627,5.31688 L 52.7986,5.19711 L 52.8488,5.10104
 L 52.915,5.02734 L 52.9991,4.9747 L 53.101,4.94312 L 53.2206,4.93259 L 53.3392,4.94292 L 53.4393,4.97389
 L 53.5211,5.02551 L 53.5844,5.09778 L 53.6317,5.19284 L 53.6656,5.31282 L 53.6859,5.4577 L 53.6926,5.62752
 L 53.6856,5.79546 L 53.6644,5.93959 L 53.629,6.05992 L 53.5795,6.15646 L 53.5135,6.2305 L 53.4288,6.28339
 L 53.3252,6.31512 L 53.2027,6.3257 z
M 47.9618,6.52802 L 48.121,6.48561 L 48.2572,6.41492 L 48.3704,6.31593 L 48.4594,6.18808 L 48.523,6.03072
 L 48.5611,5.84387 L 48.5738,5.62752 L 48.5619,5.40927 L 48.5262,5.22166 L 48.4667,5.06467 L 48.3834,4.93828
 L 48.2749,4.84109 L 48.1397,4.77167 L 47.9778,4.73003 L 47.7894,4.71614 L 47.444,4.7731 L 47.1974,4.94398
 L 47.0494,5.22881 L 47,5.62752 L 47.0123,5.83659 L 47.0493,6.01953 L 47.1108,6.17633 L 47.1969,6.30699
 L 47.3072,6.40988 L 47.4411,6.48337 L 47.5985,6.52747 L 47.7796,6.54216 z
M 47.6632,6.31477 L 47.5662,6.28197 L 47.4854,6.22729 L 47.4207,6.15074 L 47.3712,6.05243 L 47.3359,5.93246
 L 47.3147,5.79082 L 47.3076,5.62752 L 47.3148,5.46034 L 47.3363,5.31688 L 47.3722,5.19711 L 47.4223,5.10104
 L 47.4886,5.02734 L 47.5727,4.9747 L 47.6746,4.94312 L 47.7942,4.93259 L 47.9128,4.94292 L 48.0129,4.97389
 L 48.0947,5.02551 L 48.158,5.09778 L 48.2053,5.19284 L 48.2392,5.31282 L 48.2595,5.4577 L 48.2662,5.62752
 L 48.2592,5.79546 L 48.2379,5.93959 L 48.2026,6.05992 L 48.1531,6.15646 L 48.0871,6.2305 L 48.0023,6.28339
 L 47.8988,6.31512 L 47.7763,6.3257 z
M 71.57,6.52802 L 71.7292,6.48561 L 71.8654,6.41492 L 71.9786,6.31593 L 72.0676,6.18808 L 72.1312,6.03072
 L 72.1693,5.84387 L 72.1821,5.62752 L 72.1702,5.40927 L 72.1344,5.22166 L 72.0749,5.06467 L 71.9916,4.93828
 L 71.8831,4.84109 L 71.7479,4.77167 L 71.5861,4.73003 L 71.3976,4.71614 L 71.0522,4.7731 L 70.8056,4.94398
 L 70.6576,5.22881 L 70.6082,5.62752 L 70.6206,5.83659 L 70.6575,6.01953 L 70.719,6.17633 L 70.8052,6.30699
 L 70.9154,6.40988 L 71.0493,6.48337 L 71.2068,6.52747 L 71.3878,6.54216 z
M 71.2714,6.31477 L 71.1744,6.28197 L 71.0936,6.22729 L 71.0289,6.15074 L 70.9795,6.05243 L 70.9441,5.93246
 L 70.9229,5.79082 L 70.9158,5.62752 L 70.923,5.46034 L 70.9445,5.31688 L 70.9804,5.19711 L 71.0306,5.10104
 L 71.0968,5.02734 L 71.1809,4.9747 L 71.2828,4.94312 L 71.4025,4.93259 L 71.521,4.94292 L 71.6212,4.97389
 L 71.7029,5.02551 L 71.7662,5.09778 L 71.8136,5.19284 L 71.8474,5.31282 L 71.8677,5.4577 L 71.8744,5.62752
 L 71.8674,5.79546 L 71.8462,5.93959 L 71.8108,6.05992 L 71.7613,6.15646 L 71.6954,6.2305 L 71.6106,6.28339
 L 71.507,6.31512 L 71.3846,6.3257 z
M 82.3919,5.59171 L 82.3979,5.45372 L 82.4159,5.33275 L 82.4459,5.22874 L 82.4879,5.14172 L 82.5414,5.07301
 L 82.6055,5.02394 L 82.6805,4.99449 L 82.7663,4.98466 L 82.8126,4.98569 L 82.8541,4.98874 L 82.8907,4.99382
 L 82.9225,5.00095 L 82.9225,4.73241 L 82.8925,4.7253 L 82.8627,4.7202 L 82.8331,4.71715 L 82.8037,4.71614
 L 82.7253,4.72133 L 82.6564,4.73688 L 82.5968,4.76282 L 82.5465,4.79913 L 82.5023,4.84958 L 82.4607,4.91792
 L 82.4217,5.00418 L 82.3854,5.10834 L 82.3789,5.10834 L 82.3781,5.06328 L 82.3756,4.98833 L 82.3716,4.88345
 L 82.3659,4.74869 L 82.0892,4.74869 L 82.0935,4.85854 L 82.0965,4.96352 L 82.0983,5.0636 L 82.099,5.15881
 L 82.099,6.50961 L 82.3919,6.50961 z
M 42.626,6.51611 L 42.8305,6.438 L 42.9848,6.3078 L 43.0889,6.12552 L 42.8318,6.05229 L 42.8068,6.10834
 L 42.7726,6.1593 L 42.7291,6.20518 L 42.6763,6.24597 L 42.6142,6.27943 L 42.5427,6.30334 L 42.4617,6.31769
 L 42.3712,6.32246 L 42.258,6.31219 L 42.1592,6.28137 L 42.0749,6.23001 L 42.005,6.1581 L 41.9501,6.06725
 L 41.911,5.95911 L 41.8875,5.83369 L 41.8797,5.69098 L 43.1361,5.69098 L 43.1361,5.65193 L 43.0876,5.24252
 L 42.942,4.95009 L 42.6994,4.77463 L 42.3598,4.71614 L 42.1811,4.73068 L 42.0243,4.77432 L 41.8894,4.84705
 L 41.7763,4.94887 L 41.687,5.07794 L 41.6231,5.23245 L 41.5848,5.41238 L 41.5721,5.61775 L 41.5848,5.83308
 L 41.6231,6.02014 L 41.687,6.17892 L 41.7763,6.30943 L 41.8901,6.41125 L 42.0272,6.48398 L 42.1875,6.52762
 L 42.3712,6.54216 z
M 41.8829,5.46638 L 41.895,5.34854 L 41.9214,5.24405 L 41.9621,5.15286 L 42.0172,5.07501 L 42.085,5.0127
 L 42.1639,4.9682 L 42.2538,4.9415 L 42.3549,4.93259 L 42.4584,4.94058 L 42.549,4.96452 L 42.6268,5.00446
 L 42.6918,5.06035 L 42.7446,5.13364 L 42.7858,5.22574 L 42.8154,5.33665 L 42.8334,5.46638 z
M 66.1436,6.52802 L 66.3028,6.48561 L 66.439,6.41492 L 66.5522,6.31593 L 66.6412,6.18808 L 66.7048,6.03072
 L 66.7429,5.84387 L 66.7556,5.62752 L 66.7437,5.40927 L 66.708,5.22166 L 66.6485,5.06467 L 66.5652,4.93828
 L 66.4567,4.84109 L 66.3215,4.77167 L 66.1597,4.73003 L 65.9712,4.71614 L 65.6258,4.7731 L 65.3792,4.94398
 L 65.2312,5.22881 L 65.1818,5.62752 L 65.1941,5.83659 L 65.2311,6.01953 L 65.2926,6.17633 L 65.3788,6.30699
 L 65.489,6.40988 L 65.6229,6.48337 L 65.7803,6.52747 L 65.9614,6.54216 z
M 65.845,6.31477 L 65.748,6.28197 L 65.6672,6.22729 L 65.6025,6.15074 L 65.553,6.05243 L 65.5177,5.93246
 L 65.4965,5.79082 L 65.4894,5.62752 L 65.4966,5.46034 L 65.5181,5.31688 L 65.554,5.19711 L 65.6042,5.10104
 L 65.6704,5.02734 L 65.7545,4.9747 L 65.8564,4.94312 L 65.976,4.93259 L 66.0946,4.94292 L 66.1947,4.97389
 L 66.2765,5.02551 L 66.3398,5.09778 L 66.3871,5.19284 L 66.421,5.31282 L 66.4413,5.4577 L 66.448,5.62752
 L 66.4409,5.79546 L 66.4197,5.93959 L 66.3844,6.05992 L 66.3349,6.15646 L 66.269,6.2305 L 66.1842,6.28339
 L 66.0806,6.31512 L 65.9581,6.3257 z
M 58.5912,4.74869 L 58.2982,4.74869 L 58.2982,6.50961 L 58.5912,6.50961 z
M 77.5514,4.74869 L 77.2406,4.74869 L 76.8402,5.89766 L 76.7767,6.08971 L 76.7198,6.28014 L 76.6786,6.13579
 L 76.6461,6.02339 L 76.6224,5.94293 L 76.6075,5.89442 L 76.2201,4.74869 L 75.9077,4.74869 L 76.5473,6.50961
 L 76.8939,6.50961 z
M 43.8626,4.74869 L 43.5452,4.74869 L 43.5452,5.08557 L 43.8626,5.08557 z
M 78.0398,4.74869 L 77.7468,4.74869 L 77.7468,6.50961 L 78.0398,6.50961 z
M 75.689,4.74869 L 75.396,4.74869 L 75.396,6.50961 L 75.689,6.50961 z
M 49.5005,5.787 L 49.9741,6.50961 L 50.3012,6.50961 L 49.6665,5.60149 L 50.2637,4.74869 L 49.9366,4.74869
 L 49.5005,5.43384 L 49.061,4.74869 L 48.7372,4.74869 L 49.3345,5.60472 L 48.7079,6.50961 L 49.0236,6.50961
 z
M 67.6823,5.787 L 68.1559,6.50961 L 68.483,6.50961 L 67.8483,5.60149 L 68.4456,4.74869 L 68.1184,4.74869
 L 67.6823,5.43384 L 67.2428,4.74869 L 66.919,4.74869 L 67.5163,5.60472 L 66.8897,6.50961 L 67.2054,6.50961
 z
M 55.0587,5.49406 L 54.245,5.49406 L 54.245,5.75446 L 55.0587,5.75446 z
M 73.2405,5.49406 L 72.4268,5.49406 L 72.4268,5.75446 L 73.2405,5.75446 z
M 51.2599,5.49406 L 50.4462,5.49406 L 50.4462,5.75446 L 51.2599,5.75446 z
M 69.4417,5.49406 L 68.628,5.49406 L 68.628,5.75446 L 69.4417,5.75446 z
M 43.8626,6.17273 L 43.5452,6.17273 L 43.5452,6.50961 L 43.8626,6.50961 z
M -38.1386,22.6124 L -37.9868,22.4828 L -37.8957,22.2669 L -37.8654,21.9647 L -37.8727,21.8046 L -37.8948,21.6662
 L -37.9316,21.5495 L -37.9832,21.4545 L -38.0503,21.3808 L -38.134,21.3281 L -38.2343,21.2965 L -38.3512,21.286
 L -38.4226,21.2894 L -38.488,21.2997 L -38.5474,21.3169 L -38.6008,21.3409 L -38.6487,21.3729 L -38.6916,21.4139
 L -38.7295,21.4638 L -38.7625,21.5228 L -38.7674,21.5228 L -38.7653,21.4709 L -38.7637,21.4224 L -38.7628,21.3775
 L -38.7625,21.336 L -38.7625,20.8197 L -38.9822,20.8197 L -38.9822,22.3589 L -38.9827,22.4533 L -38.9841,22.5301
 L -38.9864,22.5894 L -38.9896,22.6311 L -38.7772,22.6311 L -38.7758,22.6209 L -38.7741,22.6026 L -38.7721,22.5761
 L -38.7699,22.5414 L -38.7677,22.5051 L -38.7662,22.4738 L -38.7653,22.4474 L -38.765,22.426 L -38.7625,22.426
 L -38.7291,22.4823 L -38.691,22.5303 L -38.6482,22.5699 L -38.6008,22.6012 L -38.5479,22.625 L -38.4887,22.642
 L -38.4231,22.6521 L -38.3512,22.6555 z
M -38.4967,22.4854 L -38.5706,22.4622 L -38.6315,22.4235 L -38.6795,22.3693 L -38.7159,22.2988 L -38.7418,22.2114
 L -38.7574,22.1069 L -38.7625,21.9854 L -38.7572,21.8568 L -38.7413,21.7468 L -38.7148,21.6554 L -38.6777,21.5826
 L -38.629,21.5271 L -38.5677,21.4874 L -38.4938,21.4636 L -38.4073,21.4557 L -38.3307,21.4632 L -38.2654,21.4856
 L -38.2116,21.523 L -38.1693,21.5753 L -38.1373,21.645 L -38.1144,21.7343 L -38.1006,21.8433 L -38.0961,21.972
 L -38.1007,22.1003 L -38.1145,22.2095 L -38.1376,22.2996 L -38.1699,22.3705 L -38.2126,22.4242 L -38.2668,22.4625
 L -38.3325,22.4855 L -38.4098,22.4932 z
M 31.2054,22.6124 L 31.3572,22.4828 L 31.4483,22.2669 L 31.4786,21.9647 L 31.4713,21.8046 L 31.4492,21.6662
 L 31.4124,21.5495 L 31.3608,21.4545 L 31.2937,21.3808 L 31.2099,21.3281 L 31.1096,21.2965 L 30.9928,21.286
 L 30.9214,21.2894 L 30.8559,21.2997 L 30.7965,21.3169 L 30.7432,21.3409 L 30.6953,21.3729 L 30.6524,21.4139
 L 30.6144,21.4638 L 30.5815,21.5228 L 30.5766,21.5228 L 30.5787,21.4709 L 30.5802,21.4224 L 30.5811,21.3775
 L 30.5815,21.336 L 30.5815,20.8197 L 30.3617,20.8197 L 30.3617,22.3589 L 30.3613,22.4533 L 30.3599,22.5301
 L 30.3576,22.5894 L 30.3544,22.6311 L 30.5668,22.6311 L 30.5682,22.6209 L 30.5699,22.6026 L 30.5718,22.5761
 L 30.5741,22.5414 L 30.5763,22.5051 L 30.5778,22.4738 L 30.5787,22.4474 L 30.579,22.426 L 30.5815,22.426
 L 30.6149,22.4823 L 30.653,22.5303 L 30.6958,22.5699 L 30.7432,22.6012 L 30.7961,22.625 L 30.8553,22.642
 L 30.9209,22.6521 L 30.9928,22.6555 z
M 30.8473,22.4854 L 30.7734,22.4622 L 30.7124,22.4235 L 30.6644,22.3693 L 30.6281,22.2988 L 30.6022,22.2114
 L 30.5866,22.1069 L 30.5815,21.9854 L 30.5867,21.8568 L 30.6027,21.7468 L 30.6292,21.6554 L 30.6663,21.5826
 L 30.715,21.5271 L 30.7763,21.4874 L 30.8502,21.4636 L 30.9367,21.4557 L 31.0133,21.4632 L 31.0786,21.4856
 L 31.1323,21.523 L 31.1747,21.5753 L 31.2067,21.645 L 31.2296,21.7343 L 31.2433,21.8433 L 31.2479,21.972
 L 31.2433,22.1003 L 31.2294,22.2095 L 31.2064,22.2996 L 31.1741,22.3705 L 31.1314,22.4242 L 31.0772,22.4625
 L 31.0115,22.4855 L 30.9342,22.4932 z
M 40.4889,20.8197 L 40.2692,20.8197 L 40.2692,22.6311 L 40.4889,22.6311 z
M 22.5227,23.0227 L 22.6152,22.8926 L 22.6927,22.7585 L 22.7554,22.6201 L 22.8037,22.4753 L 22.8382,22.3214
 L 22.8589,22.1585 L 22.8658,21.9866 L 22.8658,21.9818 L 22.859,21.8109 L 22.8384,21.6487 L 22.804,21.4951
 L 22.756,21.3501 L 22.6935,21.2114 L 22.6159,21.0768 L 22.5232,20.9462 L 22.4154,20.8197 L 22.203,20.8197
 L 22.3096,20.9491 L 22.4009,21.0822 L 22.4771,21.2189 L 22.5381,21.3593 L 22.5848,21.505 L 22.6182,21.6577
 L 22.6382,21.8174 L 22.6449,21.9842 L 22.6383,22.1509 L 22.6184,22.3105 L 22.5852,22.4631 L 22.5387,22.6086
 L 22.4779,22.7487 L 22.4017,22.8855 L 22.3101,23.0188 L 22.203,23.1487 L 22.4154,23.1487 z
M -0.359299,20.8197 L -0.579025,20.8197 L -0.579025,21.0297 L -0.359299,21.0297 z
M -8.58444,23.0182 L -8.67633,22.8844 L -8.75258,22.7472 L -8.8132,22.6067 L -8.85939,22.4612 L -8.8924,22.3089
 L -8.91219,22.1499 L -8.91879,21.9842 L -8.91211,21.8179 L -8.89209,21.6583 L -8.85872,21.5054 L -8.812,21.3592
 L -8.75099,21.2184 L -8.67482,21.0815 L -8.58347,20.9487 L -8.47693,20.8197 L -8.6893,20.8197 L -8.7966,20.9457
 L -8.88904,21.0757 L -8.96658,21.2099 L -9.02925,21.3483 L -9.07758,21.4931 L -9.11211,21.647 L -9.13281,21.8099
 L -9.13972,21.9818 L -9.13972,21.9866 L -9.13286,22.1575 L -9.11226,22.3197 L -9.07793,22.4733 L -9.02986,22.6183
 L -8.96738,22.757 L -8.8898,22.8916 L -8.7971,23.0221 L -8.6893,23.1487 L -8.47693,23.1487 z
M 41.0301,20.8197 L 40.8104,20.8197 L 40.8104,21.0297 L 41.0301,21.0297 z
M 41.8478,22.6521 L 41.9132,22.6418 L 41.9726,22.6246 L 42.026,22.6006 L 42.0739,22.5686 L 42.1168,22.5277
 L 42.1547,22.4777 L 42.1877,22.4187 L 42.1926,22.4187 L 42.1929,22.4456 L 42.1937,22.4749 L 42.195,22.5066
 L 42.1969,22.5408 L 42.199,22.573 L 42.201,22.5988 L 42.2029,22.6181 L 42.2048,22.6311 L 42.4148,22.6311
 L 42.4116,22.5894 L 42.4093,22.5301 L 42.4079,22.4533 L 42.4074,22.3589 L 42.4074,20.8197 L 42.1877,20.8197
 L 42.1877,21.3678 L 42.1902,21.5155 L 42.1877,21.5155 L 42.1548,21.4597 L 42.1169,21.412 L 42.0742,21.3725
 L 42.0266,21.3409 L 41.9734,21.3169 L 41.914,21.2997 L 41.8483,21.2894 L 41.7764,21.286 L 41.5638,21.3292
 L 41.412,21.4587 L 41.3209,21.6746 L 41.2906,21.9769 L 41.2979,22.1369 L 41.32,22.2753 L 41.3568,22.392
 L 41.4084,22.4871 L 41.4755,22.5608 L 41.5593,22.6134 L 41.6595,22.645 L 41.7764,22.6555 z
M 41.7559,22.4784 L 41.6906,22.4559 L 41.6369,22.4186 L 41.5945,22.3662 L 41.5625,22.2966 L 41.5396,22.2073
 L 41.5258,22.0982 L 41.5213,21.9696 L 41.5259,21.8412 L 41.5397,21.732 L 41.5628,21.6419 L 41.5951,21.571
 L 41.6378,21.5173 L 41.692,21.479 L 41.7577,21.456 L 41.835,21.4483 L 41.9209,21.456 L 41.9943,21.4789
 L 42.0551,21.517 L 42.1035,21.5704 L 42.1404,21.6402 L 42.1667,21.7276 L 42.1825,21.8325 L 42.1877,21.9549
 L 42.1825,22.0821 L 42.1667,22.1914 L 42.1404,22.2829 L 42.1035,22.3565 L 42.055,22.4131 L 41.9937,22.4535
 L 41.9195,22.4778 L 41.8325,22.4859 z
M 3.57819,20.8197 L 3.35847,20.8197 L 3.35847,22.6311 L 3.57819,22.6311 z
M -6.86797,21.8524 L -6.86214,21.7661 L -6.84462,21.6891 L -6.81544,21.6215 L -6.7746,21.5631 L -6.72406,21.5161
 L -6.6658,21.4825 L -6.59985,21.4624 L -6.5262,21.4557 L -6.47714,21.4577 L -6.43375,21.4636 L -6.39598,21.4735
 L -6.36386,21.4874 L -6.33662,21.5055 L -6.31351,21.5282 L -6.29451,21.5553 L -6.27963,21.5869 L -6.26842,21.6252
 L -6.26041,21.6725 L -6.2556,21.7287 L -6.254,21.7938 L -6.254,22.6311 L -6.03307,22.6311 L -6.03307,21.7511
 L -6.03944,21.6344 L -6.05855,21.5358 L -6.09039,21.4553 L -6.13499,21.3928 L -6.19301,21.3461 L -6.26514,21.3127
 L -6.35138,21.2927 L -6.45174,21.286 L -6.5247,21.2898 L -6.59105,21.3011 L -6.65074,21.32 L -6.70381,21.3464
 L -6.75175,21.381 L -6.79611,21.4241 L -6.83688,21.4758 L -6.87407,21.5362 L -6.87775,21.5362 L -6.87694,21.5259
 L -6.87576,21.5072 L -6.87419,21.4802 L -6.87225,21.4447 L -6.87038,21.4053 L -6.86903,21.3666 L -6.86824,21.3284
 L -6.86797,21.2909 L -6.86797,20.8197 L -7.08769,20.8197 L -7.08769,22.6311 L -6.86797,22.6311 z
M 8.78767,21.4703 L 9.04523,21.4703 L 9.04523,21.3104 L 8.78767,21.3104 L 8.78767,21.192 L 8.79002,21.1402
 L 8.79712,21.0971 L 8.80894,21.0627 L 8.8255,21.037 L 8.84732,21.0183 L 8.87495,21.0049 L 8.90837,20.9969
 L 8.94759,20.9943 L 8.9697,20.9949 L 8.99335,20.9967 L 9.01852,20.9998 L 9.04523,21.004 L 9.04523,20.8368
 L 9.01173,20.8304 L 8.97475,20.8258 L 8.93423,20.8231 L 8.89021,20.8222 L 8.81369,20.8271 L 8.7477,20.842
 L 8.69225,20.8668 L 8.64731,20.9015 L 8.61259,20.9475 L 8.5878,21.0062 L 8.57292,21.0775 L 8.56796,21.1615
 L 8.56796,21.3104 L 8.38243,21.3104 L 8.38243,21.4703 L 8.56796,21.4703 L 8.56796,22.6311 L 8.78767,22.6311
 z
M -40.745,21.4703 L -40.4874,21.4703 L -40.4874,21.3104 L -40.745,21.3104 L -40.745,21.192 L -40.7426,21.1402
 L -40.7355,21.0971 L -40.7237,21.0627 L -40.7071,21.037 L -40.6853,21.0183 L -40.6577,21.0049 L -40.6243,20.9969
 L -40.5851,20.9943 L -40.5629,20.9949 L -40.5393,20.9967 L -40.5141,20.9998 L -40.4874,21.004 L -40.4874,20.8368
 L -40.5209,20.8304 L -40.5579,20.8258 L -40.5984,20.8231 L -40.6424,20.8222 L -40.7189,20.8271 L -40.7849,20.842
 L -40.8404,20.8668 L -40.8853,20.9015 L -40.92,20.9475 L -40.9448,21.0062 L -40.9597,21.0775 L -40.9647,21.1615
 L -40.9647,21.3104 L -41.1502,21.3104 L -41.1502,21.4703 L -40.9647,21.4703 L -40.9647,22.6311 L -40.745,22.6311
 z
M 14.4859,21.4703 L 14.7434,21.4703 L 14.7434,21.3104 L 14.4859,21.3104 L 14.4859,21.192 L 14.4882,21.1402
 L 14.4953,21.0971 L 14.5071,21.0627 L 14.5237,21.037 L 14.5455,21.0183 L 14.5732,21.0049 L 14.6066,20.9969
 L 14.6458,20.9943 L 14.6679,20.9949 L 14.6915,20.9967 L 14.7167,20.9998 L 14.7434,21.004 L 14.7434,20.8368
 L 14.7099,20.8304 L 14.6729,20.8258 L 14.6324,20.8231 L 14.5884,20.8222 L 14.5119,20.8271 L 14.4459,20.842
 L 14.3904,20.8668 L 14.3455,20.9015 L 14.3108,20.9475 L 14.286,21.0062 L 14.2711,21.0775 L 14.2662,21.1615
 L 14.2662,21.3104 L 14.0806,21.3104 L 14.0806,21.4703 L 14.2662,21.4703 L 14.2662,22.6311 L 14.4859,22.6311
 z
M -25.4325,22.6474 L -25.3164,22.6229 L -25.2164,22.5821 L -25.1327,22.5249 L -25.0665,22.4529 L -25.0192,22.3675
 L -24.9908,22.2686 L -24.9813,22.1563 L -24.988,22.0774 L -25.0082,22.0055 L -25.0417,21.9407 L -25.0887,21.8829
 L -25.1478,21.8341 L -25.2175,21.7962 L -25.2979,21.7694 L -25.389,21.7535 L -25.389,21.7486 L -25.3064,21.7262
 L -25.2341,21.6954 L -25.1724,21.6563 L -25.1211,21.6089 L -25.0807,21.5534 L -25.052,21.4903 L -25.0347,21.4195
 L -25.0289,21.3409 L -25.0379,21.2394 L -25.0648,21.1497 L -25.1096,21.0719 L -25.1723,21.0059 L -25.2513,20.9533
 L -25.3446,20.9157 L -25.4524,20.8932 L -25.5746,20.8856 L -25.6876,20.893 L -25.7898,20.9152 L -25.8813,20.9522
 L -25.9621,21.004 L -26.0296,21.069 L -26.0813,21.1456 L -26.1171,21.2338 L -26.1373,21.3336 L -25.9163,21.3507
 L -25.9043,21.2868 L -25.8829,21.2305 L -25.8521,21.1818 L -25.812,21.1407 L -25.7636,21.1082 L -25.7084,21.0849
 L -25.6461,21.0709 L -25.577,21.0663 L -25.502,21.0713 L -25.4368,21.0863 L -25.3814,21.1113 L -25.3359,21.1462
 L -25.3004,21.1898 L -25.275,21.2407 L -25.2598,21.2988 L -25.2547,21.3641 L -25.261,21.4299 L -25.2796,21.4882
 L -25.3107,21.5389 L -25.3542,21.582 L -25.409,21.6165 L -25.474,21.6411 L -25.5491,21.6558 L -25.6344,21.6607
 L -25.754,21.6607 L -25.754,21.8512 L -25.6295,21.8512 L -25.5335,21.8561 L -25.4496,21.8708 L -25.3776,21.8954
 L -25.3176,21.9299 L -25.2703,21.9731 L -25.2366,22.024 L -25.2163,22.0826 L -25.2096,22.149 L -25.2155,22.2246
 L -25.2332,22.2903 L -25.2628,22.346 L -25.3042,22.3919 L -25.3559,22.4277 L -25.4166,22.4532 L -25.4862,22.4685
 L -25.5648,22.4736 L -25.7122,22.4546 L -25.8239,22.3974 L -25.8996,22.302 L -25.9395,22.1685 L -26.1665,22.1893
 L -26.144,22.2975 L -26.1057,22.3917 L -26.0515,22.4718 L -25.9816,22.5377 L -25.8972,22.5893 L -25.7996,22.6261
 L -25.6888,22.6482 L -25.5648,22.6555 z
M -31.1998,22.1282 L -30.4161,22.1282 L -30.2196,22.6311 L -29.9816,22.6311 L -30.6725,20.9113 L -30.9373,20.9113
 L -31.6392,22.6311 L -31.3975,22.6311 z
M -31.129,21.9464 L -30.9093,21.3812 L -30.8812,21.3055 L -30.8568,21.2369 L -30.836,21.1755 L -30.8189,21.1212
 L -30.8079,21.087 L -30.775,21.1884 L -30.7579,21.2401 L -30.7408,21.289 L -30.7237,21.3353 L -30.7066,21.3788
 L -30.4857,21.9464 z
M -27.0085,22.4407 L -28.1302,22.4407 L -28.1302,21.8414 L -27.1318,21.8414 L -27.1318,21.6534 L -28.1302,21.6534
 L -28.1302,21.1017 L -27.0585,21.1017 L -27.0585,20.9113 L -28.3634,20.9113 L -28.3634,22.6311 L -27.0085,22.6311
 z
M -28.5405,20.9113 L -28.7858,20.9113 L -29.2594,22.1221 L -29.362,22.426 L -29.4645,22.1221 L -29.9405,20.9113
 L -30.1859,20.9113 L -29.484,22.6311 L -29.2423,22.6311 z
M -32.9244,22.1317 L -32.823,21.7614 L -32.7578,21.5202 L -32.7287,21.4081 L -32.7171,21.3576 L -32.7043,21.3013
 L -32.6903,21.2392 L -32.675,21.1713 L -32.6486,21.2936 L -32.6256,21.3956 L -32.6059,21.4773 L -32.5896,21.5387
 L -32.2917,22.6311 L -32.0134,22.6311 L -31.5069,20.9113 L -31.7498,20.9113 L -31.892,21.422 L -31.9966,21.7994
 L -32.0635,22.0436 L -32.0928,22.1545 L -32.1465,22.3833 L -32.1575,22.426 L -32.1788,22.3301 L -32.2038,22.224
 L -32.2325,22.1079 L -32.2649,21.9818 L -32.5639,20.9113 L -32.7873,20.9113 L -32.9211,21.3863 L -33.0221,21.7483
 L -33.0904,21.9973 L -33.126,22.1331 L -33.1447,22.2109 L -33.1622,22.2857 L -33.1785,22.3574 L -33.1938,22.426
 L -33.2175,22.3182 L -33.2423,22.2118 L -33.2681,22.107 L -33.2951,22.0037 L -33.6039,20.9113 L -33.8468,20.9113
 L -33.3402,22.6311 L -33.0619,22.6311 z
M -42.5939,22.4407 L -43.463,22.4407 L -43.463,20.9113 L -43.6961,20.9113 L -43.6961,22.6311 L -42.5939,22.6311
 z
M -39.9968,22.6488 L -39.9409,22.6433 L -39.8857,22.6342 L -39.8311,22.6213 L -39.8311,22.459 L -39.8701,22.4665
 L -39.9043,22.4718 L -39.9336,22.475 L -39.958,22.4761 L -39.9936,22.4737 L -40.0235,22.4665 L -40.0476,22.4545
 L -40.066,22.4377 L -40.0797,22.4149 L -40.0894,22.385 L -40.0952,22.3481 L -40.0972,22.304 L -40.0972,21.4703
 L -39.853,21.4703 L -39.853,21.3104 L -40.0972,21.3104 L -40.0972,21.015 L -40.2436,21.015 L -40.3083,21.3104
 L -40.4695,21.3104 L -40.4695,21.4703 L -40.3169,21.4703 L -40.3169,22.3516 L -40.3004,22.4824 L -40.251,22.5759
 L -40.1686,22.632 L -40.0532,22.6507 z
M -16.385,22.6488 L -16.3291,22.6433 L -16.2739,22.6342 L -16.2193,22.6213 L -16.2193,22.459 L -16.2583,22.4665
 L -16.2925,22.4718 L -16.3218,22.475 L -16.3462,22.4761 L -16.3818,22.4737 L -16.4117,22.4665 L -16.4358,22.4545
 L -16.4542,22.4377 L -16.4679,22.4149 L -16.4776,22.385 L -16.4834,22.3481 L -16.4854,22.304 L -16.4854,21.4703
 L -16.2412,21.4703 L -16.2412,21.3104 L -16.4854,21.3104 L -16.4854,21.015 L -16.6318,21.015 L -16.6965,21.3104
 L -16.8577,21.3104 L -16.8577,21.4703 L -16.7051,21.4703 L -16.7051,22.3516 L -16.6886,22.4824 L -16.6392,22.5759
 L -16.5568,22.632 L -16.4414,22.6507 z
M 35.8792,21.8658 L 35.885,21.7746 L 35.9021,21.694 L 35.9307,21.6239 L 35.9708,21.5643 L 36.0208,21.5168
 L 36.0791,21.4828 L 36.1459,21.4625 L 36.221,21.4557 L 36.272,21.4577 L 36.3165,21.4636 L 36.3544,21.4735
 L 36.3858,21.4874 L 36.412,21.5058 L 36.4343,21.5292 L 36.4529,21.5577 L 36.4676,21.5912 L 36.4788,21.6308
 L 36.4868,21.6778 L 36.4916,21.7321 L 36.4932,21.7938 L 36.4932,22.6311 L 36.7141,22.6311 L 36.7141,21.7511
 L 36.7078,21.6354 L 36.6889,21.5373 L 36.6575,21.4568 L 36.6134,21.394 L 36.5558,21.3468 L 36.4836,21.313
 L 36.3968,21.2928 L 36.2955,21.286 L 36.2246,21.2896 L 36.1598,21.3002 L 36.101,21.3179 L 36.0483,21.3428
 L 36,21.3761 L 35.9548,21.4195 L 35.9125,21.4729 L 35.8731,21.5362 L 35.8695,21.5362 L 35.8683,21.4919
 L 35.8672,21.4552 L 35.8661,21.4263 L 35.8652,21.405 L 35.8635,21.3722 L 35.8621,21.3434 L 35.8615,21.3313
 L 35.8609,21.3217 L 35.8603,21.3148 L 35.8597,21.3104 L 35.6522,21.3104 L 35.6554,21.3473 L 35.6577,21.4065
 L 35.6591,21.4883 L 35.6595,21.5924 L 35.6595,22.6311 L 35.8792,22.6311 z
M 5.86562,22.6484 L 5.95686,22.6272 L 6.03896,22.5917 L 6.11188,22.542 L 6.17329,22.4805 L 6.22083,22.4093
 L 6.25447,22.3285 L 6.27423,22.2381 L 6.05206,22.2234 L 6.03914,22.2851 L 6.01866,22.3382 L 5.99062,22.3827
 L 5.95503,22.4187 L 5.91327,22.4465 L 5.86668,22.4663 L 5.81531,22.4782 L 5.75912,22.4822 L 5.68077,22.4743
 L 5.61295,22.4505 L 5.55565,22.4108 L 5.50888,22.3553 L 5.47256,22.2832 L 5.44664,22.1941 L 5.43108,22.0879
 L 5.42589,21.9647 L 5.43077,21.8373 L 5.44542,21.7297 L 5.46983,21.642 L 5.50401,21.5741 L 5.54909,21.5233
 L 5.60623,21.4871 L 5.67543,21.4654 L 5.75668,21.4581 L 5.81711,21.4622 L 5.87021,21.4743 L 5.91597,21.4945
 L 5.95442,21.5228 L 5.98593,21.558 L 6.01088,21.5988 L 6.02927,21.6452 L 6.04109,21.6973 L 6.26691,21.6803
 L 6.24359,21.5931 L 6.20786,21.5158 L 6.15968,21.4484 L 6.09908,21.391 L 6.02794,21.3451 L 5.94818,21.3123
 L 5.85979,21.2926 L 5.76279,21.286 L 5.63402,21.297 L 5.5211,21.3298 L 5.42406,21.3845 L 5.34288,21.4612
 L 5.27881,21.5586 L 5.23303,21.6758 L 5.20558,21.8128 L 5.19643,21.9696 L 5.20554,22.1273 L 5.23288,22.2651
 L 5.27846,22.3828 L 5.34227,22.4804 L 5.42342,22.557 L 5.52095,22.6117 L 5.63489,22.6446 L 5.76523,22.6555
 z
M 20.3853,22.6484 L 20.4765,22.6272 L 20.5586,22.5917 L 20.6316,22.542 L 20.693,22.4805 L 20.7405,22.4093
 L 20.7741,22.3285 L 20.7939,22.2381 L 20.5717,22.2234 L 20.5588,22.2851 L 20.5383,22.3382 L 20.5103,22.3827
 L 20.4747,22.4187 L 20.4329,22.4465 L 20.3864,22.4663 L 20.335,22.4782 L 20.2788,22.4822 L 20.2004,22.4743
 L 20.1326,22.4505 L 20.0753,22.4108 L 20.0285,22.3553 L 19.9922,22.2832 L 19.9663,22.1941 L 19.9507,22.0879
 L 19.9456,21.9647 L 19.9504,21.8373 L 19.9651,21.7297 L 19.9895,21.642 L 20.0237,21.5741 L 20.0688,21.5233
 L 20.1259,21.4871 L 20.1951,21.4654 L 20.2764,21.4581 L 20.3368,21.4622 L 20.3899,21.4743 L 20.4356,21.4945
 L 20.4741,21.5228 L 20.5056,21.558 L 20.5305,21.5988 L 20.5489,21.6452 L 20.5608,21.6973 L 20.7866,21.6803
 L 20.7633,21.5931 L 20.7275,21.5158 L 20.6794,21.4484 L 20.6187,21.391 L 20.5476,21.3451 L 20.4678,21.3123
 L 20.3795,21.2926 L 20.2825,21.286 L 20.1537,21.297 L 20.0408,21.3298 L 19.9437,21.3845 L 19.8626,21.4612
 L 19.7985,21.5586 L 19.7527,21.6758 L 19.7253,21.8128 L 19.7161,21.9696 L 19.7252,22.1273 L 19.7526,22.2651
 L 19.7981,22.3828 L 19.862,22.4804 L 19.9431,22.557 L 20.0406,22.6117 L 20.1546,22.6446 L 20.2849,22.6555
 z
M 9.85161,22.6449 L 9.97101,22.6131 L 10.0732,22.5601 L 10.1581,22.4859 L 10.2248,22.39 L 10.2725,22.2719
 L 10.3011,22.1318 L 10.3107,21.9696 L 10.3017,21.8059 L 10.2749,21.6652 L 10.2303,21.5474 L 10.1678,21.4526
 L 10.0864,21.3797 L 9.98505,21.3277 L 9.86366,21.2964 L 9.72231,21.286 L 9.4633,21.3287 L 9.27831,21.4569
 L 9.16731,21.6705 L 9.13031,21.9696 L 9.13954,22.1264 L 9.16724,22.2635 L 9.21338,22.3811 L 9.278,22.4791
 L 9.3607,22.5563 L 9.46111,22.6114 L 9.57919,22.6445 L 9.71498,22.6555 z
M 9.62767,22.485 L 9.55492,22.4604 L 9.49431,22.4194 L 9.44583,22.362 L 9.40872,22.2882 L 9.3822,22.1982
 L 9.3663,22.092 L 9.36099,21.9696 L 9.36638,21.8442 L 9.38251,21.7366 L 9.40941,21.6467 L 9.44705,21.5747
 L 9.49675,21.5194 L 9.55981,21.4799 L 9.63622,21.4563 L 9.72597,21.4483 L 9.81488,21.4561 L 9.88998,21.4793
 L 9.95128,21.518 L 9.99876,21.5723 L 10.0343,21.6435 L 10.0597,21.7335 L 10.0749,21.8422 L 10.08,21.9696
 L 10.0746,22.0955 L 10.0587,22.2036 L 10.0322,22.2938 L 9.99512,22.3662 L 9.94565,22.4218 L 9.88205,22.4615
 L 9.80435,22.4852 L 9.71254,22.4932 z
M 21.7272,22.636 L 21.8806,22.5774 L 21.9964,22.4798 L 22.0744,22.343 L 21.8816,22.2881 L 21.8628,22.3302
 L 21.8372,22.3684 L 21.8046,22.4028 L 21.765,22.4334 L 21.7184,22.4585 L 21.6647,22.4764 L 21.604,22.4872
 L 21.5361,22.4908 L 21.4512,22.483 L 21.3771,22.4599 L 21.3139,22.4214 L 21.2615,22.3675 L 21.2204,22.2993
 L 21.191,22.2182 L 21.1734,22.1242 L 21.1675,22.0171 L 22.1098,22.0171 L 22.1098,21.9879 L 22.0734,21.6808
 L 21.9643,21.4615 L 21.7823,21.3299 L 21.5276,21.286 L 21.3936,21.2969 L 21.276,21.3297 L 21.1748,21.3842
 L 21.09,21.4606 L 21.023,21.5574 L 20.9751,21.6732 L 20.9464,21.8082 L 20.9368,21.9622 L 20.9464,22.1237
 L 20.9751,22.264 L 21.023,22.3831 L 21.09,22.481 L 21.1753,22.5573 L 21.2781,22.6119 L 21.3984,22.6446
 L 21.5361,22.6555 z
M 21.1699,21.8487 L 21.179,21.7603 L 21.1988,21.6819 L 21.2293,21.6136 L 21.2706,21.5552 L 21.3215,21.5084
 L 21.3806,21.4751 L 21.4481,21.455 L 21.5239,21.4483 L 21.6015,21.4543 L 21.6695,21.4723 L 21.7278,21.5022
 L 21.7766,21.5442 L 21.8162,21.5991 L 21.8471,21.6682 L 21.8693,21.7514 L 21.8828,21.8487 z
M -37.2106,22.6516 L -37.1397,22.6398 L -37.0748,22.6202 L -37.016,22.5927 L -36.9618,22.5557 L -36.9111,22.5077
 L -36.8639,22.4486 L -36.8201,22.3784 L -36.8127,22.3784 L -36.8061,22.4423 L -36.7934,22.497 L -36.7746,22.5427
 L -36.7499,22.5792 L -36.718,22.6073 L -36.6777,22.6273 L -36.6292,22.6393 L -36.5723,22.6433 L -36.5292,22.6421
 L -36.4865,22.6384 L -36.4443,22.6323 L -36.4026,22.6238 L -36.4026,22.4871 L -36.4222,22.4908 L -36.4408,22.4935
 L -36.4582,22.4951 L -36.4746,22.4956 L -36.5077,22.4925 L -36.535,22.4833 L -36.5566,22.4678 L -36.5723,22.4462
 L -36.5835,22.4185 L -36.5915,22.3847 L -36.5963,22.3449 L -36.5979,22.2991 L -36.5979,21.7303 L -36.6058,21.6287
 L -36.6293,21.5397 L -36.6686,21.4636 L -36.7236,21.4001 L -36.7942,21.3502 L -36.8802,21.3145 L -36.9816,21.2932
 L -37.0984,21.286 L -37.3091,21.3083 L -37.4676,21.3751 L -37.5739,21.4865 L -37.6281,21.6424 L -37.3987,21.6632
 L -37.3886,21.612 L -37.3718,21.5683 L -37.3483,21.532 L -37.3181,21.5033 L -37.2795,21.4814 L -37.2308,21.4657
 L -37.1721,21.4564 L -37.1032,21.4532 L -37.0349,21.4576 L -36.9763,21.4706 L -36.9275,21.4924 L -36.8884,21.5228
 L -36.8585,21.5633 L -36.8371,21.6153 L -36.8243,21.6787 L -36.8201,21.7535 L -36.8201,21.8255 L -37.1167,21.8304
 L -37.2565,21.8405 L -37.3756,21.8634 L -37.474,21.8991 L -37.5518,21.9476 L -37.6108,22.0084 L -37.653,22.0812
 L -37.6783,22.1659 L -37.6867,22.2625 L -37.6805,22.3492 L -37.6617,22.426 L -37.6304,22.4932 L -37.5866,22.5506
 L -37.5304,22.5965 L -37.4618,22.6293 L -37.3809,22.649 L -37.2876,22.6555 z
M -37.2881,22.4871 L -37.3326,22.4761 L -37.3708,22.4578 L -37.4029,22.4322 L -37.4283,22.3998 L -37.4464,22.3614
 L -37.4573,22.3168 L -37.4609,22.2661 L -37.4582,22.2191 L -37.4502,22.1767 L -37.4369,22.1391 L -37.4182,22.1063
 L -37.3945,22.0777 L -37.3661,22.0532 L -37.3331,22.0326 L -37.2955,22.0159 L -37.2508,22.003 L -37.1968,21.9934
 L -37.1333,21.9871 L -37.0605,21.9842 L -36.8201,21.9793 L -36.8201,22.0879 L -36.8235,22.1382 L -36.8336,22.1879
 L -36.8506,22.2368 L -36.8744,22.2851 L -36.904,22.3304 L -36.9386,22.3707 L -36.9782,22.4058 L -37.0227,22.4358
 L -37.0714,22.4599 L -37.1234,22.477 L -37.1788,22.4873 L -37.2375,22.4908 z
M -20.6135,22.636 L -20.4601,22.5774 L -20.3443,22.4798 L -20.2663,22.343 L -20.4591,22.2881 L -20.4779,22.3302
 L -20.5035,22.3684 L -20.5361,22.4028 L -20.5757,22.4334 L -20.6223,22.4585 L -20.6759,22.4764 L -20.7367,22.4872
 L -20.8046,22.4908 L -20.8895,22.483 L -20.9636,22.4599 L -21.0268,22.4214 L -21.0792,22.3675 L -21.1203,22.2993
 L -21.1497,22.2182 L -21.1673,22.1242 L -21.1732,22.0171 L -20.2309,22.0171 L -20.2309,21.9879 L -20.2673,21.6808
 L -20.3764,21.4615 L -20.5584,21.3299 L -20.8131,21.286 L -20.9471,21.2969 L -21.0647,21.3297 L -21.1659,21.3842
 L -21.2507,21.4606 L -21.3177,21.5574 L -21.3656,21.6732 L -21.3943,21.8082 L -21.4039,21.9622 L -21.3943,22.1237
 L -21.3656,22.264 L -21.3177,22.3831 L -21.2507,22.481 L -21.1654,22.5573 L -21.0626,22.6119 L -20.9423,22.6446
 L -20.8046,22.6555 z
M -21.1707,21.8487 L -21.1617,21.7603 L -21.1419,21.6819 L -21.1114,21.6136 L -21.0701,21.5552 L -21.0192,21.5084
 L -20.9601,21.4751 L -20.8926,21.455 L -20.8168,21.4483 L -20.7392,21.4543 L -20.6712,21.4723 L -20.6129,21.5022
 L -20.5641,21.5442 L -20.5245,21.5991 L -20.4936,21.6682 L -20.4714,21.7514 L -20.4579,21.8487 z
M 37.6703,22.6449 L 37.7897,22.6131 L 37.8918,22.5601 L 37.9767,22.4859 L 38.0435,22.39 L 38.0912,22.2719
 L 38.1198,22.1318 L 38.1293,21.9696 L 38.1204,21.8059 L 38.0936,21.6652 L 38.049,21.5474 L 37.9865,21.4526
 L 37.9051,21.3797 L 37.8037,21.3277 L 37.6823,21.2964 L 37.541,21.286 L 37.282,21.3287 L 37.097,21.4569
 L 36.986,21.6705 L 36.949,21.9696 L 36.9582,22.1264 L 36.9859,22.2635 L 37.032,22.3811 L 37.0966,22.4791
 L 37.1794,22.5563 L 37.2797,22.6114 L 37.3978,22.6445 L 37.5336,22.6555 z
M 37.4463,22.485 L 37.3736,22.4604 L 37.313,22.4194 L 37.2645,22.362 L 37.2274,22.2882 L 37.2009,22.1982
 L 37.185,22.092 L 37.1796,21.9696 L 37.185,21.8442 L 37.2012,21.7366 L 37.2281,21.6467 L 37.2657,21.5747
 L 37.3154,21.5194 L 37.3785,21.4799 L 37.4549,21.4563 L 37.5446,21.4483 L 37.6335,21.4561 L 37.7086,21.4793
 L 37.7699,21.518 L 37.8174,21.5723 L 37.8529,21.6435 L 37.8783,21.7335 L 37.8935,21.8422 L 37.8986,21.9696
 L 37.8933,22.0955 L 37.8774,22.2036 L 37.8509,22.2938 L 37.8138,22.3662 L 37.7643,22.4218 L 37.7007,22.4615
 L 37.623,22.4852 L 37.5312,22.4932 z
M 7.20757,22.636 L 7.36098,22.5774 L 7.47672,22.4798 L 7.55475,22.343 L 7.36191,22.2881 L 7.34317,22.3302
 L 7.31749,22.3684 L 7.28487,22.4028 L 7.24532,22.4334 L 7.19875,22.4585 L 7.14508,22.4764 L 7.08432,22.4872
 L 7.01646,22.4908 L 6.93155,22.483 L 6.85747,22.4599 L 6.79422,22.4214 L 6.74181,22.3675 L 6.70068,22.2993
 L 6.67131,22.2182 L 6.6537,22.1242 L 6.64783,22.0171 L 7.59016,22.0171 L 7.59016,21.9879 L 7.55377,21.6808
 L 7.4446,21.4615 L 7.26265,21.3299 L 7.00792,21.286 L 6.87392,21.2969 L 6.75632,21.3297 L 6.65512,21.3842
 L 6.57031,21.4606 L 6.5033,21.5574 L 6.45543,21.6732 L 6.42671,21.8082 L 6.41713,21.9622 L 6.42671,22.1237
 L 6.45543,22.264 L 6.5033,22.3831 L 6.57031,22.481 L 6.65565,22.5573 L 6.75845,22.6119 L 6.87872,22.6446
 L 7.01646,22.6555 z
M 6.65027,21.8487 L 6.65932,21.7603 L 6.67911,21.6819 L 6.70966,21.6136 L 6.75096,21.5552 L 6.80182,21.5084
 L 6.86098,21.4751 L 6.92847,21.455 L 7.00426,21.4483 L 7.08183,21.4543 L 7.14981,21.4723 L 7.20816,21.5022
 L 7.25691,21.5442 L 7.29651,21.5991 L 7.32741,21.6682 L 7.34961,21.7514 L 7.36311,21.8487 z
M 32.3774,22.6449 L 32.4968,22.6131 L 32.5989,22.5601 L 32.6838,22.4859 L 32.7506,22.39 L 32.7983,22.2719
 L 32.8269,22.1318 L 32.8364,21.9696 L 32.8275,21.8059 L 32.8007,21.6652 L 32.7561,21.5474 L 32.6936,21.4526
 L 32.6122,21.3797 L 32.5108,21.3277 L 32.3894,21.2964 L 32.2481,21.286 L 31.9891,21.3287 L 31.8041,21.4569
 L 31.6931,21.6705 L 31.6561,21.9696 L 31.6653,22.1264 L 31.693,22.2635 L 31.7391,22.3811 L 31.8038,22.4791
 L 31.8864,22.5563 L 31.9868,22.6114 L 32.1049,22.6445 L 32.2407,22.6555 z
M 32.1534,22.485 L 32.0807,22.4604 L 32.0201,22.4194 L 31.9716,22.362 L 31.9345,22.2882 L 31.908,22.1982
 L 31.892,22.092 L 31.8867,21.9696 L 31.8921,21.8442 L 31.9083,21.7366 L 31.9352,21.6467 L 31.9728,21.5747
 L 32.0225,21.5194 L 32.0856,21.4799 L 32.162,21.4563 L 32.2517,21.4483 L 32.3406,21.4561 L 32.4157,21.4793
 L 32.477,21.518 L 32.5245,21.5723 L 32.56,21.6435 L 32.5854,21.7335 L 32.6006,21.8422 L 32.6057,21.9696
 L 32.6004,22.0955 L 32.5845,22.2036 L 32.558,22.2938 L 32.5209,22.3662 L 32.4714,22.4218 L 32.4078,22.4615
 L 32.3301,22.4852 L 32.2383,22.4932 z
M -14.4664,21.9427 L -14.4619,21.8392 L -14.4483,21.7485 L -14.4258,21.6705 L -14.3943,21.6052 L -14.3543,21.5537
 L -14.3062,21.5169 L -14.2499,21.4948 L -14.1856,21.4874 L -14.1508,21.4882 L -14.1197,21.4905 L -14.0922,21.4943
 L -14.0684,21.4996 L -14.0684,21.2982 L -14.0909,21.2929 L -14.1133,21.2891 L -14.1355,21.2868 L -14.1575,21.286
 L -14.2163,21.2899 L -14.268,21.3016 L -14.3127,21.321 L -14.3504,21.3483 L -14.3836,21.3861 L -14.4148,21.4373
 L -14.444,21.502 L -14.4713,21.5802 L -14.4761,21.5802 L -14.4767,21.5464 L -14.4786,21.4901 L -14.4816,21.4115
 L -14.4859,21.3104 L -14.6934,21.3104 L -14.6902,21.3928 L -14.6879,21.4715 L -14.6865,21.5466 L -14.6861,21.618
 L -14.6861,22.6311 L -14.4664,22.6311 z
M 17.791,22.636 L 17.9444,22.5774 L 18.0601,22.4798 L 18.1381,22.343 L 17.9453,22.2881 L 17.9265,22.3302
 L 17.9009,22.3684 L 17.8683,22.4028 L 17.8287,22.4334 L 17.7821,22.4585 L 17.7285,22.4764 L 17.6677,22.4872
 L 17.5999,22.4908 L 17.5149,22.483 L 17.4408,22.4599 L 17.3776,22.4214 L 17.3252,22.3675 L 17.2841,22.2993
 L 17.2547,22.2182 L 17.2371,22.1242 L 17.2312,22.0171 L 18.1735,22.0171 L 18.1735,21.9879 L 18.1371,21.6808
 L 18.028,21.4615 L 17.846,21.3299 L 17.5913,21.286 L 17.4573,21.2969 L 17.3397,21.3297 L 17.2385,21.3842
 L 17.1537,21.4606 L 17.0867,21.5574 L 17.0388,21.6732 L 17.0101,21.8082 L 17.0005,21.9622 L 17.0101,22.1237
 L 17.0388,22.264 L 17.0867,22.3831 L 17.1537,22.481 L 17.239,22.5573 L 17.3418,22.6119 L 17.4621,22.6446
 L 17.5999,22.6555 z
M 17.2337,21.8487 L 17.2427,21.7603 L 17.2625,21.6819 L 17.293,21.6136 L 17.3344,21.5552 L 17.3852,21.5084
 L 17.4444,21.4751 L 17.5118,21.455 L 17.5876,21.4483 L 17.6652,21.4543 L 17.7332,21.4723 L 17.7915,21.5022
 L 17.8403,21.5442 L 17.8799,21.5991 L 17.9108,21.6682 L 17.933,21.7514 L 17.9465,21.8487 z
M -2.38928,21.8658 L -2.38356,21.7746 L -2.36641,21.694 L -2.3378,21.6239 L -2.29774,21.5643 L -2.24777,21.5168
 L -2.18941,21.4828 L -2.12267,21.4625 L -2.04752,21.4557 L -1.99649,21.4577 L -1.95201,21.4636 L -1.91411,21.4735
 L -1.88275,21.4874 L -1.85658,21.5058 L -1.83423,21.5292 L -1.81569,21.5577 L -1.80096,21.5912 L -1.78975,21.6308
 L -1.78174,21.6778 L -1.77693,21.7321 L -1.77533,21.7938 L -1.77533,22.6311 L -1.5544,22.6311 L -1.5544,21.7511
 L -1.56068,21.6354 L -1.57957,21.5373 L -1.61104,21.4568 L -1.65511,21.394 L -1.71274,21.3468 L -1.78494,21.313
 L -1.87172,21.2928 L -1.97305,21.286 L -2.0439,21.2896 L -2.1087,21.3002 L -2.1675,21.3179 L -2.22025,21.3428
 L -2.26849,21.3761 L -2.31377,21.4195 L -2.35606,21.4729 L -2.39539,21.5362 L -2.39906,21.5362 L -2.40024,21.4919
 L -2.40135,21.4552 L -2.40237,21.4263 L -2.40334,21.405 L -2.40575,21.3573 L -2.40639,21.3434 L -2.407,21.3313
 L -2.40761,21.3217 L -2.40822,21.3148 L -2.40881,21.3104 L -2.61632,21.3104 L -2.61313,21.3473 L -2.61084,21.4065
 L -2.60947,21.4883 L -2.60901,21.5924 L -2.60901,22.6311 L -2.38928,22.6311 z
M 27.1925,21.8658 L 27.1982,21.7746 L 27.2153,21.694 L 27.244,21.6239 L 27.284,21.5643 L 27.334,21.5168
 L 27.3923,21.4828 L 27.4591,21.4625 L 27.5342,21.4557 L 27.5853,21.4577 L 27.6297,21.4636 L 27.6676,21.4735
 L 27.699,21.4874 L 27.7252,21.5058 L 27.7475,21.5292 L 27.7661,21.5577 L 27.7808,21.5912 L 27.792,21.6308
 L 27.8,21.6778 L 27.8048,21.7321 L 27.8064,21.7938 L 27.8064,22.6311 L 28.0274,22.6311 L 28.0274,21.7511
 L 28.0211,21.6354 L 28.0022,21.5373 L 27.9707,21.4568 L 27.9267,21.394 L 27.869,21.3468 L 27.7968,21.313
 L 27.71,21.2928 L 27.6087,21.286 L 27.5379,21.2896 L 27.473,21.3002 L 27.4143,21.3179 L 27.3615,21.3428
 L 27.3133,21.3761 L 27.268,21.4195 L 27.2257,21.4729 L 27.1864,21.5362 L 27.1827,21.5362 L 27.1815,21.4919
 L 27.1804,21.4552 L 27.1794,21.4263 L 27.1784,21.405 L 27.176,21.3573 L 27.1754,21.3434 L 27.1748,21.3313
 L 27.1741,21.3217 L 27.1735,21.3148 L 27.1729,21.3104 L 26.9654,21.3104 L 26.9686,21.3473 L 26.9709,21.4065
 L 26.9723,21.4883 L 26.9727,21.5924 L 26.9727,22.6311 L 27.1925,22.6311 z
M 13.5841,22.636 L 13.7375,22.5774 L 13.8532,22.4798 L 13.9313,22.343 L 13.7384,22.2881 L 13.7197,22.3302
 L 13.694,22.3684 L 13.6614,22.4028 L 13.6218,22.4334 L 13.5752,22.4585 L 13.5216,22.4764 L 13.4608,22.4872
 L 13.393,22.4908 L 13.308,22.483 L 13.234,22.4599 L 13.1707,22.4214 L 13.1183,22.3675 L 13.0772,22.2993
 L 13.0478,22.2182 L 13.0302,22.1242 L 13.0243,22.0171 L 13.9667,22.0171 L 13.9667,21.9879 L 13.9303,21.6808
 L 13.8211,21.4615 L 13.6391,21.3299 L 13.3844,21.286 L 13.2504,21.2969 L 13.1328,21.3297 L 13.0316,21.3842
 L 12.9468,21.4606 L 12.8798,21.5574 L 12.8319,21.6732 L 12.8032,21.8082 L 12.7936,21.9622 L 12.8032,22.1237
 L 12.8319,22.264 L 12.8798,22.3831 L 12.9468,22.481 L 13.0322,22.5573 L 13.1349,22.6119 L 13.2552,22.6446
 L 13.393,22.6555 z
M 13.0268,21.8487 L 13.0358,21.7603 L 13.0556,21.6819 L 13.0862,21.6136 L 13.1275,21.5552 L 13.1783,21.5084
 L 13.2375,21.4751 L 13.305,21.455 L 13.3808,21.4483 L 13.4583,21.4543 L 13.5263,21.4723 L 13.5847,21.5022
 L 13.6334,21.5442 L 13.673,21.5991 L 13.7039,21.6682 L 13.7261,21.7514 L 13.7396,21.8487 z
M -13.4641,22.6516 L -13.3932,22.6398 L -13.3283,22.6202 L -13.2695,22.5927 L -13.2153,22.5557 L -13.1646,22.5077
 L -13.1174,22.4486 L -13.0735,22.3784 L -13.0662,22.3784 L -13.0596,22.4423 L -13.0469,22.497 L -13.0281,22.5427
 L -13.0034,22.5792 L -12.9715,22.6073 L -12.9312,22.6273 L -12.8826,22.6393 L -12.8258,22.6433 L -12.7827,22.6421
 L -12.74,22.6384 L -12.6978,22.6323 L -12.6561,22.6238 L -12.6561,22.4871 L -12.6757,22.4908 L -12.6942,22.4935
 L -12.7117,22.4951 L -12.7281,22.4956 L -12.7612,22.4925 L -12.7885,22.4833 L -12.8101,22.4678 L -12.8258,22.4462
 L -12.837,22.4185 L -12.845,22.3847 L -12.8498,22.3449 L -12.8514,22.2991 L -12.8514,21.7303 L -12.8593,21.6287
 L -12.8828,21.5397 L -12.9221,21.4636 L -12.9771,21.4001 L -13.0477,21.3502 L -13.1337,21.3145 L -13.2351,21.2932
 L -13.3519,21.286 L -13.5626,21.3083 L -13.7211,21.3751 L -13.8275,21.4865 L -13.8816,21.6424 L -13.6521,21.6632
 L -13.6421,21.612 L -13.6253,21.5683 L -13.6018,21.532 L -13.5716,21.5033 L -13.533,21.4814 L -13.4843,21.4657
 L -13.4256,21.4564 L -13.3568,21.4532 L -13.2884,21.4576 L -13.2298,21.4706 L -13.181,21.4924 L -13.1419,21.5228
 L -13.112,21.5633 L -13.0906,21.6153 L -13.0778,21.6787 L -13.0735,21.7535 L -13.0735,21.8255 L -13.3702,21.8304
 L -13.51,21.8405 L -13.6291,21.8634 L -13.7276,21.8991 L -13.8053,21.9476 L -13.8643,22.0084 L -13.9065,22.0812
 L -13.9318,22.1659 L -13.9402,22.2625 L -13.9339,22.3492 L -13.9152,22.426 L -13.8839,22.4932 L -13.8401,22.5506
 L -13.7839,22.5965 L -13.7153,22.6293 L -13.6344,22.649 L -13.5411,22.6555 z
M -13.5416,22.4871 L -13.5861,22.4761 L -13.6243,22.4578 L -13.6564,22.4322 L -13.6818,22.3998 L -13.6999,22.3614
 L -13.7108,22.3168 L -13.7144,22.2661 L -13.7117,22.2191 L -13.7037,22.1767 L -13.6904,22.1391 L -13.6717,22.1063
 L -13.648,22.0777 L -13.6196,22.0532 L -13.5867,22.0326 L -13.549,22.0159 L -13.5043,22.003 L -13.4503,21.9934
 L -13.3868,21.9871 L -13.314,21.9842 L -13.0735,21.9793 L -13.0735,22.0879 L -13.077,22.1382 L -13.0871,22.1879
 L -13.1041,22.2368 L -13.1279,22.2851 L -13.1575,22.3304 L -13.1921,22.3707 L -13.2317,22.4058 L -13.2762,22.4358
 L -13.3249,22.4599 L -13.3769,22.477 L -13.4323,22.4873 L -13.491,22.4908 z
M 12.2675,21.9427 L 12.272,21.8392 L 12.2855,21.7485 L 12.308,21.6705 L 12.3395,21.6052 L 12.3795,21.5537
 L 12.4277,21.5169 L 12.4839,21.4948 L 12.5482,21.4874 L 12.583,21.4882 L 12.6141,21.4905 L 12.6416,21.4943
 L 12.6654,21.4996 L 12.6654,21.2982 L 12.6429,21.2929 L 12.6205,21.2891 L 12.5983,21.2868 L 12.5763,21.286
 L 12.5175,21.2899 L 12.4658,21.3016 L 12.4211,21.321 L 12.3834,21.3483 L 12.3502,21.3861 L 12.319,21.4373
 L 12.2898,21.502 L 12.2626,21.5802 L 12.2577,21.5802 L 12.2571,21.5464 L 12.2553,21.4901 L 12.2522,21.4115
 L 12.2479,21.3104 L 12.0404,21.3104 L 12.0436,21.3928 L 12.0459,21.4715 L 12.0473,21.5466 L 12.0477,21.618
 L 12.0477,22.6311 L 12.2675,22.6311 z
M 28.9835,22.6449 L 29.1029,22.6131 L 29.205,22.5601 L 29.2899,22.4859 L 29.3567,22.39 L 29.4044,22.2719
 L 29.433,22.1318 L 29.4425,21.9696 L 29.4336,21.8059 L 29.4068,21.6652 L 29.3622,21.5474 L 29.2997,21.4526
 L 29.2183,21.3797 L 29.1169,21.3277 L 28.9955,21.2964 L 28.8542,21.286 L 28.5952,21.3287 L 28.4102,21.4569
 L 28.2992,21.6705 L 28.2622,21.9696 L 28.2714,22.1264 L 28.2991,22.2635 L 28.3453,22.3811 L 28.4099,22.4791
 L 28.4926,22.5563 L 28.593,22.6114 L 28.7111,22.6445 L 28.8469,22.6555 z
M 28.7595,22.485 L 28.6868,22.4604 L 28.6262,22.4194 L 28.5777,22.362 L 28.5406,22.2882 L 28.5141,22.1982
 L 28.4982,22.092 L 28.4929,21.9696 L 28.4982,21.8442 L 28.5144,21.7366 L 28.5413,21.6467 L 28.5789,21.5747
 L 28.6286,21.5194 L 28.6917,21.4799 L 28.7681,21.4563 L 28.8578,21.4483 L 28.9467,21.4561 L 29.0219,21.4793
 L 29.0832,21.518 L 29.1306,21.5723 L 29.1662,21.6435 L 29.1915,21.7335 L 29.2068,21.8422 L 29.2118,21.9696
 L 29.2065,22.0955 L 29.1906,22.2036 L 29.1641,22.2938 L 29.127,22.3662 L 29.0775,22.4218 L 29.0139,22.4615
 L 28.9362,22.4852 L 28.8444,22.4932 z
M -5.07695,22.6449 L -4.95755,22.6131 L -4.85541,22.5601 L -4.77049,22.4859 L -4.70374,22.39 L -4.65605,22.2719
 L -4.62744,22.1318 L -4.6179,21.9696 L -4.62683,21.8059 L -4.65361,21.6652 L -4.69824,21.5474 L -4.76073,21.4526
 L -4.84213,21.3797 L -4.94351,21.3277 L -5.0649,21.2964 L -5.20625,21.286 L -5.46526,21.3287 L -5.65025,21.4569
 L -5.76125,21.6705 L -5.79825,21.9696 L -5.78902,22.1264 L -5.76132,22.2635 L -5.71518,22.3811 L -5.65056,22.4791
 L -5.56786,22.5563 L -5.46747,22.6114 L -5.34937,22.6445 L -5.21358,22.6555 z
M -5.30089,22.485 L -5.37364,22.4604 L -5.43425,22.4194 L -5.48273,22.362 L -5.51985,22.2882 L -5.54636,22.1982
 L -5.56226,22.092 L -5.56757,21.9696 L -5.56218,21.8442 L -5.54605,21.7366 L -5.51915,21.6467 L -5.48151,21.5747
 L -5.43181,21.5194 L -5.36874,21.4799 L -5.29234,21.4563 L -5.20259,21.4483 L -5.11368,21.4561 L -5.03857,21.4793
 L -4.97728,21.518 L -4.92979,21.5723 L -4.89427,21.6435 L -4.8689,21.7335 L -4.85368,21.8422 L -4.8486,21.9696
 L -4.85391,22.0955 L -4.86981,22.2036 L -4.89633,22.2938 L -4.93344,22.3662 L -4.98291,22.4218 L -5.04651,22.4615
 L -5.12421,22.4852 L -5.21602,22.4932 z
M 0.189194,21.8658 L 0.194916,21.7746 L 0.212082,21.694 L 0.240692,21.6239 L 0.280746,21.5643 L 0.330719,21.5168
 L 0.389069,21.4828 L 0.455826,21.4625 L 0.53096,21.4557 L 0.582001,21.4577 L 0.626465,21.4636 L 0.664383,21.4735
 L 0.69574,21.4874 L 0.721909,21.5058 L 0.744263,21.5292 L 0.762802,21.5577 L 0.777527,21.5912 L 0.788742,21.6308
 L 0.796753,21.6778 L 0.801559,21.7321 L 0.803162,21.7938 L 0.803162,22.6311 L 1.02409,22.6311 L 1.02409,21.7511
 L 1.01779,21.6354 L 0.998917,21.5373 L 0.967438,21.4568 L 0.923386,21.394 L 0.865753,21.3468 L 0.793549,21.313
 L 0.706772,21.2928 L 0.605423,21.286 L 0.534592,21.2896 L 0.469772,21.3002 L 0.410995,21.3179 L 0.358231,21.3428
 L 0.309982,21.3761 L 0.264709,21.4195 L 0.222412,21.4729 L 0.18309,21.5362 L 0.179428,21.5362 L 0.178238,21.4919
 L 0.177139,21.4552 L 0.176117,21.4263 L 0.175156,21.405 L 0.172745,21.3573 L 0.171478,21.3313 L 0.170883,21.3217
 L 0.170273,21.3148 L 0.169662,21.3104 L -0.0378265,21.3104 L -0.0346222,21.3473 L -0.0323486,21.4065 L -0.0309753,21.4883
 L -0.0305176,21.5924 L -0.0305176,22.6311 L 0.189194,22.6311 z
M 18.6452,21.8658 L 18.6509,21.7746 L 18.668,21.694 L 18.6967,21.6239 L 18.7367,21.5643 L 18.7867,21.5168
 L 18.845,21.4828 L 18.9118,21.4625 L 18.9869,21.4557 L 19.0379,21.4577 L 19.0824,21.4636 L 19.1203,21.4735
 L 19.1517,21.4874 L 19.1779,21.5058 L 19.2002,21.5292 L 19.2188,21.5577 L 19.2335,21.5912 L 19.2447,21.6308
 L 19.2527,21.6778 L 19.2575,21.7321 L 19.2591,21.7938 L 19.2591,22.6311 L 19.48,22.6311 L 19.48,21.7511
 L 19.4738,21.6354 L 19.4549,21.5373 L 19.4234,21.4568 L 19.3793,21.394 L 19.3217,21.3468 L 19.2495,21.313
 L 19.1627,21.2928 L 19.0614,21.286 L 18.9905,21.2896 L 18.9257,21.3002 L 18.8669,21.3179 L 18.8142,21.3428
 L 18.7659,21.3761 L 18.7207,21.4195 L 18.6784,21.4729 L 18.6391,21.5362 L 18.6354,21.5362 L 18.6342,21.4919
 L 18.6331,21.4552 L 18.6321,21.4263 L 18.6311,21.405 L 18.6294,21.3722 L 18.6281,21.3434 L 18.6274,21.3313
 L 18.6268,21.3217 L 18.6262,21.3148 L 18.6256,21.3104 L 18.4181,21.3104 L 18.4213,21.3473 L 18.4236,21.4065
 L 18.425,21.4883 L 18.4254,21.5924 L 18.4254,22.6311 L 18.6452,22.6311 z
M -23.3994,22.6449 L -23.28,22.6131 L -23.1778,22.5601 L -23.0929,22.4859 L -23.0262,22.39 L -22.9785,22.2719
 L -22.9499,22.1318 L -22.9403,21.9696 L -22.9493,21.8059 L -22.976,21.6652 L -23.0207,21.5474 L -23.0832,21.4526
 L -23.1646,21.3797 L -23.2659,21.3277 L -23.3873,21.2964 L -23.5287,21.286 L -23.7877,21.3287 L -23.9727,21.4569
 L -24.0837,21.6705 L -24.1207,21.9696 L -24.1115,22.1264 L -24.0838,22.2635 L -24.0376,22.3811 L -23.973,22.4791
 L -23.8903,22.5563 L -23.7899,22.6114 L -23.6718,22.6445 L -23.536,22.6555 z
M -23.6233,22.485 L -23.6961,22.4604 L -23.7567,22.4194 L -23.8052,22.362 L -23.8423,22.2882 L -23.8688,22.1982
 L -23.8847,22.092 L -23.89,21.9696 L -23.8846,21.8442 L -23.8685,21.7366 L -23.8416,21.6467 L -23.8039,21.5747
 L -23.7542,21.5194 L -23.6912,21.4799 L -23.6148,21.4563 L -23.525,21.4483 L -23.4361,21.4561 L -23.361,21.4793
 L -23.2997,21.518 L -23.2522,21.5723 L -23.2167,21.6435 L -23.1913,21.7335 L -23.1761,21.8422 L -23.171,21.9696
 L -23.1763,22.0955 L -23.1922,22.2036 L -23.2188,22.2938 L -23.2559,22.3662 L -23.3054,22.4218 L -23.3689,22.4615
 L -23.4466,22.4852 L -23.5385,22.4932 z
M -10.4342,22.636 L -10.2808,22.5774 L -10.1651,22.4798 L -10.087,22.343 L -10.2799,22.2881 L -10.2986,22.3302
 L -10.3243,22.3684 L -10.3569,22.4028 L -10.3964,22.4334 L -10.443,22.4585 L -10.4967,22.4764 L -10.5574,22.4872
 L -10.6253,22.4908 L -10.7102,22.483 L -10.7843,22.4599 L -10.8475,22.4214 L -10.9,22.3675 L -10.9411,22.2993
 L -10.9704,22.2182 L -10.9881,22.1242 L -10.9939,22.0171 L -10.0516,22.0171 L -10.0516,21.9879 L -10.088,21.6808
 L -10.1972,21.4615 L -10.3791,21.3299 L -10.6339,21.286 L -10.7679,21.2969 L -10.8855,21.3297 L -10.9866,21.3842
 L -11.0714,21.4606 L -11.1385,21.5574 L -11.1863,21.6732 L -11.2151,21.8082 L -11.2246,21.9622 L -11.2151,22.1237
 L -11.1863,22.264 L -11.1385,22.3831 L -11.0714,22.481 L -10.9861,22.5573 L -10.8833,22.6119 L -10.763,22.6446
 L -10.6253,22.6555 z
M -10.9915,21.8487 L -10.9825,21.7603 L -10.9626,21.6819 L -10.9321,21.6136 L -10.8908,21.5552 L -10.84,21.5084
 L -10.7808,21.4751 L -10.7133,21.455 L -10.6375,21.4483 L -10.5599,21.4543 L -10.492,21.4723 L -10.4336,21.5022
 L -10.3849,21.5442 L -10.3453,21.5991 L -10.3144,21.6682 L -10.2922,21.7514 L -10.2787,21.8487 z
M -19.7592,21.8658 L -19.7535,21.7746 L -19.7364,21.694 L -19.7078,21.6239 L -19.6677,21.5643 L -19.6177,21.5168
 L -19.5594,21.4828 L -19.4926,21.4625 L -19.4175,21.4557 L -19.3665,21.4577 L -19.322,21.4636 L -19.2841,21.4735
 L -19.2527,21.4874 L -19.2265,21.5058 L -19.2042,21.5292 L -19.1857,21.5577 L -19.1709,21.5912 L -19.1597,21.6308
 L -19.1517,21.6778 L -19.1469,21.7321 L -19.1453,21.7938 L -19.1453,22.6311 L -18.9244,22.6311 L -18.9244,21.7511
 L -18.9306,21.6354 L -18.9495,21.5373 L -18.981,21.4568 L -19.0251,21.394 L -19.0827,21.3468 L -19.1549,21.313
 L -19.2417,21.2928 L -19.343,21.286 L -19.4139,21.2896 L -19.4787,21.3002 L -19.5375,21.3179 L -19.5902,21.3428
 L -19.6385,21.3761 L -19.6837,21.4195 L -19.726,21.4729 L -19.7654,21.5362 L -19.769,21.5362 L -19.7702,21.4919
 L -19.7713,21.4552 L -19.7723,21.4263 L -19.7733,21.405 L -19.7757,21.3573 L -19.7764,21.3434 L -19.777,21.3313
 L -19.7776,21.3217 L -19.7782,21.3148 L -19.7788,21.3104 L -19.9863,21.3104 L -19.9831,21.3473 L -19.9808,21.4065
 L -19.9794,21.4883 L -19.979,21.5924 L -19.979,22.6311 L -19.7592,22.6311 z
M 15.6201,22.636 L 15.7736,22.5774 L 15.8893,22.4798 L 15.9673,22.343 L 15.7745,22.2881 L 15.7558,22.3302
 L 15.7301,22.3684 L 15.6975,22.4028 L 15.6579,22.4334 L 15.6113,22.4585 L 15.5577,22.4764 L 15.4969,22.4872
 L 15.4291,22.4908 L 15.3441,22.483 L 15.2701,22.4599 L 15.2068,22.4214 L 15.1544,22.3675 L 15.1133,22.2993
 L 15.0839,22.2182 L 15.0663,22.1242 L 15.0604,22.0171 L 16.0027,22.0171 L 16.0027,21.9879 L 15.9664,21.6808
 L 15.8572,21.4615 L 15.6752,21.3299 L 15.4205,21.286 L 15.2865,21.2969 L 15.1689,21.3297 L 15.0677,21.3842
 L 14.9829,21.4606 L 14.9159,21.5574 L 14.868,21.6732 L 14.8393,21.8082 L 14.8297,21.9622 L 14.8393,22.1237
 L 14.868,22.264 L 14.9159,22.3831 L 14.9829,22.481 L 15.0682,22.5573 L 15.171,22.6119 L 15.2913,22.6446
 L 15.4291,22.6555 z
M 15.0629,21.8487 L 15.0719,21.7603 L 15.0917,21.6819 L 15.1223,21.6136 L 15.1636,21.5552 L 15.2144,21.5084
 L 15.2736,21.4751 L 15.341,21.455 L 15.4169,21.4483 L 15.4944,21.4543 L 15.5624,21.4723 L 15.6208,21.5022
 L 15.6695,21.5442 L 15.7091,21.5991 L 15.74,21.6682 L 15.7622,21.7514 L 15.7757,21.8487 z
M 4.31471,22.6516 L 4.38562,22.6398 L 4.45052,22.6202 L 4.50937,22.5927 L 4.56349,22.5557 L 4.6142,22.5077
 L 4.66145,22.4486 L 4.70528,22.3784 L 4.71259,22.3784 L 4.71927,22.4423 L 4.73196,22.497 L 4.75069,22.5427
 L 4.77545,22.5792 L 4.80737,22.6073 L 4.84763,22.6273 L 4.89619,22.6393 L 4.95306,22.6433 L 4.99617,22.6421
 L 5.0388,22.6384 L 5.08099,22.6323 L 5.12271,22.6238 L 5.12271,22.4871 L 5.10312,22.4908 L 5.08458,22.4935
 L 5.06712,22.4951 L 5.05072,22.4956 L 5.01761,22.4925 L 4.9903,22.4833 L 4.96878,22.4678 L 4.95305,22.4462
 L 4.94183,22.4185 L 4.93382,22.3847 L 4.92902,22.3449 L 4.92741,22.2991 L 4.92741,21.7303 L 4.91956,21.6287
 L 4.89598,21.5397 L 4.85669,21.4636 L 4.80168,21.4001 L 4.73112,21.3502 L 4.64516,21.3145 L 4.54376,21.2932
 L 4.42697,21.286 L 4.21626,21.3083 L 4.05772,21.3751 L 3.95139,21.4865 L 3.89723,21.6424 L 4.12669,21.6632
 L 4.13676,21.612 L 4.15355,21.5683 L 4.17705,21.532 L 4.20726,21.5033 L 4.24586,21.4814 L 4.29454,21.4657
 L 4.35327,21.4564 L 4.42209,21.4532 L 4.49045,21.4576 L 4.54904,21.4706 L 4.59785,21.4924 L 4.63692,21.5228
 L 4.66682,21.5633 L 4.68819,21.6153 L 4.701,21.6787 L 4.70528,21.7535 L 4.70528,21.8255 L 4.40866,21.8304
 L 4.26886,21.8405 L 4.14973,21.8634 L 4.05128,21.8991 L 3.97351,21.9476 L 3.91451,22.0084 L 3.87236,22.0812
 L 3.84706,22.1659 L 3.83864,22.2625 L 3.84489,22.3492 L 3.86365,22.426 L 3.89493,22.4932 L 3.93872,22.5506
 L 3.99495,22.5965 L 4.06352,22.6293 L 4.14447,22.649 L 4.23776,22.6555 z
M 4.2372,22.4871 L 4.19276,22.4761 L 4.1545,22.4578 L 4.12242,22.4322 L 4.09706,22.3998 L 4.07893,22.3614
 L 4.06807,22.3168 L 4.06444,22.2661 L 4.06711,22.2191 L 4.07512,22.1767 L 4.08847,22.1391 L 4.10716,22.1063
 L 4.13084,22.0777 L 4.15919,22.0532 L 4.19218,22.0326 L 4.22983,22.0159 L 4.27451,22.003 L 4.32855,21.9934
 L 4.392,21.9871 L 4.46481,21.9842 L 4.70528,21.9793 L 4.70528,22.0879 L 4.70189,22.1382 L 4.6917,22.1879
 L 4.67473,22.2368 L 4.65096,22.2851 L 4.62132,22.3304 L 4.58672,22.3707 L 4.54715,22.4058 L 4.50264,22.4358
 L 4.45396,22.4599 L 4.40195,22.477 L 4.34656,22.4873 L 4.28783,22.4908 z
M -15.3909,22.6449 L -15.2715,22.6131 L -15.1694,22.5601 L -15.0845,22.4859 L -15.0177,22.39 L -14.97,22.2719
 L -14.9414,22.1318 L -14.9319,21.9696 L -14.9408,21.8059 L -14.9676,21.6652 L -15.0122,21.5474 L -15.0747,21.4526
 L -15.1561,21.3797 L -15.2575,21.3277 L -15.3789,21.2964 L -15.5202,21.286 L -15.7792,21.3287 L -15.9642,21.4569
 L -16.0752,21.6705 L -16.1122,21.9696 L -16.103,22.1264 L -16.0753,22.2635 L -16.0291,22.3811 L -15.9645,22.4791
 L -15.8818,22.5563 L -15.7814,22.6114 L -15.6633,22.6445 L -15.5275,22.6555 z
M -15.6149,22.485 L -15.6876,22.4604 L -15.7482,22.4194 L -15.7967,22.362 L -15.8338,22.2882 L -15.8603,22.1982
 L -15.8762,22.092 L -15.8815,21.9696 L -15.8761,21.8442 L -15.86,21.7366 L -15.8331,21.6467 L -15.7955,21.5747
 L -15.7458,21.5194 L -15.6827,21.4799 L -15.6063,21.4563 L -15.5166,21.4483 L -15.4276,21.4561 L -15.3525,21.4793
 L -15.2912,21.518 L -15.2438,21.5723 L -15.2082,21.6435 L -15.1829,21.7335 L -15.1676,21.8422 L -15.1626,21.9696
 L -15.1679,22.0955 L -15.1838,22.2036 L -15.2103,22.2938 L -15.2474,22.3662 L -15.2969,22.4218 L -15.3605,22.4615
 L -15.4382,22.4852 L -15.53,22.4932 z
M 43.44,22.636 L 43.5934,22.5774 L 43.7092,22.4798 L 43.7872,22.343 L 43.5944,22.2881 L 43.5756,22.3302
 L 43.5499,22.3684 L 43.5173,22.4028 L 43.4778,22.4334 L 43.4312,22.4585 L 43.3775,22.4764 L 43.3168,22.4872
 L 43.2489,22.4908 L 43.164,22.483 L 43.0899,22.4599 L 43.0267,22.4214 L 42.9743,22.3675 L 42.9331,22.2993
 L 42.9038,22.2182 L 42.8862,22.1242 L 42.8803,22.0171 L 43.8226,22.0171 L 43.8226,21.9879 L 43.7862,21.6808
 L 43.677,21.4615 L 43.4951,21.3299 L 43.2404,21.286 L 43.1064,21.2969 L 42.9888,21.3297 L 42.8876,21.3842
 L 42.8028,21.4606 L 42.7357,21.5574 L 42.6879,21.6732 L 42.6592,21.8082 L 42.6496,21.9622 L 42.6592,22.1237
 L 42.6879,22.264 L 42.7357,22.3831 L 42.8028,22.481 L 42.8881,22.5573 L 42.9909,22.6119 L 43.1112,22.6446
 L 43.2489,22.6555 z
M 42.8827,21.8487 L 42.8918,21.7603 L 42.9116,21.6819 L 42.9421,21.6136 L 42.9834,21.5552 L 43.0343,21.5084
 L 43.0934,21.4751 L 43.1609,21.455 L 43.2367,21.4483 L 43.3143,21.4543 L 43.3823,21.4723 L 43.4406,21.5022
 L 43.4894,21.5442 L 43.529,21.5991 L 43.5599,21.6682 L 43.5821,21.7514 L 43.5956,21.8487 z
M -41.6468,22.636 L -41.4933,22.5774 L -41.3776,22.4798 L -41.2996,22.343 L -41.4924,22.2881 L -41.5112,22.3302
 L -41.5368,22.3684 L -41.5694,22.4028 L -41.609,22.4334 L -41.6556,22.4585 L -41.7092,22.4764 L -41.77,22.4872
 L -41.8379,22.4908 L -41.9228,22.483 L -41.9969,22.4599 L -42.0601,22.4214 L -42.1125,22.3675 L -42.1536,22.2993
 L -42.183,22.2182 L -42.2006,22.1242 L -42.2065,22.0171 L -41.2642,22.0171 L -41.2642,21.9879 L -41.3006,21.6808
 L -41.4097,21.4615 L -41.5917,21.3299 L -41.8464,21.286 L -41.9804,21.2969 L -42.098,21.3297 L -42.1992,21.3842
 L -42.284,21.4606 L -42.351,21.5574 L -42.3989,21.6732 L -42.4276,21.8082 L -42.4372,21.9622 L -42.4276,22.1237
 L -42.3989,22.264 L -42.351,22.3831 L -42.284,22.481 L -42.1987,22.5573 L -42.0959,22.6119 L -41.9756,22.6446
 L -41.8379,22.6555 z
M -42.2041,21.8487 L -42.195,21.7603 L -42.1752,21.6819 L -42.1447,21.6136 L -42.1034,21.5552 L -42.0525,21.5084
 L -41.9933,21.4751 L -41.9259,21.455 L -41.8501,21.4483 L -41.7725,21.4543 L -41.7045,21.4723 L -41.6462,21.5022
 L -41.5974,21.5442 L -41.5578,21.5991 L -41.5269,21.6682 L -41.5047,21.7514 L -41.4912,21.8487 z
M 16.4744,21.9427 L 16.4789,21.8392 L 16.4924,21.7485 L 16.5149,21.6705 L 16.5464,21.6052 L 16.5864,21.5537
 L 16.6346,21.5169 L 16.6908,21.4948 L 16.7551,21.4874 L 16.7899,21.4882 L 16.821,21.4905 L 16.8485,21.4943
 L 16.8723,21.4996 L 16.8723,21.2982 L 16.8498,21.2929 L 16.8274,21.2891 L 16.8052,21.2868 L 16.7832,21.286
 L 16.7244,21.2899 L 16.6727,21.3016 L 16.628,21.321 L 16.5903,21.3483 L 16.5571,21.3861 L 16.5259,21.4373
 L 16.4967,21.502 L 16.4695,21.5802 L 16.4646,21.5802 L 16.464,21.5464 L 16.4621,21.4901 L 16.4591,21.4115
 L 16.4548,21.3104 L 16.2473,21.3104 L 16.2505,21.3928 L 16.2528,21.4715 L 16.2542,21.5466 L 16.2546,21.618
 L 16.2546,22.6311 L 16.4744,22.6311 z
M 10.7762,21.9427 L 10.7807,21.8392 L 10.7942,21.7485 L 10.8167,21.6705 L 10.8482,21.6052 L 10.8882,21.5537
 L 10.9364,21.5169 L 10.9926,21.4948 L 11.0569,21.4874 L 11.0917,21.4882 L 11.1228,21.4905 L 11.1503,21.4943
 L 11.1741,21.4996 L 11.1741,21.2982 L 11.1516,21.2929 L 11.1292,21.2891 L 11.107,21.2868 L 11.085,21.286
 L 11.0262,21.2899 L 10.9745,21.3016 L 10.9298,21.321 L 10.8921,21.3483 L 10.8589,21.3861 L 10.8277,21.4373
 L 10.7985,21.502 L 10.7713,21.5802 L 10.7664,21.5802 L 10.7658,21.5464 L 10.7639,21.4901 L 10.7609,21.4115
 L 10.7566,21.3104 L 10.5491,21.3104 L 10.5523,21.3928 L 10.5546,21.4715 L 10.556,21.5466 L 10.5564,21.618
 L 10.5564,22.6311 L 10.7762,22.6311 z
M -22.4797,22.6336 L -22.48,22.5464 L -22.4809,22.4828 L -22.4825,22.4427 L -22.4846,22.426 L -22.4785,22.426
 L -22.4135,22.5264 L -22.3235,22.5982 L -22.2084,22.6412 L -22.0684,22.6555 L -21.8558,22.6124 L -21.704,22.4828
 L -21.6129,22.2669 L -21.5826,21.9647 L -21.5901,21.8012 L -21.6128,21.661 L -21.6505,21.5442 L -21.7034,21.4508
 L -21.7715,21.3792 L -21.8551,21.3281 L -21.954,21.2974 L -22.0684,21.2872 L -22.1433,21.2908 L -22.2106,21.3014
 L -22.2702,21.3192 L -22.3223,21.344 L -22.3681,21.3764 L -22.4092,21.4171 L -22.4456,21.4659 L -22.4773,21.5228
 L -22.4821,21.5228 L -22.4823,21.5088 L -22.4829,21.4899 L -22.4839,21.466 L -22.4852,21.4374 L -22.4867,21.4083
 L -22.4881,21.3832 L -22.4894,21.3622 L -22.4907,21.3452 L -22.4919,21.3318 L -22.4928,21.3216 L -22.4937,21.3144
 L -22.4944,21.3104 L -22.7068,21.3104 L -22.7036,21.352 L -22.7013,21.4108 L -22.6999,21.4869 L -22.6994,21.5802
 L -22.6994,23.1499 L -22.4797,23.1499 z
M -22.2139,22.4855 L -22.2878,22.4624 L -22.3487,22.4238 L -22.3967,22.3699 L -22.433,22.2997 L -22.459,22.2124
 L -22.4745,22.1081 L -22.4797,21.9866 L -22.4773,21.8977 L -22.4701,21.8174 L -22.4581,21.746 L -22.4413,21.6833
 L -22.4198,21.6289 L -22.394,21.5822 L -22.3637,21.5431 L -22.329,21.5118 L -22.2885,21.4878 L -22.2409,21.4706
 L -22.1863,21.4603 L -22.1245,21.4569 L -22.0488,21.4643 L -21.9841,21.4865 L -21.9304,21.5235 L -21.8877,21.5753
 L -21.8551,21.6443 L -21.8319,21.7331 L -21.8179,21.8415 L -21.8133,21.9696 L -21.8179,22.101 L -21.832,22.212
 L -21.8555,22.3027 L -21.8883,22.373 L -21.9314,22.4256 L -21.9855,22.4631 L -22.0507,22.4857 L -22.127,22.4932
 z
M 2.2204,22.6336 L 2.22009,22.5464 L 2.21918,22.4828 L 2.21765,22.4427 L 2.21552,22.426 L 2.22162,22.426
 L 2.28662,22.5264 L 2.37663,22.5982 L 2.49168,22.6412 L 2.63174,22.6555 L 2.8443,22.6124 L 2.99611,22.4828
 L 3.0872,22.2669 L 3.11757,21.9647 L 3.11002,21.8012 L 3.08736,21.661 L 3.04959,21.5442 L 2.99672,21.4508
 L 2.92859,21.3792 L 2.84505,21.3281 L 2.74611,21.2974 L 2.63174,21.2872 L 2.55682,21.2908 L 2.48955,21.3014
 L 2.42989,21.3192 L 2.37785,21.344 L 2.332,21.3764 L 2.29089,21.4171 L 2.2545,21.4659 L 2.22284,21.5228
 L 2.21796,21.5228 L 2.21777,21.5088 L 2.21719,21.4899 L 2.21625,21.466 L 2.2149,21.4374 L 2.21342,21.4083
 L 2.21201,21.3832 L 2.21068,21.3622 L 2.20941,21.3452 L 2.20827,21.3318 L 2.20728,21.3216 L 2.20644,21.3144
 L 2.20576,21.3104 L 1.99336,21.3104 L 1.99657,21.352 L 1.99886,21.4108 L 2.00023,21.4869 L 2.00069,21.5802
 L 2.00069,23.1499 L 2.2204,23.1499 z
M 2.48627,22.4855 L 2.41234,22.4624 L 2.35138,22.4238 L 2.30339,22.3699 L 2.26707,22.2997 L 2.24113,22.2124
 L 2.22559,22.1081 L 2.2204,21.9866 L 2.22279,21.8977 L 2.23001,21.8174 L 2.24202,21.746 L 2.25883,21.6833
 L 2.28029,21.6289 L 2.30615,21.5822 L 2.33644,21.5431 L 2.37114,21.5118 L 2.41162,21.4878 L 2.45918,21.4706
 L 2.51384,21.4603 L 2.57561,21.4569 L 2.65128,21.4643 L 2.71597,21.4865 L 2.76967,21.5235 L 2.81239,21.5753
 L 2.84497,21.6443 L 2.86824,21.7331 L 2.8822,21.8415 L 2.88686,21.9696 L 2.88217,22.101 L 2.86809,22.212
 L 2.84464,22.3027 L 2.81178,22.373 L 2.76872,22.4256 L 2.7146,22.4631 L 2.64941,22.4857 L 2.57315,22.4932
 z
M 39.6237,22.6492 L 39.7295,22.6302 L 39.8211,22.5985 L 39.8987,22.5542 L 39.9604,22.4982 L 40.0044,22.4315
 L 40.0309,22.3542 L 40.0397,22.2661 L 40.0381,22.2293 L 40.0336,22.1946 L 40.0259,22.1619 L 40.0152,22.1313
 L 40.0018,22.1026 L 39.9858,22.0756 L 39.9673,22.0504 L 39.9463,22.0269 L 39.922,22.0048 L 39.8936,21.9837
 L 39.8613,21.9637 L 39.8248,21.9445 L 39.7803,21.9255 L 39.7235,21.9056 L 39.6546,21.8849 L 39.5734,21.8634
 L 39.4892,21.842 L 39.4208,21.8231 L 39.3683,21.8066 L 39.3317,21.7926 L 39.3048,21.7791 L 39.2813,21.7642
 L 39.2614,21.7479 L 39.245,21.7303 L 39.2322,21.7108 L 39.2231,21.6888 L 39.2176,21.6644 L 39.2157,21.6376
 L 39.2202,21.5947 L 39.2334,21.5576 L 39.2556,21.5263 L 39.2865,21.5008 L 39.3268,21.4811 L 39.3769,21.467
 L 39.4367,21.4585 L 39.5063,21.4557 L 39.57,21.4586 L 39.6269,21.4674 L 39.6771,21.4821 L 39.7205,21.5027
 L 39.7566,21.5287 L 39.785,21.5599 L 39.8057,21.5962 L 39.8187,21.6376 L 40.0165,21.6131 L 39.9935,21.5341
 L 39.9586,21.4666 L 39.912,21.4108 L 39.8535,21.3666 L 39.7835,21.3329 L 39.7023,21.3089 L 39.6099,21.2945
 L 39.5063,21.2897 L 39.3903,21.2956 L 39.2891,21.3133 L 39.2027,21.3429 L 39.1309,21.3843 L 39.0746,21.437
 L 39.0343,21.5004 L 39.0102,21.5746 L 39.0021,21.6595 L 39.005,21.7064 L 39.0134,21.7495 L 39.0275,21.7888
 L 39.0473,21.8243 L 39.0721,21.8566 L 39.1012,21.8864 L 39.1346,21.9137 L 39.1724,21.9384 L 39.2192,21.9621
 L 39.2797,21.9859 L 39.3538,22.0099 L 39.4416,22.0342 L 39.599,22.0757 L 39.6547,22.0927 L 39.7022,22.1117
 L 39.7414,22.1329 L 39.7724,22.1563 L 39.7959,22.1825 L 39.8126,22.2124 L 39.8227,22.246 L 39.8261,22.2832
 L 39.8212,22.3313 L 39.8067,22.373 L 39.7825,22.4082 L 39.7486,22.437 L 39.7042,22.4595 L 39.6486,22.4755
 L 39.5818,22.4851 L 39.5038,22.4883 L 39.43,22.4852 L 39.3647,22.476 L 39.3079,22.4605 L 39.2597,22.4389
 L 39.2195,22.4106 L 39.1868,22.3752 L 39.1615,22.3328 L 39.1437,22.2832 L 38.9496,22.3211 L 38.9756,22.4015
 L 39.0133,22.4705 L 39.0626,22.5281 L 39.1236,22.5744 L 39.1975,22.6099 L 39.2855,22.6352 L 39.3876,22.6505
 L 39.5038,22.6555 z
M -17.3726,22.6492 L -17.2668,22.6302 L -17.1752,22.5985 L -17.0976,22.5542 L -17.0359,22.4982 L -16.9919,22.4315
 L -16.9654,22.3542 L -16.9566,22.2661 L -16.9581,22.2293 L -16.9627,22.1946 L -16.9704,22.1619 L -16.981,22.1313
 L -16.9945,22.1026 L -17.0105,22.0756 L -17.029,22.0504 L -17.05,22.0269 L -17.0743,22.0048 L -17.1026,21.9837
 L -17.135,21.9637 L -17.1714,21.9445 L -17.216,21.9255 L -17.2728,21.9056 L -17.3417,21.8849 L -17.4229,21.8634
 L -17.5071,21.842 L -17.5755,21.8231 L -17.628,21.8066 L -17.6646,21.7926 L -17.6915,21.7791 L -17.7149,21.7642
 L -17.7348,21.7479 L -17.7513,21.7303 L -17.7641,21.7108 L -17.7732,21.6888 L -17.7787,21.6644 L -17.7805,21.6376
 L -17.7761,21.5947 L -17.7628,21.5576 L -17.7407,21.5263 L -17.7097,21.5008 L -17.6695,21.4811 L -17.6194,21.467
 L -17.5596,21.4585 L -17.49,21.4557 L -17.4263,21.4586 L -17.3693,21.4674 L -17.3192,21.4821 L -17.2758,21.5027
 L -17.2397,21.5287 L -17.2113,21.5599 L -17.1906,21.5962 L -17.1776,21.6376 L -16.9798,21.6131 L -17.0028,21.5341
 L -17.0376,21.4666 L -17.0843,21.4108 L -17.1428,21.3666 L -17.2128,21.3329 L -17.294,21.3089 L -17.3864,21.2945
 L -17.49,21.2897 L -17.6059,21.2956 L -17.7072,21.3133 L -17.7936,21.3429 L -17.8654,21.3843 L -17.9217,21.437
 L -17.962,21.5004 L -17.9861,21.5746 L -17.9942,21.6595 L -17.9913,21.7064 L -17.9829,21.7495 L -17.9688,21.7888
 L -17.949,21.8243 L -17.9242,21.8566 L -17.8951,21.8864 L -17.8617,21.9137 L -17.8239,21.9384 L -17.7771,21.9621
 L -17.7166,21.9859 L -17.6425,22.0099 L -17.5547,22.0342 L -17.3972,22.0757 L -17.3416,22.0927 L -17.2941,22.1117
 L -17.2549,22.1329 L -17.2239,22.1563 L -17.2004,22.1825 L -17.1837,22.2124 L -17.1736,22.246 L -17.1702,22.2832
 L -17.1751,22.3313 L -17.1896,22.373 L -17.2138,22.4082 L -17.2477,22.437 L -17.2921,22.4595 L -17.3477,22.4755
 L -17.4145,22.4851 L -17.4925,22.4883 L -17.5663,22.4852 L -17.6316,22.476 L -17.6884,22.4605 L -17.7366,22.4389
 L -17.7768,22.4106 L -17.8095,22.3752 L -17.8348,22.3328 L -17.8525,22.2832 L -18.0466,22.3211 L -18.0207,22.4015
 L -17.983,22.4705 L -17.9337,22.5281 L -17.8727,22.5744 L -17.7988,22.6099 L -17.7108,22.6352 L -17.6087,22.6505
 L -17.4925,22.6555 z
M -11.7778,23.1151 L -11.605,23.0107 L -11.5013,22.8368 L -11.4668,22.5933 L -11.4668,21.5838 L -11.4663,21.4889
 L -11.4649,21.4117 L -11.4626,21.3522 L -11.4594,21.3104 L -11.6682,21.3104 L -11.6706,21.3198 L -11.673,21.3394
 L -11.6755,21.3692 L -11.6779,21.4093 L -11.6801,21.4511 L -11.6816,21.4862 L -11.6825,21.5146 L -11.6828,21.5362
 L -11.6853,21.5362 L -11.7163,21.4804 L -11.7532,21.4314 L -11.7959,21.3892 L -11.8446,21.3537 L -11.8985,21.3257
 L -11.957,21.3057 L -12.0202,21.2937 L -12.0881,21.2897 L -12.2052,21.3001 L -12.3064,21.3313 L -12.3917,21.3834
 L -12.461,21.4563 L -12.5146,21.5511 L -12.553,21.6688 L -12.576,21.8095 L -12.5836,21.9732 L -12.5765,22.1344
 L -12.5551,22.2726 L -12.5194,22.3877 L -12.4695,22.4798 L -12.4044,22.5503 L -12.3232,22.6006 L -12.2259,22.6308
 L -12.1125,22.6409 L -12.0421,22.6369 L -11.9764,22.6249 L -11.9152,22.6048 L -11.8586,22.5768 L -11.8072,22.5408
 L -11.7616,22.497 L -11.7217,22.4453 L -11.6877,22.3858 L -11.6853,22.3858 L -11.6853,22.5982 L -11.7058,22.7664
 L -11.7673,22.8865 L -11.8699,22.9586 L -12.0136,22.9827 L -12.0717,22.9796 L -12.1239,22.9703 L -12.1703,22.9548
 L -12.2108,22.9332 L -12.245,22.9059 L -12.2725,22.8733 L -12.2935,22.8354 L -12.3078,22.7922 L -12.5287,22.824
 L -12.5047,22.8976 L -12.4692,22.9624 L -12.4223,23.0182 L -12.3639,23.065 L -12.2944,23.1022 L -12.2138,23.1287
 L -12.1223,23.1446 L -12.0197,23.1499 z
M -12.1189,22.4711 L -12.1869,22.4489 L -12.2422,22.4119 L -12.2846,22.3601 L -12.3161,22.2914 L -12.3386,22.2036
 L -12.3521,22.0967 L -12.3566,21.9708 L -12.3518,21.8435 L -12.3374,21.7352 L -12.3134,21.6458 L -12.2797,21.5753
 L -12.2355,21.5219 L -12.1799,21.4837 L -12.1129,21.4609 L -12.0343,21.4532 L -11.985,21.4571 L -11.9384,21.4686
 L -11.8944,21.4879 L -11.8531,21.5149 L -11.8154,21.5491 L -11.7822,21.5902 L -11.7534,21.6382 L -11.7292,21.6931
 L -11.71,21.7542 L -11.6962,21.8208 L -11.688,21.893 L -11.6853,21.9708 L -11.688,22.0468 L -11.6962,22.1174
 L -11.71,22.1826 L -11.7292,22.2424 L -11.7535,22.2961 L -11.7823,22.3432 L -11.8157,22.3837 L -11.8537,22.4175
 L -11.8954,22.4442 L -11.9401,22.4633 L -11.9876,22.4747 L -12.038,22.4785 z
M -7.7381,22.6492 L -7.63232,22.6302 L -7.54066,22.5985 L -7.46312,22.5542 L -7.40144,22.4982 L -7.35738,22.4315
 L -7.33095,22.3542 L -7.32213,22.2661 L -7.32365,22.2293 L -7.32823,22.1946 L -7.33588,22.1619 L -7.34656,22.1313
 L -7.36002,22.1026 L -7.37601,22.0756 L -7.3945,22.0504 L -7.41551,22.0269 L -7.43982,22.0048 L -7.46815,21.9837
 L -7.50053,21.9637 L -7.53696,21.9445 L -7.58151,21.9255 L -7.63828,21.9056 L -7.70723,21.8849 L -7.78841,21.8634
 L -7.87263,21.842 L -7.94099,21.8231 L -7.99348,21.8066 L -8.03011,21.7926 L -8.05704,21.7791 L -8.08046,21.7642
 L -8.10037,21.7479 L -8.11678,21.7303 L -8.12959,21.7108 L -8.13875,21.6888 L -8.14423,21.6644 L -8.14606,21.6376
 L -8.14163,21.5947 L -8.12837,21.5576 L -8.10625,21.5263 L -8.07527,21.5008 L -8.03499,21.4811 L -7.98494,21.467
 L -7.92513,21.4585 L -7.85555,21.4557 L -7.79181,21.4586 L -7.73486,21.4674 L -7.68469,21.4821 L -7.64133,21.5027
 L -7.60519,21.5287 L -7.57678,21.5599 L -7.55608,21.5962 L -7.54306,21.6376 L -7.34534,21.6131 L -7.36833,21.5341
 L -7.40315,21.4666 L -7.44981,21.4108 L -7.50829,21.3666 L -7.57828,21.3329 L -7.65948,21.3089 L -7.75191,21.2945
 L -7.85555,21.2897 L -7.97147,21.2956 L -8.07266,21.3133 L -8.15915,21.3429 L -8.2309,21.3843 L -8.28723,21.437
 L -8.32748,21.5004 L -8.35162,21.5746 L -8.35966,21.6595 L -8.35684,21.7064 L -8.34837,21.7495 L -8.33426,21.7888
 L -8.31451,21.8243 L -8.28975,21.8566 L -8.26065,21.8864 L -8.22719,21.9137 L -8.18939,21.9384 L -8.14258,21.9621
 L -8.08212,21.9859 L -8.00801,22.0099 L -7.92024,22.0342 L -7.76277,22.0757 L -7.70709,22.0927 L -7.65964,22.1117
 L -7.62042,22.1329 L -7.58945,22.1563 L -7.56595,22.1825 L -7.54916,22.2124 L -7.53909,22.246 L -7.53574,22.2832
 L -7.54059,22.3313 L -7.55511,22.373 L -7.57933,22.4082 L -7.61325,22.437 L -7.65761,22.4595 L -7.71318,22.4755
 L -7.77998,22.4851 L -7.85799,22.4883 L -7.93184,22.4852 L -7.99715,22.476 L -8.05391,22.4605 L -8.10213,22.4389
 L -8.14232,22.4106 L -8.17505,22.3752 L -8.20029,22.3328 L -8.21806,22.2832 L -8.41216,22.3211 L -8.38618,22.4015
 L -8.34853,22.4705 L -8.29921,22.5281 L -8.23822,22.5744 L -8.16434,22.6099 L -8.07632,22.6352 L -7.97421,22.6505
 L -7.85799,22.6555 z
M 33.5314,22.0892 L 33.8866,22.6311 L 34.1319,22.6311 L 33.6559,21.95 L 34.1039,21.3104 L 33.8585,21.3104
 L 33.5314,21.8243 L 33.2018,21.3104 L 32.9589,21.3104 L 33.4069,21.9525 L 32.937,22.6311 L 33.1737,22.6311
 z
M -3.82512,22.2402 L -3.7502,21.9462 L -3.70062,21.7492 L -3.67636,21.6491 L -3.66553,21.6006 L -3.65622,21.5581
 L -3.64844,21.5215 L -3.64218,21.4911 L -3.59822,21.6973 L -3.36754,22.6311 L -3.11243,22.6311 L -2.73402,21.3104
 L -2.94885,21.3104 L -3.1991,22.2796 L -3.23692,22.4492 L -3.29308,22.2173 L -3.52377,21.3104 L -3.75937,21.3104
 L -4.03522,22.3589 L -4.05597,22.4492 L -4.07573,22.3545 L -4.09106,22.2826 L -4.10197,22.2337 L -4.33183,21.3104
 L -4.54909,21.3104 L -4.17924,22.6311 L -3.92535,22.6311 z
M -36.1491,23.1467 L -36.099,23.1372 L -36.0517,23.1214 L -36.0073,23.0992 L -35.9652,23.0706 L -35.925,23.0354
 L -35.8868,22.9937 L -35.8504,22.9454 L -35.8143,22.8871 L -35.7769,22.8153 L -35.7381,22.7299 L -35.6978,22.6311
 L -35.1901,21.3104 L -35.422,21.3104 L -35.7113,22.1514 L -35.7967,22.3919 L -35.8012,22.3765 L -35.8111,22.3461
 L -35.8262,22.3008 L -35.8468,22.2405 L -35.8676,22.1797 L -35.8837,22.1329 L -35.8951,22.1001 L -35.9017,22.0812
 L -35.9164,22.0403 L -36.1947,21.3104 L -36.429,21.3104 L -35.9053,22.625 L -35.9261,22.6775 L -35.9913,22.8094
 L -36.0671,22.9036 L -36.1536,22.9602 L -36.2508,22.979 L -36.2783,22.9785 L -36.3045,22.9772 L -36.3295,22.9749
 L -36.3533,22.9717 L -36.3533,23.1364 L -36.321,23.1423 L -36.285,23.1465 L -36.2453,23.149 L -36.202,23.1499
 z
M -0.359299,21.3104 L -0.579025,21.3104 L -0.579025,22.6311 L -0.359299,22.6311 z
M 41.0301,21.3104 L 40.8104,21.3104 L 40.8104,22.6311 L 41.0301,22.6311 z
M -34.7481,21.3104 L -34.9861,21.3104 L -34.9861,21.5631 L -34.7481,21.5631 z
M 26.1796,21.9134 L 23.6797,21.9134 L 23.6797,22.0806 L 26.1796,22.0806 z
M 34.5271,22.9108 L 34.5467,22.8698 L 34.5631,22.8278 L 34.5763,22.7849 L 34.5865,22.7389 L 34.5937,22.6876
 L 34.5981,22.6309 L 34.5995,22.5689 L 34.5995,22.3638 L 34.3615,22.3638 L 34.3615,22.6311 L 34.4689,22.6311
 L 34.4617,22.7088 L 34.4402,22.788 L 34.4044,22.8687 L 34.3542,22.9509 L 34.5043,22.9509 z
M -34.7481,22.3784 L -34.9861,22.3784 L -34.9861,22.6311 L -34.7481,22.6311 z
" stroke="black" fill="lightgray" stroke-width="0.5"/>
</svg>
