<?xml version="1.0" standalone="no"?>
<!DOCTYPE svg PUBLIC "-//W3C//DTD SVG 1.1//EN" "http://www.w3.org/Graphics/SVG/1.1/DTD/svg11.dtd">
<svg width="46mm" height="33mm" viewBox="-1 -25 46 33" xmlns="http://www.w3.org/2000/svg" version="1.1">
<title>OpenSCAD Model</title>
<path d="
M 1.14066,0.750931 L 19.5254,-9.86351 L 19.5434,-9.88019 L 19.5547,-9.90517 L 19.5586,-9.93675 L 19.584,-9.95589
 L 19.6,-9.97816 L 19.6054,-10.0021 L 19.6054,-23.8825 L 19.6,-23.9064 L 19.584,-23.9287 L 19.5586,-23.9478
 L 19.5547,-23.9794 L 19.5434,-24.0044 L 19.5254,-24.0211 L 18.4648,-24.6335 L 18.4413,-24.6407 L 18.414,-24.638
 L 18.3848,-24.6255 L 18.3555,-24.638 L 18.3282,-24.6407 L 18.3048,-24.6335 L -0.0799866,-14.019 L -0.0979767,-14.0023
 L -0.109268,-13.9773 L -0.113129,-13.9458 L -0.13855,-13.9266 L -0.154541,-13.9043 L -0.159988,-13.8804 L -0.159988,-0
 L -0.154541,0.0238953 L -0.13855,0.0461731 L -0.113129,0.0653076 L -0.109268,0.0968933 L -0.0979767,0.121887 L -0.0799866,0.13855
 L 0.980652,0.750931 L 1.00409,0.758163 L 1.03137,0.755463 L 1.06065,0.743011 L 1.08994,0.755463 L 1.11722,0.758163
 z
M 19.9768,7.29048 L 20.0713,7.2756 L 20.1571,7.25081 L 20.2341,7.21611 L 20.3033,7.16994 L 20.3653,7.11076
 L 20.4201,7.03859 L 20.4678,6.9534 L 20.4748,6.9534 L 20.4752,6.99219 L 20.4763,7.0345 L 20.4783,7.08035
 L 20.481,7.12971 L 20.484,7.17621 L 20.4869,7.21346 L 20.4897,7.24144 L 20.4924,7.26018 L 20.7957,7.26018
 L 20.7911,7.19991 L 20.7878,7.11429 L 20.7858,7.00331 L 20.7851,6.867 L 20.7851,4.64371 L 20.4678,4.64371
 L 20.4678,5.43536 L 20.4713,5.64868 L 20.4678,5.64868 L 20.4202,5.56815 L 20.3655,5.49928 L 20.3038,5.44209
 L 20.235,5.39659 L 20.1582,5.36188 L 20.0724,5.33708 L 19.9775,5.3222 L 19.8736,5.31725 L 19.5666,5.37961
 L 19.3473,5.56671 L 19.2157,5.87857 L 19.1719,6.31512 L 19.1825,6.54633 L 19.2144,6.74623 L 19.2676,6.91483
 L 19.342,7.05212 L 19.439,7.15857 L 19.56,7.2346 L 19.7048,7.28023 L 19.8736,7.29544 z
M 19.8439,7.03957 L 19.7497,7.00717 L 19.672,6.95317 L 19.6109,6.87759 L 19.5646,6.77698 L 19.5315,6.64793
 L 19.5117,6.49048 L 19.5051,6.30458 L 19.5117,6.11917 L 19.5318,5.96144 L 19.5651,5.83134 L 19.6118,5.72893
 L 19.6734,5.6514 L 19.7517,5.59604 L 19.8466,5.56281 L 19.9582,5.55174 L 20.0823,5.56276 L 20.1883,5.59581
 L 20.2762,5.65091 L 20.3461,5.72804 L 20.3993,5.82887 L 20.4373,5.95505 L 20.4602,6.10655 L 20.4678,6.28342
 L 20.4602,6.4671 L 20.4373,6.62502 L 20.3993,6.75714 L 20.3461,6.86346 L 20.276,6.94524 L 20.1874,7.00363
 L 20.0803,7.03868 L 19.9547,7.05035 z
M 21.5404,4.64371 L 21.223,4.64371 L 21.223,4.94698 L 21.5404,4.94698 z
M 24.0871,4.64371 L 23.7697,4.64371 L 23.7697,4.94698 L 24.0871,4.94698 z
M 25.2682,7.29048 L 25.3627,7.2756 L 25.4485,7.25081 L 25.5256,7.21611 L 25.5947,7.16994 L 25.6567,7.11076
 L 25.7115,7.03859 L 25.7592,6.9534 L 25.7663,6.9534 L 25.7666,6.99219 L 25.7678,7.0345 L 25.7697,7.08035
 L 25.7724,7.12971 L 25.7755,7.17621 L 25.7784,7.21346 L 25.7812,7.24144 L 25.7839,7.26018 L 26.0871,7.26018
 L 26.0825,7.19991 L 26.0792,7.11429 L 26.0772,7.00331 L 26.0766,6.867 L 26.0766,4.64371 L 25.7592,4.64371
 L 25.7592,5.43536 L 25.7627,5.64868 L 25.7592,5.64868 L 25.7116,5.56815 L 25.6569,5.49928 L 25.5952,5.44209
 L 25.5265,5.39659 L 25.4497,5.36188 L 25.3638,5.33708 L 25.2689,5.3222 L 25.165,5.31725 L 24.858,5.37961
 L 24.6387,5.56671 L 24.5072,5.87857 L 24.4633,6.31512 L 24.474,6.54633 L 24.5058,6.74623 L 24.559,6.91483
 L 24.6335,7.05212 L 24.7305,7.15857 L 24.8514,7.2346 L 24.9963,7.28023 L 25.165,7.29544 z
M 25.1354,7.03957 L 25.0412,7.00717 L 24.9635,6.95317 L 24.9023,6.87759 L 24.856,6.77698 L 24.823,6.64793
 L 24.8031,6.49048 L 24.7965,6.30458 L 24.8032,6.11917 L 24.8232,5.96144 L 24.8565,5.83134 L 24.9032,5.72893
 L 24.9649,5.6514 L 25.0432,5.59604 L 25.1381,5.56281 L 25.2497,5.55174 L 25.3737,5.56276 L 25.4798,5.59581
 L 25.5677,5.65091 L 25.6376,5.72804 L 25.6908,5.82887 L 25.7288,5.95505 L 25.7516,6.10655 L 25.7592,6.28342
 L 25.7516,6.4671 L 25.7288,6.62502 L 25.6908,6.75714 L 25.6376,6.86346 L 25.5675,6.94524 L 25.4789,7.00363
 L 25.3718,7.03868 L 25.2462,7.05035 z
M 41.6234,6.99043 L 40.3275,6.99043 L 40.3582,6.92812 L 40.3972,6.86458 L 40.4446,6.79984 L 40.5003,6.73389
 L 40.5654,6.66528 L 40.6409,6.59262 L 40.7268,6.51587 L 40.823,6.43504 L 40.9924,6.29498 L 41.132,6.17455
 L 41.2418,6.07372 L 41.3219,5.99251 L 41.3832,5.9211 L 41.4363,5.8497 L 41.4815,5.77829 L 41.5185,5.70688
 L 41.5475,5.63536 L 41.5681,5.56363 L 41.5805,5.49167 L 41.5847,5.41949 L 41.572,5.26572 L 41.5342,5.13055
 L 41.4711,5.01402 L 41.3828,4.91611 L 41.271,4.83859 L 41.1375,4.78322 L 40.9823,4.75 L 40.8054,4.73892
 L 40.6421,4.74994 L 40.4944,4.783 L 40.3622,4.8381 L 40.2455,4.91525 L 40.1481,5.01102 L 40.0734,5.12198
 L 40.0216,5.24814 L 39.9925,5.38953 L 40.317,5.41949 L 40.3352,5.32544 L 40.367,5.24252 L 40.4123,5.17073
 L 40.4712,5.11008 L 40.5414,5.06186 L 40.6204,5.02742 L 40.7084,5.00674 L 40.8054,4.99986 L 40.9062,5.00691
 L 40.9953,5.02808 L 41.0728,5.06334 L 41.1386,5.1127 L 41.191,5.17485 L 41.2285,5.24846 L 41.251,5.33354
 L 41.2585,5.43008 L 41.2541,5.50391 L 41.2411,5.57376 L 41.2193,5.63966 L 41.1888,5.7016 L 41.1513,5.76088
 L 41.1084,5.81885 L 41.0601,5.87549 L 41.0063,5.93082 L 40.9482,5.98547 L 40.8867,6.0401 L 40.8217,6.09476
 L 40.7533,6.14941 L 40.6831,6.20522 L 40.6125,6.26335 L 40.5416,6.32379 L 40.4703,6.38655 L 40.3998,6.45233
 L 40.3308,6.52187 L 40.2636,6.59515 L 40.1979,6.6722 L 40.1356,6.75412 L 40.0783,6.8421 L 40.0259,6.93616
 L 39.9785,7.03627 L 39.9785,7.26018 L 41.6234,7.26018 z
M 32.2149,6.99043 L 30.919,6.99043 L 30.9496,6.92812 L 30.9886,6.86458 L 31.036,6.79984 L 31.0918,6.73389
 L 31.1569,6.66528 L 31.2324,6.59262 L 31.3182,6.51587 L 31.4144,6.43504 L 31.5838,6.29498 L 31.7234,6.17455
 L 31.8333,6.07372 L 31.9134,5.99251 L 31.9746,5.9211 L 32.0278,5.8497 L 32.0729,5.77829 L 32.11,5.70688
 L 32.1389,5.63536 L 32.1596,5.56363 L 32.172,5.49167 L 32.1761,5.41949 L 32.1635,5.26572 L 32.1256,5.13055
 L 32.0625,5.01402 L 31.9742,4.91611 L 31.8624,4.83859 L 31.7289,4.78322 L 31.5737,4.75 L 31.3968,4.73892
 L 31.2336,4.74994 L 31.0858,4.783 L 30.9536,4.8381 L 30.837,4.91525 L 30.7395,5.01102 L 30.6649,5.12198
 L 30.613,5.24814 L 30.584,5.38953 L 30.9084,5.41949 L 30.9267,5.32544 L 30.9584,5.24252 L 31.0038,5.17073
 L 31.0627,5.11008 L 31.1328,5.06186 L 31.2119,5.02742 L 31.2999,5.00674 L 31.3968,4.99986 L 31.4976,5.00691
 L 31.5868,5.02808 L 31.6642,5.06334 L 31.73,5.1127 L 31.7825,5.17485 L 31.82,5.24846 L 31.8424,5.33354
 L 31.8499,5.43008 L 31.8456,5.50391 L 31.8325,5.57376 L 31.8108,5.63966 L 31.7803,5.7016 L 31.7428,5.76088
 L 31.6998,5.81885 L 31.6515,5.87549 L 31.5978,5.93082 L 31.5397,5.98547 L 31.4781,6.0401 L 31.4132,6.09476
 L 31.3448,6.14941 L 31.2745,6.20522 L 31.2039,6.26335 L 31.133,6.32379 L 31.0618,6.38655 L 30.9912,6.45233
 L 30.9223,6.52187 L 30.855,6.59515 L 30.7894,6.6722 L 30.7271,6.75412 L 30.6697,6.8421 L 30.6173,6.93616
 L 30.5699,7.03627 L 30.5699,7.26018 L 32.2149,7.26018 z
M 35.9394,6.99043 L 34.6435,6.99043 L 34.6741,6.92812 L 34.7131,6.86458 L 34.7605,6.79984 L 34.8163,6.73389
 L 34.8814,6.66528 L 34.9569,6.59262 L 35.0427,6.51587 L 35.1389,6.43504 L 35.3083,6.29498 L 35.4479,6.17455
 L 35.5578,6.07372 L 35.6379,5.99251 L 35.6991,5.9211 L 35.7523,5.8497 L 35.7974,5.77829 L 35.8345,5.70688
 L 35.8634,5.63536 L 35.8841,5.56363 L 35.8965,5.49167 L 35.9006,5.41949 L 35.888,5.26572 L 35.8501,5.13055
 L 35.787,5.01402 L 35.6987,4.91611 L 35.5869,4.83859 L 35.4534,4.78322 L 35.2982,4.75 L 35.1213,4.73892
 L 34.9581,4.74994 L 34.8103,4.783 L 34.6781,4.8381 L 34.5615,4.91525 L 34.464,5.01102 L 34.3894,5.12198
 L 34.3375,5.24814 L 34.3085,5.38953 L 34.6329,5.41949 L 34.6512,5.32544 L 34.6829,5.24252 L 34.7283,5.17073
 L 34.7872,5.11008 L 34.8573,5.06186 L 34.9364,5.02742 L 35.0244,5.00674 L 35.1213,4.99986 L 35.2221,5.00691
 L 35.3113,5.02808 L 35.3887,5.06334 L 35.4545,5.1127 L 35.507,5.17485 L 35.5445,5.24846 L 35.5669,5.33354
 L 35.5744,5.43008 L 35.5701,5.50391 L 35.557,5.57376 L 35.5352,5.63966 L 35.5048,5.7016 L 35.4673,5.76088
 L 35.4243,5.81885 L 35.376,5.87549 L 35.3223,5.93082 L 35.2642,5.98547 L 35.2026,6.0401 L 35.1376,6.09476
 L 35.0693,6.14941 L 34.999,6.20522 L 34.9285,6.26335 L 34.8575,6.32379 L 34.7863,6.38655 L 34.7157,6.45233
 L 34.6468,6.52187 L 34.5795,6.59515 L 34.5139,6.6722 L 34.4516,6.75412 L 34.3942,6.8421 L 34.3418,6.93616
 L 34.2944,7.03627 L 34.2944,7.26018 L 35.9394,7.26018 z
M 42.983,7.28122 L 43.1404,7.23859 L 43.2775,7.16751 L 43.3943,7.06801 L 43.4876,6.94392 L 43.5543,6.79913
 L 43.5943,6.63361 L 43.6076,6.44737 L 43.595,6.27502 L 43.5571,6.1212 L 43.494,5.9859 L 43.4057,5.86909
 L 43.2959,5.77498 L 43.1684,5.70776 L 43.0231,5.66743 L 42.86,5.65399 L 42.7615,5.65923 L 42.6687,5.67493
 L 42.5817,5.7011 L 42.5004,5.73773 L 42.4263,5.78441 L 42.3611,5.84067 L 42.3047,5.90651 L 42.257,5.98193
 L 42.2664,5.7563 L 42.2943,5.55901 L 42.3409,5.39001 L 42.406,5.24936 L 42.4882,5.13867 L 42.5856,5.0596
 L 42.6984,5.01216 L 42.8265,4.99635 L 42.9705,5.0153 L 43.0866,5.07216 L 43.175,5.16692 L 43.2356,5.29959
 L 43.5388,5.24493 L 43.4397,5.02356 L 43.2885,4.86543 L 43.0853,4.77055 L 42.8301,4.73892 L 42.629,4.76053
 L 42.4523,4.82532 L 42.3001,4.93332 L 42.1724,5.08452 L 42.0714,5.27603 L 41.9992,5.50502 L 41.9559,5.77145
 L 41.9415,6.07536 L 41.9554,6.35559 L 41.997,6.60034 L 42.0664,6.8096 L 42.1636,6.98338 L 42.287,7.1199
 L 42.4351,7.21742 L 42.6079,7.27594 L 42.8054,7.29544 z
M 42.6887,7.02832 L 42.5927,6.99394 L 42.5067,6.93665 L 42.4307,6.85643 L 42.3686,6.75824 L 42.3243,6.64705
 L 42.2977,6.52286 L 42.2888,6.38567 L 42.2973,6.27806 L 42.323,6.18269 L 42.3657,6.09955 L 42.4254,6.02864
 L 42.4991,5.97195 L 42.5835,5.93146 L 42.6785,5.90717 L 42.7842,5.89906 L 42.8959,5.90822 L 42.9945,5.93565
 L 43.0801,5.9814 L 43.1527,6.04541 L 43.2106,6.12628 L 43.2519,6.2226 L 43.2767,6.33432 L 43.285,6.46149
 L 43.2768,6.58914 L 43.2523,6.70236 L 43.2116,6.80116 L 43.1545,6.88551 L 43.0831,6.953 L 42.9993,7.00122
 L 42.9032,7.03014 L 42.7948,7.03978 z
M 44.8477,4.77594 L 44.5233,4.77594 L 44.5586,5.55701 L 44.8089,5.55701 z
M 5.36696,6.99043 L 4.76222,6.99043 L 4.76222,4.77594 L 4.46954,4.77594 L 3.88242,5.1797 L 3.88242,5.47943
 L 4.44308,5.07921 L 4.44308,6.99043 L 3.81013,6.99043 L 3.81013,7.26018 L 5.36696,7.26018 z
M 44.1971,4.77594 L 43.8727,4.77594 L 43.9098,5.55701 L 44.1583,5.55701 z
M 0.428757,7.2506 L 0.592712,7.22183 L 0.746109,7.1739 L 0.888916,7.10681 L 1.01863,7.02168 L 1.13268,6.91969
 L 1.23108,6.80084 L 1.31384,6.66515 L 1.37941,6.515 L 1.42624,6.35284 L 1.45433,6.17867 L 1.4637,5.99251
 L 1.44228,5.71741 L 1.37798,5.47569 L 1.2708,5.26738 L 1.12076,5.09244 L 0.93129,4.95398 L 0.70578,4.85507
 L 0.444229,4.79573 L 0.146652,4.77594 L -0.674957,4.77594 L -0.674957,7.26018 L 0.254211,7.26018 z
M -0.338196,6.99043 L -0.338196,5.0457 L 0.139603,5.0457 L 0.365219,5.06085 L 0.562531,5.10631 L 0.731522,5.18207
 L 0.872177,5.28815 L 0.982864,5.42308 L 1.06194,5.58545 L 1.10938,5.77527 L 1.12518,5.99251 L 1.11824,6.14082
 L 1.09741,6.27899 L 1.0627,6.40704 L 1.01411,6.52495 L 0.952576,6.63118 L 0.879013,6.7242 L 0.793457,6.80397
 L 0.695877,6.87054 L 0.58815,6.92299 L 0.472168,6.96046 L 0.347931,6.98294 L 0.215424,6.99043 z
M 14.6625,7.28575 L 14.7432,7.2778 L 14.823,7.26459 L 14.9019,7.24606 L 14.9019,7.01157 L 14.8455,7.02237
 L 14.7961,7.03009 L 14.7538,7.03473 L 14.7185,7.03627 L 14.6671,7.03279 L 14.624,7.02238 L 14.5891,7.00504
 L 14.5625,6.98073 L 14.5428,6.94785 L 14.5287,6.90469 L 14.5203,6.8513 L 14.5175,6.78766 L 14.5175,5.58345
 L 14.8701,5.58345 L 14.8701,5.35249 L 14.5175,5.35249 L 14.5175,4.92581 L 14.306,4.92581 L 14.2125,5.35249
 L 13.9798,5.35249 L 13.9798,5.58345 L 14.2002,5.58345 L 14.2002,6.85643 L 14.224,7.04541 L 14.2954,7.1804
 L 14.4144,7.2614 L 14.581,7.28839 z
M 16.2,7.26723 L 16.4216,7.1826 L 16.5888,7.04155 L 16.7015,6.84407 L 16.4229,6.76476 L 16.3959,6.82547
 L 16.3588,6.88068 L 16.3117,6.93037 L 16.2545,6.97456 L 16.1873,7.01082 L 16.1098,7.03671 L 16.022,7.05225
 L 15.924,7.05743 L 15.8013,7.0463 L 15.6943,7.01291 L 15.603,6.95726 L 15.5272,6.87936 L 15.4678,6.78094
 L 15.4254,6.6638 L 15.4,6.52792 L 15.3915,6.37332 L 16.7526,6.37332 L 16.7526,6.33102 L 16.7001,5.8875
 L 16.5424,5.57069 L 16.2796,5.3806 L 15.9116,5.31725 L 15.7181,5.33299 L 15.5482,5.38026 L 15.402,5.45906
 L 15.2795,5.56937 L 15.1827,5.7092 L 15.1136,5.87659 L 15.0721,6.0715 L 15.0583,6.29399 L 15.0721,6.52728
 L 15.1136,6.72992 L 15.1827,6.90193 L 15.2795,7.04332 L 15.4028,7.15361 L 15.5513,7.23241 L 15.725,7.27968
 L 15.924,7.29544 z
M 15.395,6.13 L 15.4081,6.00235 L 15.4367,5.88914 L 15.4808,5.79036 L 15.5405,5.70602 L 15.6139,5.63852
 L 15.6994,5.5903 L 15.7969,5.56137 L 15.9063,5.55174 L 16.0184,5.56038 L 16.1166,5.58633 L 16.2009,5.62958
 L 16.2713,5.69014 L 16.3285,5.76953 L 16.3731,5.86931 L 16.4052,5.98947 L 16.4247,6.13 z
M 9.35938,7.28519 L 9.49117,7.25444 L 9.60974,7.20322 L 9.71509,7.13148 L 9.8038,7.04254 L 9.87245,6.93973
 L 9.92105,6.82303 L 9.94958,6.69244 L 9.62869,6.67131 L 9.61002,6.76033 L 9.58043,6.83704 L 9.53993,6.90138
 L 9.48853,6.9534 L 9.42819,6.99352 L 9.36092,7.02216 L 9.2867,7.03935 L 9.20554,7.04507 L 9.09238,7.03362
 L 8.99442,6.99924 L 8.91165,6.94194 L 8.84409,6.86172 L 8.79164,6.75771 L 8.75418,6.62898 L 8.73169,6.47559
 L 8.7242,6.2975 L 8.73126,6.11349 L 8.75241,5.95813 L 8.78767,5.83142 L 8.83704,5.73335 L 8.90218,5.66005
 L 8.98471,5.60771 L 9.08467,5.57629 L 9.20203,5.56583 L 9.28931,5.57167 L 9.366,5.58919 L 9.43211,5.61839
 L 9.48764,5.65927 L 9.53316,5.71007 L 9.5692,5.76903 L 9.59575,5.83614 L 9.61284,5.91139 L 9.939,5.88672
 L 9.90535,5.76076 L 9.85371,5.64914 L 9.78413,5.55183 L 9.69658,5.46887 L 9.59383,5.40253 L 9.47862,5.35515
 L 9.35095,5.32672 L 9.21085,5.31725 L 9.02484,5.33305 L 8.86174,5.38049 L 8.72157,5.45956 L 8.60432,5.57025
 L 8.51176,5.71101 L 8.44565,5.88034 L 8.40598,6.07817 L 8.39276,6.30458 L 8.40593,6.53252 L 8.44542,6.73146
 L 8.51126,6.90144 L 8.60344,7.04243 L 8.72063,7.15312 L 8.86151,7.23218 L 9.02609,7.27962 L 9.21436,7.29544
 z
M 11.2977,7.26723 L 11.5193,7.1826 L 11.6865,7.04155 L 11.7992,6.84407 L 11.5207,6.76476 L 11.4936,6.82547
 L 11.4565,6.88068 L 11.4094,6.93037 L 11.3523,6.97456 L 11.285,7.01082 L 11.2075,7.03671 L 11.1197,7.05225
 L 11.0217,7.05743 L 10.899,7.0463 L 10.792,7.01291 L 10.7007,6.95726 L 10.625,6.87936 L 10.5656,6.78094
 L 10.5232,6.6638 L 10.4977,6.52792 L 10.4892,6.37332 L 11.8504,6.37332 L 11.8504,6.33102 L 11.7978,5.8875
 L 11.6401,5.57069 L 11.3773,5.3806 L 11.0094,5.31725 L 10.8158,5.33299 L 10.6459,5.38026 L 10.4998,5.45906
 L 10.3773,5.56937 L 10.2805,5.7092 L 10.2113,5.87659 L 10.1698,6.0715 L 10.156,6.29399 L 10.1698,6.52728
 L 10.2113,6.72992 L 10.2805,6.90193 L 10.3773,7.04332 L 10.5005,7.15361 L 10.649,7.23241 L 10.8227,7.27968
 L 11.0217,7.29544 z
M 10.4928,6.13 L 10.5058,6.00235 L 10.5344,5.88914 L 10.5785,5.79036 L 10.6382,5.70602 L 10.7117,5.63852
 L 10.7971,5.5903 L 10.8946,5.56137 L 11.0041,5.55174 L 11.1161,5.56038 L 11.2143,5.58633 L 11.2986,5.62958
 L 11.369,5.69014 L 11.4262,5.76953 L 11.4708,5.86931 L 11.5029,5.98947 L 11.5224,6.13 z
M 28.8019,6.26578 L 28.8084,6.1163 L 28.8279,5.98523 L 28.8604,5.87256 L 28.9059,5.77831 L 28.9638,5.70386
 L 29.0333,5.6507 L 29.1145,5.61879 L 29.2074,5.60815 L 29.2577,5.60925 L 29.3026,5.61256 L 29.3423,5.61807
 L 29.3767,5.62578 L 29.3767,5.33487 L 29.3442,5.32716 L 29.3119,5.32166 L 29.2798,5.31834 L 29.248,5.31725
 L 29.1631,5.32286 L 29.0884,5.33972 L 29.0238,5.36781 L 28.9694,5.40715 L 28.9214,5.46181 L 28.8764,5.53584
 L 28.8342,5.62929 L 28.7948,5.74213 L 28.7878,5.74213 L 28.7869,5.69331 L 28.7843,5.61211 L 28.7799,5.4985
 L 28.7737,5.35249 L 28.474,5.35249 L 28.4786,5.47151 L 28.4819,5.58524 L 28.4839,5.69366 L 28.4845,5.79681
 L 28.4845,7.26018 L 28.8019,7.26018 z
M 27.5681,7.26723 L 27.7897,7.1826 L 27.9568,7.04155 L 28.0695,6.84407 L 27.791,6.76476 L 27.7639,6.82547
 L 27.7268,6.88068 L 27.6797,6.93037 L 27.6226,6.97456 L 27.5553,7.01082 L 27.4778,7.03671 L 27.39,7.05225
 L 27.292,7.05743 L 27.1694,7.0463 L 27.0624,7.01291 L 26.971,6.95726 L 26.8953,6.87936 L 26.8359,6.78094
 L 26.7935,6.6638 L 26.768,6.52792 L 26.7596,6.37332 L 28.1207,6.37332 L 28.1207,6.33102 L 28.0681,5.8875
 L 27.9104,5.57069 L 27.6476,5.3806 L 27.2797,5.31725 L 27.0861,5.33299 L 26.9163,5.38026 L 26.7701,5.45906
 L 26.6476,5.56937 L 26.5508,5.7092 L 26.4816,5.87659 L 26.4402,6.0715 L 26.4263,6.29399 L 26.4402,6.52728
 L 26.4816,6.72992 L 26.5508,6.90193 L 26.6476,7.04332 L 26.7708,7.15361 L 26.9193,7.23241 L 27.0931,7.27968
 L 27.292,7.29544 z
M 26.7631,6.13 L 26.7761,6.00235 L 26.8047,5.88914 L 26.8489,5.79036 L 26.9085,5.70602 L 26.982,5.63852
 L 27.0674,5.5903 L 27.1649,5.56137 L 27.2744,5.55174 L 27.3865,5.56038 L 27.4846,5.58633 L 27.5689,5.62958
 L 27.6393,5.69014 L 27.6965,5.76953 L 27.7412,5.86931 L 27.7732,5.98947 L 27.7927,6.13 z
M 12.5316,6.15471 L 12.5399,6.02303 L 12.5647,5.90656 L 12.606,5.80528 L 12.6638,5.71922 L 12.736,5.65057
 L 12.8203,5.60155 L 12.9167,5.57213 L 13.0253,5.56232 L 13.099,5.56519 L 13.1632,5.57378 L 13.218,5.5881
 L 13.2633,5.60815 L 13.3011,5.6347 L 13.3334,5.66853 L 13.3601,5.70964 L 13.3814,5.75803 L 13.3976,5.81532
 L 13.4092,5.88321 L 13.4161,5.96167 L 13.4184,6.05069 L 13.4184,7.26018 L 13.7375,7.26018 L 13.7375,5.98898
 L 13.7285,5.82187 L 13.7012,5.68021 L 13.6557,5.56401 L 13.5921,5.47327 L 13.5088,5.405 L 13.4045,5.35625
 L 13.2792,5.327 L 13.1328,5.31725 L 13.0305,5.32236 L 12.9369,5.33774 L 12.852,5.36336 L 12.7758,5.39922
 L 12.7061,5.44743 L 12.6407,5.51007 L 12.5796,5.58714 L 12.5228,5.67867 L 12.5175,5.67867 L 12.5158,5.61459
 L 12.5142,5.56165 L 12.5127,5.51984 L 12.5113,5.48915 L 12.5089,5.44176 L 12.5078,5.42021 L 12.5069,5.4001
 L 12.506,5.38258 L 12.5051,5.3688 L 12.5043,5.35878 L 12.5034,5.35249 L 12.2037,5.35249 L 12.2083,5.40572
 L 12.2116,5.49135 L 12.2135,5.60936 L 12.2142,5.75978 L 12.2142,7.26018 L 12.5316,7.26018 z
M 17.4339,6.26578 L 17.4404,6.1163 L 17.4599,5.98523 L 17.4924,5.87256 L 17.5379,5.77831 L 17.5957,5.70386
 L 17.6653,5.6507 L 17.7465,5.61879 L 17.8394,5.60815 L 17.8896,5.60925 L 17.9346,5.61256 L 17.9743,5.61807
 L 18.0086,5.62578 L 18.0086,5.33487 L 17.9761,5.32716 L 17.9438,5.32166 L 17.9118,5.31834 L 17.8799,5.31725
 L 17.7951,5.32286 L 17.7204,5.33972 L 17.6558,5.36781 L 17.6013,5.40715 L 17.5534,5.46181 L 17.5083,5.53584
 L 17.4661,5.62929 L 17.4268,5.74213 L 17.4197,5.74213 L 17.4189,5.69331 L 17.4162,5.61211 L 17.4118,5.4985
 L 17.4057,5.35249 L 17.1059,5.35249 L 17.1105,5.47151 L 17.1138,5.58524 L 17.1158,5.69366 L 17.1165,5.79681
 L 17.1165,7.26018 L 17.4339,7.26018 z
M 33.2487,6.47734 L 33.7618,7.26018 L 34.1162,7.26018 L 33.4286,6.27637 L 34.0756,5.35249 L 33.7213,5.35249
 L 33.2487,6.09476 L 32.7727,5.35249 L 32.4218,5.35249 L 33.0689,6.27988 L 32.3901,7.26018 L 32.7321,7.26018
 z
M 37.953,6.47734 L 38.4661,7.26018 L 38.8205,7.26018 L 38.1328,6.27637 L 38.7799,5.35249 L 38.4255,5.35249
 L 37.953,6.09476 L 37.477,5.35249 L 37.1261,5.35249 L 37.7732,6.27988 L 37.0944,7.26018 L 37.4364,7.26018
 z
M 24.0871,5.35249 L 23.7697,5.35249 L 23.7697,7.26018 L 24.0871,7.26018 z
M 23.558,5.35249 L 23.2213,5.35249 L 22.7876,6.59723 L 22.7188,6.80528 L 22.6571,7.01157 L 22.6125,6.85521
 L 22.5773,6.73344 L 22.5516,6.64629 L 22.5354,6.59372 L 22.1158,5.35249 L 21.7773,5.35249 L 22.4702,7.26018
 L 22.8457,7.26018 z
M 21.5404,5.35249 L 21.223,5.35249 L 21.223,7.26018 L 21.5404,7.26018 z
M 6.39551,6.47734 L 6.9086,7.26018 L 7.26299,7.26018 L 6.57536,6.27637 L 7.22241,5.35249 L 6.86804,5.35249
 L 6.39551,6.09476 L 5.91948,5.35249 L 5.5686,5.35249 L 6.2157,6.27988 L 5.5369,7.26018 L 5.87892,7.26018
 z
" stroke="black" fill="lightgray" stroke-width="0.5"/>
</svg>
