<?xml version="1.0" standalone="no"?>
<!DOCTYPE svg PUBLIC "-//W3C//DTD SVG 1.1//EN" "http://www.w3.org/Graphics/SVG/1.1/DTD/svg11.dtd">
<svg width="54mm" height="47mm" viewBox="-17 -38 54 47" xmlns="http://www.w3.org/2000/svg" version="1.1">
<title>OpenSCAD Model</title>
<path d="
M 25.6771,-35.5491 L 25.8284,-35.5756 L 25.97,-35.6199 L 26.1019,-35.6818 L 26.2216,-35.7604 L 26.3269,-35.8545
 L 26.4177,-35.9642 L 26.4941,-36.0895 L 26.5546,-36.2281 L 26.5978,-36.3778 L 26.6238,-36.5386 L 26.6324,-36.7104
 L 26.6126,-36.9643 L 26.5533,-37.1875 L 26.4544,-37.3798 L 26.3159,-37.5412 L 26.141,-37.6691 L 25.9328,-37.7603
 L 25.6914,-37.8151 L 25.4167,-37.8334 L 24.6583,-37.8334 L 24.6583,-35.5403 L 25.516,-35.5403 z
M 24.9691,-35.7892 L 24.9691,-37.5844 L 25.4102,-37.5844 L 25.6185,-37.5704 L 25.8006,-37.5284 L 25.9566,-37.4585
 L 26.0864,-37.3606 L 26.1886,-37.236 L 26.2616,-37.0862 L 26.3053,-36.9109 L 26.3199,-36.7104 L 26.3135,-36.5735
 L 26.2943,-36.446 L 26.2623,-36.3278 L 26.2174,-36.2189 L 26.1606,-36.1209 L 26.0927,-36.035 L 26.0137,-35.9613
 L 25.9237,-35.8999 L 25.8242,-35.8515 L 25.7172,-35.8169 L 25.6025,-35.7962 L 25.4802,-35.7892 z
M 14.5507,8.46434 L 15.6113,7.85197 L 15.6237,7.84052 L 15.6315,7.82333 L 15.6341,7.80162 L 15.6516,7.78847
 L 15.6626,7.77315 L 15.6663,7.75671 L 15.6663,-4.70845 L 16.2085,-4.39546 L 16.2246,-4.39049 L 16.2433,-4.39235
 L 16.2634,-4.40091 L 16.2836,-4.39235 L 16.3023,-4.39049 L 16.3185,-4.39546 L 32.7705,-13.894 L 32.7705,-3.47011
 L 32.7742,-3.45366 L 32.7852,-3.43835 L 32.8027,-3.4252 L 32.8053,-3.40349 L 32.8131,-3.38631 L 32.8255,-3.37485
 L 33.8861,-2.76247 L 33.9022,-2.75749 L 33.921,-2.75935 L 33.9411,-2.76791 L 33.9613,-2.75935 L 33.98,-2.75749
 L 33.9961,-2.76247 L 35.0568,-3.37485 L 35.0691,-3.38631 L 35.0769,-3.40349 L 35.0796,-3.4252 L 35.097,-3.43835
 L 35.108,-3.45366 L 35.1118,-3.47011 L 35.1118,-15.2458 L 36.8246,-16.2347 L 36.8369,-16.2461 L 36.8447,-16.2633
 L 36.8473,-16.285 L 36.8648,-16.2982 L 36.8758,-16.3135 L 36.8795,-16.3299 L 36.8795,-17.5547 L 36.8758,-17.5711
 L 36.8648,-17.5864 L 36.8473,-17.5996 L 36.8447,-17.6213 L 36.8369,-17.6385 L 36.8246,-17.6499 L 20.1358,-27.2852
 L 20.1358,-32.966 L 20.1303,-32.9899 L 20.1143,-33.0122 L 20.0889,-33.0314 L 20.085,-33.0629 L 20.0737,-33.0879
 L 20.0558,-33.1046 L 19.6527,-33.3373 L 22.3747,-35.152 L 22.4037,-35.1742 L 22.426,-35.2032 L 22.44,-35.237
 L 22.4447,-35.2732 L 22.44,-35.3095 L 22.426,-35.3432 L 22.4037,-35.3722 L 22.3747,-35.3945 L 22.341,-35.4085
 L 22.3047,-35.4132 L 22.2685,-35.4085 L 22.2347,-35.3945 L 19.3828,-33.4932 L 18.9951,-33.717 L 18.9717,-33.7242
 L 18.9444,-33.7215 L 18.9151,-33.7091 L 18.8858,-33.7215 L 18.8585,-33.7242 L 18.8351,-33.717 L 13.9153,-30.8766
 L 4.29764,-36.4294 L 4.28152,-36.4343 L 4.26277,-36.4325 L 4.24263,-36.4239 L 4.2225,-36.4325 L 4.20374,-36.4343
 L 4.18764,-36.4294 L -16.3185,-24.5901 L -16.3308,-24.5787 L -16.3386,-24.5615 L -16.3412,-24.5398 L -16.3587,-24.5266
 L -16.3697,-24.5113 L -16.3734,-24.4949 L -16.3734,-23.2701 L -16.3697,-23.2537 L -16.3587,-23.2384 L -16.3412,-23.2252
 L -16.3386,-23.2035 L -16.3308,-23.1864 L -16.3185,-23.1749 L -14.6057,-22.186 L -14.6057,-8.36908 L -14.6019,-8.35265
 L -14.5909,-8.33733 L -14.5735,-8.32417 L -14.5708,-8.30246 L -14.563,-8.28529 L -14.5507,-8.27382 L -13.49,-7.66145
 L -13.4739,-7.65648 L -13.4552,-7.65834 L -13.435,-7.6669 L -13.4149,-7.65834 L -13.3961,-7.65648 L -13.38,-7.66145
 L -12.3194,-8.27382 L -12.307,-8.28529 L -12.2992,-8.30246 L -12.2966,-8.32417 L -12.2791,-8.33733 L -12.2681,-8.35265
 L -12.2644,-8.36908 L -12.2644,-20.8342 L 0.370331,-13.5396 L 0.370331,-9.08351 L 0.375778,-9.0596 L 0.391754,-9.03732
 L 0.417191,-9.0182 L 0.421036,-8.98662 L 0.432343,-8.96162 L 0.450317,-8.94495 L 0.930664,-8.66762 L 0.930664,-7.37737
 L 0.935089,-7.34372 L 0.948074,-7.31236 L 0.968735,-7.28545 L 0.995651,-7.26479 L 1.02701,-7.2518 L 1.06065,-7.24736
 L 1.0943,-7.2518 L 1.12566,-7.26479 L 1.15259,-7.28545 L 1.17325,-7.31236 L 1.18623,-7.34372 L 1.19066,-7.37737
 L 1.19066,-8.51752 L 1.51099,-8.33258 L 1.53441,-8.32535 L 1.56171,-8.32805 L 1.59099,-8.3405 L 1.62027,-8.32805
 L 1.64755,-8.32535 L 1.67097,-8.33258 L 5.53008,-10.5606 L 10.0026,-7.97844 L 10.2047,-7.54512 L 10.2097,-7.53815
 L 10.2177,-7.53218 L 10.228,-7.52759 L 10.2401,-7.5247 L 10.253,-7.52373 L 10.266,-7.5247 L 10.278,-7.52759
 L 10.2884,-7.53218 L 10.2963,-7.53815 L 10.3013,-7.54512 L 10.3972,-7.7506 L 13.325,-6.06021 L 13.325,7.75671
 L 13.3288,7.77315 L 13.3398,7.78847 L 13.3572,7.80162 L 13.3599,7.82333 L 13.3677,7.84052 L 13.38,7.85197
 L 14.4407,8.46434 L 14.4568,8.46931 L 14.4756,8.46747 L 14.4957,8.45889 L 14.5158,8.46747 L 14.5346,8.46931
 z
M -12.8615,-23.8825 L 4.24263,-33.7576 L 4.83974,-33.4128 L 4.83974,-25.6367 L 0.450317,-23.1025 L 0.432343,-23.0858
 L 0.421036,-23.0609 L 0.417191,-23.0293 L 0.391754,-23.0101 L 0.375778,-22.9879 L 0.370331,-22.964 L 0.370331,-16.2431
 z
M 7.18106,-32.0611 L 11.574,-29.5248 L 7.18106,-26.9885 z
M 11.3133,-9.92519 L 11.2962,-10.0002 L 11.1884,-10.1505 L 11.0167,-10.2797 L 10.793,-10.3788 L 10.703,-10.4003
 L 10.703,-13.2681 L 10.6877,-13.3353 L 10.6427,-13.398 L 10.5712,-13.4518 L 10.5522,-13.4602 L 20.0558,-18.947
 L 20.0737,-18.9637 L 20.085,-18.9887 L 20.0889,-19.0203 L 20.1143,-19.0394 L 20.1303,-19.0617 L 20.1358,-19.0856
 L 20.1358,-24.5817 L 32.7705,-17.287 L 32.7705,-16.5975 L 16.2634,-7.06723 z
M 7.87138,-11.9124 L 9.80304,-13.0276 L 9.80304,-10.7971 z
M 1.0943,-4.4518 L 1.12566,-4.46478 L 1.15259,-4.48544 L 1.17325,-4.51237 L 1.18623,-4.54372 L 1.19066,-4.57736
 L 1.19066,-5.97737 L 1.18623,-6.01102 L 1.17325,-6.04237 L 1.15259,-6.06929 L 1.12566,-6.08995 L 1.0943,-6.10294
 L 1.06065,-6.10736 L 1.02701,-6.10294 L 0.995651,-6.08995 L 0.968735,-6.06929 L 0.948074,-6.04237 L 0.935089,-6.01102
 L 0.930664,-5.97737 L 0.930664,-4.57736 L 0.935089,-4.54372 L 0.948074,-4.51237 L 0.968735,-4.48544 L 0.995651,-4.46478
 L 1.02701,-4.4518 L 1.06065,-4.44737 z
" stroke="black" fill="lightgray" stroke-width="0.5"/>
</svg>
