<?xml version="1.0" standalone="no"?>
<!DOCTYPE svg PUBLIC "-//W3C//DTD SVG 1.1//EN" "http://www.w3.org/Graphics/SVG/1.1/DTD/svg11.dtd">
<svg width="83mm" height="76mm" viewBox="-34 -48 83 76" xmlns="http://www.w3.org/2000/svg" version="1.1">
<title>OpenSCAD Model</title>
<path d="
M 14.5507,8.46434 L 15.6113,7.85197 L 15.6237,7.84052 L 15.6315,7.82333 L 15.6341,7.80162 L 15.6516,7.78847
 L 15.6626,7.77315 L 15.6663,7.75671 L 15.6663,-4.70845 L 16.2085,-4.39546 L 16.2246,-4.39049 L 16.2433,-4.39235
 L 16.2634,-4.40091 L 16.2836,-4.39235 L 16.3023,-4.39049 L 16.3185,-4.39546 L 37.7202,-16.7518 L 37.7202,-6.32785
 L 37.724,-6.3114 L 37.7349,-6.29608 L 37.7524,-6.28293 L 37.7551,-6.26122 L 37.7628,-6.24405 L 37.7752,-6.23257
 L 38.8359,-5.62021 L 38.852,-5.61523 L 38.8707,-5.6171 L 38.8909,-5.62566 L 38.911,-5.6171 L 38.9298,-5.61523
 L 38.9459,-5.62021 L 40.0065,-6.23257 L 40.0189,-6.24405 L 40.0267,-6.26122 L 40.0293,-6.28293 L 40.0468,-6.29608
 L 40.0578,-6.3114 L 40.0615,-6.32785 L 40.0615,-18.1035 L 41.7743,-19.0924 L 41.7867,-19.1039 L 41.7944,-19.121
 L 41.7971,-19.1428 L 41.8146,-19.1559 L 41.8255,-19.1712 L 41.8293,-19.1877 L 41.8293,-20.4124 L 41.8255,-20.4288
 L 41.8146,-20.4442 L 41.7971,-20.4573 L 41.7944,-20.479 L 41.7867,-20.4962 L 41.7743,-20.5077 L 35.6253,-24.0578
 L 41.7993,-27.6223 L 41.8173,-27.639 L 41.8286,-27.664 L 41.8324,-27.6956 L 41.8579,-27.7147 L 41.8738,-27.737
 L 41.8793,-27.7609 L 41.8793,-28.3732 L 41.8738,-28.3972 L 41.8579,-28.4194 L 41.8324,-28.4386 L 41.8286,-28.4702
 L 41.8173,-28.4951 L 41.7993,-28.5118 L 40.3526,-29.3471 L 44.2716,-32.6129 L 44.2938,-32.6419 L 44.3078,-32.6756
 L 44.3126,-32.7119 L 44.3078,-32.7481 L 44.2938,-32.7819 L 44.2716,-32.8109 L 44.2426,-32.8331 L 44.2088,-32.8471
 L 44.1726,-32.8519 L 44.1363,-32.8471 L 44.1026,-32.8331 L 44.0736,-32.8109 L 40.0953,-29.4956 L 9.27238,-47.2912
 L 9.24895,-47.2985 L 9.22166,-47.2958 L 9.19238,-47.2833 L 9.1631,-47.2958 L 9.13582,-47.2985 L 9.11238,-47.2912
 L -16.3434,-32.5943 L -16.3614,-32.5776 L -16.3727,-32.5526 L -16.3766,-32.5211 L -16.402,-32.5019 L -16.418,-32.4796
 L -16.4234,-32.4557 L -16.4234,-31.8434 L -16.418,-31.8195 L -16.402,-31.7972 L -16.3935,-31.7908 L -16.3935,-30.4435
 L -16.3891,-30.4099 L -16.3761,-30.3785 L -16.3555,-30.3516 L -16.3285,-30.3309 L -16.2972,-30.3179 L -16.2635,-30.3135
 L -16.2299,-30.3179 L -16.1985,-30.3309 L -16.1716,-30.3516 L -16.1509,-30.3785 L -16.138,-30.4099 L -16.1335,-30.4435
 L -16.1335,-31.5836 L -10.3957,-28.2709 L -10.4079,-28.2659 L -10.5218,-28.1785 L -10.6092,-28.0646 L -10.6641,-27.9319
 L -10.6751,-27.8483 L -16.3185,-24.5901 L -16.3308,-24.5787 L -16.3386,-24.5615 L -16.3412,-24.5398 L -16.3587,-24.5266
 L -16.3697,-24.5113 L -16.3734,-24.4949 L -16.3734,-23.2701 L -16.3697,-23.2537 L -16.3587,-23.2384 L -16.3412,-23.2252
 L -16.3386,-23.2035 L -16.3308,-23.1864 L -16.3185,-23.1749 L -14.6057,-22.186 L -14.6057,-8.36908 L -14.6019,-8.35265
 L -14.5909,-8.33733 L -14.5735,-8.32417 L -14.5708,-8.30246 L -14.563,-8.28529 L -14.5507,-8.27382 L -13.49,-7.66145
 L -13.4739,-7.65648 L -13.4552,-7.65834 L -13.435,-7.6669 L -13.4149,-7.65834 L -13.3961,-7.65648 L -13.38,-7.66145
 L -12.3194,-8.27382 L -12.307,-8.28529 L -12.2992,-8.30246 L -12.2966,-8.32417 L -12.2791,-8.33733 L -12.2681,-8.35265
 L -12.2644,-8.36908 L -12.2644,-20.8342 L 13.325,-6.06021 L 13.325,7.75671 L 13.3288,7.77315 L 13.3398,7.78847
 L 13.3572,7.80162 L 13.3599,7.82333 L 13.3677,7.84052 L 13.38,7.85197 L 14.4407,8.46434 L 14.4568,8.46931
 L 14.4756,8.46747 L 14.4957,8.45889 L 14.5158,8.46747 L 14.5346,8.46931 z
M -12.8615,-23.8825 L -7.82816,-26.7885 L 15.0729,-13.5666 L 15.0729,-12.2764 L 15.0773,-12.2427 L 15.0903,-12.2114
 L 15.1109,-12.1844 L 15.1379,-12.1638 L 15.1692,-12.1508 L 15.2029,-12.1464 L 15.2365,-12.1508 L 15.2679,-12.1638
 L 15.2948,-12.1844 L 15.3154,-12.2114 L 15.3284,-12.2427 L 15.3329,-12.2764 L 15.3329,-13.4165 L 16.1835,-12.9254
 L 16.2069,-12.9181 L 16.2342,-12.9208 L 16.2634,-12.9333 L 16.2927,-12.9208 L 16.32,-12.9181 L 16.3434,-12.9254
 L 33.284,-22.706 L 37.7202,-20.1448 L 37.7202,-19.4553 L 35.8089,-18.3518 L 35.7312,-18.384 L 35.5888,-18.4028
 L 35.4465,-18.384 L 35.3138,-18.3291 L 35.1999,-18.2417 L 35.1125,-18.1278 L 35.0576,-17.9951 L 35.0466,-17.9117
 L 28.6813,-14.2367 L 28.6035,-14.2689 L 28.4612,-14.2876 L 28.3188,-14.2689 L 28.1862,-14.2139 L 28.0723,-14.1265
 L 27.9849,-14.0126 L 27.9299,-13.88 L 27.9189,-13.7965 L 21.5536,-10.1215 L 21.4758,-10.1537 L 21.3335,-10.1724
 L 21.1911,-10.1537 L 21.0585,-10.0988 L 20.9446,-10.0114 L 20.8572,-9.89745 L 20.8022,-9.7648 L 20.7913,-9.68137
 L 16.2634,-7.06723 z
M 15.2365,-9.3508 L 15.2679,-9.36378 L 15.2948,-9.38445 L 15.3154,-9.41136 L 15.3284,-9.44272 L 15.3329,-9.47636
 L 15.3329,-10.8764 L 15.3284,-10.91 L 15.3154,-10.9414 L 15.2948,-10.9683 L 15.2679,-10.989 L 15.2365,-11.0019
 L 15.2029,-11.0064 L 15.1692,-11.0019 L 15.1379,-10.989 L 15.1109,-10.9683 L 15.0903,-10.9414 L 15.0773,-10.91
 L 15.0729,-10.8764 L 15.0729,-9.47636 L 15.0773,-9.44272 L 15.0903,-9.41136 L 15.1109,-9.38445 L 15.1379,-9.36378
 L 15.1692,-9.3508 L 15.2029,-9.34637 z
M 47.3853,-33.2014 L 47.5367,-33.228 L 47.6783,-33.2722 L 47.8101,-33.3342 L 47.9299,-33.4128 L 48.0351,-33.5069
 L 48.126,-33.6166 L 48.2024,-33.7419 L 48.2629,-33.8805 L 48.3061,-34.0302 L 48.332,-34.1909 L 48.3407,-34.3628
 L 48.3209,-34.6167 L 48.2616,-34.8398 L 48.1626,-35.0321 L 48.0241,-35.1936 L 47.8492,-35.3214 L 47.6411,-35.4127
 L 47.3996,-35.4675 L 47.125,-35.4857 L 46.3665,-35.4857 L 46.3665,-33.1926 L 47.2242,-33.1926 z
M 46.6774,-33.4416 L 46.6774,-35.2367 L 47.1184,-35.2367 L 47.3267,-35.2227 L 47.5088,-35.1808 L 47.6648,-35.1109
 L 47.7947,-35.0129 L 47.8969,-34.8884 L 47.9698,-34.7385 L 48.0136,-34.5633 L 48.0282,-34.3628 L 48.0218,-34.2259
 L 48.0026,-34.0983 L 47.9705,-33.9801 L 47.9257,-33.8713 L 47.8689,-33.7732 L 47.801,-33.6874 L 47.722,-33.6137
 L 47.6319,-33.5523 L 47.5325,-33.5039 L 47.4254,-33.4693 L 47.3107,-33.4485 L 47.1884,-33.4416 z
M -16.2299,-27.5179 L -16.1985,-27.5309 L -16.1716,-27.5516 L -16.1509,-27.5785 L -16.138,-27.6098 L -16.1335,-27.6435
 L -16.1335,-29.0435 L -16.138,-29.0771 L -16.1509,-29.1085 L -16.1716,-29.1354 L -16.1985,-29.1561 L -16.2299,-29.1691
 L -16.2635,-29.1735 L -16.2972,-29.1691 L -16.3285,-29.1561 L -16.3555,-29.1354 L -16.3761,-29.1085 L -16.3891,-29.0771
 L -16.3935,-29.0435 L -16.3935,-27.6435 L -16.3891,-27.6098 L -16.3761,-27.5785 L -16.3555,-27.5516 L -16.3285,-27.5309
 L -16.2972,-27.5179 L -16.2635,-27.5135 z
M -28.1048,24.6886 L -28.349,24.6886 L -28.349,24.9219 L -28.1048,24.9219 z
M -29.3076,26.7245 L -29.2349,26.7131 L -29.1689,26.694 L -29.1096,26.6673 L -29.0564,26.6318 L -29.0088,26.5863
 L -28.9666,26.5308 L -28.9299,26.4653 L -28.9245,26.4653 L -28.9242,26.4951 L -28.9233,26.5276 L -28.9218,26.5629
 L -28.9198,26.6009 L -28.9174,26.6367 L -28.9152,26.6653 L -28.913,26.6868 L -28.9109,26.7012 L -28.6777,26.7012
 L -28.6812,26.6549 L -28.6838,26.589 L -28.6853,26.5037 L -28.6858,26.3988 L -28.6858,24.6886 L -28.9299,24.6886
 L -28.9299,25.2975 L -28.9272,25.4616 L -28.9299,25.4616 L -28.9665,25.3997 L -29.0086,25.3467 L -29.0561,25.3027
 L -29.109,25.2677 L -29.168,25.241 L -29.2341,25.2219 L -29.3071,25.2105 L -29.387,25.2067 L -29.6231,25.2547
 L -29.7918,25.3986 L -29.893,25.6385 L -29.9268,25.9743 L -29.9186,26.1521 L -29.894,26.3059 L -29.8531,26.4356
 L -29.7959,26.5412 L -29.7212,26.6231 L -29.6282,26.6816 L -29.5168,26.7167 L -29.387,26.7284 z
M -29.4098,26.5315 L -29.4823,26.5066 L -29.542,26.4651 L -29.5891,26.4069 L -29.6247,26.3295 L -29.6501,26.2303
 L -29.6654,26.1092 L -29.6704,25.9662 L -29.6653,25.8236 L -29.6499,25.7022 L -29.6243,25.6021 L -29.5884,25.5234
 L -29.541,25.4637 L -29.4807,25.4211 L -29.4077,25.3956 L -29.3219,25.3871 L -29.2264,25.3955 L -29.1449,25.421
 L -29.0772,25.4633 L -29.0235,25.5227 L -28.9826,25.6002 L -28.9533,25.6973 L -28.9358,25.8138 L -28.9299,25.9499
 L -28.9358,26.0912 L -28.9533,26.2126 L -28.9826,26.3143 L -29.0235,26.3961 L -29.0774,26.459 L -29.1456,26.5039
 L -29.228,26.5309 L -29.3246,26.5398 z
M 32.888,24.6886 L 32.6438,24.6886 L 32.6438,24.9219 L 32.888,24.9219 z
M 12.3018,24.6886 L 12.0577,24.6886 L 12.0577,24.9219 L 12.3018,24.9219 z
M 20.5233,26.1791 L 20.7024,26.0313 L 21.1987,26.7012 L 21.4849,26.7012 L 20.8583,25.8645 L 21.4537,25.2338
 L 21.1676,25.2338 L 20.5233,25.9458 L 20.5233,24.6886 L 20.2792,24.6886 L 20.2792,26.7012 L 20.5233,26.7012
 z
M 6.88065,25.836 L 6.88713,25.7401 L 6.90659,25.6546 L 6.939,25.5794 L 6.98439,25.5146 L 7.04054,25.4623
 L 7.10527,25.425 L 7.17854,25.4027 L 7.26039,25.3952 L 7.3149,25.3974 L 7.36313,25.404 L 7.40508,25.415
 L 7.44077,25.4305 L 7.47102,25.4506 L 7.49672,25.4757 L 7.51782,25.5059 L 7.53435,25.541 L 7.54681,25.5836
 L 7.55571,25.6361 L 7.56105,25.6985 L 7.56282,25.7709 L 7.56282,26.7012 L 7.8083,26.7012 L 7.8083,25.7234
 L 7.80122,25.5938 L 7.78,25.4842 L 7.74461,25.3947 L 7.69507,25.3254 L 7.6306,25.2734 L 7.55046,25.2363
 L 7.45464,25.2141 L 7.34312,25.2067 L 7.26204,25.2109 L 7.18834,25.2235 L 7.12201,25.2444 L 7.06305,25.2738
 L 7.00978,25.3122 L 6.96049,25.3601 L 6.91519,25.4176 L 6.87387,25.4847 L 6.86978,25.4847 L 6.87068,25.4733
 L 6.87199,25.4525 L 6.87373,25.4224 L 6.87589,25.383 L 6.87798,25.3392 L 6.87946,25.2962 L 6.88036,25.2538
 L 6.88065,25.2121 L 6.88065,24.6886 L 6.63651,24.6886 L 6.63651,26.7012 L 6.88065,26.7012 z
M -26.1458,24.6886 L -26.3899,24.6886 L -26.3899,24.9219 L -26.1458,24.9219 z
M 24.5978,25.836 L 24.6043,25.7401 L 24.6237,25.6546 L 24.6562,25.5794 L 24.7016,25.5146 L 24.7577,25.4623
 L 24.8224,25.425 L 24.8957,25.4027 L 24.9776,25.3952 L 25.0321,25.3974 L 25.0803,25.404 L 25.1223,25.415
 L 25.1579,25.4305 L 25.1882,25.4506 L 25.2139,25.4757 L 25.235,25.5059 L 25.2515,25.541 L 25.264,25.5836
 L 25.2729,25.6361 L 25.2782,25.6985 L 25.28,25.7709 L 25.28,26.7012 L 25.5255,26.7012 L 25.5255,25.7234
 L 25.5184,25.5938 L 25.4972,25.4842 L 25.4618,25.3947 L 25.4122,25.3254 L 25.3478,25.2734 L 25.2676,25.2363
 L 25.1718,25.2141 L 25.0603,25.2067 L 24.9792,25.2109 L 24.9055,25.2235 L 24.8392,25.2444 L 24.7802,25.2738
 L 24.7269,25.3122 L 24.6777,25.3601 L 24.6324,25.4176 L 24.591,25.4847 L 24.587,25.4847 L 24.5878,25.4733
 L 24.5892,25.4525 L 24.5909,25.4224 L 24.5931,25.383 L 24.5951,25.3392 L 24.5966,25.2962 L 24.5975,25.2538
 L 24.5978,25.2121 L 24.5978,24.6886 L 24.3537,24.6886 L 24.3537,26.7012 L 24.5978,26.7012 z
M 21.8783,24.6886 L 21.6342,24.6886 L 21.6342,24.9219 L 21.8783,24.9219 z
M 13.2104,26.7245 L 13.2831,26.7131 L 13.3491,26.694 L 13.4084,26.6673 L 13.4615,26.6318 L 13.5092,26.5863
 L 13.5514,26.5308 L 13.5881,26.4653 L 13.5935,26.4653 L 13.5938,26.4951 L 13.5947,26.5276 L 13.5962,26.5629
 L 13.5982,26.6009 L 13.6006,26.6367 L 13.6028,26.6653 L 13.605,26.6868 L 13.6071,26.7012 L 13.8403,26.7012
 L 13.8368,26.6549 L 13.8342,26.589 L 13.8327,26.5037 L 13.8322,26.3988 L 13.8322,24.6886 L 13.5881,24.6886
 L 13.5881,25.2975 L 13.5908,25.4616 L 13.5881,25.4616 L 13.5515,25.3997 L 13.5094,25.3467 L 13.4619,25.3027
 L 13.409,25.2677 L 13.35,25.241 L 13.2839,25.2219 L 13.211,25.2105 L 13.131,25.2067 L 12.8949,25.2547
 L 12.7262,25.3986 L 12.625,25.6385 L 12.5912,25.9743 L 12.5994,26.1521 L 12.6239,26.3059 L 12.6649,26.4356
 L 12.7221,26.5412 L 12.7968,26.6231 L 12.8898,26.6816 L 13.0012,26.7167 L 13.131,26.7284 z
M 13.1082,26.5315 L 13.0357,26.5066 L 12.976,26.4651 L 12.9289,26.4069 L 12.8933,26.3295 L 12.8679,26.2303
 L 12.8526,26.1092 L 12.8475,25.9662 L 12.8527,25.8236 L 12.8681,25.7022 L 12.8937,25.6021 L 12.9296,25.5234
 L 12.977,25.4637 L 13.0373,25.4211 L 13.1103,25.3956 L 13.1961,25.3871 L 13.2916,25.3955 L 13.3731,25.421
 L 13.4408,25.4633 L 13.4945,25.5227 L 13.5354,25.6002 L 13.5647,25.6973 L 13.5822,25.8138 L 13.5881,25.9499
 L 13.5822,26.0912 L 13.5647,26.2126 L 13.5354,26.3143 L 13.4945,26.3961 L 13.4406,26.459 L 13.3724,26.5039
 L 13.29,26.5309 L 13.1934,26.5398 z
M -13.6289,26.7245 L -13.5562,26.7131 L -13.4902,26.694 L -13.431,26.6673 L -13.3777,26.6318 L -13.3301,26.5863
 L -13.2879,26.5308 L -13.2512,26.4653 L -13.2458,26.4653 L -13.2455,26.4951 L -13.2446,26.5276 L -13.2431,26.5629
 L -13.2411,26.6009 L -13.2387,26.6367 L -13.2365,26.6653 L -13.2343,26.6868 L -13.2323,26.7012 L -12.999,26.7012
 L -13.0025,26.6549 L -13.0051,26.589 L -13.0066,26.5037 L -13.0071,26.3988 L -13.0071,24.6886 L -13.2512,24.6886
 L -13.2512,25.2975 L -13.2485,25.4616 L -13.2512,25.4616 L -13.2879,25.3997 L -13.3299,25.3467 L -13.3774,25.3027
 L -13.4303,25.2677 L -13.4893,25.241 L -13.5554,25.2219 L -13.6284,25.2105 L -13.7083,25.2067 L -13.9444,25.2547
 L -14.1131,25.3986 L -14.2143,25.6385 L -14.2481,25.9743 L -14.2399,26.1521 L -14.2153,26.3059 L -14.1745,26.4356
 L -14.1172,26.5412 L -14.0426,26.6231 L -13.9495,26.6816 L -13.8381,26.7167 L -13.7083,26.7284 z
M -13.7311,26.5315 L -13.8036,26.5066 L -13.8633,26.4651 L -13.9104,26.4069 L -13.946,26.3295 L -13.9714,26.2303
 L -13.9867,26.1092 L -13.9917,25.9662 L -13.9866,25.8236 L -13.9712,25.7022 L -13.9456,25.6021 L -13.9097,25.5234
 L -13.8623,25.4637 L -13.802,25.4211 L -13.729,25.3956 L -13.6432,25.3871 L -13.5477,25.3955 L -13.4662,25.421
 L -13.3985,25.4633 L -13.3448,25.5227 L -13.3039,25.6002 L -13.2746,25.6973 L -13.2571,25.8138 L -13.2512,25.9499
 L -13.2571,26.0912 L -13.2746,26.2126 L -13.3039,26.3143 L -13.3448,26.3961 L -13.3987,26.459 L -13.4669,26.5039
 L -13.5493,26.5309 L -13.6459,26.5398 z
M -25.2372,26.7245 L -25.1646,26.7131 L -25.0986,26.694 L -25.0393,26.6673 L -24.9861,26.6318 L -24.9384,26.5863
 L -24.8962,26.5308 L -24.8596,26.4653 L -24.8542,26.4653 L -24.8539,26.4951 L -24.853,26.5276 L -24.8515,26.5629
 L -24.8494,26.6009 L -24.8471,26.6367 L -24.8448,26.6653 L -24.8427,26.6868 L -24.8406,26.7012 L -24.6073,26.7012
 L -24.6109,26.6549 L -24.6134,26.589 L -24.6149,26.5037 L -24.6154,26.3988 L -24.6154,24.6886 L -24.8596,24.6886
 L -24.8596,25.2975 L -24.8568,25.4616 L -24.8596,25.4616 L -24.8962,25.3997 L -24.9382,25.3467 L -24.9857,25.3027
 L -25.0386,25.2677 L -25.0977,25.241 L -25.1637,25.2219 L -25.2367,25.2105 L -25.3166,25.2067 L -25.5528,25.2547
 L -25.7215,25.3986 L -25.8227,25.6385 L -25.8564,25.9743 L -25.8482,26.1521 L -25.8237,26.3059 L -25.7828,26.4356
 L -25.7255,26.5412 L -25.6509,26.6231 L -25.5579,26.6816 L -25.4464,26.7167 L -25.3166,26.7284 z
M -25.3394,26.5315 L -25.4119,26.5066 L -25.4717,26.4651 L -25.5187,26.4069 L -25.5543,26.3295 L -25.5797,26.2303
 L -25.595,26.1092 L -25.6001,25.9662 L -25.595,25.8236 L -25.5796,25.7022 L -25.5539,25.6021 L -25.518,25.5234
 L -25.4706,25.4637 L -25.4104,25.4211 L -25.3374,25.3956 L -25.2515,25.3871 L -25.1561,25.3955 L -25.0745,25.421
 L -25.0069,25.4633 L -24.9532,25.5227 L -24.9122,25.6002 L -24.883,25.6973 L -24.8654,25.8138 L -24.8596,25.9499
 L -24.8654,26.0912 L -24.883,26.2126 L -24.9122,26.3143 L -24.9532,26.3961 L -25.0071,26.459 L -25.0752,26.5039
 L -25.1576,26.5309 L -25.2542,26.5398 z
M -14.5374,24.6886 L -14.7816,24.6886 L -14.7816,24.9219 L -14.5374,24.9219 z
M 10.7045,25.4115 L 10.9907,25.4115 L 10.9907,25.2338 L 10.7045,25.2338 L 10.7045,25.1022 L 10.7071,25.0447
 L 10.715,24.9968 L 10.7281,24.9586 L 10.7466,24.93 L 10.7708,24.9092 L 10.8015,24.8944 L 10.8386,24.8855
 L 10.8822,24.8825 L 10.9068,24.8832 L 10.933,24.8852 L 10.961,24.8886 L 10.9907,24.8934 L 10.9907,24.7076
 L 10.9535,24.7005 L 10.9124,24.6954 L 10.8674,24.6923 L 10.8185,24.6913 L 10.7334,24.6968 L 10.6601,24.7133
 L 10.5985,24.7409 L 10.5485,24.7795 L 10.51,24.8306 L 10.4824,24.8958 L 10.4659,24.975 L 10.4604,25.0683
 L 10.4604,25.2338 L 10.2542,25.2338 L 10.2542,25.4115 L 10.4604,25.4115 L 10.4604,26.7012 L 10.7045,26.7012
 z
M 2.26051,25.4115 L 2.54671,25.4115 L 2.54671,25.2338 L 2.26051,25.2338 L 2.26051,25.1022 L 2.26315,25.0447
 L 2.27103,24.9968 L 2.28416,24.9586 L 2.30257,24.93 L 2.32681,24.9092 L 2.3575,24.8944 L 2.39462,24.8855
 L 2.4382,24.8825 L 2.46278,24.8832 L 2.48906,24.8852 L 2.51703,24.8886 L 2.54671,24.8934 L 2.54671,24.7076
 L 2.50949,24.7005 L 2.46838,24.6954 L 2.42337,24.6923 L 2.37447,24.6913 L 2.28944,24.6968 L 2.21611,24.7133
 L 2.1545,24.7409 L 2.10455,24.7795 L 2.06599,24.8306 L 2.03844,24.8958 L 2.02191,24.975 L 2.0164,25.0683
 L 2.0164,25.2338 L 1.81026,25.2338 L 1.81026,25.4115 L 2.0164,25.4115 L 2.0164,26.7012 L 2.26051,26.7012
 z
M 22.6183,26.7209 L 22.6804,26.7148 L 22.7417,26.7046 L 22.8024,26.6904 L 22.8024,26.51 L 22.759,26.5183
 L 22.7211,26.5242 L 22.6885,26.5278 L 22.6614,26.529 L 22.6218,26.5263 L 22.5887,26.5183 L 22.5618,26.505
 L 22.5414,26.4863 L 22.5262,26.461 L 22.5154,26.4278 L 22.5089,26.3867 L 22.5068,26.3378 L 22.5068,25.4115
 L 22.778,25.4115 L 22.778,25.2338 L 22.5068,25.2338 L 22.5068,24.9056 L 22.344,24.9056 L 22.2721,25.2338
 L 22.0931,25.2338 L 22.0931,25.4115 L 22.2626,25.4115 L 22.2626,26.3907 L 22.281,26.536 L 22.3359,26.6399
 L 22.4274,26.7022 L 22.5556,26.7229 z
M 6.25751,26.7209 L 6.31955,26.7148 L 6.38092,26.7046 L 6.44162,26.6904 L 6.44162,26.51 L 6.39822,26.5183
 L 6.36024,26.5242 L 6.3277,26.5278 L 6.30058,26.529 L 6.26103,26.5263 L 6.22783,26.5183 L 6.201,26.505
 L 6.18054,26.4863 L 6.16541,26.461 L 6.1546,26.4278 L 6.14812,26.3867 L 6.14595,26.3378 L 6.14595,25.4115
 L 6.41722,25.4115 L 6.41722,25.2338 L 6.14595,25.2338 L 6.14595,24.9056 L 5.98322,24.9056 L 5.91132,25.2338
 L 5.7323,25.2338 L 5.7323,25.4115 L 5.90184,25.4115 L 5.90184,26.3907 L 5.92015,26.536 L 5.97507,26.6399
 L 6.06662,26.7022 L 6.19478,26.7229 z
M 33.628,26.7209 L 33.69,26.7148 L 33.7514,26.7046 L 33.8121,26.6904 L 33.8121,26.51 L 33.7687,26.5183
 L 33.7307,26.5242 L 33.6982,26.5278 L 33.671,26.529 L 33.6315,26.5263 L 33.5983,26.5183 L 33.5715,26.505
 L 33.551,26.4863 L 33.5359,26.461 L 33.5251,26.4278 L 33.5186,26.3867 L 33.5164,26.3378 L 33.5164,25.4115
 L 33.7877,25.4115 L 33.7877,25.2338 L 33.5164,25.2338 L 33.5164,24.9056 L 33.3537,24.9056 L 33.2818,25.2338
 L 33.1028,25.2338 L 33.1028,25.4115 L 33.2723,25.4115 L 33.2723,26.3907 L 33.2906,26.536 L 33.3455,26.6399
 L 33.4371,26.7022 L 33.5652,26.7229 z
M -10.1788,26.7209 L -10.1167,26.7148 L -10.0554,26.7046 L -9.99467,26.6904 L -9.99467,26.51 L -10.0381,26.5183
 L -10.076,26.5242 L -10.1086,26.5278 L -10.1357,26.529 L -10.1753,26.5263 L -10.2085,26.5183 L -10.2353,26.505
 L -10.2558,26.4863 L -10.2709,26.461 L -10.2817,26.4278 L -10.2882,26.3867 L -10.2903,26.3378 L -10.2903,25.4115
 L -10.0191,25.4115 L -10.0191,25.2338 L -10.2903,25.2338 L -10.2903,24.9056 L -10.4531,24.9056 L -10.525,25.2338
 L -10.704,25.2338 L -10.704,25.4115 L -10.5345,25.4115 L -10.5345,26.3907 L -10.5161,26.536 L -10.4612,26.6399
 L -10.3697,26.7022 L -10.2415,26.7229 z
M 18.6643,25.8767 L 19.2393,25.8767 L 19.2393,25.6786 L 18.6643,25.6786 L 18.6643,25.0982 L 18.4649,25.0982
 L 18.4649,25.6786 L 17.8898,25.6786 L 17.8898,25.8767 L 18.4649,25.8767 L 18.4649,26.4571 L 18.6643,26.4571
 z
M 11.4053,25.9363 L 11.4103,25.8214 L 11.4253,25.7205 L 11.4503,25.6339 L 11.4853,25.5613 L 11.5298,25.5041
 L 11.5833,25.4632 L 11.6458,25.4386 L 11.7172,25.4305 L 11.7559,25.4313 L 11.7905,25.4339 L 11.821,25.4381
 L 11.8474,25.444 L 11.8474,25.2202 L 11.8224,25.2143 L 11.7976,25.2101 L 11.7729,25.2075 L 11.7484,25.2067
 L 11.6832,25.211 L 11.6257,25.224 L 11.576,25.2456 L 11.5341,25.2758 L 11.4973,25.3179 L 11.4626,25.3748
 L 11.4301,25.4467 L 11.3999,25.5335 L 11.3944,25.5335 L 11.3938,25.496 L 11.3917,25.4335 L 11.3883,25.3461
 L 11.3836,25.2338 L 11.153,25.2338 L 11.1566,25.3253 L 11.1591,25.4128 L 11.1606,25.4962 L 11.1612,25.5756
 L 11.1612,26.7012 L 11.4053,26.7012 z
M -33.3777,25.8509 L -33.3713,25.7496 L -33.3522,25.66 L -33.3204,25.5821 L -33.2759,25.5159 L -33.2204,25.4631
 L -33.1556,25.4254 L -33.0814,25.4027 L -32.9979,25.3952 L -32.9412,25.3974 L -32.8918,25.404 L -32.8497,25.415
 L -32.8148,25.4305 L -32.7858,25.4509 L -32.7609,25.4769 L -32.7403,25.5085 L -32.724,25.5457 L -32.7115,25.5898
 L -32.7026,25.642 L -32.6973,25.7024 L -32.6955,25.7709 L -32.6955,26.7012 L -32.45,26.7012 L -32.45,25.7234
 L -32.457,25.5948 L -32.478,25.4859 L -32.5129,25.3965 L -32.5619,25.3267 L -32.6259,25.2742 L -32.7062,25.2367
 L -32.8026,25.2142 L -32.9152,25.2067 L -32.9939,25.2106 L -33.0659,25.2224 L -33.1312,25.2421 L -33.1898,25.2697
 L -33.2434,25.3068 L -33.2937,25.355 L -33.3407,25.4143 L -33.3844,25.4847 L -33.3885,25.4847 L -33.3898,25.4354
 L -33.3911,25.3947 L -33.3922,25.3625 L -33.3932,25.3389 L -33.3942,25.3201 L -33.3959,25.2859 L -33.3967,25.2704
 L -33.3973,25.2569 L -33.398,25.2463 L -33.3987,25.2386 L -33.3994,25.2338 L -33.6299,25.2338 L -33.6264,25.2747
 L -33.6238,25.3406 L -33.6223,25.4314 L -33.6218,25.5471 L -33.6218,26.7012 L -33.3777,26.7012 z
M 26.666,26.7067 L 26.8365,26.6416 L 26.9651,26.5331 L 27.0518,26.3812 L 26.8375,26.3201 L 26.8167,26.3669
 L 26.7881,26.4093 L 26.7519,26.4475 L 26.7079,26.4815 L 26.6562,26.5094 L 26.5966,26.5293 L 26.5291,26.5413
 L 26.4537,26.5453 L 26.3593,26.5367 L 26.277,26.511 L 26.2067,26.4682 L 26.1485,26.4083 L 26.1028,26.3326
 L 26.0702,26.2425 L 26.0506,26.138 L 26.0441,26.019 L 27.0911,26.019 L 27.0911,25.9865 L 27.0507,25.6453
 L 26.9294,25.4016 L 26.7272,25.2554 L 26.4442,25.2067 L 26.2953,25.2188 L 26.1646,25.2552 L 26.0522,25.3158
 L 25.9579,25.4006 L 25.8835,25.5082 L 25.8303,25.6369 L 25.7984,25.7869 L 25.7878,25.958 L 25.7984,26.1375
 L 25.8303,26.2934 L 25.8835,26.4257 L 25.9579,26.5344 L 26.0528,26.6193 L 26.167,26.6799 L 26.3006,26.7162
 L 26.4537,26.7284 z
M 26.0468,25.8319 L 26.0568,25.7337 L 26.0788,25.6466 L 26.1128,25.5706 L 26.1587,25.5057 L 26.2152,25.4538
 L 26.2809,25.4167 L 26.3559,25.3945 L 26.4401,25.3871 L 26.5263,25.3937 L 26.6018,25.4137 L 26.6667,25.4469
 L 26.7208,25.4935 L 26.7648,25.5546 L 26.7992,25.6313 L 26.8238,25.7238 L 26.8388,25.8319 z
M 16.4881,26.7067 L 16.6586,26.6416 L 16.7872,26.5331 L 16.8739,26.3812 L 16.6596,26.3201 L 16.6388,26.3669
 L 16.6103,26.4093 L 16.5741,26.4475 L 16.5301,26.4815 L 16.4783,26.5094 L 16.4187,26.5293 L 16.3512,26.5413
 L 16.2758,26.5453 L 16.1815,26.5367 L 16.0992,26.511 L 16.0289,26.4682 L 15.9706,26.4083 L 15.925,26.3326
 L 15.8923,26.2425 L 15.8727,26.138 L 15.8662,26.019 L 16.9133,26.019 L 16.9133,25.9865 L 16.8728,25.6453
 L 16.7515,25.4016 L 16.5493,25.2554 L 16.2663,25.2067 L 16.1174,25.2188 L 15.9868,25.2552 L 15.8743,25.3158
 L 15.7801,25.4006 L 15.7056,25.5082 L 15.6525,25.6369 L 15.6205,25.7869 L 15.6099,25.958 L 15.6205,26.1375
 L 15.6525,26.2934 L 15.7056,26.4257 L 15.7801,26.5344 L 15.8749,26.6193 L 15.9891,26.6799 L 16.1228,26.7162
 L 16.2758,26.7284 z
M 15.8689,25.8319 L 15.879,25.7337 L 15.901,25.6466 L 15.9349,25.5706 L 15.9808,25.5057 L 16.0373,25.4538
 L 16.1031,25.4167 L 16.178,25.3945 L 16.2623,25.3871 L 16.3484,25.3937 L 16.424,25.4137 L 16.4888,25.4469
 L 16.543,25.4935 L 16.587,25.5546 L 16.6213,25.6313 L 16.646,25.7238 L 16.661,25.8319 z
M -15.5579,26.7166 L -15.4253,26.6812 L -15.3118,26.6223 L -15.2174,26.5398 L -15.1433,26.4333 L -15.0903,26.3022
 L -15.0585,26.1465 L -15.0479,25.9662 L -15.0578,25.7843 L -15.0876,25.628 L -15.1372,25.4971 L -15.2066,25.3918
 L -15.297,25.3108 L -15.4097,25.253 L -15.5446,25.2182 L -15.7016,25.2067 L -15.9894,25.2542 L -16.1949,25.3965
 L -16.3183,25.6339 L -16.3594,25.9662 L -16.3491,26.1404 L -16.3184,26.2928 L -16.2671,26.4235 L -16.1953,26.5324
 L -16.1034,26.6181 L -15.9919,26.6794 L -15.8606,26.7161 L -15.7098,26.7284 z
M -15.8068,26.5389 L -15.8876,26.5115 L -15.955,26.466 L -16.0088,26.4022 L -16.05,26.3203 L -16.0795,26.2203
 L -16.0972,26.1022 L -16.1031,25.9662 L -16.0971,25.8269 L -16.0792,25.7073 L -16.0493,25.6075 L -16.0075,25.5274
 L -15.9522,25.466 L -15.8822,25.4221 L -15.7973,25.3958 L -15.6976,25.3871 L -15.5988,25.3957 L -15.5153,25.4215
 L -15.4472,25.4645 L -15.3944,25.5247 L -15.355,25.6039 L -15.3268,25.7039 L -15.3099,25.8247 L -15.3042,25.9662
 L -15.3101,26.1061 L -15.3278,26.2262 L -15.3573,26.3265 L -15.3985,26.4069 L -15.4535,26.4686 L -15.5241,26.5127
 L -15.6105,26.5392 L -15.7125,26.548 z
M -23.4681,26.7067 L -23.2977,26.6416 L -23.1691,26.5331 L -23.0824,26.3812 L -23.2967,26.3201 L -23.3175,26.3669
 L -23.346,26.4093 L -23.3822,26.4475 L -23.4262,26.4815 L -23.4779,26.5094 L -23.5376,26.5293 L -23.6051,26.5413
 L -23.6805,26.5453 L -23.7748,26.5367 L -23.8571,26.511 L -23.9274,26.4682 L -23.9857,26.4083 L -24.0313,26.3326
 L -24.064,26.2425 L -24.0836,26.138 L -24.0901,26.019 L -23.043,26.019 L -23.043,25.9865 L -23.0835,25.6453
 L -23.2048,25.4016 L -23.4069,25.2554 L -23.69,25.2067 L -23.8389,25.2188 L -23.9695,25.2552 L -24.082,25.3158
 L -24.1762,25.4006 L -24.2507,25.5082 L -24.3038,25.6369 L -24.3358,25.7869 L -24.3464,25.958 L -24.3358,26.1375
 L -24.3038,26.2934 L -24.2507,26.4257 L -24.1762,26.5344 L -24.0814,26.6193 L -23.9672,26.6799 L -23.8335,26.7162
 L -23.6805,26.7284 z
M -24.0874,25.8319 L -24.0773,25.7337 L -24.0553,25.6466 L -24.0214,25.5706 L -23.9755,25.5057 L -23.919,25.4538
 L -23.8532,25.4167 L -23.7783,25.3945 L -23.694,25.3871 L -23.6078,25.3937 L -23.5323,25.4137 L -23.4675,25.4469
 L -23.4133,25.4935 L -23.3693,25.5546 L -23.335,25.6313 L -23.3103,25.7238 L -23.2953,25.8319 z
M -22.519,25.9363 L -22.514,25.8214 L -22.499,25.7205 L -22.474,25.6339 L -22.439,25.5613 L -22.3945,25.5041
 L -22.341,25.4632 L -22.2785,25.4386 L -22.2071,25.4305 L -22.1684,25.4313 L -22.1339,25.4339 L -22.1033,25.4381
 L -22.0769,25.444 L -22.0769,25.2202 L -22.1019,25.2143 L -22.1267,25.2101 L -22.1514,25.2075 L -22.1759,25.2067
 L -22.2412,25.211 L -22.2986,25.224 L -22.3483,25.2456 L -22.3902,25.2758 L -22.4271,25.3179 L -22.4617,25.3748
 L -22.4942,25.4467 L -22.5245,25.5335 L -22.5299,25.5335 L -22.5306,25.496 L -22.5326,25.4335 L -22.536,25.3461
 L -22.5407,25.2338 L -22.7713,25.2338 L -22.7677,25.3253 L -22.7652,25.4128 L -22.7637,25.4962 L -22.7632,25.5756
 L -22.7632,26.7012 L -22.519,26.7012 z
M 27.6151,25.8509 L 27.6215,25.7496 L 27.6405,25.66 L 27.6723,25.5821 L 27.7168,25.5159 L 27.7724,25.4631
 L 27.8372,25.4254 L 27.9114,25.4027 L 27.9949,25.3952 L 28.0516,25.3974 L 28.101,25.404 L 28.1431,25.415
 L 28.1779,25.4305 L 28.207,25.4509 L 28.2319,25.4769 L 28.2525,25.5085 L 28.2688,25.5457 L 28.2813,25.5898
 L 28.2902,25.642 L 28.2955,25.7024 L 28.2973,25.7709 L 28.2973,26.7012 L 28.5428,26.7012 L 28.5428,25.7234
 L 28.5358,25.5948 L 28.5148,25.4859 L 28.4798,25.3965 L 28.4309,25.3267 L 28.3669,25.2742 L 28.2866,25.2367
 L 28.1902,25.2142 L 28.0776,25.2067 L 27.9989,25.2106 L 27.9269,25.2224 L 27.8616,25.2421 L 27.8029,25.2697
 L 27.7493,25.3068 L 27.699,25.355 L 27.652,25.4143 L 27.6083,25.4847 L 27.6043,25.4847 L 27.603,25.4354
 L 27.6017,25.3947 L 27.6006,25.3625 L 27.5995,25.3389 L 27.5977,25.3025 L 27.5954,25.2569 L 27.5948,25.2463
 L 27.5941,25.2386 L 27.5934,25.2338 L 27.3629,25.2338 L 27.3664,25.2747 L 27.369,25.3406 L 27.3705,25.4314
 L 27.371,25.5471 L 27.371,26.7012 L 27.6151,26.7012 z
M 23.6663,26.7205 L 23.7677,26.6968 L 23.8589,26.6574 L 23.9399,26.6022 L 24.0082,26.5338 L 24.061,26.4547
 L 24.0984,26.365 L 24.1203,26.2645 L 23.8735,26.2483 L 23.8591,26.3167 L 23.8363,26.3757 L 23.8052,26.4252
 L 23.7657,26.4653 L 23.7192,26.4961 L 23.6675,26.5182 L 23.6104,26.5314 L 23.548,26.5358 L 23.4609,26.527
 L 23.3856,26.5005 L 23.3219,26.4565 L 23.2699,26.3947 L 23.2296,26.3147 L 23.2008,26.2157 L 23.1835,26.0977
 L 23.1777,25.9607 L 23.1831,25.8192 L 23.1994,25.6997 L 23.2265,25.6022 L 23.2645,25.5268 L 23.3146,25.4704
 L 23.3781,25.4301 L 23.455,25.4059 L 23.5453,25.3979 L 23.6124,25.4024 L 23.6714,25.4159 L 23.7222,25.4383
 L 23.765,25.4698 L 23.8,25.5089 L 23.8277,25.5542 L 23.8481,25.6058 L 23.8613,25.6637 L 24.1122,25.6447
 L 24.0863,25.5479 L 24.0466,25.462 L 23.993,25.3871 L 23.9257,25.3233 L 23.8466,25.2723 L 23.758,25.2358
 L 23.6598,25.214 L 23.552,25.2067 L 23.409,25.2188 L 23.2835,25.2553 L 23.1757,25.3161 L 23.0855,25.4013
 L 23.0143,25.5096 L 22.9634,25.6398 L 22.9329,25.792 L 22.9227,25.9662 L 22.9329,26.1415 L 22.9633,26.2945
 L 23.0139,26.4253 L 23.0848,26.5337 L 23.175,26.6189 L 23.2833,26.6797 L 23.4099,26.7162 L 23.5547,26.7284
 z
M 4.46997,25.9363 L 4.47496,25.8214 L 4.48997,25.7205 L 4.51497,25.6339 L 4.54999,25.5613 L 4.59448,25.5041
 L 4.64798,25.4632 L 4.71045,25.4386 L 4.78191,25.4305 L 4.82056,25.4313 L 4.85513,25.4339 L 4.88565,25.4381
 L 4.91211,25.444 L 4.91211,25.2202 L 4.88708,25.2143 L 4.86224,25.2101 L 4.83759,25.2075 L 4.81308,25.2067
 L 4.74782,25.211 L 4.69034,25.224 L 4.64066,25.2456 L 4.59879,25.2758 L 4.56192,25.3179 L 4.52725,25.3748
 L 4.49478,25.4467 L 4.46452,25.5335 L 4.45911,25.5335 L 4.45842,25.496 L 4.45639,25.4335 L 4.453,25.3461
 L 4.44826,25.2338 L 4.2177,25.2338 L 4.22125,25.3253 L 4.2238,25.4128 L 4.22531,25.4962 L 4.22583,25.5756
 L 4.22583,26.7012 L 4.46997,26.7012 z
M 31.3861,25.8509 L 31.3925,25.7496 L 31.4115,25.66 L 31.4433,25.5821 L 31.4878,25.5159 L 31.5433,25.4631
 L 31.6082,25.4254 L 31.6823,25.4027 L 31.7658,25.3952 L 31.8225,25.3974 L 31.872,25.404 L 31.9141,25.415
 L 31.9489,25.4305 L 31.978,25.4509 L 32.0028,25.4769 L 32.0234,25.5085 L 32.0398,25.5457 L 32.0523,25.5898
 L 32.0612,25.642 L 32.0665,25.7024 L 32.0683,25.7709 L 32.0683,26.7012 L 32.3138,26.7012 L 32.3138,25.7234
 L 32.3068,25.5948 L 32.2858,25.4859 L 32.2508,25.3965 L 32.2019,25.3267 L 32.1378,25.2742 L 32.0576,25.2367
 L 31.9612,25.2142 L 31.8486,25.2067 L 31.7699,25.2106 L 31.6978,25.2224 L 31.6325,25.2421 L 31.5739,25.2697
 L 31.5203,25.3068 L 31.47,25.355 L 31.423,25.4143 L 31.3793,25.4847 L 31.3752,25.4847 L 31.3739,25.4354
 L 31.3727,25.3947 L 31.3716,25.3625 L 31.3705,25.3389 L 31.3686,25.3025 L 31.3664,25.2569 L 31.3657,25.2463
 L 31.3651,25.2386 L 31.3644,25.2338 L 31.1338,25.2338 L 31.1374,25.2747 L 31.1399,25.3406 L 31.1414,25.4314
 L 31.142,25.5471 L 31.142,26.7012 L 31.3861,26.7012 z
M -9.3454,26.724 L -9.2666,26.7109 L -9.1945,26.6891 L -9.1291,26.6585 L -9.06897,26.6175 L -9.01263,26.5641
 L -8.96013,26.4984 L -8.91142,26.4205 L -8.90331,26.4205 L -8.89589,26.4914 L -8.88177,26.5522 L -8.86096,26.603
 L -8.83347,26.6436 L -8.79799,26.6748 L -8.75327,26.697 L -8.69931,26.7104 L -8.63611,26.7148 L -8.58823,26.7134
 L -8.54085,26.7094 L -8.49397,26.7026 L -8.4476,26.6931 L -8.4476,26.5412 L -8.46938,26.5454 L -8.48997,26.5483
 L -8.50938,26.5501 L -8.5276,26.5507 L -8.56439,26.5473 L -8.59474,26.537 L -8.61865,26.5198 L -8.63612,26.4958
 L -8.64859,26.465 L -8.65749,26.4275 L -8.66283,26.3832 L -8.66461,26.3323 L -8.66461,25.7003 L -8.67334,25.5874
 L -8.69952,25.4886 L -8.74318,25.404 L -8.80431,25.3335 L -8.88271,25.278 L -8.97824,25.2384 L -9.09088,25.2146
 L -9.22067,25.2067 L -9.45479,25.2314 L -9.63092,25.3057 L -9.74908,25.4294 L -9.80927,25.6027 L -9.55431,25.6258
 L -9.54312,25.5689 L -9.52446,25.5203 L -9.49835,25.4801 L -9.46478,25.4481 L -9.42189,25.4238 L -9.36781,25.4064
 L -9.30254,25.396 L -9.22609,25.3925 L -9.15013,25.3973 L -9.08504,25.4118 L -9.03078,25.436 L -8.98738,25.4698
 L -8.95415,25.5148 L -8.93042,25.5725 L -8.91617,25.643 L -8.91142,25.7261 L -8.91142,25.8061 L -9.24101,25.8116
 L -9.39633,25.8228 L -9.5287,25.8482 L -9.63809,25.8878 L -9.7245,25.9418 L -9.79007,26.0094 L -9.8369,26.0903
 L -9.86501,26.1843 L -9.87436,26.2917 L -9.86742,26.388 L -9.84657,26.4734 L -9.81181,26.548 L -9.76317,26.6117
 L -9.70068,26.6628 L -9.62448,26.6992 L -9.53455,26.7211 L -9.43089,26.7284 z
M -9.43152,26.5412 L -9.4809,26.529 L -9.52341,26.5087 L -9.55905,26.4802 L -9.58723,26.4442 L -9.60736,26.4015
 L -9.61945,26.352 L -9.62346,26.2957 L -9.6205,26.2434 L -9.6116,26.1964 L -9.59677,26.1546 L -9.576,26.1181
 L -9.54968,26.0864 L -9.51819,26.0591 L -9.48154,26.0362 L -9.43971,26.0177 L -9.39008,26.0033 L -9.33002,25.9926
 L -9.25952,25.9857 L -9.1786,25.9824 L -8.91142,25.977 L -8.91142,26.0977 L -8.91519,26.1536 L -8.92651,26.2088
 L -8.94537,26.2631 L -8.97179,26.3167 L -9.00471,26.3671 L -9.04317,26.4118 L -9.08713,26.4509 L -9.13658,26.4842
 L -9.19066,26.5109 L -9.24846,26.53 L -9.31,26.5415 L -9.37526,26.5453 z
M -0.0546722,25.8509 L -0.0483093,25.7496 L -0.0292358,25.66 L 0.00253296,25.5821 L 0.0470428,25.5159 L 0.102554,25.4631
 L 0.167404,25.4254 L 0.241562,25.4027 L 0.325058,25.3952 L 0.38176,25.3974 L 0.431183,25.404 L 0.473297,25.415
 L 0.508133,25.4305 L 0.537216,25.4509 L 0.562057,25.4769 L 0.582657,25.5085 L 0.599014,25.5457 L 0.611481,25.5898
 L 0.620377,25.642 L 0.625717,25.7024 L 0.627502,25.7709 L 0.627502,26.7012 L 0.872971,26.7012 L 0.872971,25.7234
 L 0.865982,25.5948 L 0.845001,25.4859 L 0.810028,25.3965 L 0.761078,25.3267 L 0.697037,25.2742 L 0.616821,25.2367
 L 0.520401,25.2142 L 0.407791,25.2067 L 0.329086,25.2106 L 0.257065,25.2224 L 0.191757,25.2421 L 0.133133,25.2697
 L 0.0795288,25.3068 L 0.0292206,25.355 L -0.0177612,25.4143 L -0.0614471,25.4847 L -0.0655212,25.4847 L -0.0668335,25.4354
 L -0.0680695,25.3947 L -0.0692139,25.3625 L -0.0702667,25.3389 L -0.0721436,25.3025 L -0.0743408,25.2569 L -0.0750275,25.2463
 L -0.0756989,25.2386 L -0.0763702,25.2338 L -0.306931,25.2338 L -0.303375,25.2747 L -0.300842,25.3406 L -0.299316,25.4314
 L -0.298813,25.5471 L -0.298813,26.7012 L -0.0546722,26.7012 z
M 8.94884,26.7067 L 9.11929,26.6416 L 9.24788,26.5331 L 9.33459,26.3812 L 9.12032,26.3201 L 9.0995,26.3669
 L 9.07097,26.4093 L 9.03473,26.4475 L 8.99078,26.4815 L 8.93904,26.5094 L 8.87941,26.5293 L 8.8119,26.5413
 L 8.7365,26.5453 L 8.64215,26.5367 L 8.55983,26.511 L 8.48956,26.4682 L 8.43132,26.4083 L 8.38564,26.3326
 L 8.35301,26.2425 L 8.33342,26.138 L 8.3269,26.019 L 9.37395,26.019 L 9.37395,25.9865 L 9.33351,25.6453
 L 9.2122,25.4016 L 9.01004,25.2554 L 8.72701,25.2067 L 8.57811,25.2188 L 8.44745,25.2552 L 8.33501,25.3158
 L 8.24078,25.4006 L 8.16632,25.5082 L 8.11313,25.6369 L 8.08122,25.7869 L 8.07059,25.958 L 8.08122,26.1375
 L 8.11313,26.2934 L 8.16632,26.4257 L 8.24078,26.5344 L 8.3356,26.6193 L 8.44981,26.6799 L 8.58345,26.7162
 L 8.7365,26.7284 z
M 8.32962,25.8319 L 8.33966,25.7337 L 8.36166,25.6466 L 8.3956,25.5706 L 8.4415,25.5057 L 8.498,25.4538
 L 8.56374,25.4167 L 8.63872,25.3945 L 8.72295,25.3871 L 8.80914,25.3937 L 8.88466,25.4137 L 8.94949,25.4469
 L 9.00366,25.4935 L 9.04765,25.5546 L 9.08199,25.6313 L 9.10666,25.7238 L 9.12166,25.8319 z
M -4.09926,26.7166 L -3.9666,26.6812 L -3.85309,26.6223 L -3.75874,26.5398 L -3.68457,26.4333 L -3.63159,26.3022
 L -3.59981,26.1465 L -3.5892,25.9662 L -3.59912,25.7843 L -3.62888,25.628 L -3.67848,25.4971 L -3.74791,25.3918
 L -3.83835,25.3108 L -3.951,25.253 L -4.08586,25.2182 L -4.24292,25.2067 L -4.5307,25.2542 L -4.73627,25.3965
 L -4.85959,25.6339 L -4.90071,25.9662 L -4.89046,26.1404 L -4.85968,26.2928 L -4.8084,26.4235 L -4.7366,26.5324
 L -4.64471,26.6181 L -4.53316,26.6794 L -4.40195,26.7161 L -4.25107,26.7284 z
M -4.34808,26.5389 L -4.42891,26.5115 L -4.49626,26.466 L -4.55013,26.4022 L -4.59137,26.3203 L -4.62082,26.2203
 L -4.63849,26.1022 L -4.64438,25.9662 L -4.63841,25.8269 L -4.62048,25.7073 L -4.59061,25.6075 L -4.54877,25.5274
 L -4.49355,25.466 L -4.42348,25.4221 L -4.33859,25.3958 L -4.23886,25.3871 L -4.14008,25.3957 L -4.05661,25.4215
 L -3.98851,25.4645 L -3.93575,25.5247 L -3.89629,25.6039 L -3.8681,25.7039 L -3.85118,25.8247 L -3.84555,25.9662
 L -3.85144,26.1061 L -3.86911,26.2262 L -3.89856,26.3265 L -3.9398,26.4069 L -3.99478,26.4686 L -4.06543,26.5127
 L -4.15176,26.5392 L -4.25378,26.548 z
M -1.00378,26.7067 L -0.833328,26.6416 L -0.704742,26.5331 L -0.618027,26.3812 L -0.832306,26.3201 L -0.853119,26.3669
 L -0.881653,26.4093 L -0.917892,26.4475 L -0.961838,26.4815 L -1.01358,26.5094 L -1.07321,26.5293 L -1.14072,26.5413
 L -1.21613,26.5453 L -1.31047,26.5367 L -1.39279,26.511 L -1.46306,26.4682 L -1.5213,26.4083 L -1.56699,26.3326
 L -1.59961,26.2425 L -1.6192,26.138 L -1.62572,26.019 L -0.578674,26.019 L -0.578674,25.9865 L -0.61911,25.6453
 L -0.740417,25.4016 L -0.942581,25.2554 L -1.22562,25.2067 L -1.37451,25.2188 L -1.50517,25.2552 L -1.61761,25.3158
 L -1.71184,25.4006 L -1.7863,25.5082 L -1.83949,25.6369 L -1.8714,25.7869 L -1.88203,25.958 L -1.8714,26.1375
 L -1.83949,26.2934 L -1.7863,26.4257 L -1.71184,26.5344 L -1.61702,26.6193 L -1.50281,26.6799 L -1.36917,26.7162
 L -1.21613,26.7284 z
M -1.623,25.8319 L -1.61296,25.7337 L -1.59096,25.6466 L -1.55702,25.5706 L -1.51112,25.5057 L -1.45462,25.4538
 L -1.38889,25.4167 L -1.3139,25.3945 L -1.22968,25.3871 L -1.14348,25.3937 L -1.06796,25.4137 L -1.00313,25.4469
 L -0.948959,25.4935 L -0.904968,25.5546 L -0.870636,25.6313 L -0.845963,25.7238 L -0.830963,25.8319 z
M -31.3876,26.7166 L -31.255,26.6812 L -31.1415,26.6223 L -31.0471,26.5398 L -30.9729,26.4333 L -30.92,26.3022
 L -30.8882,26.1465 L -30.8776,25.9662 L -30.8875,25.7843 L -30.9173,25.628 L -30.9669,25.4971 L -31.0363,25.3918
 L -31.1267,25.3108 L -31.2394,25.253 L -31.3742,25.2182 L -31.5313,25.2067 L -31.8191,25.2542 L -32.0246,25.3965
 L -32.148,25.6339 L -32.1891,25.9662 L -32.1788,26.1404 L -32.1481,26.2928 L -32.0968,26.4235 L -32.025,26.5324
 L -31.9331,26.6181 L -31.8215,26.6794 L -31.6903,26.7161 L -31.5394,26.7284 z
M -31.6365,26.5389 L -31.7173,26.5115 L -31.7846,26.466 L -31.8385,26.4022 L -31.8797,26.3203 L -31.9092,26.2203
 L -31.9269,26.1022 L -31.9328,25.9662 L -31.9268,25.8269 L -31.9089,25.7073 L -31.879,25.6075 L -31.8371,25.5274
 L -31.7819,25.466 L -31.7119,25.4221 L -31.627,25.3958 L -31.5273,25.3871 L -31.4285,25.3957 L -31.345,25.4215
 L -31.2769,25.4645 L -31.2241,25.5247 L -31.1847,25.6039 L -31.1565,25.7039 L -31.1396,25.8247 L -31.1339,25.9662
 L -31.1398,26.1061 L -31.1575,26.2262 L -31.187,26.3265 L -31.2282,26.4069 L -31.2832,26.4686 L -31.3538,26.5127
 L -31.4401,26.5392 L -31.5422,26.548 z
M 3.44269,26.7166 L 3.57535,26.6812 L 3.68884,26.6223 L 3.78319,26.5398 L 3.85736,26.4333 L 3.91034,26.3022
 L 3.94214,26.1465 L 3.95273,25.9662 L 3.94281,25.7843 L 3.91306,25.628 L 3.86346,25.4971 L 3.79404,25.3918
 L 3.70358,25.3108 L 3.59094,25.253 L 3.45609,25.2182 L 3.29901,25.2067 L 3.01123,25.2542 L 2.80568,25.3965
 L 2.68234,25.6339 L 2.64124,25.9662 L 2.65149,26.1404 L 2.68225,26.2928 L 2.73354,26.4235 L 2.80533,26.5324
 L 2.89722,26.6181 L 3.00877,26.6794 L 3.14,26.7161 L 3.29088,26.7284 z
M 3.19385,26.5389 L 3.11302,26.5115 L 3.04568,26.466 L 2.99181,26.4022 L 2.95058,26.3203 L 2.92111,26.2203
 L 2.90344,26.1022 L 2.89755,25.9662 L 2.90353,25.8269 L 2.92146,25.7073 L 2.95134,25.6075 L 2.99318,25.5274
 L 3.0484,25.466 L 3.11845,25.4221 L 3.20335,25.3958 L 3.30307,25.3871 L 3.40187,25.3957 L 3.48532,25.4215
 L 3.55344,25.4645 L 3.60619,25.5247 L 3.64566,25.6039 L 3.67384,25.7039 L 3.69075,25.8247 L 3.6964,25.9662
 L 3.69051,26.1061 L 3.67282,26.2262 L 3.64337,26.3265 L 3.60213,26.4069 L 3.54716,26.4686 L 3.4765,26.5127
 L 3.39017,26.5392 L 3.28815,26.548 z
M -3.07741,26.704 L -3.07776,26.6072 L -3.07877,26.5365 L -3.08046,26.4919 L -3.08284,26.4734 L -3.07605,26.4734
 L -3.00383,26.5849 L -2.90381,26.6646 L -2.77599,26.7124 L -2.62035,26.7284 L -2.38419,26.6804 L -2.2155,26.5365
 L -2.11429,26.2966 L -2.08055,25.9607 L -2.08894,25.7791 L -2.11412,25.6234 L -2.15608,25.4936 L -2.21483,25.3898
 L -2.29053,25.3102 L -2.38335,25.2534 L -2.49329,25.2194 L -2.62035,25.208 L -2.7036,25.212 L -2.77837,25.2238
 L -2.84465,25.2435 L -2.90245,25.2711 L -2.9534,25.3072 L -2.99908,25.3523 L -3.03952,25.4065 L -3.07469,25.4698
 L -3.08011,25.4698 L -3.08032,25.4542 L -3.08096,25.4332 L -3.08203,25.4067 L -3.08351,25.3749 L -3.08516,25.3425
 L -3.08673,25.3147 L -3.08821,25.2913 L -3.08961,25.2725 L -3.09088,25.2576 L -3.092,25.2462 L -3.09291,25.2383
 L -3.09367,25.2338 L -3.32967,25.2338 L -3.32611,25.28 L -3.32356,25.3454 L -3.32204,25.4299 L -3.32153,25.5335
 L -3.32153,27.2776 L -3.07741,27.2776 z
M -2.782,26.5394 L -2.86414,26.5137 L -2.93187,26.4709 L -2.9852,26.411 L -3.02554,26.333 L -3.05435,26.2361
 L -3.07166,26.1201 L -3.07741,25.9852 L -3.07474,25.8863 L -3.06673,25.7971 L -3.05339,25.7178 L -3.0347,25.6481
 L -3.01086,25.5876 L -2.98213,25.5357 L -2.94847,25.4924 L -2.90991,25.4576 L -2.86494,25.4309 L -2.81209,25.4118
 L -2.75136,25.4004 L -2.68274,25.3965 L -2.59865,25.4048 L -2.52676,25.4294 L -2.4671,25.4705 L -2.41963,25.5281
 L -2.38344,25.6048 L -2.35757,25.7034 L -2.34207,25.8239 L -2.3369,25.9662 L -2.3421,26.1122 L -2.35774,26.2355
 L -2.38382,26.3363 L -2.42032,26.4144 L -2.46815,26.4728 L -2.52831,26.5146 L -2.60072,26.5396 L -2.68546,26.548
 z
M -6.30112,26.7213 L -6.18359,26.7002 L -6.08174,26.6651 L -5.99559,26.6158 L -5.92705,26.5536 L -5.8781,26.4795
 L -5.84871,26.3935 L -5.83893,26.2957 L -5.84062,26.2548 L -5.8457,26.2162 L -5.85419,26.1799 L -5.86606,26.1459
 L -5.88103,26.114 L -5.89877,26.084 L -5.91933,26.056 L -5.94269,26.0299 L -5.96968,26.0054 L -6.00117,25.9819
 L -6.03716,25.9596 L -6.07762,25.9384 L -6.12712,25.9172 L -6.19019,25.8951 L -6.26682,25.8721 L -6.35701,25.8482
 L -6.45059,25.8244 L -6.52655,25.8034 L -6.58487,25.7851 L -6.62556,25.7695 L -6.65549,25.7545 L -6.6815,25.738
 L -6.70364,25.7199 L -6.72186,25.7004 L -6.7361,25.6786 L -6.74628,25.6542 L -6.75237,25.6271 L -6.75441,25.5973
 L -6.7495,25.5496 L -6.73474,25.5084 L -6.71016,25.4737 L -6.67575,25.4454 L -6.63098,25.4234 L -6.57536,25.4077
 L -6.50891,25.3983 L -6.43161,25.3952 L -6.36079,25.3985 L -6.29752,25.4082 L -6.24178,25.4246 L -6.19359,25.4474
 L -6.15344,25.4764 L -6.12187,25.511 L -6.09886,25.5513 L -6.08441,25.5973 L -5.8647,25.5701 L -5.89026,25.4823
 L -5.92896,25.4074 L -5.98079,25.3453 L -6.04576,25.2962 L -6.12354,25.2588 L -6.21376,25.2321 L -6.31645,25.2161
 L -6.43161,25.2107 L -6.56041,25.2173 L -6.67285,25.237 L -6.76894,25.2699 L -6.84866,25.3159 L -6.91127,25.3744
 L -6.95598,25.4449 L -6.9828,25.5273 L -6.99174,25.6217 L -6.9886,25.6738 L -6.9792,25.7217 L -6.96352,25.7654
 L -6.94156,25.8048 L -6.91406,25.8407 L -6.88171,25.8738 L -6.84454,25.9041 L -6.80255,25.9316 L -6.75053,25.9578
 L -6.68336,25.9843 L -6.60101,26.011 L -6.50348,26.038 L -6.32852,26.0841 L -6.26665,26.103 L -6.21393,26.1241
 L -6.17036,26.1477 L -6.13594,26.1737 L -6.10983,26.2028 L -6.09119,26.236 L -6.08,26.2733 L -6.07626,26.3147
 L -6.08165,26.3681 L -6.09779,26.4144 L -6.12471,26.4536 L -6.16238,26.4856 L -6.21167,26.5105 L -6.27344,26.5283
 L -6.34764,26.539 L -6.43433,26.5426 L -6.51637,26.5391 L -6.58894,26.5288 L -6.65201,26.5117 L -6.70558,26.4876
 L -6.75024,26.4562 L -6.78661,26.4169 L -6.81467,26.3698 L -6.83441,26.3147 L -7.05006,26.3568 L -7.02119,26.4461
 L -6.97937,26.5227 L -6.92458,26.5868 L -6.85681,26.6382 L -6.7747,26.6776 L -6.67693,26.7058 L -6.56346,26.7227
 L -6.43433,26.7284 z
M 14.9953,27.239 L 15.1873,27.123 L 15.3024,26.9298 L 15.3409,26.6592 L 15.3409,25.5376 L 15.3414,25.4321
 L 15.3429,25.3464 L 15.3454,25.2802 L 15.349,25.2338 L 15.1171,25.2338 L 15.1143,25.2442 L 15.1116,25.266
 L 15.1089,25.2992 L 15.1062,25.3437 L 15.1039,25.3901 L 15.1022,25.4291 L 15.1012,25.4606 L 15.1008,25.4847
 L 15.0981,25.4847 L 15.0636,25.4227 L 15.0226,25.3682 L 14.9751,25.3213 L 14.9211,25.2819 L 14.8612,25.2508
 L 14.7961,25.2285 L 14.7259,25.2152 L 14.6505,25.2107 L 14.5204,25.2223 L 14.4079,25.257 L 14.3132,25.3149
 L 14.2362,25.3959 L 14.1766,25.5012 L 14.134,25.632 L 14.1084,25.7884 L 14.0999,25.9702 L 14.1078,26.1493
 L 14.1316,26.3028 L 14.1712,26.4308 L 14.2267,26.5331 L 14.299,26.6114 L 14.3893,26.6673 L 14.4974,26.7009
 L 14.6234,26.7121 L 14.7016,26.7077 L 14.7746,26.6943 L 14.8426,26.6721 L 14.9055,26.6409 L 14.9626,26.6009
 L 15.0133,26.5522 L 15.0576,26.4948 L 15.0954,26.4286 L 15.0981,26.4286 L 15.0981,26.6646 L 15.0753,26.8515
 L 15.0069,26.985 L 14.8929,27.0651 L 14.7332,27.0918 L 14.6687,27.0884 L 14.6107,27.0781 L 14.5592,27.0609
 L 14.5142,27.0369 L 14.4762,27.0065 L 14.4456,26.9703 L 14.4223,26.9282 L 14.4064,26.8803 L 14.1609,26.9155
 L 14.1876,26.9974 L 14.227,27.0693 L 14.2792,27.1313 L 14.344,27.1834 L 14.4213,27.2246 L 14.5108,27.2541
 L 14.6125,27.2717 L 14.7265,27.2776 z
M 14.6163,26.5235 L 14.5407,26.4988 L 14.4793,26.4577 L 14.4322,26.4002 L 14.3972,26.3238 L 14.3721,26.2262
 L 14.3571,26.1075 L 14.3521,25.9675 L 14.3575,25.8261 L 14.3735,25.7058 L 14.4002,25.6064 L 14.4376,25.5281
 L 14.4867,25.4688 L 14.5485,25.4264 L 14.623,25.401 L 14.7102,25.3925 L 14.765,25.3968 L 14.8168,25.4096
 L 14.8657,25.431 L 14.9116,25.461 L 14.9535,25.499 L 14.9904,25.5447 L 15.0223,25.598 L 15.0492,25.659
 L 15.0706,25.7268 L 15.0859,25.8009 L 15.095,25.8811 L 15.0981,25.9675 L 15.095,26.052 L 15.0859,26.1304
 L 15.0706,26.2029 L 15.0492,26.2693 L 15.0223,26.329 L 14.9902,26.3813 L 14.9531,26.4263 L 14.9109,26.4639
 L 14.8645,26.4936 L 14.815,26.5148 L 14.7621,26.5275 L 14.7061,26.5317 z
M -11.2761,26.7213 L -11.1586,26.7002 L -11.0568,26.6651 L -10.9706,26.6158 L -10.9021,26.5536 L -10.8531,26.4795
 L -10.8237,26.3935 L -10.8139,26.2957 L -10.8156,26.2548 L -10.8207,26.2162 L -10.8292,26.1799 L -10.8411,26.1459
 L -10.856,26.114 L -10.8738,26.084 L -10.8943,26.056 L -10.9177,26.0299 L -10.9447,26.0054 L -10.9762,25.9819
 L -11.0122,25.9596 L -11.0526,25.9384 L -11.1021,25.9172 L -11.1652,25.8951 L -11.2418,25.8721 L -11.332,25.8482
 L -11.4256,25.8244 L -11.5016,25.8034 L -11.5599,25.7851 L -11.6006,25.7695 L -11.6305,25.7545 L -11.6565,25.738
 L -11.6786,25.7199 L -11.6969,25.7004 L -11.7111,25.6786 L -11.7213,25.6542 L -11.7274,25.6271 L -11.7294,25.5973
 L -11.7245,25.5496 L -11.7098,25.5084 L -11.6852,25.4737 L -11.6508,25.4454 L -11.606,25.4234 L -11.5504,25.4077
 L -11.4839,25.3983 L -11.4066,25.3952 L -11.3358,25.3985 L -11.2725,25.4082 L -11.2168,25.4246 L -11.1686,25.4474
 L -11.1285,25.4764 L -11.0969,25.511 L -11.0739,25.5513 L -11.0594,25.5973 L -10.8397,25.5701 L -10.8653,25.4823
 L -10.904,25.4074 L -10.9558,25.3453 L -11.0208,25.2962 L -11.0986,25.2588 L -11.1888,25.2321 L -11.2915,25.2161
 L -11.4066,25.2107 L -11.5354,25.2173 L -11.6479,25.237 L -11.744,25.2699 L -11.8237,25.3159 L -11.8863,25.3744
 L -11.931,25.4449 L -11.9578,25.5273 L -11.9668,25.6217 L -11.9636,25.6738 L -11.9542,25.7217 L -11.9385,25.7654
 L -11.9166,25.8048 L -11.8891,25.8407 L -11.8567,25.8738 L -11.8196,25.9041 L -11.7776,25.9316 L -11.7256,25.9578
 L -11.6584,25.9843 L -11.576,26.011 L -11.4785,26.038 L -11.3035,26.0841 L -11.2417,26.103 L -11.1889,26.1241
 L -11.1454,26.1477 L -11.111,26.1737 L -11.0849,26.2028 L -11.0662,26.236 L -11.055,26.2733 L -11.0513,26.3147
 L -11.0567,26.3681 L -11.0728,26.4144 L -11.0997,26.4536 L -11.1374,26.4856 L -11.1867,26.5105 L -11.2484,26.5283
 L -11.3227,26.539 L -11.4093,26.5426 L -11.4914,26.5391 L -11.564,26.5288 L -11.627,26.5117 L -11.6806,26.4876
 L -11.7253,26.4562 L -11.7616,26.4169 L -11.7897,26.3698 L -11.8094,26.3147 L -12.0251,26.3568 L -11.9962,26.4461
 L -11.9544,26.5227 L -11.8996,26.5868 L -11.8318,26.6382 L -11.7497,26.6776 L -11.6519,26.7058 L -11.5385,26.7227
 L -11.4093,26.7284 z
M 30.165,26.7244 L 30.237,26.7126 L 30.3023,26.6929 L 30.3609,26.6653 L 30.4146,26.6282 L 30.4649,26.58
 L 30.5119,26.5207 L 30.5556,26.4503 L 30.5596,26.4503 L 30.5609,26.4996 L 30.5622,26.5404 L 30.5633,26.5725
 L 30.5644,26.5961 L 30.5662,26.6326 L 30.5678,26.6646 L 30.5685,26.6781 L 30.5691,26.6887 L 30.5698,26.6964
 L 30.5705,26.7012 L 30.801,26.7012 L 30.7975,26.6603 L 30.7949,26.5944 L 30.7934,26.5036 L 30.7929,26.3879
 L 30.7929,25.2338 L 30.5488,25.2338 L 30.5488,26.0841 L 30.5424,26.1854 L 30.5234,26.275 L 30.4916,26.3529
 L 30.4471,26.4191 L 30.3915,26.472 L 30.3267,26.5097 L 30.2525,26.5323 L 30.169,26.5398 L 30.1123,26.5376
 L 30.0629,26.531 L 30.0208,26.52 L 29.9859,26.5046 L 29.9568,26.4842 L 29.932,26.4581 L 29.9114,26.4265
 L 29.8951,26.3893 L 29.8826,26.3452 L 29.8737,26.293 L 29.8684,26.2327 L 29.8666,26.1642 L 29.8666,25.2338
 L 29.6211,25.2338 L 29.6211,26.2116 L 29.6281,26.3402 L 29.6491,26.4491 L 29.684,26.5385 L 29.733,26.6083
 L 29.797,26.6609 L 29.8773,26.6984 L 29.9737,26.7209 L 30.0863,26.7284 z
M -16.4531,25.2338 L -16.7121,25.2338 L -17.0458,26.1913 L -17.0986,26.3513 L -17.1461,26.51 L -17.1805,26.3897
 L -17.2075,26.2961 L -17.2272,26.229 L -17.2397,26.1886 L -17.5625,25.2338 L -17.8229,25.2338 L -17.2899,26.7012
 L -17.001,26.7012 z
M 21.8783,25.2338 L 21.6342,25.2338 L 21.6342,26.7012 L 21.8783,26.7012 z
M 32.888,25.2338 L 32.6438,25.2338 L 32.6438,26.7012 L 32.888,26.7012 z
M 12.3018,25.2338 L 12.0577,25.2338 L 12.0577,26.7012 L 12.3018,26.7012 z
M -28.1048,25.2338 L -28.349,25.2338 L -28.349,26.7012 L -28.1048,26.7012 z
M -8.16588,27.2741 L -8.11023,27.2636 L -8.05772,27.246 L -8.00835,27.2214 L -7.96161,27.1896 L -7.91698,27.1505
 L -7.87447,27.1041 L -7.83408,27.0505 L -7.79398,26.9857 L -7.75237,26.9059 L -7.70921,26.8111 L -7.66454,26.7012
 L -7.10033,25.2338 L -7.35803,25.2338 L -7.67946,26.1682 L -7.7744,26.4354 L -7.77939,26.4183 L -7.79033,26.3846
 L -7.80719,26.3342 L -7.82999,26.2672 L -7.85313,26.1997 L -7.87102,26.1477 L -7.88365,26.1112 L -7.89104,26.0903
 L -7.90732,26.0448 L -8.21654,25.2338 L -8.47693,25.2338 L -7.8951,26.6945 L -7.91815,26.7528 L -7.99054,26.8993
 L -8.0748,27.004 L -8.17093,27.0668 L -8.27892,27.0878 L -8.30943,27.0873 L -8.33859,27.0858 L -8.36641,27.0832
 L -8.39285,27.0796 L -8.39285,27.2627 L -8.3569,27.2693 L -8.31689,27.2739 L -8.27281,27.2767 L -8.22467,27.2776
 z
M -26.1458,25.2338 L -26.3899,25.2338 L -26.3899,26.7012 L -26.1458,26.7012 z
M -26.5528,25.2338 L -26.8118,25.2338 L -27.1454,26.1913 L -27.1983,26.3513 L -27.2458,26.51 L -27.2801,26.3897
 L -27.3072,26.2961 L -27.3269,26.229 L -27.3394,26.1886 L -27.6622,25.2338 L -27.9226,25.2338 L -27.3896,26.7012
 L -27.1007,26.7012 z
M -14.5374,25.2338 L -14.7816,25.2338 L -14.7816,26.7012 L -14.5374,26.7012 z
M -18.5211,25.9038 L -21.2987,25.9038 L -21.2987,26.0896 L -18.5211,26.0896 z
" stroke="black" fill="lightgray" stroke-width="0.5"/>
</svg>
