<?xml version="1.0" standalone="no"?>
<!DOCTYPE svg PUBLIC "-//W3C//DTD SVG 1.1//EN" "http://www.w3.org/Graphics/SVG/1.1/DTD/svg11.dtd">
<svg width="62mm" height="45mm" viewBox="-3 -16 62 45" xmlns="http://www.w3.org/2000/svg" version="1.1">
<title>OpenSCAD Model</title>
<path d="
M 32.6069,18.918 L 58.0627,4.22104 L 58.0807,4.20436 L 58.092,4.17938 L 58.0959,4.1478 L 58.1213,4.12866
 L 58.1373,4.10638 L 58.1427,4.08247 L 58.1427,3.47011 L 58.1373,3.4462 L 58.1213,3.42392 L 58.0959,3.40479
 L 58.092,3.3732 L 58.0807,3.34822 L 58.0627,3.33154 L 25.5358,-15.4479 L 25.5124,-15.4551 L 25.4851,-15.4524
 L 25.4558,-15.4399 L 25.4266,-15.4524 L 25.3993,-15.4551 L 25.3758,-15.4479 L -0.0799866,-0.750931 L -0.0979767,-0.734253
 L -0.109268,-0.709274 L -0.113129,-0.677689 L -0.13855,-0.658554 L -0.154541,-0.636276 L -0.159988,-0.612366 L -0.159988,-0
 L -0.154541,0.0238953 L -0.13855,0.0461731 L -0.113129,0.0653076 L -0.109268,0.0968933 L -0.0979767,0.121887 L -0.0799866,0.13855
 L 32.4469,18.918 L 32.4703,18.9252 L 32.4976,18.9225 L 32.5269,18.9101 L 32.5562,18.9225 L 32.5835,18.9252
 z
M 41.1856,23.7973 L 41.3191,23.6094 L 41.4312,23.4155 L 41.5217,23.2157 L 41.5915,23.0065 L 41.6413,22.7842
 L 41.6713,22.549 L 41.6812,22.3007 L 41.6812,22.2937 L 41.6713,22.0469 L 41.6416,21.8125 L 41.592,21.5907
 L 41.5226,21.3812 L 41.4323,21.181 L 41.3202,20.9865 L 41.1864,20.7979 L 41.0306,20.6151 L 40.7239,20.6151
 L 40.8777,20.802 L 41.0097,20.9942 L 41.1197,21.1917 L 41.2078,21.3945 L 41.2753,21.6049 L 41.3235,21.8255
 L 41.3525,22.0563 L 41.3621,22.2972 L 41.3525,22.538 L 41.3238,22.7686 L 41.2758,22.9889 L 41.2087,23.199
 L 41.1209,23.4015 L 41.0108,23.599 L 40.8785,23.7916 L 40.7239,23.9792 L 41.0306,23.9792 z
M 38.7166,20.6151 L 38.3993,20.6151 L 38.3993,23.2316 L 38.7166,23.2316 z
M 32.0253,20.6151 L 31.7467,20.6151 L 31.0221,23.2669 L 31.3077,23.2669 z
M 28.9125,23.7907 L 28.7797,23.5975 L 28.6696,23.3993 L 28.582,23.1964 L 28.5153,22.9861 L 28.4677,22.7661
 L 28.4391,22.5365 L 28.4295,22.2972 L 28.4392,22.0569 L 28.4681,21.8264 L 28.5163,21.6056 L 28.5838,21.3944
 L 28.6719,21.191 L 28.7819,20.9933 L 28.9139,20.8014 L 29.0678,20.6151 L 28.761,20.6151 L 28.606,20.7971
 L 28.4725,20.985 L 28.3605,21.1788 L 28.27,21.3786 L 28.2002,21.5878 L 28.1503,21.8101 L 28.1204,22.0454
 L 28.1104,22.2937 L 28.1104,22.3007 L 28.1203,22.5475 L 28.1501,22.7818 L 28.1997,23.0037 L 28.2691,23.2131
 L 28.3593,23.4134 L 28.4714,23.6078 L 28.6053,23.7964 L 28.761,23.9792 L 29.0678,23.9792 z
M 30.2587,23.2551 L 30.4264,23.2197 L 30.5707,23.1608 L 30.6917,23.0782 L 30.7874,22.9742 L 30.8557,22.8508
 L 30.8967,22.708 L 30.9104,22.5458 L 30.9007,22.4318 L 30.8716,22.328 L 30.8231,22.2344 L 30.7552,22.1508
 L 30.6699,22.0803 L 30.5692,22.0257 L 30.453,21.9869 L 30.3215,21.9639 L 30.3215,21.9569 L 30.4409,21.9244
 L 30.5452,21.88 L 30.6344,21.8235 L 30.7085,21.755 L 30.7667,21.675 L 30.8083,21.5838 L 30.8333,21.4814
 L 30.8416,21.368 L 30.8287,21.2214 L 30.7898,21.0919 L 30.7251,20.9794 L 30.6344,20.884 L 30.5204,20.808
 L 30.3856,20.7538 L 30.23,20.7212 L 30.0535,20.7104 L 29.8902,20.721 L 29.7425,20.7531 L 29.6103,20.8065
 L 29.4937,20.8814 L 29.3962,20.9753 L 29.3216,21.0859 L 29.2697,21.2133 L 29.2407,21.3574 L 29.5598,21.3821
 L 29.5772,21.2898 L 29.6081,21.2084 L 29.6525,21.1381 L 29.7106,21.0789 L 29.7804,21.0318 L 29.8602,20.9982
 L 29.9501,20.978 L 30.05,20.9713 L 30.1583,20.9785 L 30.2525,21.0002 L 30.3324,21.0363 L 30.3981,21.0868
 L 30.4494,21.1498 L 30.4861,21.2232 L 30.5081,21.3071 L 30.5154,21.4015 L 30.5064,21.4966 L 30.4795,21.5807
 L 30.4346,21.6539 L 30.3717,21.7162 L 30.2925,21.766 L 30.1987,21.8015 L 30.0902,21.8228 L 29.9671,21.8299
 L 29.7943,21.8299 L 29.7943,22.105 L 29.9742,22.105 L 30.1127,22.1121 L 30.234,22.1334 L 30.338,22.169
 L 30.4246,22.2187 L 30.4929,22.2811 L 30.5416,22.3547 L 30.5709,22.4394 L 30.5806,22.5352 L 30.5721,22.6444
 L 30.5465,22.7393 L 30.5038,22.8198 L 30.444,22.886 L 30.3692,22.9377 L 30.2816,22.9746 L 30.181,22.9968
 L 30.0676,23.0042 L 29.8546,22.9766 L 29.6934,22.894 L 29.584,22.7562 L 29.5263,22.5634 L 29.1984,22.5934
 L 29.2309,22.7498 L 29.2863,22.8858 L 29.3645,23.0015 L 29.4655,23.0967 L 29.5874,23.1712 L 29.7284,23.2243
 L 29.8885,23.2562 L 30.0676,23.2669 z
M 13.0533,23.2551 L 13.2211,23.2197 L 13.3654,23.1608 L 13.4864,23.0782 L 13.582,22.9742 L 13.6504,22.8508
 L 13.6914,22.708 L 13.705,22.5458 L 13.6953,22.4318 L 13.6662,22.328 L 13.6177,22.2344 L 13.5499,22.1508
 L 13.4646,22.0803 L 13.3639,22.0257 L 13.2477,21.9869 L 13.1161,21.9639 L 13.1161,21.9569 L 13.2355,21.9244
 L 13.3398,21.88 L 13.429,21.8235 L 13.5032,21.755 L 13.5614,21.675 L 13.603,21.5838 L 13.628,21.4814
 L 13.6363,21.368 L 13.6233,21.2214 L 13.5845,21.0919 L 13.5197,20.9794 L 13.4291,20.884 L 13.3151,20.808
 L 13.1803,20.7538 L 13.0246,20.7212 L 12.8481,20.7104 L 12.6849,20.721 L 12.5372,20.7531 L 12.405,20.8065
 L 12.2884,20.8814 L 12.1909,20.9753 L 12.1162,21.0859 L 12.0644,21.2133 L 12.0354,21.3574 L 12.3545,21.3821
 L 12.3718,21.2898 L 12.4027,21.2084 L 12.4472,21.1381 L 12.5052,21.0789 L 12.575,21.0318 L 12.6549,20.9982
 L 12.7447,20.978 L 12.8446,20.9713 L 12.953,20.9785 L 13.0471,21.0002 L 13.1271,21.0363 L 13.1928,21.0868
 L 13.2441,21.1498 L 13.2808,21.2232 L 13.3027,21.3071 L 13.3101,21.4015 L 13.3011,21.4966 L 13.2742,21.5807
 L 13.2292,21.6539 L 13.1664,21.7162 L 13.0872,21.766 L 12.9934,21.8015 L 12.8849,21.8228 L 12.7618,21.8299
 L 12.589,21.8299 L 12.589,22.105 L 12.7688,22.105 L 12.9074,22.1121 L 13.0287,22.1334 L 13.1326,22.169
 L 13.2193,22.2187 L 13.2876,22.2811 L 13.3363,22.3547 L 13.3656,22.4394 L 13.3753,22.5352 L 13.3668,22.6444
 L 13.3412,22.7393 L 13.2984,22.8198 L 13.2387,22.886 L 13.1639,22.9377 L 13.0762,22.9746 L 12.9757,22.9968
 L 12.8623,23.0042 L 12.6492,22.9766 L 12.488,22.894 L 12.3786,22.7562 L 12.321,22.5634 L 11.993,22.5934
 L 12.0256,22.7498 L 12.081,22.8858 L 12.1591,23.0015 L 12.2601,23.0967 L 12.3821,23.1712 L 12.5231,23.2243
 L 12.6831,23.2562 L 12.8623,23.2669 z
M 15.0417,23.2527 L 15.1991,23.21 L 15.3361,23.1389 L 15.4529,23.0394 L 15.5463,22.9154 L 15.6129,22.7706
 L 15.6529,22.605 L 15.6663,22.4188 L 15.6537,22.2465 L 15.6158,22.0926 L 15.5527,21.9573 L 15.4644,21.8405
 L 15.3546,21.7464 L 15.227,21.6792 L 15.0817,21.6389 L 14.9187,21.6254 L 14.8202,21.6307 L 14.7274,21.6464
 L 14.6404,21.6725 L 14.559,21.7092 L 14.485,21.7558 L 14.4198,21.8121 L 14.3633,21.8779 L 14.3157,21.9534
 L 14.325,21.7277 L 14.353,21.5304 L 14.3995,21.3615 L 14.4647,21.2208 L 14.5469,21.1101 L 14.6443,21.031
 L 14.7571,20.9836 L 14.8852,20.9678 L 15.0291,20.9867 L 15.1453,21.0436 L 15.2337,21.1384 L 15.2943,21.271
 L 15.5975,21.2164 L 15.4983,20.995 L 15.3472,20.8369 L 15.144,20.742 L 14.8887,20.7104 L 14.6876,20.7319
 L 14.511,20.7968 L 14.3588,20.9048 L 14.2311,21.0559 L 14.1301,21.2475 L 14.0579,21.4764 L 14.0146,21.7429
 L 14.0001,22.0468 L 14.014,22.327 L 14.0557,22.5718 L 14.1251,22.781 L 14.2223,22.9548 L 14.3457,23.0913
 L 14.4938,23.1889 L 14.6666,23.2474 L 14.8641,23.2669 z
M 14.7474,22.9997 L 14.6514,22.9654 L 14.5654,22.9081 L 14.4894,22.8279 L 14.4273,22.7297 L 14.3829,22.6185
 L 14.3563,22.4943 L 14.3475,22.3571 L 14.356,22.2495 L 14.3816,22.1541 L 14.4243,22.071 L 14.4841,22.0001
 L 14.5578,21.9434 L 14.6421,21.9029 L 14.7372,21.8786 L 14.8429,21.8705 L 14.9545,21.8796 L 15.0532,21.9071
 L 15.1388,21.9528 L 15.2114,22.0168 L 15.2693,22.0977 L 15.3106,22.194 L 15.3354,22.3058 L 15.3436,22.4329
 L 15.3355,22.5606 L 15.311,22.6738 L 15.2702,22.7726 L 15.2131,22.8569 L 15.1417,22.9244 L 15.058,22.9726
 L 14.9619,23.0016 L 14.8535,23.0112 z
M 23.9388,23.2527 L 24.0962,23.21 L 24.2332,23.1389 L 24.3501,23.0394 L 24.4434,22.9154 L 24.5101,22.7706
 L 24.55,22.605 L 24.5634,22.4188 L 24.5508,22.2465 L 24.5129,22.0926 L 24.4498,21.9573 L 24.3615,21.8405
 L 24.2517,21.7464 L 24.1241,21.6792 L 23.9789,21.6389 L 23.8158,21.6254 L 23.7173,21.6307 L 23.6245,21.6464
 L 23.5375,21.6725 L 23.4561,21.7092 L 23.3821,21.7558 L 23.3169,21.8121 L 23.2605,21.8779 L 23.2128,21.9534
 L 23.2222,21.7277 L 23.2501,21.5304 L 23.2966,21.3615 L 23.3618,21.2208 L 23.444,21.1101 L 23.5414,21.031
 L 23.6542,20.9836 L 23.7823,20.9678 L 23.9262,20.9867 L 24.0424,21.0436 L 24.1308,21.1384 L 24.1914,21.271
 L 24.4946,21.2164 L 24.3955,20.995 L 24.2443,20.8369 L 24.0411,20.742 L 23.7859,20.7104 L 23.5847,20.7319
 L 23.4081,20.7968 L 23.2559,20.9048 L 23.1282,21.0559 L 23.0272,21.2475 L 22.955,21.4764 L 22.9117,21.7429
 L 22.8972,22.0468 L 22.9111,22.327 L 22.9528,22.5718 L 23.0222,22.781 L 23.1194,22.9548 L 23.2428,23.0913
 L 23.3909,23.1889 L 23.5637,23.2474 L 23.7612,23.2669 z
M 23.6445,22.9997 L 23.5485,22.9654 L 23.4625,22.9081 L 23.3865,22.8279 L 23.3244,22.7297 L 23.2801,22.6185
 L 23.2534,22.4943 L 23.2446,22.3571 L 23.2531,22.2495 L 23.2787,22.1541 L 23.3214,22.071 L 23.3812,22.0001
 L 23.4549,21.9434 L 23.5392,21.9029 L 23.6343,21.8786 L 23.74,21.8705 L 23.8516,21.8796 L 23.9503,21.9071
 L 24.0359,21.9528 L 24.1085,22.0168 L 24.1664,22.0977 L 24.2077,22.194 L 24.2325,22.3058 L 24.2408,22.4329
 L 24.2326,22.5606 L 24.2081,22.6738 L 24.1673,22.7726 L 24.1103,22.8569 L 24.0388,22.9244 L 23.9551,22.9726
 L 23.859,23.0016 L 23.7506,23.0112 z
M 16.9064,20.7474 L 16.582,20.7474 L 16.6173,21.5284 L 16.8676,21.5284 z
M 16.2558,20.7474 L 15.9314,20.7474 L 15.9684,21.5284 L 16.217,21.5284 z
M -1.83713,23.222 L -1.67316,23.1933 L -1.51976,23.1453 L -1.37695,23.0782 L -1.24725,22.9931 L -1.13319,22.8911
 L -1.03479,22.7723 L -0.952026,22.6366 L -0.886459,22.4864 L -0.83963,22.3243 L -0.811539,22.1501 L -0.80217,21.9639
 L -0.823608,21.6888 L -0.887909,21.4471 L -0.995071,21.2388 L -1.14511,21.0639 L -1.33458,20.9254 L -1.56009,20.8265
 L -1.82164,20.7672 L -2.11922,20.7474 L -2.94083,20.7474 L -2.94083,23.2316 L -2.01166,23.2316 z
M -2.60406,22.9619 L -2.60406,21.0171 L -2.12627,21.0171 L -1.90065,21.0323 L -1.70334,21.0777 L -1.53436,21.1535
 L -1.39369,21.2596 L -1.283,21.3945 L -1.20393,21.5569 L -1.15649,21.7467 L -1.14069,21.9639 L -1.14763,22.1123
 L -1.16846,22.2504 L -1.20317,22.3785 L -1.25175,22.4964 L -1.31331,22.6026 L -1.38686,22.6956 L -1.47243,22.7754
 L -1.56999,22.842 L -1.67772,22.8944 L -1.7937,22.9319 L -1.91794,22.9544 L -2.05046,22.9619 z
M 25.1529,20.7474 L 24.8285,20.7474 L 24.8655,21.5284 L 25.1141,21.5284 z
M 22.3059,22.6692 L 22.655,22.6692 L 22.655,22.4188 L 22.3059,22.4188 L 22.3059,20.7474 L 21.9727,20.7474
 L 20.8355,22.4223 L 20.8355,22.6692 L 22.0062,22.6692 L 22.0062,23.2316 L 22.3059,23.2316 z
M 21.1282,22.4188 L 21.1564,22.3835 L 21.2516,22.2531 L 21.8881,21.3151 L 21.901,21.2953 L 21.9167,21.2693
 L 21.9353,21.2371 L 21.9568,21.1987 L 21.9771,21.1618 L 21.9921,21.1339 L 22.0018,21.1151 L 22.0062,21.1053
 L 22.0062,22.4188 z
M 25.8035,20.7474 L 25.4791,20.7474 L 25.5144,21.5284 L 25.7647,21.5284 z
M 33.5552,22.6692 L 33.9043,22.6692 L 33.9043,22.4188 L 33.5552,22.4188 L 33.5552,20.7474 L 33.2219,20.7474
 L 32.0847,22.4223 L 32.0847,22.6692 L 33.2555,22.6692 L 33.2555,23.2316 L 33.5552,23.2316 z
M 32.3774,22.4188 L 32.4056,22.3835 L 32.5008,22.2531 L 33.1373,21.3151 L 33.1502,21.2953 L 33.166,21.2693
 L 33.1846,21.2371 L 33.2061,21.1987 L 33.2263,21.1618 L 33.2413,21.1339 L 33.251,21.1151 L 33.2555,21.1053
 L 33.2555,22.4188 z
M 35.0915,20.7474 L 34.7671,20.7474 L 34.8024,21.5284 L 35.0527,21.5284 z
M 34.4409,20.7474 L 34.1165,20.7474 L 34.1535,21.5284 L 34.4021,21.5284 z
M 3.10107,22.9619 L 2.49634,22.9619 L 2.49634,20.7474 L 2.20366,20.7474 L 1.61653,21.1511 L 1.61653,21.4509
 L 2.1772,21.0506 L 2.1772,22.9619 L 1.54425,22.9619 L 1.54425,23.2316 L 3.10107,23.2316 z
M 6.71089,23.2572 L 6.79156,23.2492 L 6.87134,23.236 L 6.95024,23.2175 L 6.95024,22.983 L 6.89381,22.9938
 L 6.84445,23.0015 L 6.80214,23.0061 L 6.76689,23.0077 L 6.71547,23.0042 L 6.67232,22.9938 L 6.63744,22.9765
 L 6.61084,22.9522 L 6.59117,22.9193 L 6.57712,22.8761 L 6.5687,22.8227 L 6.56587,22.7591 L 6.56587,21.5549
 L 6.91852,21.5549 L 6.91852,21.3239 L 6.56587,21.3239 L 6.56587,20.8972 L 6.35431,20.8972 L 6.26085,21.3239
 L 6.02812,21.3239 L 6.02812,21.5549 L 6.24852,21.5549 L 6.24852,22.8279 L 6.27232,23.0168 L 6.34373,23.1518
 L 6.46274,23.2328 L 6.62935,23.2598 z
M 8.14676,23.2515 L 8.31921,23.2056 L 8.46677,23.129 L 8.58942,23.0218 L 8.68585,22.8833 L 8.75473,22.7128
 L 8.79605,22.5104 L 8.80983,22.276 L 8.79694,22.0396 L 8.75824,21.8363 L 8.69377,21.6662 L 8.60352,21.5293
 L 8.48593,21.424 L 8.33949,21.3488 L 8.16417,21.3037 L 7.95999,21.2887 L 7.58588,21.3504 L 7.31865,21.5355
 L 7.15833,21.8441 L 7.10487,22.276 L 7.11821,22.5025 L 7.1582,22.7007 L 7.22487,22.8705 L 7.31821,23.0121
 L 7.43767,23.1236 L 7.58269,23.2032 L 7.75327,23.2509 L 7.9494,23.2669 z
M 7.82327,23.0205 L 7.7182,22.985 L 7.63066,22.9258 L 7.56062,22.8428 L 7.50702,22.7363 L 7.46872,22.6064
 L 7.44576,22.4529 L 7.4381,22.276 L 7.44586,22.0949 L 7.46916,21.9395 L 7.50801,21.8097 L 7.56239,21.7057
 L 7.63419,21.6258 L 7.72527,21.5688 L 7.83563,21.5346 L 7.96527,21.5232 L 8.0937,21.5343 L 8.20219,21.5679
 L 8.29073,21.6238 L 8.35933,21.7021 L 8.41063,21.8051 L 8.44727,21.9351 L 8.46925,22.0921 L 8.47658,22.276
 L 8.46892,22.4579 L 8.44595,22.6141 L 8.40765,22.7444 L 8.35405,22.849 L 8.28258,22.9292 L 8.19073,22.9865
 L 8.07849,23.0209 L 7.94588,23.0324 z
M 36.7554,23.2351 L 36.7549,23.1093 L 36.7536,23.0174 L 36.7514,22.9594 L 36.7483,22.9354 L 36.7572,22.9354
 L 36.851,23.0804 L 36.9811,23.184 L 37.1472,23.2462 L 37.3496,23.2669 L 37.6566,23.2045 L 37.8759,23.0174
 L 38.0074,22.7055 L 38.0513,22.269 L 38.0404,22.0328 L 38.0077,21.8304 L 37.9531,21.6617 L 37.8767,21.5267
 L 37.7783,21.4233 L 37.6577,21.3495 L 37.5148,21.3052 L 37.3496,21.2904 L 37.2413,21.2955 L 37.1441,21.3109
 L 37.058,21.3365 L 36.9828,21.3724 L 36.9166,21.4193 L 36.8572,21.478 L 36.8047,21.5484 L 36.7589,21.6307
 L 36.7519,21.6307 L 36.7516,21.6104 L 36.7508,21.5831 L 36.7494,21.5487 L 36.7475,21.5073 L 36.7453,21.4653
 L 36.7433,21.4291 L 36.7413,21.3987 L 36.7395,21.3742 L 36.7379,21.3548 L 36.7364,21.34 L 36.7352,21.3297
 L 36.7343,21.3239 L 36.4274,21.3239 L 36.4321,21.384 L 36.4354,21.4689 L 36.4374,21.5788 L 36.438,21.7136
 L 36.438,23.9809 L 36.7554,23.9809 z
M 37.1394,23.0212 L 37.0326,22.9879 L 36.9446,22.9322 L 36.8753,22.8543 L 36.8228,22.7529 L 36.7854,22.6269
 L 36.7629,22.4761 L 36.7554,22.3007 L 36.7589,22.1721 L 36.7693,22.0563 L 36.7866,21.9531 L 36.8109,21.8626
 L 36.8419,21.7839 L 36.8793,21.7164 L 36.923,21.6601 L 36.9731,21.6148 L 37.0316,21.5801 L 37.1003,21.5553
 L 37.1793,21.5405 L 37.2685,21.5355 L 37.3778,21.5462 L 37.4712,21.5782 L 37.5488,21.6317 L 37.6105,21.7065
 L 37.6576,21.8062 L 37.6912,21.9344 L 37.7113,22.091 L 37.7181,22.276 L 37.7113,22.4658 L 37.6909,22.6262
 L 37.6571,22.7572 L 37.6096,22.8587 L 37.5474,22.9347 L 37.4692,22.989 L 37.3751,23.0215 L 37.2649,23.0324
 z
M 9.47516,23.2351 L 9.47472,23.1093 L 9.47339,23.0174 L 9.47119,22.9594 L 9.46811,22.9354 L 9.47693,22.9354
 L 9.57082,23.0804 L 9.70084,23.184 L 9.86702,23.2462 L 10.0693,23.2669 L 10.3763,23.2045 L 10.5956,23.0174
 L 10.7272,22.7055 L 10.7711,22.269 L 10.7602,22.0328 L 10.7274,21.8304 L 10.6729,21.6617 L 10.5965,21.5267
 L 10.4981,21.4233 L 10.3774,21.3495 L 10.2345,21.3052 L 10.0693,21.2904 L 9.96112,21.2955 L 9.86392,21.3109
 L 9.77776,21.3365 L 9.70261,21.3724 L 9.63638,21.4193 L 9.57698,21.478 L 9.52441,21.5484 L 9.47868,21.6307
 L 9.47165,21.6307 L 9.47137,21.6104 L 9.47054,21.5831 L 9.46916,21.5487 L 9.46722,21.5073 L 9.46509,21.4653
 L 9.46304,21.4291 L 9.46112,21.3987 L 9.45929,21.3742 L 9.45764,21.3548 L 9.45621,21.34 L 9.455,21.3297
 L 9.45401,21.3239 L 9.14722,21.3239 L 9.15184,21.384 L 9.15515,21.4689 L 9.15714,21.5788 L 9.15779,21.7136
 L 9.15779,23.9809 L 9.47516,23.9809 z
M 9.85919,23.0212 L 9.75241,22.9879 L 9.66437,22.9322 L 9.59505,22.8543 L 9.54259,22.7529 L 9.50513,22.6269
 L 9.48265,22.4761 L 9.47516,22.3007 L 9.47862,22.1721 L 9.48904,22.0563 L 9.50639,21.9531 L 9.53069,21.8626
 L 9.56166,21.7839 L 9.59903,21.7164 L 9.64278,21.6601 L 9.6929,21.6148 L 9.75137,21.5801 L 9.82008,21.5553
 L 9.89903,21.5405 L 9.98824,21.5355 L 10.0975,21.5462 L 10.191,21.5782 L 10.2686,21.6317 L 10.3303,21.7065
 L 10.3773,21.8062 L 10.4109,21.9344 L 10.4311,22.091 L 10.4378,22.276 L 10.431,22.4658 L 10.4107,22.6262
 L 10.3768,22.7572 L 10.3294,22.8587 L 10.2672,22.9347 L 10.189,22.989 L 10.0948,23.0215 L 9.9847,23.0324
 z
M 18.9088,22.4488 L 19.4219,23.2316 L 19.7762,23.2316 L 19.0886,22.2478 L 19.7357,21.3239 L 19.3813,21.3239
 L 18.9088,22.0662 L 18.4328,21.3239 L 18.0819,21.3239 L 18.729,22.2513 L 18.0502,23.2316 L 18.3922,23.2316
 z
M 39.3526,23.9764 L 39.425,23.9626 L 39.4932,23.9398 L 39.5574,23.9078 L 39.6182,23.8664 L 39.6762,23.8156
 L 39.7315,23.7554 L 39.784,23.6856 L 39.8361,23.6014 L 39.8902,23.4976 L 39.9463,23.3744 L 40.0044,23.2316
 L 40.7378,21.3239 L 40.4028,21.3239 L 39.985,22.5387 L 39.8616,22.886 L 39.8551,22.8638 L 39.8409,22.8199
 L 39.8189,22.7545 L 39.7893,22.6674 L 39.7592,22.5796 L 39.7359,22.512 L 39.7195,22.4646 L 39.7099,22.4373
 L 39.6888,22.3783 L 39.2868,21.3239 L 38.9483,21.3239 L 39.7047,23.2228 L 39.6747,23.2986 L 39.5806,23.4891
 L 39.471,23.6252 L 39.3461,23.7069 L 39.2057,23.7341 L 39.166,23.7334 L 39.1281,23.7315 L 39.0919,23.7282
 L 39.0576,23.7235 L 39.0576,23.9615 L 39.1043,23.97 L 39.1563,23.9761 L 39.2136,23.9797 L 39.2762,23.9809
 z
M 4.12962,22.4488 L 4.64272,23.2316 L 4.99709,23.2316 L 4.30946,22.2478 L 4.95653,21.3239 L 4.60216,21.3239
 L 4.12962,22.0662 L 3.65359,21.3239 L 3.30272,21.3239 L 3.94981,22.2513 L 3.271,23.2316 L 3.61304,23.2316
 z
M 36.3707,26.1724 L 36.1022,26.1724 L 36.1022,28.3863 L 36.3707,28.3863 z
M 35.7063,26.1724 L 35.4377,26.1724 L 35.4377,26.429 L 35.7063,26.429 z
M 28.9125,27.4345 L 28.9196,27.329 L 28.941,27.235 L 28.9767,27.1523 L 29.0266,27.0809 L 29.0884,27.0235
 L 29.1596,26.9825 L 29.2402,26.9579 L 29.3302,26.9496 L 29.3902,26.9521 L 29.4432,26.9593 L 29.4894,26.9715
 L 29.5286,26.9884 L 29.5619,27.0106 L 29.5901,27.0382 L 29.6134,27.0714 L 29.6315,27.11 L 29.6452,27.1569
 L 29.655,27.2146 L 29.6609,27.2833 L 29.6629,27.3629 L 29.6629,28.3863 L 29.9329,28.3863 L 29.9329,27.3107
 L 29.9251,27.1681 L 29.9018,27.0475 L 29.8628,26.9491 L 29.8083,26.8728 L 29.7374,26.8157 L 29.6493,26.7749
 L 29.5439,26.7504 L 29.4212,26.7423 L 29.332,26.7469 L 29.2509,26.7607 L 29.178,26.7838 L 29.1131,26.8161
 L 29.0545,26.8583 L 29.0003,26.911 L 28.9505,26.9743 L 28.905,27.0481 L 28.9005,27.0481 L 28.9015,27.0355
 L 28.903,27.0127 L 28.9049,26.9796 L 28.9072,26.9362 L 28.9095,26.8881 L 28.9112,26.8407 L 28.9122,26.7941
 L 28.9125,26.7482 L 28.9125,26.1724 L 28.6439,26.1724 L 28.6439,28.3863 L 28.9125,28.3863 z
M 8.32196,26.1724 L 8.08624,26.1724 L 7.47308,28.4161 L 7.71478,28.4161 z
M 22.4359,26.1724 L 22.1674,26.1724 L 22.1674,26.429 L 22.4359,26.429 z
M 10.3659,26.2843 L 10.0914,26.2843 L 10.1228,26.9452 L 10.3331,26.9452 z
M 10.9164,26.2843 L 10.642,26.2843 L 10.6718,26.9452 L 10.8836,26.9452 z
M 9.61647,27.9104 L 9.91187,27.9104 L 9.91187,27.6985 L 9.61647,27.6985 L 9.61647,26.2843 L 9.3345,26.2843
 L 8.37224,27.7015 L 8.37224,27.9104 L 9.36285,27.9104 L 9.36285,28.3863 L 9.61647,28.3863 z
M 8.61989,27.6985 L 8.64377,27.6687 L 8.72432,27.5583 L 9.26289,26.7646 L 9.2738,26.7479 L 9.28714,26.7258
 L 9.3029,26.6986 L 9.32108,26.6662 L 9.33823,26.6349 L 9.35092,26.6114 L 9.35912,26.5954 L 9.36285,26.5871
 L 9.36285,27.6985 z
M 7.36362,28.1581 L 6.85193,28.1581 L 6.85193,26.2843 L 6.60426,26.2843 L 6.10747,26.6259 L 6.10747,26.8795
 L 6.58188,26.5409 L 6.58188,28.1581 L 6.04631,28.1581 L 6.04631,28.3863 L 7.36362,28.3863 z
M 4.71043,28.1581 L 4.19873,28.1581 L 4.19873,26.2843 L 3.95108,26.2843 L 3.45427,26.6259 L 3.45427,26.8795
 L 3.92868,26.5409 L 3.92868,28.1581 L 3.39311,28.1581 L 3.39311,28.3863 L 4.71043,28.3863 z
M 28.227,28.4079 L 28.2953,28.4012 L 28.3628,28.39 L 28.4296,28.3743 L 28.4296,28.1759 L 28.3818,28.1851
 L 28.34,28.1916 L 28.3042,28.1955 L 28.2744,28.1968 L 28.2309,28.1939 L 28.1944,28.1851 L 28.1649,28.1704
 L 28.1424,28.1498 L 28.1257,28.122 L 28.1138,28.0855 L 28.1067,28.0403 L 28.1043,27.9865 L 28.1043,26.9675
 L 28.4027,26.9675 L 28.4027,26.7721 L 28.1043,26.7721 L 28.1043,26.4111 L 27.9253,26.4111 L 27.8462,26.7721
 L 27.6493,26.7721 L 27.6493,26.9675 L 27.8358,26.9675 L 27.8358,28.0447 L 27.8559,28.2046 L 27.9164,28.3188
 L 28.017,28.3873 L 28.158,28.4102 z
M 24.9094,28.4079 L 24.9777,28.4012 L 25.0452,28.39 L 25.112,28.3743 L 25.112,28.1759 L 25.0642,28.1851
 L 25.0224,28.1916 L 24.9866,28.1955 L 24.9568,28.1968 L 24.9133,28.1939 L 24.8768,28.1851 L 24.8473,28.1704
 L 24.8248,28.1498 L 24.8081,28.122 L 24.7962,28.0855 L 24.7891,28.0403 L 24.7867,27.9865 L 24.7867,26.9675
 L 25.0851,26.9675 L 25.0851,26.7721 L 24.7867,26.7721 L 24.7867,26.4111 L 24.6077,26.4111 L 24.5286,26.7721
 L 24.3317,26.7721 L 24.3317,26.9675 L 24.5182,26.9675 L 24.5182,28.0447 L 24.5383,28.2046 L 24.5988,28.3188
 L 24.6994,28.3873 L 24.8404,28.4102 z
M 1.5898,27.4792 L 2.22237,27.4792 L 2.22237,27.2614 L 1.5898,27.2614 L 1.5898,26.6229 L 1.37051,26.6229
 L 1.37051,27.2614 L 0.737946,27.2614 L 0.737946,27.4792 L 1.37051,27.4792 L 1.37051,28.1178 L 1.5898,28.1178
 z
M 15.3143,27.5449 L 15.3198,27.4184 L 15.3363,27.3075 L 15.3638,27.2122 L 15.4023,27.1324 L 15.4513,27.0694
 L 15.5101,27.0244 L 15.5788,26.9974 L 15.6574,26.9884 L 15.6999,26.9894 L 15.738,26.9922 L 15.7715,26.9968
 L 15.8006,27.0033 L 15.8006,26.7572 L 15.7731,26.7507 L 15.7458,26.746 L 15.7187,26.7432 L 15.6917,26.7423
 L 15.6199,26.747 L 15.5567,26.7613 L 15.502,26.7851 L 15.456,26.8183 L 15.4154,26.8646 L 15.3773,26.9272
 L 15.3416,27.0063 L 15.3083,27.1018 L 15.3023,27.1018 L 15.3016,27.0605 L 15.2994,26.9918 L 15.2956,26.8956
 L 15.2904,26.7721 L 15.0368,26.7721 L 15.0407,26.8728 L 15.0435,26.969 L 15.0452,27.0608 L 15.0457,27.1481
 L 15.0457,28.3863 L 15.3143,28.3863 z
M 14.2896,28.4075 L 14.4011,28.3814 L 14.5015,28.3381 L 14.5906,28.2774 L 14.6657,28.2021 L 14.7238,28.1151
 L 14.7649,28.0164 L 14.789,27.9059 L 14.5175,27.888 L 14.5017,27.9633 L 14.4767,28.0282 L 14.4424,28.0827
 L 14.3989,28.1267 L 14.3478,28.1607 L 14.2909,28.1849 L 14.2281,28.1994 L 14.1595,28.2043 L 14.0637,28.1946
 L 13.9808,28.1655 L 13.9108,28.117 L 13.8536,28.0491 L 13.8092,27.9611 L 13.7775,27.8522 L 13.7585,27.7224
 L 13.7522,27.5717 L 13.7581,27.416 L 13.776,27.2846 L 13.8059,27.1773 L 13.8476,27.0944 L 13.9028,27.0323
 L 13.9726,26.9881 L 14.0572,26.9615 L 14.1565,26.9526 L 14.2303,26.9576 L 14.2952,26.9724 L 14.3512,26.9971
 L 14.3981,27.0317 L 14.4367,27.0747 L 14.4672,27.1246 L 14.4896,27.1813 L 14.5041,27.245 L 14.7801,27.2241
 L 14.7516,27.1176 L 14.7079,27.0231 L 14.649,26.9408 L 14.5749,26.8706 L 14.488,26.8144 L 14.3905,26.7744
 L 14.2825,26.7503 L 14.1639,26.7423 L 14.0065,26.7557 L 13.8685,26.7958 L 13.7499,26.8627 L 13.6507,26.9564
 L 13.5724,27.0755 L 13.5165,27.2187 L 13.4829,27.3861 L 13.4717,27.5777 L 13.4828,27.7706 L 13.5163,27.9389
 L 13.572,28.0827 L 13.65,28.202 L 13.7491,28.2957 L 13.8683,28.3626 L 14.0076,28.4028 L 14.1669,28.4161
 z
M 16.9234,28.3923 L 17.1109,28.3206 L 17.2524,28.2013 L 17.3478,28.0342 L 17.1121,27.9671 L 17.0892,28.0185
 L 17.0578,28.0652 L 17.0179,28.1072 L 16.9696,28.1446 L 16.9127,28.1753 L 16.8471,28.1972 L 16.7728,28.2104
 L 16.6899,28.2147 L 16.5861,28.2053 L 16.4955,28.1771 L 16.4182,28.13 L 16.3542,28.0641 L 16.3039,27.9808
 L 16.268,27.8817 L 16.2465,27.7667 L 16.2393,27.6359 L 17.3911,27.6359 L 17.3911,27.6001 L 17.3466,27.2248
 L 17.2132,26.9567 L 16.9908,26.7959 L 16.6794,26.7423 L 16.5157,26.7556 L 16.3719,26.7956 L 16.2482,26.8623
 L 16.1446,26.9556 L 16.0627,27.0739 L 16.0042,27.2156 L 15.9691,27.3805 L 15.9574,27.5688 L 15.9691,27.7661
 L 16.0042,27.9376 L 16.0627,28.0832 L 16.1446,28.2028 L 16.2489,28.2961 L 16.3745,28.3628 L 16.5215,28.4028
 L 16.6899,28.4161 z
M 16.2423,27.43 L 16.2534,27.322 L 16.2776,27.2262 L 16.3149,27.1426 L 16.3654,27.0712 L 16.4275,27.0141
 L 16.4998,26.9733 L 16.5823,26.9489 L 16.675,26.9407 L 16.7698,26.948 L 16.8529,26.97 L 16.9242,27.0066
 L 16.9837,27.0578 L 17.0322,27.125 L 17.0699,27.2094 L 17.097,27.3111 L 17.1136,27.43 z
M 34.2855,28.4113 L 34.3722,28.3969 L 34.4515,28.3729 L 34.5234,28.3393 L 34.5896,28.2941 L 34.6515,28.2354
 L 34.7093,28.1632 L 34.7629,28.0775 L 34.7718,28.0775 L 34.78,28.1555 L 34.7955,28.2224 L 34.8184,28.2782
 L 34.8486,28.3229 L 34.8876,28.3572 L 34.9368,28.3816 L 34.9962,28.3963 L 35.0657,28.4012 L 35.1184,28.3997
 L 35.1705,28.3952 L 35.2221,28.3878 L 35.2731,28.3773 L 35.2731,28.2103 L 35.2491,28.2148 L 35.2265,28.2181
 L 35.2051,28.22 L 35.1851,28.2207 L 35.1446,28.2169 L 35.1112,28.2056 L 35.0849,28.1867 L 35.0657,28.1603
 L 35.052,28.1264 L 35.0422,28.0851 L 35.0363,28.0365 L 35.0344,27.9805 L 35.0344,27.2853 L 35.0248,27.1611
 L 34.996,27.0524 L 34.9479,26.9593 L 34.8807,26.8818 L 34.7945,26.8207 L 34.6894,26.7771 L 34.5655,26.751
 L 34.4227,26.7423 L 34.1652,26.7695 L 33.9714,26.8512 L 33.8414,26.9873 L 33.7753,27.1779 L 34.0557,27.2033
 L 34.068,27.1407 L 34.0885,27.0873 L 34.1172,27.043 L 34.1542,27.0078 L 34.2014,26.9811 L 34.2608,26.9619
 L 34.3326,26.9505 L 34.4167,26.9467 L 34.5003,26.952 L 34.5719,26.9679 L 34.6316,26.9945 L 34.6793,27.0317
 L 34.7159,27.0812 L 34.742,27.1447 L 34.7576,27.2222 L 34.7629,27.3137 L 34.7629,27.4017 L 34.4003,27.4076
 L 34.2295,27.4199 L 34.0839,27.4479 L 33.9635,27.4915 L 33.8685,27.5508 L 33.7964,27.6253 L 33.7448,27.7142
 L 33.7139,27.8177 L 33.7036,27.9358 L 33.7113,28.0417 L 33.7342,28.1357 L 33.7724,28.2177 L 33.826,28.2878
 L 33.8947,28.344 L 33.9785,28.384 L 34.0774,28.4081 L 34.1915,28.4161 z
M 34.1908,28.2103 L 34.1365,28.1968 L 34.0897,28.1745 L 34.0505,28.1431 L 34.0195,28.1036 L 33.9973,28.0566
 L 33.9841,28.0021 L 33.9796,27.9402 L 33.9829,27.8827 L 33.9927,27.8309 L 34.009,27.785 L 34.0318,27.7448
 L 34.0608,27.7099 L 34.0954,27.6799 L 34.1358,27.6547 L 34.1818,27.6344 L 34.2364,27.6185 L 34.3024,27.6068
 L 34.38,27.5991 L 34.469,27.5956 L 34.7629,27.5896 L 34.7629,27.7224 L 34.7587,27.7839 L 34.7463,27.8446
 L 34.7255,27.9044 L 34.6965,27.9633 L 34.6602,28.0188 L 34.618,28.068 L 34.5696,28.1109 L 34.5152,28.1476
 L 34.4557,28.177 L 34.3921,28.198 L 34.3244,28.2105 L 34.2526,28.2147 z
M 33.0605,27.5449 L 33.0661,27.4184 L 33.0826,27.3075 L 33.1101,27.2122 L 33.1486,27.1324 L 33.1975,27.0694
 L 33.2564,27.0244 L 33.3251,26.9974 L 33.4037,26.9884 L 33.4462,26.9894 L 33.4842,26.9922 L 33.5178,26.9968
 L 33.5469,27.0033 L 33.5469,26.7572 L 33.5194,26.7507 L 33.4921,26.746 L 33.4649,26.7432 L 33.438,26.7423
 L 33.3662,26.747 L 33.303,26.7613 L 33.2483,26.7851 L 33.2023,26.8183 L 33.1617,26.8646 L 33.1236,26.9272
 L 33.0879,27.0063 L 33.0546,27.1018 L 33.0486,27.1018 L 33.0479,27.0605 L 33.0456,26.9918 L 33.0419,26.8956
 L 33.0367,26.7721 L 32.7831,26.7721 L 32.787,26.8728 L 32.7898,26.969 L 32.7914,27.0608 L 32.792,27.1481
 L 32.792,28.3863 L 33.0605,28.3863 z
M 23.1063,27.4509 L 23.1133,27.3395 L 23.1343,27.2409 L 23.1693,27.1552 L 23.2182,27.0824 L 23.2793,27.0243
 L 23.3506,26.9828 L 23.4322,26.9579 L 23.524,26.9496 L 23.5864,26.9521 L 23.6408,26.9593 L 23.6871,26.9715
 L 23.7254,26.9884 L 23.7574,27.0109 L 23.7847,27.0395 L 23.8074,27.0743 L 23.8254,27.1152 L 23.8391,27.1637
 L 23.8489,27.2212 L 23.8548,27.2876 L 23.8567,27.3629 L 23.8567,28.3863 L 24.1268,28.3863 L 24.1268,27.3107
 L 24.1191,27.1693 L 24.096,27.0494 L 24.0575,26.9511 L 24.0037,26.8743 L 23.9332,26.8165 L 23.845,26.7753
 L 23.7389,26.7505 L 23.6151,26.7423 L 23.5285,26.7466 L 23.4493,26.7596 L 23.3774,26.7813 L 23.3129,26.8116
 L 23.254,26.8524 L 23.1986,26.9054 L 23.1469,26.9707 L 23.0989,27.0481 L 23.0944,27.0481 L 23.0929,26.9939
 L 23.0916,26.9491 L 23.0903,26.9137 L 23.0892,26.8877 L 23.0881,26.8671 L 23.0862,26.8294 L 23.0854,26.8124
 L 23.0847,26.7976 L 23.0839,26.7859 L 23.0832,26.7774 L 23.0825,26.7721 L 22.8288,26.7721 L 22.8327,26.8171
 L 22.8355,26.8896 L 22.8372,26.9895 L 22.8378,27.1167 L 22.8378,28.3863 L 23.1063,28.3863 z
M 31.1875,28.3923 L 31.375,28.3206 L 31.5164,28.2013 L 31.6118,28.0342 L 31.3761,27.9671 L 31.3532,28.0185
 L 31.3218,28.0652 L 31.282,28.1072 L 31.2336,28.1446 L 31.1767,28.1753 L 31.1111,28.1972 L 31.0368,28.2104
 L 30.9539,28.2147 L 30.8501,28.2053 L 30.7596,28.1771 L 30.6823,28.13 L 30.6182,28.0641 L 30.568,27.9808
 L 30.5321,27.8817 L 30.5105,27.7667 L 30.5034,27.6359 L 31.6551,27.6359 L 31.6551,27.6001 L 31.6106,27.2248
 L 31.4772,26.9567 L 31.2548,26.7959 L 30.9435,26.7423 L 30.7797,26.7556 L 30.636,26.7956 L 30.5123,26.8623
 L 30.4086,26.9556 L 30.3267,27.0739 L 30.2682,27.2156 L 30.2331,27.3805 L 30.2214,27.5688 L 30.2331,27.7661
 L 30.2682,27.9376 L 30.3267,28.0832 L 30.4086,28.2028 L 30.5129,28.2961 L 30.6386,28.3628 L 30.7856,28.4028
 L 30.9539,28.4161 z
M 30.5063,27.43 L 30.5174,27.322 L 30.5416,27.2262 L 30.5789,27.1426 L 30.6294,27.0712 L 30.6916,27.0141
 L 30.7639,26.9733 L 30.8464,26.9489 L 30.939,26.9407 L 31.0338,26.948 L 31.1169,26.97 L 31.1882,27.0066
 L 31.2478,27.0578 L 31.2962,27.125 L 31.334,27.2094 L 31.3611,27.3111 L 31.3776,27.43 z
M 26.1244,28.4032 L 26.2703,28.3643 L 26.3952,28.2995 L 26.4989,28.2088 L 26.5805,28.0916 L 26.6388,27.9473
 L 26.6738,27.776 L 26.6854,27.5777 L 26.6745,27.3777 L 26.6418,27.2057 L 26.5872,27.0618 L 26.5109,26.9459
 L 26.4114,26.8568 L 26.2875,26.7932 L 26.1391,26.755 L 25.9664,26.7423 L 25.6498,26.7945 L 25.4237,26.9511
 L 25.288,27.2122 L 25.2428,27.5777 L 25.2541,27.7694 L 25.2879,27.9371 L 25.3443,28.0808 L 25.4233,28.2005
 L 25.5244,28.2949 L 25.6471,28.3622 L 25.7914,28.4026 L 25.9574,28.4161 z
M 25.8507,28.2077 L 25.7618,28.1776 L 25.6877,28.1275 L 25.6284,28.0573 L 25.5831,27.9672 L 25.5507,27.8572
 L 25.5312,27.7274 L 25.5247,27.5777 L 25.5313,27.4245 L 25.551,27.293 L 25.5839,27.1832 L 25.6299,27.0951
 L 25.6907,27.0276 L 25.7677,26.9793 L 25.8611,26.9503 L 25.9708,26.9407 L 26.0795,26.9501 L 26.1713,26.9785
 L 26.2462,27.0259 L 26.3042,27.0921 L 26.3477,27.1793 L 26.3787,27.2892 L 26.3973,27.422 L 26.4035,27.5777
 L 26.397,27.7316 L 26.3775,27.8638 L 26.3452,27.9741 L 26.2998,28.0626 L 26.2393,28.1304 L 26.1616,28.1789
 L 26.0666,28.208 L 25.9544,28.2177 z
M 37.4681,28.4084 L 37.5974,28.3852 L 37.7094,28.3465 L 37.8042,28.2923 L 37.8796,28.2239 L 37.9334,28.1424
 L 37.9658,28.0478 L 37.9765,27.9402 L 37.9747,27.8952 L 37.9691,27.8528 L 37.9597,27.8128 L 37.9467,27.7754
 L 37.9302,27.7403 L 37.9107,27.7073 L 37.8881,27.6765 L 37.8624,27.6478 L 37.8327,27.6208 L 37.798,27.595
 L 37.7585,27.5705 L 37.714,27.5471 L 37.6595,27.5239 L 37.5901,27.4996 L 37.5058,27.4742 L 37.4066,27.4479
 L 37.3037,27.4218 L 37.2201,27.3987 L 37.156,27.3785 L 37.1112,27.3614 L 37.0783,27.3449 L 37.0497,27.3267
 L 37.0253,27.3069 L 37.0053,27.2853 L 36.9896,27.2614 L 36.9784,27.2346 L 36.9717,27.2048 L 36.9695,27.1719
 L 36.9749,27.1195 L 36.9911,27.0742 L 37.0182,27.036 L 37.056,27.0048 L 37.1053,26.9807 L 37.1664,26.9634
 L 37.2395,26.9531 L 37.3246,26.9496 L 37.4025,26.9532 L 37.4721,26.964 L 37.5334,26.982 L 37.5864,27.0071
 L 37.6306,27.0389 L 37.6653,27.077 L 37.6906,27.1214 L 37.7065,27.1719 L 37.9482,27.1421 L 37.9201,27.0455
 L 37.8775,26.9631 L 37.8205,26.8948 L 37.749,26.8407 L 37.6635,26.7996 L 37.5642,26.7702 L 37.4512,26.7526
 L 37.3246,26.7467 L 37.1829,26.754 L 37.0592,26.7757 L 36.9535,26.8118 L 36.8658,26.8624 L 36.797,26.9268
 L 36.7478,27.0043 L 36.7183,27.095 L 36.7084,27.1988 L 36.7119,27.2561 L 36.7222,27.3088 L 36.7395,27.3568
 L 36.7636,27.4002 L 36.7939,27.4397 L 36.8295,27.4761 L 36.8703,27.5094 L 36.9165,27.5397 L 36.9738,27.5685
 L 37.0477,27.5977 L 37.1382,27.6271 L 37.2455,27.6568 L 37.438,27.7075 L 37.506,27.7282 L 37.564,27.7515
 L 37.6119,27.7774 L 37.6498,27.806 L 37.6785,27.838 L 37.699,27.8746 L 37.7113,27.9156 L 37.7155,27.9611
 L 37.7095,28.0199 L 37.6918,28.0708 L 37.6622,28.1138 L 37.6207,28.1491 L 37.5665,28.1765 L 37.4986,28.1961
 L 37.4169,28.2078 L 37.3216,28.2117 L 37.2313,28.208 L 37.1515,28.1966 L 37.0821,28.1778 L 37.0232,28.1513
 L 36.9741,28.1168 L 36.9341,28.0736 L 36.9032,28.0217 L 36.8815,27.9611 L 36.6443,28.0074 L 36.676,28.1056
 L 36.722,28.1899 L 36.7823,28.2604 L 36.8569,28.3169 L 36.9472,28.3603 L 37.0547,28.3913 L 37.1795,28.4099
 L 37.3216,28.4161 z
M 20.5508,28.4084 L 20.6801,28.3852 L 20.7921,28.3465 L 20.8869,28.2923 L 20.9623,28.2239 L 21.0162,28.1424
 L 21.0485,28.0478 L 21.0592,27.9402 L 21.0574,27.8952 L 21.0518,27.8528 L 21.0425,27.8128 L 21.0294,27.7754
 L 21.0129,27.7403 L 20.9934,27.7073 L 20.9708,27.6765 L 20.9451,27.6478 L 20.9154,27.6208 L 20.8808,27.595
 L 20.8412,27.5705 L 20.7967,27.5471 L 20.7422,27.5239 L 20.6729,27.4996 L 20.5886,27.4742 L 20.4894,27.4479
 L 20.3864,27.4218 L 20.3029,27.3987 L 20.2387,27.3785 L 20.194,27.3614 L 20.161,27.3449 L 20.1324,27.3267
 L 20.1081,27.3069 L 20.088,27.2853 L 20.0724,27.2614 L 20.0612,27.2346 L 20.0545,27.2048 L 20.0522,27.1719
 L 20.0576,27.1195 L 20.0739,27.0742 L 20.1009,27.036 L 20.1387,27.0048 L 20.188,26.9807 L 20.2492,26.9634
 L 20.3223,26.9531 L 20.4073,26.9496 L 20.4852,26.9532 L 20.5548,26.964 L 20.6161,26.982 L 20.6691,27.0071
 L 20.7133,27.0389 L 20.748,27.077 L 20.7733,27.1214 L 20.7892,27.1719 L 21.0309,27.1421 L 21.0028,27.0455
 L 20.9602,26.9631 L 20.9032,26.8948 L 20.8317,26.8407 L 20.7462,26.7996 L 20.6469,26.7702 L 20.534,26.7526
 L 20.4073,26.7467 L 20.2656,26.754 L 20.1419,26.7757 L 20.0362,26.8118 L 19.9485,26.8624 L 19.8797,26.9268
 L 19.8305,27.0043 L 19.801,27.095 L 19.7912,27.1988 L 19.7946,27.2561 L 19.8049,27.3088 L 19.8222,27.3568
 L 19.8463,27.4002 L 19.8766,27.4397 L 19.9122,27.4761 L 19.9531,27.5094 L 19.9993,27.5397 L 20.0565,27.5685
 L 20.1304,27.5977 L 20.221,27.6271 L 20.3282,27.6568 L 20.5207,27.7075 L 20.5888,27.7282 L 20.6467,27.7515
 L 20.6947,27.7774 L 20.7325,27.806 L 20.7613,27.838 L 20.7818,27.8746 L 20.7941,27.9156 L 20.7982,27.9611
 L 20.7923,28.0199 L 20.7745,28.0708 L 20.7449,28.1138 L 20.7034,28.1491 L 20.6492,28.1765 L 20.5813,28.1961
 L 20.4997,28.2078 L 20.4043,28.2117 L 20.3141,28.208 L 20.2342,28.1966 L 20.1649,28.1778 L 20.1059,28.1513
 L 20.0568,28.1168 L 20.0168,28.0736 L 19.9859,28.0217 L 19.9642,27.9611 L 19.727,28.0074 L 19.7587,28.1056
 L 19.8048,28.1899 L 19.8651,28.2604 L 19.9396,28.3169 L 20.0299,28.3603 L 20.1375,28.3913 L 20.2623,28.4099
 L 20.4043,28.4161 z
M 12.7588,28.4084 L 12.8881,28.3852 L 13.0001,28.3465 L 13.0949,28.2923 L 13.1703,28.2239 L 13.2241,28.1424
 L 13.2564,28.0478 L 13.2672,27.9402 L 13.2654,27.8952 L 13.2598,27.8528 L 13.2504,27.8128 L 13.2374,27.7754
 L 13.2209,27.7403 L 13.2014,27.7073 L 13.1788,27.6765 L 13.1531,27.6478 L 13.1234,27.6208 L 13.0887,27.595
 L 13.0492,27.5705 L 13.0046,27.5471 L 12.9502,27.5239 L 12.8808,27.4996 L 12.7965,27.4742 L 12.6973,27.4479
 L 12.5944,27.4218 L 12.5108,27.3987 L 12.4467,27.3785 L 12.4019,27.3614 L 12.369,27.3449 L 12.3404,27.3267
 L 12.316,27.3069 L 12.296,27.2853 L 12.2803,27.2614 L 12.2691,27.2346 L 12.2624,27.2048 L 12.2602,27.1719
 L 12.2656,27.1195 L 12.2818,27.0742 L 12.3089,27.036 L 12.3467,27.0048 L 12.396,26.9807 L 12.4571,26.9634
 L 12.5302,26.9531 L 12.6153,26.9496 L 12.6932,26.9532 L 12.7628,26.964 L 12.8241,26.982 L 12.8771,27.0071
 L 12.9212,27.0389 L 12.956,27.077 L 12.9813,27.1214 L 12.9972,27.1719 L 13.2388,27.1421 L 13.2107,27.0455
 L 13.1682,26.9631 L 13.1112,26.8948 L 13.0397,26.8407 L 12.9541,26.7996 L 12.8549,26.7702 L 12.7419,26.7526
 L 12.6153,26.7467 L 12.4736,26.754 L 12.3499,26.7757 L 12.2442,26.8118 L 12.1565,26.8624 L 12.0876,26.9268
 L 12.0385,27.0043 L 12.0089,27.095 L 11.9991,27.1988 L 12.0026,27.2561 L 12.0129,27.3088 L 12.0302,27.3568
 L 12.0543,27.4002 L 12.0846,27.4397 L 12.1201,27.4761 L 12.161,27.5094 L 12.2072,27.5397 L 12.2644,27.5685
 L 12.3383,27.5977 L 12.4289,27.6271 L 12.5362,27.6568 L 12.7287,27.7075 L 12.7967,27.7282 L 12.8547,27.7515
 L 12.9026,27.7774 L 12.9405,27.806 L 12.9692,27.838 L 12.9897,27.8746 L 13.002,27.9156 L 13.0061,27.9611
 L 13.0002,28.0199 L 12.9825,28.0708 L 12.9529,28.1138 L 12.9114,28.1491 L 12.8572,28.1765 L 12.7893,28.1961
 L 12.7076,28.2078 L 12.6123,28.2117 L 12.522,28.208 L 12.4422,28.1966 L 12.3728,28.1778 L 12.3139,28.1513
 L 12.2648,28.1168 L 12.2248,28.0736 L 12.1939,28.0217 L 12.1722,27.9611 L 11.935,28.0074 L 11.9667,28.1056
 L 12.0127,28.1899 L 12.073,28.2604 L 12.1475,28.3169 L 12.2379,28.3603 L 12.3454,28.3913 L 12.4702,28.4099
 L 12.6123,28.4161 z
M 18.3675,27.9085 L 18.459,27.5492 L 18.5196,27.3084 L 18.5493,27.1861 L 18.5625,27.1268 L 18.5739,27.0748
 L 18.5834,27.0302 L 18.5911,26.9929 L 18.6448,27.245 L 18.9267,28.3863 L 19.2385,28.3863 L 19.701,26.7721
 L 19.4384,26.7721 L 19.1326,27.9566 L 19.0864,28.164 L 19.0178,27.8806 L 18.7358,26.7721 L 18.4478,26.7721
 L 18.1107,28.0536 L 18.0853,28.164 L 18.0612,28.0482 L 18.0424,27.9604 L 18.0291,27.9005 L 17.7482,26.7721
 L 17.4826,26.7721 L 17.9346,28.3863 L 18.245,28.3863 z
M 22.4359,26.7721 L 22.1674,26.7721 L 22.1674,28.3863 L 22.4359,28.3863 z
M 35.7063,26.7721 L 35.4377,26.7721 L 35.4377,28.3863 L 35.7063,28.3863 z
M 5.70158,27.4554 L 4.95566,27.4554 L 4.95566,27.6941 L 5.70158,27.6941 z
" stroke="black" fill="lightgray" stroke-width="0.5"/>
</svg>
