<?xml version="1.0" standalone="no"?>
<!DOCTYPE svg PUBLIC "-//W3C//DTD SVG 1.1//EN" "http://www.w3.org/Graphics/SVG/1.1/DTD/svg11.dtd">
<svg width="46mm" height="76mm" viewBox="0 -58 46 76" xmlns="http://www.w3.org/2000/svg" version="1.1">
<title>OpenSCAD Model</title>
<path d="
M 0,-58 L 0,-0 L 46,-0 L 46,-58 z
M 0.299988,-29.3125 L 0.299988,-57.7 L 45.7,-57.7 L 45.7,-29.3125 z
M 5.59999,-30.4125 L 5.18541,-30.9831 L 4.5146,-30.7652 L 4.5146,-30.0598 L 5.18541,-29.8419 z
M 4.79776,-30.2655 L 4.79776,-30.5594 L 5.07724,-30.6503 L 5.25,-30.4125 L 5.07724,-30.1747 z
M 41.6,-30.4125 L 41.1854,-30.9831 L 40.5146,-30.7652 L 40.5146,-30.0598 L 41.1854,-29.8419 z
M 40.7978,-30.2655 L 40.7978,-30.5594 L 41.0772,-30.6503 L 41.25,-30.4125 L 41.0772,-30.1747 z
M 0.299988,-0.299988 L 0.299988,-28.6875 L 45.7,-28.6875 L 45.7,-0.299988 z
M 17.5841,4.68858 L 17.3399,4.68858 L 17.3399,4.92186 L 17.5841,4.92186 z
M 27.1605,4.68858 L 26.9164,4.68858 L 26.9164,4.92186 L 27.1605,4.92186 z
M 26.5592,4.68858 L 26.3151,4.68858 L 26.3151,6.70125 L 26.5592,6.70125 z
M 39.0735,4.68858 L 38.8294,4.68858 L 38.8294,4.92186 L 39.0735,4.92186 z
M 23.762,6.49374 L 22.7652,6.49374 L 22.8188,6.39694 L 22.8981,6.2964 L 23.0062,6.18773 L 23.1463,6.06653
 L 23.384,5.86615 L 23.5301,5.72612 L 23.6181,5.61626 L 23.6813,5.50639 L 23.7195,5.39621 L 23.7322,5.28534
 L 23.6933,5.06308 L 23.5769,4.89812 L 23.3882,4.7959 L 23.1327,4.76181 L 22.8935,4.79573 L 22.7021,4.89746
 L 22.5697,5.05647 L 22.5075,5.26228 L 22.757,5.28534 L 22.7955,5.1492 L 22.8757,5.04732 L 22.9905,4.98373
 L 23.1327,4.96254 L 23.2788,4.98424 L 23.389,5.04933 L 23.4582,5.15378 L 23.4813,5.29347 L 23.4679,5.40401
 L 23.4277,5.50233 L 23.3658,5.59253 L 23.2873,5.67867 L 23.1953,5.76274 L 23.0927,5.84682 L 22.9844,5.93446
 L 22.875,6.02922 L 22.7677,6.13332 L 22.6655,6.24895 L 22.5734,6.37965 L 22.4967,6.52901 L 22.4967,6.70125
 L 23.762,6.70125 z
M 5.18704,6.66582 L 5.40913,6.55952 L 5.54848,6.38947 L 5.59492,6.1628 L 5.56407,5.98804 L 5.47151,5.84616
 L 5.32198,5.74529 L 5.12025,5.69356 L 5.27419,5.63525 L 5.38879,5.53896 L 5.45999,5.41011 L 5.48373,5.25414
 L 5.31555,4.90625 L 4.81102,4.7903 L 4.11662,4.7903 L 4.11662,6.70125 L 4.8924,6.70125 z
M 4.37567,5.60269 L 4.37567,4.9978 L 4.81102,4.9978 L 4.98801,5.01442 L 5.11752,5.06425 L 5.19688,5.15276
 L 5.22333,5.28534 L 5.19772,5.42587 L 5.12093,5.52472 L 4.99225,5.58321 L 4.81102,5.60269 z
M 4.37567,6.49374 L 4.37567,5.80478 L 4.85849,5.80478 L 5.21449,5.88921 L 5.33316,6.14246 L 5.30605,6.29572
 L 5.22467,6.40558 L 5.08395,6.47169 L 4.87883,6.49374 z
M 36.2569,6.7148 L 36.3789,6.69038 L 36.3789,6.51001 L 36.2975,6.52425 L 36.2379,6.52901 L 36.1651,6.51833
 L 36.1178,6.48628 L 36.0919,6.4278 L 36.0833,6.33777 L 36.0833,5.41145 L 36.3545,5.41145 L 36.3545,5.2338
 L 36.0833,5.2338 L 36.0833,4.90558 L 35.9205,4.90558 L 35.8486,5.2338 L 35.6696,5.2338 L 35.6696,5.41145
 L 35.8391,5.41145 L 35.8391,6.39066 L 35.9124,6.63988 L 36.1321,6.72295 z
M 16.1264,6.7148 L 16.2485,6.69038 L 16.2485,6.51001 L 16.1671,6.52425 L 16.1074,6.52901 L 16.0347,6.51833
 L 15.9874,6.48628 L 15.9615,6.4278 L 15.9528,6.33777 L 15.9528,5.41145 L 16.2241,5.41145 L 16.2241,5.2338
 L 15.9528,5.2338 L 15.9528,4.90558 L 15.7901,4.90558 L 15.7182,5.2338 L 15.5392,5.2338 L 15.5392,5.41145
 L 15.7087,5.41145 L 15.7087,6.39066 L 15.7819,6.63988 L 16.0016,6.72295 z
M 20.9292,5.87666 L 21.5042,5.87666 L 21.5042,5.67863 L 20.9292,5.67863 L 20.9292,5.09818 L 20.7298,5.09818
 L 20.7298,5.67863 L 20.1547,5.67863 L 20.1547,5.87666 L 20.7298,5.87666 L 20.7298,6.45712 L 20.9292,6.45712
 z
M 25.345,6.71091 L 25.4825,6.65852 L 25.599,6.5641 L 25.7002,6.4205 L 25.7083,6.4205 L 25.7298,6.55223
 L 25.7782,6.6436 L 25.8584,6.69701 L 25.9755,6.7148 L 26.0708,6.70938 L 26.164,6.6931 L 26.164,6.5412
 L 26.1216,6.54832 L 26.084,6.5507 L 26.0169,6.53697 L 25.9755,6.49579 L 25.9541,6.42746 L 25.947,6.33234
 L 25.947,5.70033 L 25.9121,5.4886 L 25.8073,5.3335 L 25.6334,5.23839 L 25.391,5.20668 L 24.9807,5.30568
 L 24.8024,5.60269 L 25.0573,5.62576 L 25.0872,5.52031 L 25.1468,5.4481 L 25.2438,5.40639 L 25.3855,5.39247
 L 25.5266,5.4118 L 25.6242,5.4698 L 25.6812,5.57253 L 25.7002,5.72612 L 25.7002,5.80614 L 25.3706,5.81155
 L 25.0829,5.84818 L 24.8871,5.94176 L 24.7747,6.09026 L 24.7373,6.29166 L 24.7651,6.47339 L 24.8485,6.61172
 L 24.9871,6.6992 L 25.1807,6.72836 z
M 25.1307,6.52901 L 25.0526,6.48018 L 25.0043,6.40152 L 24.9882,6.29572 L 25,6.19638 L 25.0356,6.11806
 L 25.0934,6.05907 L 25.1719,6.0177 L 25.2816,5.99261 L 25.433,5.98244 L 25.7002,5.97702 L 25.7002,6.0977
 L 25.6851,6.20876 L 25.6398,6.31674 L 25.5685,6.41185 L 25.475,6.48424 L 25.3632,6.53003 L 25.2364,6.54529
 z
M 7.64212,5.85089 L 7.66483,5.65831 L 7.73297,5.51456 L 7.84012,5.42503 L 7.97981,5.3952 L 8.10832,5.41554
 L 8.19003,5.47658 L 8.23378,5.59084 L 8.24835,5.77087 L 8.24835,6.70125 L 8.48978,6.70125 L 8.48978,5.85089
 L 8.51198,5.65746 L 8.5786,5.51387 L 8.68524,5.42487 L 8.82747,5.3952 L 8.95598,5.41554 L 9.03769,5.47658
 L 9.08144,5.59084 L 9.09601,5.77087 L 9.09601,6.70125 L 9.33742,6.70125 L 9.33742,5.7234 L 9.31215,5.48674
 L 9.23637,5.32738 L 9.105,5.23685 L 8.91292,5.20668 L 8.77101,5.22295 L 8.65184,5.27177 L 8.55199,5.35756
 L 8.46808,5.4847 L 8.46399,5.4847 L 8.41127,5.35925 L 8.32904,5.27313 L 8.21461,5.2233 L 8.06526,5.20668
 L 7.92998,5.22194 L 7.81708,5.26772 L 7.72112,5.35248 L 7.63669,5.4847 L 7.63261,5.4847 L 7.63008,5.39468
 L 7.62787,5.33891 L 7.62601,5.30246 L 7.62448,5.27042 L 7.62312,5.24634 L 7.62178,5.2338 L 7.39122,5.2338
 L 7.39731,5.34061 L 7.39934,5.5471 L 7.39934,6.70125 L 7.64212,6.70125 z
M 12.1418,6.64156 L 12.3571,6.38116 L 12.1428,6.32014 L 12.0935,6.40932 L 12.0133,6.48154 L 11.9019,6.52934
 L 11.759,6.54529 L 11.5824,6.51103 L 11.4538,6.40831 L 11.3755,6.24249 L 11.3494,6.01904 L 12.3965,6.01904
 L 12.3965,5.98651 L 12.2347,5.40164 L 11.7495,5.20668 L 11.47,5.25516 L 11.2633,5.40062 L 11.1357,5.63695
 L 11.0931,5.95804 L 11.1357,6.29335 L 11.2633,6.53442 L 11.4723,6.67987 L 11.759,6.72836 z
M 11.3521,5.83189 L 11.3842,5.64661 L 11.464,5.50574 L 11.5863,5.41673 L 11.7455,5.38705 L 11.9072,5.41367
 L 12.0262,5.49352 L 12.1045,5.63135 L 12.1442,5.83189 z
M 16.6875,5.93634 L 16.7075,5.72052 L 16.7675,5.56134 L 16.8655,5.46318 L 16.9994,5.43045 L 17.0727,5.43385
 L 17.1296,5.44402 L 17.1296,5.22023 L 17.0798,5.21007 L 17.0306,5.20668 L 16.9079,5.22397 L 16.8163,5.27583
 L 16.7448,5.37483 L 16.6821,5.53352 L 16.6766,5.53352 L 16.6739,5.4335 L 16.6658,5.2338 L 16.4352,5.2338
 L 16.4413,5.41283 L 16.4434,5.57558 L 16.4434,6.70125 L 16.6875,6.70125 z
M 12.9205,5.93634 L 12.9405,5.72052 L 13.0005,5.56134 L 13.0985,5.46318 L 13.2324,5.43045 L 13.3056,5.43385
 L 13.3626,5.44402 L 13.3626,5.22023 L 13.3128,5.21007 L 13.2636,5.20668 L 13.1408,5.22397 L 13.0493,5.27583
 L 12.9778,5.37483 L 12.915,5.53352 L 12.9096,5.53352 L 12.9069,5.4335 L 12.8988,5.2338 L 12.6682,5.2338
 L 12.6743,5.41283 L 12.6763,5.57558 L 12.6763,6.70125 L 12.9205,6.70125 z
M 39.683,5.85089 L 39.7084,5.66 L 39.7847,5.5159 L 39.905,5.42537 L 40.0627,5.3952 L 40.1688,5.40401
 L 40.2458,5.43045 L 40.2997,5.47691 L 40.3367,5.54573 L 40.358,5.64203 L 40.3651,5.77087 L 40.3651,6.70125
 L 40.6106,6.70125 L 40.6106,5.7234 L 40.5826,5.48589 L 40.4987,5.32669 L 40.3544,5.23668 L 40.1454,5.20668
 L 39.9947,5.22244 L 39.8708,5.26974 L 39.7669,5.35501 L 39.6762,5.4847 L 39.6721,5.4847 L 39.6696,5.39468
 L 39.6674,5.33891 L 39.6655,5.30246 L 39.664,5.27042 L 39.6626,5.24634 L 39.6613,5.2338 L 39.4307,5.2338
 L 39.4368,5.34061 L 39.4388,5.5471 L 39.4388,6.70125 L 39.683,6.70125 z
M 34.5556,5.85089 L 34.5811,5.66 L 34.6573,5.5159 L 34.7777,5.42537 L 34.9354,5.3952 L 35.0415,5.40401
 L 35.1185,5.43045 L 35.1724,5.47691 L 35.2093,5.54573 L 35.2307,5.64203 L 35.2378,5.77087 L 35.2378,6.70125
 L 35.4833,6.70125 L 35.4833,5.7234 L 35.4553,5.48589 L 35.3714,5.32669 L 35.2271,5.23668 L 35.0181,5.20668
 L 34.8674,5.22244 L 34.7435,5.26974 L 34.6395,5.35501 L 34.5488,5.4847 L 34.5448,5.4847 L 34.5422,5.39468
 L 34.54,5.33891 L 34.5382,5.30246 L 34.5366,5.27042 L 34.5353,5.24634 L 34.5339,5.2338 L 34.3034,5.2338
 L 34.3095,5.34061 L 34.3115,5.5471 L 34.3115,6.70125 L 34.5556,6.70125 z
M 33.777,6.64156 L 33.9923,6.38116 L 33.778,6.32014 L 33.7287,6.40932 L 33.6485,6.48154 L 33.5371,6.52934
 L 33.3942,6.54529 L 33.2175,6.51103 L 33.089,6.40831 L 33.0107,6.24249 L 32.9846,6.01904 L 34.0316,6.01904
 L 34.0316,5.98651 L 33.8699,5.40164 L 33.3847,5.20668 L 33.1051,5.25516 L 32.8985,5.40062 L 32.7708,5.63695
 L 32.7283,5.95804 L 32.7708,6.29335 L 32.8985,6.53442 L 33.1075,6.67987 L 33.3942,6.72836 z
M 32.9873,5.83189 L 33.0193,5.64661 L 33.0992,5.50574 L 33.2214,5.41673 L 33.3806,5.38705 L 33.5423,5.41367
 L 33.6613,5.49352 L 33.7397,5.63135 L 33.7793,5.83189 z
M 30.7859,5.85089 L 30.8086,5.65831 L 30.8768,5.51456 L 30.9839,5.42503 L 31.1236,5.3952 L 31.2521,5.41554
 L 31.3338,5.47658 L 31.3776,5.59084 L 31.3922,5.77087 L 31.3922,6.70125 L 31.6336,6.70125 L 31.6336,5.85089
 L 31.6558,5.65746 L 31.7224,5.51387 L 31.8291,5.42487 L 31.9713,5.3952 L 32.0998,5.41554 L 32.1815,5.47658
 L 32.2253,5.59084 L 32.2398,5.77087 L 32.2398,6.70125 L 32.4812,6.70125 L 32.4812,5.7234 L 32.456,5.48674
 L 32.3802,5.32738 L 32.2488,5.23685 L 32.0567,5.20668 L 31.9148,5.22295 L 31.7957,5.27177 L 31.6958,5.35756
 L 31.6119,5.4847 L 31.6078,5.4847 L 31.5551,5.35925 L 31.4729,5.27313 L 31.3584,5.2233 L 31.2091,5.20668
 L 31.0738,5.22194 L 30.9609,5.26772 L 30.8649,5.35248 L 30.7805,5.4847 L 30.7764,5.4847 L 30.7739,5.39468
 L 30.7717,5.33891 L 30.7698,5.30246 L 30.7683,5.27042 L 30.7669,5.24634 L 30.7656,5.2338 L 30.535,5.2338
 L 30.5411,5.34061 L 30.5432,5.5471 L 30.5432,6.70125 L 30.7859,6.70125 z
M 29.2786,5.85089 L 29.3041,5.66 L 29.3804,5.5159 L 29.5007,5.42537 L 29.6584,5.3952 L 29.7645,5.40401
 L 29.8415,5.43045 L 29.8954,5.47691 L 29.9323,5.54573 L 29.9537,5.64203 L 29.9608,5.77087 L 29.9608,6.70125
 L 30.2063,6.70125 L 30.2063,5.7234 L 30.1783,5.48589 L 30.0944,5.32669 L 29.9501,5.23668 L 29.7411,5.20668
 L 29.5904,5.22244 L 29.4665,5.26974 L 29.3625,5.35501 L 29.2719,5.4847 L 29.2678,5.4847 L 29.2652,5.39468
 L 29.263,5.33891 L 29.2612,5.30246 L 29.2596,5.27042 L 29.2583,5.24634 L 29.2569,5.2338 L 29.0264,5.2338
 L 29.0325,5.34061 L 29.0345,5.5471 L 29.0345,6.70125 L 29.2786,6.70125 z
M 9.89772,6.70396 L 9.89636,6.53645 L 9.8923,6.47339 L 9.89908,6.47339 L 10.0713,6.66461 L 10.3548,6.72836
 L 10.7596,6.53645 L 10.8946,5.96074 L 10.861,5.62337 L 10.7603,5.38976 L 10.5918,5.25345 L 10.3548,5.20802
 L 10.1968,5.22379 L 10.0727,5.2711 L 9.97606,5.35229 L 9.90044,5.46977 L 9.89502,5.46977 L 9.89418,5.43317
 L 9.89162,5.37486 L 9.88841,5.31467 L 9.88553,5.27246 L 9.88315,5.24617 L 9.88147,5.2338 L 9.64546,5.2338
 L 9.65157,5.34535 L 9.65361,5.53352 L 9.65361,7.27765 L 9.89772,7.27765 z
M 10.111,6.51373 L 9.98994,6.411 L 9.92078,6.23605 L 9.89772,5.98515 L 9.9084,5.79715 L 9.94044,5.64813
 L 9.99301,5.53572 L 10.0652,5.45758 L 10.1631,5.4118 L 10.2924,5.39653 L 10.4484,5.42943 L 10.5555,5.52809
 L 10.6176,5.7034 L 10.6382,5.96617 L 10.6174,6.23555 L 10.5548,6.4144 L 10.4468,6.51459 L 10.2897,6.54799
 z
M 37.5662,6.70396 L 37.5648,6.53645 L 37.5608,6.47339 L 37.5676,6.47339 L 37.7398,6.66461 L 38.0232,6.72836
 L 38.4281,6.53645 L 38.563,5.96074 L 38.5295,5.62337 L 38.4288,5.38976 L 38.2603,5.25345 L 38.0232,5.20802
 L 37.8652,5.22379 L 37.7411,5.2711 L 37.6445,5.35229 L 37.5689,5.46977 L 37.5635,5.46977 L 37.5626,5.43317
 L 37.5601,5.37486 L 37.5569,5.31467 L 37.554,5.27246 L 37.5516,5.24617 L 37.5499,5.2338 L 37.3139,5.2338
 L 37.32,5.34535 L 37.3221,5.53352 L 37.3221,7.27765 L 37.5662,7.27765 z
M 37.7795,6.51373 L 37.6584,6.411 L 37.5892,6.23605 L 37.5662,5.98515 L 37.5769,5.79715 L 37.6089,5.64813
 L 37.6615,5.53572 L 37.7337,5.45758 L 37.8315,5.4118 L 37.9609,5.39653 L 38.1168,5.42943 L 38.224,5.52809
 L 38.286,5.7034 L 38.3067,5.96617 L 38.2858,6.23555 L 38.2233,6.4144 L 38.1153,6.51459 L 37.9581,6.54799
 z
M 18.1881,6.70396 L 18.1867,6.53645 L 18.1826,6.47339 L 18.1894,6.47339 L 18.3617,6.66461 L 18.6451,6.72836
 L 19.05,6.53645 L 19.1849,5.96074 L 19.1514,5.62337 L 19.0507,5.38976 L 18.8821,5.25345 L 18.6451,5.20802
 L 18.4871,5.22379 L 18.363,5.2711 L 18.2664,5.35229 L 18.1908,5.46977 L 18.1854,5.46977 L 18.1845,5.43317
 L 18.182,5.37486 L 18.1788,5.31467 L 18.1759,5.27246 L 18.1735,5.24617 L 18.1718,5.2338 L 17.9358,5.2338
 L 17.9419,5.34535 L 17.944,5.53352 L 17.944,7.27765 L 18.1881,7.27765 z
M 18.4014,6.51373 L 18.2803,6.411 L 18.2111,6.23605 L 18.1881,5.98515 L 18.1988,5.79715 L 18.2308,5.64813
 L 18.2834,5.53572 L 18.3556,5.45758 L 18.4534,5.4118 L 18.5827,5.39653 L 18.7387,5.42943 L 18.8459,5.52809
 L 18.9079,5.7034 L 18.9286,5.96617 L 18.9077,6.23555 L 18.8452,6.4144 L 18.7372,6.51459 L 18.58,6.54799
 z
M 28.5373,7.12303 L 28.6909,6.65919 L 28.6909,5.5376 L 28.6929,5.34637 L 28.699,5.2338 L 28.4671,5.2338
 L 28.4617,5.26601 L 28.4562,5.34366 L 28.4522,5.42909 L 28.4508,5.4847 L 28.4481,5.4847 L 28.3727,5.36823
 L 28.2711,5.28194 L 28.1462,5.22853 L 28.0005,5.21074 L 27.7579,5.25702 L 27.5862,5.39587 L 27.484,5.63203
 L 27.4499,5.97023 L 27.4816,6.30284 L 27.5767,6.53308 L 27.7393,6.66734 L 27.9734,6.7121 L 28.1246,6.69431
 L 28.2555,6.6409 L 28.3633,6.55223 L 28.4454,6.42865 L 28.4481,6.42865 L 28.4481,6.66463 L 28.3569,6.98503
 L 28.0833,7.09184 L 27.9607,7.07811 L 27.8642,7.0369 L 27.7956,6.97028 L 27.7564,6.88026 L 27.5109,6.91553
 L 27.577,7.06929 L 27.694,7.18338 L 27.8608,7.25407 L 28.0765,7.27765 z
M 27.8907,6.49881 L 27.7822,6.40016 L 27.7222,6.22621 L 27.7022,5.96751 L 27.7235,5.70576 L 27.7876,5.52809
 L 27.8985,5.42638 L 28.0602,5.39247 L 28.1669,5.40961 L 28.2616,5.46098 L 28.3404,5.54472 L 28.3993,5.65898
 L 28.4359,5.80087 L 28.4481,5.96751 L 28.4359,6.13043 L 28.3993,6.26929 L 28.3403,6.38133 L 28.2609,6.4639
 L 28.165,6.51476 L 28.0561,6.53171 z
M 41.6987,6.70023 L 41.8867,6.6158 L 42.0042,6.47949 L 42.0433,6.29572 L 42.0365,6.21622 L 42.0162,6.14586
 L 41.9835,6.08398 L 41.9396,6.02991 L 41.8811,5.98195 L 41.8046,5.93839 L 41.6921,5.89514 L 41.5252,5.84818
 L 41.3557,5.80342 L 41.2567,5.76952 L 41.2007,5.73799 L 41.1604,5.70036 L 41.136,5.65424 L 41.1278,5.59727
 L 41.1475,5.50844 L 41.2065,5.44537 L 41.3069,5.40775 L 41.4506,5.3952 L 41.5847,5.40825 L 41.6887,5.44742
 L 41.7604,5.51099 L 41.7979,5.59727 L 42.0175,5.57014 L 41.9533,5.40739 L 41.8365,5.29617 L 41.6685,5.2321
 L 41.4506,5.21074 L 41.2094,5.23701 L 41.0336,5.31586 L 40.9263,5.44487 L 40.8905,5.62167 L 40.903,5.72171
 L 40.9407,5.80478 L 41.0005,5.87378 L 41.0797,5.93159 L 41.1989,5.98431 L 41.3788,6.03804 L 41.5537,6.08414
 L 41.6683,6.12415 L 41.7463,6.17366 L 41.7911,6.23604 L 41.806,6.3147 L 41.7845,6.4144 L 41.7199,6.4856
 L 41.6088,6.52832 L 41.4479,6.54256 L 41.2933,6.52884 L 41.1767,6.48764 L 41.0956,6.41693 L 41.0479,6.3147
 L 40.8322,6.35677 L 40.9029,6.52272 L 41.0255,6.63818 L 41.2053,6.70581 L 41.4479,6.72836 z
M 15.0845,6.70023 L 15.2725,6.6158 L 15.39,6.47949 L 15.4292,6.29572 L 15.4224,6.21622 L 15.4021,6.14586
 L 15.3693,6.08398 L 15.3254,6.02991 L 15.267,5.98195 L 15.1905,5.93839 L 15.0779,5.89514 L 14.9111,5.84818
 L 14.7416,5.80342 L 14.6426,5.76952 L 14.5866,5.73799 L 14.5463,5.70036 L 14.5219,5.65424 L 14.5137,5.59727
 L 14.5334,5.50844 L 14.5924,5.44537 L 14.6927,5.40775 L 14.8365,5.3952 L 14.9706,5.40825 L 15.0745,5.44742
 L 15.1463,5.51099 L 15.1837,5.59727 L 15.4034,5.57014 L 15.3392,5.40739 L 15.2224,5.29617 L 15.0544,5.2321
 L 14.8365,5.21074 L 14.5953,5.23701 L 14.4195,5.31586 L 14.3121,5.44487 L 14.2764,5.62167 L 14.2889,5.72171
 L 14.3266,5.80478 L 14.3864,5.87378 L 14.4656,5.93159 L 14.5848,5.98431 L 14.7646,6.03804 L 14.9396,6.08414
 L 15.0542,6.12415 L 15.1322,6.17366 L 15.1769,6.23604 L 15.1919,6.3147 L 15.1703,6.4144 L 15.1057,6.4856
 L 14.9947,6.52832 L 14.8338,6.54256 L 14.6792,6.52884 L 14.5625,6.48764 L 14.4815,6.41693 L 14.4337,6.3147
 L 14.2181,6.35677 L 14.2888,6.52272 L 14.4113,6.63818 L 14.5912,6.70581 L 14.8338,6.72836 z
M 6.4944,6.7126 L 6.61832,6.6653 L 6.72224,6.58003 L 6.81294,6.45035 L 6.817,6.45035 L 6.81955,6.54036
 L 6.82175,6.59615 L 6.82361,6.63258 L 6.82515,6.66463 L 6.82651,6.68869 L 6.82787,6.70125 L 7.05843,6.70125
 L 7.05232,6.59444 L 7.05028,6.38794 L 7.05028,5.2338 L 6.80617,5.2338 L 6.80617,6.08414 L 6.78073,6.27504
 L 6.70444,6.41914 L 6.58408,6.50967 L 6.42641,6.53984 L 6.32028,6.53102 L 6.2433,6.50458 L 6.18939,6.45813
 L 6.15245,6.3893 L 6.13109,6.29301 L 6.12396,6.16417 L 6.12396,5.2338 L 5.87848,5.2338 L 5.87848,6.21164
 L 5.90645,6.44914 L 5.99036,6.60834 L 6.13464,6.69836 L 6.34369,6.72836 z
M 39.0735,5.2338 L 38.8294,5.2338 L 38.8294,6.70125 L 39.0735,6.70125 z
M 17.5841,5.2338 L 17.3399,5.2338 L 17.3399,6.70125 L 17.5841,6.70125 z
M 27.1605,5.2338 L 26.9164,5.2338 L 26.9164,6.70125 L 27.1605,6.70125 z
M 39.5425,16.7935 L 39.6672,16.5512 L 39.7408,16.2857 L 39.7654,15.9881 L 39.7654,15.9838 L 39.741,15.6877
 L 39.6677,15.4223 L 39.5432,15.1794 L 39.365,14.9509 L 39.1762,14.9509 L 39.3521,15.1841 L 39.474,15.4305
 L 39.5452,15.6957 L 39.569,15.9859 L 39.5454,16.276 L 39.4746,16.5409 L 39.3528,16.7871 L 39.1762,17.021
 L 39.365,17.021 z
M 18.098,16.5705 L 18.1982,16.5339 L 18.2789,16.469 L 18.342,16.3722 L 18.3463,16.3722 L 18.3473,16.4221
 L 18.3501,16.4807 L 18.3538,16.5322 L 18.3572,16.561 L 18.5438,16.561 L 18.5389,16.4712 L 18.5373,16.319
 L 18.5373,14.9509 L 18.342,14.9509 L 18.342,15.438 L 18.3442,15.5693 L 18.342,15.5693 L 18.2791,15.4774
 L 18.1988,15.4142 L 18.0987,15.3775 L 17.9763,15.3653 L 17.6525,15.5189 L 17.5445,15.9794 L 17.5707,16.2447
 L 17.6492,16.433 L 17.7834,16.5453 L 17.9763,16.5827 z
M 17.9001,16.4053 L 17.8147,16.3255 L 17.7659,16.1842 L 17.7496,15.9729 L 17.766,15.7618 L 17.8152,15.6187
 L 17.9014,15.5369 L 18.0284,15.5096 L 18.17,15.5368 L 18.2671,15.6181 L 18.3233,15.7578 L 18.342,15.9599
 L 18.3233,16.1701 L 18.2671,16.3169 L 18.1695,16.4031 L 18.0263,16.4319 z
M 20.2101,14.9509 L 20.0148,14.9509 L 20.0148,16.561 L 20.2101,16.561 z
M 30.8542,14.9509 L 30.6827,14.9509 L 30.2526,16.5249 L 29.653,15.0322 L 29.4175,15.0322 L 28.7937,16.561
 L 29.0085,16.561 L 29.1843,16.114 L 29.8808,16.114 L 30.0555,16.561 L 30.2427,16.561 L 30.2368,16.5827
 L 30.4126,16.5827 z
M 29.2472,15.9523 L 29.4425,15.45 L 29.4892,15.3217 L 29.5228,15.2189 L 29.5326,15.1885 L 29.5619,15.2785
 L 29.5922,15.368 L 29.6226,15.4478 L 29.819,15.9523 z
M 34.3246,15.8688 L 34.3453,15.7237 L 34.4076,15.6116 L 34.5043,15.54 L 34.6284,15.5162 L 34.7106,15.5232
 L 34.7727,15.5444 L 34.8174,15.5806 L 34.8475,15.6328 L 34.8646,15.7089 L 34.8703,15.8167 L 34.8703,16.561
 L 35.0667,16.561 L 35.0667,15.7787 L 35.0441,15.5874 L 34.9761,15.4603 L 34.8604,15.3891 L 34.6946,15.3653
 L 34.5707,15.3788 L 34.4705,15.4191 L 34.3885,15.4881 L 34.3192,15.5878 L 34.3159,15.5878 L 34.3177,15.562
 L 34.3208,15.5064 L 34.3236,15.437 L 34.3246,15.3697 L 34.3246,14.9509 L 34.1293,14.9509 L 34.1293,16.561
 L 34.3246,16.561 z
M 28.6163,16.7861 L 28.4947,16.5393 L 28.4243,16.2746 L 28.4008,15.9859 L 28.4246,15.6963 L 28.4958,15.4304
 L 28.6177,15.1836 L 28.7936,14.9509 L 28.6048,14.9509 L 28.4273,15.1784 L 28.3026,15.4207 L 28.229,15.6862
 L 28.2045,15.9838 L 28.2045,15.9881 L 28.2289,16.2842 L 28.3021,16.5496 L 28.4266,16.7925 L 28.6048,17.021
 L 28.7936,17.021 z
M 31.8784,16.5327 L 32.056,16.4476 L 32.1675,16.3116 L 32.2047,16.1302 L 32.18,15.9904 L 32.1059,15.8769
 L 31.9863,15.7962 L 31.8249,15.7549 L 31.9481,15.7082 L 32.0397,15.6312 L 32.0967,15.5281 L 32.1157,15.4033
 L 31.9812,15.125 L 31.5775,15.0322 L 31.022,15.0322 L 31.022,16.561 L 31.6426,16.561 z
M 31.2292,15.6822 L 31.2292,15.1982 L 31.5775,15.1982 L 31.7191,15.2115 L 31.8227,15.2514 L 31.8862,15.3222
 L 31.9074,15.4283 L 31.8869,15.5407 L 31.8255,15.6198 L 31.7225,15.6666 L 31.5775,15.6822 z
M 31.2292,16.395 L 31.2292,15.8438 L 31.6155,15.8438 L 31.9003,15.9114 L 31.9953,16.114 L 31.9736,16.2366
 L 31.9084,16.3245 L 31.7959,16.3774 L 31.6318,16.395 z
M 7.82451,16.5718 L 7.92215,16.5523 L 7.92215,16.408 L 7.85706,16.4194 L 7.80931,16.4232 L 7.75113,16.4147
 L 7.71329,16.389 L 7.69254,16.3422 L 7.68562,16.2702 L 7.68562,15.5292 L 7.90263,15.5292 L 7.90263,15.387
 L 7.68562,15.387 L 7.68562,15.1245 L 7.55544,15.1245 L 7.49791,15.387 L 7.35469,15.387 L 7.35469,15.5292
 L 7.49033,15.5292 L 7.49033,16.3125 L 7.54892,16.5119 L 7.72469,16.5784 z
M 6.69475,16.5687 L 6.80475,16.5268 L 6.89792,16.4513 L 6.9789,16.3364 L 6.98538,16.3364 L 7.00261,16.4418
 L 7.04126,16.5149 L 7.10542,16.5576 L 7.19914,16.5718 L 7.27536,16.5675 L 7.34995,16.5545 L 7.34995,16.433
 L 7.31606,16.4387 L 7.28595,16.4406 L 7.23224,16.4296 L 7.19913,16.3966 L 7.18204,16.342 L 7.17635,16.2659
 L 7.17635,15.7603 L 7.14841,15.5909 L 7.06459,15.4668 L 6.92545,15.3907 L 6.73151,15.3653 L 6.40329,15.4445
 L 6.26062,15.6822 L 6.46458,15.7006 L 6.48846,15.6163 L 6.53621,15.5585 L 6.61378,15.5251 L 6.72716,15.514
 L 6.84001,15.5294 L 6.91812,15.5758 L 6.9637,15.658 L 6.9789,15.7809 L 6.9789,15.8449 L 6.71523,15.8492
 L 6.48508,15.8785 L 6.32843,15.9534 L 6.23851,16.0722 L 6.20854,16.2333 L 6.23077,16.3787 L 6.2975,16.4894
 L 6.40845,16.5594 L 6.56332,16.5827 z
M 6.52332,16.4232 L 6.4608,16.3841 L 6.42215,16.3212 L 6.40926,16.2366 L 6.41875,16.1571 L 6.44724,16.0945
 L 6.49348,16.0472 L 6.55627,16.0142 L 6.64403,15.9941 L 6.76515,15.9859 L 6.9789,15.9816 L 6.9789,16.0782
 L 6.96683,16.167 L 6.9306,16.2534 L 6.8735,16.3295 L 6.79877,16.3874 L 6.70926,16.424 L 6.60782,16.4362
 z
M 25.0297,16.5687 L 25.1396,16.5268 L 25.2328,16.4513 L 25.3138,16.3364 L 25.3203,16.3364 L 25.3375,16.4418
 L 25.3762,16.5149 L 25.4403,16.5576 L 25.5341,16.5718 L 25.6103,16.5675 L 25.6849,16.5545 L 25.6849,16.433
 L 25.651,16.4387 L 25.6208,16.4406 L 25.5671,16.4296 L 25.534,16.3966 L 25.517,16.342 L 25.5113,16.2659
 L 25.5113,15.7603 L 25.4833,15.5909 L 25.3995,15.4668 L 25.2603,15.3907 L 25.0664,15.3653 L 24.7382,15.4445
 L 24.5955,15.6822 L 24.7995,15.7006 L 24.8234,15.6163 L 24.8711,15.5585 L 24.9487,15.5251 L 25.0621,15.514
 L 25.1749,15.5294 L 25.253,15.5758 L 25.2986,15.658 L 25.3138,15.7809 L 25.3138,15.8449 L 25.0501,15.8492
 L 24.82,15.8785 L 24.6633,15.9534 L 24.5734,16.0722 L 24.5434,16.2333 L 24.5657,16.3787 L 24.6324,16.4894
 L 24.7433,16.5594 L 24.8982,16.5827 z
M 24.8582,16.4232 L 24.7957,16.3841 L 24.757,16.3212 L 24.7442,16.2366 L 24.7537,16.1571 L 24.7821,16.0945
 L 24.8284,16.0472 L 24.8912,16.0142 L 24.9789,15.9941 L 25.1001,15.9859 L 25.3138,15.9816 L 25.3138,16.0782
 L 25.3017,16.167 L 25.2655,16.2534 L 25.2084,16.3295 L 25.1337,16.3874 L 25.0442,16.424 L 24.9427,16.4362
 z
M 9.46031,16.5132 L 9.63255,16.3049 L 9.46114,16.2561 L 9.42165,16.3275 L 9.3575,16.3852 L 9.2684,16.4235
 L 9.15407,16.4362 L 9.01274,16.4088 L 8.90993,16.3266 L 8.84727,16.194 L 8.8264,16.0152 L 9.66403,16.0152
 L 9.66403,15.9892 L 9.53464,15.5213 L 9.14647,15.3653 L 8.92284,15.4041 L 8.75749,15.5205 L 8.65538,15.7095
 L 8.62134,15.9664 L 8.65538,16.2347 L 8.75749,16.4275 L 8.92473,16.5439 L 9.15407,16.5827 z
M 8.82857,15.8655 L 8.8542,15.7173 L 8.91808,15.6046 L 9.01587,15.5334 L 9.14322,15.5096 L 9.2726,15.5309
 L 9.3678,15.5948 L 9.43047,15.7051 L 9.4622,15.8655 z
M 11.7523,16.5132 L 11.9246,16.3049 L 11.7531,16.2561 L 11.7137,16.3275 L 11.6495,16.3852 L 11.5604,16.4235
 L 11.4461,16.4362 L 11.3047,16.4088 L 11.2019,16.3266 L 11.1393,16.194 L 11.1184,16.0152 L 11.956,16.0152
 L 11.956,15.9892 L 11.8266,15.5213 L 11.4385,15.3653 L 11.2148,15.4041 L 11.0495,15.5205 L 10.9474,15.7095
 L 10.9133,15.9664 L 10.9474,16.2347 L 11.0495,16.4275 L 11.2167,16.5439 L 11.4461,16.5827 z
M 11.1206,15.8655 L 11.1462,15.7173 L 11.2101,15.6046 L 11.3079,15.5334 L 11.4352,15.5096 L 11.5646,15.5309
 L 11.6598,15.5948 L 11.7225,15.7051 L 11.7542,15.8655 z
M 12.3752,15.9491 L 12.3912,15.7764 L 12.4393,15.6491 L 12.5176,15.5705 L 12.6248,15.5444 L 12.6834,15.5471
 L 12.7289,15.5552 L 12.7289,15.3762 L 12.6891,15.3681 L 12.6497,15.3653 L 12.5515,15.3792 L 12.4783,15.4207
 L 12.4211,15.4999 L 12.3709,15.6268 L 12.3665,15.6268 L 12.3644,15.5468 L 12.3579,15.387 L 12.1734,15.387
 L 12.1783,15.5303 L 12.1799,15.6605 L 12.1799,16.561 L 12.3752,16.561 z
M 26.0043,15.8807 L 26.0224,15.7267 L 26.077,15.6116 L 26.1627,15.54 L 26.2744,15.5162 L 26.3772,15.5324
 L 26.4426,15.5813 L 26.4776,15.6727 L 26.4892,15.8167 L 26.4892,16.561 L 26.6824,16.561 L 26.6824,15.8807
 L 26.7001,15.726 L 26.7534,15.6111 L 26.8388,15.5399 L 26.9525,15.5162 L 27.0553,15.5324 L 27.1207,15.5813
 L 27.1557,15.6727 L 27.1674,15.8167 L 27.1674,16.561 L 27.3605,16.561 L 27.3605,15.7787 L 27.3403,15.5894
 L 27.2797,15.4619 L 27.1746,15.3895 L 27.0209,15.3653 L 26.9074,15.3784 L 26.812,15.4174 L 26.7321,15.4861
 L 26.665,15.5878 L 26.6618,15.5878 L 26.6196,15.4874 L 26.5538,15.4185 L 26.4622,15.3786 L 26.3428,15.3653
 L 26.2345,15.3775 L 26.1442,15.4142 L 26.0675,15.482 L 25.9999,15.5878 L 25.9967,15.5878 L 25.9946,15.5157
 L 25.9929,15.4711 L 25.9914,15.442 L 25.9901,15.4163 L 25.9891,15.3971 L 25.988,15.387 L 25.8035,15.387
 L 25.8084,15.4725 L 25.81,15.6377 L 25.81,16.561 L 26.0043,16.561 z
M 14.7848,15.8807 L 14.803,15.7267 L 14.8575,15.6116 L 14.9432,15.54 L 15.055,15.5162 L 15.1578,15.5324
 L 15.2232,15.5813 L 15.2582,15.6727 L 15.2698,15.8167 L 15.2698,16.561 L 15.463,16.561 L 15.463,15.8807
 L 15.4807,15.726 L 15.534,15.6111 L 15.6193,15.5399 L 15.7331,15.5162 L 15.8359,15.5324 L 15.9013,15.5813
 L 15.9363,15.6727 L 15.948,15.8167 L 15.948,16.561 L 16.1411,16.561 L 16.1411,15.7787 L 16.1209,15.5894
 L 16.0602,15.4619 L 15.9551,15.3895 L 15.8015,15.3653 L 15.688,15.3784 L 15.5926,15.4174 L 15.5127,15.4861
 L 15.4456,15.5878 L 15.4423,15.5878 L 15.4002,15.4874 L 15.3344,15.4185 L 15.2428,15.3786 L 15.1234,15.3653
 L 15.0151,15.3775 L 14.9248,15.4142 L 14.848,15.482 L 14.7805,15.5878 L 14.7772,15.5878 L 14.7752,15.5157
 L 14.7734,15.4711 L 14.7719,15.442 L 14.7707,15.4163 L 14.7696,15.3971 L 14.7686,15.387 L 14.5841,15.387
 L 14.589,15.4725 L 14.5906,15.6377 L 14.5906,16.561 L 14.7848,16.561 z
M 24.1755,16.5132 L 24.3477,16.3049 L 24.1763,16.2561 L 24.1368,16.3275 L 24.0727,16.3852 L 23.9836,16.4235
 L 23.8693,16.4362 L 23.7279,16.4088 L 23.6251,16.3266 L 23.5625,16.194 L 23.5416,16.0152 L 24.3792,16.0152
 L 24.3792,15.9892 L 24.2498,15.5213 L 23.8617,15.3653 L 23.638,15.4041 L 23.4727,15.5205 L 23.3706,15.7095
 L 23.3365,15.9664 L 23.3706,16.2347 L 23.4727,16.4275 L 23.6399,16.5439 L 23.8693,16.5827 z
M 23.5438,15.8655 L 23.5694,15.7173 L 23.6333,15.6046 L 23.731,15.5334 L 23.8584,15.5096 L 23.9878,15.5309
 L 24.083,15.5948 L 24.1457,15.7051 L 24.1774,15.8655 z
M 17.0849,16.545 L 17.2512,16.4319 L 17.3529,16.2417 L 17.3868,15.9729 L 17.3551,15.7024 L 17.2598,15.5134
 L 17.0974,15.4024 L 16.8638,15.3653 L 16.4692,15.5172 L 16.3376,15.9729 L 16.3704,16.2343 L 16.4689,16.4259
 L 16.6316,16.5435 L 16.8573,16.5827 z
M 16.715,16.4092 L 16.6181,16.3217 L 16.5615,16.1762 L 16.5427,15.9729 L 16.5618,15.7658 L 16.6192,15.6219
 L 16.7194,15.5377 L 16.8671,15.5096 L 17.0129,15.5372 L 17.1096,15.6198 L 17.1637,15.7631 L 17.1817,15.9729
 L 17.1629,16.181 L 17.1063,16.3255 L 17.0058,16.4102 L 16.8551,16.4384 z
M 21.2806,16.5132 L 21.4528,16.3049 L 21.2814,16.2561 L 21.2419,16.3275 L 21.1778,16.3852 L 21.0887,16.4235
 L 20.9743,16.4362 L 20.833,16.4088 L 20.7302,16.3266 L 20.6675,16.194 L 20.6467,16.0152 L 21.4843,16.0152
 L 21.4843,15.9892 L 21.3549,15.5213 L 20.9667,15.3653 L 20.7431,15.4041 L 20.5778,15.5205 L 20.4756,15.7095
 L 20.4416,15.9664 L 20.4756,16.2347 L 20.5778,16.4275 L 20.745,16.5439 L 20.9743,16.5827 z
M 20.6488,15.8655 L 20.6745,15.7173 L 20.7383,15.6046 L 20.8361,15.5334 L 20.9635,15.5096 L 21.0929,15.5309
 L 21.1881,15.5948 L 21.2507,15.7051 L 21.2825,15.8655 z
M 38.3056,15.8807 L 38.326,15.728 L 38.387,15.6127 L 38.4833,15.5403 L 38.6094,15.5162 L 38.6943,15.5232
 L 38.7559,15.5444 L 38.799,15.5815 L 38.8286,15.6366 L 38.8457,15.7136 L 38.8514,15.8167 L 38.8514,16.561
 L 39.0478,16.561 L 39.0478,15.7787 L 39.0254,15.5887 L 38.9583,15.4614 L 38.8428,15.3893 L 38.6756,15.3653
 L 38.555,15.378 L 38.4559,15.4158 L 38.3728,15.484 L 38.3002,15.5878 L 38.297,15.5878 L 38.2949,15.5157
 L 38.2932,15.4711 L 38.2917,15.442 L 38.2904,15.4163 L 38.2894,15.3971 L 38.2883,15.387 L 38.1038,15.387
 L 38.1087,15.4725 L 38.1103,15.6377 L 38.1103,16.561 L 38.3056,16.561 z
M 36.0227,16.545 L 36.189,16.4319 L 36.2907,16.2417 L 36.3246,15.9729 L 36.2929,15.7024 L 36.1977,15.5134
 L 36.0352,15.4024 L 35.8017,15.3653 L 35.407,15.5172 L 35.2755,15.9729 L 35.3083,16.2343 L 35.4067,16.4259
 L 35.5695,16.5435 L 35.7952,16.5827 z
M 35.6529,16.4092 L 35.5559,16.3217 L 35.4994,16.1762 L 35.4805,15.9729 L 35.4996,15.7658 L 35.557,15.6219
 L 35.6572,15.5377 L 35.8049,15.5096 L 35.9507,15.5372 L 36.0474,15.6198 L 36.1015,15.7631 L 36.1196,15.9729
 L 36.1007,16.181 L 36.0442,16.3255 L 35.9437,16.4102 L 35.793,16.4384 z
M 22.9121,16.5602 L 23.0625,16.4926 L 23.1565,16.3836 L 23.1878,16.2366 L 23.1824,16.173 L 23.1661,16.1167
 L 23.1399,16.0672 L 23.1048,16.0239 L 23.058,15.9855 L 22.9969,15.9507 L 22.9068,15.9161 L 22.7733,15.8785
 L 22.6377,15.8427 L 22.5585,15.8156 L 22.5137,15.7904 L 22.4815,15.7603 L 22.4619,15.7234 L 22.4554,15.6778
 L 22.4712,15.6068 L 22.5184,15.5563 L 22.5987,15.5262 L 22.7137,15.5162 L 22.821,15.5266 L 22.9041,15.5579
 L 22.9615,15.6088 L 22.9914,15.6778 L 23.1672,15.6561 L 23.1158,15.5259 L 23.0223,15.437 L 22.8879,15.3857
 L 22.7137,15.3686 L 22.5207,15.3896 L 22.38,15.4527 L 22.2942,15.5559 L 22.2656,15.6973 L 22.2756,15.7774
 L 22.3057,15.8438 L 22.3536,15.899 L 22.4169,15.9453 L 22.5123,15.9875 L 22.6562,16.0304 L 22.7961,16.0673
 L 22.8878,16.0993 L 22.9502,16.1389 L 22.986,16.1888 L 22.9979,16.2518 L 22.9807,16.3315 L 22.929,16.3885
 L 22.8402,16.4227 L 22.7115,16.4341 L 22.5878,16.4231 L 22.4945,16.3901 L 22.4297,16.3335 L 22.3914,16.2518
 L 22.2189,16.2854 L 22.2755,16.4182 L 22.3735,16.5105 L 22.5174,16.5647 L 22.7115,16.5827 z
M 33.6452,16.5602 L 33.7956,16.4926 L 33.8896,16.3836 L 33.9209,16.2366 L 33.9155,16.173 L 33.8992,16.1167
 L 33.873,16.0672 L 33.8379,16.0239 L 33.7911,15.9855 L 33.7299,15.9507 L 33.6399,15.9161 L 33.5064,15.8785
 L 33.3708,15.8427 L 33.2916,15.8156 L 33.2468,15.7904 L 33.2145,15.7603 L 33.195,15.7234 L 33.1885,15.6778
 L 33.2042,15.6068 L 33.2514,15.5563 L 33.3317,15.5262 L 33.4467,15.5162 L 33.554,15.5266 L 33.6372,15.5579
 L 33.6945,15.6088 L 33.7245,15.6778 L 33.9003,15.6561 L 33.8489,15.5259 L 33.7554,15.437 L 33.621,15.3857
 L 33.4467,15.3686 L 33.2538,15.3896 L 33.1131,15.4527 L 33.0273,15.5559 L 32.9986,15.6973 L 33.0087,15.7774
 L 33.0388,15.8438 L 33.0867,15.899 L 33.15,15.9453 L 33.2453,15.9875 L 33.3893,16.0304 L 33.5292,16.0673
 L 33.6209,16.0993 L 33.6833,16.1389 L 33.7191,16.1888 L 33.731,16.2518 L 33.7138,16.3315 L 33.6621,16.3885
 L 33.5733,16.4227 L 33.4446,16.4341 L 33.3209,16.4231 L 33.2276,16.3901 L 33.1628,16.3335 L 33.1245,16.2518
 L 32.952,16.2854 L 33.0085,16.4182 L 33.1066,16.5105 L 33.2505,16.5647 L 33.4446,16.5827 z
M 37.0959,15.9522 L 37.1616,15.6881 L 37.1795,15.6072 L 37.192,15.5476 L 37.231,15.731 L 37.4361,16.561
 L 37.6629,16.561 L 37.9992,15.387 L 37.8082,15.387 L 37.5858,16.2485 L 37.5522,16.3993 L 37.5023,16.1932
 L 37.2972,15.387 L 37.0878,15.387 L 36.8426,16.319 L 36.8242,16.3993 L 36.793,16.2512 L 36.7775,16.1845
 L 36.5789,15.387 L 36.3858,15.387 L 36.7146,16.561 L 36.9402,16.561 z
M 19.2952,16.5701 L 19.3943,16.5322 L 19.4775,16.464 L 19.55,16.3603 L 19.5533,16.3603 L 19.5553,16.4323
 L 19.5571,16.4769 L 19.5585,16.5061 L 19.5598,16.5317 L 19.5609,16.5509 L 19.562,16.561 L 19.7464,16.561
 L 19.7415,16.4756 L 19.7399,16.3103 L 19.7399,15.387 L 19.5446,15.387 L 19.5446,16.0673 L 19.5242,16.22
 L 19.4632,16.3353 L 19.3669,16.4077 L 19.2408,16.4319 L 19.1559,16.4248 L 19.0943,16.4037 L 19.0512,16.3665
 L 19.0216,16.3114 L 19.0045,16.2344 L 18.9988,16.1313 L 18.9988,15.387 L 18.8024,15.387 L 18.8024,16.1693
 L 18.8248,16.3593 L 18.892,16.4867 L 19.0074,16.5587 L 19.1746,16.5827 z
M 10.8373,15.387 L 10.6301,15.387 L 10.3632,16.153 L 10.3208,16.2811 L 10.2829,16.408 L 10.2338,16.2368
 L 10.208,16.1509 L 9.94978,15.387 L 9.74146,15.387 L 10.1679,16.561 L 10.399,16.561 z
M 13.0473,17.0108 L 13.1288,16.9771 L 13.2019,16.9204 L 13.2682,16.8404 L 13.3336,16.7247 L 13.4039,16.561
 L 13.8552,15.387 L 13.6491,15.387 L 13.3919,16.1346 L 13.316,16.3483 L 13.3032,16.3076 L 13.2715,16.2138
 L 13.2387,16.1182 L 13.2227,16.0722 L 13.2097,16.0359 L 12.9623,15.387 L 12.754,15.387 L 13.2194,16.5556
 L 13.201,16.6022 L 13.0757,16.8032 L 12.9124,16.8702 L 12.8646,16.8686 L 12.8212,16.8637 L 12.8212,17.0102
 L 12.882,17.0191 L 12.9558,17.0221 z
" stroke="black" fill="lightgray" stroke-width="0.5"/>
</svg>
